<?xml version="1.0" standalone="no"?>
<!DOCTYPE svg PUBLIC "-//W3C//DTD SVG 1.1//EN" "http://www.w3.org/Graphics/SVG/1.1/DTD/svg11.dtd" >
<svg>
<metadata>
Created by FontForge 20090914 at Wed Apr 26 11:57:44 2017
 By www-data
Copyright 2000, 2004 , 2005Adobe Systems Incorporated. All Rights Reserved. U.S. Patent D454,582.Myriad is a registered trademark of Adobe Systems Incorporated.
</metadata>
<defs>
<font id="MyriadPro-BlackSemiCn" horiz-adv-x="300" >
  <font-face 
    font-family="Myriad Pro"
    font-weight="900"
    font-stretch="semi-condensed"
    units-per-em="1000"
    panose-1="2 11 8 3 3 4 3 2 2 4"
    ascent="750"
    descent="-250"
    x-height="492"
    cap-height="674"
    bbox="-162 -250 1205 996"
    underline-thickness="50"
    underline-position="-50"
    stemh="125"
    stemv="173"
    unicode-range="U+0020-U+FB04"
  />
<missing-glyph horiz-adv-x="500" 
d="M0 0v700h500v-700h-500zM250 395l170 255h-340zM280 350l170 -255v510zM80 50h340l-170 255zM50 605v-510l170 255z" />
    <glyph glyph-name="f_f_j" unicode="ffj" horiz-adv-x="881" 
d="M779 692l-30 -130c-25 9 -58 16 -100 16c-72 0 -98 -32 -98 -72v-14h289v-435c0 -112 -27 -175 -73 -213c-45 -38 -116 -56 -191 -56l-15 135c34 3 62 10 80 28c20 19 27 58 27 140v276h-116v-367h-173v367h-132v-367h-173v367h-65v125h65v4c0 60 22 120 70 158
c33 28 79 47 142 47c34 0 64 -7 83 -14l-38 -124c-9 4 -20 6 -34 6c-15 0 -26 -6 -34 -13c-13 -13 -17 -35 -17 -53v-11h133v19c0 113 94 204 263 204c49 0 104 -8 137 -23z" />
    <glyph glyph-name="f_j" unicode="fj" horiz-adv-x="586" 
d="M247 0h-173v367h-65v125h65v19c0 113 94 204 263 204c53 0 113 -10 145 -27l-28 -131c-24 11 -62 21 -109 21c-73 0 -99 -32 -99 -72v-14h290v-435c0 -112 -27 -175 -73 -213s-117 -56 -192 -56l-15 135c34 3 63 10 80 28c21 19 27 58 27 140v276h-116v-367z" />
    <glyph glyph-name="f_f" unicode="ff" horiz-adv-x="645" 
d="M545 0h-173v367h-125v-367h-173v367h-65v125h65v4c0 52 14 109 55 149c32 34 82 56 154 56c22 0 47 -5 62 -10l-22 -128c-11 3 -22 5 -32 5c-34 0 -45 -29 -45 -65v-11h126v16c0 55 18 117 61 157c38 35 90 50 138 50c35 0 62 -4 84 -10l-7 -132c-13 3 -27 5 -44 5
c-39 0 -60 -28 -60 -63v-23h88v-125h-87v-367z" />
    <glyph glyph-name="f_i" unicode="fi" horiz-adv-x="587" 
d="M247 0h-173v367h-65v125h65v19c0 113 94 204 263 204c53 0 113 -10 145 -27l-28 -131c-24 11 -62 21 -109 21c-73 0 -99 -32 -99 -72v-14h290v-492h-173v367h-116v-367z" />
    <glyph glyph-name="f_l" unicode="fl" horiz-adv-x="587" 
d="M247 0h-173v367h-65v125h65v19c0 44 26 109 73 147c47 37 108 57 192 57c76 0 147 -15 197 -40v-675h-173v578c-10 5 -25 8 -48 8c-47 0 -69 -33 -69 -76v-18h75v-125h-74v-367z" />
    <glyph glyph-name="f_f_i" unicode="ffi" horiz-adv-x="892" 
d="M779 692l-30 -130c-25 9 -58 16 -100 16c-72 0 -98 -32 -98 -72v-14h289v-492h-172v367h-116v-367h-173v367h-132v-367h-173v367h-65v125h65v4c0 60 22 120 70 158c33 28 79 47 142 47c34 0 64 -7 83 -14l-38 -124c-9 4 -20 6 -34 6c-15 0 -26 -6 -34 -13
c-13 -13 -17 -35 -17 -53v-11h133v19c0 113 94 204 263 204c49 0 104 -8 137 -23z" />
    <glyph glyph-name="f_f_l" unicode="ffl" horiz-adv-x="892" 
d="M371 689l-36 -126c-10 4 -22 6 -36 6c-16 0 -28 -6 -36 -14c-13 -13 -17 -33 -17 -52v-11h133v19c0 44 25 109 73 147c47 37 108 57 191 57c77 0 148 -15 197 -40v-675h-172v578c-10 5 -25 8 -48 8c-47 0 -69 -33 -69 -76v-18h74v-125h-73v-367h-173v367h-132v-367h-173
v367h-65v125h65v4c0 66 25 121 69 155c38 33 92 50 153 50c29 0 58 -6 75 -12z" />
    <glyph glyph-name=".notdef" horiz-adv-x="500" 
d="M0 0v700h500v-700h-500zM250 395l170 255h-340zM280 350l170 -255v510zM80 50h340l-170 255zM50 605v-510l170 255z" />
    <glyph glyph-name="space" unicode=" " horiz-adv-x="186" 
 />
    <glyph glyph-name="exclam" unicode="!" horiz-adv-x="274" 
d="M204 232h-134l-23 442h180zM137 -10h-1c-56 0 -97 42 -97 99c0 60 42 101 98 101c57 0 97 -41 97 -101c0 -57 -38 -99 -97 -99z" />
    <glyph glyph-name="quotedbl" unicode="&#x22;" horiz-adv-x="398" 
d="M28 690h145l-25 -281h-95zM226 690h145l-25 -281h-95z" />
    <glyph glyph-name="numbersign" unicode="#" horiz-adv-x="534" 
d="M221 278h81l14 98h-81zM181 0h-98l26 178h-80v100h96l14 98h-82v101h97l24 173h96l-24 -173h81l24 173h97l-25 -173h78v-101h-93l-13 -98h79v-100h-96l-24 -178h-98l26 178h-81z" />
    <glyph glyph-name="dollar" unicode="$" horiz-adv-x="534" 
d="M317 -87h-109v96c-62 3 -121 19 -156 36l29 133c41 -20 94 -38 155 -38c49 0 80 16 80 48c0 31 -27 52 -94 78c-103 40 -166 90 -166 184c0 85 57 155 161 180v96h109v-87c60 -2 103 -15 136 -29l-30 -129c-25 12 -66 31 -131 31c-55 0 -74 -21 -74 -45s26 -43 105 -77
c115 -45 155 -102 155 -187c0 -91 -61 -163 -170 -185v-105z" />
    <glyph glyph-name="percent" unicode="%" horiz-adv-x="842" 
d="M197 660h1c116 0 169 -97 169 -194c0 -136 -84 -207 -173 -207c-105 0 -172 88 -172 197c0 106 63 204 175 204zM195 569h-1c-34 0 -49 -42 -49 -109c-1 -71 17 -110 51 -110c32 0 48 35 48 109c0 67 -13 110 -49 110zM282 -10h-88l364 669h88zM650 392h1
c116 0 168 -97 168 -194c0 -136 -84 -207 -173 -207c-104 0 -172 88 -172 197c0 106 63 204 176 204zM648 301h-1c-34 0 -50 -42 -50 -109c-1 -71 17 -110 52 -110c31 0 48 36 48 109c0 67 -14 110 -49 110z" />
    <glyph glyph-name="ampersand" unicode="&#x26;" horiz-adv-x="660" 
d="M656 0h-196c-11 13 -22 25 -33 39c-37 -26 -95 -49 -170 -49c-160 0 -231 94 -231 191c0 87 47 150 121 189v3c-30 34 -50 84 -50 131c0 89 71 180 206 180c108 0 187 -64 187 -162c0 -64 -32 -123 -124 -174l-1 -5c31 -36 65 -82 89 -105c25 38 40 96 46 147h150
c-15 -100 -51 -189 -109 -251zM283 114h1c29 0 52 10 67 22c-37 37 -84 94 -129 146c-20 -17 -35 -41 -35 -74c0 -50 36 -94 96 -94zM299 577h-1c-30 0 -47 -29 -47 -59c0 -31 11 -57 40 -88c39 30 54 56 54 87c0 27 -14 60 -46 60z" />
    <glyph glyph-name="quotesingle" unicode="'" horiz-adv-x="200" 
d="M28 690h145l-25 -281h-95z" />
    <glyph glyph-name="parenleft" unicode="(" horiz-adv-x="307" 
d="M156 690h119c-52 -90 -96 -223 -96 -404c0 -177 44 -310 96 -402h-119c-51 75 -110 211 -110 403c3 193 59 328 110 403z" />
    <glyph glyph-name="parenright" unicode=")" horiz-adv-x="307" 
d="M151 -116h-119c53 91 96 226 96 404s-43 312 -96 402h119c52 -74 110 -207 110 -402c-2 -195 -58 -327 -110 -404z" />
    <glyph glyph-name="asterisk" unicode="*" horiz-adv-x="447" 
d="M278 684l97 -56l-110 -124v-3l158 35v-112l-159 31l-1 -2l112 -122l-99 -57l-55 158l-2 -2l-55 -156l-94 57l110 124l-1 2l-155 -33v112l153 -35l2 3l-109 124l99 56l52 -155h3z" />
    <glyph glyph-name="plus" unicode="+" horiz-adv-x="596" 
d="M244 532h108v-213h204v-104h-204v-215h-108v215h-204v104h204v213z" />
    <glyph glyph-name="comma" unicode="," horiz-adv-x="273" 
d="M111 -110l-112 -10c34 99 61 203 76 297l171 10c-35 -104 -80 -208 -135 -297z" />
    <glyph glyph-name="hyphen" unicode="-" horiz-adv-x="305" 
d="M30 324h245v-115h-245v115z" />
    <glyph glyph-name="period" unicode="." horiz-adv-x="273" 
d="M147 -10h-1c-56 0 -97 42 -97 103s42 104 98 104s98 -41 98 -104c0 -61 -40 -103 -98 -103z" />
    <glyph glyph-name="slash" unicode="/" horiz-adv-x="312" 
d="M116 -40h-110l203 724h110z" />
    <glyph glyph-name="zero" unicode="0" horiz-adv-x="534" 
d="M269 660c184 0 237 -177 237 -333c0 -204 -83 -337 -239 -337c-178 0 -239 169 -239 333c0 175 68 337 241 337zM269 525c-42 0 -69 -57 -68 -200c-1 -144 24 -201 69 -201c41 0 64 59 64 201c0 136 -22 200 -65 200z" />
    <glyph glyph-name="one" unicode="1" horiz-adv-x="534" 
d="M218 0v496h-2l-124 -57l-27 131l176 80h144v-650h-167z" />
    <glyph glyph-name="two" unicode="2" horiz-adv-x="534" 
d="M484 0h-449v108l84 81c118 112 183 182 184 252c0 47 -30 80 -92 80c-49 0 -94 -23 -127 -46l-42 126c45 32 120 59 203 59c153 0 229 -88 229 -205c0 -109 -74 -194 -150 -261l-55 -48v-2h215v-144z" />
    <glyph glyph-name="three" unicode="3" horiz-adv-x="534" 
d="M32 31l30 130c27 -14 84 -35 137 -35c64 0 103 28 103 73c0 57 -56 81 -116 81h-53v123h48c47 1 104 15 104 63c0 35 -30 58 -83 58c-46 0 -96 -19 -121 -33l-30 125c38 23 113 44 193 44c137 0 215 -73 215 -164c0 -67 -38 -120 -111 -147v-2c74 -17 131 -75 131 -158
c0 -112 -101 -199 -264 -199c-80 0 -146 19 -183 41z" />
    <glyph glyph-name="four" unicode="4" horiz-adv-x="534" 
d="M446 0h-159v146h-266v113l223 391h202v-374h69v-130h-69v-146zM174 276h113v111c0 38 2 79 5 120h-4c-18 -39 -35 -77 -56 -119l-57 -110z" />
    <glyph glyph-name="five" unicode="5" horiz-adv-x="534" 
d="M460 650v-143h-229l-10 -77c12 1 22 1 32 1c54 -1 121 -15 166 -51s68 -88 68 -159c0 -120 -99 -231 -278 -231c-73 0 -136 16 -171 32l27 131c29 -13 82 -28 133 -28c58 0 114 25 114 85c0 66 -57 96 -169 96c-29 0 -50 -1 -74 -5l40 349h351z" />
    <glyph glyph-name="six" unicode="6" horiz-adv-x="534" 
d="M444 658v-133c-17 1 -35 0 -57 -2c-117 -9 -167 -64 -185 -130h3c30 28 69 43 120 43c101 0 187 -76 187 -210c0 -126 -92 -236 -234 -236c-170 0 -252 128 -252 281c0 130 47 230 117 294c62 56 144 87 236 92c31 3 51 2 65 1zM275 115h1c43 0 63 49 63 106
c-1 43 -19 94 -71 94c-30 0 -54 -19 -64 -43c-4 -8 -6 -23 -6 -47c3 -55 26 -110 77 -110z" />
    <glyph glyph-name="seven" unicode="7" horiz-adv-x="534" 
d="M44 650h448v-109l-244 -541h-179l242 504v2h-267v144z" />
    <glyph glyph-name="eight" unicode="8" horiz-adv-x="534" 
d="M131 334v2c-58 33 -85 86 -85 141c0 112 99 183 227 183c143 0 213 -82 213 -168c0 -50 -26 -106 -88 -140v-2c57 -23 110 -78 110 -161c0 -123 -99 -199 -245 -199c-159 0 -237 88 -237 182c0 77 42 131 105 162zM270 106c41 0 65 34 65 73c0 50 -37 83 -79 96
c-35 -13 -57 -44 -57 -86s26 -83 71 -83zM266 546c-40 0 -59 -32 -59 -65c0 -36 30 -63 72 -78c25 7 47 39 47 71c0 36 -17 72 -60 72z" />
    <glyph glyph-name="nine" unicode="9" horiz-adv-x="534" 
d="M84 -8v135c23 -2 36 -1 64 1c38 2 79 12 109 31c37 23 62 61 73 101l-3 1c-24 -23 -59 -36 -110 -36c-101 0 -192 72 -192 201c0 123 96 234 240 234c165 0 239 -128 239 -278c0 -140 -44 -239 -115 -304c-59 -54 -141 -83 -241 -87c-22 -2 -46 0 -64 1zM260 536h-1
c-37 0 -64 -39 -63 -99c0 -46 20 -93 68 -93c31 0 50 15 58 29c5 11 6 23 6 53c1 54 -18 110 -68 110z" />
    <glyph glyph-name="colon" unicode=":" horiz-adv-x="273" 
d="M147 300h-1c-56 0 -96 43 -96 101s41 102 97 102s96 -41 97 -102c0 -58 -39 -101 -97 -101zM147 -10h-1c-56 0 -96 42 -96 101c0 58 41 101 97 101s96 -41 97 -101c0 -59 -39 -101 -97 -101z" />
    <glyph glyph-name="semicolon" unicode=";" horiz-adv-x="273" 
d="M109 -110l-110 -10c35 99 62 203 76 297l169 10c-35 -104 -80 -208 -135 -297zM150 300h-1c-55 0 -95 43 -95 101s41 102 97 102s96 -41 96 -102c0 -58 -38 -101 -97 -101z" />
    <glyph glyph-name="less" unicode="&#x3c;" horiz-adv-x="596" 
d="M54 221v90l488 221v-121l-347 -144v-2l347 -145v-120z" />
    <glyph glyph-name="equal" unicode="=" horiz-adv-x="596" 
d="M556 317h-516v104h516v-104zM556 113h-516v104h516v-104z" />
    <glyph glyph-name="greater" unicode="&#x3e;" horiz-adv-x="596" 
d="M542 319v-106l-488 -213v119l367 146v2l-367 146v119z" />
    <glyph glyph-name="question" unicode="?" horiz-adv-x="427" 
d="M268 228h-148l-1 24c-3 53 17 102 57 153c27 34 48 63 48 92c0 28 -19 49 -62 50c-29 0 -64 -9 -88 -25l-34 126c33 18 91 38 162 38c141 0 196 -80 196 -160c0 -76 -47 -129 -82 -169c-30 -35 -46 -70 -47 -112zM193 -10h-1c-57 0 -97 42 -97 99c0 60 42 100 97 101
c58 0 97 -41 98 -101c0 -57 -39 -99 -97 -99z" />
    <glyph glyph-name="at" unicode="@" horiz-adv-x="739" 
d="M413 243l14 98c-7 2 -15 3 -24 3c-49 0 -95 -58 -95 -136c0 -34 13 -55 40 -55s57 38 65 90zM506 -8l18 -58c-61 -28 -111 -36 -179 -36c-155 0 -298 115 -298 313c0 199 143 381 362 381c176 0 290 -124 290 -283c0 -150 -75 -244 -185 -244c-51 0 -81 27 -87 77h-3
c-26 -48 -69 -77 -119 -77c-64 0 -106 49 -106 130c0 124 84 233 224 233c42 0 93 -11 117 -25l-29 -184c-8 -58 -2 -83 26 -84c39 -1 87 50 87 170c0 124 -76 225 -226 225c-144 0 -274 -120 -274 -311c0 -170 103 -258 242 -258c47 0 100 11 140 31z" />
    <glyph glyph-name="A" unicode="A" horiz-adv-x="613" 
d="M374 149h-154l-34 -149h-176l180 674h225l178 -674h-182zM241 278h112l-27 124c-8 38 -20 98 -29 138h-2c-9 -40 -19 -101 -28 -139z" />
    <glyph glyph-name="B" unicode="B" horiz-adv-x="595" 
d="M61 3v662c41 7 121 14 198 14c86 0 146 -7 198 -38c49 -27 80 -75 80 -135c0 -56 -30 -113 -105 -143v-3c81 -22 127 -84 127 -161c0 -61 -27 -109 -67 -142c-48 -40 -128 -64 -268 -64c-72 0 -128 5 -163 10zM232 550v-140h33c66 0 100 30 100 75c0 41 -27 69 -82 69
c-25 0 -40 -2 -51 -4zM232 287v-164c12 -2 25 -2 44 -2c55 0 102 25 102 84c0 57 -48 82 -108 82h-38z" />
    <glyph glyph-name="C" unicode="C" horiz-adv-x="543" 
d="M493 153l21 -138c-23 -11 -79 -24 -149 -24c-234 0 -335 157 -335 335c0 241 166 357 349 357c69 0 123 -13 146 -26l-32 -139c-25 11 -59 21 -104 21c-96 0 -176 -61 -176 -203c0 -128 67 -199 177 -199c37 0 79 7 103 16z" />
    <glyph glyph-name="D" unicode="D" horiz-adv-x="650" 
d="M61 3v662c50 8 120 14 193 14c118 0 194 -21 255 -67c70 -52 111 -138 111 -262c0 -135 -47 -228 -112 -280c-66 -53 -164 -77 -286 -77c-75 0 -129 5 -161 10zM233 541v-410c8 -2 22 -2 33 -2c98 -1 172 62 172 219c0 130 -64 197 -160 197c-22 0 -36 -1 -45 -4z" />
    <glyph glyph-name="E" unicode="E" horiz-adv-x="510" 
d="M447 417v-141h-213v-133h239v-143h-412v674h398v-143h-225v-114h213z" />
    <glyph glyph-name="F" unicode="F" horiz-adv-x="505" 
d="M61 0v674h395v-143h-222v-131h209v-141h-209v-259h-173z" />
    <glyph glyph-name="G" unicode="G" horiz-adv-x="634" 
d="M587 397v-370c-44 -15 -130 -34 -207 -34c-118 0 -200 31 -255 84c-63 60 -96 151 -95 253c2 235 167 351 366 351c80 0 141 -15 172 -30l-33 -141c-33 14 -72 25 -135 25c-106 0 -189 -59 -189 -203c0 -130 74 -198 167 -198c19 0 37 2 45 5v122h-78v136h242z" />
    <glyph glyph-name="H" unicode="H" horiz-adv-x="655" 
d="M61 674h173v-253h187v253h173v-674h-173v267h-187v-267h-173v674z" />
    <glyph glyph-name="I" unicode="I" horiz-adv-x="294" 
d="M61 674h173v-674h-173v674z" />
    <glyph glyph-name="J" unicode="J" horiz-adv-x="393" 
d="M166 246v428h173v-425c0 -202 -98 -259 -240 -259c-35 0 -78 5 -106 15l18 140c19 -5 43 -10 69 -10c50 0 86 22 86 111z" />
    <glyph glyph-name="K" unicode="K" horiz-adv-x="596" 
d="M61 0v674h171v-289h2l39 79l113 210h207l-194 -290l200 -384h-198l-123 269l-46 -64v-205h-171z" />
    <glyph glyph-name="L" unicode="L" horiz-adv-x="488" 
d="M61 0v674h173v-529h231v-145h-404z" />
    <glyph glyph-name="M" unicode="M" horiz-adv-x="801" 
d="M593 0l-9 232c-3 70 -5 158 -5 253h-2c-18 -84 -43 -180 -61 -244l-61 -227h-133l-53 226c-15 63 -35 158 -48 245h-2l-11 -253l-10 -232h-156l45 674h218l45 -192c18 -78 37 -163 50 -244h3c16 80 36 171 55 245l48 191h214l37 -674h-164z" />
    <glyph glyph-name="N" unicode="N" horiz-adv-x="655" 
d="M217 0h-156v674h191l103 -217c31 -60 68 -149 94 -220h3c-8 79 -14 184 -14 293v144h156v-674h-176l-107 225c-33 66 -73 156 -99 228h-3c4 -81 8 -186 8 -302v-151z" />
    <glyph glyph-name="O" unicode="O" horiz-adv-x="660" 
d="M335 684c206 0 294 -173 294 -338c0 -228 -118 -356 -305 -356c-197 0 -294 164 -294 345c0 187 111 349 305 349zM331 544c-71 0 -119 -76 -119 -208c0 -136 48 -206 120 -206c74 0 115 83 115 210c0 116 -41 204 -116 204z" />
    <glyph glyph-name="P" unicode="P" horiz-adv-x="566" 
d="M61 0v665c46 8 112 14 200 14c93 0 161 -16 209 -54c45 -35 72 -94 72 -159c0 -71 -24 -130 -65 -168c-52 -47 -128 -67 -207 -67c-15 0 -28 1 -38 1v-232h-171zM232 542v-175c9 -2 19 -2 34 -2c68 0 105 39 105 94c0 51 -30 87 -93 87c-22 0 -37 -2 -46 -4z" />
    <glyph glyph-name="Q" unicode="Q" horiz-adv-x="660" 
d="M642 9l-52 -131c-86 28 -159 60 -243 100c-16 7 -31 11 -45 12c-146 8 -272 125 -272 344c0 186 110 350 306 350c206 0 293 -174 293 -337c0 -149 -57 -255 -130 -293v-4c44 -16 94 -28 143 -41zM331 130h1c73 0 115 81 115 210c0 120 -41 204 -116 204
c-72 0 -119 -85 -119 -206c-1 -127 44 -208 119 -208z" />
    <glyph glyph-name="R" unicode="R" horiz-adv-x="581" 
d="M61 0v665c49 8 120 14 199 14c95 0 168 -13 217 -52c44 -35 64 -82 64 -147c0 -78 -54 -140 -112 -163v-4c45 -19 68 -61 84 -122c18 -68 39 -165 52 -191h-177c-10 19 -27 77 -43 156c-16 81 -39 98 -88 98h-25v-254h-171zM232 545v-164h39c63 0 97 36 97 86
s-28 81 -85 82c-27 0 -43 -1 -51 -4z" />
    <glyph glyph-name="S" unicode="S" horiz-adv-x="515" 
d="M35 27l30 145c37 -19 98 -37 157 -37c61 0 90 23 90 57c0 35 -30 54 -101 83c-112 47 -170 113 -170 199c0 116 92 209 257 209c71 0 124 -14 161 -31l-33 -141c-26 12 -70 29 -129 29c-54 0 -82 -22 -82 -52c0 -33 29 -48 111 -83c113 -47 160 -114 160 -200
c0 -120 -91 -214 -272 -214c-74 0 -145 19 -179 36z" />
    <glyph glyph-name="T" unicode="T" horiz-adv-x="522" 
d="M173 0v525h-155v149h486v-149h-158v-525h-173z" />
    <glyph glyph-name="U" unicode="U" horiz-adv-x="643" 
d="M58 674h173v-397c0 -98 32 -146 90 -146c59 0 91 42 91 146v397h173v-381c0 -198 -92 -303 -267 -303c-177 0 -260 104 -260 306v378z" />
    <glyph glyph-name="V" unicode="V" horiz-adv-x="609" 
d="M403 0h-202l-194 674h190l62 -269c18 -75 34 -149 48 -232h2c14 80 30 157 46 230l63 271h186z" />
    <glyph glyph-name="W" unicode="W" horiz-adv-x="841" 
d="M341 0h-186l-141 674h184l33 -248c11 -77 21 -163 30 -236h2c11 78 25 156 39 237l43 247h172l40 -255c12 -77 21 -147 30 -226h2c9 78 20 155 30 234l35 247h174l-151 -674h-186l-40 237c-10 59 -19 126 -28 208h-2c-12 -81 -21 -148 -34 -209z" />
    <glyph glyph-name="X" unicode="X" horiz-adv-x="566" 
d="M561 0h-194l-45 110c-18 42 -32 77 -47 117h-2c-11 -40 -25 -77 -39 -118l-39 -109h-189l169 342l-163 332h193l41 -108c16 -39 27 -73 40 -111h3l34 111l37 108h190l-165 -332z" />
    <glyph glyph-name="Y" unicode="Y" horiz-adv-x="562" 
d="M363 0h-173v264l-193 410h195l52 -153c16 -46 27 -84 40 -129h2c11 42 23 83 38 130l48 152h191l-200 -403v-271z" />
    <glyph glyph-name="Z" unicode="Z" horiz-adv-x="531" 
d="M16 0v94l271 432v3h-245v145h461v-107l-261 -418v-4h264v-145h-490z" />
    <glyph glyph-name="bracketleft" unicode="[" horiz-adv-x="307" 
d="M265 -112h-209v798h209v-97h-86v-604h86v-97z" />
    <glyph glyph-name="backslash" unicode="\" horiz-adv-x="294" 
d="M288 -40h-110l-174 724h109z" />
    <glyph glyph-name="bracketright" unicode="]" horiz-adv-x="307" 
d="M42 686h210v-798h-210v97h86v604h-86v97z" />
    <glyph glyph-name="asciicircum" unicode="^" horiz-adv-x="596" 
d="M561 172h-122l-140 345h-4l-140 -345h-120l212 478h102z" />
    <glyph glyph-name="underscore" unicode="_" horiz-adv-x="500" 
d="M0 -75h500v-50h-500v50z" />
    <glyph glyph-name="grave" unicode="`" 
d="M5 701h150l79 -151h-114z" />
    <glyph glyph-name="a" unicode="a" horiz-adv-x="518" 
d="M466 285v-167c0 -47 2 -90 8 -118h-155l-9 44h-3c-33 -39 -79 -54 -129 -54c-94 0 -155 70 -155 154c0 132 119 189 270 189v6c0 22 -18 44 -76 44c-50 0 -98 -16 -130 -35l-30 111c31 16 99 43 193 43c170 0 216 -102 216 -217zM298 175v52c-65 0 -108 -20 -108 -66
c0 -34 22 -50 49 -50c23 0 48 15 57 40c2 7 2 16 2 24z" />
    <glyph glyph-name="b" unicode="b" horiz-adv-x="567" 
d="M51 156v549h173v-262h2c27 35 69 59 129 59c112 0 184 -102 183 -244c0 -175 -99 -268 -208 -268c-47 0 -95 16 -127 71h-2l-7 -61h-147c2 37 4 98 4 156zM224 290v-87c0 -11 1 -20 3 -27c8 -28 31 -50 60 -50c48 0 77 41 77 122c0 71 -25 118 -78 118
c-28 0 -52 -21 -59 -50c-2 -8 -3 -18 -3 -26z" />
    <glyph glyph-name="c" unicode="c" horiz-adv-x="416" 
d="M385 138l16 -129c-24 -11 -70 -18 -120 -18c-154 0 -251 93 -251 250c0 146 96 260 273 260c35 0 73 -5 102 -15l-24 -129c-15 6 -36 11 -68 11c-64 0 -109 -46 -108 -120c0 -80 49 -122 111 -122c27 0 49 4 69 12z" />
    <glyph glyph-name="d" unicode="d" horiz-adv-x="567" 
d="M343 705h172v-549c0 -58 2 -118 4 -156h-152l-7 62h-2c-29 -49 -83 -72 -135 -72c-114 0 -193 107 -193 253c-1 167 95 259 202 259c52 0 91 -18 109 -47h2v250zM343 209v77c0 8 0 17 -2 25c-6 30 -27 56 -60 56c-54 0 -77 -55 -77 -122c0 -79 33 -117 76 -117
c30 0 53 20 60 49c2 9 3 20 3 32z" />
    <glyph glyph-name="e" unicode="e" horiz-adv-x="511" 
d="M478 183h-284c5 -41 56 -65 118 -65c45 0 85 6 124 19l22 -118c-52 -20 -114 -28 -173 -28c-163 0 -255 92 -255 248c0 130 79 263 241 263c144 0 213 -104 213 -248c0 -33 -3 -59 -6 -71zM193 300h133c0 34 -12 86 -63 86c-49 0 -68 -51 -70 -86z" />
    <glyph glyph-name="f" unicode="f" horiz-adv-x="347" 
d="M247 0h-173v367h-65v125h65v16c0 55 18 117 61 157c38 35 89 50 138 50c35 0 62 -4 84 -10l-7 -132c-13 3 -27 5 -44 5c-39 0 -60 -28 -60 -63v-23h88v-125h-87v-367z" />
    <glyph glyph-name="g" unicode="g" horiz-adv-x="557" 
d="M506 339v-273c0 -90 -18 -165 -73 -213c-51 -44 -119 -59 -197 -59c-61 0 -122 11 -166 32l32 131c29 -15 77 -31 127 -31c66 0 107 38 107 109v22h-2c-26 -35 -67 -52 -112 -52c-120 0 -192 106 -192 238c0 156 91 259 207 259c52 0 91 -21 116 -61h2l7 51h149
c-3 -36 -5 -82 -5 -153zM334 210v84c0 10 -2 20 -3 27c-8 30 -27 47 -54 47c-43 0 -73 -46 -73 -122c0 -67 27 -113 72 -113c27 0 47 18 54 40c3 10 4 25 4 37z" />
    <glyph glyph-name="h" unicode="h" horiz-adv-x="563" 
d="M51 0v705h173v-265h2c15 20 33 34 54 45s47 17 72 17c108 0 160 -82 160 -217v-285h-173v273c0 53 -15 89 -57 89c-28 0 -44 -16 -53 -38c-3 -7 -5 -22 -5 -31v-293h-173z" />
    <glyph glyph-name="i" unicode="i" horiz-adv-x="276" 
d="M224 0h-173v492h173v-492zM137 710c52 0 87 -34 87 -84c1 -47 -35 -84 -88 -84c-51 0 -86 37 -86 84c0 50 36 84 87 84z" />
    <glyph glyph-name="j" unicode="j" horiz-adv-x="290" 
d="M-24 -212l-15 135c34 3 62 10 80 28c21 19 27 58 27 140v401h173v-435c0 -112 -27 -175 -73 -213s-117 -56 -192 -56zM154 710c52 0 86 -34 87 -84c0 -47 -35 -84 -89 -84c-51 0 -86 37 -85 84c-1 50 35 84 87 84z" />
    <glyph glyph-name="k" unicode="k" horiz-adv-x="534" 
d="M224 705v-416h2c10 25 20 45 30 64l71 139h201l-154 -201l172 -291h-207l-84 188l-31 -46v-142h-173v705h173z" />
    <glyph glyph-name="l" unicode="l" horiz-adv-x="276" 
d="M51 0v705h173v-705h-173z" />
    <glyph glyph-name="m" unicode="m" horiz-adv-x="822" 
d="M51 0v328c0 61 -2 117 -4 164h147l7 -60h3c21 28 64 70 138 70c62 0 106 -28 126 -74h2c17 23 39 42 62 55c24 13 52 19 82 19c103 0 156 -77 156 -208v-294h-169v268c0 59 -14 95 -51 95c-26 0 -42 -17 -50 -39c-3 -9 -5 -24 -5 -35v-289h-169v278c0 47 -12 85 -50 85
c-27 0 -43 -20 -50 -37c-4 -10 -6 -24 -6 -36v-290h-169z" />
    <glyph glyph-name="n" unicode="n" horiz-adv-x="563" 
d="M51 0v328c0 61 -2 117 -4 164h149l8 -61h3c21 30 67 71 140 71c111 0 165 -80 165 -206v-296h-173v279c0 50 -16 83 -56 83c-29 0 -44 -20 -53 -39c-4 -9 -6 -24 -6 -40v-283h-173z" />
    <glyph glyph-name="o" unicode="o" horiz-adv-x="548" 
d="M279 502c147 0 239 -104 239 -252c0 -188 -127 -260 -245 -260c-142 0 -243 95 -243 253c0 162 101 259 249 259zM276 378c-53 0 -70 -67 -70 -132c0 -77 21 -132 71 -132c43 0 65 56 65 132c0 68 -19 132 -66 132z" />
    <glyph glyph-name="p" unicode="p" horiz-adv-x="567" 
d="M51 -196v524c0 61 -2 116 -4 164h149l8 -60h2c31 44 80 70 143 70c107 0 188 -102 188 -252c0 -178 -105 -260 -205 -260c-51 0 -89 22 -106 46h-2v-232h-173zM224 287v-83c0 -13 1 -24 4 -33c8 -27 30 -47 59 -47c49 0 76 50 76 120c0 76 -26 121 -74 121
c-30 0 -55 -22 -61 -51c-3 -8 -4 -17 -4 -27z" />
    <glyph glyph-name="q" unicode="q" horiz-adv-x="567" 
d="M343 -196v247h-2c-28 -41 -70 -61 -125 -61c-102 0 -186 100 -186 248c0 170 98 264 202 264c50 0 91 -16 118 -60l2 -1l5 51h162c-1 -51 -3 -104 -3 -154v-534h-173zM343 204v87c0 7 -1 16 -2 23c-7 29 -30 51 -60 51c-52 0 -77 -48 -77 -119c0 -78 32 -120 76 -120
c30 0 54 22 60 49c2 9 3 20 3 29z" />
    <glyph glyph-name="r" unicode="r" horiz-adv-x="376" 
d="M51 0v329c0 70 -1 119 -4 163h148l7 -83h4c26 69 81 93 120 93c16 0 24 0 35 -3v-164c-12 3 -24 4 -42 4c-43 0 -79 -18 -91 -60c-2 -9 -4 -22 -4 -37v-242h-173z" />
    <glyph glyph-name="s" unicode="s" horiz-adv-x="417" 
d="M26 24l29 122c25 -16 82 -34 123 -34c35 0 51 9 51 29c0 18 -13 27 -61 46c-102 38 -132 95 -131 147c0 97 78 168 200 168c56 0 104 -12 134 -26l-27 -119c-22 11 -61 24 -97 24c-31 0 -47 -10 -47 -29c0 -16 14 -26 68 -47c92 -35 123 -87 124 -151
c0 -97 -74 -163 -213 -163c-61 0 -119 13 -153 33z" />
    <glyph glyph-name="t" unicode="t" horiz-adv-x="369" 
d="M74 583l170 47v-138h101v-125h-101v-157c0 -58 17 -78 55 -78c18 0 26 0 41 3v-132c-21 -7 -59 -12 -103 -12c-49 0 -91 16 -117 41c-30 29 -46 75 -46 151v184h-59v125h59v91z" />
    <glyph glyph-name="u" unicode="u" horiz-adv-x="561" 
d="M508 492v-328c0 -64 2 -120 4 -164h-149l-8 61h-3c-20 -30 -63 -71 -140 -71c-106 0 -162 70 -162 211v291h172v-266c0 -62 19 -96 57 -96c27 0 43 18 50 35c4 8 6 19 6 31v296h173z" />
    <glyph glyph-name="v" unicode="v" horiz-adv-x="511" 
d="M6 492h186l46 -205c9 -42 15 -82 22 -125h3c6 45 12 81 20 125l43 205h178l-165 -492h-169z" />
    <glyph glyph-name="w" unicode="w" horiz-adv-x="730" 
d="M6 492h178l25 -187c7 -50 15 -103 21 -158h3c8 55 20 110 30 157l39 188h134l37 -182c11 -55 22 -108 30 -163h2c5 54 12 110 21 164l28 181h168l-141 -492h-159l-32 145c-10 45 -18 91 -26 152h-2c-7 -61 -16 -107 -26 -151l-36 -146h-159z" />
    <glyph glyph-name="x" unicode="x" horiz-adv-x="507" 
d="M3 492h192l34 -75l31 -73h3c9 24 18 51 28 75l30 73h183l-144 -236l145 -256h-193l-36 81c-10 23 -20 47 -28 70h-3c-9 -24 -19 -48 -27 -71l-32 -80h-184l146 248z" />
    <glyph glyph-name="y" unicode="y" horiz-adv-x="505" 
d="M4 492h190l53 -228c6 -27 14 -59 19 -84h3c5 25 10 58 15 83l41 229h180l-107 -341c-57 -168 -101 -246 -153 -296c-53 -50 -113 -70 -151 -74l-40 146c20 4 41 12 62 23c22 10 42 29 53 46c5 7 9 14 9 21c0 6 -2 14 -7 24z" />
    <glyph glyph-name="z" unicode="z" horiz-adv-x="450" 
d="M22 0v101l120 162l73 89v2h-178v138h383v-107l-113 -153c-26 -33 -52 -66 -77 -92v-2h198v-138h-406z" />
    <glyph glyph-name="braceleft" unicode="{" horiz-adv-x="307" 
d="M22 243v89c63 3 71 34 71 61c0 24 -2 49 -5 75c-2 26 -5 52 -5 77c0 96 59 141 158 141h35v-96h-17c-38 -2 -52 -27 -52 -65c0 -17 2 -34 4 -53c1 -19 3 -39 3 -62c1 -74 -29 -107 -87 -121v-2c58 -13 88 -46 87 -121c0 -24 -2 -45 -3 -65c-2 -19 -4 -36 -4 -51
c0 -38 10 -64 53 -66h16v-96h-36c-92 0 -157 37 -157 141c0 24 3 50 5 77c3 26 5 52 5 76c0 25 -8 58 -71 61z" />
    <glyph glyph-name="bar" unicode="|" horiz-adv-x="279" 
d="M80 750h119v-1000h-119v1000z" />
    <glyph glyph-name="braceright" unicode="}" horiz-adv-x="307" 
d="M285 332v-89c-63 -3 -71 -36 -71 -61c0 -24 2 -50 5 -76c2 -27 5 -53 5 -77c0 -104 -65 -141 -156 -141h-37v96h16c43 2 54 28 54 66c0 15 -2 32 -4 51c-2 20 -4 41 -4 65c-1 75 29 108 88 121v2c-59 14 -89 47 -88 121c0 23 2 43 4 62s4 36 4 53c0 38 -15 63 -53 65h-17
v96h35c99 0 158 -45 158 -141c0 -25 -3 -51 -5 -77c-3 -26 -5 -51 -5 -75c0 -27 8 -58 71 -61z" />
    <glyph glyph-name="asciitilde" unicode="~" horiz-adv-x="596" 
d="M150 187h-107c0 147 68 196 148 196c51 1 86 -18 137 -49c44 -27 63 -40 82 -40c20 0 34 19 36 81h107c5 -144 -54 -199 -138 -199c-50 0 -85 17 -136 49c-47 30 -68 44 -86 44c-22 0 -39 -15 -43 -82z" />
    <glyph glyph-name="uni00A0" unicode="&#xa0;" horiz-adv-x="186" 
 />
    <glyph glyph-name="exclamdown" unicode="&#xa1;" horiz-adv-x="274" 
d="M227 -190h-180l24 441h133zM137 495h1c56 0 97 -41 97 -100c-1 -58 -39 -100 -97 -100s-98 42 -98 100c0 59 41 100 97 100z" />
    <glyph glyph-name="cent" unicode="&#xa2;" horiz-adv-x="534" 
d="M373 -10h-109v98c-59 11 -107 38 -141 78c-34 41 -52 98 -52 160c0 117 69 218 194 245v97h109v-90c27 -2 58 -7 83 -17l-22 -128c-25 12 -49 15 -82 15c-65 0 -107 -43 -107 -117c0 -78 51 -117 112 -117c35 0 62 5 89 14l17 -125c-24 -11 -55 -16 -91 -18v-95z" />
    <glyph glyph-name="sterling" unicode="&#xa3;" horiz-adv-x="534" 
d="M485 0h-439v95c53 20 103 75 103 134c0 11 0 22 -2 32h-90v115h70c-5 24 -7 51 -7 75c0 120 87 209 228 209c52 0 90 -11 110 -22l-24 -132c-19 10 -43 16 -74 16c-60 0 -80 -38 -80 -78c0 -21 4 -44 9 -68h125v-115h-110c0 -22 -4 -40 -11 -59c-9 -19 -22 -40 -42 -59
v-2h234v-141z" />
    <glyph glyph-name="currency" unicode="&#xa4;" horiz-adv-x="534" 
d="M268 552h1c44 0 82 -13 111 -34l75 84l72 -74l-88 -80c13 -27 28 -62 28 -114c0 -55 -15 -92 -31 -118l86 -84l-71 -72l-73 88c-31 -25 -75 -38 -113 -38c-39 0 -82 13 -111 37l-71 -87l-71 72l84 80c-17 28 -32 65 -32 118c0 56 16 92 32 118l-88 80l72 75l76 -87
c30 24 69 36 112 36zM266 437h-1c-40 0 -69 -42 -69 -106c0 -66 33 -106 70 -106c39 0 69 39 69 107c0 58 -27 105 -69 105z" />
    <glyph glyph-name="yen" unicode="&#xa5;" horiz-adv-x="534" 
d="M344 0h-160v154h-149v79h149v58h-149v79h111l-149 280h182l52 -151c16 -41 28 -81 38 -115h2c12 32 23 74 38 116l53 150h175l-153 -280h111v-79h-151v-58h151v-79h-151v-154z" />
    <glyph glyph-name="brokenbar" unicode="&#xa6;" horiz-adv-x="279" 
d="M80 174h119v-350h-119v350zM80 674h119v-350h-119v350z" />
    <glyph glyph-name="section" unicode="&#xa7;" horiz-adv-x="539" 
d="M166 342v-1c0 -26 23 -49 77 -68c43 -16 86 -30 105 -40c13 7 24 25 24 42c0 24 -18 46 -59 63c-40 16 -91 33 -117 45c-13 -5 -30 -22 -30 -41zM449 656l-23 -103c-29 13 -70 25 -125 25c-51 0 -75 -16 -75 -36c0 -24 23 -39 89 -59c107 -34 186 -74 186 -178
c0 -53 -28 -95 -70 -125c18 -13 42 -46 42 -90c0 -120 -123 -164 -220 -164c-57 0 -130 9 -182 41l29 105c29 -16 88 -39 147 -39c45 0 75 13 75 39c0 27 -29 42 -96 64c-100 33 -189 76 -189 174c0 46 28 96 82 124c-20 18 -38 54 -38 91c0 102 94 159 219 159
c54 0 104 -7 149 -28z" />
    <glyph glyph-name="dieresis" unicode="&#xa8;" 
d="M46 553h-1c-43 0 -76 34 -76 77c0 45 34 77 77 77c41 0 73 -32 73 -77c0 -43 -32 -77 -73 -77zM256 553h-1c-42 0 -75 34 -75 77c0 45 33 77 76 77c42 0 74 -32 74 -77c0 -43 -31 -77 -74 -77z" />
    <glyph glyph-name="copyright" unicode="&#xa9;" horiz-adv-x="677" 
d="M340 648h1c170 0 306 -138 306 -308c0 -172 -136 -310 -307 -310c-172 0 -310 138 -310 310c0 170 138 308 310 308zM339 585h-1c-130 0 -236 -111 -236 -246c0 -136 106 -245 237 -246c130 0 236 110 236 246c0 135 -106 246 -236 246zM474 492l-16 -60
c-12 7 -51 22 -94 22c-70 0 -118 -41 -118 -117c0 -71 49 -118 116 -118c40 0 75 10 97 23l16 -58c-35 -22 -76 -31 -122 -31c-118 0 -185 79 -185 181c0 115 90 186 198 186c45 0 96 -14 108 -28z" />
    <glyph glyph-name="ordfeminine" unicode="&#xaa;" horiz-adv-x="369" 
d="M334 265h-101l-6 31h-2c-24 -24 -54 -36 -91 -36c-61 0 -102 42 -102 99c0 81 80 116 183 118v5c0 8 -9 29 -54 29c-35 0 -66 -12 -85 -23l-20 72c25 14 70 30 127 30c111 0 146 -70 146 -141v-106c0 -30 1 -59 5 -78zM218 379v32c-45 0 -76 -15 -76 -42
c0 -18 15 -32 35 -32c15 0 32 9 38 24c2 5 3 12 3 18z" />
    <glyph glyph-name="guillemotleft" unicode="&#xab;" horiz-adv-x="457" 
d="M246 444l-112 -192l112 -192h-116l-109 192l108 192h117zM442 444l-112 -192l112 -192h-117l-108 192l107 192h118z" />
    <glyph glyph-name="logicalnot" unicode="&#xac;" horiz-adv-x="596" 
d="M40 432h516v-332h-107v229h-409v103z" />
    <glyph glyph-name="uni00AD" unicode="&#xad;" horiz-adv-x="291" 
d="M30 324h245v-115h-245v115z" />
    <glyph glyph-name="registered" unicode="&#xae;" horiz-adv-x="446" 
d="M204 489v-53h-52v153c9 1 37 6 71 6c36 0 52 -5 63 -13c10 -6 17 -18 17 -33c0 -14 -14 -29 -37 -34v-2c18 -6 28 -18 33 -41c5 -21 8 -31 10 -36h-57c-5 6 -8 19 -11 31c-2 15 -10 22 -23 22h-14zM206 557v-33h12c17 0 25 8 25 17c0 12 -10 17 -23 17
c-5 0 -10 -1 -14 -1zM224 686h1c97 0 174 -77 174 -171c0 -96 -77 -173 -175 -173s-177 77 -177 173c0 94 79 171 177 171zM223 640h-1c-68 0 -119 -56 -119 -126s51 -126 120 -126c69 -1 121 56 121 127c0 69 -52 125 -121 125z" />
    <glyph glyph-name="macron" unicode="&#xaf;" 
d="M26 673h249v-93h-249v93z" />
    <glyph glyph-name="degree" unicode="&#xb0;" horiz-adv-x="348" 
d="M174 684h1c87 0 147 -65 147 -141c0 -86 -72 -144 -149 -144c-85 0 -147 61 -147 140c-1 81 67 145 148 145zM174 612h-1c-35 0 -64 -33 -64 -72s29 -69 65 -69c37 0 65 29 65 69c0 38 -23 72 -65 72z" />
    <glyph glyph-name="plusminus" unicode="&#xb1;" horiz-adv-x="596" 
d="M244 578h108v-164h204v-103h-204v-166h-108v166h-204v103h204v164zM40 103h516v-103h-516v103z" />
    <glyph glyph-name="two.superior" unicode="&#xb2;" horiz-adv-x="344" 
d="M14 435v65l58 55c66 64 104 93 104 132c0 28 -20 42 -50 42c-29 0 -59 -10 -80 -25l-30 86c31 22 83 40 143 40c102 0 152 -54 152 -121c0 -72 -54 -115 -106 -159l-18 -15v-2h131v-98h-304z" />
    <glyph glyph-name="three.superior" unicode="&#xb3;" horiz-adv-x="337" 
d="M44 720l-21 81c29 16 80 29 135 29c98 0 145 -46 145 -99c0 -45 -33 -75 -79 -89v-2c52 -6 92 -42 92 -90c0 -73 -72 -120 -181 -120c-51 0 -98 10 -125 25l21 87c21 -11 58 -23 90 -23s60 14 60 39c0 27 -35 43 -75 43h-26v76h22c33 0 71 8 71 33c0 19 -15 31 -46 31
s-62 -10 -83 -21z" />
    <glyph glyph-name="acute" unicode="&#xb4;" 
d="M154 701h151l-115 -151h-115z" />
    <glyph glyph-name="mu" unicode="&#xb5;" horiz-adv-x="562" 
d="M364 60h-4c-13 -33 -49 -64 -99 -64c-19 0 -38 6 -52 18v-32c0 -59 4 -143 11 -178h-154c-9 23 -15 103 -15 187v501h173v-279c0 -60 20 -86 53 -86c26 0 47 20 54 37c4 7 6 20 6 32v296h173v-325c0 -39 12 -48 38 -49l-11 -118c-12 -7 -34 -10 -59 -10
c-62 0 -96 27 -114 70z" />
    <glyph glyph-name="paragraph" unicode="&#xb6;" horiz-adv-x="522" 
d="M288 -47h-102v310h-6c-39 0 -150 51 -154 184c-2 109 58 231 289 231c63 0 110 -4 142 -11v-714h-102v623h-67v-623z" />
    <glyph glyph-name="periodcentered" unicode="&#xb7;" horiz-adv-x="273" 
d="M137 159h-1c-56 0 -97 42 -97 103s42 104 98 104s98 -41 98 -104c0 -61 -40 -103 -98 -103z" />
    <glyph glyph-name="cedilla" unicode="&#xb8;" 
d="M118 5h89l-24 -46c38 -5 72 -33 72 -74c0 -68 -60 -90 -126 -90c-33 0 -64 8 -84 20l22 62c17 -9 39 -16 54 -16c16 0 32 6 32 23c0 16 -20 30 -75 34z" />
    <glyph glyph-name="one.superior" unicode="&#xb9;" horiz-adv-x="302" 
d="M244 435h-129v285h-2l-78 -34l-19 91l115 48h113v-390z" />
    <glyph glyph-name="ordmasculine" unicode="&#xba;" horiz-adv-x="374" 
d="M188 590h1c97 0 156 -69 156 -162c0 -120 -81 -168 -160 -168c-92 0 -159 64 -159 163c0 103 67 167 162 167zM185 507h-1c-33 0 -42 -51 -42 -83c0 -45 13 -81 44 -81s43 37 43 83c0 39 -15 81 -44 81z" />
    <glyph glyph-name="guillemotright" unicode="&#xbb;" horiz-adv-x="457" 
d="M128 252l-112 192h116l109 -192l-109 -192h-116zM321 252l-112 192h116l109 -192l-109 -192h-116z" />
    <glyph glyph-name="onequarter" unicode="&#xbc;" horiz-adv-x="811" 
d="M253 265h-129v285h-1l-79 -34l-18 91l114 48h113v-390zM257 -10h-89l361 670h88zM728 0h-117v84h-180v72l154 237h143v-226h47v-83h-47v-84zM611 167v56c0 25 3 50 4 74h-3c-11 -23 -20 -44 -32 -62l-39 -67l2 -1h68z" />
    <glyph glyph-name="onehalf" unicode="&#xbd;" horiz-adv-x="811" 
d="M242 265h-129v285h-1l-78 -34l-19 91l115 48h112v-390zM231 -10h-89l360 670h89zM472 0v65l57 55c67 64 104 93 104 132c0 27 -20 42 -49 42c-30 0 -59 -11 -80 -25l-31 86c32 22 83 40 143 40c103 0 153 -54 153 -121c0 -72 -54 -115 -106 -159l-19 -15v-2h131v-98h-303
z" />
    <glyph glyph-name="threequarters" unicode="&#xbe;" horiz-adv-x="811" 
d="M61 550l-22 81c30 16 81 29 136 29c98 0 145 -46 145 -99c0 -45 -34 -75 -79 -89v-2c52 -6 92 -42 92 -90c0 -73 -72 -120 -181 -120c-52 0 -99 10 -126 25l21 87c21 -11 58 -23 90 -23s61 14 61 39c0 27 -36 43 -75 43h-27v76h23c33 0 71 8 71 33c0 19 -16 31 -47 31
s-62 -10 -82 -21zM283 -10h-89l360 670h89zM737 0h-117v84h-181v72l155 237h143v-226h47v-83h-47v-84zM620 167v56c0 25 2 50 4 74h-3c-11 -23 -20 -44 -32 -62l-40 -67l2 -1h69z" />
    <glyph glyph-name="questiondown" unicode="&#xbf;" horiz-adv-x="427" 
d="M236 495h1c57 0 96 -41 96 -100c0 -58 -37 -100 -96 -100c-58 0 -98 42 -98 100c0 59 41 100 97 100zM160 258h148l1 -23c3 -53 -17 -102 -57 -154c-27 -34 -48 -63 -48 -92c0 -28 19 -49 62 -50c29 0 64 9 88 25l34 -126c-33 -18 -91 -38 -162 -38
c-141 0 -196 80 -196 160c0 76 47 129 82 169c30 36 46 71 47 112z" />
    <glyph glyph-name="Agrave" unicode="&#xc0;" horiz-adv-x="613" 
d="M374 149h-154l-34 -149h-176l180 674h225l178 -674h-182zM241 278h112l-27 124c-8 38 -20 98 -29 138h-2c-9 -40 -19 -101 -28 -139zM129 833h173l80 -121h-133z" />
    <glyph glyph-name="Aacute" unicode="&#xc1;" horiz-adv-x="613" 
d="M374 149h-154l-34 -149h-176l180 674h225l178 -674h-182zM241 278h112l-27 124c-8 38 -20 98 -29 138h-2c-9 -40 -19 -101 -28 -139zM309 833h174l-121 -123h-132z" />
    <glyph glyph-name="Acircumflex" unicode="&#xc2;" horiz-adv-x="613" 
d="M374 149h-154l-34 -149h-176l180 674h225l178 -674h-182zM241 278h112l-27 124c-8 38 -20 98 -29 138h-2c-9 -40 -19 -101 -28 -139zM242 833h129l95 -123h-118l-40 56h-2l-41 -56h-116z" />
    <glyph glyph-name="Atilde" unicode="&#xc3;" horiz-adv-x="613" 
d="M374 149h-154l-34 -149h-176l180 674h225l178 -674h-182zM241 278h112l-27 124c-8 38 -20 98 -29 138h-2c-9 -40 -19 -101 -28 -139zM247 715h-76c-3 92 30 135 78 135c27 0 46 -9 62 -19s30 -19 41 -19c16 0 21 10 25 42h75c3 -99 -28 -133 -81 -133c-27 0 -47 9 -63 18
s-26 17 -39 17c-10 0 -20 -13 -22 -41z" />
    <glyph glyph-name="Adieresis" unicode="&#xc4;" horiz-adv-x="613" 
d="M374 149h-154l-34 -149h-176l180 674h225l178 -674h-182zM241 278h112l-27 124c-8 38 -20 98 -29 138h-2c-9 -40 -19 -101 -28 -139zM207 709h-1c-41 0 -74 35 -74 75c0 43 34 75 75 75c39 0 71 -32 71 -75c0 -40 -32 -75 -71 -75zM416 709h-1c-40 0 -72 35 -72 75
c0 43 32 75 73 75s73 -32 73 -75c0 -40 -32 -75 -73 -75z" />
    <glyph glyph-name="Aring" unicode="&#xc5;" horiz-adv-x="613" 
d="M374 149h-154l-34 -149h-176l180 674h225l178 -674h-182zM241 278h112l-27 124c-8 38 -20 98 -29 138h-2c-9 -40 -19 -101 -28 -139zM303 901h1c81 0 116 -45 116 -100c0 -54 -39 -99 -117 -99c-79 0 -119 46 -119 97c0 54 39 102 119 102zM301 845h-1
c-27 0 -38 -24 -38 -45s12 -42 39 -42c28 0 41 19 41 43c0 21 -13 44 -41 44z" />
    <glyph glyph-name="AE" unicode="&#xc6;" horiz-adv-x="815" 
d="M174 0h-175l255 674h506v-143h-242l12 -121h227v-141h-207l14 -126h228v-143h-377l-18 163h-171zM272 300h107l-16 150c-3 31 -7 67 -10 103h-3c-11 -41 -25 -88 -33 -116z" />
    <glyph glyph-name="Ccedilla" unicode="&#xc7;" horiz-adv-x="543" 
d="M493 153l21 -138c-22 -11 -72 -23 -134 -24l-16 -33c38 -9 72 -35 72 -81c0 -72 -64 -95 -124 -95c-31 0 -65 6 -88 19l21 67c15 -8 39 -14 56 -14s32 6 32 23s-20 29 -76 35l38 84c-185 30 -265 168 -265 330c0 241 166 357 349 357c69 0 123 -13 146 -26l-32 -139
c-25 11 -59 21 -104 21c-96 0 -176 -61 -176 -203c0 -128 67 -199 177 -199c37 0 79 7 103 16z" />
    <glyph glyph-name="Egrave" unicode="&#xc8;" horiz-adv-x="510" 
d="M447 417v-141h-213v-133h239v-143h-412v674h398v-143h-225v-114h213zM95 833h173l80 -121h-133z" />
    <glyph glyph-name="Eacute" unicode="&#xc9;" horiz-adv-x="510" 
d="M447 417v-141h-213v-133h239v-143h-412v674h398v-143h-225v-114h213zM265 833h174l-121 -123h-132z" />
    <glyph glyph-name="Ecircumflex" unicode="&#xca;" horiz-adv-x="510" 
d="M447 417v-141h-213v-133h239v-143h-412v674h398v-143h-225v-114h213zM202 833h129l95 -123h-118l-40 56h-2l-41 -56h-116z" />
    <glyph glyph-name="Edieresis" unicode="&#xcb;" horiz-adv-x="510" 
d="M447 417v-141h-213v-133h239v-143h-412v674h398v-143h-225v-114h213zM156 709h-1c-41 0 -74 35 -74 75c0 43 34 75 75 75c39 0 71 -32 71 -75c0 -40 -32 -75 -71 -75zM365 709h-1c-40 0 -72 35 -72 75c0 43 32 75 73 75s73 -32 73 -75c0 -40 -32 -75 -73 -75z" />
    <glyph glyph-name="Igrave" unicode="&#xcc;" horiz-adv-x="294" 
d="M61 674h173v-674h-173v674zM-27 833h173l80 -121h-133z" />
    <glyph glyph-name="Iacute" unicode="&#xcd;" horiz-adv-x="294" 
d="M61 674h173v-674h-173v674zM148 833h174l-121 -123h-132z" />
    <glyph glyph-name="Icircumflex" unicode="&#xce;" horiz-adv-x="294" 
d="M61 674h173v-674h-173v674zM82 833h129l95 -123h-118l-40 56h-2l-41 -56h-116z" />
    <glyph glyph-name="Idieresis" unicode="&#xcf;" horiz-adv-x="294" 
d="M61 674h173v-674h-173v674zM43 709h-1c-41 0 -74 35 -74 75c0 43 34 75 75 75c39 0 71 -32 71 -75c0 -40 -32 -75 -71 -75zM252 709h-1c-40 0 -72 35 -72 75c0 43 32 75 73 75s73 -32 73 -75c0 -40 -32 -75 -73 -75z" />
    <glyph glyph-name="Eth" unicode="&#xd0;" horiz-adv-x="656" 
d="M3 280v130h64v256c50 9 121 14 194 14c118 0 193 -19 254 -64c70 -53 111 -142 111 -266c0 -135 -47 -229 -112 -282c-66 -53 -163 -77 -286 -77c-74 0 -129 5 -161 10v279h-64zM338 410v-130h-99v-151c9 -2 23 -2 33 -2c100 0 172 62 172 221c0 135 -63 199 -160 199
c-23 0 -36 -2 -45 -4v-133h99z" />
    <glyph glyph-name="Ntilde" unicode="&#xd1;" horiz-adv-x="655" 
d="M217 0h-156v674h191l103 -217c31 -60 68 -149 94 -220h3c-8 79 -14 184 -14 293v144h156v-674h-176l-107 225c-33 66 -73 156 -99 228h-3c4 -81 8 -186 8 -302v-151zM265 715h-76c-3 92 30 135 78 135c27 0 46 -9 62 -19s30 -19 41 -19c16 0 21 10 25 42h75
c3 -99 -28 -133 -81 -133c-27 0 -47 9 -63 18s-26 17 -39 17c-10 0 -20 -13 -22 -41z" />
    <glyph glyph-name="Ograve" unicode="&#xd2;" horiz-adv-x="660" 
d="M335 684c206 0 294 -173 294 -338c0 -228 -118 -356 -305 -356c-197 0 -294 164 -294 345c0 187 111 349 305 349zM331 544c-71 0 -119 -76 -119 -208c0 -136 48 -206 120 -206c74 0 115 83 115 210c0 116 -41 204 -116 204zM156 833h173l80 -121h-133z" />
    <glyph glyph-name="Oacute" unicode="&#xd3;" horiz-adv-x="660" 
d="M335 684c206 0 294 -173 294 -338c0 -228 -118 -356 -305 -356c-197 0 -294 164 -294 345c0 187 111 349 305 349zM331 544c-71 0 -119 -76 -119 -208c0 -136 48 -206 120 -206c74 0 115 83 115 210c0 116 -41 204 -116 204zM338 833h174l-121 -123h-132z" />
    <glyph glyph-name="Ocircumflex" unicode="&#xd4;" horiz-adv-x="660" 
d="M335 684c206 0 294 -173 294 -338c0 -228 -118 -356 -305 -356c-197 0 -294 164 -294 345c0 187 111 349 305 349zM331 544c-71 0 -119 -76 -119 -208c0 -136 48 -206 120 -206c74 0 115 83 115 210c0 116 -41 204 -116 204zM265 833h129l95 -123h-118l-40 56h-2l-41 -56
h-116z" />
    <glyph glyph-name="Otilde" unicode="&#xd5;" horiz-adv-x="660" 
d="M335 684c206 0 294 -173 294 -338c0 -228 -118 -356 -305 -356c-197 0 -294 164 -294 345c0 187 111 349 305 349zM331 544c-71 0 -119 -76 -119 -208c0 -136 48 -206 120 -206c74 0 115 83 115 210c0 116 -41 204 -116 204zM266 712h-76c-3 92 30 135 78 135
c27 0 46 -9 62 -19s30 -19 41 -19c16 0 21 10 25 42h75c3 -99 -28 -133 -81 -133c-27 0 -47 9 -63 18s-26 17 -39 17c-10 0 -20 -13 -22 -41z" />
    <glyph glyph-name="Odieresis" unicode="&#xd6;" horiz-adv-x="660" 
d="M335 684c206 0 294 -173 294 -338c0 -228 -118 -356 -305 -356c-197 0 -294 164 -294 345c0 187 111 349 305 349zM331 544c-71 0 -119 -76 -119 -208c0 -136 48 -206 120 -206c74 0 115 83 115 210c0 116 -41 204 -116 204zM226 709h-1c-41 0 -74 35 -74 75
c0 43 34 75 75 75c39 0 71 -32 71 -75c0 -40 -32 -75 -71 -75zM435 709h-1c-40 0 -72 35 -72 75c0 43 32 75 73 75s73 -32 73 -75c0 -40 -32 -75 -73 -75z" />
    <glyph glyph-name="multiply" unicode="&#xd7;" horiz-adv-x="596" 
d="M40 452l71 74l187 -190l187 190l71 -74l-185 -189l185 -188l-73 -75l-185 189l-185 -189l-73 75l185 188z" />
    <glyph glyph-name="Oslash" unicode="&#xd8;" horiz-adv-x="660" 
d="M155 -71l-90 66l51 88c-58 64 -86 157 -86 255c0 182 110 346 301 346c48 0 90 -9 127 -25l47 77l94 -57l-50 -87c57 -66 80 -160 80 -248c0 -226 -120 -354 -299 -354c-45 0 -86 9 -123 25zM214 245l169 284c-14 11 -32 17 -52 17c-76 0 -129 -71 -129 -208
c0 -31 3 -60 11 -93h1zM448 423l-166 -278c11 -12 30 -17 49 -17c76 0 127 72 127 212c0 27 -3 55 -8 83h-2z" />
    <glyph glyph-name="Ugrave" unicode="&#xd9;" horiz-adv-x="643" 
d="M58 674h173v-397c0 -98 32 -146 90 -146c59 0 91 42 91 146v397h173v-381c0 -198 -92 -303 -267 -303c-177 0 -260 104 -260 306v378zM151 833h173l80 -121h-133z" />
    <glyph glyph-name="Uacute" unicode="&#xda;" horiz-adv-x="643" 
d="M58 674h173v-397c0 -98 32 -146 90 -146c59 0 91 42 91 146v397h173v-381c0 -198 -92 -303 -267 -303c-177 0 -260 104 -260 306v378zM315 833h174l-121 -123h-132z" />
    <glyph glyph-name="Ucircumflex" unicode="&#xdb;" horiz-adv-x="643" 
d="M58 674h173v-397c0 -98 32 -146 90 -146c59 0 91 42 91 146v397h173v-381c0 -198 -92 -303 -267 -303c-177 0 -260 104 -260 306v378zM267 833h129l95 -123h-118l-40 56h-2l-41 -56h-116z" />
    <glyph glyph-name="Udieresis" unicode="&#xdc;" horiz-adv-x="643" 
d="M58 674h173v-397c0 -98 32 -146 90 -146c59 0 91 42 91 146v397h173v-381c0 -198 -92 -303 -267 -303c-177 0 -260 104 -260 306v378zM223 709h-1c-41 0 -74 35 -74 75c0 43 34 75 75 75c39 0 71 -32 71 -75c0 -40 -32 -75 -71 -75zM432 709h-1c-40 0 -72 35 -72 75
c0 43 32 75 73 75s73 -32 73 -75c0 -40 -32 -75 -73 -75z" />
    <glyph glyph-name="Yacute" unicode="&#xdd;" horiz-adv-x="562" 
d="M363 0h-173v264l-193 410h195l52 -153c16 -46 27 -84 40 -129h2c11 42 23 83 38 130l48 152h191l-200 -403v-271zM289 833h174l-121 -123h-132z" />
    <glyph glyph-name="Thorn" unicode="&#xde;" horiz-adv-x="564" 
d="M61 0v674h170v-114c14 1 29 2 65 2c71 0 129 -12 177 -51c45 -37 67 -94 67 -154c0 -178 -127 -236 -253 -236c-28 0 -46 3 -56 4v-125h-170zM231 425v-164c10 -3 27 -5 47 -5c64 0 92 39 92 88c0 52 -30 85 -91 85c-24 0 -39 -1 -48 -4z" />
    <glyph glyph-name="germandbls" unicode="&#xdf;" horiz-adv-x="591" 
d="M224 0h-173v422c0 114 28 179 76 226c45 43 109 67 187 67c134 0 220 -82 220 -188c0 -27 -9 -61 -24 -80c-34 -18 -49 -42 -49 -63c0 -20 8 -37 29 -60c36 -41 74 -86 74 -158c0 -105 -76 -176 -202 -176c-35 0 -75 4 -102 13l19 127c16 -7 38 -11 63 -11
c33 0 51 18 51 39c0 19 -9 34 -32 60c-31 36 -71 78 -71 141c0 50 27 97 72 122c5 12 7 23 7 36c0 33 -23 65 -64 65c-45 0 -81 -35 -81 -142v-440z" />
    <glyph glyph-name="agrave" unicode="&#xe0;" horiz-adv-x="518" 
d="M98 701h150l79 -151h-114zM466 285v-167c0 -47 2 -90 8 -118h-155l-9 44h-3c-33 -39 -79 -54 -129 -54c-94 0 -155 70 -155 154c0 132 119 189 270 189v6c0 22 -18 44 -76 44c-50 0 -98 -16 -130 -35l-30 111c31 16 99 43 193 43c170 0 216 -102 216 -217zM298 175v52
c-65 0 -108 -20 -108 -66c0 -34 22 -50 49 -50c23 0 48 15 57 40c2 7 2 16 2 24z" />
    <glyph glyph-name="aacute" unicode="&#xe1;" horiz-adv-x="518" 
d="M268 701h151l-115 -151h-115zM466 285v-167c0 -47 2 -90 8 -118h-155l-9 44h-3c-33 -39 -79 -54 -129 -54c-94 0 -155 70 -155 154c0 132 119 189 270 189v6c0 22 -18 44 -76 44c-50 0 -98 -16 -130 -35l-30 111c31 16 99 43 193 43c170 0 216 -102 216 -217zM298 175v52
c-65 0 -108 -20 -108 -66c0 -34 22 -50 49 -50c23 0 48 15 57 40c2 7 2 16 2 24z" />
    <glyph glyph-name="acircumflex" unicode="&#xe2;" horiz-adv-x="518" 
d="M199 701h116l97 -151h-110l-44 82h-2l-44 -82h-111zM466 285v-167c0 -47 2 -90 8 -118h-155l-9 44h-3c-33 -39 -79 -54 -129 -54c-94 0 -155 70 -155 154c0 132 119 189 270 189v6c0 22 -18 44 -76 44c-50 0 -98 -16 -130 -35l-30 111c31 16 99 43 193 43
c170 0 216 -102 216 -217zM298 175v52c-65 0 -108 -20 -108 -66c0 -34 22 -50 49 -50c23 0 48 15 57 40c2 7 2 16 2 24z" />
    <glyph glyph-name="atilde" unicode="&#xe3;" horiz-adv-x="518" 
d="M185 554h-78c-2 86 30 139 84 139c27 0 47 -10 65 -20c15 -9 28 -18 41 -18c15 0 21 7 23 43h76c2 -99 -32 -136 -84 -136c-27 0 -48 11 -67 20c-17 9 -24 16 -37 16s-22 -14 -23 -44zM466 285v-167c0 -47 2 -90 8 -118h-155l-9 44h-3c-33 -39 -79 -54 -129 -54
c-94 0 -155 70 -155 154c0 132 119 189 270 189v6c0 22 -18 44 -76 44c-50 0 -98 -16 -130 -35l-30 111c31 16 99 43 193 43c170 0 216 -102 216 -217zM298 175v52c-65 0 -108 -20 -108 -66c0 -34 22 -50 49 -50c23 0 48 15 57 40c2 7 2 16 2 24z" />
    <glyph glyph-name="adieresis" unicode="&#xe4;" horiz-adv-x="518" 
d="M155 553h-1c-43 0 -76 34 -76 77c0 45 34 77 77 77c41 0 73 -32 73 -77c0 -43 -32 -77 -73 -77zM365 553h-1c-42 0 -75 34 -75 77c0 45 33 77 76 77c42 0 74 -32 74 -77c0 -43 -31 -77 -74 -77zM466 285v-167c0 -47 2 -90 8 -118h-155l-9 44h-3c-33 -39 -79 -54 -129 -54
c-94 0 -155 70 -155 154c0 132 119 189 270 189v6c0 22 -18 44 -76 44c-50 0 -98 -16 -130 -35l-30 111c31 16 99 43 193 43c170 0 216 -102 216 -217zM298 175v52c-65 0 -108 -20 -108 -66c0 -34 22 -50 49 -50c23 0 48 15 57 40c2 7 2 16 2 24z" />
    <glyph glyph-name="aring" unicode="&#xe5;" horiz-adv-x="518" 
d="M261 540c-75 0 -117 42 -117 96c0 56 39 101 118 101c77 0 115 -42 115 -99c0 -56 -42 -98 -116 -98zM260 593c30 0 43 23 43 45s-12 46 -44 46c-28 0 -40 -25 -40 -47c0 -19 12 -44 41 -44zM466 285v-167c0 -47 2 -90 8 -118h-155l-9 44h-3c-33 -39 -79 -54 -129 -54
c-94 0 -155 70 -155 154c0 132 119 189 270 189v6c0 22 -18 44 -76 44c-50 0 -98 -16 -130 -35l-30 111c31 16 99 43 193 43c170 0 216 -102 216 -217zM298 175v52c-65 0 -108 -20 -108 -66c0 -34 22 -50 49 -50c23 0 48 15 57 40c2 7 2 16 2 24z" />
    <glyph glyph-name="ae" unicode="&#xe6;" horiz-adv-x="770" 
d="M739 194h-283c4 -48 51 -77 117 -77c52 0 88 8 125 23l23 -115c-57 -29 -119 -35 -175 -35c-76 0 -146 27 -180 79h-3c-40 -48 -94 -79 -173 -79c-102 0 -167 70 -167 160c0 122 121 177 270 178v11c0 16 -20 43 -82 43c-47 0 -94 -18 -122 -35l-31 110
c35 20 99 45 173 45c71 0 124 -25 154 -70h2c38 46 93 70 158 70c129 0 198 -105 198 -248c0 -22 -3 -46 -4 -60zM297 175v49c-67 0 -109 -21 -109 -64c0 -33 24 -48 50 -48c25 0 45 15 55 35c4 7 4 17 4 28zM455 307h131c0 28 -7 82 -62 82c-50 0 -69 -53 -69 -82z" />
    <glyph glyph-name="ccedilla" unicode="&#xe7;" horiz-adv-x="416" 
d="M385 138l16 -129c-19 -9 -56 -16 -98 -18l-16 -33c37 -9 72 -35 72 -81c0 -72 -64 -95 -124 -95c-32 0 -65 6 -88 19l21 67c15 -8 39 -14 56 -14s32 6 32 23s-21 29 -76 35l38 86c-117 22 -188 109 -188 243c0 146 96 260 273 260c35 0 73 -5 102 -15l-24 -129
c-15 6 -36 11 -68 11c-64 0 -109 -46 -108 -120c0 -80 49 -122 111 -122c27 0 49 4 69 12z" />
    <glyph glyph-name="egrave" unicode="&#xe8;" horiz-adv-x="511" 
d="M110 701h150l79 -151h-114zM478 183h-284c5 -41 56 -65 118 -65c45 0 85 6 124 19l22 -118c-52 -20 -114 -28 -173 -28c-163 0 -255 92 -255 248c0 130 79 263 241 263c144 0 213 -104 213 -248c0 -33 -3 -59 -6 -71zM193 300h133c0 34 -12 86 -63 86
c-49 0 -68 -51 -70 -86z" />
    <glyph glyph-name="eacute" unicode="&#xe9;" horiz-adv-x="511" 
d="M285 701h151l-115 -151h-115zM478 183h-284c5 -41 56 -65 118 -65c45 0 85 6 124 19l22 -118c-52 -20 -114 -28 -173 -28c-163 0 -255 92 -255 248c0 130 79 263 241 263c144 0 213 -104 213 -248c0 -33 -3 -59 -6 -71zM193 300h133c0 34 -12 86 -63 86
c-49 0 -68 -51 -70 -86z" />
    <glyph glyph-name="ecircumflex" unicode="&#xea;" horiz-adv-x="511" 
d="M209 701h116l97 -151h-110l-44 82h-2l-44 -82h-111zM478 183h-284c5 -41 56 -65 118 -65c45 0 85 6 124 19l22 -118c-52 -20 -114 -28 -173 -28c-163 0 -255 92 -255 248c0 130 79 263 241 263c144 0 213 -104 213 -248c0 -33 -3 -59 -6 -71zM193 300h133
c0 34 -12 86 -63 86c-49 0 -68 -51 -70 -86z" />
    <glyph glyph-name="edieresis" unicode="&#xeb;" horiz-adv-x="511" 
d="M168 553h-1c-43 0 -76 34 -76 77c0 45 34 77 77 77c41 0 73 -32 73 -77c0 -43 -32 -77 -73 -77zM378 553h-1c-42 0 -75 34 -75 77c0 45 33 77 76 77c42 0 74 -32 74 -77c0 -43 -31 -77 -74 -77zM478 183h-284c5 -41 56 -65 118 -65c45 0 85 6 124 19l22 -118
c-52 -20 -114 -28 -173 -28c-163 0 -255 92 -255 248c0 130 79 263 241 263c144 0 213 -104 213 -248c0 -33 -3 -59 -6 -71zM193 300h133c0 34 -12 86 -63 86c-49 0 -68 -51 -70 -86z" />
    <glyph glyph-name="igrave" unicode="&#xec;" horiz-adv-x="276" 
d="M-28 701h150l79 -151h-114zM224 0h-173v492h173v-492z" />
    <glyph glyph-name="iacute" unicode="&#xed;" horiz-adv-x="276" 
d="M152 701h151l-115 -151h-115zM224 0h-173v492h173v-492z" />
    <glyph glyph-name="icircumflex" unicode="&#xee;" horiz-adv-x="276" 
d="M81 701h116l97 -151h-110l-44 82h-2l-44 -82h-111zM224 0h-173v492h173v-492z" />
    <glyph glyph-name="idieresis" unicode="&#xef;" horiz-adv-x="276" 
d="M34 553h-1c-43 0 -76 34 -76 77c0 45 34 77 77 77c41 0 73 -32 73 -77c0 -43 -32 -77 -73 -77zM244 553h-1c-42 0 -75 34 -75 77c0 45 33 77 76 77c42 0 74 -32 74 -77c0 -43 -31 -77 -74 -77zM224 0h-173v492h173v-492z" />
    <glyph glyph-name="eth" unicode="&#xf0;" horiz-adv-x="548" 
d="M275 114h1c47 0 66 53 66 127c0 46 -4 77 -15 97c-12 19 -28 31 -50 31c-56 0 -71 -76 -71 -128c0 -72 21 -127 69 -127zM99 476l-31 62l94 43c-25 15 -51 29 -80 42l81 92c46 -16 95 -43 141 -73l128 55l33 -61l-98 -42c45 -37 82 -85 110 -140c30 -57 41 -123 41 -193
c0 -198 -127 -271 -245 -271c-142 0 -243 96 -243 250c0 141 97 225 211 232c19 2 37 0 55 -8l2 4c-20 25 -44 50 -69 66z" />
    <glyph glyph-name="ntilde" unicode="&#xf1;" horiz-adv-x="563" 
d="M218 554h-78c-2 86 30 139 84 139c27 0 47 -10 65 -20c15 -9 28 -18 41 -18c15 0 21 7 23 43h76c2 -99 -32 -136 -84 -136c-27 0 -48 11 -67 20c-17 9 -24 16 -37 16s-22 -14 -23 -44zM51 0v328c0 61 -2 117 -4 164h149l8 -61h3c21 30 67 71 140 71
c111 0 165 -80 165 -206v-296h-173v279c0 50 -16 83 -56 83c-29 0 -44 -20 -53 -39c-4 -9 -6 -24 -6 -40v-283h-173z" />
    <glyph glyph-name="ograve" unicode="&#xf2;" horiz-adv-x="548" 
d="M116 701h150l79 -151h-114zM279 502c147 0 239 -104 239 -252c0 -188 -127 -260 -245 -260c-142 0 -243 95 -243 253c0 162 101 259 249 259zM276 378c-53 0 -70 -67 -70 -132c0 -77 21 -132 71 -132c43 0 65 56 65 132c0 68 -19 132 -66 132z" />
    <glyph glyph-name="oacute" unicode="&#xf3;" horiz-adv-x="548" 
d="M288 701h151l-115 -151h-115zM279 502c147 0 239 -104 239 -252c0 -188 -127 -260 -245 -260c-142 0 -243 95 -243 253c0 162 101 259 249 259zM276 378c-53 0 -70 -67 -70 -132c0 -77 21 -132 71 -132c43 0 65 56 65 132c0 68 -19 132 -66 132z" />
    <glyph glyph-name="ocircumflex" unicode="&#xf4;" horiz-adv-x="548" 
d="M217 701h116l97 -151h-110l-44 82h-2l-44 -82h-111zM279 502c147 0 239 -104 239 -252c0 -188 -127 -260 -245 -260c-142 0 -243 95 -243 253c0 162 101 259 249 259zM276 378c-53 0 -70 -67 -70 -132c0 -77 21 -132 71 -132c43 0 65 56 65 132c0 68 -19 132 -66 132z
" />
    <glyph glyph-name="otilde" unicode="&#xf5;" horiz-adv-x="548" 
d="M208 554h-78c-2 86 30 139 84 139c27 0 47 -10 65 -20c15 -9 28 -18 41 -18c15 0 21 7 23 43h76c2 -99 -32 -136 -84 -136c-27 0 -48 11 -67 20c-17 9 -24 16 -37 16s-22 -14 -23 -44zM279 502c147 0 239 -104 239 -252c0 -188 -127 -260 -245 -260
c-142 0 -243 95 -243 253c0 162 101 259 249 259zM276 378c-53 0 -70 -67 -70 -132c0 -77 21 -132 71 -132c43 0 65 56 65 132c0 68 -19 132 -66 132z" />
    <glyph glyph-name="odieresis" unicode="&#xf6;" horiz-adv-x="548" 
d="M170 553h-1c-43 0 -76 34 -76 77c0 45 34 77 77 77c41 0 73 -32 73 -77c0 -43 -32 -77 -73 -77zM380 553h-1c-42 0 -75 34 -75 77c0 45 33 77 76 77c42 0 74 -32 74 -77c0 -43 -31 -77 -74 -77zM279 502c147 0 239 -104 239 -252c0 -188 -127 -260 -245 -260
c-142 0 -243 95 -243 253c0 162 101 259 249 259zM276 378c-53 0 -70 -67 -70 -132c0 -77 21 -132 71 -132c43 0 65 56 65 132c0 68 -19 132 -66 132z" />
    <glyph glyph-name="divide" unicode="&#xf7;" horiz-adv-x="596" 
d="M298 363h-1c-45 0 -75 32 -75 78c0 47 31 78 76 78c46 0 76 -31 77 -78c0 -46 -29 -78 -77 -78zM556 215h-516v104h516v-104zM298 15h-1c-45 0 -75 32 -75 78c0 47 31 78 76 78c46 0 76 -31 77 -78c0 -46 -29 -78 -77 -78z" />
    <glyph glyph-name="oslash" unicode="&#xf8;" horiz-adv-x="548" 
d="M274 502h1c40 0 76 -7 109 -22l44 68l61 -40l-46 -70c48 -44 75 -110 75 -191c0 -184 -128 -257 -243 -257c-39 0 -76 7 -107 22l-46 -70l-59 43l44 68c-49 43 -77 108 -77 192c0 159 101 257 244 257zM203 191l109 172c-10 9 -22 15 -39 15c-61 0 -80 -75 -80 -132
c0 -18 2 -37 7 -53zM346 294l-107 -164c8 -11 21 -16 36 -16c52 0 79 52 79 125c0 18 -1 38 -5 55h-3z" />
    <glyph glyph-name="ugrave" unicode="&#xf9;" horiz-adv-x="561" 
d="M121 701h150l79 -151h-114zM508 492v-328c0 -64 2 -120 4 -164h-149l-8 61h-3c-20 -30 -63 -71 -140 -71c-106 0 -162 70 -162 211v291h172v-266c0 -62 19 -96 57 -96c27 0 43 18 50 35c4 8 6 19 6 31v296h173z" />
    <glyph glyph-name="uacute" unicode="&#xfa;" horiz-adv-x="561" 
d="M295 701h151l-115 -151h-115zM508 492v-328c0 -64 2 -120 4 -164h-149l-8 61h-3c-20 -30 -63 -71 -140 -71c-106 0 -162 70 -162 211v291h172v-266c0 -62 19 -96 57 -96c27 0 43 18 50 35c4 8 6 19 6 31v296h173z" />
    <glyph glyph-name="ucircumflex" unicode="&#xfb;" horiz-adv-x="561" 
d="M224 701h116l97 -151h-110l-44 82h-2l-44 -82h-111zM508 492v-328c0 -64 2 -120 4 -164h-149l-8 61h-3c-20 -30 -63 -71 -140 -71c-106 0 -162 70 -162 211v291h172v-266c0 -62 19 -96 57 -96c27 0 43 18 50 35c4 8 6 19 6 31v296h173z" />
    <glyph glyph-name="udieresis" unicode="&#xfc;" horiz-adv-x="561" 
d="M180 553h-1c-43 0 -76 34 -76 77c0 45 34 77 77 77c41 0 73 -32 73 -77c0 -43 -32 -77 -73 -77zM390 553h-1c-42 0 -75 34 -75 77c0 45 33 77 76 77c42 0 74 -32 74 -77c0 -43 -31 -77 -74 -77zM508 492v-328c0 -64 2 -120 4 -164h-149l-8 61h-3
c-20 -30 -63 -71 -140 -71c-106 0 -162 70 -162 211v291h172v-266c0 -62 19 -96 57 -96c27 0 43 18 50 35c4 8 6 19 6 31v296h173z" />
    <glyph glyph-name="yacute" unicode="&#xfd;" horiz-adv-x="505" 
d="M277 701h151l-115 -151h-115zM4 492h190l53 -228c6 -27 14 -59 19 -84h3c5 25 10 58 15 83l41 229h180l-107 -341c-57 -168 -101 -246 -153 -296c-53 -50 -113 -70 -151 -74l-40 146c20 4 41 12 62 23c22 10 42 29 53 46c5 7 9 14 9 21c0 6 -2 14 -7 24z" />
    <glyph glyph-name="thorn" unicode="&#xfe;" horiz-adv-x="567" 
d="M51 678h172v-241h2c25 39 67 65 126 65c103 2 186 -99 186 -254c0 -179 -109 -258 -200 -258c-55 0 -92 23 -111 50h-2v-236h-173v874zM224 294v-97c0 -17 5 -37 14 -48c12 -14 29 -25 48 -25c49 0 77 49 77 122s-28 119 -72 119c-25 0 -45 -12 -57 -33
c-6 -9 -10 -25 -10 -38z" />
    <glyph glyph-name="ydieresis" unicode="&#xff;" horiz-adv-x="505" 
d="M158 553h-1c-43 0 -76 34 -76 77c0 45 34 77 77 77c41 0 73 -32 73 -77c0 -43 -32 -77 -73 -77zM368 553h-1c-42 0 -75 34 -75 77c0 45 33 77 76 77c42 0 74 -32 74 -77c0 -43 -31 -77 -74 -77zM4 492h190l53 -228c6 -27 14 -59 19 -84h3c5 25 10 58 15 83l41 229h180
l-107 -341c-57 -168 -101 -246 -153 -296c-53 -50 -113 -70 -151 -74l-40 146c20 4 41 12 62 23c22 10 42 29 53 46c5 7 9 14 9 21c0 6 -2 14 -7 24z" />
    <glyph glyph-name="Amacron" unicode="&#x100;" horiz-adv-x="613" 
d="M374 149h-154l-34 -149h-176l180 674h225l178 -674h-182zM241 278h112l-27 124c-8 38 -20 98 -29 138h-2c-9 -40 -19 -101 -28 -139zM172 827h261v-92h-261v92z" />
    <glyph glyph-name="amacron" unicode="&#x101;" horiz-adv-x="518" 
d="M135 673h249v-93h-249v93zM466 285v-167c0 -47 2 -90 8 -118h-155l-9 44h-3c-33 -39 -79 -54 -129 -54c-94 0 -155 70 -155 154c0 132 119 189 270 189v6c0 22 -18 44 -76 44c-50 0 -98 -16 -130 -35l-30 111c31 16 99 43 193 43c170 0 216 -102 216 -217zM298 175v52
c-65 0 -108 -20 -108 -66c0 -34 22 -50 49 -50c23 0 48 15 57 40c2 7 2 16 2 24z" />
    <glyph glyph-name="Abreve" unicode="&#x102;" horiz-adv-x="613" 
d="M374 149h-154l-34 -149h-176l180 674h225l178 -674h-182zM241 278h112l-27 124c-8 38 -20 98 -29 138h-2c-9 -40 -19 -101 -28 -139zM163 838h90c1 -23 15 -45 51 -45s51 21 55 45h87c-1 -78 -46 -132 -141 -132c-99 0 -141 54 -142 132z" />
    <glyph glyph-name="abreve" unicode="&#x103;" horiz-adv-x="518" 
d="M120 693h86c4 -34 21 -55 52 -55c38 0 54 26 55 55h85c0 -84 -50 -145 -140 -145c-89 0 -138 61 -138 145zM466 285v-167c0 -47 2 -90 8 -118h-155l-9 44h-3c-33 -39 -79 -54 -129 -54c-94 0 -155 70 -155 154c0 132 119 189 270 189v6c0 22 -18 44 -76 44
c-50 0 -98 -16 -130 -35l-30 111c31 16 99 43 193 43c170 0 216 -102 216 -217zM298 175v52c-65 0 -108 -20 -108 -66c0 -34 22 -50 49 -50c23 0 48 15 57 40c2 7 2 16 2 24z" />
    <glyph glyph-name="Aogonek" unicode="&#x104;" horiz-adv-x="613" 
d="M415 674l178 -674h-88c-9 -19 -15 -40 -15 -61c0 -29 22 -53 51 -53c19 0 33 3 42 6l22 -79c-31 -23 -73 -33 -106 -33c-74 0 -116 39 -116 111c0 47 22 93 28 109l-37 149h-154l-34 -149h-176l180 674h225zM241 278h112l-27 124c-8 38 -20 98 -29 138h-2
c-9 -40 -19 -101 -28 -139z" />
    <glyph glyph-name="aogonek" unicode="&#x105;" horiz-adv-x="518" 
d="M466 285v-167c0 -47 2 -90 8 -118h-61c-9 -20 -15 -42 -15 -63c0 -30 19 -49 46 -49c17 0 29 3 41 8l23 -81c-36 -26 -74 -35 -109 -35c-66 0 -108 39 -108 108c0 50 21 93 28 112l-9 44h-3c-33 -39 -79 -54 -129 -54c-94 0 -155 70 -155 154c0 132 119 189 270 189v6
c0 22 -18 44 -76 44c-50 0 -98 -16 -130 -35l-30 111c31 16 99 43 193 43c170 0 216 -102 216 -217zM298 175v52c-65 0 -108 -20 -108 -66c0 -34 22 -50 49 -50c23 0 48 15 57 40c2 7 2 16 2 24z" />
    <glyph glyph-name="Cacute" unicode="&#x106;" horiz-adv-x="543" 
d="M493 153l21 -138c-23 -11 -79 -24 -149 -24c-234 0 -335 157 -335 335c0 241 166 357 349 357c69 0 123 -13 146 -26l-32 -139c-25 11 -59 21 -104 21c-96 0 -176 -61 -176 -203c0 -128 67 -199 177 -199c37 0 79 7 103 16zM338 833h174l-121 -123h-132z" />
    <glyph glyph-name="cacute" unicode="&#x107;" horiz-adv-x="416" 
d="M269 701h151l-115 -151h-115zM385 138l16 -129c-24 -11 -70 -18 -120 -18c-154 0 -251 93 -251 250c0 146 96 260 273 260c35 0 73 -5 102 -15l-24 -129c-15 6 -36 11 -68 11c-64 0 -109 -46 -108 -120c0 -80 49 -122 111 -122c27 0 49 4 69 12z" />
    <glyph glyph-name="Ccircumflex" unicode="&#x108;" horiz-adv-x="543" 
d="M493 153l21 -138c-23 -11 -79 -24 -149 -24c-234 0 -335 157 -335 335c0 241 166 357 349 357c69 0 123 -13 146 -26l-32 -139c-25 11 -59 21 -104 21c-96 0 -176 -61 -176 -203c0 -128 67 -199 177 -199c37 0 79 7 103 16zM267 836h129l95 -123h-118l-40 56h-2l-41 -56
h-116z" />
    <glyph glyph-name="ccircumflex" unicode="&#x109;" horiz-adv-x="416" 
d="M192 701h116l97 -151h-110l-44 82h-2l-44 -82h-111zM385 138l16 -129c-24 -11 -70 -18 -120 -18c-154 0 -251 93 -251 250c0 146 96 260 273 260c35 0 73 -5 102 -15l-24 -129c-15 6 -36 11 -68 11c-64 0 -109 -46 -108 -120c0 -80 49 -122 111 -122c27 0 49 4 69 12z
" />
    <glyph glyph-name="Cdotaccent" unicode="&#x10a;" horiz-adv-x="543" 
d="M493 153l21 -138c-23 -11 -79 -24 -149 -24c-234 0 -335 157 -335 335c0 241 166 357 349 357c69 0 123 -13 146 -26l-32 -139c-25 11 -59 21 -104 21c-96 0 -176 -61 -176 -203c0 -128 67 -199 177 -199c37 0 79 7 103 16zM334 709h-1c-42 0 -76 35 -76 76
c0 42 34 75 77 75c41 0 73 -33 73 -75c0 -41 -32 -76 -73 -76z" />
    <glyph glyph-name="cdotaccent" unicode="&#x10b;" horiz-adv-x="416" 
d="M261 553h-1c-42 0 -75 34 -75 77c0 45 34 77 76 77s74 -32 74 -77c0 -43 -32 -77 -74 -77zM385 138l16 -129c-24 -11 -70 -18 -120 -18c-154 0 -251 93 -251 250c0 146 96 260 273 260c35 0 73 -5 102 -15l-24 -129c-15 6 -36 11 -68 11c-64 0 -109 -46 -108 -120
c0 -80 49 -122 111 -122c27 0 49 4 69 12z" />
    <glyph glyph-name="Ccaron" unicode="&#x10c;" horiz-adv-x="543" 
d="M493 153l21 -138c-23 -11 -79 -24 -149 -24c-234 0 -335 157 -335 335c0 241 166 357 349 357c69 0 123 -13 146 -26l-32 -139c-25 11 -59 21 -104 21c-96 0 -176 -61 -176 -203c0 -128 67 -199 177 -199c37 0 79 7 103 16zM401 710h-129l-95 123h118l40 -56h2l41 56h116
z" />
    <glyph glyph-name="ccaron" unicode="&#x10d;" horiz-adv-x="416" 
d="M311 550h-117l-97 151h110l44 -81h2l44 81h112zM385 138l16 -129c-24 -11 -70 -18 -120 -18c-154 0 -251 93 -251 250c0 146 96 260 273 260c35 0 73 -5 102 -15l-24 -129c-15 6 -36 11 -68 11c-64 0 -109 -46 -108 -120c0 -80 49 -122 111 -122c27 0 49 4 69 12z" />
    <glyph glyph-name="Dcaron" unicode="&#x10e;" horiz-adv-x="650" 
d="M61 3v662c50 8 120 14 193 14c118 0 194 -21 255 -67c70 -52 111 -138 111 -262c0 -135 -47 -228 -112 -280c-66 -53 -164 -77 -286 -77c-75 0 -129 5 -161 10zM233 541v-410c8 -2 22 -2 33 -2c98 -1 172 62 172 219c0 130 -64 197 -160 197c-22 0 -36 -1 -45 -4z
M362 710h-129l-95 123h118l40 -56h2l41 56h116z" />
    <glyph glyph-name="dcaron" unicode="&#x10f;" horiz-adv-x="577" 
d="M343 705h172v-549c0 -58 2 -118 4 -156h-152l-7 62h-2c-29 -49 -83 -72 -135 -72c-114 0 -193 107 -193 253c-1 167 95 259 202 259c52 0 91 -18 109 -47h2v250zM343 209v77c0 8 0 17 -2 25c-6 30 -27 56 -60 56c-54 0 -77 -55 -77 -122c0 -79 33 -117 76 -117
c30 0 53 20 60 49c2 9 3 20 3 32zM625 484l-70 45c13 24 26 64 26 101c0 27 -10 52 -19 68l105 16c16 -12 31 -42 31 -75c0 -88 -55 -139 -73 -155z" />
    <glyph glyph-name="Dcroat" unicode="&#x110;" horiz-adv-x="656" 
d="M3 280v130h64v256c50 9 121 14 194 14c118 0 193 -19 254 -64c70 -53 111 -142 111 -266c0 -135 -47 -229 -112 -282c-66 -53 -163 -77 -286 -77c-74 0 -129 5 -161 10v279h-64zM338 410v-130h-99v-151c9 -2 23 -2 33 -2c100 0 172 62 172 221c0 135 -63 199 -160 199
c-23 0 -36 -2 -45 -4v-133h99z" />
    <glyph glyph-name="dcroat" unicode="&#x111;" horiz-adv-x="567" 
d="M591 533h-76v-377c0 -58 2 -118 4 -156h-152l-7 62h-2c-29 -49 -83 -72 -135 -72c-114 0 -193 107 -193 253c-1 167 95 259 202 259c52 0 91 -18 109 -47h2v78h-160v95h160v77h172v-77h76v-95zM343 209v77c0 8 0 17 -2 25c-6 30 -27 56 -60 56c-54 0 -77 -55 -77 -122
c0 -79 33 -117 76 -117c30 0 53 20 60 49c2 9 3 20 3 32z" />
    <glyph glyph-name="Emacron" unicode="&#x112;" horiz-adv-x="510" 
d="M447 417v-141h-213v-133h239v-143h-412v674h398v-143h-225v-114h213zM125 827h261v-92h-261v92z" />
    <glyph glyph-name="emacron" unicode="&#x113;" horiz-adv-x="511" 
d="M134 673h249v-93h-249v93zM478 183h-284c5 -41 56 -65 118 -65c45 0 85 6 124 19l22 -118c-52 -20 -114 -28 -173 -28c-163 0 -255 92 -255 248c0 130 79 263 241 263c144 0 213 -104 213 -248c0 -33 -3 -59 -6 -71zM193 300h133c0 34 -12 86 -63 86
c-49 0 -68 -51 -70 -86z" />
    <glyph glyph-name="Ebreve" unicode="&#x114;" horiz-adv-x="510" 
d="M447 417v-141h-213v-133h239v-143h-412v674h398v-143h-225v-114h213zM123 840h90c1 -23 15 -45 51 -45s51 21 55 45h87c-1 -78 -46 -132 -141 -132c-99 0 -141 54 -142 132z" />
    <glyph glyph-name="ebreve" unicode="&#x115;" horiz-adv-x="511" 
d="M122 693h86c4 -34 21 -55 52 -55c38 0 54 26 55 55h85c0 -84 -50 -145 -140 -145c-89 0 -138 61 -138 145zM478 183h-284c5 -41 56 -65 118 -65c45 0 85 6 124 19l22 -118c-52 -20 -114 -28 -173 -28c-163 0 -255 92 -255 248c0 130 79 263 241 263
c144 0 213 -104 213 -248c0 -33 -3 -59 -6 -71zM193 300h133c0 34 -12 86 -63 86c-49 0 -68 -51 -70 -86z" />
    <glyph glyph-name="Edotaccent" unicode="&#x116;" horiz-adv-x="510" 
d="M447 417v-141h-213v-133h239v-143h-412v674h398v-143h-225v-114h213zM257 709h-1c-42 0 -76 35 -76 76c0 42 34 75 77 75c41 0 73 -33 73 -75c0 -41 -32 -76 -73 -76z" />
    <glyph glyph-name="edotaccent" unicode="&#x117;" horiz-adv-x="511" 
d="M263 553h-1c-42 0 -75 34 -75 77c0 45 34 77 76 77s74 -32 74 -77c0 -43 -32 -77 -74 -77zM478 183h-284c5 -41 56 -65 118 -65c45 0 85 6 124 19l22 -118c-52 -20 -114 -28 -173 -28c-163 0 -255 92 -255 248c0 130 79 263 241 263c144 0 213 -104 213 -248
c0 -33 -3 -59 -6 -71zM193 300h133c0 34 -12 86 -63 86c-49 0 -68 -51 -70 -86z" />
    <glyph glyph-name="Eogonek" unicode="&#x118;" horiz-adv-x="510" 
d="M461 -107l23 -80c-32 -23 -72 -33 -115 -33c-66 0 -105 37 -105 96c0 53 33 96 65 124h-268v674h398v-143h-225v-114h213v-141h-213v-133h239v-143h-27c-31 -23 -60 -56 -60 -85c0 -18 14 -29 34 -29c15 0 29 3 41 7z" />
    <glyph glyph-name="eogonek" unicode="&#x119;" horiz-adv-x="511" 
d="M411 -103l26 -79c-33 -27 -74 -38 -113 -38c-68 0 -105 36 -105 88c0 53 37 96 65 122v1h-7c-157 2 -247 94 -247 248c0 130 79 263 241 263c144 0 213 -104 213 -248c0 -33 -3 -59 -6 -71h-284c5 -41 56 -65 118 -65c45 0 85 6 124 19l22 -118c-15 -6 -31 -10 -42 -14
c-40 -23 -79 -63 -79 -91c0 -19 14 -28 29 -28s30 4 45 11zM193 300h133c0 34 -12 86 -63 86c-49 0 -68 -51 -70 -86z" />
    <glyph glyph-name="Ecaron" unicode="&#x11a;" horiz-adv-x="510" 
d="M447 417v-141h-213v-133h239v-143h-412v674h398v-143h-225v-114h213zM322 710h-129l-95 123h118l40 -56h2l41 56h116z" />
    <glyph glyph-name="ecaron" unicode="&#x11b;" horiz-adv-x="511" 
d="M318 550h-117l-97 151h110l44 -81h2l44 81h112zM478 183h-284c5 -41 56 -65 118 -65c45 0 85 6 124 19l22 -118c-52 -20 -114 -28 -173 -28c-163 0 -255 92 -255 248c0 130 79 263 241 263c144 0 213 -104 213 -248c0 -33 -3 -59 -6 -71zM193 300h133c0 34 -12 86 -63 86
c-49 0 -68 -51 -70 -86z" />
    <glyph glyph-name="Gcircumflex" unicode="&#x11c;" horiz-adv-x="634" 
d="M587 397v-370c-44 -15 -130 -34 -207 -34c-118 0 -200 31 -255 84c-63 60 -96 151 -95 253c2 235 167 351 366 351c80 0 141 -15 172 -30l-33 -141c-33 14 -72 25 -135 25c-106 0 -189 -59 -189 -203c0 -130 74 -198 167 -198c19 0 37 2 45 5v122h-78v136h242zM283 836
h129l95 -123h-118l-40 56h-2l-41 -56h-116z" />
    <glyph glyph-name="gcircumflex" unicode="&#x11d;" horiz-adv-x="557" 
d="M225 701h116l97 -151h-110l-44 82h-2l-44 -82h-111zM506 339v-273c0 -90 -18 -165 -73 -213c-51 -44 -119 -59 -197 -59c-61 0 -122 11 -166 32l32 131c29 -15 77 -31 127 -31c66 0 107 38 107 109v22h-2c-26 -35 -67 -52 -112 -52c-120 0 -192 106 -192 238
c0 156 91 259 207 259c52 0 91 -21 116 -61h2l7 51h149c-3 -36 -5 -82 -5 -153zM334 210v84c0 10 -2 20 -3 27c-8 30 -27 47 -54 47c-43 0 -73 -46 -73 -122c0 -67 27 -113 72 -113c27 0 47 18 54 40c3 10 4 25 4 37z" />
    <glyph glyph-name="Gbreve" unicode="&#x11e;" horiz-adv-x="634" 
d="M587 397v-370c-44 -15 -130 -34 -207 -34c-118 0 -200 31 -255 84c-63 60 -96 151 -95 253c2 235 167 351 366 351c80 0 141 -15 172 -30l-33 -141c-33 14 -72 25 -135 25c-106 0 -189 -59 -189 -203c0 -130 74 -198 167 -198c19 0 37 2 45 5v122h-78v136h242zM215 843
h90c1 -23 15 -45 51 -45s51 21 55 45h87c-1 -78 -46 -132 -141 -132c-99 0 -141 54 -142 132z" />
    <glyph glyph-name="gbreve" unicode="&#x11f;" horiz-adv-x="557" 
d="M146 693h86c4 -34 21 -55 52 -55c38 0 54 26 55 55h85c0 -84 -50 -145 -140 -145c-89 0 -138 61 -138 145zM506 339v-273c0 -90 -18 -165 -73 -213c-51 -44 -119 -59 -197 -59c-61 0 -122 11 -166 32l32 131c29 -15 77 -31 127 -31c66 0 107 38 107 109v22h-2
c-26 -35 -67 -52 -112 -52c-120 0 -192 106 -192 238c0 156 91 259 207 259c52 0 91 -21 116 -61h2l7 51h149c-3 -36 -5 -82 -5 -153zM334 210v84c0 10 -2 20 -3 27c-8 30 -27 47 -54 47c-43 0 -73 -46 -73 -122c0 -67 27 -113 72 -113c27 0 47 18 54 40c3 10 4 25 4 37z
" />
    <glyph glyph-name="Gdotaccent" unicode="&#x120;" horiz-adv-x="634" 
d="M587 397v-370c-44 -15 -130 -34 -207 -34c-118 0 -200 31 -255 84c-63 60 -96 151 -95 253c2 235 167 351 366 351c80 0 141 -15 172 -30l-33 -141c-33 14 -72 25 -135 25c-106 0 -189 -59 -189 -203c0 -130 74 -198 167 -198c19 0 37 2 45 5v122h-78v136h242zM352 709
h-1c-42 0 -76 35 -76 76c0 42 34 75 77 75c41 0 73 -33 73 -75c0 -41 -32 -76 -73 -76z" />
    <glyph glyph-name="gdotaccent" unicode="&#x121;" horiz-adv-x="557" 
d="M279 553h-1c-42 0 -75 34 -75 77c0 45 34 77 76 77s74 -32 74 -77c0 -43 -32 -77 -74 -77zM506 339v-273c0 -90 -18 -165 -73 -213c-51 -44 -119 -59 -197 -59c-61 0 -122 11 -166 32l32 131c29 -15 77 -31 127 -31c66 0 107 38 107 109v22h-2c-26 -35 -67 -52 -112 -52
c-120 0 -192 106 -192 238c0 156 91 259 207 259c52 0 91 -21 116 -61h2l7 51h149c-3 -36 -5 -82 -5 -153zM334 210v84c0 10 -2 20 -3 27c-8 30 -27 47 -54 47c-43 0 -73 -46 -73 -122c0 -67 27 -113 72 -113c27 0 47 18 54 40c3 10 4 25 4 37z" />
    <glyph glyph-name="Gcommaaccent" unicode="&#x122;" horiz-adv-x="634" 
d="M587 397v-370c-44 -15 -130 -34 -207 -34c-118 0 -200 31 -255 84c-63 60 -96 151 -95 253c2 235 167 351 366 351c80 0 141 -15 172 -30l-33 -141c-33 14 -72 25 -135 25c-106 0 -189 -59 -189 -203c0 -130 74 -198 167 -198c19 0 37 2 45 5v122h-78v136h242zM260 -244
l-24 73c28 7 60 26 60 55c0 23 -18 46 -29 60l119 17c19 -14 39 -42 39 -79c0 -83 -71 -122 -165 -126z" />
    <glyph glyph-name="gcommaaccent" unicode="&#x123;" horiz-adv-x="557" 
d="M506 339v-273c0 -90 -18 -165 -73 -213c-51 -44 -119 -59 -197 -59c-61 0 -122 11 -166 32l32 131c29 -15 77 -31 127 -31c66 0 107 38 107 109v22h-2c-26 -35 -67 -52 -112 -52c-120 0 -192 106 -192 238c0 156 91 259 207 259c52 0 91 -21 116 -61h2l7 51h149
c-3 -36 -5 -82 -5 -153zM334 210v84c0 10 -2 20 -3 27c-8 30 -27 47 -54 47c-43 0 -73 -46 -73 -122c0 -67 27 -113 72 -113c27 0 47 18 54 40c3 10 4 25 4 37zM359 731l24 -61c-40 -6 -69 -24 -69 -56c0 -24 17 -43 31 -56l-112 -16c-19 14 -39 41 -39 73
c0 78 71 113 165 116z" />
    <glyph glyph-name="Hcircumflex" unicode="&#x124;" horiz-adv-x="655" 
d="M61 674h173v-253h187v253h173v-674h-173v267h-187v-267h-173v674zM262 833h129l95 -123h-118l-40 56h-2l-41 -56h-116z" />
    <glyph glyph-name="hcircumflex" unicode="&#x125;" horiz-adv-x="563" 
d="M51 0v705h173v-265h2c15 20 33 34 54 45s47 17 72 17c108 0 160 -82 160 -217v-285h-173v273c0 53 -15 89 -57 89c-28 0 -44 -16 -53 -38c-3 -7 -5 -22 -5 -31v-293h-173zM77 856h129l95 -123h-118l-40 56h-2l-41 -56h-116z" />
    <glyph glyph-name="Hbar" unicode="&#x126;" horiz-adv-x="665" 
d="M659 467h-60v-467h-173v240h-187v-240h-173v467h-60v104h60v103h173v-103h187v103h173v-103h60v-104zM426 393v74h-187v-74h187z" />
    <glyph glyph-name="hbar" unicode="&#x127;" horiz-adv-x="563" 
d="M512 0h-173v273c0 53 -15 89 -57 89c-28 0 -44 -16 -53 -38c-3 -7 -5 -22 -5 -31v-293h-173v533h-73v95h73v77h173v-77h164v-95h-164v-93h2c15 20 33 34 54 45c21 10 47 17 72 17c108 0 160 -82 160 -217v-285z" />
    <glyph glyph-name="Itilde" unicode="&#x128;" horiz-adv-x="294" 
d="M61 674h173v-674h-173v674zM83 715h-76c-3 92 30 135 78 135c27 0 46 -9 62 -19s30 -19 41 -19c16 0 21 10 25 42h75c3 -99 -28 -133 -81 -133c-27 0 -47 9 -63 18s-26 17 -39 17c-10 0 -20 -13 -22 -41z" />
    <glyph glyph-name="itilde" unicode="&#x129;" horiz-adv-x="276" 
d="M72 554h-78c-2 86 30 139 84 139c27 0 47 -10 65 -20c15 -9 28 -18 41 -18c15 0 21 7 23 43h76c2 -99 -32 -136 -84 -136c-27 0 -48 11 -67 20c-17 9 -24 16 -37 16s-22 -14 -23 -44zM224 0h-173v492h173v-492z" />
    <glyph glyph-name="Imacron" unicode="&#x12a;" horiz-adv-x="294" 
d="M61 674h173v-674h-173v674zM17 827h261v-92h-261v92z" />
    <glyph glyph-name="imacron" unicode="&#x12b;" horiz-adv-x="276" 
d="M14 673h249v-93h-249v93zM224 0h-173v492h173v-492z" />
    <glyph glyph-name="Ibreve" unicode="&#x12c;" horiz-adv-x="294" 
d="M61 674h173v-674h-173v674zM5 844h90c1 -23 15 -45 51 -45s51 21 55 45h87c-1 -78 -46 -132 -141 -132c-99 0 -141 54 -142 132z" />
    <glyph glyph-name="ibreve" unicode="&#x12d;" horiz-adv-x="276" 
d="M-1 693h86c4 -34 21 -55 52 -55c38 0 54 26 55 55h85c0 -84 -50 -145 -140 -145c-89 0 -138 61 -138 145zM224 0h-173v492h173v-492z" />
    <glyph glyph-name="Iogonek" unicode="&#x12e;" horiz-adv-x="294" 
d="M234 674v-674h-79c-9 -19 -15 -40 -15 -60c0 -32 22 -54 51 -54c19 0 32 3 41 6l23 -79c-31 -23 -73 -33 -106 -33c-74 0 -116 39 -116 110c0 48 22 94 28 110v674h173z" />
    <glyph glyph-name="iogonek" unicode="&#x12f;" horiz-adv-x="276" 
d="M137 542h-1c-53 0 -89 38 -88 87c-1 50 36 86 89 86c54 0 90 -36 90 -86c1 -49 -36 -87 -90 -87zM224 492v-492h-78c-10 -19 -15 -40 -15 -61c0 -29 21 -53 51 -53c18 0 32 3 41 6l23 -79c-31 -23 -74 -33 -106 -33c-74 0 -116 39 -116 111c0 47 22 93 27 109v492h173z
" />
    <glyph glyph-name="Idotaccent" unicode="&#x130;" horiz-adv-x="294" 
d="M61 674h173v-674h-173v674zM149 709h-1c-42 0 -76 35 -76 76c0 42 34 75 77 75c41 0 73 -33 73 -75c0 -41 -32 -76 -73 -76z" />
    <glyph glyph-name="dotlessi" unicode="&#x131;" horiz-adv-x="276" 
d="M224 0h-173v492h173v-492z" />
    <glyph glyph-name="IJ" unicode="&#x132;" horiz-adv-x="687" 
d="M61 674h173v-674h-173v674zM460 246v428h173v-425c0 -202 -98 -259 -240 -259c-35 0 -78 5 -106 15l18 140c19 -5 43 -10 69 -10c50 0 86 22 86 111z" />
    <glyph glyph-name="ij" unicode="&#x133;" horiz-adv-x="566" 
d="M224 0h-173v492h173v-492zM137 710c52 0 87 -34 87 -84c1 -47 -35 -84 -88 -84c-51 0 -86 37 -86 84c0 50 36 84 87 84zM252 -212l-15 135c34 3 62 10 80 28c21 19 27 58 27 140v401h173v-435c0 -112 -27 -175 -73 -213s-117 -56 -192 -56zM430 710c52 0 86 -34 87 -84
c0 -47 -35 -84 -89 -84c-51 0 -86 37 -85 84c-1 50 35 84 87 84z" />
    <glyph glyph-name="Jcircumflex" unicode="&#x134;" horiz-adv-x="393" 
d="M166 246v428h173v-425c0 -202 -98 -259 -240 -259c-35 0 -78 5 -106 15l18 140c19 -5 43 -10 69 -10c50 0 86 22 86 111zM187 833h129l95 -123h-118l-40 56h-2l-41 -56h-116z" />
    <glyph glyph-name="jcircumflex" unicode="&#x135;" horiz-adv-x="290" 
d="M-24 -212l-15 135c34 3 62 10 80 28c21 19 27 58 27 140v401h173v-435c0 -112 -27 -175 -73 -213s-117 -56 -192 -56zM90 701h116l97 -151h-110l-44 82h-2l-44 -82h-111z" />
    <glyph glyph-name="Kcommaaccent" unicode="&#x136;" horiz-adv-x="596" 
d="M61 0v674h171v-289h2l39 79l113 210h207l-194 -290l200 -384h-198l-123 269l-46 -64v-205h-171zM230 -244l-24 73c28 7 60 26 60 55c0 23 -18 46 -29 60l119 17c19 -14 39 -42 39 -79c0 -83 -71 -122 -165 -126z" />
    <glyph glyph-name="kcommaaccent" unicode="&#x137;" horiz-adv-x="534" 
d="M224 705v-416h2c10 25 20 45 30 64l71 139h201l-154 -201l172 -291h-207l-84 188l-31 -46v-142h-173v705h173zM194 -244l-24 73c28 6 60 26 60 55c0 23 -18 46 -29 60l119 17c19 -14 39 -42 39 -79c0 -83 -71 -122 -165 -126z" />
    <glyph glyph-name="kgreenlandic" unicode="&#x138;" horiz-adv-x="534" 
d="M224 492v-203h2c10 25 20 45 30 64l71 139h201l-154 -201l172 -291h-207l-84 188l-31 -46v-142h-173v492h173z" />
    <glyph glyph-name="Lacute" unicode="&#x139;" horiz-adv-x="488" 
d="M61 0v674h173v-529h231v-145h-404zM158 833h174l-121 -123h-132z" />
    <glyph glyph-name="lacute" unicode="&#x13a;" horiz-adv-x="276" 
d="M51 0v705h173v-705h-173zM137 859h174l-121 -123h-132z" />
    <glyph glyph-name="Lcommaaccent" unicode="&#x13b;" horiz-adv-x="488" 
d="M61 0v674h173v-529h231v-145h-404zM172 -244l-24 73c28 7 60 26 60 55c0 23 -18 46 -29 60l119 17c19 -14 39 -42 39 -79c0 -83 -71 -122 -165 -126z" />
    <glyph glyph-name="lcommaaccent" unicode="&#x13c;" horiz-adv-x="276" 
d="M51 0v705h173v-705h-173zM57 -244l-24 73c28 6 60 26 60 55c0 23 -18 46 -29 60l119 17c19 -14 39 -42 39 -79c0 -83 -71 -122 -165 -126z" />
    <glyph glyph-name="Lcaron" unicode="&#x13d;" horiz-adv-x="488" 
d="M61 0v674h173v-529h231v-145h-404zM291 479l-24 73c28 7 60 26 60 55c0 23 -18 46 -29 60l119 17c19 -14 39 -42 39 -79c0 -83 -71 -122 -165 -126z" />
    <glyph glyph-name="lcaron" unicode="&#x13e;" horiz-adv-x="286" 
d="M51 0v705h173v-705h-173zM335 484l-76 45c14 27 27 64 27 101c0 27 -10 52 -19 68l105 16c15 -12 31 -42 31 -79c0 -84 -50 -132 -68 -151z" />
    <glyph glyph-name="Ldot" unicode="&#x13f;" horiz-adv-x="488" 
d="M61 0v674h173v-529h231v-145h-404zM377 301h-1c-42 0 -76 35 -76 76c0 42 34 75 77 75c41 0 73 -33 73 -75c0 -41 -32 -76 -73 -76z" />
    <glyph glyph-name="ldot" unicode="&#x140;" horiz-adv-x="380" 
d="M51 0v705h173v-705h-173zM330 333h-1c-38 0 -68 33 -68 75c0 43 31 74 69 74s67 -31 67 -74c0 -42 -28 -75 -67 -75z" />
    <glyph glyph-name="Lslash" unicode="&#x141;" horiz-adv-x="493" 
d="M470 0h-404v222l-68 -45v124l68 45v328h173v-214l112 74v-124l-112 -74v-191h231v-145z" />
    <glyph glyph-name="lslash" unicode="&#x142;" horiz-adv-x="286" 
d="M230 0h-173v222l-60 -45v126l60 45v357h173v-238l65 50v-126l-65 -50v-341z" />
    <glyph glyph-name="Nacute" unicode="&#x143;" horiz-adv-x="655" 
d="M217 0h-156v674h191l103 -217c31 -60 68 -149 94 -220h3c-8 79 -14 184 -14 293v144h156v-674h-176l-107 225c-33 66 -73 156 -99 228h-3c4 -81 8 -186 8 -302v-151zM327 833h174l-121 -123h-132z" />
    <glyph glyph-name="nacute" unicode="&#x144;" horiz-adv-x="563" 
d="M285 701h151l-115 -151h-115zM51 0v328c0 61 -2 117 -4 164h149l8 -61h3c21 30 67 71 140 71c111 0 165 -80 165 -206v-296h-173v279c0 50 -16 83 -56 83c-29 0 -44 -20 -53 -39c-4 -9 -6 -24 -6 -40v-283h-173z" />
    <glyph glyph-name="Ncommaaccent" unicode="&#x145;" horiz-adv-x="655" 
d="M217 0h-156v674h191l103 -217c31 -60 68 -149 94 -220h3c-8 79 -14 184 -14 293v144h156v-674h-176l-107 225c-33 66 -73 156 -99 228h-3c4 -81 8 -186 8 -302v-151zM256 -239l-24 73c28 7 60 26 60 55c0 23 -18 46 -29 60l119 17c19 -14 39 -42 39 -79
c0 -83 -71 -122 -165 -126z" />
    <glyph glyph-name="ncommaaccent" unicode="&#x146;" horiz-adv-x="563" 
d="M51 0v328c0 61 -2 117 -4 164h149l8 -61h3c21 30 67 71 140 71c111 0 165 -80 165 -206v-296h-173v279c0 50 -16 83 -56 83c-29 0 -44 -20 -53 -39c-4 -9 -6 -24 -6 -40v-283h-173zM208 -244l-24 73c28 6 60 26 60 55c0 23 -18 46 -29 60l119 17c19 -14 39 -42 39 -79
c0 -83 -71 -122 -165 -126z" />
    <glyph glyph-name="Ncaron" unicode="&#x147;" horiz-adv-x="655" 
d="M217 0h-156v674h191l103 -217c31 -60 68 -149 94 -220h3c-8 79 -14 184 -14 293v144h156v-674h-176l-107 225c-33 66 -73 156 -99 228h-3c4 -81 8 -186 8 -302v-151zM395 710h-129l-95 123h118l40 -56h2l41 56h116z" />
    <glyph glyph-name="ncaron" unicode="&#x148;" horiz-adv-x="563" 
d="M339 550h-117l-97 151h110l44 -81h2l44 81h112zM51 0v328c0 61 -2 117 -4 164h149l8 -61h3c21 30 67 71 140 71c111 0 165 -80 165 -206v-296h-173v279c0 50 -16 83 -56 83c-29 0 -44 -20 -53 -39c-4 -9 -6 -24 -6 -40v-283h-173z" />
    <glyph glyph-name="napostrophe" unicode="&#x149;" horiz-adv-x="563" 
d="M51 0v328c0 61 -2 117 -4 164h149l8 -61h3c21 30 67 71 140 71c111 0 165 -80 165 -206v-296h-173v279c0 50 -16 83 -56 83c-29 0 -44 -20 -53 -39c-4 -9 -6 -24 -6 -40v-283h-173zM75 519l-76 43c16 26 28 56 28 86c0 22 -9 43 -18 55l109 24c15 -10 32 -37 32 -75
c0 -69 -55 -117 -75 -133z" />
    <glyph glyph-name="Eng" unicode="&#x14a;" horiz-adv-x="655" 
d="M217 0h-156v674h191l103 -217c31 -60 68 -149 94 -220h3c-8 79 -14 184 -14 293v144h156v-626c0 -171 -89 -251 -224 -266l-39 129c57 16 89 38 97 70l-117 244c-33 66 -73 156 -99 228h-3c4 -81 8 -186 8 -302v-151z" />
    <glyph glyph-name="eng" unicode="&#x14b;" horiz-adv-x="563" 
d="M51 0v328c0 61 -2 117 -4 164h149l8 -61h3c21 30 67 71 140 71c111 0 165 -80 165 -206v-243c0 -180 -93 -240 -206 -253l-35 132c46 8 68 29 68 92v255c0 50 -16 83 -56 83c-29 0 -44 -20 -53 -39c-4 -9 -6 -24 -6 -40v-283h-173z" />
    <glyph glyph-name="Omacron" unicode="&#x14c;" horiz-adv-x="660" 
d="M335 684c206 0 294 -173 294 -338c0 -228 -118 -356 -305 -356c-197 0 -294 164 -294 345c0 187 111 349 305 349zM331 544c-71 0 -119 -76 -119 -208c0 -136 48 -206 120 -206c74 0 115 83 115 210c0 116 -41 204 -116 204zM200 827h261v-92h-261v92z" />
    <glyph glyph-name="omacron" unicode="&#x14d;" horiz-adv-x="548" 
d="M150 673h249v-93h-249v93zM279 502c147 0 239 -104 239 -252c0 -188 -127 -260 -245 -260c-142 0 -243 95 -243 253c0 162 101 259 249 259zM276 378c-53 0 -70 -67 -70 -132c0 -77 21 -132 71 -132c43 0 65 56 65 132c0 68 -19 132 -66 132z" />
    <glyph glyph-name="Obreve" unicode="&#x14e;" horiz-adv-x="660" 
d="M335 684c206 0 294 -173 294 -338c0 -228 -118 -356 -305 -356c-197 0 -294 164 -294 345c0 187 111 349 305 349zM331 544c-71 0 -119 -76 -119 -208c0 -136 48 -206 120 -206c74 0 115 83 115 210c0 116 -41 204 -116 204zM188 846h90c1 -23 15 -45 51 -45s51 21 55 45
h87c-1 -78 -46 -132 -141 -132c-99 0 -141 54 -142 132z" />
    <glyph glyph-name="obreve" unicode="&#x14f;" horiz-adv-x="548" 
d="M135 693h86c4 -34 21 -55 52 -55c38 0 54 26 55 55h85c0 -84 -50 -145 -140 -145c-89 0 -138 61 -138 145zM279 502c147 0 239 -104 239 -252c0 -188 -127 -260 -245 -260c-142 0 -243 95 -243 253c0 162 101 259 249 259zM276 378c-53 0 -70 -67 -70 -132
c0 -77 21 -132 71 -132c43 0 65 56 65 132c0 68 -19 132 -66 132z" />
    <glyph glyph-name="Ohungarumlaut" unicode="&#x150;" horiz-adv-x="660" 
d="M335 684c206 0 294 -173 294 -338c0 -228 -118 -356 -305 -356c-197 0 -294 164 -294 345c0 187 111 349 305 349zM331 544c-71 0 -119 -76 -119 -208c0 -136 48 -206 120 -206c74 0 115 83 115 210c0 116 -41 204 -116 204zM243 834h148l-95 -117h-110zM426 834h149
l-95 -117h-110z" />
    <glyph glyph-name="ohungarumlaut" unicode="&#x151;" horiz-adv-x="548" 
d="M183 701h126l-94 -151h-92zM357 701h126l-94 -151h-93zM279 502c147 0 239 -104 239 -252c0 -188 -127 -260 -245 -260c-142 0 -243 95 -243 253c0 162 101 259 249 259zM276 378c-53 0 -70 -67 -70 -132c0 -77 21 -132 71 -132c43 0 65 56 65 132c0 68 -19 132 -66 132z
" />
    <glyph glyph-name="OE" unicode="&#x152;" horiz-adv-x="868" 
d="M830 143v-143h-358c-16 0 -34 -3 -54 -5c-20 -3 -43 -5 -70 -5c-231 0 -318 168 -318 343c0 199 115 351 320 351c31 0 57 -2 78 -5c22 -2 40 -5 55 -5h334v-143h-226v-114h214v-141h-214v-133h239zM419 140v392c-14 7 -35 12 -58 12c-76 0 -149 -64 -149 -206
c-1 -127 56 -208 157 -208c17 0 37 4 50 10z" />
    <glyph glyph-name="oe" unicode="&#x153;" horiz-adv-x="817" 
d="M786 187h-282c6 -43 57 -70 116 -70c53 0 89 10 126 23l22 -115c-55 -30 -127 -35 -172 -35c-65 0 -126 17 -170 74h-2c-40 -51 -104 -74 -168 -74c-127 0 -226 95 -226 255s102 257 239 257c60 0 121 -23 154 -75h2c40 50 96 75 161 75c138 0 205 -106 205 -248
c0 -29 -4 -57 -5 -67zM276 378h-1c-55 0 -69 -70 -69 -132c0 -77 21 -132 69 -132s67 55 67 133c0 69 -19 131 -66 131zM503 300h130c0 33 -6 85 -63 85c-48 0 -67 -51 -67 -85z" />
    <glyph glyph-name="Racute" unicode="&#x154;" horiz-adv-x="581" 
d="M61 0v665c49 8 120 14 199 14c95 0 168 -13 217 -52c44 -35 64 -82 64 -147c0 -78 -54 -140 -112 -163v-4c45 -19 68 -61 84 -122c18 -68 39 -165 52 -191h-177c-10 19 -27 77 -43 156c-16 81 -39 98 -88 98h-25v-254h-171zM232 545v-164h39c63 0 97 36 97 86
s-28 81 -85 82c-27 0 -43 -1 -51 -4zM281 833h174l-121 -123h-132z" />
    <glyph glyph-name="racute" unicode="&#x155;" horiz-adv-x="376" 
d="M198 701h151l-115 -151h-115zM51 0v329c0 70 -1 119 -4 163h148l7 -83h4c26 69 81 93 120 93c16 0 24 0 35 -3v-164c-12 3 -24 4 -42 4c-43 0 -79 -18 -91 -60c-2 -9 -4 -22 -4 -37v-242h-173z" />
    <glyph glyph-name="Rcommaaccent" unicode="&#x156;" horiz-adv-x="581" 
d="M61 0v665c49 8 120 14 199 14c95 0 168 -13 217 -52c44 -35 64 -82 64 -147c0 -78 -54 -140 -112 -163v-4c45 -19 68 -61 84 -122c18 -68 39 -165 52 -191h-177c-10 19 -27 77 -43 156c-16 81 -39 98 -88 98h-25v-254h-171zM232 545v-164h39c63 0 97 36 97 86
s-28 81 -85 82c-27 0 -43 -1 -51 -4zM217 -244l-24 73c28 7 60 26 60 55c0 23 -18 46 -29 60l119 17c19 -14 39 -42 39 -79c0 -83 -71 -122 -165 -126z" />
    <glyph glyph-name="rcommaaccent" unicode="&#x157;" horiz-adv-x="376" 
d="M51 0v329c0 70 -1 119 -4 163h148l7 -83h4c26 69 81 93 120 93c16 0 24 0 35 -3v-164c-12 3 -24 4 -42 4c-43 0 -79 -18 -91 -60c-2 -9 -4 -22 -4 -37v-242h-173zM70 -244l-24 73c28 6 60 26 60 55c0 23 -18 46 -29 60l119 17c19 -14 39 -42 39 -79
c0 -83 -71 -122 -165 -126z" />
    <glyph glyph-name="Rcaron" unicode="&#x158;" horiz-adv-x="581" 
d="M61 0v665c49 8 120 14 199 14c95 0 168 -13 217 -52c44 -35 64 -82 64 -147c0 -78 -54 -140 -112 -163v-4c45 -19 68 -61 84 -122c18 -68 39 -165 52 -191h-177c-10 19 -27 77 -43 156c-16 81 -39 98 -88 98h-25v-254h-171zM232 545v-164h39c63 0 97 36 97 86
s-28 81 -85 82c-27 0 -43 -1 -51 -4zM351 710h-129l-95 123h118l40 -56h2l41 56h116z" />
    <glyph glyph-name="rcaron" unicode="&#x159;" horiz-adv-x="376" 
d="M254 550h-117l-97 151h110l44 -81h2l44 81h112zM51 0v329c0 70 -1 119 -4 163h148l7 -83h4c26 69 81 93 120 93c16 0 24 0 35 -3v-164c-12 3 -24 4 -42 4c-43 0 -79 -18 -91 -60c-2 -9 -4 -22 -4 -37v-242h-173z" />
    <glyph glyph-name="Sacute" unicode="&#x15a;" horiz-adv-x="515" 
d="M35 27l30 145c37 -19 98 -37 157 -37c61 0 90 23 90 57c0 35 -30 54 -101 83c-112 47 -170 113 -170 199c0 116 92 209 257 209c71 0 124 -14 161 -31l-33 -141c-26 12 -70 29 -129 29c-54 0 -82 -22 -82 -52c0 -33 29 -48 111 -83c113 -47 160 -114 160 -200
c0 -120 -91 -214 -272 -214c-74 0 -145 19 -179 36zM270 833h174l-121 -123h-132z" />
    <glyph glyph-name="sacute" unicode="&#x15b;" horiz-adv-x="417" 
d="M225 701h151l-115 -151h-115zM26 24l29 122c25 -16 82 -34 123 -34c35 0 51 9 51 29c0 18 -13 27 -61 46c-102 38 -132 95 -131 147c0 97 78 168 200 168c56 0 104 -12 134 -26l-27 -119c-22 11 -61 24 -97 24c-31 0 -47 -10 -47 -29c0 -16 14 -26 68 -47
c92 -35 123 -87 124 -151c0 -97 -74 -163 -213 -163c-61 0 -119 13 -153 33z" />
    <glyph glyph-name="Scircumflex" unicode="&#x15c;" horiz-adv-x="515" 
d="M35 27l30 145c37 -19 98 -37 157 -37c61 0 90 23 90 57c0 35 -30 54 -101 83c-112 47 -170 113 -170 199c0 116 92 209 257 209c71 0 124 -14 161 -31l-33 -141c-26 12 -70 29 -129 29c-54 0 -82 -22 -82 -52c0 -33 29 -48 111 -83c113 -47 160 -114 160 -200
c0 -120 -91 -214 -272 -214c-74 0 -145 19 -179 36zM197 833h129l95 -123h-118l-40 56h-2l-41 -56h-116z" />
    <glyph glyph-name="scircumflex" unicode="&#x15d;" horiz-adv-x="417" 
d="M153 701h116l97 -151h-110l-44 82h-2l-44 -82h-111zM26 24l29 122c25 -16 82 -34 123 -34c35 0 51 9 51 29c0 18 -13 27 -61 46c-102 38 -132 95 -131 147c0 97 78 168 200 168c56 0 104 -12 134 -26l-27 -119c-22 11 -61 24 -97 24c-31 0 -47 -10 -47 -29
c0 -16 14 -26 68 -47c92 -35 123 -87 124 -151c0 -97 -74 -163 -213 -163c-61 0 -119 13 -153 33z" />
    <glyph glyph-name="Scedilla" unicode="&#x15e;" horiz-adv-x="515" 
d="M35 27l30 145c37 -19 98 -37 157 -37c61 0 90 23 90 57c0 35 -30 54 -101 83c-112 47 -170 113 -170 199c0 116 92 209 257 209c71 0 124 -14 161 -31l-33 -141c-26 12 -70 29 -129 29c-54 0 -82 -22 -82 -52c0 -33 29 -48 111 -83c113 -47 160 -114 160 -200
c0 -97 -61 -179 -185 -205l-21 -41c37 -5 72 -33 72 -72c0 -68 -62 -92 -126 -92c-34 0 -64 8 -84 20l22 62c17 -9 39 -16 54 -16c16 0 32 6 32 23c0 16 -20 30 -75 34l34 73h-1c-58 0 -134 16 -173 36z" />
    <glyph glyph-name="scedilla" unicode="&#x15f;" horiz-adv-x="417" 
d="M26 24l29 122c25 -16 82 -34 123 -34c35 0 51 9 51 29c0 18 -13 27 -61 46c-102 38 -131 95 -131 147c0 97 78 168 200 168c56 0 104 -12 134 -26l-27 -119c-22 11 -61 24 -97 24c-31 0 -47 -10 -47 -29c0 -16 14 -26 68 -47c92 -35 124 -87 124 -151
c0 -78 -48 -137 -143 -156l-21 -39c38 -5 72 -33 72 -74c0 -68 -60 -90 -126 -90c-33 0 -64 8 -84 20l22 62c17 -9 39 -16 54 -16c16 0 32 6 32 23c0 16 -20 30 -75 34l34 73h-1c-22 0 -81 7 -130 33z" />
    <glyph glyph-name="Scaron" unicode="&#x160;" horiz-adv-x="515" 
d="M35 27l30 145c37 -19 98 -37 157 -37c61 0 90 23 90 57c0 35 -30 54 -101 83c-112 47 -170 113 -170 199c0 116 92 209 257 209c71 0 124 -14 161 -31l-33 -141c-26 12 -70 29 -129 29c-54 0 -82 -22 -82 -52c0 -33 29 -48 111 -83c113 -47 160 -114 160 -200
c0 -120 -91 -214 -272 -214c-74 0 -145 19 -179 36zM332 710h-129l-95 123h118l40 -56h2l41 56h116z" />
    <glyph glyph-name="scaron" unicode="&#x161;" horiz-adv-x="417" 
d="M268 550h-117l-97 151h110l44 -81h2l44 81h112zM26 24l29 122c25 -16 82 -34 123 -34c35 0 51 9 51 29c0 18 -13 27 -61 46c-102 38 -132 95 -131 147c0 97 78 168 200 168c56 0 104 -12 134 -26l-27 -119c-22 11 -61 24 -97 24c-31 0 -47 -10 -47 -29
c0 -16 14 -26 68 -47c92 -35 123 -87 124 -151c0 -97 -74 -163 -213 -163c-61 0 -119 13 -153 33z" />
    <glyph glyph-name="Tcommaaccent" unicode="&#x162;" horiz-adv-x="522" 
d="M173 0v525h-155v149h486v-149h-158v-525h-173zM178 -244l-24 73c28 7 60 26 60 55c0 23 -18 46 -29 60l119 17c19 -14 39 -42 39 -79c0 -83 -71 -122 -165 -126z" />
    <glyph glyph-name="tcommaaccent" unicode="&#x163;" horiz-adv-x="369" 
d="M74 583l170 47v-138h101v-125h-101v-157c0 -58 17 -78 55 -78c18 0 26 0 41 3v-132c-21 -7 -59 -12 -103 -12c-49 0 -91 16 -117 41c-30 29 -46 75 -46 151v184h-59v125h59v91zM119 -244l-24 73c28 6 60 26 60 55c0 23 -18 46 -29 60l119 17c19 -14 39 -42 39 -79
c0 -83 -71 -122 -165 -126z" />
    <glyph glyph-name="Tcaron" unicode="&#x164;" horiz-adv-x="522" 
d="M173 0v525h-155v149h486v-149h-158v-525h-173zM326 710h-129l-95 123h118l40 -56h2l41 56h116z" />
    <glyph glyph-name="tcaron" unicode="&#x165;" horiz-adv-x="373" 
d="M74 583l170 47v-138h101v-125h-101v-157c0 -58 17 -78 55 -78c18 0 26 0 41 3v-132c-21 -7 -59 -12 -103 -12c-49 0 -91 16 -117 41c-30 29 -46 75 -46 151v184h-59v125h59v91zM348 539l-48 57c18 12 31 43 31 69c0 22 -8 43 -15 56l108 15c15 -11 32 -37 32 -69
c0 -74 -68 -117 -108 -128z" />
    <glyph glyph-name="Tbar" unicode="&#x166;" horiz-adv-x="522" 
d="M504 525h-158v-140h101v-104h-101v-281h-173v281h-102v104h102v140h-155v149h486v-149z" />
    <glyph glyph-name="tbar" unicode="&#x167;" horiz-adv-x="369" 
d="M345 367h-101v-51h76v-92h-76v-24c0 -52 21 -68 55 -68c18 0 26 0 41 3v-132c-21 -7 -59 -12 -103 -12c-49 0 -91 16 -117 41c-30 29 -46 75 -46 151v41h-59v92h59v51h-59v125h59v91l170 47v-138h101v-125z" />
    <glyph glyph-name="Utilde" unicode="&#x168;" horiz-adv-x="643" 
d="M58 674h173v-397c0 -98 32 -146 90 -146c59 0 91 42 91 146v397h173v-381c0 -198 -92 -303 -267 -303c-177 0 -260 104 -260 306v378zM257 715h-76c-3 92 30 135 78 135c27 0 46 -9 62 -19s30 -19 41 -19c16 0 21 10 25 42h75c3 -99 -28 -133 -81 -133
c-27 0 -47 9 -63 18s-26 17 -39 17c-10 0 -20 -13 -22 -41z" />
    <glyph glyph-name="utilde" unicode="&#x169;" horiz-adv-x="561" 
d="M215 554h-78c-2 86 30 139 84 139c27 0 47 -10 65 -20c15 -9 28 -18 41 -18c15 0 21 7 23 43h76c2 -99 -32 -136 -84 -136c-27 0 -48 11 -67 20c-17 9 -24 16 -37 16s-22 -14 -23 -44zM508 492v-328c0 -64 2 -120 4 -164h-149l-8 61h-3c-20 -30 -63 -71 -140 -71
c-106 0 -162 70 -162 211v291h172v-266c0 -62 19 -96 57 -96c27 0 43 18 50 35c4 8 6 19 6 31v296h173z" />
    <glyph glyph-name="Umacron" unicode="&#x16a;" horiz-adv-x="643" 
d="M58 674h173v-397c0 -98 32 -146 90 -146c59 0 91 42 91 146v397h173v-381c0 -198 -92 -303 -267 -303c-177 0 -260 104 -260 306v378zM191 827h261v-92h-261v92z" />
    <glyph glyph-name="umacron" unicode="&#x16b;" horiz-adv-x="561" 
d="M157 673h249v-93h-249v93zM508 492v-328c0 -64 2 -120 4 -164h-149l-8 61h-3c-20 -30 -63 -71 -140 -71c-106 0 -162 70 -162 211v291h172v-266c0 -62 19 -96 57 -96c27 0 43 18 50 35c4 8 6 19 6 31v296h173z" />
    <glyph glyph-name="Ubreve" unicode="&#x16c;" horiz-adv-x="643" 
d="M58 674h173v-397c0 -98 32 -146 90 -146c59 0 91 42 91 146v397h173v-381c0 -198 -92 -303 -267 -303c-177 0 -260 104 -260 306v378zM179 837h90c1 -23 15 -45 51 -45s51 21 55 45h87c-1 -78 -46 -132 -141 -132c-99 0 -141 54 -142 132z" />
    <glyph glyph-name="ubreve" unicode="&#x16d;" horiz-adv-x="561" 
d="M142 693h86c4 -34 21 -55 52 -55c38 0 54 26 55 55h85c0 -84 -50 -145 -140 -145c-89 0 -138 61 -138 145zM508 492v-328c0 -64 2 -120 4 -164h-149l-8 61h-3c-20 -30 -63 -71 -140 -71c-106 0 -162 70 -162 211v291h172v-266c0 -62 19 -96 57 -96c27 0 43 18 50 35
c4 8 6 19 6 31v296h173z" />
    <glyph glyph-name="Uring" unicode="&#x16e;" horiz-adv-x="643" 
d="M58 674h173v-397c0 -98 32 -146 90 -146c59 0 91 42 91 146v397h173v-381c0 -198 -92 -303 -267 -303c-177 0 -260 104 -260 306v378zM322 890h1c81 0 116 -45 116 -100c0 -54 -39 -99 -117 -99c-79 0 -119 46 -119 97c0 54 39 102 119 102zM320 834h-1
c-27 0 -38 -24 -38 -45s12 -42 39 -42c28 0 41 19 41 43c0 21 -13 44 -41 44z" />
    <glyph glyph-name="uring" unicode="&#x16f;" horiz-adv-x="561" 
d="M281 540c-75 0 -117 42 -117 96c0 56 39 101 118 101c77 0 115 -42 115 -99c0 -56 -42 -98 -116 -98zM280 593c30 0 43 23 43 45s-12 46 -44 46c-28 0 -40 -25 -40 -47c0 -19 12 -44 41 -44zM508 492v-328c0 -64 2 -120 4 -164h-149l-8 61h-3c-20 -30 -63 -71 -140 -71
c-106 0 -162 70 -162 211v291h172v-266c0 -62 19 -96 57 -96c27 0 43 18 50 35c4 8 6 19 6 31v296h173z" />
    <glyph glyph-name="Uhungarumlaut" unicode="&#x170;" horiz-adv-x="643" 
d="M58 674h173v-397c0 -98 32 -146 90 -146c59 0 91 42 91 146v397h173v-381c0 -198 -92 -303 -267 -303c-177 0 -260 104 -260 306v378zM230 834h148l-95 -117h-110zM413 834h149l-95 -117h-110z" />
    <glyph glyph-name="uhungarumlaut" unicode="&#x171;" horiz-adv-x="561" 
d="M204 701h126l-94 -151h-92zM378 701h126l-94 -151h-93zM508 492v-328c0 -64 2 -120 4 -164h-149l-8 61h-3c-20 -30 -63 -71 -140 -71c-106 0 -162 70 -162 211v291h172v-266c0 -62 19 -96 57 -96c27 0 43 18 50 35c4 8 6 19 6 31v296h173z" />
    <glyph glyph-name="Uogonek" unicode="&#x172;" horiz-adv-x="643" 
d="M438 -106l23 -80c-33 -22 -73 -34 -112 -34c-72 0 -108 38 -108 92c0 52 33 95 54 119c-2 0 -4 0 -6 1c-154 9 -231 111 -231 304v378h173v-397c0 -98 32 -146 90 -146c59 0 91 42 91 146v397h173v-381c0 -162 -61 -262 -180 -292c-23 -23 -46 -54 -46 -80
c0 -23 17 -35 37 -35c14 0 29 3 42 8z" />
    <glyph glyph-name="uogonek" unicode="&#x173;" horiz-adv-x="561" 
d="M508 492v-328c0 -64 2 -120 4 -164h-55c-9 -19 -15 -40 -15 -61c0 -29 22 -53 51 -53c19 0 32 3 41 6l23 -79c-31 -23 -73 -33 -106 -33c-74 0 -116 39 -116 111c0 47 22 93 28 109l-8 61h-3c-20 -30 -63 -71 -140 -71c-106 0 -162 70 -162 211v291h172v-266
c0 -62 19 -96 57 -96c27 0 43 18 50 35c4 8 6 19 6 31v296h173z" />
    <glyph glyph-name="Wcircumflex" unicode="&#x174;" horiz-adv-x="841" 
d="M341 0h-186l-141 674h184l33 -248c11 -77 21 -163 30 -236h2c11 78 25 156 39 237l43 247h172l40 -255c12 -77 21 -147 30 -226h2c9 78 20 155 30 234l35 247h174l-151 -674h-186l-40 237c-10 59 -19 126 -28 208h-2c-12 -81 -21 -148 -34 -209zM364 833h129l95 -123
h-118l-40 56h-2l-41 -56h-116z" />
    <glyph glyph-name="wcircumflex" unicode="&#x175;" horiz-adv-x="730" 
d="M308 701h116l97 -151h-110l-44 82h-2l-44 -82h-111zM6 492h178l25 -187c7 -50 15 -103 21 -158h3c8 55 20 110 30 157l39 188h134l37 -182c11 -55 22 -108 30 -163h2c5 54 12 110 21 164l28 181h168l-141 -492h-159l-32 145c-10 45 -18 91 -26 152h-2
c-7 -61 -16 -107 -26 -151l-36 -146h-159z" />
    <glyph glyph-name="Ycircumflex" unicode="&#x176;" horiz-adv-x="562" 
d="M363 0h-173v264l-193 410h195l52 -153c16 -46 27 -84 40 -129h2c11 42 23 83 38 130l48 152h191l-200 -403v-271zM216 833h129l95 -123h-118l-40 56h-2l-41 -56h-116z" />
    <glyph glyph-name="ycircumflex" unicode="&#x177;" horiz-adv-x="505" 
d="M201 701h116l97 -151h-110l-44 82h-2l-44 -82h-111zM4 492h190l53 -228c6 -27 14 -59 19 -84h3c5 25 10 58 15 83l41 229h180l-107 -341c-57 -168 -101 -246 -153 -296c-53 -50 -113 -70 -151 -74l-40 146c20 4 41 12 62 23c22 10 42 29 53 46c5 7 9 14 9 21
c0 6 -2 14 -7 24z" />
    <glyph glyph-name="Ydieresis" unicode="&#x178;" horiz-adv-x="562" 
d="M363 0h-173v264l-193 410h195l52 -153c16 -46 27 -84 40 -129h2c11 42 23 83 38 130l48 152h191l-200 -403v-271zM184 709h-1c-41 0 -74 35 -74 75c0 43 34 75 75 75c39 0 71 -32 71 -75c0 -40 -32 -75 -71 -75zM393 709h-1c-40 0 -72 35 -72 75c0 43 32 75 73 75
s73 -32 73 -75c0 -40 -32 -75 -73 -75z" />
    <glyph glyph-name="Zacute" unicode="&#x179;" horiz-adv-x="531" 
d="M16 0v94l271 432v3h-245v145h461v-107l-261 -418v-4h264v-145h-490zM266 833h174l-121 -123h-132z" />
    <glyph glyph-name="zacute" unicode="&#x17a;" horiz-adv-x="450" 
d="M240 701h151l-115 -151h-115zM22 0v101l120 162l73 89v2h-178v138h383v-107l-113 -153c-26 -33 -52 -66 -77 -92v-2h198v-138h-406z" />
    <glyph glyph-name="Zdotaccent" unicode="&#x17b;" horiz-adv-x="531" 
d="M16 0v94l271 432v3h-245v145h461v-107l-261 -418v-4h264v-145h-490zM272 709h-1c-42 0 -76 35 -76 76c0 42 34 75 77 75c41 0 73 -33 73 -75c0 -41 -32 -76 -73 -76z" />
    <glyph glyph-name="zdotaccent" unicode="&#x17c;" horiz-adv-x="450" 
d="M228 553h-1c-42 0 -75 34 -75 77c0 45 34 77 76 77s74 -32 74 -77c0 -43 -32 -77 -74 -77zM22 0v101l120 162l73 89v2h-178v138h383v-107l-113 -153c-26 -33 -52 -66 -77 -92v-2h198v-138h-406z" />
    <glyph glyph-name="Zcaron" unicode="&#x17d;" horiz-adv-x="531" 
d="M16 0v94l271 432v3h-245v145h461v-107l-261 -418v-4h264v-145h-490zM337 710h-129l-95 123h118l40 -56h2l41 56h116z" />
    <glyph glyph-name="zcaron" unicode="&#x17e;" horiz-adv-x="450" 
d="M289 550h-117l-97 151h110l44 -81h2l44 81h112zM22 0v101l120 162l73 89v2h-178v138h383v-107l-113 -153c-26 -33 -52 -66 -77 -92v-2h198v-138h-406z" />
    <glyph glyph-name="florin" unicode="&#x192;" horiz-adv-x="534" 
d="M103 289v123h81l3 31c8 75 53 217 222 217c33 0 64 -6 82 -15l-25 -123c-11 4 -25 7 -42 7c-42 0 -64 -28 -70 -76l-5 -41h93v-123h-105l-19 -166c-13 -114 -53 -212 -201 -212c-39 0 -74 8 -90 16l23 121c13 -5 27 -7 41 -7c37 1 55 15 67 118l14 130h-69z" />
    <glyph glyph-name="Ohorn" unicode="&#x1a0;" horiz-adv-x="660" 
d="M332 130c74 0 115 83 115 210c0 116 -41 204 -116 204s-119 -88 -119 -206c-1 -125 44 -208 120 -208zM540 738l120 20c13 -27 25 -62 25 -106c0 -61 -32 -106 -98 -115c25 -48 42 -111 42 -191c0 -228 -118 -356 -305 -356c-197 0 -294 164 -294 345
c0 187 111 349 305 349c45 0 85 -9 116 -20c35 -14 64 -35 84 -35c19 0 29 11 29 34c0 26 -12 53 -24 75z" />
    <glyph glyph-name="ohorn" unicode="&#x1a1;" horiz-adv-x="558" 
d="M276 378c-53 0 -70 -67 -70 -132c0 -77 21 -132 71 -132c43 0 65 56 65 132c0 68 -19 132 -66 132zM439 568l118 18c13 -26 24 -62 24 -101c0 -60 -33 -97 -89 -109c15 -33 26 -75 26 -126c0 -188 -127 -260 -245 -260c-142 0 -243 95 -243 253c0 162 101 259 249 259
c33 0 61 -5 85 -13c24 -7 52 -25 70 -25s28 10 28 31c0 26 -10 51 -23 73z" />
    <glyph glyph-name="Uhorn" unicode="&#x1af;" horiz-adv-x="691" 
d="M563 779l119 18c14 -28 23 -63 23 -99c0 -63 -34 -104 -105 -113l-15 -2v-290c0 -198 -92 -303 -267 -303c-177 0 -260 104 -260 306v378h173v-397c0 -98 32 -146 90 -146c59 0 91 42 91 146v397h125c37 0 48 10 48 35c0 23 -8 47 -22 70z" />
    <glyph glyph-name="uhorn" unicode="&#x1b0;" horiz-adv-x="561" 
d="M460 598l119 18c14 -28 23 -62 23 -97c0 -61 -38 -96 -88 -104l-6 -1v-250c0 -64 2 -120 4 -164h-149l-8 61h-3c-20 -30 -63 -71 -140 -71c-106 0 -162 70 -162 211v291h172v-266c0 -62 19 -96 57 -96c27 0 43 18 50 35c4 8 6 19 6 31v296h101c37 0 47 15 47 37
s-9 46 -23 69z" />
    <glyph glyph-name="uni01FA" unicode="&#x1fa;" horiz-adv-x="613" 
d="M309 693c-73 0 -112 42 -112 90c0 47 38 92 113 92c77 0 110 -43 110 -92s-37 -90 -111 -90zM308 746c28 0 42 17 42 37s-14 39 -43 39c-28 0 -39 -19 -39 -39c0 -18 13 -37 40 -37zM341 986h178l-151 -95h-135zM374 149h-154l-34 -149h-176l180 674h225l178 -674h-182z
M241 278h112l-27 124c-8 38 -20 98 -29 138h-2c-9 -40 -19 -101 -28 -139z" />
    <glyph glyph-name="uni01FB" unicode="&#x1fb;" horiz-adv-x="518" 
d="M300 862h150l-140 -116h-115zM466 285v-167c0 -47 2 -90 8 -118h-155l-9 44h-3c-33 -39 -79 -54 -129 -54c-94 0 -155 70 -155 154c0 132 119 189 270 189v6c0 22 -18 44 -76 44c-50 0 -98 -16 -130 -35l-30 111c31 16 99 43 193 43c170 0 216 -102 216 -217zM298 175v52
c-65 0 -108 -20 -108 -66c0 -34 22 -50 49 -50c23 0 48 15 57 40c2 7 2 16 2 24zM260 526c-75 0 -117 42 -117 96c0 56 39 101 118 101c77 0 115 -42 115 -99c0 -56 -42 -98 -116 -98zM259 579c30 0 43 23 43 45s-12 46 -44 46c-28 0 -40 -25 -40 -47c0 -19 12 -44 41 -44z
" />
    <glyph glyph-name="AEacute" unicode="&#x1fc;" horiz-adv-x="815" 
d="M174 0h-175l255 674h506v-143h-242l12 -121h227v-141h-207l14 -126h228v-143h-377l-18 163h-171zM272 300h107l-16 150c-3 31 -7 67 -10 103h-3c-11 -41 -25 -88 -33 -116zM443 833h174l-121 -123h-132z" />
    <glyph glyph-name="aeacute" unicode="&#x1fd;" horiz-adv-x="770" 
d="M389 701h151l-115 -151h-115zM739 194h-283c4 -48 51 -77 117 -77c52 0 88 8 125 23l23 -115c-57 -29 -119 -35 -175 -35c-76 0 -146 27 -180 79h-3c-40 -48 -94 -79 -173 -79c-102 0 -167 70 -167 160c0 122 121 177 270 178v11c0 16 -20 43 -82 43
c-47 0 -94 -18 -122 -35l-31 110c35 20 99 45 173 45c71 0 124 -25 154 -70h2c38 46 93 70 158 70c129 0 198 -105 198 -248c0 -22 -3 -46 -4 -60zM297 175v49c-67 0 -109 -21 -109 -64c0 -33 24 -48 50 -48c25 0 45 15 55 35c4 7 4 17 4 28zM455 307h131c0 28 -7 82 -62 82
c-50 0 -69 -53 -69 -82z" />
    <glyph glyph-name="Oslashacute" unicode="&#x1fe;" horiz-adv-x="660" 
d="M155 -71l-90 66l51 88c-58 64 -86 157 -86 255c0 182 110 346 301 346c48 0 90 -9 127 -25l47 77l94 -57l-50 -87c57 -66 80 -160 80 -248c0 -226 -120 -354 -299 -354c-45 0 -86 9 -123 25zM214 245l169 284c-14 11 -32 17 -52 17c-76 0 -129 -71 -129 -208
c0 -31 3 -60 11 -93h1zM448 423l-166 -278c11 -12 30 -17 49 -17c76 0 127 72 127 212c0 27 -3 55 -8 83h-2zM330 836h174l-121 -123h-132z" />
    <glyph glyph-name="oslashacute" unicode="&#x1ff;" horiz-adv-x="548" 
d="M281 701h151l-115 -151h-115zM274 502h1c40 0 76 -7 109 -22l44 68l61 -40l-46 -70c48 -44 75 -110 75 -191c0 -184 -128 -257 -243 -257c-39 0 -76 7 -107 22l-46 -70l-59 43l44 68c-49 43 -77 108 -77 192c0 159 101 257 244 257zM203 191l109 172c-10 9 -22 15 -39 15
c-61 0 -80 -75 -80 -132c0 -18 2 -37 7 -53zM346 294l-107 -164c8 -11 21 -16 36 -16c52 0 79 52 79 125c0 18 -1 38 -5 55h-3z" />
    <glyph glyph-name="Scommaaccent" unicode="&#x218;" horiz-adv-x="515" 
d="M35 27l30 145c37 -19 98 -37 157 -37c61 0 90 23 90 57c0 35 -30 54 -101 83c-112 47 -170 113 -170 199c0 116 92 209 257 209c71 0 124 -14 161 -31l-33 -141c-26 12 -70 29 -129 29c-54 0 -82 -22 -82 -52c0 -33 29 -48 111 -83c113 -47 160 -114 160 -200
c0 -120 -91 -214 -272 -214c-74 0 -145 19 -179 36zM181 -244l-24 73c28 7 60 26 60 55c0 23 -18 46 -29 60l119 17c19 -14 39 -42 39 -79c0 -83 -71 -122 -165 -126z" />
    <glyph glyph-name="scommaaccent" unicode="&#x219;" horiz-adv-x="417" 
d="M26 24l29 122c25 -16 82 -34 123 -34c35 0 51 9 51 29c0 18 -13 27 -61 46c-102 38 -132 95 -131 147c0 97 78 168 200 168c56 0 104 -12 134 -26l-27 -119c-22 11 -61 24 -97 24c-31 0 -47 -10 -47 -29c0 -16 14 -26 68 -47c92 -35 123 -87 124 -151
c0 -97 -74 -163 -213 -163c-61 0 -119 13 -153 33zM131 -244l-24 73c28 6 60 26 60 55c0 23 -18 46 -29 60l119 17c19 -14 39 -42 39 -79c0 -83 -71 -122 -165 -126z" />
    <glyph glyph-name="uni021A" unicode="&#x21a;" horiz-adv-x="522" 
d="M173 0v525h-155v149h486v-149h-158v-525h-173zM178 -244l-24 73c28 7 60 26 60 55c0 23 -18 46 -29 60l119 17c19 -14 39 -42 39 -79c0 -83 -71 -122 -165 -126z" />
    <glyph glyph-name="uni021B" unicode="&#x21b;" horiz-adv-x="369" 
d="M74 583l170 47v-138h101v-125h-101v-157c0 -58 17 -78 55 -78c18 0 26 0 41 3v-132c-21 -7 -59 -12 -103 -12c-49 0 -91 16 -117 41c-30 29 -46 75 -46 151v184h-59v125h59v91zM119 -244l-24 73c28 6 60 26 60 55c0 23 -18 46 -29 60l119 17c19 -14 39 -42 39 -79
c0 -83 -71 -122 -165 -126z" />
    <glyph glyph-name="uni021C" unicode="&#x21c;" horiz-adv-x="516" 
d="M67 -130l-19 133c76 6 253 68 253 171c0 34 -25 83 -101 83c-19 0 -64 -5 -95 -16l-20 117c82 13 177 65 177 135c0 34 -33 58 -77 58c-42 0 -89 -16 -120 -30l-31 115c44 25 116 48 191 48c117 0 206 -63 206 -158c0 -75 -48 -132 -114 -162v-2c87 -15 166 -74 166 -179
c0 -183 -213 -310 -416 -313z" />
    <glyph glyph-name="uni021D" unicode="&#x21d;" horiz-adv-x="461" 
d="M47 -206l-18 133c64 0 228 23 228 128c0 24 -10 65 -85 65c-20 0 -54 -7 -80 -15l-24 117c80 17 158 44 158 97c0 32 -27 50 -71 50c-40 0 -76 -15 -105 -29l-31 114c41 28 109 48 180 48c117 0 192 -54 192 -146c0 -58 -33 -100 -99 -130v-2c87 -15 142 -69 142 -155
c0 -180 -211 -277 -387 -275z" />
    <glyph glyph-name="uni0232" unicode="&#x232;" horiz-adv-x="562" 
d="M363 0h-173v264l-193 410h195l52 -153c16 -46 27 -84 40 -129h2c11 42 23 83 38 130l48 152h191l-200 -403v-271zM151 827h261v-92h-261v92z" />
    <glyph glyph-name="uni0233" unicode="&#x233;" horiz-adv-x="505" 
d="M128 673h249v-93h-249v93zM4 492h190l53 -228c6 -27 14 -59 19 -84h3c5 25 10 58 15 83l41 229h180l-107 -341c-57 -168 -101 -246 -153 -296c-53 -50 -113 -70 -151 -74l-40 146c20 4 41 12 62 23c22 10 42 29 53 46c5 7 9 14 9 21c0 6 -2 14 -7 24z" />
    <glyph glyph-name="circumflex" unicode="&#x2c6;" 
d="M93 701h116l97 -151h-110l-44 82h-2l-44 -82h-111z" />
    <glyph glyph-name="caron" unicode="&#x2c7;" 
d="M208 550h-117l-97 151h110l44 -81h2l44 81h112z" />
    <glyph glyph-name="uni02C9" unicode="&#x2c9;" 
d="M26 673h249v-93h-249v93z" />
    <glyph glyph-name="breve" unicode="&#x2d8;" 
d="M11 693h86c4 -34 21 -55 52 -55c38 0 54 26 55 55h85c0 -84 -50 -145 -140 -145c-89 0 -138 61 -138 145z" />
    <glyph glyph-name="dotaccent" unicode="&#x2d9;" 
d="M125 553h-1c-42 0 -75 34 -75 77c0 45 34 77 76 77s74 -32 74 -77c0 -43 -32 -77 -74 -77z" />
    <glyph glyph-name="ring" unicode="&#x2da;" 
d="M134 540c-75 0 -117 42 -117 96c0 56 39 101 118 101c77 0 115 -42 115 -99c0 -56 -42 -98 -116 -98zM133 593c30 0 43 23 43 45s-12 46 -44 46c-28 0 -40 -25 -40 -47c0 -19 12 -44 41 -44z" />
    <glyph glyph-name="ogonek" unicode="&#x2db;" 
d="M69 2h92c-9 -18 -15 -42 -15 -65c0 -27 19 -51 50 -51c19 0 33 4 42 7l23 -80c-31 -23 -73 -33 -106 -33c-74 0 -116 39 -116 111c0 47 22 95 30 111z" />
    <glyph glyph-name="tilde" unicode="&#x2dc;" 
d="M84 554h-78c-2 86 30 139 84 139c27 0 47 -10 65 -20c15 -9 28 -18 41 -18c15 0 21 7 23 43h76c2 -99 -32 -136 -84 -136c-27 0 -48 11 -67 20c-17 9 -24 16 -37 16s-22 -14 -23 -44z" />
    <glyph glyph-name="hungarumlaut" unicode="&#x2dd;" 
d="M61 701h126l-94 -151h-92zM235 701h126l-94 -151h-93z" />
    <glyph glyph-name="uni037E" unicode="&#x37e;" horiz-adv-x="293" 
d="M132 -110l-110 -10c25 99 47 203 54 292l169 4c-27 -93 -67 -197 -113 -286zM154 270h-1c-59 0 -102 46 -102 108c0 61 44 107 103 107c60 0 103 -43 103 -107c0 -62 -41 -108 -103 -108z" />
    <glyph glyph-name="tonos" unicode="&#x384;" horiz-adv-x="307" 
d="M126 701h144l-75 -151h-108z" />
    <glyph glyph-name="dieresistonos" unicode="&#x385;" horiz-adv-x="471" 
d="M188 733h125l-54 -178h-88zM79 560h-1c-36 0 -67 31 -67 68c0 39 32 68 68 68s65 -28 65 -68c0 -37 -28 -68 -65 -68zM386 560h-1c-36 0 -66 31 -66 68c0 39 30 68 67 68s66 -28 66 -68c0 -37 -28 -68 -66 -68z" />
    <glyph glyph-name="Alphatonos" unicode="&#x386;" horiz-adv-x="629" 
d="M390 149h-155l-33 -149h-176l180 674h225l177 -674h-181zM257 278h112l-27 124c-8 38 -20 98 -29 138h-2c-9 -40 -19 -101 -28 -139zM0 674h133l-38 -180h-95v180z" />
    <glyph glyph-name="anoteleia" unicode="&#x387;" horiz-adv-x="293" 
d="M147 200h-1c-61 0 -108 46 -108 113s48 114 109 114c63 0 108 -45 108 -114c0 -67 -44 -113 -108 -113z" />
    <glyph glyph-name="Epsilontonos" unicode="&#x388;" horiz-adv-x="626" 
d="M563 417v-141h-213v-133h239v-143h-412v674h398v-143h-225v-114h213zM0 674h133l-38 -180h-95v180z" />
    <glyph glyph-name="Etatonos" unicode="&#x389;" horiz-adv-x="771" 
d="M177 674h172v-253h188v253h173v-674h-173v267h-188v-267h-172v674zM0 674h133l-38 -180h-95v180z" />
    <glyph glyph-name="Iotatonos" unicode="&#x38a;" horiz-adv-x="410" 
d="M177 674h173v-674h-173v674zM0 674h133l-38 -180h-95v180z" />
    <glyph glyph-name="Omicrontonos" unicode="&#x38c;" horiz-adv-x="746" 
d="M412 -10h-1c-198 0 -294 164 -294 345c0 187 111 349 304 349c207 0 295 -173 295 -338c0 -228 -119 -356 -304 -356zM417 130h1c74 0 116 83 116 210c0 116 -41 204 -117 204c-74 0 -119 -88 -118 -206c-1 -125 44 -208 118 -208zM0 674h133l-38 -180h-95v180z" />
    <glyph glyph-name="Upsilontonos" unicode="&#x38e;" horiz-adv-x="752" 
d="M162 534l28 146c48 0 126 -20 180 -78c52 -51 79 -126 86 -214h8c9 83 42 153 88 204c50 55 124 88 165 88l28 -151c-99 -27 -172 -150 -195 -262c-9 -49 -14 -92 -14 -132v-135h-173v135c0 48 -2 79 -8 126c-16 124 -69 249 -193 273zM0 674h133l-38 -180h-95v180z" />
    <glyph glyph-name="Omegatonos" unicode="&#x38f;" horiz-adv-x="779" 
d="M630 136v-4h118v-132h-290v100c50 46 99 118 99 252c0 109 -49 192 -126 192c-76 0 -130 -79 -130 -194c0 -120 48 -212 99 -250v-100h-291v132h116v4c-48 47 -104 128 -104 240c0 164 123 308 314 308c205 0 300 -158 300 -296c0 -120 -60 -205 -105 -252zM0 674h133
l-38 -180h-95v180z" />
    <glyph glyph-name="iotadieresistonos" unicode="&#x390;" horiz-adv-x="285" 
d="M225 492v-328c0 -36 16 -47 43 -45l-9 -119c-14 -7 -44 -10 -69 -10c-82 0 -138 31 -138 158v344h173zM104 723h123l-54 -173h-87zM-2 554h-1c-36 0 -67 30 -67 67c0 39 31 67 68 67c35 0 64 -28 64 -67c0 -37 -28 -67 -64 -67zM298 554h-1c-36 0 -65 30 -65 67
c0 39 30 67 66 67c37 0 66 -28 66 -67c0 -37 -29 -67 -66 -67z" />
    <glyph glyph-name="Alpha" unicode="&#x391;" horiz-adv-x="613" 
d="M374 149h-154l-34 -149h-176l180 674h225l178 -674h-182zM241 278h112l-27 124c-8 38 -20 98 -29 138h-2c-9 -40 -19 -101 -28 -139z" />
    <glyph glyph-name="Beta" unicode="&#x392;" horiz-adv-x="595" 
d="M61 3v662c41 7 121 14 198 14c86 0 146 -7 198 -38c49 -27 80 -75 80 -135c0 -56 -30 -113 -105 -143v-3c81 -22 127 -84 127 -161c0 -61 -27 -109 -67 -142c-48 -40 -128 -64 -268 -64c-72 0 -128 5 -163 10zM232 550v-140h33c66 0 100 30 100 75c0 41 -27 69 -82 69
c-25 0 -40 -2 -51 -4zM232 287v-164c12 -2 25 -2 44 -2c55 0 102 25 102 84c0 57 -48 82 -108 82h-38z" />
    <glyph glyph-name="Gamma" unicode="&#x393;" horiz-adv-x="459" 
d="M61 674h394v-145h-221v-529h-173v674z" />
    <glyph glyph-name="uni0394" unicode="&#x394;" horiz-adv-x="607" 
d="M10 0v84l189 590h212l180 -588v-86h-581zM193 144h206l-65 226c-12 47 -28 122 -36 163h-3c-8 -35 -23 -107 -36 -156z" />
    <glyph glyph-name="Epsilon" unicode="&#x395;" horiz-adv-x="510" 
d="M447 417v-141h-213v-133h239v-143h-412v674h398v-143h-225v-114h213z" />
    <glyph glyph-name="Zeta" unicode="&#x396;" horiz-adv-x="531" 
d="M16 0v94l271 432v3h-245v145h461v-107l-261 -418v-4h264v-145h-490z" />
    <glyph glyph-name="Eta" unicode="&#x397;" horiz-adv-x="655" 
d="M61 674h173v-253h187v253h173v-674h-173v267h-187v-267h-173v674z" />
    <glyph glyph-name="Theta" unicode="&#x398;" horiz-adv-x="665" 
d="M328 -10h-1c-199 0 -297 164 -297 345c0 187 113 349 307 349c208 0 297 -173 297 -338c0 -228 -120 -356 -306 -356zM333 129h1c76 0 120 83 120 211c0 117 -44 205 -121 205c-76 0 -122 -88 -122 -207c0 -126 46 -209 122 -209zM253 414h157v-145h-157v145z" />
    <glyph glyph-name="Iota" unicode="&#x399;" horiz-adv-x="294" 
d="M61 674h173v-674h-173v674z" />
    <glyph glyph-name="Kappa" unicode="&#x39a;" horiz-adv-x="596" 
d="M61 0v674h171v-289h2l39 79l113 210h207l-194 -290l200 -384h-198l-123 269l-46 -64v-205h-171z" />
    <glyph glyph-name="Lambda" unicode="&#x39b;" horiz-adv-x="604" 
d="M595 0h-187l-80 349l-34 172h-2c-9 -57 -18 -119 -28 -174l-74 -347h-180l180 674h219z" />
    <glyph glyph-name="Mu" unicode="&#x39c;" horiz-adv-x="801" 
d="M593 0l-9 232c-3 70 -5 158 -5 253h-2c-18 -84 -43 -180 -61 -244l-61 -227h-133l-53 226c-15 63 -35 158 -48 245h-2l-11 -253l-10 -232h-156l45 674h218l45 -192c18 -78 37 -163 50 -244h3c16 80 36 171 55 245l48 191h214l37 -674h-164z" />
    <glyph glyph-name="Nu" unicode="&#x39d;" horiz-adv-x="655" 
d="M217 0h-156v674h191l103 -217c31 -60 68 -149 94 -220h3c-8 79 -14 184 -14 293v144h156v-674h-176l-107 225c-33 66 -73 156 -99 228h-3c4 -81 8 -186 8 -302v-151z" />
    <glyph glyph-name="Xi" unicode="&#x39e;" horiz-adv-x="545" 
d="M53 674h443v-142h-443v142zM79 414h389v-142h-389v142zM40 143h468v-143h-468v143z" />
    <glyph glyph-name="Omicron" unicode="&#x39f;" horiz-adv-x="660" 
d="M325 -10h-1c-197 0 -294 164 -294 345c0 187 111 349 305 349c206 0 294 -173 294 -338c0 -228 -118 -356 -304 -356zM331 130h1c74 0 115 83 115 210c0 116 -41 204 -116 204s-119 -88 -119 -206c-1 -125 44 -208 119 -208z" />
    <glyph glyph-name="Pi" unicode="&#x3a0;" horiz-adv-x="638" 
d="M578 674v-674h-173v525h-171v-525h-173v674h517z" />
    <glyph glyph-name="Rho" unicode="&#x3a1;" horiz-adv-x="566" 
d="M61 0v665c46 8 112 14 200 14c93 0 161 -16 209 -54c45 -35 72 -94 72 -159c0 -71 -24 -130 -65 -168c-52 -47 -128 -67 -207 -67c-15 0 -28 1 -38 1v-232h-171zM232 542v-175c9 -2 19 -2 34 -2c68 0 105 39 105 94c0 51 -30 87 -93 87c-22 0 -37 -2 -46 -4z" />
    <glyph glyph-name="Sigma" unicode="&#x3a3;" horiz-adv-x="540" 
d="M239 148v-5h269v-143h-481v98l168 238l-161 227v111h454v-143h-239v-4l128 -183z" />
    <glyph glyph-name="Tau" unicode="&#x3a4;" horiz-adv-x="522" 
d="M173 0v525h-155v149h486v-149h-158v-525h-173z" />
    <glyph glyph-name="Upsilon" unicode="&#x3a5;" horiz-adv-x="592" 
d="M5 534l28 146c48 0 125 -20 180 -78c51 -51 79 -126 86 -214h8c9 83 41 153 88 204c49 55 123 88 165 88l28 -151c-99 -27 -173 -150 -195 -262c-10 -49 -14 -92 -14 -132v-135h-173v135c0 48 -2 79 -8 126c-17 124 -69 249 -193 273z" />
    <glyph glyph-name="Phi" unicode="&#x3a6;" horiz-adv-x="756" 
d="M456 27v-55h-158v55c-145 22 -270 122 -270 309c0 196 147 293 271 314v52h158v-52c140 -21 270 -121 270 -307c0 -184 -124 -291 -271 -316zM299 151v377c-46 -15 -99 -74 -99 -193c0 -108 55 -172 99 -184zM456 528v-377c43 12 98 65 98 186c0 124 -53 179 -98 191z
" />
    <glyph glyph-name="Chi" unicode="&#x3a7;" horiz-adv-x="566" 
d="M561 0h-194l-45 110c-18 42 -32 77 -47 117h-2c-11 -40 -24 -77 -39 -118l-39 -109h-189l169 342l-163 332h193l41 -108c16 -39 27 -73 40 -111h3l34 111l38 108h189l-165 -332z" />
    <glyph glyph-name="Psi" unicode="&#x3a8;" horiz-adv-x="717" 
d="M682 674v-184c0 -215 -111 -299 -245 -311v-179h-156v179c-135 12 -245 83 -245 269v226h163v-207c0 -119 33 -152 83 -157v364h154v-365c49 5 83 48 83 199v166h163z" />
    <glyph glyph-name="uni03A9" unicode="&#x3a9;" horiz-adv-x="700" 
d="M552 136v-4h117v-132h-289v100c49 46 99 126 99 252c0 109 -50 192 -127 192c-75 0 -130 -79 -130 -194c0 -111 49 -212 100 -250v-100h-292v132h116v4c-47 47 -103 128 -103 240c0 164 122 308 313 308c205 0 301 -158 301 -296c0 -120 -61 -205 -105 -252z" />
    <glyph glyph-name="Iotadieresis" unicode="&#x3aa;" horiz-adv-x="294" 
d="M46 713h-1c-41 0 -73 33 -73 74c0 43 32 75 74 75c40 0 70 -31 70 -75c0 -41 -30 -74 -70 -74zM250 713h-1c-41 0 -72 33 -72 74c0 43 31 75 73 75c41 0 72 -31 72 -75c0 -41 -31 -74 -72 -74zM61 674h173v-674h-173v674z" />
    <glyph glyph-name="Upsilondieresis" unicode="&#x3ab;" horiz-adv-x="592" 
d="M200 696h-1c-41 0 -73 32 -73 74c0 43 32 74 74 74c40 0 70 -30 70 -74c0 -42 -30 -74 -70 -74zM404 696h-1c-41 0 -72 32 -72 74c0 43 31 74 73 74c41 0 72 -30 72 -74c0 -42 -31 -74 -72 -74zM5 534l28 146c48 0 125 -20 180 -78c51 -51 79 -126 86 -214h8
c9 83 41 153 88 204c49 55 123 88 165 88l28 -151c-99 -27 -173 -150 -195 -262c-10 -49 -14 -92 -14 -132v-135h-173v135c0 48 -2 79 -8 126c-17 124 -69 249 -193 273z" />
    <glyph glyph-name="alphatonos" unicode="&#x3ac;" horiz-adv-x="559" 
d="M269 701h143l-75 -151h-107zM374 492h141c-7 -74 -14 -220 -14 -316c0 -50 18 -60 43 -58l-11 -119c-10 -5 -35 -9 -55 -9c-60 0 -95 28 -111 80h-2c-30 -54 -83 -80 -141 -80c-113 0 -194 103 -194 243c0 170 107 269 211 269c49 0 92 -21 116 -65h4c3 17 9 38 13 55z
M204 245v-1c0 -72 30 -118 66 -118c30 0 54 30 60 70c2 18 4 31 4 51s-1 33 -2 46c-7 49 -30 76 -59 76c-44 0 -69 -60 -69 -124z" />
    <glyph glyph-name="epsilontonos" unicode="&#x3ad;" horiz-adv-x="453" 
d="M227 701h143l-75 -151h-107zM130 257v5c-47 16 -79 53 -79 102c0 69 64 138 214 138c66 0 115 -12 154 -34l-28 -110c-26 13 -63 23 -101 23c-44 0 -69 -15 -69 -37c0 -25 39 -34 102 -34h35v-112h-35c-61 -1 -109 -7 -109 -38c0 -29 39 -42 78 -42c42 0 91 13 120 27
l20 -114c-54 -32 -127 -41 -186 -41c-107 0 -216 40 -216 152c0 60 50 103 100 115z" />
    <glyph glyph-name="etatonos" unicode="&#x3ae;" horiz-adv-x="563" 
d="M265 701h144l-75 -151h-107zM204 431h3c21 30 67 71 140 71c111 0 165 -80 165 -206v-319c0 -65 2 -138 10 -173h-163c-15 23 -20 98 -20 177v298c0 50 -16 83 -56 83c-29 0 -44 -20 -53 -39c-4 -9 -6 -24 -6 -40v-283h-173v328c0 67 -4 128 -16 164h152
c8 -15 16 -38 17 -61z" />
    <glyph glyph-name="iotatonos" unicode="&#x3af;" horiz-adv-x="285" 
d="M121 704h148l-75 -152h-112zM224 492v-328c0 -36 16 -47 44 -45l-9 -119c-14 -7 -45 -10 -70 -10c-82 0 -138 31 -138 158v344h173z" />
    <glyph glyph-name="upsilondieresistonos" unicode="&#x3b0;" horiz-adv-x="538" 
d="M311 492h160c16 -36 34 -100 34 -181c0 -160 -59 -321 -247 -321c-121 0 -213 69 -213 209v139c0 62 -2 119 -11 154h169c11 -14 14 -44 14 -99v-188c0 -45 22 -75 55 -75c51 0 64 84 64 165c0 84 -15 168 -25 197zM221 721h123l-54 -174h-86zM113 551h-1
c-36 0 -67 30 -67 68c0 39 31 68 68 68c35 0 64 -29 64 -68c0 -38 -28 -68 -64 -68zM417 551h-1c-36 0 -66 30 -66 68c0 39 30 68 67 68c36 0 65 -29 65 -68c0 -38 -28 -68 -65 -68z" />
    <glyph glyph-name="alpha" unicode="&#x3b1;" horiz-adv-x="558" 
d="M374 492h141c-7 -74 -14 -220 -14 -316c0 -50 18 -60 43 -58l-11 -119c-10 -5 -35 -9 -55 -9c-60 0 -95 28 -111 80h-2c-30 -54 -83 -80 -141 -80c-113 0 -194 103 -194 243c0 170 107 269 211 269c49 0 92 -21 116 -65h4c3 17 9 38 13 55zM204 245v-1
c0 -72 30 -118 66 -118c30 0 54 30 60 70c2 18 4 31 4 51s-1 33 -2 46c-7 49 -30 76 -59 76c-44 0 -69 -60 -69 -124z" />
    <glyph glyph-name="beta" unicode="&#x3b2;" horiz-adv-x="562" 
d="M218 26h-2v-47c0 -67 4 -137 14 -175h-161c-14 27 -21 98 -21 177v424c0 147 30 207 76 250c36 35 87 60 162 60c132 0 199 -85 199 -187c0 -53 -24 -117 -74 -145v-5c64 -18 121 -90 121 -179c0 -121 -81 -209 -200 -209c-41 0 -83 8 -114 36zM216 441v-285
c19 -24 43 -35 70 -35c51 0 73 41 73 89c0 54 -38 88 -79 94c-6 1 -13 1 -19 1v108c5 0 9 1 15 3c34 10 55 45 55 89c0 42 -19 75 -53 75c-36 0 -62 -32 -62 -139z" />
    <glyph glyph-name="gamma" unicode="&#x3b3;" horiz-adv-x="504" 
d="M323 -196h-168c2 116 1 196 -18 291c-33 163 -105 310 -152 397h189c29 -53 73 -184 94 -322h4c26 72 51 174 50 271c0 25 0 38 -1 51h162c2 -11 2 -27 2 -41c0 -119 -59 -278 -159 -433c-5 -7 -7 -13 -7 -22c1 -45 2 -126 4 -192z" />
    <glyph glyph-name="delta" unicode="&#x3b4;" horiz-adv-x="550" 
d="M482 669l-40 -107c-18 10 -66 30 -111 30c-29 0 -40 -7 -40 -19c0 -11 17 -26 47 -52l74 -66c65 -57 108 -128 108 -213c0 -163 -118 -252 -249 -252c-141 0 -241 100 -241 241c0 119 79 192 146 225v4l-16 18c-16 17 -48 53 -48 101c0 68 71 136 197 136
c84 0 146 -26 173 -46zM301 339l-36 34c-35 -26 -59 -71 -59 -141c0 -63 29 -118 74 -118c43 0 68 52 68 112c0 39 -16 83 -47 113z" />
    <glyph glyph-name="epsilon" unicode="&#x3b5;" horiz-adv-x="453" 
d="M130 257v5c-47 16 -79 53 -79 102c0 69 64 138 214 138c66 0 115 -11 154 -34l-28 -110c-26 13 -63 23 -101 23c-44 0 -69 -15 -69 -37c0 -25 39 -34 102 -34h35v-112h-35c-61 -1 -109 -7 -109 -38c0 -29 39 -42 78 -42c42 0 91 13 120 27l20 -114
c-54 -32 -127 -41 -186 -41c-107 0 -216 40 -216 152c0 60 50 103 100 115z" />
    <glyph glyph-name="zeta" unicode="&#x3b6;" horiz-adv-x="428" 
d="M347 -152l-106 34c10 24 21 67 23 91c-30 7 -69 16 -104 32c-65 31 -129 92 -129 211c0 126 71 256 178 357v5h-33c-43 0 -82 4 -107 14l15 111c32 -3 84 -3 144 -4h176l23 -113c-110 -50 -220 -202 -220 -335c0 -67 25 -108 70 -131c38 -20 89 -29 135 -37
c6 -1 10 -7 10 -13c0 -81 -38 -177 -75 -222z" />
    <glyph glyph-name="eta" unicode="&#x3b7;" horiz-adv-x="563" 
d="M204 431h3c21 30 67 71 140 71c111 0 165 -80 165 -206v-319c0 -65 2 -138 10 -173h-163c-15 23 -20 98 -20 177v298c0 50 -16 83 -56 83c-29 0 -44 -20 -53 -39c-4 -9 -6 -24 -6 -40v-283h-173v328c0 67 -4 128 -16 164h152c8 -15 16 -38 17 -61z" />
    <glyph glyph-name="theta" unicode="&#x3b8;" horiz-adv-x="545" 
d="M273 -10h-1c-151 0 -242 120 -242 367c0 223 95 358 249 358c158 0 237 -136 237 -358c0 -242 -88 -367 -243 -367zM199 420h147c0 112 -28 175 -72 175c-47 0 -75 -64 -75 -175zM348 295h-149c0 -119 27 -185 76 -185s73 65 73 185z" />
    <glyph glyph-name="iota" unicode="&#x3b9;" horiz-adv-x="285" 
d="M224 492v-328c0 -36 16 -47 44 -45l-9 -119c-14 -7 -45 -10 -70 -10c-82 0 -138 31 -138 158v344h173z" />
    <glyph glyph-name="kappa" unicode="&#x3ba;" horiz-adv-x="536" 
d="M365 269v-4c45 -15 72 -75 102 -139l62 -126h-195l-39 97c-25 60 -40 95 -65 97h-6v-194h-173v361c0 51 -4 111 -12 131h170c8 -10 15 -40 15 -88v-113h3c33 54 81 148 109 201h191v-6z" />
    <glyph glyph-name="lambda" unicode="&#x3bb;" horiz-adv-x="500" 
d="M319 0l-50 195l-23 100h-5c-5 -35 -11 -67 -18 -98l-43 -197h-178l157 452c4 11 4 17 4 23c0 7 -3 17 -6 26c-17 43 -56 66 -86 66h-21l15 134c10 3 34 5 51 5c120 0 176 -106 216 -224l168 -482h-181z" />
    <glyph glyph-name="uni03BC" unicode="&#x3bc;" horiz-adv-x="562" 
d="M364 60h-4c-13 -33 -49 -64 -99 -64c-19 0 -38 6 -52 18v-32c0 -59 4 -143 11 -178h-154c-9 23 -15 103 -15 187v501h173v-279c0 -60 20 -86 53 -86c26 0 47 20 54 37c4 7 6 20 6 32v296h173v-325c0 -39 12 -48 38 -49l-11 -118c-12 -7 -34 -10 -59 -10
c-62 0 -96 27 -114 70z" />
    <glyph glyph-name="nu" unicode="&#x3bd;" horiz-adv-x="494" 
d="M-3 492h183l46 -205c10 -42 17 -81 25 -125h5c32 83 57 194 57 294v36h160c2 -13 2 -25 2 -39c0 -135 -76 -305 -161 -453h-164z" />
    <glyph glyph-name="xi" unicode="&#x3be;" horiz-adv-x="458" 
d="M388 432v-118h-24c-97 0 -153 -35 -153 -103c0 -48 33 -81 109 -102c36 -10 67 -17 119 -26c9 -2 14 -6 14 -14c0 -73 -41 -176 -76 -220l-108 33c11 25 20 67 22 92c-108 19 -261 59 -261 219c0 97 62 168 144 192v6c-63 25 -99 78 -99 142c0 99 81 182 232 182
c59 0 98 -10 132 -25l-24 -114c-24 10 -53 16 -79 16c-59 0 -89 -37 -89 -77c0 -55 50 -76 117 -82c7 -1 15 -1 24 -1z" />
    <glyph glyph-name="omicron" unicode="&#x3bf;" horiz-adv-x="548" 
d="M274 -10h-1c-142 0 -243 95 -243 253c0 162 101 259 249 259c147 0 239 -104 239 -252c0 -188 -127 -260 -244 -260zM276 114h1c43 0 65 56 65 132c0 68 -19 132 -66 132c-53 0 -70 -67 -70 -132c0 -77 21 -132 70 -132z" />
    <glyph glyph-name="pi" unicode="&#x3c0;" horiz-adv-x="584" 
d="M558 360h-54v-216c0 -57 5 -112 11 -144h-164c-14 21 -18 84 -18 137v223h-74c-1 -98 -18 -270 -49 -360h-165c28 107 49 269 46 360c-24 0 -53 -1 -75 -5l-18 101c22 22 86 36 186 36h387z" />
    <glyph glyph-name="rho" unicode="&#x3c1;" horiz-adv-x="562" 
d="M222 28h-2v-51c0 -65 3 -138 8 -173h-166c-8 23 -14 98 -14 177v221c0 146 47 212 98 251c45 34 93 49 151 49c149 0 235 -111 235 -256c0 -173 -109 -256 -211 -256c-45 0 -80 16 -99 38zM220 236v-46c0 -12 2 -21 5 -30c7 -16 28 -36 58 -36c49 0 75 52 75 120
c0 75 -28 115 -68 115c-43 0 -70 -42 -70 -123z" />
    <glyph glyph-name="uni03C2" unicode="&#x3c2;" horiz-adv-x="445" 
d="M430 480l-30 -125c-21 8 -49 14 -75 14c-69 0 -119 -53 -119 -134c0 -60 31 -99 87 -118c40 -13 80 -22 128 -32c5 -1 7 -6 7 -12c0 -85 -39 -187 -73 -226l-108 34c11 25 20 67 23 92c-19 5 -42 10 -69 20c-88 29 -171 96 -171 233c0 141 101 276 286 276
c47 0 87 -9 114 -22z" />
    <glyph glyph-name="sigma" unicode="&#x3c3;" horiz-adv-x="567" 
d="M457 386l-1 -5c37 -34 55 -94 55 -138c0 -184 -120 -253 -238 -253c-143 0 -243 93 -243 251c0 162 101 261 258 261h79h85h106l-6 -124c-23 0 -55 2 -95 8zM276 114h1c43 0 65 56 65 132c0 68 -18 132 -64 132c-55 0 -72 -67 -72 -132c0 -77 21 -132 70 -132z" />
    <glyph glyph-name="tau" unicode="&#x3c4;" horiz-adv-x="443" 
d="M362 122l-6 -121c-14 -7 -41 -11 -74 -11c-118 0 -154 64 -154 178v192h-34c-39 0 -62 -2 -82 -5l-21 103c19 14 59 34 175 34h267l-15 -132h-118v-177c0 -44 17 -61 45 -61h17z" />
    <glyph glyph-name="upsilon" unicode="&#x3c5;" horiz-adv-x="538" 
d="M311 492h160c16 -36 34 -100 34 -181c0 -160 -59 -321 -247 -321c-121 0 -213 69 -213 209v139c0 62 -2 119 -11 154h169c11 -14 14 -44 14 -99v-188c0 -45 22 -75 55 -75c51 0 64 84 64 165c0 84 -15 168 -25 197z" />
    <glyph glyph-name="phi" unicode="&#x3c6;" horiz-adv-x="703" 
d="M197 502l71 -87c-36 -31 -68 -85 -68 -160c0 -77 33 -131 79 -148v210c0 137 86 187 169 185c118 -3 225 -98 225 -246c0 -166 -131 -254 -242 -266v-186h-152v186c-118 12 -249 86 -249 259c0 148 108 235 167 253zM430 357v-252c44 12 79 63 79 148
c0 80 -33 131 -60 131c-12 0 -19 -11 -19 -27z" />
    <glyph glyph-name="chi" unicode="&#x3c7;" horiz-adv-x="492" 
d="M0 492h181l79 -206h4c8 26 14 50 25 81l43 125h162l-155 -336l152 -347l-163 -36l-93 235h-5c-7 -21 -15 -52 -31 -92l-55 -143l-147 36l159 348z" />
    <glyph glyph-name="psi" unicode="&#x3c8;" horiz-adv-x="714" 
d="M284 -196v186c-119 11 -237 67 -237 263v107c0 52 -1 96 -6 132h154c11 -14 14 -50 14 -99v-129c0 -114 34 -149 76 -155v503h152v-503c61 2 84 91 84 186c0 93 -17 171 -27 197h149c19 -40 38 -100 38 -185c0 -155 -58 -303 -243 -317v-186h-154z" />
    <glyph glyph-name="omega" unicode="&#x3c9;" horiz-adv-x="713" 
d="M435 375l-3 -178c0 -35 10 -63 32 -63c30 0 52 46 52 135c0 79 -19 165 -63 220v3h154c35 -36 76 -123 76 -230c0 -169 -85 -272 -201 -272c-56 0 -105 29 -126 72h-4c-24 -40 -68 -72 -127 -72c-103 0 -195 90 -195 259c0 116 41 199 79 243h153v-3
c-41 -56 -66 -141 -66 -229c0 -85 23 -126 49 -126c23 0 33 29 32 64l-3 177h161z" />
    <glyph glyph-name="iotadieresis" unicode="&#x3ca;" horiz-adv-x="285" 
d="M40 547h-1c-42 0 -74 33 -74 76c0 44 33 75 75 75c41 0 72 -31 72 -75c0 -43 -30 -76 -72 -76zM244 547h-1c-42 0 -73 33 -73 76c0 44 32 75 74 75s73 -31 73 -75c0 -43 -30 -76 -73 -76zM225 492v-328c0 -36 16 -47 43 -45l-9 -119c-14 -7 -44 -10 -69 -10
c-82 0 -138 31 -138 158v344h173z" />
    <glyph glyph-name="upsilondieresis" unicode="&#x3cb;" horiz-adv-x="538" 
d="M160 547h-1c-41 0 -74 33 -74 76c0 44 33 75 75 75c41 0 73 -31 73 -75c0 -43 -31 -76 -73 -76zM364 547h-1c-41 0 -73 33 -73 76c0 44 32 75 74 75c43 0 74 -31 74 -75c0 -43 -31 -76 -74 -76zM311 492h160c16 -36 34 -100 34 -181c0 -160 -59 -321 -247 -321
c-121 0 -213 69 -213 209v139c0 62 -2 119 -11 154h169c11 -14 14 -44 14 -99v-188c0 -45 22 -75 55 -75c51 0 64 84 64 165c0 84 -15 168 -25 197z" />
    <glyph glyph-name="omicrontonos" unicode="&#x3cc;" horiz-adv-x="548" 
d="M261 701h143l-75 -151h-107zM274 -10h-1c-142 0 -243 95 -243 253c0 162 101 259 249 259c147 0 239 -104 239 -252c0 -188 -127 -260 -244 -260zM276 114h1c43 0 65 56 65 132c0 68 -19 132 -66 132c-53 0 -70 -67 -70 -132c0 -77 21 -132 70 -132z" />
    <glyph glyph-name="upsilontonos" unicode="&#x3cd;" horiz-adv-x="538" 
d="M248 704h148l-75 -152h-112zM311 492h160c16 -36 34 -100 34 -181c0 -160 -59 -321 -247 -321c-121 0 -213 69 -213 209v139c0 62 -2 119 -11 154h169c11 -14 14 -44 14 -99v-188c0 -45 22 -75 55 -75c51 0 64 84 64 165c0 84 -15 168 -25 197z" />
    <glyph glyph-name="omegatonos" unicode="&#x3ce;" horiz-adv-x="713" 
d="M342 701h143l-75 -151h-107zM436 375l-4 -178c0 -35 10 -63 32 -63c31 0 52 46 52 135c0 79 -19 165 -63 220v3h155c35 -36 76 -123 76 -230c0 -169 -86 -272 -202 -272c-55 0 -104 29 -125 72h-4c-25 -40 -69 -72 -127 -72c-103 0 -196 90 -196 259c0 116 42 199 80 243
h153v-3c-41 -56 -67 -141 -67 -229c0 -85 24 -126 49 -126c24 0 33 29 32 64l-2 177h161z" />
    <glyph glyph-name="afii10023" unicode="&#x401;" horiz-adv-x="510" 
d="M447 417v-141h-213v-133h239v-143h-412v674h398v-143h-225v-114h213zM156 709h-1c-41 0 -74 35 -74 75c0 43 34 75 75 75c39 0 71 -32 71 -75c0 -40 -32 -75 -71 -75zM365 709h-1c-40 0 -72 35 -72 75c0 43 32 75 73 75s73 -32 73 -75c0 -40 -32 -75 -73 -75z" />
    <glyph glyph-name="afii10051" unicode="&#x402;" horiz-adv-x="691" 
d="M18 674h537v-147h-211v-99h3c23 12 61 21 99 21c78 0 130 -38 163 -88c35 -51 52 -113 52 -194c0 -115 -44 -209 -131 -260c-43 -36 -90 -55 -128 -60l-28 146c26 6 51 16 71 37s35 64 35 130c0 57 -10 93 -25 115c-17 22 -38 33 -64 33c-20 0 -37 -7 -47 -13v-295h-173
v527h-153v147z" />
    <glyph glyph-name="afii10052" unicode="&#x403;" horiz-adv-x="479" 
d="M61 674h399v-143h-226v-531h-173v674zM257 833h174l-121 -123h-132z" />
    <glyph glyph-name="afii10053" unicode="&#x404;" horiz-adv-x="545" 
d="M523 651l-31 -136c-25 12 -67 26 -117 26c-101 0 -149 -66 -161 -135h254v-138h-252c11 -80 69 -133 168 -133c32 0 82 9 110 21l24 -134c-26 -14 -85 -32 -158 -32c-207 0 -330 128 -330 342c0 174 100 352 335 352c80 0 132 -20 158 -33z" />
    <glyph glyph-name="afii10054" unicode="&#x405;" horiz-adv-x="515" 
d="M35 27l30 145c37 -19 98 -37 157 -37c61 0 90 23 90 57c0 35 -30 54 -101 83c-112 47 -170 113 -170 199c0 116 92 209 257 209c71 0 124 -14 161 -31l-33 -141c-26 12 -70 29 -129 29c-54 0 -82 -22 -82 -52c0 -33 29 -48 111 -83c113 -47 160 -114 160 -200
c0 -120 -91 -214 -272 -214c-74 0 -145 19 -179 36z" />
    <glyph glyph-name="afii10055" unicode="&#x406;" horiz-adv-x="294" 
d="M61 674h173v-674h-173v674z" />
    <glyph glyph-name="afii10056" unicode="&#x407;" horiz-adv-x="294" 
d="M61 674h173v-674h-173v674zM43 709h-1c-41 0 -74 35 -74 75c0 43 34 75 75 75c39 0 71 -32 71 -75c0 -40 -32 -75 -71 -75zM252 709h-1c-40 0 -72 35 -72 75c0 43 32 75 73 75s73 -32 73 -75c0 -40 -32 -75 -73 -75z" />
    <glyph glyph-name="afii10057" unicode="&#x408;" horiz-adv-x="393" 
d="M166 246v428h173v-425c0 -202 -98 -259 -240 -259c-35 0 -78 5 -106 15l18 140c19 -5 43 -10 69 -10c50 0 86 22 86 111z" />
    <glyph glyph-name="afii10058" unicode="&#x409;" horiz-adv-x="904" 
d="M112 674h441v-237c19 3 45 5 71 5c135 0 251 -75 251 -216c0 -67 -26 -121 -66 -157c-63 -56 -160 -76 -266 -76c-72 0 -126 5 -162 10v528h-103v-146c0 -173 -24 -301 -124 -363c-35 -21 -81 -34 -133 -34l-26 141c30 5 55 19 70 36c36 39 47 106 47 210v299zM553 309
v-182c14 -3 26 -3 38 -3c58 0 104 38 104 97c0 60 -43 91 -101 91c-17 0 -28 -1 -41 -3z" />
    <glyph glyph-name="afii10059" unicode="&#x40a;" horiz-adv-x="911" 
d="M61 674h173v-246h154v246h171v-237c21 3 46 5 71 5c139 0 251 -75 251 -215c0 -68 -26 -122 -66 -158c-62 -56 -160 -76 -266 -76c-72 0 -126 5 -161 10v278h-154v-281h-173v674zM559 309v-182c14 -2 27 -3 40 -3c60 0 103 38 103 96c0 62 -43 92 -101 92
c-17 0 -29 -1 -42 -3z" />
    <glyph glyph-name="afii10060" unicode="&#x40b;" horiz-adv-x="703" 
d="M18 674h524v-147h-200v-111h3c31 21 81 37 130 37c58 0 103 -20 130 -56c30 -38 43 -93 43 -159v-238h-171v223c0 29 -5 55 -20 71c-11 12 -27 19 -50 19c-26 0 -48 -9 -65 -23v-290h-173v527h-151v147z" />
    <glyph glyph-name="afii10061" unicode="&#x40c;" horiz-adv-x="587" 
d="M61 674h170v-277h8l144 277h205l-203 -299c72 -26 105 -84 128 -162c21 -72 41 -145 69 -213h-182c-20 47 -31 96 -44 146c-19 72 -42 126 -102 126h-23v-272h-170v674zM293 828h174l-121 -123h-132z" />
    <glyph glyph-name="afii10062" unicode="&#x40e;" horiz-adv-x="554" 
d="M-3 675h192l74 -231c16 -46 27 -87 38 -124h4c6 27 14 73 28 126l52 229h180l-116 -345c-38 -104 -74 -200 -119 -256c-41 -54 -97 -90 -176 -90c-36 0 -58 5 -78 12l10 139c12 -3 28 -5 52 -5c33 0 60 16 69 40c4 11 2 21 -3 31zM132 834h111c1 -41 12 -60 38 -60
c24 0 37 19 40 60h111c-8 -94 -67 -128 -153 -128c-84 0 -140 35 -147 128z" />
    <glyph glyph-name="afii10145" unicode="&#x40f;" horiz-adv-x="644" 
d="M61 674h173v-531h177v531h173v-674h-183l-8 -179h-142l-7 179h-183v674z" />
    <glyph glyph-name="afii10017" unicode="&#x410;" horiz-adv-x="613" 
d="M374 149h-154l-34 -149h-176l180 674h225l178 -674h-182zM241 278h112l-27 124c-8 38 -20 98 -29 138h-2c-9 -40 -19 -101 -28 -139z" />
    <glyph glyph-name="afii10018" unicode="&#x411;" horiz-adv-x="590" 
d="M61 674h445v-142h-274v-96c23 4 48 6 73 6c67 0 135 -19 182 -56c44 -35 73 -89 73 -160c0 -67 -25 -120 -65 -156c-63 -56 -166 -77 -272 -77c-72 0 -127 5 -162 10v671zM232 309v-182c13 -2 29 -3 44 -3c29 0 55 10 74 27c18 17 29 41 29 69c0 26 -10 48 -26 64
c-21 19 -52 28 -80 28c-14 0 -27 -1 -41 -3z" />
    <glyph glyph-name="afii10019" unicode="&#x412;" horiz-adv-x="595" 
d="M61 3v662c41 7 121 14 198 14c86 0 146 -7 198 -38c49 -27 80 -75 80 -135c0 -56 -30 -113 -105 -143v-3c81 -22 127 -84 127 -161c0 -61 -27 -109 -67 -142c-48 -40 -128 -64 -268 -64c-72 0 -128 5 -163 10zM232 550v-140h33c66 0 100 30 100 75c0 41 -27 69 -82 69
c-25 0 -40 -2 -51 -4zM232 287v-164c12 -2 25 -2 44 -2c55 0 102 25 102 84c0 57 -48 82 -108 82h-38z" />
    <glyph glyph-name="afii10020" unicode="&#x413;" horiz-adv-x="479" 
d="M61 674h399v-143h-226v-531h-173v674z" />
    <glyph glyph-name="afii10021" unicode="&#x414;" horiz-adv-x="669" 
d="M148 674h442v-535l66 -5l-7 -301h-130l-8 167h-354l-8 -167h-130l-6 301l55 5c26 47 44 96 57 149c16 66 23 135 23 204v182zM307 531v-72c0 -66 -8 -137 -24 -202c-10 -40 -23 -82 -38 -114h172v388h-110z" />
    <glyph glyph-name="afii10022" unicode="&#x415;" horiz-adv-x="510" 
d="M447 417v-141h-213v-133h239v-143h-412v674h398v-143h-225v-114h213z" />
    <glyph glyph-name="afii10024" unicode="&#x416;" horiz-adv-x="858" 
d="M0 674h200l140 -275h7v275h163v-275h8l139 275h200l-213 -299c87 -13 128 -89 152 -172c20 -68 36 -139 63 -203h-172c-18 44 -30 94 -43 141c-16 63 -44 131 -115 131h-19v-272h-163v272h-18c-71 0 -99 -68 -116 -131c-12 -47 -23 -97 -42 -141h-172
c27 64 45 135 64 200c24 82 63 156 151 175z" />
    <glyph glyph-name="afii10025" unicode="&#x417;" horiz-adv-x="519" 
d="M67 509l-35 126c42 23 112 49 203 49c153 0 234 -80 234 -174c0 -79 -52 -136 -126 -154v-2c78 -13 147 -70 147 -160c0 -148 -151 -204 -277 -204c-69 0 -141 14 -191 43l31 134c29 -14 93 -36 148 -36c67 0 108 27 108 74c0 65 -67 78 -124 78h-58v128h56
c59 0 106 20 106 69c0 36 -29 63 -88 63c-45 0 -98 -18 -134 -34z" />
    <glyph glyph-name="afii10026" unicode="&#x418;" horiz-adv-x="653" 
d="M61 674h156v-147c0 -114 -5 -233 -10 -313h3c31 74 74 167 103 229l107 231h172v-674h-156v148c0 111 3 210 11 290h-3c-25 -73 -63 -164 -96 -228l-99 -210h-188v674z" />
    <glyph glyph-name="afii10027" unicode="&#x419;" horiz-adv-x="653" 
d="M61 674h156v-147c0 -114 -5 -233 -10 -313h3c31 74 74 167 103 229l107 231h172v-674h-156v148c0 111 3 210 11 290h-3c-25 -73 -63 -164 -96 -228l-99 -210h-188v674zM176 830h111c1 -41 12 -60 38 -60c24 0 37 19 40 60h111c-8 -94 -67 -128 -153 -128
c-84 0 -140 35 -147 128z" />
    <glyph glyph-name="afii10028" unicode="&#x41a;" horiz-adv-x="587" 
d="M61 674h170v-277h8l144 277h205l-203 -299c72 -26 105 -84 128 -162c21 -72 41 -145 69 -213h-182c-20 47 -31 96 -44 146c-19 72 -42 126 -102 126h-23v-272h-170v674z" />
    <glyph glyph-name="afii10029" unicode="&#x41b;" horiz-adv-x="622" 
d="M113 674h449v-674h-173v531h-111v-146c0 -173 -23 -300 -123 -362c-35 -22 -80 -35 -134 -35l-26 141c30 5 54 17 70 33c37 40 48 107 48 212v300z" />
    <glyph glyph-name="afii10030" unicode="&#x41c;" horiz-adv-x="801" 
d="M593 0l-9 232c-3 70 -5 158 -5 253h-2c-18 -84 -43 -180 -61 -244l-61 -227h-133l-53 226c-15 63 -35 158 -48 245h-2l-11 -253l-10 -232h-156l45 674h218l45 -192c18 -78 37 -163 50 -244h3c16 80 36 171 55 245l48 191h214l37 -674h-164z" />
    <glyph glyph-name="afii10031" unicode="&#x41d;" horiz-adv-x="655" 
d="M61 674h173v-253h187v253h173v-674h-173v267h-187v-267h-173v674z" />
    <glyph glyph-name="afii10032" unicode="&#x41e;" horiz-adv-x="660" 
d="M335 684c206 0 294 -173 294 -338c0 -228 -118 -356 -305 -356c-197 0 -294 164 -294 345c0 187 111 349 305 349zM331 544c-71 0 -119 -76 -119 -208c0 -136 48 -206 120 -206c74 0 115 83 115 210c0 116 -41 204 -116 204z" />
    <glyph glyph-name="afii10033" unicode="&#x41f;" horiz-adv-x="646" 
d="M61 674h525v-674h-173v531h-179v-531h-173v674z" />
    <glyph glyph-name="afii10034" unicode="&#x420;" horiz-adv-x="566" 
d="M61 0v665c46 8 112 14 200 14c93 0 161 -16 209 -54c45 -35 72 -94 72 -159c0 -71 -24 -130 -65 -168c-52 -47 -128 -67 -207 -67c-15 0 -28 1 -38 1v-232h-171zM232 542v-175c9 -2 19 -2 34 -2c68 0 105 39 105 94c0 51 -30 87 -93 87c-22 0 -37 -2 -46 -4z" />
    <glyph glyph-name="afii10035" unicode="&#x421;" horiz-adv-x="543" 
d="M493 153l21 -138c-23 -11 -79 -24 -149 -24c-234 0 -335 157 -335 335c0 241 166 357 349 357c69 0 123 -13 146 -26l-32 -139c-25 11 -59 21 -104 21c-96 0 -176 -61 -176 -203c0 -128 67 -199 177 -199c37 0 79 7 103 16z" />
    <glyph glyph-name="afii10036" unicode="&#x422;" horiz-adv-x="522" 
d="M173 0v525h-155v149h486v-149h-158v-525h-173z" />
    <glyph glyph-name="afii10037" unicode="&#x423;" horiz-adv-x="554" 
d="M-3 675h192l74 -231c16 -46 27 -87 38 -124h4c6 27 14 73 28 126l52 229h180l-116 -345c-38 -104 -74 -200 -119 -256c-41 -54 -97 -90 -176 -90c-36 0 -58 5 -78 12l10 139c12 -3 28 -5 52 -5c33 0 60 16 69 40c4 11 2 21 -3 31z" />
    <glyph glyph-name="afii10038" unicode="&#x424;" horiz-adv-x="760" 
d="M302 702h158v-56c140 -14 270 -102 270 -306c0 -203 -126 -292 -271 -309v-59h-158v59c-145 14 -271 103 -271 305c0 204 147 296 272 310v56zM302 152v374c-43 -10 -99 -58 -99 -189c0 -123 58 -178 99 -185zM459 526v-374c40 7 98 52 98 188c0 132 -54 177 -98 186z
" />
    <glyph glyph-name="afii10039" unicode="&#x425;" horiz-adv-x="566" 
d="M561 0h-194l-45 110c-18 42 -32 77 -47 117h-2c-11 -40 -25 -77 -39 -118l-39 -109h-189l169 342l-163 332h193l41 -108c16 -39 27 -73 40 -111h3l34 111l37 108h190l-165 -332z" />
    <glyph glyph-name="afii10040" unicode="&#x426;" horiz-adv-x="662" 
d="M61 674h173v-530h176v530h173v-535l66 -5l-7 -301h-130l-8 167h-443v674z" />
    <glyph glyph-name="afii10041" unicode="&#x427;" horiz-adv-x="620" 
d="M54 674h172v-202c0 -65 34 -97 90 -97c25 0 51 7 72 17v282h171v-684h-171v274h-3c-44 -19 -82 -28 -131 -28c-133 0 -200 80 -200 209v229z" />
    <glyph glyph-name="afii10042" unicode="&#x428;" horiz-adv-x="887" 
d="M61 674h169v-530h129v530h169v-530h129v530h169v-674h-765v674z" />
    <glyph glyph-name="afii10043" unicode="&#x429;" horiz-adv-x="905" 
d="M61 674h169v-530h129v530h169v-530h129v530h169v-535l66 -5l-7 -301h-130l-8 167h-686v674z" />
    <glyph glyph-name="afii10044" unicode="&#x42a;" horiz-adv-x="695" 
d="M15 674h333v-232c17 3 45 5 73 5c131 0 244 -80 244 -219c0 -66 -21 -115 -56 -151c-63 -63 -161 -84 -269 -84c-72 0 -128 5 -163 10v529h-162v142zM348 310v-183c11 -2 24 -3 42 -3c56 0 94 39 94 96c0 61 -40 94 -94 94c-15 0 -30 -2 -42 -4z" />
    <glyph glyph-name="afii10045" unicode="&#x42b;" horiz-adv-x="845" 
d="M61 674h171v-232c19 3 42 5 66 5c133 0 251 -75 251 -220c0 -65 -22 -114 -56 -150c-63 -63 -172 -84 -274 -84c-67 0 -123 5 -158 10v671zM232 310v-183c9 -2 23 -3 36 -3c51 0 100 38 100 96c0 62 -52 94 -96 94c-13 0 -26 -2 -40 -4zM601 674h173v-674h-173v674z" />
    <glyph glyph-name="afii10046" unicode="&#x42c;" horiz-adv-x="589" 
d="M61 674h171v-232c18 3 43 5 73 5c144 0 255 -74 255 -218c0 -67 -22 -116 -56 -152c-63 -63 -172 -84 -280 -84c-72 0 -128 5 -163 10v671zM232 310v-183c13 -2 26 -3 41 -3c62 0 106 36 106 96c0 61 -41 94 -102 94c-18 0 -31 -2 -45 -4z" />
    <glyph glyph-name="afii10047" unicode="&#x42d;" horiz-adv-x="541" 
d="M80 271v139h247c-6 68 -56 132 -149 132c-46 0 -90 -12 -118 -23l-34 129c36 16 98 36 170 36c232 0 315 -174 315 -350c0 -227 -145 -344 -332 -344c-68 0 -132 16 -159 30l29 135c29 -12 71 -20 114 -20c96 0 150 59 162 136h-245z" />
    <glyph glyph-name="afii10048" unicode="&#x42e;" horiz-adv-x="874" 
d="M61 674h171v-255h67c28 149 125 265 274 265c189 0 272 -173 272 -338c0 -228 -112 -356 -281 -356c-160 0 -250 127 -268 281h-64v-271h-171v674zM569 129h1c65 0 101 84 101 211c0 116 -36 205 -102 205s-105 -89 -105 -207c0 -125 39 -209 105 -209z" />
    <glyph glyph-name="afii10049" unicode="&#x42f;" horiz-adv-x="585" 
d="M188 0h-183c13 23 24 50 34 79c24 74 34 154 84 202c14 13 33 24 53 32v4c-72 16 -132 67 -132 162c0 66 28 115 69 146c53 41 135 54 219 54c73 0 143 -6 192 -14v-665h-171v254h-20c-23 0 -42 -9 -56 -22c-37 -37 -50 -122 -65 -172c-6 -20 -12 -38 -24 -60zM353 383
v162c-8 2 -22 4 -43 4c-56 0 -94 -31 -94 -85s45 -84 100 -84c14 0 26 1 37 3z" />
    <glyph glyph-name="afii10065" unicode="&#x430;" horiz-adv-x="518" 
d="M466 285v-167c0 -47 2 -90 8 -118h-155l-9 44h-3c-33 -39 -79 -54 -129 -54c-94 0 -155 70 -155 154c0 132 119 189 270 189v6c0 22 -18 44 -76 44c-50 0 -98 -16 -130 -35l-30 111c31 16 99 43 193 43c170 0 216 -102 216 -217zM298 175v52c-65 0 -108 -20 -108 -66
c0 -34 22 -50 49 -50c23 0 48 15 57 40c2 7 2 16 2 24z" />
    <glyph glyph-name="afii10066" unicode="&#x431;" horiz-adv-x="563" 
d="M483 714l-11 -137c-26 -9 -71 -13 -106 -16c-74 -7 -118 -26 -147 -58c-23 -23 -41 -62 -44 -94h5c27 45 80 83 147 83c127 0 206 -98 206 -245c0 -151 -101 -259 -247 -259c-171 0 -252 139 -252 319c0 125 31 227 101 295c46 48 111 81 201 91c43 5 116 12 147 21z
M359 241v1c0 58 -19 128 -78 128c-24 0 -42 -15 -53 -34c-14 -24 -22 -54 -22 -90c0 -58 19 -132 78 -132c58 0 75 74 75 127z" />
    <glyph glyph-name="afii10067" unicode="&#x432;" horiz-adv-x="545" 
d="M51 2v485c40 6 123 12 198 12c86 0 248 -8 248 -126c0 -64 -51 -97 -99 -106v-3c75 -12 119 -56 119 -117c0 -142 -195 -154 -296 -154c-66 0 -137 5 -170 9zM221 392v-88h27c55 0 82 15 82 46c0 26 -21 45 -69 45c-15 0 -27 -2 -40 -3zM220 204v-106c11 -1 21 -2 39 -2
c46 0 83 16 83 54c0 33 -29 54 -89 54h-33z" />
    <glyph glyph-name="afii10068" unicode="&#x433;" horiz-adv-x="404" 
d="M51 492h340v-135h-167v-357h-173v492z" />
    <glyph glyph-name="afii10069" unicode="&#x434;" horiz-adv-x="584" 
d="M118 492h399v-371l53 -3l-6 -272h-129l-6 154h-277l-8 -154h-129l-5 271l47 4c19 29 35 66 44 102c11 48 17 99 17 147v122zM268 365v-41c0 -34 -5 -73 -13 -112c-5 -29 -16 -60 -30 -86h124v239h-81z" />
    <glyph glyph-name="afii10070" unicode="&#x435;" horiz-adv-x="511" 
d="M478 183h-284c5 -41 56 -65 118 -65c45 0 85 6 124 19l22 -118c-52 -20 -114 -28 -173 -28c-163 0 -255 92 -255 248c0 130 79 263 241 263c144 0 213 -104 213 -248c0 -33 -3 -59 -6 -71zM193 300h133c0 34 -12 86 -63 86c-49 0 -68 -51 -70 -86z" />
    <glyph glyph-name="afii10072" unicode="&#x436;" horiz-adv-x="725" 
d="M-3 492h186l80 -191h16v191h167v-191h17l80 191h185l-147 -211c45 -13 76 -69 92 -125c16 -51 35 -112 55 -156h-172c-13 23 -23 63 -37 115c-13 43 -35 76 -62 76h-11v-191h-167v191h-11c-29 0 -50 -32 -63 -76c-16 -53 -26 -92 -39 -115h-169c21 44 39 105 56 156
c16 54 47 112 91 125z" />
    <glyph glyph-name="afii10073" unicode="&#x437;" horiz-adv-x="476" 
d="M99 199v106h74c54 0 76 15 76 38s-24 41 -75 41c-39 0 -82 -13 -114 -31l-30 101c54 31 127 47 199 47c103 0 200 -39 200 -131c0 -63 -53 -95 -104 -108v-3c61 -9 123 -44 123 -114c0 -119 -142 -154 -246 -154c-68 0 -136 15 -186 44l32 107c30 -15 84 -29 132 -30
c61 0 83 21 83 42c0 31 -33 45 -89 45h-75z" />
    <glyph glyph-name="afii10074" unicode="&#x438;" horiz-adv-x="574" 
d="M51 492h161v-113c0 -83 -6 -151 -9 -208h4l46 133l71 188h198v-492h-161v113c0 81 5 117 10 216h-4c-14 -49 -23 -80 -40 -124c-21 -56 -52 -139 -79 -205h-197v492z" />
    <glyph glyph-name="afii10075" unicode="&#x439;" horiz-adv-x="574" 
d="M51 492h161v-113c0 -83 -6 -151 -9 -208h4l46 133l71 188h198v-492h-161v113c0 81 5 117 10 216h-4c-14 -49 -23 -80 -40 -124c-21 -56 -52 -139 -79 -205h-197v492zM142 691h105c0 -42 15 -65 38 -65c26 0 39 25 41 65h105c-6 -91 -59 -143 -149 -143
c-91 0 -137 55 -140 143z" />
    <glyph glyph-name="afii10076" unicode="&#x43a;" horiz-adv-x="517" 
d="M51 492h171v-189h15l89 189h193l-151 -208c47 -13 75 -69 96 -132c15 -42 35 -108 57 -152h-178c-14 22 -24 59 -41 115c-14 45 -36 74 -67 74h-13v-189h-171v492z" />
    <glyph glyph-name="afii10077" unicode="&#x43b;" horiz-adv-x="532" 
d="M76 492h405v-492h-173v359h-73v-78c0 -117 -14 -205 -78 -249c-31 -31 -75 -44 -136 -44l-21 134c25 5 43 17 54 33c19 28 22 70 22 132v205z" />
    <glyph glyph-name="afii10078" unicode="&#x43c;" horiz-adv-x="712" 
d="M41 0l34 492h219l35 -152l27 -125h3c9 42 19 85 29 126l37 151h218l29 -492h-159l-5 173c-1 38 -4 110 -5 182h-2c-17 -64 -21 -96 -42 -176l-46 -169h-130l-40 167c-11 48 -26 129 -36 175h-4c-2 -77 -2 -144 -4 -181l-5 -171h-153z" />
    <glyph glyph-name="afii10079" unicode="&#x43d;" horiz-adv-x="559" 
d="M51 492h173v-172h111v172h172v-492h-172v183h-111v-183h-173v492z" />
    <glyph glyph-name="afii10080" unicode="&#x43e;" horiz-adv-x="548" 
d="M279 502c147 0 239 -104 239 -252c0 -188 -127 -260 -245 -260c-142 0 -243 95 -243 253c0 162 101 259 249 259zM276 378c-53 0 -70 -67 -70 -132c0 -77 21 -132 71 -132c43 0 65 56 65 132c0 68 -19 132 -66 132z" />
    <glyph glyph-name="afii10081" unicode="&#x43f;" horiz-adv-x="557" 
d="M51 492h454v-492h-173v359h-108v-359h-173v492z" />
    <glyph glyph-name="afii10082" unicode="&#x440;" horiz-adv-x="567" 
d="M51 -196v524c0 61 -2 116 -4 164h149l8 -60h2c31 44 80 70 143 70c107 0 188 -102 188 -252c0 -178 -105 -260 -205 -260c-51 0 -89 22 -106 46h-2v-232h-173zM224 287v-83c0 -13 1 -24 4 -33c8 -27 30 -47 59 -47c49 0 76 50 76 120c0 76 -26 121 -74 121
c-30 0 -55 -22 -61 -51c-3 -8 -4 -17 -4 -27z" />
    <glyph glyph-name="afii10083" unicode="&#x441;" horiz-adv-x="416" 
d="M385 138l16 -129c-24 -11 -70 -18 -120 -18c-154 0 -251 93 -251 250c0 146 96 260 273 260c35 0 73 -5 102 -15l-24 -129c-15 6 -36 11 -68 11c-64 0 -109 -46 -108 -120c0 -80 49 -122 111 -122c27 0 49 4 69 12z" />
    <glyph glyph-name="afii10084" unicode="&#x442;" horiz-adv-x="456" 
d="M12 492h432v-133h-130v-359h-172v359h-130v133z" />
    <glyph glyph-name="afii10085" unicode="&#x443;" horiz-adv-x="505" 
d="M4 492h190l53 -228c6 -27 14 -59 19 -84h3c5 25 10 58 15 83l41 229h180l-107 -341c-57 -168 -101 -246 -153 -296c-53 -50 -113 -70 -151 -74l-40 146c20 4 41 12 62 23c22 10 42 29 53 46c5 7 9 14 9 21c0 6 -2 14 -7 24z" />
    <glyph glyph-name="afii10086" unicode="&#x444;" horiz-adv-x="704" 
d="M272 692h160l-2 -192c138 -18 245 -105 245 -257s-107 -239 -245 -252l2 -187h-160l2 187c-137 13 -244 99 -244 252c0 152 106 239 244 257zM275 99v294c-62 -24 -81 -84 -81 -147c0 -70 21 -125 81 -147zM429 392v-293c60 22 81 77 81 147c0 63 -20 122 -81 146z" />
    <glyph glyph-name="afii10087" unicode="&#x445;" horiz-adv-x="507" 
d="M3 492h192l34 -75l31 -73h3c9 24 18 51 28 75l30 73h183l-144 -236l145 -256h-193l-36 81c-10 23 -20 47 -28 70h-3c-9 -24 -19 -48 -27 -71l-32 -80h-184l146 248z" />
    <glyph glyph-name="afii10088" unicode="&#x446;" horiz-adv-x="572" 
d="M51 492h173v-359h110v359h172v-371l54 -3l-7 -272h-129l-6 154h-367v492z" />
    <glyph glyph-name="afii10089" unicode="&#x447;" horiz-adv-x="546" 
d="M47 492h173v-157c0 -47 17 -69 56 -69c18 0 37 7 45 14v212h173v-499h-172v177h-3c-25 -16 -68 -26 -110 -26c-109 0 -162 67 -162 178v170z" />
    <glyph glyph-name="afii10090" unicode="&#x448;" horiz-adv-x="800" 
d="M51 492h171v-359h93v359h170v-359h94v359h170v-492h-698v492z" />
    <glyph glyph-name="afii10091" unicode="&#x449;" horiz-adv-x="815" 
d="M51 492h171v-359h93v359h170v-359h94v359h170v-371l53 -3l-6 -272h-129l-6 154h-610v492z" />
    <glyph glyph-name="afii10092" unicode="&#x44a;" horiz-adv-x="644" 
d="M18 492h301v-141c20 3 42 5 71 5c112 0 226 -46 226 -175c0 -64 -29 -106 -71 -134c-64 -42 -157 -53 -232 -53c-55 0 -114 3 -166 10v355h-129v133zM318 235v-121c11 -1 21 -2 41 -2c40 0 86 16 86 62c0 52 -52 64 -92 64c-14 0 -24 -2 -35 -3z" />
    <glyph glyph-name="afii10093" unicode="&#x44b;" horiz-adv-x="780" 
d="M51 492h172v-142c21 3 43 6 71 6c106 0 215 -48 215 -172c0 -67 -29 -109 -71 -137c-64 -42 -150 -53 -220 -53c-55 0 -114 3 -167 10v488zM223 235v-122c10 -1 21 -1 34 -1c38 0 81 17 81 65c0 45 -42 61 -75 61c-19 0 -30 -1 -40 -3zM556 492h173v-492h-173v492z" />
    <glyph glyph-name="afii10094" unicode="&#x44c;" horiz-adv-x="549" 
d="M51 492h172v-142c21 3 44 6 69 6c115 0 229 -44 229 -173c0 -64 -29 -108 -72 -136c-63 -42 -157 -53 -231 -53c-55 0 -114 3 -167 10v488zM223 235v-121c10 -1 21 -2 38 -2c42 0 88 16 88 64s-50 62 -89 62c-16 0 -27 -2 -37 -3z" />
    <glyph glyph-name="afii10095" unicode="&#x44d;" horiz-adv-x="465" 
d="M70 192v109h190c-10 47 -47 76 -111 76c-44 0 -75 -9 -100 -20l-28 113c40 20 102 32 157 32c66 0 130 -18 175 -57c49 -44 82 -109 82 -196c0 -166 -113 -259 -278 -259c-54 0 -107 12 -142 29l23 118c22 -8 57 -17 99 -17c61 0 107 26 120 72h-187z" />
    <glyph glyph-name="afii10096" unicode="&#x44e;" horiz-adv-x="754" 
d="M51 492h172v-175h50c25 118 111 185 224 185c138 0 227 -104 227 -252c0 -188 -122 -260 -232 -260c-117 0 -204 74 -222 199h-47v-189h-172v492zM494 114h1c40 0 58 56 58 132c0 68 -16 132 -59 132c-48 0 -62 -67 -62 -132c0 -77 18 -132 62 -132z" />
    <glyph glyph-name="afii10097" unicode="&#x44f;" horiz-adv-x="543" 
d="M491 488v-488h-169v178h-13c-24 0 -41 -12 -52 -28c-27 -22 -39 -70 -52 -111c-5 -14 -10 -23 -18 -39h-182c12 15 21 34 29 54c14 37 37 101 65 133c15 17 35 31 62 38v3c-54 8 -123 44 -123 121c0 61 34 96 82 119c44 22 115 31 185 31c78 0 145 -5 186 -11zM323 281
v110c-9 1 -20 3 -37 3c-44 0 -71 -21 -71 -56s34 -58 77 -58c14 0 22 0 31 1z" />
    <glyph glyph-name="afii10071" unicode="&#x451;" horiz-adv-x="511" 
d="M168 553h-1c-43 0 -76 34 -76 77c0 45 34 77 77 77c41 0 73 -32 73 -77c0 -43 -32 -77 -73 -77zM378 553h-1c-42 0 -75 34 -75 77c0 45 33 77 76 77c42 0 74 -32 74 -77c0 -43 -31 -77 -74 -77zM478 183h-284c5 -41 56 -65 118 -65c45 0 85 6 124 19l22 -118
c-52 -20 -114 -28 -173 -28c-163 0 -255 92 -255 248c0 130 79 263 241 263c144 0 213 -104 213 -248c0 -33 -3 -59 -6 -71zM193 300h133c0 34 -12 86 -63 86c-49 0 -68 -51 -70 -86z" />
    <glyph glyph-name="afii10099" unicode="&#x452;" horiz-adv-x="564" 
d="M-1 644h64v61h172v-61h192v-108h-192v-97h2c26 26 66 49 114 49c59 0 106 -32 136 -83s44 -117 44 -198c0 -161 -45 -264 -126 -313c-39 -24 -81 -38 -108 -39l-33 139c19 4 38 12 57 34c23 29 37 101 37 168c0 36 -5 82 -17 112c-11 23 -28 39 -51 39
c-21 0 -37 -12 -45 -22c-7 -11 -10 -20 -10 -35v-290h-172v536h-64v108z" />
    <glyph glyph-name="afii10100" unicode="&#x453;" horiz-adv-x="404" 
d="M51 492h340v-135h-167v-357h-173v492zM220 701h151l-115 -151h-115z" />
    <glyph glyph-name="afii10101" unicode="&#x454;" horiz-adv-x="451" 
d="M438 479l-28 -119c-19 9 -50 18 -89 18c-60 0 -103 -29 -113 -77h179v-109h-176c12 -48 55 -74 118 -74c31 0 64 6 87 15l22 -118c-26 -13 -78 -25 -138 -25c-160 0 -270 90 -270 251c0 168 125 261 286 261c47 0 96 -10 122 -23z" />
    <glyph glyph-name="afii10102" unicode="&#x455;" horiz-adv-x="417" 
d="M26 24l29 122c25 -16 82 -34 123 -34c35 0 51 9 51 29c0 18 -13 27 -61 46c-102 38 -132 95 -131 147c0 97 78 168 200 168c56 0 104 -12 134 -26l-27 -119c-22 11 -61 24 -97 24c-31 0 -47 -10 -47 -29c0 -16 14 -26 68 -47c92 -35 123 -87 124 -151
c0 -97 -74 -163 -213 -163c-61 0 -119 13 -153 33z" />
    <glyph glyph-name="afii10103" unicode="&#x456;" horiz-adv-x="276" 
d="M224 0h-173v492h173v-492zM137 710c52 0 87 -34 87 -84c1 -47 -35 -84 -88 -84c-51 0 -86 37 -86 84c0 50 36 84 87 84z" />
    <glyph glyph-name="afii10104" unicode="&#x457;" horiz-adv-x="276" 
d="M34 553h-1c-43 0 -76 34 -76 77c0 45 34 77 77 77c41 0 73 -32 73 -77c0 -43 -32 -77 -73 -77zM244 553h-1c-42 0 -75 34 -75 77c0 45 33 77 76 77c42 0 74 -32 74 -77c0 -43 -31 -77 -74 -77zM224 0h-173v492h173v-492z" />
    <glyph glyph-name="afii10105" unicode="&#x458;" horiz-adv-x="290" 
d="M-24 -212l-15 135c34 3 62 10 80 28c21 19 27 58 27 140v401h173v-435c0 -112 -27 -175 -73 -213s-117 -56 -192 -56zM154 710c52 0 86 -34 87 -84c0 -47 -35 -84 -89 -84c-51 0 -86 37 -85 84c-1 50 35 84 87 84z" />
    <glyph glyph-name="afii10106" unicode="&#x459;" horiz-adv-x="803" 
d="M76 492h405v-143c21 2 44 4 67 4c113 0 227 -49 227 -175c0 -62 -27 -102 -65 -129c-65 -46 -163 -55 -234 -55c-54 0 -115 3 -167 10v355h-74v-78c0 -117 -15 -204 -78 -249c-31 -30 -75 -44 -136 -44l-21 134c25 5 43 17 53 32c21 26 23 74 23 133v205zM480 234v-121
c11 -1 22 -1 38 -1c40 0 85 15 85 62s-43 63 -82 63c-14 0 -29 -2 -41 -3z" />
    <glyph glyph-name="afii10107" unicode="&#x45a;" horiz-adv-x="819" 
d="M51 492h173v-162h100v162h172v-144c21 3 45 5 69 5c116 0 225 -52 225 -178c0 -60 -27 -99 -65 -126c-64 -46 -162 -55 -234 -55c-54 0 -115 3 -167 10v197h-100v-201h-173v492zM496 234v-120c10 -1 21 -2 37 -2c43 0 86 16 86 62c0 48 -43 63 -85 63
c-14 0 -27 -2 -38 -3z" />
    <glyph glyph-name="afii10108" unicode="&#x45b;" horiz-adv-x="574" 
d="M-1 644h64v61h172v-61h187v-108h-187v-110h2c16 19 33 33 54 44s47 18 72 18c108 0 160 -82 160 -214v-274h-173v258c0 54 -15 89 -57 89c-28 0 -44 -16 -53 -37c-3 -7 -5 -18 -5 -32v-278h-172v536h-64v108z" />
    <glyph glyph-name="afii10109" unicode="&#x45c;" horiz-adv-x="517" 
d="M51 492h171v-189h15l89 189h193l-151 -208c47 -13 75 -69 96 -132c15 -42 35 -108 57 -152h-178c-14 22 -24 59 -41 115c-14 45 -36 74 -67 74h-13v-189h-171v492zM267 701h151l-115 -151h-115z" />
    <glyph glyph-name="afii10110" unicode="&#x45e;" horiz-adv-x="505" 
d="M108 691h105c0 -42 15 -65 38 -65c26 0 39 25 41 65h105c-6 -91 -59 -143 -149 -143c-91 0 -137 55 -140 143zM4 492h190l53 -228c6 -27 14 -59 19 -84h3c5 25 10 58 15 83l41 229h180l-107 -341c-57 -168 -101 -246 -153 -296c-53 -50 -113 -70 -151 -74l-40 146
c20 4 41 12 62 23c22 10 42 29 53 46c5 7 9 14 9 21c0 6 -2 14 -7 24z" />
    <glyph glyph-name="afii10193" unicode="&#x45f;" horiz-adv-x="558" 
d="M51 492h174v-359h109v359h172v-492h-151l-9 -161h-136l-9 161h-150v492z" />
    <glyph glyph-name="afii10050" unicode="&#x490;" horiz-adv-x="475" 
d="M61 674h270l15 131h122l-11 -274h-224v-531h-172v674z" />
    <glyph glyph-name="afii10098" unicode="&#x491;" horiz-adv-x="417" 
d="M51 492h218l15 121h120l-9 -257h-171v-356h-173v492z" />
    <glyph glyph-name="afii10846" unicode="&#x4d9;" horiz-adv-x="328" 
d="M74 353l-22 114c56 24 118 35 176 35c160 0 253 -94 253 -249c0 -129 -78 -262 -239 -262c-146 0 -216 104 -216 248c0 31 4 56 7 69h283c-5 43 -45 67 -114 67c-43 0 -84 -8 -128 -22zM317 191h-133c0 -32 15 -84 66 -84c50 0 65 51 67 84z" />
    <glyph glyph-name="Wgrave" unicode="&#x1e80;" horiz-adv-x="841" 
d="M341 0h-186l-141 674h184l33 -248c11 -77 21 -163 30 -236h2c11 78 25 156 39 237l43 247h172l40 -255c12 -77 21 -147 30 -226h2c9 78 20 155 30 234l35 247h174l-151 -674h-186l-40 237c-10 59 -19 126 -28 208h-2c-12 -81 -21 -148 -34 -209zM251 833h173l80 -121
h-133z" />
    <glyph glyph-name="wgrave" unicode="&#x1e81;" horiz-adv-x="730" 
d="M215 701h150l79 -151h-114zM6 492h178l25 -187c7 -50 15 -103 21 -158h3c8 55 20 110 30 157l39 188h134l37 -182c11 -55 22 -108 30 -163h2c5 54 12 110 21 164l28 181h168l-141 -492h-159l-32 145c-10 45 -18 91 -26 152h-2c-7 -61 -16 -107 -26 -151l-36 -146h-159z
" />
    <glyph glyph-name="Wacute" unicode="&#x1e82;" horiz-adv-x="841" 
d="M341 0h-186l-141 674h184l33 -248c11 -77 21 -163 30 -236h2c11 78 25 156 39 237l43 247h172l40 -255c12 -77 21 -147 30 -226h2c9 78 20 155 30 234l35 247h174l-151 -674h-186l-40 237c-10 59 -19 126 -28 208h-2c-12 -81 -21 -148 -34 -209zM434 833h174l-121 -123
h-132z" />
    <glyph glyph-name="wacute" unicode="&#x1e83;" horiz-adv-x="730" 
d="M374 701h151l-115 -151h-115zM6 492h178l25 -187c7 -50 15 -103 21 -158h3c8 55 20 110 30 157l39 188h134l37 -182c11 -55 22 -108 30 -163h2c5 54 12 110 21 164l28 181h168l-141 -492h-159l-32 145c-10 45 -18 91 -26 152h-2c-7 -61 -16 -107 -26 -151l-36 -146h-159z
" />
    <glyph glyph-name="Wdieresis" unicode="&#x1e84;" horiz-adv-x="841" 
d="M341 0h-186l-141 674h184l33 -248c11 -77 21 -163 30 -236h2c11 78 25 156 39 237l43 247h172l40 -255c12 -77 21 -147 30 -226h2c9 78 20 155 30 234l35 247h174l-151 -674h-186l-40 237c-10 59 -19 126 -28 208h-2c-12 -81 -21 -148 -34 -209zM328 709h-1
c-41 0 -74 35 -74 75c0 43 34 75 75 75c39 0 71 -32 71 -75c0 -40 -32 -75 -71 -75zM537 709h-1c-40 0 -72 35 -72 75c0 43 32 75 73 75s73 -32 73 -75c0 -40 -32 -75 -73 -75z" />
    <glyph glyph-name="wdieresis" unicode="&#x1e85;" horiz-adv-x="730" 
d="M261 553h-1c-43 0 -76 34 -76 77c0 45 34 77 77 77c41 0 73 -32 73 -77c0 -43 -32 -77 -73 -77zM471 553h-1c-42 0 -75 34 -75 77c0 45 33 77 76 77c42 0 74 -32 74 -77c0 -43 -31 -77 -74 -77zM6 492h178l25 -187c7 -50 15 -103 21 -158h3c8 55 20 110 30 157l39 188
h134l37 -182c11 -55 22 -108 30 -163h2c5 54 12 110 21 164l28 181h168l-141 -492h-159l-32 145c-10 45 -18 91 -26 152h-2c-7 -61 -16 -107 -26 -151l-36 -146h-159z" />
    <glyph glyph-name="uni1EA0" unicode="&#x1ea0;" horiz-adv-x="613" 
d="M374 149h-154l-34 -149h-176l180 674h225l178 -674h-182zM241 278h112l-27 124c-8 38 -20 98 -29 138h-2c-9 -40 -19 -101 -28 -139zM302 -80c41 0 73 -32 73 -77c0 -43 -31 -76 -74 -76s-76 33 -76 76c0 45 34 77 77 77z" />
    <glyph glyph-name="uni1EA1" unicode="&#x1ea1;" horiz-adv-x="518" 
d="M466 285v-167c0 -47 2 -90 8 -118h-155l-9 44h-3c-33 -39 -79 -54 -129 -54c-94 0 -155 70 -155 154c0 132 119 189 270 189v6c0 22 -18 44 -76 44c-50 0 -98 -16 -130 -35l-30 111c31 16 99 43 193 43c170 0 216 -102 216 -217zM298 175v52c-65 0 -108 -20 -108 -66
c0 -34 22 -50 49 -50c23 0 48 15 57 40c2 7 2 16 2 24zM261 -80c41 0 73 -32 73 -77c0 -43 -31 -76 -74 -76s-76 33 -76 76c0 45 34 77 77 77z" />
    <glyph glyph-name="uni1EA2" unicode="&#x1ea2;" horiz-adv-x="613" 
d="M374 149h-154l-34 -149h-176l180 674h225l178 -674h-182zM241 278h112l-27 124c-8 38 -20 98 -29 138h-2c-9 -40 -19 -101 -28 -139zM344 704l-78 17c15 45 47 54 47 85c0 16 -12 28 -27 28c-17 0 -33 -19 -40 -32l-52 34c24 48 63 82 124 82c57 0 100 -42 100 -89
c0 -60 -48 -74 -74 -125z" />
    <glyph glyph-name="uni1EA3" unicode="&#x1ea3;" horiz-adv-x="518" 
d="M466 285v-167c0 -47 2 -90 8 -118h-155l-9 44h-3c-33 -39 -79 -54 -129 -54c-94 0 -155 70 -155 154c0 132 119 189 270 189v6c0 22 -18 44 -76 44c-50 0 -98 -16 -130 -35l-30 111c31 16 99 43 193 43c170 0 216 -102 216 -217zM298 175v52c-65 0 -108 -20 -108 -66
c0 -34 22 -50 49 -50c23 0 48 15 57 40c2 7 2 16 2 24zM290 524l-81 17c12 50 53 65 53 102c0 18 -12 30 -28 30c-18 0 -31 -18 -39 -32l-54 35c23 48 66 81 125 81c58 0 102 -38 102 -90c0 -68 -57 -92 -78 -143z" />
    <glyph glyph-name="uni1EA4" unicode="&#x1ea4;" horiz-adv-x="613" 
d="M374 149h-154l-34 -149h-176l180 674h225l178 -674h-182zM241 278h112l-27 124c-8 38 -20 98 -29 138h-2c-9 -40 -19 -101 -28 -139zM248 833h119l84 -123h-107l-36 58h-2l-36 -58h-105zM471 919h142l-132 -119h-79z" />
    <glyph glyph-name="uni1EA5" unicode="&#x1ea5;" horiz-adv-x="518" 
d="M466 285v-167c0 -47 2 -90 8 -118h-155l-9 44h-3c-33 -39 -79 -54 -129 -54c-94 0 -155 70 -155 154c0 132 119 189 270 189v6c0 22 -18 44 -76 44c-50 0 -98 -16 -130 -35l-30 111c31 16 99 43 193 43c170 0 216 -102 216 -217zM298 175v52c-65 0 -108 -20 -108 -66
c0 -34 22 -50 49 -50c23 0 48 15 57 40c2 7 2 16 2 24zM196 701h119l86 -151h-106l-38 82h-2l-39 -82h-107zM436 800h124l-115 -154h-83z" />
    <glyph glyph-name="uni1EA6" unicode="&#x1ea6;" horiz-adv-x="613" 
d="M374 149h-154l-34 -149h-176l180 674h225l178 -674h-182zM241 278h112l-27 124c-8 38 -20 98 -29 138h-2c-9 -40 -19 -101 -28 -139zM332 906h142l61 -118h-85zM243 833h119l84 -123h-106l-36 58h-2l-37 -58h-104z" />
    <glyph glyph-name="uni1EA7" unicode="&#x1ea7;" horiz-adv-x="518" 
d="M466 285v-167c0 -47 2 -90 8 -118h-155l-9 44h-3c-33 -39 -79 -54 -129 -54c-94 0 -155 70 -155 154c0 132 119 189 270 189v6c0 22 -18 44 -76 44c-50 0 -98 -16 -130 -35l-30 111c31 16 99 43 193 43c170 0 216 -102 216 -217zM298 175v52c-65 0 -108 -20 -108 -66
c0 -34 22 -50 49 -50c23 0 48 15 57 40c2 7 2 16 2 24zM300 802h123l62 -155h-82zM200 701h119l86 -151h-106l-38 82h-2l-39 -82h-107z" />
    <glyph glyph-name="uni1EA8" unicode="&#x1ea8;" horiz-adv-x="613" 
d="M374 149h-154l-34 -149h-176l180 674h225l178 -674h-182zM241 278h112l-27 124c-8 38 -20 98 -29 138h-2c-9 -40 -19 -101 -28 -139zM245 833h119l84 -123h-106l-37 58h-2l-36 -58h-105zM492 758l-64 15c13 41 47 52 47 80c0 17 -12 29 -27 29c-19 0 -33 -19 -41 -34
l-47 31c22 44 59 74 113 74c52 0 89 -35 89 -80c0 -54 -46 -66 -70 -115z" />
    <glyph glyph-name="uni1EA9" unicode="&#x1ea9;" horiz-adv-x="518" 
d="M466 285v-167c0 -47 2 -90 8 -118h-155l-9 44h-3c-33 -39 -79 -54 -129 -54c-94 0 -155 70 -155 154c0 132 119 189 270 189v6c0 22 -18 44 -76 44c-50 0 -98 -16 -130 -35l-30 111c31 16 99 43 193 43c170 0 216 -102 216 -217zM298 175v52c-65 0 -108 -20 -108 -66
c0 -34 22 -50 49 -50c23 0 48 15 57 40c2 7 2 16 2 24zM198 701h119l86 -151h-106l-38 82h-2l-39 -82h-107zM445 627l-70 14c13 41 43 50 43 78c0 15 -11 27 -25 27c-16 0 -30 -18 -37 -31l-48 32c23 44 59 75 115 75c51 0 91 -39 91 -82c0 -55 -45 -67 -69 -113z" />
    <glyph glyph-name="uni1EAA" unicode="&#x1eaa;" horiz-adv-x="613" 
d="M374 149h-154l-34 -149h-176l180 674h225l178 -674h-182zM241 278h112l-27 124c-8 38 -20 98 -29 138h-2c-9 -40 -19 -101 -28 -139zM240 833h130l94 -123h-117l-41 56h-2l-41 -56h-116zM243 850h-76c-2 69 29 116 83 116c27 0 46 -9 63 -18c16 -8 30 -15 43 -15
c15 0 21 6 23 36h75c3 -84 -31 -118 -83 -118c-27 0 -46 11 -65 21c-17 8 -26 13 -39 13s-22 -12 -24 -35z" />
    <glyph glyph-name="uni1EAB" unicode="&#x1eab;" horiz-adv-x="518" 
d="M466 285v-167c0 -47 2 -90 8 -118h-155l-9 44h-3c-33 -39 -79 -54 -129 -54c-94 0 -155 70 -155 154c0 132 119 189 270 189v6c0 22 -18 44 -76 44c-50 0 -98 -16 -130 -35l-30 111c31 16 99 43 193 43c170 0 216 -102 216 -217zM298 175v52c-65 0 -108 -20 -108 -66
c0 -34 22 -50 49 -50c23 0 48 15 57 40c2 7 2 16 2 24zM199 680h120l93 -130h-109l-43 67h-2l-43 -67h-110zM196 697h-76c-2 69 29 117 83 117c27 0 46 -9 63 -18c16 -8 30 -16 43 -16c15 0 21 7 23 37h75c3 -85 -31 -119 -83 -119c-27 0 -46 12 -65 21c-17 8 -26 13 -39 13
s-22 -12 -24 -35z" />
    <glyph glyph-name="uni1EAC" unicode="&#x1eac;" horiz-adv-x="613" 
d="M374 149h-154l-34 -149h-176l180 674h225l178 -674h-182zM241 278h112l-27 124c-8 38 -20 98 -29 138h-2c-9 -40 -19 -101 -28 -139zM241 833h129l95 -123h-118l-40 56h-2l-41 -56h-116zM299 -230h-1c-42 0 -76 34 -76 75c0 42 34 75 77 75c41 0 73 -33 73 -75
c0 -41 -32 -75 -73 -75z" />
    <glyph glyph-name="uni1EAD" unicode="&#x1ead;" horiz-adv-x="518" 
d="M466 285v-167c0 -47 2 -90 8 -118h-155l-9 44h-3c-33 -39 -79 -54 -129 -54c-94 0 -155 70 -155 154c0 132 119 189 270 189v6c0 22 -18 44 -76 44c-50 0 -98 -16 -130 -35l-30 111c31 16 99 43 193 43c170 0 216 -102 216 -217zM298 175v52c-65 0 -108 -20 -108 -66
c0 -34 22 -50 49 -50c23 0 48 15 57 40c2 7 2 16 2 24zM201 701h116l97 -151h-110l-44 82h-2l-44 -82h-111zM261 -80c41 0 73 -32 73 -77c0 -43 -31 -76 -74 -76s-76 33 -76 76c0 45 34 77 77 77z" />
    <glyph glyph-name="uni1EAE" unicode="&#x1eae;" horiz-adv-x="613" 
d="M374 149h-154l-34 -149h-176l180 674h225l178 -674h-182zM241 278h112l-27 124c-8 38 -20 98 -29 138h-2c-9 -40 -19 -101 -28 -139zM160 824h74c8 -27 29 -46 70 -46c40 0 63 17 71 46h72c-7 -70 -58 -126 -145 -126c-88 0 -135 52 -142 126zM316 932h146l-124 -119h-87
z" />
    <glyph glyph-name="uni1EAF" unicode="&#x1eaf;" horiz-adv-x="518" 
d="M466 285v-167c0 -47 2 -90 8 -118h-155l-9 44h-3c-33 -39 -79 -54 -129 -54c-94 0 -155 70 -155 154c0 132 119 189 270 189v6c0 22 -18 44 -76 44c-50 0 -98 -16 -130 -35l-30 111c31 16 99 43 193 43c170 0 216 -102 216 -217zM298 175v52c-65 0 -108 -20 -108 -66
c0 -34 22 -50 49 -50c23 0 48 15 57 40c2 7 2 16 2 24zM277 811h126l-121 -148h-85zM94 671h79c5 -33 32 -54 75 -54c47 0 73 24 76 54h78c-3 -85 -65 -142 -155 -142c-89 0 -151 57 -153 142z" />
    <glyph glyph-name="uni1EB0" unicode="&#x1eb0;" horiz-adv-x="613" 
d="M374 149h-154l-34 -149h-176l180 674h225l178 -674h-182zM241 278h112l-27 124c-8 38 -20 98 -29 138h-2c-9 -40 -19 -101 -28 -139zM151 932h147l65 -119h-87zM164 824h74c8 -27 29 -46 70 -46c40 0 63 17 71 46h72c-7 -70 -58 -126 -145 -126c-88 0 -135 52 -142 126z
" />
    <glyph glyph-name="uni1EB1" unicode="&#x1eb1;" horiz-adv-x="518" 
d="M466 285v-167c0 -47 2 -90 8 -118h-155l-9 44h-3c-33 -39 -79 -54 -129 -54c-94 0 -155 70 -155 154c0 132 119 189 270 189v6c0 22 -18 44 -76 44c-50 0 -98 -16 -130 -35l-30 111c31 16 99 43 193 43c170 0 216 -102 216 -217zM298 175v52c-65 0 -108 -20 -108 -66
c0 -34 22 -50 49 -50c23 0 48 15 57 40c2 7 2 16 2 24zM104 811h127l79 -148h-85zM105 671h79c5 -33 32 -54 75 -54c47 0 73 24 76 54h78c-3 -85 -65 -142 -155 -142c-89 0 -151 57 -153 142z" />
    <glyph glyph-name="uni1EB2" unicode="&#x1eb2;" horiz-adv-x="613" 
d="M374 149h-154l-34 -149h-176l180 674h225l178 -674h-182zM241 278h112l-27 124c-8 38 -20 98 -29 138h-2c-9 -40 -19 -101 -28 -139zM333 800l-66 15c13 41 44 51 44 79c0 15 -11 27 -25 27c-17 0 -31 -17 -39 -31l-47 31c22 44 59 75 115 75c50 0 89 -38 89 -80
c0 -57 -47 -70 -71 -116zM166 824h74c7 -27 29 -46 70 -46c40 0 62 17 70 46h72c-7 -70 -58 -126 -145 -126s-134 52 -141 126z" />
    <glyph glyph-name="uni1EB3" unicode="&#x1eb3;" horiz-adv-x="518" 
d="M466 285v-167c0 -47 2 -90 8 -118h-155l-9 44h-3c-33 -39 -79 -54 -129 -54c-94 0 -155 70 -155 154c0 132 119 189 270 189v6c0 22 -18 44 -76 44c-50 0 -98 -16 -130 -35l-30 111c31 16 99 43 193 43c170 0 216 -102 216 -217zM298 175v52c-65 0 -108 -20 -108 -66
c0 -34 22 -50 49 -50c23 0 48 15 57 40c2 7 2 16 2 24zM282 650l-70 14c13 41 43 50 43 78c0 15 -11 27 -25 27c-16 0 -30 -18 -37 -31l-48 32c22 44 59 75 115 75c51 0 91 -38 91 -82c0 -55 -45 -66 -69 -113zM101 671h79c5 -33 32 -54 75 -54c47 0 73 24 76 54h78
c-3 -85 -65 -142 -155 -142c-89 0 -151 57 -153 142z" />
    <glyph glyph-name="uni1EB4" unicode="&#x1eb4;" horiz-adv-x="613" 
d="M374 149h-154l-34 -149h-176l180 674h225l178 -674h-182zM241 278h112l-27 124c-8 38 -20 98 -29 138h-2c-9 -40 -19 -101 -28 -139zM239 852h-77c0 62 29 110 83 110c27 0 46 -9 63 -18c16 -8 30 -16 43 -16c15 0 21 7 23 37h75c3 -85 -31 -118 -83 -118
c-27 0 -46 11 -65 20c-17 8 -26 13 -39 13s-21 -11 -23 -28zM158 824h74c8 -27 29 -46 70 -46c40 0 63 17 71 46h72c-7 -70 -58 -126 -145 -126c-88 0 -135 52 -142 126z" />
    <glyph glyph-name="uni1EB5" unicode="&#x1eb5;" horiz-adv-x="518" 
d="M466 285v-167c0 -47 2 -90 8 -118h-155l-9 44h-3c-33 -39 -79 -54 -129 -54c-94 0 -155 70 -155 154c0 132 119 189 270 189v6c0 22 -18 44 -76 44c-50 0 -98 -16 -130 -35l-30 111c31 16 99 43 193 43c170 0 216 -102 216 -217zM298 175v52c-65 0 -108 -20 -108 -66
c0 -34 22 -50 49 -50c23 0 48 15 57 40c2 7 2 16 2 24zM192 710h-78c0 63 30 110 84 110c26 0 45 -9 63 -18c15 -8 30 -15 42 -15c15 0 22 6 24 36h75c2 -85 -32 -118 -83 -118c-28 0 -47 11 -66 21c-17 8 -25 13 -38 13s-21 -12 -23 -29zM108 672h78c4 -34 30 -60 70 -60
c46 0 70 30 73 60h77c-3 -85 -60 -142 -150 -142c-89 0 -146 57 -148 142z" />
    <glyph glyph-name="uni1EB6" unicode="&#x1eb6;" horiz-adv-x="613" 
d="M374 149h-154l-34 -149h-176l180 674h225l178 -674h-182zM241 278h112l-27 124c-8 38 -20 98 -29 138h-2c-9 -40 -19 -101 -28 -139zM162 852h90c1 -23 15 -45 51 -45s51 21 55 45h87c-1 -78 -46 -132 -141 -132c-99 0 -141 54 -142 132zM299 -230h-1
c-42 0 -76 34 -76 75c0 42 34 75 77 75c41 0 73 -33 73 -75c0 -41 -32 -75 -73 -75z" />
    <glyph glyph-name="uni1EB7" unicode="&#x1eb7;" horiz-adv-x="518" 
d="M466 285v-167c0 -47 2 -90 8 -118h-155l-9 44h-3c-33 -39 -79 -54 -129 -54c-94 0 -155 70 -155 154c0 132 119 189 270 189v6c0 22 -18 44 -76 44c-50 0 -98 -16 -130 -35l-30 111c31 16 99 43 193 43c170 0 216 -102 216 -217zM298 175v52c-65 0 -108 -20 -108 -66
c0 -34 22 -50 49 -50c23 0 48 15 57 40c2 7 2 16 2 24zM120 693h86c4 -34 21 -55 52 -55c38 0 54 26 55 55h85c0 -84 -50 -145 -140 -145c-89 0 -138 61 -138 145zM261 -80c41 0 73 -32 73 -77c0 -43 -31 -76 -74 -76s-76 33 -76 76c0 45 34 77 77 77z" />
    <glyph glyph-name="uni1EB8" unicode="&#x1eb8;" horiz-adv-x="510" 
d="M447 417v-141h-213v-133h239v-143h-412v674h398v-143h-225v-114h213zM256 -230h-1c-42 0 -76 34 -76 75c0 42 34 75 77 75c41 0 73 -33 73 -75c0 -41 -32 -75 -73 -75z" />
    <glyph glyph-name="uni1EB9" unicode="&#x1eb9;" horiz-adv-x="511" 
d="M478 183h-284c5 -41 56 -65 118 -65c45 0 85 6 124 19l22 -118c-52 -20 -114 -28 -173 -28c-163 0 -255 92 -255 248c0 130 79 263 241 263c144 0 213 -104 213 -248c0 -33 -3 -59 -6 -71zM193 300h133c0 34 -12 86 -63 86c-49 0 -68 -51 -70 -86zM257 -80
c41 0 73 -32 73 -77c0 -43 -31 -76 -74 -76s-76 33 -76 76c0 45 34 77 77 77z" />
    <glyph glyph-name="uni1EBA" unicode="&#x1eba;" horiz-adv-x="510" 
d="M447 417v-141h-213v-133h239v-143h-412v674h398v-143h-225v-114h213zM304 704l-78 17c15 45 47 54 47 85c0 16 -12 28 -27 28c-17 0 -33 -19 -40 -32l-52 34c24 48 63 82 124 82c57 0 100 -42 100 -89c0 -60 -48 -74 -74 -125z" />
    <glyph glyph-name="uni1EBB" unicode="&#x1ebb;" horiz-adv-x="511" 
d="M478 183h-284c5 -41 56 -65 118 -65c45 0 85 6 124 19l22 -118c-52 -20 -114 -28 -173 -28c-163 0 -255 92 -255 248c0 130 79 263 241 263c144 0 213 -104 213 -248c0 -33 -3 -59 -6 -71zM193 300h133c0 34 -12 86 -63 86c-49 0 -68 -51 -70 -86zM286 524l-81 17
c12 50 53 65 53 102c0 18 -12 30 -28 30c-18 0 -31 -18 -39 -32l-54 35c23 48 66 81 125 81c58 0 102 -38 102 -90c0 -68 -57 -92 -78 -143z" />
    <glyph glyph-name="uni1EBC" unicode="&#x1ebc;" horiz-adv-x="510" 
d="M447 417v-141h-213v-133h239v-143h-412v674h398v-143h-225v-114h213zM205 715h-76c-3 92 30 135 78 135c27 0 46 -9 62 -19s30 -19 41 -19c16 0 21 10 25 42h75c3 -99 -28 -133 -81 -133c-27 0 -47 9 -63 18s-26 17 -39 17c-10 0 -20 -13 -22 -41z" />
    <glyph glyph-name="uni1EBD" unicode="&#x1ebd;" horiz-adv-x="511" 
d="M189 554h-78c-2 86 30 139 84 139c27 0 47 -10 65 -20c15 -9 28 -18 41 -18c15 0 21 7 23 43h76c2 -99 -32 -136 -84 -136c-27 0 -48 11 -67 20c-17 9 -24 16 -37 16s-22 -14 -23 -44zM478 183h-284c5 -41 56 -65 118 -65c45 0 85 6 124 19l22 -118
c-52 -20 -114 -28 -173 -28c-163 0 -255 92 -255 248c0 130 79 263 241 263c144 0 213 -104 213 -248c0 -33 -3 -59 -6 -71zM193 300h133c0 34 -12 86 -63 86c-49 0 -68 -51 -70 -86z" />
    <glyph glyph-name="uni1EBE" unicode="&#x1ebe;" horiz-adv-x="510" 
d="M447 417v-141h-213v-133h239v-143h-412v674h398v-143h-225v-114h213zM203 833h119l84 -123h-107l-36 58h-2l-36 -58h-105zM426 919h142l-132 -119h-79z" />
    <glyph glyph-name="uni1EBF" unicode="&#x1ebf;" horiz-adv-x="511" 
d="M478 183h-284c5 -41 56 -65 118 -65c45 0 85 6 124 19l22 -118c-52 -20 -114 -28 -173 -28c-163 0 -255 92 -255 248c0 130 79 263 241 263c144 0 213 -104 213 -248c0 -33 -3 -59 -6 -71zM193 300h133c0 34 -12 86 -63 86c-49 0 -68 -51 -70 -86zM214 701h119l86 -151
h-106l-38 82h-2l-39 -82h-107zM454 800h124l-115 -154h-83z" />
    <glyph glyph-name="uni1EC0" unicode="&#x1ec0;" horiz-adv-x="510" 
d="M447 417v-141h-213v-133h239v-143h-412v674h398v-143h-225v-114h213zM289 906h142l61 -118h-85zM200 833h119l84 -123h-106l-36 58h-2l-37 -58h-104z" />
    <glyph glyph-name="uni1EC1" unicode="&#x1ec1;" horiz-adv-x="511" 
d="M478 183h-284c5 -41 56 -65 118 -65c45 0 85 6 124 19l22 -118c-52 -20 -114 -28 -173 -28c-163 0 -255 92 -255 248c0 130 79 263 241 263c144 0 213 -104 213 -248c0 -33 -3 -59 -6 -71zM193 300h133c0 34 -12 86 -63 86c-49 0 -68 -51 -70 -86zM311 802h123l62 -155
h-82zM211 701h119l86 -151h-106l-38 82h-2l-39 -82h-107z" />
    <glyph glyph-name="uni1EC2" unicode="&#x1ec2;" horiz-adv-x="510" 
d="M447 417v-141h-213v-133h239v-143h-412v674h398v-143h-225v-114h213zM205 833h119l84 -123h-106l-37 58h-2l-36 -58h-105zM452 758l-64 15c13 41 47 52 47 80c0 17 -12 29 -27 29c-19 0 -33 -19 -41 -34l-47 31c22 44 59 74 113 74c52 0 89 -35 89 -80
c0 -54 -46 -66 -70 -115z" />
    <glyph glyph-name="uni1EC3" unicode="&#x1ec3;" horiz-adv-x="511" 
d="M478 183h-284c5 -41 56 -65 118 -65c45 0 85 6 124 19l22 -118c-52 -20 -114 -28 -173 -28c-163 0 -255 92 -255 248c0 130 79 263 241 263c144 0 213 -104 213 -248c0 -33 -3 -59 -6 -71zM193 300h133c0 34 -12 86 -63 86c-49 0 -68 -51 -70 -86zM207 701h119l86 -151
h-106l-38 82h-2l-39 -82h-107zM454 627l-70 14c13 41 43 50 43 78c0 15 -11 27 -25 27c-16 0 -30 -18 -37 -31l-48 32c23 44 59 75 115 75c51 0 91 -39 91 -82c0 -55 -45 -67 -69 -113z" />
    <glyph glyph-name="uni1EC4" unicode="&#x1ec4;" horiz-adv-x="510" 
d="M447 417v-141h-213v-133h239v-143h-412v674h398v-143h-225v-114h213zM209 833h130l94 -123h-117l-41 56h-2l-41 -56h-116zM212 850h-76c-2 69 29 116 83 116c27 0 46 -9 63 -18c16 -8 30 -15 43 -15c15 0 21 6 23 36h75c3 -84 -31 -118 -83 -118c-27 0 -46 11 -65 21
c-17 8 -26 13 -39 13s-22 -12 -24 -35z" />
    <glyph glyph-name="uni1EC5" unicode="&#x1ec5;" horiz-adv-x="511" 
d="M478 183h-284c5 -41 56 -65 118 -65c45 0 85 6 124 19l22 -118c-52 -20 -114 -28 -173 -28c-163 0 -255 92 -255 248c0 130 79 263 241 263c144 0 213 -104 213 -248c0 -33 -3 -59 -6 -71zM193 300h133c0 34 -12 86 -63 86c-49 0 -68 -51 -70 -86zM207 680h120l93 -130
h-109l-43 67h-2l-43 -67h-110zM204 697h-76c-2 69 29 117 83 117c27 0 46 -9 63 -18c16 -8 30 -16 43 -16c15 0 21 7 23 37h75c3 -85 -31 -119 -83 -119c-27 0 -46 12 -65 21c-17 8 -26 13 -39 13s-22 -12 -24 -35z" />
    <glyph glyph-name="uni1EC6" unicode="&#x1ec6;" horiz-adv-x="510" 
d="M447 417v-141h-213v-133h239v-143h-412v674h398v-143h-225v-114h213zM196 833h129l95 -123h-118l-40 56h-2l-41 -56h-116zM262 -230h-1c-42 0 -76 34 -76 75c0 42 34 75 77 75c41 0 73 -33 73 -75c0 -41 -32 -75 -73 -75z" />
    <glyph glyph-name="uni1EC7" unicode="&#x1ec7;" horiz-adv-x="511" 
d="M478 183h-284c5 -41 56 -65 118 -65c45 0 85 6 124 19l22 -118c-52 -20 -114 -28 -173 -28c-163 0 -255 92 -255 248c0 130 79 263 241 263c144 0 213 -104 213 -248c0 -33 -3 -59 -6 -71zM193 300h133c0 34 -12 86 -63 86c-49 0 -68 -51 -70 -86zM198 701h116l97 -151
h-110l-44 82h-2l-44 -82h-111zM257 -80c41 0 73 -32 73 -77c0 -43 -31 -76 -74 -76s-76 33 -76 76c0 45 34 77 77 77z" />
    <glyph glyph-name="uni1EC8" unicode="&#x1ec8;" horiz-adv-x="294" 
d="M61 674h173v-674h-173v674zM185 704l-78 17c15 45 47 54 47 85c0 16 -12 28 -27 28c-17 0 -33 -19 -40 -32l-52 34c24 48 63 82 124 82c57 0 100 -42 100 -89c0 -60 -48 -74 -74 -125z" />
    <glyph glyph-name="uni1EC9" unicode="&#x1ec9;" horiz-adv-x="276" 
d="M224 0h-173v492h173v-492zM168 524l-81 17c12 50 53 65 53 102c0 18 -12 30 -28 30c-18 0 -31 -18 -39 -32l-54 35c23 48 66 81 125 81c58 0 102 -38 102 -90c0 -68 -57 -92 -78 -143z" />
    <glyph glyph-name="uni1ECA" unicode="&#x1eca;" horiz-adv-x="294" 
d="M61 674h173v-674h-173v674zM149 -230h-1c-42 0 -76 34 -76 75c0 42 34 75 77 75c41 0 73 -33 73 -75c0 -41 -32 -75 -73 -75z" />
    <glyph glyph-name="uni1ECB" unicode="&#x1ecb;" horiz-adv-x="276" 
d="M224 0h-173v492h173v-492zM137 710c52 0 87 -34 87 -84c1 -47 -35 -84 -88 -84c-51 0 -86 37 -86 84c0 50 36 84 87 84zM140 -80c41 0 73 -32 73 -77c0 -43 -31 -76 -74 -76s-76 33 -76 76c0 45 34 77 77 77z" />
    <glyph glyph-name="uni1ECC" unicode="&#x1ecc;" horiz-adv-x="660" 
d="M335 684c206 0 294 -173 294 -338c0 -228 -118 -356 -305 -356c-197 0 -294 164 -294 345c0 187 111 349 305 349zM331 544c-71 0 -119 -76 -119 -208c0 -136 48 -206 120 -206c74 0 115 83 115 210c0 116 -41 204 -116 204zM331 -230h-1c-42 0 -76 34 -76 75
c0 42 34 75 77 75c41 0 73 -33 73 -75c0 -41 -32 -75 -73 -75z" />
    <glyph glyph-name="uni1ECD" unicode="&#x1ecd;" horiz-adv-x="548" 
d="M279 502c147 0 239 -104 239 -252c0 -188 -127 -260 -245 -260c-142 0 -243 95 -243 253c0 162 101 259 249 259zM276 378c-53 0 -70 -67 -70 -132c0 -77 21 -132 71 -132c43 0 65 56 65 132c0 68 -19 132 -66 132zM276 -80c41 0 73 -32 73 -77c0 -43 -31 -76 -74 -76
s-76 33 -76 76c0 45 34 77 77 77z" />
    <glyph glyph-name="uni1ECE" unicode="&#x1ece;" horiz-adv-x="660" 
d="M335 684c206 0 294 -173 294 -338c0 -228 -118 -356 -305 -356c-197 0 -294 164 -294 345c0 187 111 349 305 349zM331 544c-71 0 -119 -76 -119 -208c0 -136 48 -206 120 -206c74 0 115 83 115 210c0 116 -41 204 -116 204zM368 704l-78 17c15 45 47 54 47 85
c0 16 -12 28 -27 28c-17 0 -33 -19 -40 -32l-52 34c24 48 63 82 124 82c57 0 100 -42 100 -89c0 -60 -48 -74 -74 -125z" />
    <glyph glyph-name="uni1ECF" unicode="&#x1ecf;" horiz-adv-x="548" 
d="M279 502c147 0 239 -104 239 -252c0 -188 -127 -260 -245 -260c-142 0 -243 95 -243 253c0 162 101 259 249 259zM276 378c-53 0 -70 -67 -70 -132c0 -77 21 -132 71 -132c43 0 65 56 65 132c0 68 -19 132 -66 132zM304 524l-81 17c12 50 53 65 53 102
c0 18 -12 30 -28 30c-18 0 -31 -18 -39 -32l-54 35c23 48 66 81 125 81c58 0 102 -38 102 -90c0 -68 -57 -92 -78 -143z" />
    <glyph glyph-name="uni1ED0" unicode="&#x1ed0;" horiz-adv-x="660" 
d="M335 684c206 0 294 -173 294 -338c0 -228 -118 -356 -305 -356c-197 0 -294 164 -294 345c0 187 111 349 305 349zM331 544c-71 0 -119 -76 -119 -208c0 -136 48 -206 120 -206c74 0 115 83 115 210c0 116 -41 204 -116 204zM279 833h119l84 -123h-107l-36 58h-2l-36 -58
h-105zM502 919h142l-132 -119h-79z" />
    <glyph glyph-name="uni1ED1" unicode="&#x1ed1;" horiz-adv-x="548" 
d="M279 502c147 0 239 -104 239 -252c0 -188 -127 -260 -245 -260c-142 0 -243 95 -243 253c0 162 101 259 249 259zM276 378c-53 0 -70 -67 -70 -132c0 -77 21 -132 71 -132c43 0 65 56 65 132c0 68 -19 132 -66 132zM219 701h119l86 -151h-106l-38 82h-2l-39 -82h-107z
M459 800h124l-115 -154h-83z" />
    <glyph glyph-name="uni1ED2" unicode="&#x1ed2;" horiz-adv-x="660" 
d="M335 684c206 0 294 -173 294 -338c0 -228 -118 -356 -305 -356c-197 0 -294 164 -294 345c0 187 111 349 305 349zM331 544c-71 0 -119 -76 -119 -208c0 -136 48 -206 120 -206c74 0 115 83 115 210c0 116 -41 204 -116 204zM364 906h142l61 -118h-85zM275 833h119
l84 -123h-106l-36 58h-2l-37 -58h-104z" />
    <glyph glyph-name="uni1ED3" unicode="&#x1ed3;" horiz-adv-x="548" 
d="M279 502c147 0 239 -104 239 -252c0 -188 -127 -260 -245 -260c-142 0 -243 95 -243 253c0 162 101 259 249 259zM276 378c-53 0 -70 -67 -70 -132c0 -77 21 -132 71 -132c43 0 65 56 65 132c0 68 -19 132 -66 132zM320 802h123l62 -155h-82zM220 701h119l86 -151h-106
l-38 82h-2l-39 -82h-107z" />
    <glyph glyph-name="uni1ED4" unicode="&#x1ed4;" horiz-adv-x="660" 
d="M335 684c206 0 294 -173 294 -338c0 -228 -118 -356 -305 -356c-197 0 -294 164 -294 345c0 187 111 349 305 349zM331 544c-71 0 -119 -76 -119 -208c0 -136 48 -206 120 -206c74 0 115 83 115 210c0 116 -41 204 -116 204zM283 833h119l84 -123h-106l-37 58h-2l-36 -58
h-105zM530 758l-64 15c13 41 47 52 47 80c0 17 -12 29 -27 29c-19 0 -33 -19 -41 -34l-47 31c22 44 59 74 113 74c52 0 89 -35 89 -80c0 -54 -46 -66 -70 -115z" />
    <glyph glyph-name="uni1ED5" unicode="&#x1ed5;" horiz-adv-x="548" 
d="M279 502c147 0 239 -104 239 -252c0 -188 -127 -260 -245 -260c-142 0 -243 95 -243 253c0 162 101 259 249 259zM276 378c-53 0 -70 -67 -70 -132c0 -77 21 -132 71 -132c43 0 65 56 65 132c0 68 -19 132 -66 132zM218 701h119l86 -151h-106l-38 82h-2l-39 -82h-107z
M465 627l-70 14c13 41 43 50 43 78c0 15 -11 27 -25 27c-16 0 -30 -18 -37 -31l-48 32c23 44 59 75 115 75c51 0 91 -39 91 -82c0 -55 -45 -67 -69 -113z" />
    <glyph glyph-name="uni1ED6" unicode="&#x1ed6;" horiz-adv-x="660" 
d="M335 684c206 0 294 -173 294 -338c0 -228 -118 -356 -305 -356c-197 0 -294 164 -294 345c0 187 111 349 305 349zM331 544c-71 0 -119 -76 -119 -208c0 -136 48 -206 120 -206c74 0 115 83 115 210c0 116 -41 204 -116 204zM269 833h130l94 -123h-117l-41 56h-2l-41 -56
h-116zM272 850h-76c-2 69 29 116 83 116c27 0 46 -9 63 -18c16 -8 30 -15 43 -15c15 0 21 6 23 36h75c3 -84 -31 -118 -83 -118c-27 0 -46 11 -65 21c-17 8 -26 13 -39 13s-22 -12 -24 -35z" />
    <glyph glyph-name="uni1ED7" unicode="&#x1ed7;" horiz-adv-x="548" 
d="M279 502c147 0 239 -104 239 -252c0 -188 -127 -260 -245 -260c-142 0 -243 95 -243 253c0 162 101 259 249 259zM276 378c-53 0 -70 -67 -70 -132c0 -77 21 -132 71 -132c43 0 65 56 65 132c0 68 -19 132 -66 132zM214 680h120l93 -130h-109l-43 67h-2l-43 -67h-110z
M211 697h-76c-2 69 29 117 83 117c27 0 46 -9 63 -18c16 -8 30 -16 43 -16c15 0 21 7 23 37h75c3 -85 -31 -119 -83 -119c-27 0 -46 12 -65 21c-17 8 -26 13 -39 13s-22 -12 -24 -35z" />
    <glyph glyph-name="uni1ED8" unicode="&#x1ed8;" horiz-adv-x="660" 
d="M335 684c206 0 294 -173 294 -338c0 -228 -118 -356 -305 -356c-197 0 -294 164 -294 345c0 187 111 349 305 349zM331 544c-71 0 -119 -76 -119 -208c0 -136 48 -206 120 -206c74 0 115 83 115 210c0 116 -41 204 -116 204zM266 833h129l95 -123h-118l-40 56h-2l-41 -56
h-116zM331 -230h-1c-42 0 -76 34 -76 75c0 42 34 75 77 75c41 0 73 -33 73 -75c0 -41 -32 -75 -73 -75z" />
    <glyph glyph-name="uni1ED9" unicode="&#x1ed9;" horiz-adv-x="548" 
d="M279 502c147 0 239 -104 239 -252c0 -188 -127 -260 -245 -260c-142 0 -243 95 -243 253c0 162 101 259 249 259zM276 378c-53 0 -70 -67 -70 -132c0 -77 21 -132 71 -132c43 0 65 56 65 132c0 68 -19 132 -66 132zM216 701h116l97 -151h-110l-44 82h-2l-44 -82h-111z
M276 -80c41 0 73 -32 73 -77c0 -43 -31 -76 -74 -76s-76 33 -76 76c0 45 34 77 77 77z" />
    <glyph glyph-name="uni1EDA" unicode="&#x1eda;" horiz-adv-x="660" 
d="M332 130c74 0 115 83 115 210c0 116 -41 204 -116 204s-119 -88 -119 -206c-1 -125 44 -208 120 -208zM540 738l120 20c13 -27 25 -62 25 -106c0 -61 -32 -106 -98 -115c25 -48 42 -111 42 -191c0 -228 -118 -356 -305 -356c-197 0 -294 164 -294 345
c0 187 111 349 305 349c45 0 85 -9 116 -20c35 -14 64 -35 84 -35c19 0 29 11 29 34c0 26 -12 53 -24 75zM334 833h174l-121 -123h-132z" />
    <glyph glyph-name="uni1EDB" unicode="&#x1edb;" horiz-adv-x="558" 
d="M276 378c-53 0 -70 -67 -70 -132c0 -77 21 -132 71 -132c43 0 65 56 65 132c0 68 -19 132 -66 132zM439 568l118 18c13 -26 24 -62 24 -101c0 -60 -33 -97 -89 -109c15 -33 26 -75 26 -126c0 -188 -127 -260 -245 -260c-142 0 -243 95 -243 253c0 162 101 259 249 259
c33 0 61 -5 85 -13c24 -7 52 -25 70 -25s28 10 28 31c0 26 -10 51 -23 73zM276 701h151l-115 -151h-115z" />
    <glyph glyph-name="uni1EDC" unicode="&#x1edc;" horiz-adv-x="660" 
d="M332 130c74 0 115 83 115 210c0 116 -41 204 -116 204s-119 -88 -119 -206c-1 -125 44 -208 120 -208zM540 738l120 20c13 -27 25 -62 25 -106c0 -61 -32 -106 -98 -115c25 -48 42 -111 42 -191c0 -228 -118 -356 -305 -356c-197 0 -294 164 -294 345
c0 187 111 349 305 349c45 0 85 -9 116 -20c35 -14 64 -35 84 -35c19 0 29 11 29 34c0 26 -12 53 -24 75zM164 833h173l80 -121h-133z" />
    <glyph glyph-name="uni1EDD" unicode="&#x1edd;" horiz-adv-x="558" 
d="M276 378c-53 0 -70 -67 -70 -132c0 -77 21 -132 71 -132c43 0 65 56 65 132c0 68 -19 132 -66 132zM439 568l118 18c13 -26 24 -62 24 -101c0 -60 -33 -97 -89 -109c15 -33 26 -75 26 -126c0 -188 -127 -260 -245 -260c-142 0 -243 95 -243 253c0 162 101 259 249 259
c33 0 61 -5 85 -13c24 -7 52 -25 70 -25s28 10 28 31c0 26 -10 51 -23 73zM123 701h150l79 -151h-114z" />
    <glyph glyph-name="uni1EDE" unicode="&#x1ede;" horiz-adv-x="660" 
d="M332 130c74 0 115 83 115 210c0 116 -41 204 -116 204s-119 -88 -119 -206c-1 -125 44 -208 120 -208zM540 738l120 20c13 -27 25 -62 25 -106c0 -61 -32 -106 -98 -115c25 -48 42 -111 42 -191c0 -228 -118 -356 -305 -356c-197 0 -294 164 -294 345
c0 187 111 349 305 349c45 0 85 -9 116 -20c35 -14 64 -35 84 -35c19 0 29 11 29 34c0 26 -12 53 -24 75zM368 704l-78 17c15 45 47 54 47 85c0 16 -12 28 -27 28c-17 0 -33 -19 -40 -32l-52 34c24 48 63 82 124 82c57 0 100 -42 100 -89c0 -60 -48 -74 -74 -125z" />
    <glyph glyph-name="uni1EDF" unicode="&#x1edf;" horiz-adv-x="558" 
d="M276 378c-53 0 -70 -67 -70 -132c0 -77 21 -132 71 -132c43 0 65 56 65 132c0 68 -19 132 -66 132zM439 568l118 18c13 -26 24 -62 24 -101c0 -60 -33 -97 -89 -109c15 -33 26 -75 26 -126c0 -188 -127 -260 -245 -260c-142 0 -243 95 -243 253c0 162 101 259 249 259
c33 0 61 -5 85 -13c24 -7 52 -25 70 -25s28 10 28 31c0 26 -10 51 -23 73zM304 524l-81 17c12 50 53 65 53 102c0 18 -12 30 -28 30c-18 0 -31 -18 -39 -32l-54 35c23 48 66 81 125 81c58 0 102 -38 102 -90c0 -68 -57 -92 -78 -143z" />
    <glyph glyph-name="uni1EE0" unicode="&#x1ee0;" horiz-adv-x="660" 
d="M332 130c74 0 115 83 115 210c0 116 -41 204 -116 204s-119 -88 -119 -206c-1 -125 44 -208 120 -208zM540 738l120 20c13 -27 25 -62 25 -106c0 -61 -32 -106 -98 -115c25 -48 42 -111 42 -191c0 -228 -118 -356 -305 -356c-197 0 -294 164 -294 345
c0 187 111 349 305 349c45 0 85 -9 116 -20c35 -14 64 -35 84 -35c19 0 29 11 29 34c0 26 -12 53 -24 75zM270 715h-76c-3 92 30 135 78 135c27 0 46 -9 62 -19s30 -19 41 -19c16 0 21 10 25 42h75c3 -99 -28 -133 -81 -133c-27 0 -47 9 -63 18s-26 17 -39 17
c-10 0 -20 -13 -22 -41z" />
    <glyph glyph-name="uni1EE1" unicode="&#x1ee1;" horiz-adv-x="558" 
d="M276 378c-53 0 -70 -67 -70 -132c0 -77 21 -132 71 -132c43 0 65 56 65 132c0 68 -19 132 -66 132zM439 568l118 18c13 -26 24 -62 24 -101c0 -60 -33 -97 -89 -109c15 -33 26 -75 26 -126c0 -188 -127 -260 -245 -260c-142 0 -243 95 -243 253c0 162 101 259 249 259
c33 0 61 -5 85 -13c24 -7 52 -25 70 -25s28 10 28 31c0 26 -10 51 -23 73zM206 554h-78c-2 86 30 139 84 139c27 0 47 -10 65 -20c15 -9 28 -18 41 -18c15 0 21 7 23 43h76c2 -99 -32 -136 -84 -136c-27 0 -48 11 -67 20c-17 9 -24 16 -37 16s-22 -14 -23 -44z" />
    <glyph glyph-name="uni1EE2" unicode="&#x1ee2;" horiz-adv-x="660" 
d="M332 130c74 0 115 83 115 210c0 116 -41 204 -116 204s-119 -88 -119 -206c-1 -125 44 -208 120 -208zM540 738l120 20c13 -27 25 -62 25 -106c0 -61 -32 -106 -98 -115c25 -48 42 -111 42 -191c0 -228 -118 -356 -305 -356c-197 0 -294 164 -294 345
c0 187 111 349 305 349c45 0 85 -9 116 -20c35 -14 64 -35 84 -35c19 0 29 11 29 34c0 26 -12 53 -24 75zM331 -230h-1c-42 0 -76 34 -76 75c0 42 34 75 77 75c41 0 73 -33 73 -75c0 -41 -32 -75 -73 -75z" />
    <glyph glyph-name="uni1EE3" unicode="&#x1ee3;" horiz-adv-x="558" 
d="M276 378c-53 0 -70 -67 -70 -132c0 -77 21 -132 71 -132c43 0 65 56 65 132c0 68 -19 132 -66 132zM439 568l118 18c13 -26 24 -62 24 -101c0 -60 -33 -97 -89 -109c15 -33 26 -75 26 -126c0 -188 -127 -260 -245 -260c-142 0 -243 95 -243 253c0 162 101 259 249 259
c33 0 61 -5 85 -13c24 -7 52 -25 70 -25s28 10 28 31c0 26 -10 51 -23 73zM281 -80c41 0 73 -32 73 -77c0 -43 -31 -76 -74 -76s-76 33 -76 76c0 45 34 77 77 77z" />
    <glyph glyph-name="uni1EE4" unicode="&#x1ee4;" horiz-adv-x="643" 
d="M58 674h173v-397c0 -98 32 -146 90 -146c59 0 91 42 91 146v397h173v-381c0 -198 -92 -303 -267 -303c-177 0 -260 104 -260 306v378zM323 -230h-1c-42 0 -76 34 -76 75c0 42 34 75 77 75c41 0 73 -33 73 -75c0 -41 -32 -75 -73 -75z" />
    <glyph glyph-name="uni1EE5" unicode="&#x1ee5;" horiz-adv-x="561" 
d="M508 492v-328c0 -64 2 -120 4 -164h-149l-8 61h-3c-20 -30 -63 -71 -140 -71c-106 0 -162 70 -162 211v291h172v-266c0 -62 19 -96 57 -96c27 0 43 18 50 35c4 8 6 19 6 31v296h173zM283 -80c41 0 73 -32 73 -77c0 -43 -31 -76 -74 -76s-76 33 -76 76c0 45 34 77 77 77z
" />
    <glyph glyph-name="uni1EE6" unicode="&#x1ee6;" horiz-adv-x="643" 
d="M58 674h173v-397c0 -98 32 -146 90 -146c59 0 91 42 91 146v397h173v-381c0 -198 -92 -303 -267 -303c-177 0 -260 104 -260 306v378zM359 704l-78 17c15 45 47 54 47 85c0 16 -12 28 -27 28c-17 0 -33 -19 -40 -32l-52 34c24 48 63 82 124 82c57 0 100 -42 100 -89
c0 -60 -48 -74 -74 -125z" />
    <glyph glyph-name="uni1EE7" unicode="&#x1ee7;" horiz-adv-x="561" 
d="M508 492v-328c0 -64 2 -120 4 -164h-149l-8 61h-3c-20 -30 -63 -71 -140 -71c-106 0 -162 70 -162 211v291h172v-266c0 -62 19 -96 57 -96c27 0 43 18 50 35c4 8 6 19 6 31v296h173zM311 524l-81 17c12 50 53 65 53 102c0 18 -12 30 -28 30c-18 0 -31 -18 -39 -32l-54 35
c23 48 66 81 125 81c58 0 102 -38 102 -90c0 -68 -57 -92 -78 -143z" />
    <glyph glyph-name="uni1EE8" unicode="&#x1ee8;" horiz-adv-x="691" 
d="M563 779l119 18c14 -28 23 -63 23 -99c0 -63 -34 -104 -105 -113l-15 -2v-290c0 -198 -92 -303 -267 -303c-177 0 -260 104 -260 306v378h173v-397c0 -98 32 -146 90 -146c59 0 91 42 91 146v397h125c37 0 48 10 48 35c0 23 -8 47 -22 70zM315 833h174l-121 -123h-132z
" />
    <glyph glyph-name="uni1EE9" unicode="&#x1ee9;" horiz-adv-x="561" 
d="M460 598l119 18c14 -28 23 -62 23 -97c0 -61 -38 -96 -88 -104l-6 -1v-250c0 -64 2 -120 4 -164h-149l-8 61h-3c-20 -30 -63 -71 -140 -71c-106 0 -162 70 -162 211v291h172v-266c0 -62 19 -96 57 -96c27 0 43 18 50 35c4 8 6 19 6 31v296h101c37 0 47 15 47 37
s-9 46 -23 69zM298 701h151l-115 -151h-115z" />
    <glyph glyph-name="uni1EEA" unicode="&#x1eea;" horiz-adv-x="691" 
d="M563 779l119 18c14 -28 23 -63 23 -99c0 -63 -34 -104 -105 -113l-15 -2v-290c0 -198 -92 -303 -267 -303c-177 0 -260 104 -260 306v378h173v-397c0 -98 32 -146 90 -146c59 0 91 42 91 146v397h125c37 0 48 10 48 35c0 23 -8 47 -22 70zM152 833h173l80 -121h-133z" />
    <glyph glyph-name="uni1EEB" unicode="&#x1eeb;" horiz-adv-x="561" 
d="M460 598l119 18c14 -28 23 -62 23 -97c0 -61 -38 -96 -88 -104l-6 -1v-250c0 -64 2 -120 4 -164h-149l-8 61h-3c-20 -30 -63 -71 -140 -71c-106 0 -162 70 -162 211v291h172v-266c0 -62 19 -96 57 -96c27 0 43 18 50 35c4 8 6 19 6 31v296h101c37 0 47 15 47 37
s-9 46 -23 69zM135 701h150l79 -151h-114z" />
    <glyph glyph-name="uni1EEC" unicode="&#x1eec;" horiz-adv-x="691" 
d="M563 779l119 18c14 -28 23 -63 23 -99c0 -63 -34 -104 -105 -113l-15 -2v-290c0 -198 -92 -303 -267 -303c-177 0 -260 104 -260 306v378h173v-397c0 -98 32 -146 90 -146c59 0 91 42 91 146v397h125c37 0 48 10 48 35c0 23 -8 47 -22 70zM383 704l-78 17
c15 45 47 54 47 85c0 16 -12 28 -27 28c-17 0 -33 -19 -40 -32l-52 34c24 48 63 82 124 82c57 0 100 -42 100 -89c0 -60 -48 -74 -74 -125z" />
    <glyph glyph-name="uni1EED" unicode="&#x1eed;" horiz-adv-x="561" 
d="M460 598l119 18c14 -28 23 -62 23 -97c0 -61 -38 -96 -88 -104l-6 -1v-250c0 -64 2 -120 4 -164h-149l-8 61h-3c-20 -30 -63 -71 -140 -71c-106 0 -162 70 -162 211v291h172v-266c0 -62 19 -96 57 -96c27 0 43 18 50 35c4 8 6 19 6 31v296h101c37 0 47 15 47 37
s-9 46 -23 69zM319 524l-81 17c12 50 53 65 53 102c0 18 -12 30 -28 30c-18 0 -31 -18 -39 -32l-54 35c23 48 66 81 125 81c58 0 102 -38 102 -90c0 -68 -57 -92 -78 -143z" />
    <glyph glyph-name="uni1EEE" unicode="&#x1eee;" horiz-adv-x="691" 
d="M563 779l119 18c14 -28 23 -63 23 -99c0 -63 -34 -104 -105 -113l-15 -2v-290c0 -198 -92 -303 -267 -303c-177 0 -260 104 -260 306v378h173v-397c0 -98 32 -146 90 -146c59 0 91 42 91 146v397h125c37 0 48 10 48 35c0 23 -8 47 -22 70zM280 715h-76
c-3 92 30 135 78 135c27 0 46 -9 62 -19s30 -19 41 -19c16 0 21 10 25 42h75c3 -99 -28 -133 -81 -133c-27 0 -47 9 -63 18s-26 17 -39 17c-10 0 -20 -13 -22 -41z" />
    <glyph glyph-name="uni1EEF" unicode="&#x1eef;" horiz-adv-x="561" 
d="M460 598l119 18c14 -28 23 -62 23 -97c0 -61 -38 -96 -88 -104l-6 -1v-250c0 -64 2 -120 4 -164h-149l-8 61h-3c-20 -30 -63 -71 -140 -71c-106 0 -162 70 -162 211v291h172v-266c0 -62 19 -96 57 -96c27 0 43 18 50 35c4 8 6 19 6 31v296h101c37 0 47 15 47 37
s-9 46 -23 69zM217 554h-78c-2 86 30 139 84 139c27 0 47 -10 65 -20c15 -9 28 -18 41 -18c15 0 21 7 23 43h76c2 -99 -32 -136 -84 -136c-27 0 -48 11 -67 20c-17 9 -24 16 -37 16s-22 -14 -23 -44z" />
    <glyph glyph-name="uni1EF0" unicode="&#x1ef0;" horiz-adv-x="691" 
d="M563 779l119 18c14 -28 23 -63 23 -99c0 -63 -34 -104 -105 -113l-15 -2v-290c0 -198 -92 -303 -267 -303c-177 0 -260 104 -260 306v378h173v-397c0 -98 32 -146 90 -146c59 0 91 42 91 146v397h125c37 0 48 10 48 35c0 23 -8 47 -22 70zM347 -80c41 0 73 -32 73 -77
c0 -43 -31 -76 -74 -76s-76 33 -76 76c0 45 34 77 77 77z" />
    <glyph glyph-name="uni1EF1" unicode="&#x1ef1;" horiz-adv-x="561" 
d="M460 598l119 18c14 -28 23 -62 23 -97c0 -61 -38 -96 -88 -104l-6 -1v-250c0 -64 2 -120 4 -164h-149l-8 61h-3c-20 -30 -63 -71 -140 -71c-106 0 -162 70 -162 211v291h172v-266c0 -62 19 -96 57 -96c27 0 43 18 50 35c4 8 6 19 6 31v296h101c37 0 47 15 47 37
s-9 46 -23 69zM281 -80c41 0 73 -32 73 -77c0 -43 -31 -76 -74 -76s-76 33 -76 76c0 45 34 77 77 77z" />
    <glyph glyph-name="Ygrave" unicode="&#x1ef2;" horiz-adv-x="562" 
d="M363 0h-173v264l-193 410h195l52 -153c16 -46 27 -84 40 -129h2c11 42 23 83 38 130l48 152h191l-200 -403v-271zM115 833h173l80 -121h-133z" />
    <glyph glyph-name="ygrave" unicode="&#x1ef3;" horiz-adv-x="505" 
d="M107 701h150l79 -151h-114zM4 492h190l53 -228c6 -27 14 -59 19 -84h3c5 25 10 58 15 83l41 229h180l-107 -341c-57 -168 -101 -246 -153 -296c-53 -50 -113 -70 -151 -74l-40 146c20 4 41 12 62 23c22 10 42 29 53 46c5 7 9 14 9 21c0 6 -2 14 -7 24z" />
    <glyph glyph-name="uni1EF4" unicode="&#x1ef4;" horiz-adv-x="562" 
d="M363 0h-173v264l-193 410h195l52 -153c16 -46 27 -84 40 -129h2c11 42 23 83 38 130l48 152h191l-200 -403v-271zM283 -230h-1c-42 0 -76 34 -76 75c0 42 34 75 77 75c41 0 73 -33 73 -75c0 -41 -32 -75 -73 -75z" />
    <glyph glyph-name="uni1EF5" unicode="&#x1ef5;" horiz-adv-x="505" 
d="M4 492h190l53 -228c6 -27 14 -59 19 -84h3c5 25 10 58 15 83l41 229h180l-107 -341c-57 -168 -101 -246 -153 -296c-53 -50 -113 -70 -151 -74l-40 146c20 4 41 12 62 23c22 10 42 29 53 46c5 7 9 14 9 21c0 6 -2 14 -7 24zM410 -80c41 0 73 -32 73 -77
c0 -43 -31 -76 -74 -76s-76 33 -76 76c0 45 34 77 77 77z" />
    <glyph glyph-name="uni1EF6" unicode="&#x1ef6;" horiz-adv-x="562" 
d="M363 0h-173v264l-193 410h195l52 -153c16 -46 27 -84 40 -129h2c11 42 23 83 38 130l48 152h191l-200 -403v-271zM319 704l-78 17c15 45 47 54 47 85c0 16 -12 28 -27 28c-17 0 -33 -19 -40 -32l-52 34c24 48 63 82 124 82c57 0 100 -42 100 -89c0 -60 -48 -74 -74 -125z
" />
    <glyph glyph-name="uni1EF7" unicode="&#x1ef7;" horiz-adv-x="505" 
d="M4 492h190l53 -228c6 -27 14 -59 19 -84h3c5 25 10 58 15 83l41 229h180l-107 -341c-57 -168 -101 -246 -153 -296c-53 -50 -113 -70 -151 -74l-40 146c20 4 41 12 62 23c22 10 42 29 53 46c5 7 9 14 9 21c0 6 -2 14 -7 24zM294 524l-81 17c12 50 53 65 53 102
c0 18 -12 30 -28 30c-18 0 -31 -18 -39 -32l-54 35c23 48 66 81 125 81c58 0 102 -38 102 -90c0 -68 -57 -92 -78 -143z" />
    <glyph glyph-name="uni1EF8" unicode="&#x1ef8;" horiz-adv-x="562" 
d="M363 0h-173v264l-193 410h195l52 -153c16 -46 27 -84 40 -129h2c11 42 23 83 38 130l48 152h191l-200 -403v-271zM216 715h-76c-3 92 30 135 78 135c27 0 46 -9 62 -19s30 -19 41 -19c16 0 21 10 25 42h75c3 -99 -28 -133 -81 -133c-27 0 -47 9 -63 18s-26 17 -39 17
c-10 0 -20 -13 -22 -41z" />
    <glyph glyph-name="uni1EF9" unicode="&#x1ef9;" horiz-adv-x="505" 
d="M199 554h-78c-2 86 30 139 84 139c27 0 47 -10 65 -20c15 -9 28 -18 41 -18c15 0 21 7 23 43h76c2 -99 -32 -136 -84 -136c-27 0 -48 11 -67 20c-17 9 -24 16 -37 16s-22 -14 -23 -44zM4 492h190l53 -228c6 -27 14 -59 19 -84h3c5 25 10 58 15 83l41 229h180l-107 -341
c-57 -168 -101 -246 -153 -296c-53 -50 -113 -70 -151 -74l-40 146c20 4 41 12 62 23c22 10 42 29 53 46c5 7 9 14 9 21c0 6 -2 14 -7 24z" />
    <glyph glyph-name="endash" unicode="&#x2013;" horiz-adv-x="500" 
d="M30 309h440v-107h-440v107z" />
    <glyph glyph-name="emdash" unicode="&#x2014;" horiz-adv-x="1000" 
d="M30 309h940v-107h-940v107z" />
    <glyph glyph-name="quoteleft" unicode="&#x2018;" horiz-adv-x="257" 
d="M170 412l-153 -9c33 100 76 191 129 277l98 10c-34 -96 -59 -187 -74 -278z" />
    <glyph glyph-name="quoteright" unicode="&#x2019;" horiz-adv-x="257" 
d="M88 680l154 10c-33 -101 -77 -191 -129 -278l-99 -9c34 96 60 186 74 277z" />
    <glyph glyph-name="quotesinglbase" unicode="&#x201a;" horiz-adv-x="257" 
d="M108 -91l-99 -9c34 96 60 186 74 278l153 9c-33 -101 -76 -191 -128 -278z" />
    <glyph glyph-name="quotedblleft" unicode="&#x201c;" horiz-adv-x="453" 
d="M168 412l-154 -9c33 100 77 191 129 277l99 10c-34 -96 -60 -187 -74 -278zM369 412l-154 -9c33 100 76 191 129 277l98 10c-33 -96 -59 -187 -73 -278z" />
    <glyph glyph-name="quotedblright" unicode="&#x201d;" horiz-adv-x="453" 
d="M86 680l153 10c-33 -101 -76 -191 -129 -278l-98 -9c34 96 59 186 74 277zM286 680l154 10c-33 -101 -76 -191 -129 -278l-98 -9c33 96 59 186 73 277z" />
    <glyph glyph-name="quotedblbase" unicode="&#x201e;" horiz-adv-x="457" 
d="M105 -91l-98 -9c33 96 59 186 73 278l154 9c-33 -101 -76 -191 -129 -278zM306 -91l-99 -9c34 96 60 186 74 278l154 9c-33 -101 -76 -191 -129 -278z" />
    <glyph glyph-name="dagger" unicode="&#x2020;" horiz-adv-x="507" 
d="M178 674h152l-13 -193l159 11v-133l-159 12l13 -421h-152l13 421l-160 -12v133l160 -11z" />
    <glyph glyph-name="daggerdbl" unicode="&#x2021;" horiz-adv-x="507" 
d="M178 674h151l-11 -177l158 11v-133l-158 11v-142l158 12v-134l-158 11l11 -183h-151l10 183l-157 -11v134l158 -12v142l-158 -11v133l158 -11z" />
    <glyph glyph-name="bullet" unicode="&#x2022;" horiz-adv-x="344" 
d="M172 130h-1c-72 0 -131 56 -131 133c-1 78 59 135 132 135s132 -56 132 -134s-57 -134 -132 -134z" />
    <glyph glyph-name="ellipsis" unicode="&#x2026;" horiz-adv-x="1000" 
d="M166 -10h-1c-55 0 -97 42 -97 103s43 104 98 104c57 0 98 -41 99 -104c0 -61 -40 -103 -99 -103zM500 -10h-1c-55 0 -97 42 -97 103s43 104 98 104c57 0 98 -41 99 -104c0 -61 -40 -103 -99 -103zM834 -10h-1c-55 0 -97 42 -97 103s43 104 98 104c57 0 98 -41 99 -104
c0 -61 -40 -103 -99 -103z" />
    <glyph glyph-name="perthousand" unicode="&#x2030;" horiz-adv-x="1228" 
d="M197 660h1c116 0 169 -97 169 -194c0 -136 -84 -207 -173 -207c-105 0 -172 88 -172 197c0 106 63 204 175 204zM195 569h-1c-34 0 -49 -42 -49 -109c-1 -71 17 -110 51 -110c32 0 48 35 48 109c0 67 -13 110 -49 110zM282 -10h-88l364 669h88zM650 392h1
c116 0 168 -97 168 -194c0 -136 -84 -207 -173 -207c-104 0 -172 88 -172 197c0 106 63 204 176 204zM648 301h-1c-34 0 -50 -42 -50 -109c-1 -71 17 -110 52 -110c31 0 48 36 48 109c0 67 -14 110 -49 110zM1036 392h1c116 0 168 -97 168 -194c0 -136 -84 -207 -173 -207
c-104 0 -171 88 -171 197c0 106 63 204 175 204zM1034 301h-1c-34 0 -50 -42 -50 -109c0 -71 18 -110 52 -110c32 0 48 36 48 109c0 67 -13 110 -49 110z" />
    <glyph glyph-name="guilsinglleft" unicode="&#x2039;" horiz-adv-x="261" 
d="M246 444l-112 -192l112 -192h-116l-109 192l108 192h117z" />
    <glyph glyph-name="guilsinglright" unicode="&#x203a;" horiz-adv-x="261" 
d="M127 252l-112 192h116l109 -192l-109 -192h-116z" />
    <glyph glyph-name="fraction" unicode="&#x2044;" horiz-adv-x="125" 
d="M-73 -10h-89l361 670h89z" />
    <glyph glyph-name="zero.superior" unicode="&#x2070;" horiz-adv-x="368" 
d="M185 430h-1c-121 0 -165 100 -165 200c0 101 45 200 164 200c122 0 166 -102 166 -201c0 -106 -50 -199 -164 -199zM185 519h1c23 0 40 29 40 111c0 80 -17 111 -42 111s-42 -31 -42 -111c0 -81 17 -111 43 -111z" />
    <glyph glyph-name="four.superior" unicode="&#x2074;" horiz-adv-x="384" 
d="M316 435h-118v84h-180v72l155 237h143v-226h47v-83h-47v-84zM198 602v56c0 25 3 51 4 74h-2c-11 -22 -21 -44 -32 -62l-40 -67l2 -1h68z" />
    <glyph glyph-name="five.superior" unicode="&#x2075;" horiz-adv-x="342" 
d="M294 825v-96h-149l-5 -36h21c36 0 81 -7 111 -30c26 -21 42 -53 42 -93c0 -77 -65 -140 -180 -140c-42 0 -90 10 -113 20l18 88c18 -8 54 -18 88 -18c30 0 67 11 67 43c0 34 -31 50 -106 50c-17 0 -35 -1 -49 -3l25 215h230z" />
    <glyph glyph-name="six.superior" unicode="&#x2076;" horiz-adv-x="356" 
d="M290 829v-89c-9 1 -23 1 -35 0c-66 -2 -101 -25 -115 -63l2 -1c18 13 45 22 75 22c69 0 119 -46 119 -124c0 -87 -71 -144 -151 -144c-116 0 -164 84 -164 171c0 73 26 133 70 172c41 35 91 53 158 56c18 1 33 1 41 0zM182 516h1c23 0 35 26 35 54c0 22 -9 51 -42 51
c-18 0 -32 -13 -37 -26c-2 -5 -3 -13 -3 -24c0 -25 16 -55 46 -55z" />
    <glyph glyph-name="seven.superior" unicode="&#x2077;" horiz-adv-x="327" 
d="M21 825h291v-73l-152 -317h-124l152 292v2h-167v96z" />
    <glyph glyph-name="eight.superior" unicode="&#x2078;" horiz-adv-x="357" 
d="M180 830h1c92 0 138 -49 138 -102c0 -33 -20 -64 -54 -81v-2c31 -12 69 -42 69 -94c0 -72 -60 -121 -160 -121c-108 0 -152 58 -152 110c0 45 28 74 67 92v1c-35 19 -55 51 -55 85c0 68 64 112 146 112zM179 509h1c21 0 36 16 36 37c0 29 -25 45 -45 50
c-20 -9 -33 -23 -33 -45c0 -23 17 -42 41 -42zM177 754h-1c-22 0 -34 -17 -34 -34c0 -18 17 -33 43 -42c15 4 27 20 27 37c0 20 -13 39 -35 39z" />
    <glyph glyph-name="nine.superior" unicode="&#x2079;" horiz-adv-x="351" 
d="M56 432v89c13 -1 26 -2 38 -1c25 1 52 6 71 15c25 12 41 33 47 51l-2 2c-12 -11 -36 -20 -67 -20c-62 0 -124 41 -124 122c0 77 65 140 154 140c112 0 158 -84 158 -169c0 -78 -26 -139 -69 -177c-41 -36 -98 -52 -169 -54c-13 0 -28 1 -37 2zM174 745h-1
c-20 0 -37 -20 -37 -50c0 -22 11 -51 40 -51c18 0 29 9 33 16c3 6 4 14 4 30c0 26 -10 55 -39 55z" />
    <glyph glyph-name="parenleft.superior" unicode="&#x207d;" horiz-adv-x="200" 
d="M104 862h83c-26 -50 -56 -134 -56 -239c0 -107 29 -186 56 -239h-83c-29 43 -67 125 -67 239c0 115 38 197 67 239z" />
    <glyph glyph-name="parenright.superior" unicode="&#x207e;" horiz-adv-x="200" 
d="M96 384h-83c27 54 56 135 56 240c0 104 -29 186 -56 238h83c29 -43 67 -124 67 -239c0 -112 -37 -194 -67 -239z" />
    <glyph glyph-name="zero.inferior" unicode="&#x2080;" horiz-adv-x="368" 
d="M185 -152h-1c-121 0 -165 100 -165 200c0 101 45 200 164 200c122 0 166 -102 166 -201c0 -106 -50 -199 -164 -199zM185 -63h1c23 0 40 29 40 111c0 80 -17 111 -42 111s-42 -31 -42 -111c0 -81 17 -111 43 -111z" />
    <glyph glyph-name="one.inferior" unicode="&#x2081;" horiz-adv-x="302" 
d="M244 -147h-129v285h-2l-78 -34l-19 91l115 48h113v-390z" />
    <glyph glyph-name="two.inferior" unicode="&#x2082;" horiz-adv-x="344" 
d="M14 -147v65l58 55c66 64 104 93 104 132c0 28 -20 42 -50 42c-29 0 -59 -10 -80 -25l-30 86c31 22 83 40 143 40c102 0 152 -54 152 -121c0 -72 -54 -115 -106 -159l-18 -15v-2h131v-98h-304z" />
    <glyph glyph-name="three.inferior" unicode="&#x2083;" horiz-adv-x="337" 
d="M44 138l-21 81c29 16 80 29 135 29c98 0 145 -46 145 -99c0 -45 -33 -75 -79 -89v-2c52 -6 92 -42 92 -90c0 -73 -72 -120 -181 -120c-51 0 -98 10 -125 25l21 87c21 -11 58 -23 90 -23s60 14 60 39c0 27 -35 43 -75 43h-26v76h22c33 0 71 8 71 33c0 19 -15 31 -46 31
s-62 -10 -83 -21z" />
    <glyph glyph-name="four.inferior" unicode="&#x2084;" horiz-adv-x="384" 
d="M316 -147h-118v84h-180v72l155 237h143v-226h47v-83h-47v-84zM198 20v56c0 25 3 51 4 74h-2c-11 -22 -21 -44 -32 -62l-40 -67l2 -1h68z" />
    <glyph glyph-name="five.inferior" unicode="&#x2085;" horiz-adv-x="342" 
d="M294 243v-96h-149l-5 -36h21c36 0 81 -7 111 -30c26 -21 42 -53 42 -93c0 -77 -65 -140 -180 -140c-42 0 -90 10 -113 20l18 88c18 -8 54 -18 88 -18c30 0 67 11 67 43c0 34 -31 50 -106 50c-17 0 -35 -1 -49 -3l25 215h230z" />
    <glyph glyph-name="six.inferior" unicode="&#x2086;" horiz-adv-x="356" 
d="M290 247v-89c-9 1 -23 1 -35 0c-66 -2 -101 -25 -115 -63l2 -1c18 13 45 22 75 22c69 0 119 -46 119 -124c0 -87 -71 -144 -151 -144c-116 0 -164 84 -164 171c0 73 26 133 70 172c41 35 91 53 158 56c18 1 33 1 41 0zM182 -66h1c23 0 35 26 35 54c0 22 -9 51 -42 51
c-18 0 -32 -13 -37 -26c-2 -5 -3 -13 -3 -24c0 -25 16 -55 46 -55z" />
    <glyph glyph-name="seven.inferior" unicode="&#x2087;" horiz-adv-x="327" 
d="M21 243h291v-73l-152 -317h-124l152 292v2h-167v96z" />
    <glyph glyph-name="eight.inferior" unicode="&#x2088;" horiz-adv-x="357" 
d="M180 248h1c92 0 138 -49 138 -102c0 -33 -20 -64 -54 -81v-2c31 -12 69 -42 69 -94c0 -72 -60 -121 -160 -121c-108 0 -152 58 -152 110c0 45 28 74 67 92v1c-35 19 -55 51 -55 85c0 68 64 112 146 112zM179 -73h1c21 0 36 16 36 37c0 29 -25 45 -45 50
c-20 -9 -33 -23 -33 -45c0 -23 17 -42 41 -42zM177 172h-1c-22 0 -34 -17 -34 -34c0 -18 17 -33 43 -42c15 4 27 20 27 37c0 20 -13 39 -35 39z" />
    <glyph glyph-name="nine.inferior" unicode="&#x2089;" horiz-adv-x="351" 
d="M56 -150v89c13 -1 26 -2 38 -1c25 1 52 6 71 15c25 12 41 33 47 51l-2 2c-12 -11 -36 -20 -67 -20c-62 0 -124 41 -124 122c0 77 65 140 154 140c112 0 158 -84 158 -169c0 -78 -26 -139 -69 -177c-41 -36 -98 -52 -169 -54c-13 0 -28 1 -37 2zM174 163h-1
c-20 0 -37 -20 -37 -50c0 -22 11 -51 40 -51c18 0 29 9 33 16c3 6 4 14 4 30c0 26 -10 55 -39 55z" />
    <glyph glyph-name="parenleft.inferior" unicode="&#x208d;" horiz-adv-x="200" 
d="M104 280h83c-26 -50 -56 -134 -56 -239c0 -107 29 -186 56 -239h-83c-29 43 -67 125 -67 239c0 115 38 197 67 239z" />
    <glyph glyph-name="parenright.inferior" unicode="&#x208e;" horiz-adv-x="200" 
d="M96 -198h-83c27 54 56 135 56 240c0 104 -29 186 -56 238h83c29 -43 67 -124 67 -239c0 -112 -37 -194 -67 -239z" />
    <glyph glyph-name="dong" unicode="&#x20ab;" horiz-adv-x="534" 
d="M80 108h379v-100h-379v100zM311 675h144v-53h58v-81h-58v-275c0 -43 2 -87 4 -114h-128l-7 46h-2c-22 -36 -66 -54 -109 -54c-94 0 -158 79 -158 186c0 122 77 189 165 189c41 0 72 -14 89 -35h2v57h-107v81h107v53zM311 306v55c0 6 0 12 -2 17c-4 21 -24 39 -49 39
c-42 0 -60 -38 -60 -85c0 -56 26 -82 59 -82c23 0 44 13 48 34c3 6 4 14 4 22z" />
    <glyph glyph-name="Euro" unicode="&#x20ac;" horiz-adv-x="534" 
d="M481 153l22 -131c-30 -15 -85 -32 -143 -32c-91 0 -178 36 -233 110c-26 32 -45 74 -55 127h-62v79h52v16c0 9 1 17 1 26h-53v79h64c11 48 32 89 58 123c55 70 135 110 232 110c56 0 105 -12 138 -26l-28 -133c-23 9 -60 21 -98 21c-41 0 -80 -14 -106 -52
c-8 -11 -14 -26 -20 -43h209v-79h-224c-1 -9 -1 -19 -1 -29v-13h225v-79h-211c5 -22 14 -39 24 -52c26 -31 66 -44 109 -44c37 0 80 12 100 22z" />
    <glyph glyph-name="afii61289" unicode="&#x2113;" horiz-adv-x="548" 
d="M270 473v-92c42 53 64 107 64 154c0 39 -11 59 -29 59c-19 0 -35 -21 -35 -121zM445 198l75 -77c-58 -100 -146 -133 -228 -133c-103 0 -163 49 -183 141c-1 1 -1 3 -1 4c-14 -10 -29 -19 -45 -29l-43 89c30 20 59 40 85 60v213c0 167 80 244 191 244
c100 0 162 -66 162 -172c0 -111 -63 -199 -188 -311v-20c0 -50 27 -76 67 -76c42 0 78 31 108 67z" />
    <glyph glyph-name="afii61352" unicode="&#x2116;" horiz-adv-x="926" 
d="M734 635h1c105 0 166 -72 166 -170c0 -130 -81 -177 -170 -177c-101 0 -169 64 -169 172c0 109 69 175 172 175zM731 551h-1c-30 0 -40 -56 -40 -91c0 -51 15 -89 42 -89c31 0 41 41 41 91c0 45 -13 89 -42 89zM876 170h-288v81h288v-81zM207 0h-147v650h178l76 -213
c21 -57 49 -141 71 -205h1c-6 71 -12 176 -12 285v133h147v-650h-169l-79 216c-23 61 -48 148 -71 213h-2c3 -73 7 -176 7 -291v-138z" />
    <glyph glyph-name="trademark" unicode="&#x2122;" horiz-adv-x="630" 
d="M25 674h229v-76h-68v-197h-94v197h-67v76zM620 401h-88l-3 102c0 34 1 72 0 119h-5c-8 -46 -15 -87 -21 -117l-18 -99h-85l-13 99c-4 29 -9 76 -15 117h-5c-1 -42 -1 -85 -3 -119l-4 -102h-85l14 273h142l6 -38c3 -24 6 -44 13 -96h1c6 37 12 65 18 96l8 38h131z" />
    </font>
</defs>
</svg>
