<svg xmlns="http://www.w3.org/2000/svg">
<defs>
<font id="HelveticaNeueAVON-Light" horiz-adv-x="556" >
  <font-face 
    font-family="HelveticaNeueAVON"
    font-weight="300"
    font-stretch="normal"
    units-per-em="1000"
    panose-1="2 11 4 3 2 2 2 2 2 4"
    ascent="714"
    descent="-286"
    x-height="516"
    cap-height="714"
    bbox="-166 -267 1050 967"
    underline-thickness="50"
    underline-position="-50"
    unicode-range="U+000D-U+FB04"
  />
<missing-glyph horiz-adv-x="512" 
d="M512 0h-512v718h512v-718zM50 667v-617h412v617h-412zM271 234h-46l-2 17q0 56 13 81q15 28 46 59q31 29 40.5 46t9.5 37q0 36 -22.5 60.5t-53.5 24.5q-71 0 -82 -95l-50 8q7 69 43 103t92 34q54 0 89 -36t35 -95q0 -34 -13 -60t-50 -60q-37 -33 -43 -52q-6 -20 -6 -72z
M278 117h-56v67h56v-67z" />
    <glyph glyph-name="IJ" unicode="IJ" horiz-adv-x="722" 
d="M77 0v714h68v-714h-68zM442 -15q-199 0 -199 244h68q0 -3 0.5 -19.5t1 -23.5t2.5 -24t5 -25.5l8 -23t11.5 -22.5t17 -19t23.5 -16t30 -9t38 -4q78 0 106 41.5t28 143.5v486h68v-515q0 -111 -47.5 -162.5t-160.5 -51.5z" />
    <glyph glyph-name="ij" unicode="ij" horiz-adv-x="370" 
d="M61 613v101h63v-101h-63zM61 0v516h63v-516h-63zM246 613v101h63v-101h-63zM246 -63v579h63v-564q0 -143 -110 -143q-7 0 -22 1t-22 1v52q23 -2 34 -1q34 0 45.5 19t11.5 56z" />
    <glyph glyph-name="napostrophe" unicode="&#x22;n" horiz-adv-x="645" 
d="M167 0v516h63v-89h2q18 46 64 75t101 29q104 0 146.5 -50.5t42.5 -148.5v-332h-63v322q0 156 -131 156q-74 0 -117 -49.5t-45 -127.5v-301h-63zM39 714h84v-107q0 -47 -23 -86t-66 -50v43q24 7 37 37.5t10 56.5h-42v106z" />
    <glyph glyph-name="f_f" unicode="ff" horiz-adv-x="501" 
d="M501 516v-53h-102v-463h-63v463h-179v-463h-63v463h-88v53h88v47q0 74 27 112.5t98 38.5q26 0 53 -4v-54q-28 5 -46 5q-20 0 -33.5 -5.5t-20.5 -13t-10.5 -23t-4 -26t-0.5 -32.5v-45h179v47q0 74 27 112.5t98 38.5q26 0 53 -4v-54q-28 5 -46 5q-20 0 -33.5 -5.5
t-20.5 -13t-10.5 -23t-4 -26t-0.5 -32.5v-45h102z" />
    <glyph glyph-name="fi" unicode="fi" horiz-adv-x="444" 
d="M320 613v101h63v-101h-63zM94 0v463h-88v53h88v47q0 74 27 112.5t98 38.5q26 0 53 -4v-54q-28 5 -46 5q-20 0 -33.5 -5.5t-20.5 -13t-10.5 -23t-4 -26t-0.5 -32.5v-45h102v-53h-102v-463h-63zM320 0v516h63v-516h-63z" />
    <glyph glyph-name="fl" unicode="fl" horiz-adv-x="444" 
d="M320 0v714h63v-714h-63zM94 0v463h-88v53h88v47q0 74 27 112.5t98 38.5q26 0 53 -4v-54q-28 5 -46 5q-20 0 -33.5 -5.5t-20.5 -13t-10.5 -23t-4 -26t-0.5 -32.5v-45h102v-53h-102v-463h-63z" />
    <glyph glyph-name="f_f_i" unicode="ffi" horiz-adv-x="686" 
d="M562 613v101h63v-101h-63zM562 0v516h63v-516h-63zM501 516v-53h-102v-463h-63v463h-179v-463h-63v463h-88v53h88v47q0 74 27 112.5t98 38.5q26 0 53 -4v-54q-28 5 -46 5q-20 0 -33.5 -5.5t-20.5 -13t-10.5 -23t-4 -26t-0.5 -32.5v-45h179v47q0 74 27 112.5t98 38.5
q26 0 53 -4v-54q-28 5 -46 5q-20 0 -33.5 -5.5t-20.5 -13t-10.5 -23t-4 -26t-0.5 -32.5v-45h102z" />
    <glyph glyph-name="f_f_l" unicode="ffl" horiz-adv-x="686" 
d="M562 0v714h63v-714h-63zM501 516v-53h-102v-463h-63v463h-179v-463h-63v463h-88v53h88v47q0 74 27 112.5t98 38.5q26 0 53 -4v-54q-28 5 -46 5q-20 0 -33.5 -5.5t-20.5 -13t-10.5 -23t-4 -26t-0.5 -32.5v-45h179v47q0 74 27 112.5t98 38.5q26 0 53 -4v-54q-28 5 -46 5
q-20 0 -33.5 -5.5t-20.5 -13t-10.5 -23t-4 -26t-0.5 -32.5v-45h102z" />
    <glyph glyph-name=".notdef" horiz-adv-x="512" 
d="M512 0h-512v718h512v-718zM50 667v-617h412v617h-412zM271 234h-46l-2 17q0 56 13 81q15 28 46 59q31 29 40.5 46t9.5 37q0 36 -22.5 60.5t-53.5 24.5q-71 0 -82 -95l-50 8q7 69 43 103t92 34q54 0 89 -36t35 -95q0 -34 -13 -60t-50 -60q-37 -33 -43 -52q-6 -20 -6 -72z
M278 117h-56v67h56v-67z" />
    <glyph glyph-name=".null" horiz-adv-x="500" 
 />
    <glyph glyph-name="nonmarkingreturn" horiz-adv-x="333" 
 />
    <glyph glyph-name="CR" unicode="&#xd;" horiz-adv-x="0" 
 />
    <glyph glyph-name="space" unicode=" " horiz-adv-x="278" 
 />
    <glyph glyph-name="exclam" unicode="!" horiz-adv-x="241" 
d="M102 178l-15 323v213h68v-213l-15 -323h-38zM79 0v106h84v-106h-84z" />
    <glyph glyph-name="quotedbl" unicode="&#x22;" horiz-adv-x="370" 
d="M220 471v243h63v-243h-63zM87 471v243h63v-243h-63z" />
    <glyph glyph-name="numbersign" unicode="#" 
d="M114 0l31 223h-110v45h116l22 156h-110v45h116l31 222h50l-31 -222h141l31 222h50l-31 -222h105v-45h-111l-22 -156h105v-45h-111l-31 -223h-50l31 223h-141l-31 -223h-50zM201 268h141l22 156h-141z" />
    <glyph glyph-name="dollar" unicode="$" 
d="M29 228h63q1 -171 165 -190v296q-49 10 -81.5 22t-64.5 34t-48 58t-16 86q0 88 60.5 141.5t149.5 53.5v78h39v-78q90 0 152 -60.5t60 -156.5h-63q-1 75 -42 119.5t-107 44.5v-288q51 -11 86 -23t71.5 -34.5t55 -59t18.5 -86.5q0 -94 -68.5 -147t-162.5 -53v-85h-39v86
q-116 11 -170 69t-58 173zM257 397v279q-65 0 -106 -37t-41 -112q0 -33 11 -56t36 -37.5t44 -21t56 -15.5zM296 38q70 0 119 36.5t49 109.5q0 34 -14 59t-42 41t-52 24.5t-60 17.5v-288z" />
    <glyph glyph-name="percent" unicode="%" horiz-adv-x="889" 
d="M190 -34l453 759h47l-452 -759h-48zM228 328q-81 0 -120 51.5t-39 137.5t39 137.5t120 51.5t120 -51.5t39 -137.5t-39 -137.5t-120 -51.5zM228 373q56 0 81 43t25 100q0 58 -25 101.5t-81 43.5q-40 0 -65 -24t-33 -54t-8 -67q0 -36 8 -66t33 -53.5t65 -23.5zM508 174
q0 86 39 137.5t120 51.5t120 -51.5t39 -137.5t-39 -137.5t-120 -51.5t-120 51.5t-39 137.5zM561 173q0 -36 8 -66t33 -53.5t65 -23.5q56 0 81 43t25 100q0 58 -25 101.5t-81 43.5q-40 0 -65 -24t-33 -54t-8 -67z" />
    <glyph glyph-name="ampersand" unicode="&#x26;" horiz-adv-x="611" 
d="M39 185q0 118 175 212l-16.5 21l-18.5 23.5t-16 22t-15.5 25.5l-10.5 24t-8.5 28t-2.5 28q0 64 45.5 104.5t112.5 40.5t112.5 -40.5t45.5 -104.5q0 -60 -36.5 -101.5t-103.5 -83.5l156 -188q21 43 21 120h63q0 -93 -42 -171l120 -145h-79l-76 93q-86 -108 -210 -108
q-95 0 -155.5 53t-60.5 147zM269 425q32 21 52 37t39 45t19 62q0 43 -27 67.5t-68 24.5t-68 -24.5t-27 -67.5q0 -23 15.5 -53t28 -46.5t36.5 -44.5zM102 179q0 -61 46.5 -101t108.5 -40q97 0 169 102l-178 216q-146 -78 -146 -177z" />
    <glyph glyph-name="quotesingle" unicode="'" horiz-adv-x="278" 
d="M108 471v243h63v-243h-63z" />
    <glyph glyph-name="parenleft" unicode="(" horiz-adv-x="241" 
d="M114 243q0 -107 35 -224.5t93 -209.5h-50q-71 118 -106 225.5t-35 231.5q0 245 141 463h50q-128 -206 -128 -486z" />
    <glyph glyph-name="parenright" unicode=")" horiz-adv-x="241" 
d="M-1 -191q128 206 128 486q0 106 -35 221t-93 213h50q71 -118 106 -225.5t35 -231.5q0 -245 -141 -463h-50z" />
    <glyph glyph-name="asterisk" unicode="*" horiz-adv-x="352" 
d="M101 435l-32 23l73 98l-115 39l14 37l115 -41v123h39v-123l115 41l15 -37l-118 -39l72 -98l-32 -23l-73 100z" />
    <glyph glyph-name="plus" unicode="+" horiz-adv-x="600" 
d="M49 225v53h225v225h53v-225h225v-53h-225v-225h-53v225h-225z" />
    <glyph glyph-name="comma" unicode="," horiz-adv-x="278" 
d="M97 0v106h84v-107q0 -47 -23 -86t-65 -50v43q22 8 35 38t11 56h-42z" />
    <glyph glyph-name="hyphen" unicode="-" horiz-adv-x="370" 
d="M60 246v58h250v-58h-250z" />
    <glyph glyph-name="period" unicode="." horiz-adv-x="278" 
d="M97 0v106h84v-106h-84z" />
    <glyph glyph-name="slash" unicode="/" horiz-adv-x="333" 
d="M-13 -15l308 744h51l-305 -744h-54z" />
    <glyph glyph-name="zero" unicode="0" 
d="M278 -15q-59 0 -103.5 22.5t-70.5 57t-42.5 84t-22 96t-5.5 100.5t5.5 101t22 96.5t42.5 84t70.5 57t103.5 22.5t103.5 -22.5t70.5 -57t42.5 -84t22 -96t5.5 -100.5t-5.5 -101t-22 -96.5t-42.5 -84t-70.5 -57t-103.5 -22.5zM278 38q181 0 181 308q0 307 -181 307
t-181 -307q0 -308 181 -308z" />
    <glyph glyph-name="one" unicode="1" 
d="M282 0v520h-185v45q41 1 62 3t48.5 9t41.5 21t26.5 39t18.5 63h51v-700h-63z" />
    <glyph glyph-name="two" unicode="2" 
d="M36 0q1 59 24.5 107t63 83t80 62.5l90 61.5t79.5 64q58 58 58 132q0 66 -45.5 104.5t-111.5 38.5q-81 0 -120.5 -55.5t-37.5 -139.5h-63q-2 112 55.5 180t168.5 68q95 0 156 -51.5t61 -145.5q0 -80 -47 -138t-129 -111q-7 -5 -44.5 -28.5t-56 -37t-46.5 -37t-43 -48.5
t-20 -51h389v-58h-461z" />
    <glyph glyph-name="three" unicode="3" 
d="M33 223h63q-4 -84 43.5 -134.5t131.5 -50.5q73 0 126 41.5t53 113.5t-47 110t-121 38h-53v53h53q55 0 98.5 32.5t43.5 94.5q0 66 -43 99t-110 33q-77 0 -119 -49t-40 -128h-63q0 101 60.5 165.5t160.5 64.5q90 0 153.5 -45.5t63.5 -132.5q0 -58 -31 -99.5t-87 -55.5v-2
q68 -11 106 -57t38 -116q0 -99 -69.5 -156t-171.5 -57q-111 0 -179 64t-60 174z" />
    <glyph glyph-name="four" unicode="4" 
d="M30 174v61l324 465h57v-473h105v-53h-105v-174h-58v174h-323zM87 227h266v381h-2z" />
    <glyph glyph-name="five" unicode="5" 
d="M36 200h63q2 -72 50.5 -117t121.5 -45q79 0 127 56t48 135q0 78 -50.5 130t-128.5 52q-101 0 -156 -83h-54l68 363h350v-58h-306l-45 -232l2 -2q26 30 66 47.5t82 17.5q107 0 171 -67.5t64 -174.5q0 -101 -71 -169t-172 -68q-99 0 -163.5 58.5t-66.5 156.5z" />
    <glyph glyph-name="six" unicode="6" 
d="M285 -15q-129 0 -187 85t-58 287q0 33 3.5 69t19 89t40.5 93t73.5 69t113.5 29q193 0 215 -183h-63q-8 59 -47 94.5t-99 35.5q-58 0 -98.5 -30t-60 -80.5t-27 -99t-7.5 -103.5h2q25 52 75.5 84t110.5 32q104 0 167.5 -65.5t63.5 -168.5t-66.5 -170t-170.5 -67zM116 218
q0 -80 43.5 -130t131.5 -50q73 0 120.5 52.5t47.5 127.5q0 79 -45.5 132t-123.5 53q-80 0 -127 -52.5t-47 -132.5z" />
    <glyph glyph-name="seven" unicode="7" 
d="M150 0q12 179 77.5 323.5t210.5 309.5h-387v58h450v-58q-32 -33 -62 -69.5t-70.5 -99t-70 -128t-52.5 -154.5t-28 -182h-68z" />
    <glyph glyph-name="eight" unicode="8" 
d="M37 196q2 70 40 118.5t102 60.5v2q-114 36 -114 154q0 84 63 129.5t149 45.5t149.5 -45.5t63.5 -129.5q0 -57 -30 -97.5t-84 -56.5v-2q68 -14 105.5 -61t37.5 -118q0 -101 -68.5 -156t-172.5 -55t-172.5 55t-68.5 156zM278 401q62 -2 105.5 32t43.5 98q0 58 -41.5 90
t-107.5 32q-62 0 -106 -32.5t-44 -89.5q0 -66 44.5 -99t105.5 -31zM100 196q0 -76 50 -117t128 -41q79 0 128.5 40t49.5 118q0 72 -52 113t-126 39q-76 2 -127 -38t-51 -114z" />
    <glyph glyph-name="nine" unicode="9" 
d="M51 168h63q8 -59 47 -94.5t99 -35.5q58 0 98.5 30t60 80.5t27 99t7.5 103.5h-2q-25 -52 -75.5 -84t-110.5 -32q-104 0 -167.5 65.5t-63.5 168.5t66.5 170t170.5 67q129 0 187 -85t58 -287q0 -33 -3.5 -69t-19 -89t-40.5 -93t-73.5 -69t-113.5 -29q-193 0 -215 183z
M266 288q80 0 127 52.5t47 132.5t-43.5 130t-131.5 50q-73 0 -120.5 -52.5t-47.5 -127.5q0 -79 45.5 -132t123.5 -53z" />
    <glyph glyph-name="colon" unicode=":" horiz-adv-x="278" 
d="M97 394v106h84v-106h-84zM97 0v106h84v-106h-84z" />
    <glyph glyph-name="semicolon" unicode=";" horiz-adv-x="278" 
d="M97 394v106h84v-106h-84zM97 0v106h84v-107q0 -47 -23 -86t-65 -50v43q22 8 35 38t11 56h-42z" />
    <glyph glyph-name="less" unicode="&#x3c;" horiz-adv-x="600" 
d="M46 226v54l508 234v-55l-446 -206l446 -206v-55z" />
    <glyph glyph-name="equal" unicode="=" horiz-adv-x="600" 
d="M49 325v53h503v-53h-503zM49 128v53h503v-53h-503z" />
    <glyph glyph-name="greater" unicode="&#x3e;" horiz-adv-x="600" 
d="M46 -8v55l446 206l-446 206v55l508 -234v-54z" />
    <glyph glyph-name="question" unicode="?" horiz-adv-x="537" 
d="M241 179q-2 85 21 127t94 106q65 61 65 129q0 59 -42 97t-101 38q-79 0 -121 -51t-40 -131h-63q0 107 60 171t167 64q86 0 144.5 -50.5t58.5 -134.5q0 -52 -22 -90.5t-65 -79.5l-31 -30.5l-24.5 -24t-15 -18.5t-12 -21t-5 -23.5t-4.5 -33t-1 -44.5h-63zM231 0v106h84
v-106h-84z" />
    <glyph glyph-name="at" unicode="@" horiz-adv-x="800" 
d="M193 274q0 70 29 135.5t84.5 109.5t123.5 44q74 0 106 -84l25 65h53l-96 -288q-25 -83 13 -83q65 0 117 80.5t52 167.5q0 120 -82 191.5t-202 71.5q-138 0 -227 -95.5t-89 -235.5q0 -136 91 -229.5t227 -93.5q74 0 144.5 36t113.5 97h51q-45 -81 -130 -129.5t-179 -48.5
q-161 0 -266 107.5t-105 267.5q0 156 106.5 262.5t260.5 106.5q146 0 242.5 -87t96.5 -224q0 -117 -72.5 -203.5t-159.5 -86.5q-27 0 -45.5 17.5t-21.5 49.5h-2q-64 -66 -127 -66q-60 0 -96 42t-36 103zM256 279q0 -44 23 -70.5t60 -26.5q64 0 115 81t51 154q0 35 -25 64
t-54 29q-71 0 -120.5 -76.5t-49.5 -154.5z" />
    <glyph glyph-name="A" unicode="A" horiz-adv-x="630" 
d="M-7 0l288 714h76l280 -714h-73l-87 222h-325l-86 -222h-73zM173 280h281l-138 366z" />
    <glyph glyph-name="B" unicode="B" horiz-adv-x="667" 
d="M72 0v714h302q65 0 113.5 -15t82 -56t33.5 -104q0 -57 -34.5 -102.5t-89.5 -57.5v-2q69 -9 110 -56.5t41 -117.5q0 -25 -4 -47.5t-19.5 -52.5t-41.5 -51.5t-75.5 -36.5t-115.5 -15h-302zM140 401h234q78 0 119.5 34t41.5 87q0 134 -161 134h-234v-255zM140 58h234
q188 0 188 147q0 68 -48.5 103t-139.5 35h-234v-285z" />
    <glyph glyph-name="C" unicode="C" horiz-adv-x="704" 
d="M38 357q0 75 21.5 141t62 118t106 82.5t147.5 30.5q108 0 190.5 -62t96.5 -169h-68q-18 81 -78.5 127t-140.5 46q-68 0 -121 -27t-84.5 -72t-47.5 -99.5t-16 -115.5t16 -115.5t47.5 -99.5t84.5 -72t121 -27q96 0 157.5 65t71.5 164h68q-14 -133 -93 -210t-204 -77
q-82 0 -147.5 30.5t-106 82.5t-62 118t-21.5 141z" />
    <glyph glyph-name="D" unicode="D" horiz-adv-x="685" 
d="M72 0v714h247q328 -8 328 -357t-328 -357h-247zM140 58h145q155 0 224.5 70t69.5 229t-69.5 229t-224.5 70h-145v-598z" />
    <glyph glyph-name="E" unicode="E" horiz-adv-x="593" 
d="M72 0v714h493v-58h-425v-258h398v-58h-398v-282h430v-58h-498z" />
    <glyph glyph-name="F" unicode="F" horiz-adv-x="537" 
d="M72 0v714h453v-58h-385v-258h342v-58h-342v-340h-68z" />
    <glyph glyph-name="G" unicode="G" horiz-adv-x="741" 
d="M38 357q0 75 21.5 141t62 118t106 82.5t147.5 30.5q116 0 197 -61.5t101 -175.5h-68q-7 67 -71 123t-159 56q-68 0 -121 -27t-84.5 -72t-47.5 -99.5t-16 -115.5t16 -115.5t47.5 -99.5t84.5 -72t121 -27q116 0 182.5 73t64.5 189h-243v58h303v-363h-49l-9 130h-2
q-34 -73 -99.5 -109t-147.5 -36t-147.5 30.5t-106 82.5t-62 118t-21.5 141z" />
    <glyph glyph-name="H" unicode="H" horiz-adv-x="704" 
d="M72 0v714h68v-310h424v310h68v-714h-68v346h-424v-346h-68z" />
    <glyph glyph-name="I" unicode="I" horiz-adv-x="222" 
d="M77 0v714h68v-714h-68z" />
    <glyph glyph-name="J" unicode="J" horiz-adv-x="500" 
d="M220 -15q-199 0 -199 244h68q0 -3 0.5 -19.5t1 -23.5t2.5 -24t5 -25.5l8 -23t11.5 -22.5t17 -19t23.5 -16t30 -9t38 -4q78 0 106 41.5t28 143.5v486h68v-515q0 -111 -47.5 -162.5t-160.5 -51.5z" />
    <glyph glyph-name="K" unicode="K" horiz-adv-x="648" 
d="M72 0v714h68v-384l415 384h92l-319 -295l334 -419h-88l-297 372l-137 -127v-245h-68z" />
    <glyph glyph-name="L" unicode="L" horiz-adv-x="537" 
d="M72 0v714h68v-656h400v-58h-468z" />
    <glyph glyph-name="M" unicode="M" horiz-adv-x="833" 
d="M70 0v714h100l247 -626l246 626h100v-714h-68v617h-2l-244 -617h-64l-245 617h-2v-617h-68z" />
    <glyph glyph-name="N" unicode="N" horiz-adv-x="704" 
d="M71 0v714h76l416 -604h2v604h68v-714h-76l-416 604h-2v-604h-68z" />
    <glyph glyph-name="O" unicode="O" horiz-adv-x="741" 
d="M34 357q0 75 21.5 141t62 118t106 82.5t147.5 30.5q108 0 185.5 -53t114 -135.5t36.5 -183.5t-36.5 -183.5t-114 -135.5t-185.5 -53q-82 0 -147.5 30.5t-106 82.5t-62 118t-21.5 141zM102 357q0 -61 16 -115.5t47.5 -99.5t84.5 -72t121 -27t121 27t84 72t47 99.5
t16 115.5t-16 115.5t-47 99.5t-84 72t-121 27t-121 -27t-84.5 -72t-47.5 -99.5t-16 -115.5z" />
    <glyph glyph-name="P" unicode="P" horiz-adv-x="630" 
d="M72 0v714h317q97 0 154.5 -54t57.5 -150t-57.5 -150t-154.5 -54h-249v-306h-68zM140 656v-292h234q74 0 116.5 37t42.5 109t-42.5 109t-116.5 37h-234z" />
    <glyph glyph-name="Q" unicode="Q" horiz-adv-x="741" 
d="M701 -4l-34 -42l-111 84q-74 -53 -185 -53q-82 0 -147.5 30.5t-106 82.5t-62 118t-21.5 141t21.5 141t62 118t106 82.5t147.5 30.5q108 0 185.5 -53t114 -135.5t36.5 -183.5q0 -179 -108 -283zM444 192l104 -79q91 85 91 244q0 61 -16 115.5t-47 99.5t-84 72t-121 27
t-121 -27t-84.5 -72t-47.5 -99.5t-16 -115.5t16 -115.5t47.5 -99.5t84.5 -72t121 -27q76 0 132 35l-94 71z" />
    <glyph glyph-name="R" unicode="R" horiz-adv-x="667" 
d="M72 0v714h327q94 0 155.5 -47t61.5 -139q0 -70 -36 -119t-103 -63v-2q66 -9 93.5 -49.5t31.5 -111.5q0 -3 1.5 -33t3 -44t4.5 -39t9 -41t15 -26h-75q-6 9 -9.5 25t-5 28.5t-2.5 32t-2 25.5q-2 38 -4.5 61.5t-11 55t-23 49t-41 29.5t-63.5 11h-258v-317h-68zM140 656v-281
h254q65 0 109.5 38t44.5 101q0 67 -39 104.5t-115 37.5h-254z" />
    <glyph glyph-name="S" unicode="S" horiz-adv-x="630" 
d="M36 235h68q-4 -192 233 -192q41 0 82.5 13.5t74 48.5t32.5 83q0 94 -147 129l-159 39q-74 19 -117.5 57t-43.5 115q0 30 11 61.5t36 64.5t76.5 54t122.5 21q113 0 188.5 -58t75.5 -164h-68q-4 78 -59.5 121t-135.5 43q-78 0 -128.5 -34t-50.5 -108q0 -85 108 -109
l174 -43q87 -23 136 -65.5t49 -122.5q0 -20 -3.5 -40.5t-20 -52t-43.5 -54.5t-80.5 -40t-125.5 -17q-134 0 -212.5 62.5t-72.5 187.5z" />
    <glyph glyph-name="T" unicode="T" 
d="M-5 656v58h566v-58h-249v-656h-68v656h-249z" />
    <glyph glyph-name="U" unicode="U" horiz-adv-x="685" 
d="M65 257v457h68v-442q0 -120 53 -174.5t156 -54.5t156.5 54.5t53.5 174.5v442h68v-457q0 -120 -68.5 -196t-209.5 -76q-140 0 -208.5 76.5t-68.5 195.5z" />
    <glyph glyph-name="V" unicode="V" horiz-adv-x="593" 
d="M258 0l-265 714h73l232 -639h2l230 639h72l-265 -714h-79z" />
    <glyph glyph-name="W" unicode="W" horiz-adv-x="907" 
d="M198 0l-198 714h73l162 -625h2l174 625h85l175 -625h2l163 625h68l-197 -714h-72l-181 639h-2l-180 -639h-74z" />
    <glyph glyph-name="X" unicode="X" horiz-adv-x="574" 
d="M245 368l-242 346h80l202 -299l209 299h76l-244 -348l258 -366h-82l-217 315l-220 -315h-77z" />
    <glyph glyph-name="Y" unicode="Y" horiz-adv-x="611" 
d="M271 0v294l-281 420h81l235 -362l234 362h81l-282 -420v-294h-68z" />
    <glyph glyph-name="Z" unicode="Z" horiz-adv-x="574" 
d="M37 656v58h514v-60l-470 -596h480v-58h-556v60l470 596h-438z" />
    <glyph glyph-name="bracketleft" unicode="[" horiz-adv-x="241" 
d="M237 -191h-161v920h161v-53h-98v-814h98v-53z" />
    <glyph glyph-name="backslash" unicode="\" horiz-adv-x="333" 
d="M346 -15h-54l-305 744h51z" />
    <glyph glyph-name="bracketright" unicode="]" horiz-adv-x="241" 
d="M4 729h161v-920h-161v53h98v814h-98v53z" />
    <glyph glyph-name="asciicircum" unicode="^" horiz-adv-x="600" 
d="M102 238h-58l230 453h52l230 -453h-57l-200 390z" />
    <glyph glyph-name="underscore" unicode="_" horiz-adv-x="500" 
d="M500 -125h-500v50h500v-50z" />
    <glyph glyph-name="grave" unicode="`" horiz-adv-x="185" 
d="M101 589l-132 141h78l105 -141h-51z" />
    <glyph glyph-name="a" unicode="a" horiz-adv-x="519" 
d="M117 358h-63q5 88 60.5 130.5t148.5 42.5q190 0 190 -166v-274q0 -38 37 -38q11 0 20 4v-53q-20 -4 -41 -4q-44 0 -59 22.5t-15 67.5h-2q-37 -55 -77.5 -80t-110.5 -25q-76 0 -124.5 38t-48.5 113q0 28 8 50.5t18.5 38t33 28t38.5 19t48.5 12.5t49.5 8.5t55 6.5l26 3
q44 4 62.5 17.5t18.5 52.5q0 59 -36 82.5t-99 23.5q-62 0 -99 -29.5t-39 -90.5zM390 200v82h-2q-8 -15 -53 -23q-17 -3 -54 -8.5t-57 -9t-48.5 -12t-43 -18.5t-26 -28.5t-11.5 -42.5q0 -46 34 -74t81 -28q76 0 128 44.5t52 117.5z" />
    <glyph glyph-name="b" unicode="b" horiz-adv-x="574" 
d="M60 0v714h63v-296h2q19 53 69 83t110 30q112 0 172 -78t60 -195t-60 -195t-172 -78q-63 0 -112.5 30t-71.5 83h-2v-98h-58zM473 258q0 57 -16.5 105t-56 81.5t-96.5 33.5q-92 0 -136.5 -64.5t-44.5 -155.5t44.5 -155.5t136.5 -64.5q57 0 96.5 33.5t56 81.5t16.5 105z" />
    <glyph glyph-name="c" unicode="c" horiz-adv-x="519" 
d="M487 354h-63q-27 124 -146 124q-85 0 -133 -65.5t-48 -154.5t48 -154.5t133 -65.5q58 0 101 42t49 105h63q-13 -94 -69.5 -147t-143.5 -53q-114 0 -179 78.5t-65 194.5t65 194.5t179 78.5q86 0 142 -45t67 -132z" />
    <glyph glyph-name="d" unicode="d" horiz-adv-x="574" 
d="M514 714v-714h-58v98h-2q-20 -50 -73 -81.5t-111 -31.5q-112 0 -172 78t-60 195t60 195t172 78q60 0 110 -30t69 -83h2v296h63zM101 258q0 -57 16.5 -105t56 -81.5t96.5 -33.5q92 0 136.5 64.5t44.5 155.5t-44.5 155.5t-136.5 64.5q-57 0 -96.5 -33.5t-56 -81.5
t-16.5 -105z" />
    <glyph glyph-name="e" unicode="e" horiz-adv-x="519" 
d="M494 241h-397q0 -79 43.5 -141t126.5 -62q129 0 162 132h63q-43 -185 -225 -185q-116 0 -174.5 77t-58.5 196q0 72 23 131.5t77.5 100.5t132.5 41q79 0 132.5 -43t75.5 -107t19 -140zM97 294h334q-2 75 -47 129.5t-117 54.5q-73 0 -117 -53.5t-53 -130.5z" />
    <glyph glyph-name="f" unicode="f" horiz-adv-x="259" 
d="M259 516v-53h-102v-463h-63v463h-88v53h88v47q0 74 27 112.5t98 38.5q26 0 53 -4v-54q-28 5 -46 5q-20 0 -33.5 -5.5t-20.5 -13t-10.5 -23t-4 -26t-0.5 -32.5v-45h102z" />
    <glyph glyph-name="g" unicode="g" 
d="M496 516v-474q0 -121 -54 -184.5t-175 -63.5q-85 0 -146.5 39.5t-67.5 116.5h63q9 -53 51 -78t100 -25q86 0 126 49t40 146v70h-2q-22 -49 -65.5 -77.5t-98.5 -28.5q-118 0 -175.5 73t-57.5 192q0 111 62.5 185.5t170.5 74.5q55 0 99.5 -29.5t64.5 -74.5h2v89h63zM267 59
q78 0 122 60.5t44 144.5q0 86 -41.5 150t-124.5 64q-84 0 -127 -62.5t-43 -151.5q0 -85 43.5 -145t126.5 -60z" />
    <glyph glyph-name="h" unicode="h" horiz-adv-x="537" 
d="M59 0v714h63v-287h2q18 46 64 75t101 29q104 0 146.5 -50.5t42.5 -148.5v-332h-63v322q0 156 -131 156q-74 0 -117 -49.5t-45 -127.5v-301h-63z" />
    <glyph glyph-name="i" unicode="i" horiz-adv-x="185" 
d="M61 613v101h63v-101h-63zM61 0v516h63v-516h-63z" />
    <glyph glyph-name="j" unicode="j" horiz-adv-x="185" 
d="M61 613v101h63v-101h-63zM61 -63v579h63v-564q0 -143 -110 -143q-8 0 -22 1t-22 1v52q22 -2 34 -1q34 0 45.5 19t11.5 56z" />
    <glyph glyph-name="k" unicode="k" horiz-adv-x="500" 
d="M60 0v714h63v-448l286 250h84l-220 -191l235 -325h-79l-204 281l-102 -85v-196h-63z" />
    <glyph glyph-name="l" unicode="l" horiz-adv-x="185" 
d="M61 0v714h63v-714h-63z" />
    <glyph glyph-name="m" unicode="m" horiz-adv-x="833" 
d="M60 0v516h58v-87h3q53 102 169 102q53 0 93.5 -26t54.5 -75q22 49 66.5 75t97.5 26q171 0 171 -181v-350h-63v347q0 66 -28 98.5t-94 32.5q-140 0 -140 -186v-292h-63v350q0 128 -108 128q-77 0 -115.5 -52t-38.5 -138v-288h-63z" />
    <glyph glyph-name="n" unicode="n" horiz-adv-x="537" 
d="M59 0v516h63v-89h2q18 46 64 75t101 29q104 0 146.5 -50.5t42.5 -148.5v-332h-63v322q0 156 -131 156q-74 0 -117 -49.5t-45 -127.5v-301h-63z" />
    <glyph glyph-name="o" unicode="o" 
d="M278 531q114 0 179 -78.5t65 -194.5t-65 -194.5t-179 -78.5t-179 78.5t-65 194.5t65 194.5t179 78.5zM278 478q-85 0 -133 -65.5t-48 -154.5t48 -154.5t133 -65.5t133 65.5t48 154.5t-48 154.5t-133 65.5z" />
    <glyph glyph-name="p" unicode="p" horiz-adv-x="574" 
d="M60 -191v707h58v-98h2q22 53 71.5 83t112.5 30q112 0 172 -78t60 -195t-60 -195t-172 -78q-60 0 -110 29.5t-69 83.5h-2v-289h-63zM473 258q0 57 -16.5 105t-56 81.5t-96.5 33.5q-181 0 -181 -220q0 -91 44.5 -155.5t136.5 -64.5q57 0 96.5 33.5t56 81.5t16.5 105z" />
    <glyph glyph-name="q" unicode="q" horiz-adv-x="574" 
d="M514 516v-707h-63v289h-2q-19 -54 -69 -83.5t-110 -29.5q-112 0 -172 78t-60 195t60 195t172 78q58 0 111 -31.5t73 -81.5h2v98h58zM101 258q0 -57 16.5 -105t56 -81.5t96.5 -33.5q92 0 136.5 64.5t44.5 155.5t-44.5 155.5t-136.5 64.5q-57 0 -96.5 -33.5t-56 -81.5
t-16.5 -105z" />
    <glyph glyph-name="r" unicode="r" horiz-adv-x="315" 
d="M60 0v516h58v-121h2q24 64 75 97.5t120 30.5v-63q-84 4 -138 -49.5t-54 -135.5v-275h-63z" />
    <glyph glyph-name="s" unicode="s" horiz-adv-x="481" 
d="M432 365h-63q-2 56 -40 84.5t-95 28.5q-49 0 -85.5 -21.5t-36.5 -67.5q0 -60 107 -87l84 -19q62 -9 104.5 -45t42.5 -98q0 -77 -62.5 -116t-144.5 -39q-196 0 -212 182h63q4 -62 45.5 -95.5t106.5 -33.5q54 0 97.5 24.5t43.5 73.5q0 41 -30 61t-83 33l-81 18
q-71 18 -107.5 48t-36.5 90q0 73 58 109t136 36q81 0 133 -42.5t56 -123.5z" />
    <glyph glyph-name="t" unicode="t" horiz-adv-x="296" 
d="M160 671v-155h105v-53h-105v-348q0 -34 10 -50t41 -18q27 0 54 3v-54q-9 0 -28 -1t-28 -1q-63 0 -88 25t-24 91v353h-90v53h90v155h63z" />
    <glyph glyph-name="u" unicode="u" horiz-adv-x="537" 
d="M478 516v-516h-58v93h-2q-24 -51 -72 -79.5t-106 -28.5q-181 0 -181 196v335h63v-336q2 -72 33.5 -107t104.5 -35q76 0 115.5 60.5t39.5 146.5v271h63z" />
    <glyph glyph-name="v" unicode="v" horiz-adv-x="463" 
d="M201 0l-199 516h70l162 -453h2l160 453h65l-193 -516h-67z" />
    <glyph glyph-name="w" unicode="w" horiz-adv-x="741" 
d="M174 0l-166 516h67l132 -442h2l126 442h71l126 -442h2l132 442h67l-166 -516h-69l-127 434h-2l-126 -434h-69z" />
    <glyph glyph-name="x" unicode="x" horiz-adv-x="481" 
d="M1 0l200 268l-185 248h79l147 -196l144 196h79l-186 -247l201 -269h-80l-162 217l-159 -217h-78z" />
    <glyph glyph-name="y" unicode="y" horiz-adv-x="463" 
d="M208 2l-206 514h67l170 -440l159 440h63l-224 -595q-29 -68 -54 -90t-82 -22q-38 2 -48 5v53q25 -5 43 -5q20 0 34 5t24.5 18.5t15.5 23.5t16 34z" />
    <glyph glyph-name="z" unicode="z" horiz-adv-x="463" 
d="M432 471l-341 -418h355v-53h-431v51l337 412h-314v53h394v-45z" />
    <glyph glyph-name="braceleft" unicode="{" horiz-adv-x="333" 
d="M293 -191h-50q-42 0 -65 33.5t-23 91.5v148q0 160 -72 160v53q72 0 72 160v149q0 58 23 91.5t65 33.5h50v-53h-20q-28 0 -41.5 -29.5t-13.5 -73.5v-141q0 -38 -8.5 -69.5t-22 -50.5t-22.5 -28t-17 -14v-2q8 -5 17 -14t22.5 -28t22 -50.5t8.5 -69.5v-141q0 -45 13.5 -74
t41.5 -29h20v-53z" />
    <glyph glyph-name="bar" unicode="|" horiz-adv-x="222" 
d="M85 -214v1000h53v-1000h-53z" />
    <glyph glyph-name="braceright" unicode="}" horiz-adv-x="333" 
d="M40 729h50q42 0 65 -33.5t23 -91.5v-148q0 -160 72 -160v-53q-72 0 -72 -160v-149q0 -58 -23 -91.5t-65 -33.5h-50v53h20q28 0 41.5 29t13.5 74v141q0 38 8.5 69.5t22 50.5t22.5 28t17 14v2q-8 5 -17 14t-22.5 28t-22 50.5t-8.5 69.5v141q0 44 -13.5 73.5t-41.5 29.5h-20
v53z" />
    <glyph glyph-name="asciitilde" unicode="~" horiz-adv-x="600" 
d="M495 315l36 -36q-27 -41 -55 -63.5t-70 -22.5t-110 33q-70 32 -107 32q-52 0 -84 -69l-36 36q42 86 125 86q41 0 115 -32q76 -33 98 -33q27 0 46.5 18t41.5 51z" />
    <glyph glyph-name="uni00A0" unicode="&#xa0;" horiz-adv-x="278" 
 />
    <glyph glyph-name="exclamdown" unicode="&#xa1;" horiz-adv-x="241" 
d="M79 516h84v-106h-84v106zM140 338l15 -323v-206h-68v206l15 323h38z" />
    <glyph glyph-name="cent" unicode="&#xa2;" 
d="M507 354h-63q-26 120 -135 124v-440q54 2 93.5 44t45.5 103h63q-12 -90 -66 -143.5t-136 -56.5v-101h-39v102q-101 9 -158.5 86.5t-57.5 185.5q0 109 57.5 185.5t158.5 85.5v89h39v-87q81 -2 135 -48t63 -129zM270 39v437q-73 -11 -113 -74t-40 -144t40 -144.5t113 -74.5
z" />
    <glyph glyph-name="sterling" unicode="&#xa3;" 
d="M46 330v32h63q-55 87 -55 161q0 101 66.5 153.5t161.5 52.5q111 0 172.5 -63t59.5 -174h-63q0 84 -43.5 134t-125.5 50q-68 0 -116.5 -40.5t-48.5 -116.5q0 -31 8.5 -55.5t25.5 -53.5t25 -48h160v-32h-142q24 -38 24 -97q0 -98 -110 -182l2 -2q58 30 97 30q53 0 102 -20
q53 -21 86 -21q64 0 115 56l32 -48q-69 -61 -146 -61q-44 0 -105.5 20.5t-101.5 20.5q-12 0 -23.5 -1.5t-18.5 -3.5t-17.5 -7t-15 -7.5t-17.5 -10.5l-18 -11l-36 54q52 44 82 87.5t30 98.5q0 58 -28 105h-81z" />
    <glyph glyph-name="currency" unicode="&#xa4;" 
d="M29 136l57 57q-55 68 -55 153q0 88 54 154l-56 56l38 38l56 -56q66 56 156 56q85 0 153 -55l55 55l38 -38l-54 -54q56 -69 56 -156t-56 -156l54 -54l-38 -38l-55 55q-64 -55 -153 -55q-87 0 -156 56l-56 -56zM94 346q0 -80 54 -135t131 -55t131 55t54 135t-54 135
t-131 55t-131 -55t-54 -135z" />
    <glyph glyph-name="yen" unicode="&#xa5;" 
d="M110 304v45h106l-210 365h72l199 -365l201 365h69l-211 -365h109v-45h-131l-6 -10v-73h137v-45h-137v-176h-63v176h-135v45h135v73l-6 10h-129z" />
    <glyph glyph-name="brokenbar" unicode="&#xa6;" horiz-adv-x="222" 
d="M85 411v250h53v-250h-53zM85 -89v250h53v-250h-53z" />
    <glyph glyph-name="section" unicode="&#xa7;" 
d="M511 231q0 -48 -30.5 -84.5t-78.5 -55.5q50 -44 50 -109q0 -66 -50.5 -104.5t-118.5 -38.5q-86 0 -135.5 46t-49.5 131h63q-2 -52 31 -88t85 -36q47 0 79.5 22.5t32.5 66.5q0 41 -35.5 75t-86 59.5l-101 53.5t-86 71t-35.5 97q0 48 30.5 84.5t78.5 55.5q-50 44 -50 109
q0 66 50.5 104.5t118.5 38.5q86 0 135.5 -46t49.5 -131h-63q2 52 -31 88t-85 36q-47 0 -79.5 -22.5t-32.5 -66.5q0 -41 35.5 -75t86 -59.5l101 -53.5t86 -71t35.5 -97zM448 230q0 37 -30 71t-65.5 54.5l-88 48.5t-74.5 43q-82 -34 -82 -108q0 -35 29.5 -69t65 -55
l87.5 -49.5t74 -43.5q84 35 84 108z" />
    <glyph glyph-name="dieresis" unicode="&#xa8;" horiz-adv-x="185" 
d="M215 610h-68v101h68v-101zM38 610h-68v101h68v-101z" />
    <glyph glyph-name="copyright" unicode="&#xa9;" horiz-adv-x="800" 
d="M772 357q0 -157 -107 -264.5t-265 -107.5t-265 107.5t-107 264.5t107 264.5t265 107.5t265 -107.5t107 -264.5zM714 357q0 134 -90 226.5t-224 92.5q-135 0 -224.5 -92t-89.5 -227t89.5 -227t224.5 -92q134 0 224 92.5t90 226.5zM594 435h-51q-9 46 -44.5 75.5
t-88.5 30.5q-78 0 -121.5 -51.5t-43.5 -132.5t43.5 -132.5t121.5 -51.5q53 0 88.5 29.5t44.5 76.5h51q-9 -71 -60.5 -111t-124.5 -40q-100 0 -158.5 64t-58.5 165t58.5 165t158.5 64q73 0 124.5 -40t60.5 -111z" />
    <glyph glyph-name="ordfeminine" unicode="&#xaa;" horiz-adv-x="311" 
d="M54 597h-47q6 109 140 109q128 0 128 -100v-172q2 -23 25 -23q7 0 13 3v-34q-21 -3 -27 -3q-29 0 -38.5 13t-9.5 43h-2q-41 -65 -123 -65q-54 0 -86 23.5t-32 72.5q0 26 10.5 44.5t23.5 28.5t40 17t43.5 9t51.5 5q7 1 11 1q29 3 41 9t12 22q0 67 -88 67q-37 0 -61 -18
t-25 -52zM228 502v47h-2q-1 -3 -5.5 -5.5t-8.5 -3.5t-11 -2.5t-9 -2.5l-33.5 -5t-32 -5t-27 -5.5t-24 -7.5t-17.5 -10t-12.5 -15t-3.5 -21q0 -25 22 -42t47 -17q48 0 82.5 26t34.5 69z" />
    <glyph glyph-name="guillemotleft" unicode="&#xab;" horiz-adv-x="426" 
d="M354 119l-133 125v62l133 125v-67l-94 -89l94 -89v-67zM193 119l-133 125v62l133 125v-67l-94 -89l94 -89v-67z" />
    <glyph glyph-name="logicalnot" unicode="&#xac;" horiz-adv-x="600" 
d="M499 111v214h-450v53h503v-267h-53z" />
    <glyph glyph-name="uni00AD" unicode="&#xad;" horiz-adv-x="370" 
d="M310 246h-250v58h250v-58z" />
    <glyph glyph-name="registered" unicode="&#xae;" horiz-adv-x="800" 
d="M400 729q158 0 265 -107.5t107 -264.5t-107 -264.5t-265 -107.5t-265 107.5t-107 264.5t107 264.5t265 107.5zM400 676q-135 0 -224.5 -92t-89.5 -227t89.5 -227t224.5 -92q134 0 224 92.5t90 226.5t-90 226.5t-224 92.5zM318 333v-191h-53v430h165q140 0 140 -119
q0 -100 -108 -120l128 -191h-62l-121 191h-89zM318 378h70q25 0 39 0.5t33.5 4.5t30 12t18.5 22.5t8 35.5q0 74 -102 74h-97v-149z" />
    <glyph glyph-name="macron" unicode="&#xaf;" horiz-adv-x="185" 
d="M257 638h-329v45h329v-45z" />
    <glyph glyph-name="degree" unicode="&#xb0;" horiz-adv-x="400" 
d="M56 562q0 60 42 102t102 42q59 0 101.5 -42.5t42.5 -101.5q0 -60 -42 -102t-102 -42q-61 0 -102.5 41.5t-41.5 102.5zM95 562q0 -44 30.5 -74.5t74.5 -30.5t74.5 30.5t30.5 74.5t-30.5 74.5t-74.5 30.5t-74.5 -30.5t-30.5 -74.5z" />
    <glyph glyph-name="plusminus" unicode="&#xb1;" horiz-adv-x="600" 
d="M274 323v180h53v-180h225v-53h-225v-180h-53v180h-224v53h224zM49 0v53h503v-53h-503z" />
    <glyph glyph-name="twosuperior" unicode="&#xb2;" horiz-adv-x="370" 
d="M95 676h-47q0 73 37 113t106 40q63 0 98 -32t35 -93q0 -80 -89 -138l-55 -35q-76 -48 -87 -95h230v-39h-284q1 57 28.5 93t88.5 75l53 34q68 43 68 109q0 38 -24 59.5t-62 21.5q-49 0 -72.5 -32t-23.5 -81z" />
    <glyph glyph-name="threesuperior" unicode="&#xb3;" horiz-adv-x="370" 
d="M153 601v39h25q36 0 64.5 19t28.5 55q0 38 -22.5 57t-60.5 19q-46 0 -70.5 -28t-24.5 -75h-47q1 64 38.5 103t105.5 39q58 0 93 -29.5t35 -81.5q0 -73 -77 -95q45 -6 69.5 -33.5t24.5 -69.5q0 -62 -43 -97t-108 -35q-69 0 -109 35t-40 98l1 14h47v-6q0 -46 26.5 -74
t73.5 -28q44 0 74.5 24t30.5 66q0 41 -30 62.5t-80 21.5h-25z" />
    <glyph glyph-name="acute" unicode="&#xb4;" horiz-adv-x="185" 
d="M216 730l-132 -141h-51l105 141h78z" />
    <glyph glyph-name="mu" unicode="&#xb5;" horiz-adv-x="537" 
d="M478 516v-516h-58v93h-2q-24 -51 -72 -79.5t-106 -28.5q-71 0 -118 35v-211h-63v707h63v-336q2 -72 33.5 -107t104.5 -35q76 0 115.5 60.5t39.5 146.5v271h63z" />
    <glyph glyph-name="paragraph" unicode="&#xb6;" horiz-adv-x="600" 
d="M273 -177v505q-87 0 -147 55.5t-60 134.5q0 95 58.5 145.5t164.5 50.5h230v-891h-63v838h-120v-838h-63z" />
    <glyph glyph-name="periodcentered" unicode="&#xb7;" horiz-adv-x="278" 
d="M139 375q24 0 41.5 -18t17.5 -42q0 -23 -18 -40.5t-41 -17.5q-24 0 -41.5 18t-17.5 42q0 23 18 40.5t41 17.5z" />
    <glyph glyph-name="cedilla" unicode="&#xb8;" horiz-adv-x="185" 
d="M91 0h35l-44 -54q17 4 34 4q33 0 57.5 -17.5t24.5 -49.5q0 -42 -33.5 -64t-76.5 -22q-53 0 -94 21l14 32q34 -14 79 -14q53 0 53 43q0 17 -12.5 27.5t-30.5 10.5q-33 0 -51 -8l-16 15z" />
    <glyph glyph-name="onesuperior" unicode="&#xb9;" horiz-adv-x="370" 
d="M67 709v35l34 2q51 3 67 16.5t23 57.5h39v-423h-47v312h-116z" />
    <glyph glyph-name="ordmasculine" unicode="&#xba;" horiz-adv-x="334" 
d="M162 368q-75 0 -117 48t-42 121t42 121t117 48q81 0 125 -47.5t44 -121.5t-44 -121.5t-125 -47.5zM167 407q55 0 86 39t31 91t-31 91t-86 39t-86 -39t-31 -91t31 -91t86 -39z" />
    <glyph glyph-name="guillemotright" unicode="&#xbb;" horiz-adv-x="426" 
d="M233 119v67l94 89l-94 89v67l133 -125v-62zM72 119v67l94 89l-94 89v67l133 -125v-62z" />
    <glyph glyph-name="onequarter" unicode="&#xbc;" horiz-adv-x="834" 
d="M133 -34l453 759h47l-452 -759h-48zM53 586v35l34 2q51 3 67 16.5t23 57.5h39v-423h-47v312h-116zM642 0v100h-210v39l213 284h44v-284h68v-39h-68v-100h-47zM642 356l-164 -217h164v217z" />
    <glyph glyph-name="onehalf" unicode="&#xbd;" horiz-adv-x="834" 
d="M133 -34l453 759h47l-452 -759h-48zM53 586v35l34 2q51 3 67 16.5t23 57.5h39v-423h-47v312h-116zM546 279h-47q0 73 37 113t106 40q63 0 98 -32t35 -93q0 -80 -89 -138l-55 -35q-76 -48 -87 -95h230v-39h-284q1 57 28.5 93t88.5 75l53 34q68 43 68 109q0 38 -24 59.5
t-62 21.5q-49 0 -72.5 -32t-23.5 -81z" />
    <glyph glyph-name="threequarters" unicode="&#xbe;" horiz-adv-x="834" 
d="M208 -34l453 759h47l-452 -759h-48zM190 478v39h25q36 0 64.5 19t28.5 55q0 38 -22.5 57t-60.5 19q-46 0 -70.5 -28t-24.5 -75h-47q1 64 38.5 103t105.5 39q58 0 93 -29.5t35 -81.5q0 -73 -77 -95q45 -6 69.5 -33.5t24.5 -69.5q0 -62 -43 -97t-108 -35q-69 0 -109 35
t-40 98l1 14h47v-6q0 -46 26.5 -74t73.5 -28q44 0 74.5 24t30.5 66q0 41 -30 62.5t-80 21.5h-25zM662 0v100h-210v39l213 284h44v-284h68v-39h-68v-100h-47zM662 356l-164 -217h164v217z" />
    <glyph glyph-name="questiondown" unicode="&#xbf;" horiz-adv-x="537" 
d="M307 516v-106h-84v106h84zM421 29h63q0 -108 -60 -171.5t-167 -63.5q-86 0 -144.5 50.5t-58.5 134.5q0 52 22 90.5t65 79.5l31 30.5l24.5 24t15 18.5t12 21t5 23.5t4.5 33t1 44.5h63q1 -46 -3.5 -76.5t-22.5 -58.5t-34 -45t-55 -53q-65 -61 -65 -129q0 -59 42 -97
t101 -38q79 0 121 51t40 131z" />
    <glyph glyph-name="Agrave" unicode="&#xc0;" horiz-adv-x="630" 
d="M-7 0l288 714h76l280 -714h-73l-87 222h-325l-86 -222h-73zM173 280h281l-138 366zM307 779l-132 141h78l105 -141h-51z" />
    <glyph glyph-name="Aacute" unicode="&#xc1;" horiz-adv-x="630" 
d="M-7 0l288 714h76l280 -714h-73l-87 222h-325l-86 -222h-73zM173 280h281l-138 366zM463 920l-132 -141h-51l105 141h78z" />
    <glyph glyph-name="Acircumflex" unicode="&#xc2;" horiz-adv-x="630" 
d="M-7 0l288 714h76l280 -714h-73l-87 222h-325l-86 -222h-73zM173 280h281l-138 366zM352 920l114 -141h-65l-86 102l-88 -102h-58l114 141h69z" />
    <glyph glyph-name="Atilde" unicode="&#xc3;" horiz-adv-x="630" 
d="M-7 0l288 714h76l280 -714h-73l-87 222h-325l-86 -222h-73zM173 280h281l-138 366zM436 900h38q-7 -39 -28.5 -67t-58.5 -28q-29 0 -75 23t-63 23q-38 0 -50 -51h-39q4 38 28 67t61 29q31 0 75 -22t60 -22q38 0 52 48z" />
    <glyph glyph-name="Adieresis" unicode="&#xc4;" horiz-adv-x="630" 
d="M-7 0l288 714h76l280 -714h-73l-87 222h-325l-86 -222h-73zM173 280h281l-138 366zM438 800h-68v101h68v-101zM261 800h-68v101h68v-101z" />
    <glyph glyph-name="Aring" unicode="&#xc5;" horiz-adv-x="630" 
d="M-7 0l288 714h76l280 -714h-73l-87 222h-325l-86 -222h-73zM173 280h281l-138 366zM211 860q0 44 31.5 75.5t75.5 31.5t75.5 -31.5t31.5 -75.5t-31.5 -75.5t-75.5 -31.5t-75.5 31.5t-31.5 75.5zM250 860q0 -29 19.5 -48.5t48.5 -19.5t48.5 19.5t19.5 48.5t-19.5 48.5
t-48.5 19.5t-48.5 -19.5t-19.5 -48.5z" />
    <glyph glyph-name="AE" unicode="&#xc6;" horiz-adv-x="907" 
d="M513 340v-282h371v-58h-439v226h-259l-116 -226h-77l374 714h513v-58h-367v-258h344v-58h-344zM216 284h229v372h-40z" />
    <glyph glyph-name="Ccedilla" unicode="&#xc7;" horiz-adv-x="704" 
d="M662 498h-68q-18 81 -78.5 127t-140.5 46q-68 0 -121 -27t-84.5 -72t-47.5 -99.5t-16 -115.5t16 -115.5t47.5 -99.5t84.5 -72t121 -27q96 0 157.5 65t71.5 164h68q-14 -133 -93.5 -210t-204.5 -77l-32 -39q17 4 34 4q33 0 57.5 -17.5t24.5 -49.5q0 -42 -33.5 -64
t-76.5 -22q-53 0 -94 21l14 32q34 -14 79 -14q53 0 53 43q0 17 -12.5 27.5t-30.5 10.5q-33 0 -51 -8l-16 15l50 63q-97 8 -167 62t-102.5 133t-32.5 175q0 75 21.5 141t62 118t106 82.5t147.5 30.5q108 0 190.5 -62t96.5 -169z" />
    <glyph glyph-name="Egrave" unicode="&#xc8;" horiz-adv-x="593" 
d="M72 0v714h493v-58h-425v-258h398v-58h-398v-282h430v-58h-498zM306 779l-132 141h78l105 -141h-51z" />
    <glyph glyph-name="Eacute" unicode="&#xc9;" horiz-adv-x="593" 
d="M72 0v714h493v-58h-425v-258h398v-58h-398v-282h430v-58h-498zM462 920l-132 -141h-51l105 141h78z" />
    <glyph glyph-name="Ecircumflex" unicode="&#xca;" horiz-adv-x="593" 
d="M72 0v714h493v-58h-425v-258h398v-58h-398v-282h430v-58h-498zM351 920l114 -141h-65l-86 102l-88 -102h-58l114 141h69z" />
    <glyph glyph-name="Edieresis" unicode="&#xcb;" horiz-adv-x="593" 
d="M72 0v714h493v-58h-425v-258h398v-58h-398v-282h430v-58h-498zM437 800h-68v101h68v-101zM260 800h-68v101h68v-101z" />
    <glyph glyph-name="Igrave" unicode="&#xcc;" horiz-adv-x="222" 
d="M77 0v714h68v-714h-68zM102 779l-132 141h78l105 -141h-51z" />
    <glyph glyph-name="Iacute" unicode="&#xcd;" horiz-adv-x="222" 
d="M77 0v714h68v-714h-68zM258 920l-132 -141h-51l105 141h78z" />
    <glyph glyph-name="Icircumflex" unicode="&#xce;" horiz-adv-x="222" 
d="M77 0v714h68v-714h-68zM147 920l114 -141h-65l-86 102l-88 -102h-58l114 141h69z" />
    <glyph glyph-name="Idieresis" unicode="&#xcf;" horiz-adv-x="222" 
d="M77 0v714h68v-714h-68zM233 800h-68v101h68v-101zM56 800h-68v101h68v-101z" />
    <glyph glyph-name="Eth" unicode="&#xd0;" horiz-adv-x="685" 
d="M72 393v321h247q328 -8 328 -357t-328 -357h-247v348h-72v45h72zM140 656v-263h236v-45h-236v-290h145q155 0 224.5 70t69.5 229t-69.5 229t-224.5 70h-145z" />
    <glyph glyph-name="Ntilde" unicode="&#xd1;" horiz-adv-x="704" 
d="M71 0v714h76l416 -604h2v604h68v-714h-76l-416 604h-2v-604h-68zM481 900h38q-7 -39 -28.5 -67t-58.5 -28q-30 0 -75 23t-63 23q-38 0 -50 -51h-39q4 38 28 67t61 29q31 0 75 -22t60 -22q38 0 52 48z" />
    <glyph glyph-name="Ograve" unicode="&#xd2;" horiz-adv-x="741" 
d="M34 357q0 75 21.5 141t62 118t106 82.5t147.5 30.5q108 0 185.5 -53t114 -135.5t36.5 -183.5t-36.5 -183.5t-114 -135.5t-185.5 -53q-82 0 -147.5 30.5t-106 82.5t-62 118t-21.5 141zM102 357q0 -61 16 -115.5t47.5 -99.5t84.5 -72t121 -27t121 27t84 72t47 99.5
t16 115.5t-16 115.5t-47 99.5t-84 72t-121 27t-121 -27t-84.5 -72t-47.5 -99.5t-16 -115.5zM362 779l-132 141h78l105 -141h-51z" />
    <glyph glyph-name="Oacute" unicode="&#xd3;" horiz-adv-x="741" 
d="M34 357q0 75 21.5 141t62 118t106 82.5t147.5 30.5q108 0 185.5 -53t114 -135.5t36.5 -183.5t-36.5 -183.5t-114 -135.5t-185.5 -53q-82 0 -147.5 30.5t-106 82.5t-62 118t-21.5 141zM102 357q0 -61 16 -115.5t47.5 -99.5t84.5 -72t121 -27t121 27t84 72t47 99.5
t16 115.5t-16 115.5t-47 99.5t-84 72t-121 27t-121 -27t-84.5 -72t-47.5 -99.5t-16 -115.5zM518 920l-132 -141h-51l105 141h78z" />
    <glyph glyph-name="Ocircumflex" unicode="&#xd4;" horiz-adv-x="741" 
d="M34 357q0 75 21.5 141t62 118t106 82.5t147.5 30.5q108 0 185.5 -53t114 -135.5t36.5 -183.5t-36.5 -183.5t-114 -135.5t-185.5 -53q-82 0 -147.5 30.5t-106 82.5t-62 118t-21.5 141zM102 357q0 -61 16 -115.5t47.5 -99.5t84.5 -72t121 -27t121 27t84 72t47 99.5
t16 115.5t-16 115.5t-47 99.5t-84 72t-121 27t-121 -27t-84.5 -72t-47.5 -99.5t-16 -115.5zM407 920l114 -141h-65l-86 102l-88 -102h-58l114 141h69z" />
    <glyph glyph-name="Otilde" unicode="&#xd5;" horiz-adv-x="741" 
d="M34 357q0 75 21.5 141t62 118t106 82.5t147.5 30.5q108 0 185.5 -53t114 -135.5t36.5 -183.5t-36.5 -183.5t-114 -135.5t-185.5 -53q-82 0 -147.5 30.5t-106 82.5t-62 118t-21.5 141zM102 357q0 -61 16 -115.5t47.5 -99.5t84.5 -72t121 -27t121 27t84 72t47 99.5
t16 115.5t-16 115.5t-47 99.5t-84 72t-121 27t-121 -27t-84.5 -72t-47.5 -99.5t-16 -115.5zM491 900h38q-7 -39 -28.5 -67t-58.5 -28q-30 0 -75 23t-63 23q-38 0 -50 -51h-39q4 38 28 67t61 29q31 0 75 -22t60 -22q38 0 52 48z" />
    <glyph glyph-name="Odieresis" unicode="&#xd6;" horiz-adv-x="741" 
d="M34 357q0 75 21.5 141t62 118t106 82.5t147.5 30.5q108 0 185.5 -53t114 -135.5t36.5 -183.5t-36.5 -183.5t-114 -135.5t-185.5 -53q-82 0 -147.5 30.5t-106 82.5t-62 118t-21.5 141zM102 357q0 -61 16 -115.5t47.5 -99.5t84.5 -72t121 -27t121 27t84 72t47 99.5
t16 115.5t-16 115.5t-47 99.5t-84 72t-121 27t-121 -27t-84.5 -72t-47.5 -99.5t-16 -115.5zM493 800h-68v101h68v-101zM316 800h-68v101h68v-101z" />
    <glyph glyph-name="multiply" unicode="&#xd7;" horiz-adv-x="600" 
d="M262 251l-188 189l37 37l189 -189l189 189l37 -37l-189 -189l189 -189l-37 -37l-189 188l-189 -188l-37 37z" />
    <glyph glyph-name="Oslash" unicode="&#xd8;" horiz-adv-x="741" 
d="M672 719l26 -23l-73 -81q82 -100 82 -258q0 -101 -36.5 -183.5t-114 -135.5t-185.5 -53q-142 0 -231 89l-76 -86l-27 25l79 88q-82 101 -82 256q0 75 21.5 141t62 118t106 82.5t147.5 30.5q140 0 230 -88zM160 150l398 443q-71 78 -187 78q-68 0 -121 -27t-84.5 -72
t-47.5 -99.5t-16 -115.5q0 -124 58 -207zM580 565l-397 -443q71 -79 188 -79q68 0 121 27t84 72t47 99.5t16 115.5q0 126 -59 208z" />
    <glyph glyph-name="Ugrave" unicode="&#xd9;" horiz-adv-x="685" 
d="M65 257v457h68v-442q0 -120 53 -174.5t156 -54.5t156.5 54.5t53.5 174.5v442h68v-457q0 -120 -68.5 -196t-209.5 -76q-140 0 -208.5 76.5t-68.5 195.5zM332 779l-132 141h78l105 -141h-51z" />
    <glyph glyph-name="Uacute" unicode="&#xda;" horiz-adv-x="685" 
d="M65 257v457h68v-442q0 -120 53 -174.5t156 -54.5t156.5 54.5t53.5 174.5v442h68v-457q0 -120 -68.5 -196t-209.5 -76q-140 0 -208.5 76.5t-68.5 195.5zM488 920l-132 -141h-51l105 141h78z" />
    <glyph glyph-name="Ucircumflex" unicode="&#xdb;" horiz-adv-x="685" 
d="M65 257v457h68v-442q0 -120 53 -174.5t156 -54.5t156.5 54.5t53.5 174.5v442h68v-457q0 -120 -68.5 -196t-209.5 -76q-140 0 -208.5 76.5t-68.5 195.5zM377 920l114 -141h-65l-86 102l-88 -102h-58l114 141h69z" />
    <glyph glyph-name="Udieresis" unicode="&#xdc;" horiz-adv-x="685" 
d="M65 257v457h68v-442q0 -120 53 -174.5t156 -54.5t156.5 54.5t53.5 174.5v442h68v-457q0 -120 -68.5 -196t-209.5 -76q-140 0 -208.5 76.5t-68.5 195.5zM463 800h-68v101h68v-101zM286 800h-68v101h68v-101z" />
    <glyph glyph-name="Yacute" unicode="&#xdd;" horiz-adv-x="611" 
d="M271 0v294l-281 420h81l235 -362l234 362h81l-282 -420v-294h-68zM454 920l-132 -141h-51l105 141h78z" />
    <glyph glyph-name="Thorn" unicode="&#xde;" horiz-adv-x="630" 
d="M72 0v714h68v-117h249q97 0 154.5 -54t57.5 -150t-57.5 -150t-154.5 -54h-249v-189h-68zM140 539v-292h234q74 0 116.5 37t42.5 109t-42.5 109t-116.5 37h-234z" />
    <glyph glyph-name="germandbls" unicode="&#xdf;" horiz-adv-x="537" 
d="M61 0v535q0 96 53.5 145t145.5 49q84 0 140 -47t56 -129q0 -55 -30 -96.5t-83 -53.5v-2q70 -6 109.5 -59.5t39.5 -125.5q0 -106 -61.5 -164t-160.5 -60h-25q-7 0 -25 2v55q21 -4 47 -4q68 0 115 39.5t47 120.5q0 51 -14.5 84t-44.5 50t-64.5 23t-85.5 6v53q173 0 173 130
q0 55 -38.5 90t-93.5 35q-73 0 -105 -36t-32 -110v-530h-63z" />
    <glyph glyph-name="agrave" unicode="&#xe0;" horiz-adv-x="519" 
d="M117 358h-63q5 88 60.5 130.5t148.5 42.5q190 0 190 -166v-274q0 -38 37 -38q11 0 20 4v-53q-20 -4 -41 -4q-44 0 -59 22.5t-15 67.5h-2q-37 -55 -77.5 -80t-110.5 -25q-76 0 -124.5 38t-48.5 113q0 28 8 50.5t18.5 38t33 28t38.5 19t48.5 12.5t49.5 8.5t55 6.5l26 3
q44 4 62.5 17.5t18.5 52.5q0 59 -36 82.5t-99 23.5q-62 0 -99 -29.5t-39 -90.5zM390 200v82h-2q-8 -15 -53 -23q-17 -3 -54 -8.5t-57 -9t-48.5 -12t-43 -18.5t-26 -28.5t-11.5 -42.5q0 -46 34 -74t81 -28q76 0 128 44.5t52 117.5zM249 589l-132 141h78l105 -141h-51z" />
    <glyph glyph-name="aacute" unicode="&#xe1;" horiz-adv-x="519" 
d="M117 358h-63q5 88 60.5 130.5t148.5 42.5q190 0 190 -166v-274q0 -38 37 -38q11 0 20 4v-53q-20 -4 -41 -4q-44 0 -59 22.5t-15 67.5h-2q-37 -55 -77.5 -80t-110.5 -25q-76 0 -124.5 38t-48.5 113q0 28 8 50.5t18.5 38t33 28t38.5 19t48.5 12.5t49.5 8.5t55 6.5l26 3
q44 4 62.5 17.5t18.5 52.5q0 59 -36 82.5t-99 23.5q-62 0 -99 -29.5t-39 -90.5zM390 200v82h-2q-8 -15 -53 -23q-17 -3 -54 -8.5t-57 -9t-48.5 -12t-43 -18.5t-26 -28.5t-11.5 -42.5q0 -46 34 -74t81 -28q76 0 128 44.5t52 117.5zM405 730l-132 -141h-51l105 141h78z" />
    <glyph glyph-name="acircumflex" unicode="&#xe2;" horiz-adv-x="519" 
d="M117 358h-63q5 88 60.5 130.5t148.5 42.5q190 0 190 -166v-274q0 -38 37 -38q11 0 20 4v-53q-20 -4 -41 -4q-44 0 -59 22.5t-15 67.5h-2q-37 -55 -77.5 -80t-110.5 -25q-76 0 -124.5 38t-48.5 113q0 28 8 50.5t18.5 38t33 28t38.5 19t48.5 12.5t49.5 8.5t55 6.5l26 3
q44 4 62.5 17.5t18.5 52.5q0 59 -36 82.5t-99 23.5q-62 0 -99 -29.5t-39 -90.5zM390 200v82h-2q-8 -15 -53 -23q-17 -3 -54 -8.5t-57 -9t-48.5 -12t-43 -18.5t-26 -28.5t-11.5 -42.5q0 -46 34 -74t81 -28q76 0 128 44.5t52 117.5zM294 730l114 -141h-65l-86 102l-88 -102
h-58l114 141h69z" />
    <glyph glyph-name="atilde" unicode="&#xe3;" horiz-adv-x="519" 
d="M117 358h-63q5 88 60.5 130.5t148.5 42.5q190 0 190 -166v-274q0 -38 37 -38q11 0 20 4v-53q-20 -4 -41 -4q-44 0 -59 22.5t-15 67.5h-2q-37 -55 -77.5 -80t-110.5 -25q-76 0 -124.5 38t-48.5 113q0 28 8 50.5t18.5 38t33 28t38.5 19t48.5 12.5t49.5 8.5t55 6.5l26 3
q44 4 62.5 17.5t18.5 52.5q0 59 -36 82.5t-99 23.5q-62 0 -99 -29.5t-39 -90.5zM390 200v82h-2q-8 -15 -53 -23q-17 -3 -54 -8.5t-57 -9t-48.5 -12t-43 -18.5t-26 -28.5t-11.5 -42.5q0 -46 34 -74t81 -28q76 0 128 44.5t52 117.5zM378 710h38q-7 -39 -28.5 -67t-58.5 -28
q-29 0 -74.5 23t-63.5 23q-38 0 -50 -51h-39q4 38 28 67t61 29q31 0 75 -22t60 -22q38 0 52 48z" />
    <glyph glyph-name="adieresis" unicode="&#xe4;" horiz-adv-x="519" 
d="M117 358h-63q5 88 60.5 130.5t148.5 42.5q190 0 190 -166v-274q0 -38 37 -38q11 0 20 4v-53q-20 -4 -41 -4q-44 0 -59 22.5t-15 67.5h-2q-37 -55 -77.5 -80t-110.5 -25q-76 0 -124.5 38t-48.5 113q0 28 8 50.5t18.5 38t33 28t38.5 19t48.5 12.5t49.5 8.5t55 6.5l26 3
q44 4 62.5 17.5t18.5 52.5q0 59 -36 82.5t-99 23.5q-62 0 -99 -29.5t-39 -90.5zM390 200v82h-2q-8 -15 -53 -23q-17 -3 -54 -8.5t-57 -9t-48.5 -12t-43 -18.5t-26 -28.5t-11.5 -42.5q0 -46 34 -74t81 -28q76 0 128 44.5t52 117.5zM380 610h-68v101h68v-101zM203 610h-68v101
h68v-101z" />
    <glyph glyph-name="aring" unicode="&#xe5;" horiz-adv-x="519" 
d="M117 358h-63q5 88 60.5 130.5t148.5 42.5q190 0 190 -166v-274q0 -38 37 -38q11 0 20 4v-53q-20 -4 -41 -4q-44 0 -59 22.5t-15 67.5h-2q-37 -55 -77.5 -80t-110.5 -25q-76 0 -124.5 38t-48.5 113q0 28 8 50.5t18.5 38t33 28t38.5 19t48.5 12.5t49.5 8.5t55 6.5l26 3
q44 4 62.5 17.5t18.5 52.5q0 59 -36 82.5t-99 23.5q-62 0 -99 -29.5t-39 -90.5zM390 200v82h-2q-8 -15 -53 -23q-17 -3 -54 -8.5t-57 -9t-48.5 -12t-43 -18.5t-26 -28.5t-11.5 -42.5q0 -46 34 -74t81 -28q76 0 128 44.5t52 117.5zM150 680q0 44 31.5 75.5t75.5 31.5
t75.5 -31.5t31.5 -75.5t-31.5 -75.5t-75.5 -31.5t-75.5 31.5t-31.5 75.5zM189 680q0 -29 19.5 -48.5t48.5 -19.5t48.5 19.5t19.5 48.5t-19.5 48.5t-48.5 19.5t-48.5 -19.5t-19.5 -48.5z" />
    <glyph glyph-name="ae" unicode="&#xe6;" horiz-adv-x="870" 
d="M841 241h-388q-6 -87 38 -145t130 -58q123 0 153 129h63q-20 -88 -78 -135t-147 -47q-143 0 -189 130h-2q-8 -41 -43 -71.5t-80.5 -44.5t-92.5 -14q-76 0 -124.5 38t-48.5 113q0 28 8 50.5t18.5 38t33 28t38.5 19t48.5 12.5t49.5 8.5t55 6.5l26 3q44 4 62.5 17.5
t18.5 52.5q0 59 -36 82.5t-99 23.5q-62 0 -99 -29.5t-39 -90.5h-63q5 88 60.5 130.5t148.5 42.5q156 0 172 -107h2q19 51 70.5 79t110.5 28q61 0 106 -23.5t69.5 -65.5t36 -91.5t11.5 -109.5zM453 294h325q0 74 -45.5 129t-117.5 55q-75 0 -119.5 -54t-42.5 -130zM390 200
v82h-2q-8 -15 -53 -23q-17 -3 -54 -8.5t-57 -9t-48.5 -12t-43 -18.5t-26 -28.5t-11.5 -42.5q0 -46 34 -74t81 -28q76 0 128 44.5t52 117.5z" />
    <glyph glyph-name="ccedilla" unicode="&#xe7;" horiz-adv-x="519" 
d="M487 354h-63q-27 124 -146 124q-85 0 -133 -65.5t-48 -154.5t48 -154.5t133 -65.5q58 0 101 42t49 105h63q-13 -92 -68 -145.5t-140 -54.5l-32 -39q17 4 34 4q33 0 57.5 -17.5t24.5 -49.5q0 -42 -33.5 -64t-76.5 -22q-53 0 -94 21l14 32q34 -14 79 -14q53 0 53 43
q0 17 -12.5 27.5t-30.5 10.5q-33 0 -51 -8l-16 15l50 63q-101 10 -158 86.5t-57 184.5q0 116 65 194.5t179 78.5q86 0 142 -45t67 -132z" />
    <glyph glyph-name="egrave" unicode="&#xe8;" horiz-adv-x="519" 
d="M494 241h-397q0 -79 43.5 -141t126.5 -62q129 0 162 132h63q-43 -185 -225 -185q-116 0 -174.5 77t-58.5 196q0 72 23 131.5t77.5 100.5t132.5 41q79 0 132.5 -43t75.5 -107t19 -140zM97 294h334q-2 75 -47 129.5t-117 54.5q-73 0 -117 -53.5t-53 -130.5zM258 589
l-132 141h78l105 -141h-51z" />
    <glyph glyph-name="eacute" unicode="&#xe9;" horiz-adv-x="519" 
d="M494 241h-397q0 -79 43.5 -141t126.5 -62q129 0 162 132h63q-43 -185 -225 -185q-116 0 -174.5 77t-58.5 196q0 72 23 131.5t77.5 100.5t132.5 41q79 0 132.5 -43t75.5 -107t19 -140zM97 294h334q-2 75 -47 129.5t-117 54.5q-73 0 -117 -53.5t-53 -130.5zM414 730
l-132 -141h-51l105 141h78z" />
    <glyph glyph-name="ecircumflex" unicode="&#xea;" horiz-adv-x="519" 
d="M494 241h-397q0 -79 43.5 -141t126.5 -62q129 0 162 132h63q-43 -185 -225 -185q-116 0 -174.5 77t-58.5 196q0 72 23 131.5t77.5 100.5t132.5 41q79 0 132.5 -43t75.5 -107t19 -140zM97 294h334q-2 75 -47 129.5t-117 54.5q-73 0 -117 -53.5t-53 -130.5zM303 730
l114 -141h-65l-86 102l-88 -102h-58l114 141h69z" />
    <glyph glyph-name="edieresis" unicode="&#xeb;" horiz-adv-x="519" 
d="M494 241h-397q0 -79 43.5 -141t126.5 -62q129 0 162 132h63q-43 -185 -225 -185q-116 0 -174.5 77t-58.5 196q0 72 23 131.5t77.5 100.5t132.5 41q79 0 132.5 -43t75.5 -107t19 -140zM97 294h334q-2 75 -47 129.5t-117 54.5q-73 0 -117 -53.5t-53 -130.5zM389 610h-68
v101h68v-101zM212 610h-68v101h68v-101z" />
    <glyph glyph-name="igrave" unicode="&#xec;" horiz-adv-x="185" 
d="M124 0h-63v516h63v-516zM83 589l-132 141h78l105 -141h-51z" />
    <glyph glyph-name="iacute" unicode="&#xed;" horiz-adv-x="185" 
d="M124 0h-63v516h63v-516zM239 730l-132 -141h-51l105 141h78z" />
    <glyph glyph-name="icircumflex" unicode="&#xee;" horiz-adv-x="185" 
d="M124 0h-63v516h63v-516zM128 730l114 -141h-65l-86 102l-88 -102h-58l114 141h69z" />
    <glyph glyph-name="idieresis" unicode="&#xef;" horiz-adv-x="185" 
d="M124 0h-63v516h63v-516zM215 610h-68v101h68v-101zM38 610h-68v101h68v-101z" />
    <glyph glyph-name="eth" unicode="&#xf0;" 
d="M135 596l100 56q-59 38 -93 55l36 35q69 -37 104 -64l114 64l33 -32l-109 -61q196 -159 196 -391q0 -119 -62.5 -196t-182.5 -77q-116 0 -176.5 73.5t-60.5 190.5q0 109 63.5 183t173.5 74q96 0 133 -40h2q-46 87 -133 157l-105 -59zM276 453q-91 0 -135 -57.5
t-44 -147.5q0 -89 44.5 -149.5t132.5 -60.5q86 0 132.5 58t46.5 154q0 84 -44 143.5t-133 59.5z" />
    <glyph glyph-name="ntilde" unicode="&#xf1;" horiz-adv-x="537" 
d="M59 0v516h63v-89h2q18 46 64 75t101 29q104 0 146.5 -50.5t42.5 -148.5v-332h-63v322q0 156 -131 156q-74 0 -117 -49.5t-45 -127.5v-301h-63zM388 710h38q-7 -39 -28.5 -67t-58.5 -28q-29 0 -74.5 23t-63.5 23q-38 0 -50 -51h-39q4 38 28 67t61 29q31 0 75 -22t60 -22
q38 0 52 48z" />
    <glyph glyph-name="ograve" unicode="&#xf2;" 
d="M278 531q114 0 179 -78.5t65 -194.5t-65 -194.5t-179 -78.5t-179 78.5t-65 194.5t65 194.5t179 78.5zM278 478q-85 0 -133 -65.5t-48 -154.5t48 -154.5t133 -65.5t133 65.5t48 154.5t-48 154.5t-133 65.5zM270 589l-132 141h78l105 -141h-51z" />
    <glyph glyph-name="oacute" unicode="&#xf3;" 
d="M278 531q114 0 179 -78.5t65 -194.5t-65 -194.5t-179 -78.5t-179 78.5t-65 194.5t65 194.5t179 78.5zM278 478q-85 0 -133 -65.5t-48 -154.5t48 -154.5t133 -65.5t133 65.5t48 154.5t-48 154.5t-133 65.5zM426 730l-132 -141h-51l105 141h78z" />
    <glyph glyph-name="ocircumflex" unicode="&#xf4;" 
d="M278 531q114 0 179 -78.5t65 -194.5t-65 -194.5t-179 -78.5t-179 78.5t-65 194.5t65 194.5t179 78.5zM278 478q-85 0 -133 -65.5t-48 -154.5t48 -154.5t133 -65.5t133 65.5t48 154.5t-48 154.5t-133 65.5zM315 730l114 -141h-65l-86 102l-88 -102h-58l114 141h69z" />
    <glyph glyph-name="otilde" unicode="&#xf5;" 
d="M278 531q114 0 179 -78.5t65 -194.5t-65 -194.5t-179 -78.5t-179 78.5t-65 194.5t65 194.5t179 78.5zM278 478q-85 0 -133 -65.5t-48 -154.5t48 -154.5t133 -65.5t133 65.5t48 154.5t-48 154.5t-133 65.5zM399 710h38q-7 -39 -28.5 -67t-58.5 -28q-30 0 -75 23t-63 23
q-38 0 -50 -51h-39q4 38 28 67t61 29q31 0 75 -22t60 -22q38 0 52 48z" />
    <glyph glyph-name="odieresis" unicode="&#xf6;" 
d="M278 531q114 0 179 -78.5t65 -194.5t-65 -194.5t-179 -78.5t-179 78.5t-65 194.5t65 194.5t179 78.5zM278 478q-85 0 -133 -65.5t-48 -154.5t48 -154.5t133 -65.5t133 65.5t48 154.5t-48 154.5t-133 65.5zM401 610h-68v101h68v-101zM224 610h-68v101h68v-101z" />
    <glyph glyph-name="divide" unicode="&#xf7;" horiz-adv-x="600" 
d="M244 453q0 23 16.5 39.5t39.5 16.5t39.5 -16.5t16.5 -39.5q0 -21 -17 -38.5t-38 -17.5q-23 0 -40 16.5t-17 39.5zM552 225h-503v53h503v-53zM244 50q0 23 16.5 39.5t39.5 16.5t39.5 -16.5t16.5 -39.5q0 -21 -17 -38.5t-38 -17.5q-23 0 -40 16.5t-17 39.5z" />
    <glyph glyph-name="oslash" unicode="&#xf8;" 
d="M500 519l22 -20l-54 -59q54 -76 54 -182q0 -116 -65 -194.5t-179 -78.5q-105 0 -168 68l-59 -64l-22 20l61 67q-56 73 -56 182q0 116 65 194.5t179 78.5q107 0 170 -68zM133 123l273 295q-48 60 -128 60q-85 0 -133 -65.5t-48 -154.5q0 -77 36 -135zM424 392l-273 -295
q47 -59 127 -59q85 0 133 65.5t48 154.5q0 77 -35 134z" />
    <glyph glyph-name="ugrave" unicode="&#xf9;" horiz-adv-x="537" 
d="M478 516v-516h-58v93h-2q-24 -51 -72 -79.5t-106 -28.5q-181 0 -181 196v335h63v-336q2 -72 33.5 -107t104.5 -35q76 0 115.5 60.5t39.5 146.5v271h63zM259 589l-132 141h78l105 -141h-51z" />
    <glyph glyph-name="uacute" unicode="&#xfa;" horiz-adv-x="537" 
d="M478 516v-516h-58v93h-2q-24 -51 -72 -79.5t-106 -28.5q-181 0 -181 196v335h63v-336q2 -72 33.5 -107t104.5 -35q76 0 115.5 60.5t39.5 146.5v271h63zM415 730l-132 -141h-51l105 141h78z" />
    <glyph glyph-name="ucircumflex" unicode="&#xfb;" horiz-adv-x="537" 
d="M478 516v-516h-58v93h-2q-24 -51 -72 -79.5t-106 -28.5q-181 0 -181 196v335h63v-336q2 -72 33.5 -107t104.5 -35q76 0 115.5 60.5t39.5 146.5v271h63zM304 730l114 -141h-65l-86 102l-88 -102h-58l114 141h69z" />
    <glyph glyph-name="udieresis" unicode="&#xfc;" horiz-adv-x="537" 
d="M478 516v-516h-58v93h-2q-24 -51 -72 -79.5t-106 -28.5q-181 0 -181 196v335h63v-336q2 -72 33.5 -107t104.5 -35q76 0 115.5 60.5t39.5 146.5v271h63zM390 610h-68v101h68v-101zM213 610h-68v101h68v-101z" />
    <glyph glyph-name="yacute" unicode="&#xfd;" horiz-adv-x="463" 
d="M208 2l-206 514h67l170 -440l159 440h63l-224 -595q-29 -68 -54 -90t-82 -22q-38 2 -48 5v53q25 -5 43 -5q20 0 34 5t24.5 18.5t15.5 23.5t16 34zM384 730l-132 -141h-51l105 141h78z" />
    <glyph glyph-name="thorn" unicode="&#xfe;" horiz-adv-x="574" 
d="M60 -191v905h63v-296h2q19 53 69 83t110 30q112 0 172 -78t60 -195t-60 -195t-172 -78q-60 0 -110 29.5t-69 83.5h-2v-289h-63zM473 258q0 57 -16.5 105t-56 81.5t-96.5 33.5q-92 0 -136.5 -64.5t-44.5 -155.5t44.5 -155.5t136.5 -64.5q57 0 96.5 33.5t56 81.5t16.5 105z
" />
    <glyph glyph-name="ydieresis" unicode="&#xff;" horiz-adv-x="463" 
d="M208 2l-206 514h67l170 -440l159 440h63l-224 -595q-29 -68 -54 -90t-82 -22q-38 2 -48 5v53q25 -5 43 -5q20 0 34 5t24.5 18.5t15.5 23.5t16 34zM359 610h-68v101h68v-101zM182 610h-68v101h68v-101z" />
    <glyph glyph-name="Amacron" unicode="&#x100;" horiz-adv-x="630" 
d="M-7 0l288 714h76l280 -714h-73l-87 222h-325l-86 -222h-73zM173 280h281l-138 366zM482 828h-329v45h329v-45z" />
    <glyph glyph-name="amacron" unicode="&#x101;" horiz-adv-x="519" 
d="M117 358h-63q5 88 60.5 130.5t148.5 42.5q190 0 190 -166v-274q0 -38 37 -38q11 0 20 4v-53q-20 -4 -41 -4q-44 0 -59 22.5t-15 67.5h-2q-37 -55 -77.5 -80t-110.5 -25q-76 0 -124.5 38t-48.5 113q0 28 8 50.5t18.5 38t33 28t38.5 19t48.5 12.5t49.5 8.5t55 6.5l26 3
q44 4 62.5 17.5t18.5 52.5q0 59 -36 82.5t-99 23.5q-62 0 -99 -29.5t-39 -90.5zM390 200v82h-2q-8 -15 -53 -23q-17 -3 -54 -8.5t-57 -9t-48.5 -12t-43 -18.5t-26 -28.5t-11.5 -42.5q0 -46 34 -74t81 -28q76 0 128 44.5t52 117.5zM424 638h-329v45h329v-45z" />
    <glyph glyph-name="Abreve" unicode="&#x102;" horiz-adv-x="630" 
d="M-7 0l288 714h76l280 -714h-73l-87 222h-325l-86 -222h-73zM173 280h281l-138 366zM174 914h39q2 -38 32.5 -60t70.5 -22t70 22t36 60h39q-8 -59 -46.5 -93t-98.5 -34q-61 0 -99 33.5t-43 93.5z" />
    <glyph glyph-name="abreve" unicode="&#x103;" horiz-adv-x="519" 
d="M117 358h-63q5 88 60.5 130.5t148.5 42.5q190 0 190 -166v-274q0 -38 37 -38q11 0 20 4v-53q-20 -4 -41 -4q-44 0 -59 22.5t-15 67.5h-2q-37 -55 -77.5 -80t-110.5 -25q-76 0 -124.5 38t-48.5 113q0 28 8 50.5t18.5 38t33 28t38.5 19t48.5 12.5t49.5 8.5t55 6.5l26 3
q44 4 62.5 17.5t18.5 52.5q0 59 -36 82.5t-99 23.5q-62 0 -99 -29.5t-39 -90.5zM390 200v82h-2q-8 -15 -53 -23q-17 -3 -54 -8.5t-57 -9t-48.5 -12t-43 -18.5t-26 -28.5t-11.5 -42.5q0 -46 34 -74t81 -28q76 0 128 44.5t52 117.5zM116 724h39q2 -38 32.5 -60t70.5 -22t70 22
t36 60h39q-8 -59 -46.5 -93t-98.5 -34q-61 0 -99 33.5t-43 93.5z" />
    <glyph glyph-name="Aogonek" unicode="&#x104;" horiz-adv-x="630" 
d="M637 0h-35q-52 -43 -67 -67t-15 -50q0 -23 12.5 -35t31.5 -12q34 0 55 41l29 -13q-30 -67 -98 -67q-43 0 -67 22.5t-24 59.5q0 57 105 121l-87 222h-325l-86 -222h-73l288 714h76zM316 646l-143 -366h281z" />
    <glyph glyph-name="aogonek" unicode="&#x105;" horiz-adv-x="519" 
d="M117 358h-63q5 88 60.5 130.5t148.5 42.5q190 0 190 -166v-274q0 -38 37 -38q11 0 20 4v-53q-20 -4 -41 -4h-4q-52 -43 -67 -67t-15 -50q0 -23 12.5 -35t31.5 -12q34 0 55 41l29 -13q-30 -67 -98 -67q-43 0 -67 22.5t-24 59.5q0 28 23 57t90 69q-40 13 -40 85h-2
q-37 -55 -77.5 -80t-110.5 -25q-76 0 -124.5 38t-48.5 113q0 28 8 50.5t18.5 38t33 28t38.5 19t48.5 12.5t49.5 8.5t55 6.5l26 3q44 4 62.5 17.5t18.5 52.5q0 59 -36 82.5t-99 23.5q-62 0 -99 -29.5t-39 -90.5zM390 200v82h-2q-8 -15 -53 -23q-17 -3 -54 -8.5t-57 -9
t-48.5 -12t-43 -18.5t-26 -28.5t-11.5 -42.5q0 -46 34 -74t81 -28q76 0 128 44.5t52 117.5z" />
    <glyph glyph-name="Cacute" unicode="&#x106;" horiz-adv-x="704" 
d="M38 357q0 75 21.5 141t62 118t106 82.5t147.5 30.5q108 0 190.5 -62t96.5 -169h-68q-18 81 -78.5 127t-140.5 46q-68 0 -121 -27t-84.5 -72t-47.5 -99.5t-16 -115.5t16 -115.5t47.5 -99.5t84.5 -72t121 -27q96 0 157.5 65t71.5 164h68q-14 -133 -93 -210t-204 -77
q-82 0 -147.5 30.5t-106 82.5t-62 118t-21.5 141zM520 920l-132 -141h-51l105 141h78z" />
    <glyph glyph-name="cacute" unicode="&#x107;" horiz-adv-x="519" 
d="M487 354h-63q-27 124 -146 124q-85 0 -133 -65.5t-48 -154.5t48 -154.5t133 -65.5q58 0 101 42t49 105h63q-13 -94 -69.5 -147t-143.5 -53q-114 0 -179 78.5t-65 194.5t65 194.5t179 78.5q86 0 142 -45t67 -132zM423 730l-132 -141h-51l105 141h78z" />
    <glyph glyph-name="Ccircumflex" unicode="&#x108;" horiz-adv-x="704" 
d="M38 357q0 75 21.5 141t62 118t106 82.5t147.5 30.5q108 0 190.5 -62t96.5 -169h-68q-18 81 -78.5 127t-140.5 46q-68 0 -121 -27t-84.5 -72t-47.5 -99.5t-16 -115.5t16 -115.5t47.5 -99.5t84.5 -72t121 -27q96 0 157.5 65t71.5 164h68q-14 -133 -93 -210t-204 -77
q-82 0 -147.5 30.5t-106 82.5t-62 118t-21.5 141zM409 920l114 -141h-65l-86 102l-88 -102h-58l114 141h69z" />
    <glyph glyph-name="ccircumflex" unicode="&#x109;" horiz-adv-x="519" 
d="M487 354h-63q-27 124 -146 124q-85 0 -133 -65.5t-48 -154.5t48 -154.5t133 -65.5q58 0 101 42t49 105h63q-13 -94 -69.5 -147t-143.5 -53q-114 0 -179 78.5t-65 194.5t65 194.5t179 78.5q86 0 142 -45t67 -132zM312 730l114 -141h-65l-86 102l-88 -102h-58l114 141h69z
" />
    <glyph glyph-name="Cdotaccent" unicode="&#x10a;" horiz-adv-x="704" 
d="M38 357q0 75 21.5 141t62 118t106 82.5t147.5 30.5q108 0 190.5 -62t96.5 -169h-68q-18 81 -78.5 127t-140.5 46q-68 0 -121 -27t-84.5 -72t-47.5 -99.5t-16 -115.5t16 -115.5t47.5 -99.5t84.5 -72t121 -27q96 0 157.5 65t71.5 164h68q-14 -133 -93 -210t-204 -77
q-82 0 -147.5 30.5t-106 82.5t-62 118t-21.5 141zM408 800h-68v101h68v-101z" />
    <glyph glyph-name="cdotaccent" unicode="&#x10b;" horiz-adv-x="519" 
d="M487 354h-63q-27 124 -146 124q-85 0 -133 -65.5t-48 -154.5t48 -154.5t133 -65.5q58 0 101 42t49 105h63q-13 -94 -69.5 -147t-143.5 -53q-114 0 -179 78.5t-65 194.5t65 194.5t179 78.5q86 0 142 -45t67 -132zM310 610h-68v101h68v-101z" />
    <glyph glyph-name="Ccaron" unicode="&#x10c;" horiz-adv-x="704" 
d="M38 357q0 75 21.5 141t62 118t106 82.5t147.5 30.5q108 0 190.5 -62t96.5 -169h-68q-18 81 -78.5 127t-140.5 46q-68 0 -121 -27t-84.5 -72t-47.5 -99.5t-16 -115.5t16 -115.5t47.5 -99.5t84.5 -72t121 -27q96 0 157.5 65t71.5 164h68q-14 -133 -93 -210t-204 -77
q-82 0 -147.5 30.5t-106 82.5t-62 118t-21.5 141zM338 779l-114 141h65l86 -102l88 102h58l-114 -141h-69z" />
    <glyph glyph-name="ccaron" unicode="&#x10d;" horiz-adv-x="519" 
d="M487 354h-63q-27 124 -146 124q-85 0 -133 -65.5t-48 -154.5t48 -154.5t133 -65.5q58 0 101 42t49 105h63q-13 -94 -69.5 -147t-143.5 -53q-114 0 -179 78.5t-65 194.5t65 194.5t179 78.5q86 0 142 -45t67 -132zM244 589l-114 141h65l86 -102l88 102h58l-114 -141h-69z
" />
    <glyph glyph-name="Dcaron" unicode="&#x10e;" horiz-adv-x="685" 
d="M72 0v714h247q328 -8 328 -357t-328 -357h-247zM140 58h145q155 0 224.5 70t69.5 229t-69.5 229t-224.5 70h-145v-598zM270 779l-114 141h65l86 -102l88 102h58l-114 -141h-69z" />
    <glyph glyph-name="dcaron" unicode="&#x10f;" horiz-adv-x="574" 
d="M514 714v-714h-58v98h-2q-20 -50 -73 -81.5t-111 -31.5q-112 0 -172 78t-60 195t60 195t172 78q60 0 110 -30t69 -83h2v296h63zM101 258q0 -57 16.5 -105t56 -81.5t96.5 -33.5q92 0 136.5 64.5t44.5 155.5t-44.5 155.5t-136.5 64.5q-57 0 -96.5 -33.5t-56 -81.5
t-16.5 -105zM697 714l-86 -141h-47l55 141h78z" />
    <glyph glyph-name="Dcroat" unicode="&#x110;" horiz-adv-x="685" 
d="M72 393v321h247q328 -8 328 -357t-328 -357h-247v348h-72v45h72zM140 656v-263h236v-45h-236v-290h145q155 0 224.5 70t69.5 229t-69.5 229t-224.5 70h-145z" />
    <glyph glyph-name="dcroat" unicode="&#x111;" horiz-adv-x="598" 
d="M514 584v-584h-58v98h-2q-20 -50 -73 -81.5t-111 -31.5q-112 0 -172 78t-60 195t60 195t172 78q60 0 110 -30t69 -83h2v166h-173v45h173v85h63v-85h84v-45h-84zM101 258q0 -57 16.5 -105t56 -81.5t96.5 -33.5q92 0 136.5 64.5t44.5 155.5t-44.5 155.5t-136.5 64.5
q-57 0 -96.5 -33.5t-56 -81.5t-16.5 -105z" />
    <glyph glyph-name="Emacron" unicode="&#x112;" horiz-adv-x="593" 
d="M72 0v714h493v-58h-425v-258h398v-58h-398v-282h430v-58h-498zM481 828h-329v45h329v-45z" />
    <glyph glyph-name="emacron" unicode="&#x113;" horiz-adv-x="519" 
d="M494 241h-397q0 -79 43.5 -141t126.5 -62q129 0 162 132h63q-43 -185 -225 -185q-116 0 -174.5 77t-58.5 196q0 72 23 131.5t77.5 100.5t132.5 41q79 0 132.5 -43t75.5 -107t19 -140zM97 294h334q-2 75 -47 129.5t-117 54.5q-73 0 -117 -53.5t-53 -130.5zM433 638h-329
v45h329v-45z" />
    <glyph glyph-name="Ebreve" unicode="&#x114;" horiz-adv-x="593" 
d="M72 0v714h493v-58h-425v-258h398v-58h-398v-282h430v-58h-498zM173 914h39q2 -38 32.5 -60t70.5 -22t70 22t36 60h39q-8 -59 -46.5 -93t-98.5 -34q-61 0 -99 33.5t-43 93.5z" />
    <glyph glyph-name="ebreve" unicode="&#x115;" horiz-adv-x="519" 
d="M494 241h-397q0 -79 43.5 -141t126.5 -62q129 0 162 132h63q-43 -185 -225 -185q-116 0 -174.5 77t-58.5 196q0 72 23 131.5t77.5 100.5t132.5 41q79 0 132.5 -43t75.5 -107t19 -140zM97 294h334q-2 75 -47 129.5t-117 54.5q-73 0 -117 -53.5t-53 -130.5zM125 724h39
q2 -38 32.5 -60t70.5 -22t70 22t36 60h39q-8 -59 -46.5 -93t-98.5 -34q-61 0 -99 33.5t-43 93.5z" />
    <glyph glyph-name="Edotaccent" unicode="&#x116;" horiz-adv-x="593" 
d="M72 0v714h493v-58h-425v-258h398v-58h-398v-282h430v-58h-498zM350 800h-68v101h68v-101z" />
    <glyph glyph-name="edotaccent" unicode="&#x117;" horiz-adv-x="519" 
d="M494 241h-397q0 -79 43.5 -141t126.5 -62q129 0 162 132h63q-43 -185 -225 -185q-116 0 -174.5 77t-58.5 196q0 72 23 131.5t77.5 100.5t132.5 41q79 0 132.5 -43t75.5 -107t19 -140zM97 294h334q-2 75 -47 129.5t-117 54.5q-73 0 -117 -53.5t-53 -130.5zM301 610h-68
v101h68v-101z" />
    <glyph glyph-name="Eogonek" unicode="&#x118;" horiz-adv-x="593" 
d="M570 0h-46q-52 -43 -67 -67t-15 -50q0 -23 12.5 -35t31.5 -12q34 0 55 41l29 -13q-30 -67 -98 -67q-43 0 -67 22.5t-24 59.5q0 57 105 121h-414v714h493v-58h-425v-258h398v-58h-398v-282h430v-58z" />
    <glyph glyph-name="eogonek" unicode="&#x119;" horiz-adv-x="519" 
d="M494 241h-397q0 -79 43.5 -141t126.5 -62q129 0 162 132h63q-40 -168 -190 -183q-42 -36 -54 -57.5t-12 -46.5q0 -23 12.5 -35t31.5 -12q34 0 55 41l29 -13q-30 -67 -98 -67q-43 0 -67 22.5t-24 59.5q0 52 81 106q-111 4 -166.5 80.5t-55.5 192.5q0 72 23 131.5
t77.5 100.5t132.5 41q79 0 132.5 -43t75.5 -107t19 -140zM97 294h334q-2 75 -47 129.5t-117 54.5q-73 0 -117 -53.5t-53 -130.5z" />
    <glyph glyph-name="Ecaron" unicode="&#x11a;" horiz-adv-x="593" 
d="M72 0v714h493v-58h-425v-258h398v-58h-398v-282h430v-58h-498zM280 779l-114 141h65l86 -102l88 102h58l-114 -141h-69z" />
    <glyph glyph-name="ecaron" unicode="&#x11b;" horiz-adv-x="519" 
d="M494 241h-397q0 -79 43.5 -141t126.5 -62q129 0 162 132h63q-43 -185 -225 -185q-116 0 -174.5 77t-58.5 196q0 72 23 131.5t77.5 100.5t132.5 41q79 0 132.5 -43t75.5 -107t19 -140zM97 294h334q-2 75 -47 129.5t-117 54.5q-73 0 -117 -53.5t-53 -130.5zM233 589
l-114 141h65l86 -102l88 102h58l-114 -141h-69z" />
    <glyph glyph-name="Gcircumflex" unicode="&#x11c;" horiz-adv-x="741" 
d="M38 357q0 75 21.5 141t62 118t106 82.5t147.5 30.5q116 0 197 -61.5t101 -175.5h-68q-7 67 -71 123t-159 56q-68 0 -121 -27t-84.5 -72t-47.5 -99.5t-16 -115.5t16 -115.5t47.5 -99.5t84.5 -72t121 -27q116 0 182.5 73t64.5 189h-243v58h303v-363h-49l-9 130h-2
q-34 -73 -99.5 -109t-147.5 -36t-147.5 30.5t-106 82.5t-62 118t-21.5 141zM410 920l114 -141h-65l-86 102l-88 -102h-58l114 141h69z" />
    <glyph glyph-name="gcircumflex" unicode="&#x11d;" 
d="M496 516v-474q0 -121 -54 -184.5t-175 -63.5q-85 0 -146.5 39.5t-67.5 116.5h63q9 -53 51 -78t100 -25q86 0 126 49t40 146v70h-2q-22 -49 -65.5 -77.5t-98.5 -28.5q-118 0 -175.5 73t-57.5 192q0 111 62.5 185.5t170.5 74.5q55 0 99.5 -29.5t64.5 -74.5h2v89h63zM267 59
q78 0 122 60.5t44 144.5q0 86 -41.5 150t-124.5 64q-84 0 -127 -62.5t-43 -151.5q0 -85 43.5 -145t126.5 -60zM311 730l114 -141h-65l-86 102l-88 -102h-58l114 141h69z" />
    <glyph glyph-name="Gbreve" unicode="&#x11e;" horiz-adv-x="741" 
d="M38 357q0 75 21.5 141t62 118t106 82.5t147.5 30.5q116 0 197 -61.5t101 -175.5h-68q-7 67 -71 123t-159 56q-68 0 -121 -27t-84.5 -72t-47.5 -99.5t-16 -115.5t16 -115.5t47.5 -99.5t84.5 -72t121 -27q116 0 182.5 73t64.5 189h-243v58h303v-363h-49l-9 130h-2
q-34 -73 -99.5 -109t-147.5 -36t-147.5 30.5t-106 82.5t-62 118t-21.5 141zM232 914h39q2 -38 32.5 -60t70.5 -22t70 22t36 60h39q-8 -59 -46.5 -93t-98.5 -34q-61 0 -99 33.5t-43 93.5z" />
    <glyph glyph-name="gbreve" unicode="&#x11f;" 
d="M496 516v-474q0 -121 -54 -184.5t-175 -63.5q-85 0 -146.5 39.5t-67.5 116.5h63q9 -53 51 -78t100 -25q86 0 126 49t40 146v70h-2q-22 -49 -65.5 -77.5t-98.5 -28.5q-118 0 -175.5 73t-57.5 192q0 111 62.5 185.5t170.5 74.5q55 0 99.5 -29.5t64.5 -74.5h2v89h63zM267 59
q78 0 122 60.5t44 144.5q0 86 -41.5 150t-124.5 64q-84 0 -127 -62.5t-43 -151.5q0 -85 43.5 -145t126.5 -60zM133 724h39q2 -38 32.5 -60t70.5 -22t70 22t36 60h39q-8 -59 -46.5 -93t-98.5 -34q-61 0 -99 33.5t-43 93.5z" />
    <glyph glyph-name="Gdotaccent" unicode="&#x120;" horiz-adv-x="741" 
d="M38 357q0 75 21.5 141t62 118t106 82.5t147.5 30.5q116 0 197 -61.5t101 -175.5h-68q-7 67 -71 123t-159 56q-68 0 -121 -27t-84.5 -72t-47.5 -99.5t-16 -115.5t16 -115.5t47.5 -99.5t84.5 -72t121 -27q116 0 182.5 73t64.5 189h-243v58h303v-363h-49l-9 130h-2
q-34 -73 -99.5 -109t-147.5 -36t-147.5 30.5t-106 82.5t-62 118t-21.5 141zM408 800h-68v101h68v-101z" />
    <glyph glyph-name="gdotaccent" unicode="&#x121;" 
d="M496 516v-474q0 -121 -54 -184.5t-175 -63.5q-85 0 -146.5 39.5t-67.5 116.5h63q9 -53 51 -78t100 -25q86 0 126 49t40 146v70h-2q-22 -49 -65.5 -77.5t-98.5 -28.5q-118 0 -175.5 73t-57.5 192q0 111 62.5 185.5t170.5 74.5q55 0 99.5 -29.5t64.5 -74.5h2v89h63zM267 59
q78 0 122 60.5t44 144.5q0 86 -41.5 150t-124.5 64q-84 0 -127 -62.5t-43 -151.5q0 -85 43.5 -145t126.5 -60zM310 610h-68v101h68v-101z" />
    <glyph glyph-name="Gcommaaccent" unicode="&#x122;" horiz-adv-x="741" 
d="M38 357q0 75 21.5 141t62 118t106 82.5t147.5 30.5q116 0 197 -61.5t101 -175.5h-68q-7 67 -71 123t-159 56q-68 0 -121 -27t-84.5 -72t-47.5 -99.5t-16 -115.5t16 -115.5t47.5 -99.5t84.5 -72t121 -27q116 0 182.5 73t64.5 189h-243v58h303v-363h-49l-9 130h-2
q-34 -73 -99.5 -109t-147.5 -36t-147.5 30.5t-106 82.5t-62 118t-21.5 141zM331 -50h86v-80q0 -69 -86 -73v28q36 7 39 34h-39v91z" />
    <glyph glyph-name="gcommaaccent" unicode="&#x123;" 
d="M496 516v-474q0 -121 -54 -184.5t-175 -63.5q-85 0 -146.5 39.5t-67.5 116.5h63q9 -53 51 -78t100 -25q86 0 126 49t40 146v70h-2q-22 -49 -65.5 -77.5t-98.5 -28.5q-118 0 -175.5 73t-57.5 192q0 111 62.5 185.5t170.5 74.5q55 0 99.5 -29.5t64.5 -74.5h2v89h63zM267 59
q78 0 122 60.5t44 144.5q0 86 -41.5 150t-124.5 64q-84 0 -127 -62.5t-43 -151.5q0 -85 43.5 -145t126.5 -60zM318 623h-86v80q0 69 86 73v-28q-36 -7 -39 -34h39v-91z" />
    <glyph glyph-name="Hcircumflex" unicode="&#x124;" horiz-adv-x="704" 
d="M72 0v714h68v-310h424v310h68v-714h-68v346h-424v-346h-68zM388 920l114 -141h-65l-86 102l-88 -102h-58l114 141h69z" />
    <glyph glyph-name="hcircumflex" unicode="&#x125;" horiz-adv-x="537" 
d="M59 0v714h63v-287h2q18 46 64 75t101 29q104 0 146.5 -50.5t42.5 -148.5v-332h-63v322q0 156 -131 156q-74 0 -117 -49.5t-45 -127.5v-301h-63zM296 920l114 -141h-65l-86 102l-88 -102h-58l114 141h69z" />
    <glyph glyph-name="Hbar" unicode="&#x126;" horiz-adv-x="704" 
d="M72 0v714h68v-155h424v155h68v-714h-68v326h-424v-326h-68zM564 514h-424v-130h424v130z" />
    <glyph glyph-name="hbar" unicode="&#x127;" horiz-adv-x="560" 
d="M59 0v584h-59v45h59v85h63v-85h196v-45h-196v-157h2q18 46 64 75t101 29q104 0 146.5 -50.5t42.5 -148.5v-332h-63v322q0 156 -131 156q-74 0 -117 -49.5t-45 -127.5v-301h-63z" />
    <glyph glyph-name="Itilde" unicode="&#x128;" horiz-adv-x="222" 
d="M77 0v714h68v-714h-68zM231 900h38q-7 -39 -28.5 -67t-58.5 -28q-30 0 -75 23t-63 23q-38 0 -50 -51h-39q4 38 28 67t61 29q31 0 75 -22t60 -22q38 0 52 48z" />
    <glyph glyph-name="itilde" unicode="&#x129;" horiz-adv-x="185" 
d="M124 0h-63v516h63v-516zM212 710h38q-7 -39 -28.5 -67t-58.5 -28q-29 0 -74.5 23t-63.5 23q-38 0 -50 -51h-39q4 38 28 67t61 29q31 0 75 -22t60 -22q38 0 52 48z" />
    <glyph glyph-name="Imacron" unicode="&#x12a;" horiz-adv-x="222" 
d="M77 0v714h68v-714h-68zM277 828h-329v45h329v-45z" />
    <glyph glyph-name="imacron" unicode="&#x12b;" horiz-adv-x="185" 
d="M124 0h-63v516h63v-516zM258 638h-329v45h329v-45z" />
    <glyph glyph-name="Ibreve" unicode="&#x12c;" horiz-adv-x="222" 
d="M77 0v714h68v-714h-68zM-31 914h39q2 -38 32.5 -60t70.5 -22t70 22t36 60h39q-8 -59 -46.5 -93t-98.5 -34q-61 0 -99 33.5t-43 93.5z" />
    <glyph glyph-name="ibreve" unicode="&#x12d;" horiz-adv-x="185" 
d="M124 0h-63v516h63v-516zM-50 724h39q2 -38 32.5 -60t70.5 -22t70 22t36 60h39q-8 -59 -46.5 -93t-98.5 -34q-61 0 -99 33.5t-43 93.5z" />
    <glyph glyph-name="Iogonek" unicode="&#x12e;" horiz-adv-x="222" 
d="M145 714v-714q-47 -44 -60.5 -67.5t-13.5 -49.5q0 -23 11.5 -35t28.5 -12q31 0 49 41l27 -13q-28 -67 -89 -67q-39 0 -60.5 22.5t-21.5 59.5q0 58 95 121h-34v714h68z" />
    <glyph glyph-name="iogonek" unicode="&#x12f;" horiz-adv-x="185" 
d="M61 613v101h63v-101h-63zM124 516v-516q-47 -43 -60.5 -67t-13.5 -50q0 -23 12 -35t28 -12q31 0 49 41l26 -13q-26 -67 -88 -67q-38 0 -60 22.5t-22 59.5q0 56 95 121h-29v516h63z" />
    <glyph glyph-name="Idotaccent" unicode="&#x130;" horiz-adv-x="222" 
d="M77 0v714h68v-714h-68zM145 800h-68v101h68v-101z" />
    <glyph glyph-name="dotlessi" unicode="&#x131;" horiz-adv-x="185" 
d="M124 0h-63v516h63v-516z" />
    <glyph glyph-name="Jcircumflex" unicode="&#x134;" horiz-adv-x="500" 
d="M220 -15q-199 0 -199 244h68q0 -3 0.5 -19.5t1 -23.5t2.5 -24t5 -25.5l8 -23t11.5 -22.5t17 -19t23.5 -16t30 -9t38 -4q78 0 106 41.5t28 143.5v486h68v-515q0 -111 -47.5 -162.5t-160.5 -51.5zM425 920l114 -141h-65l-86 102l-88 -102h-58l114 141h69z" />
    <glyph glyph-name="jcircumflex" unicode="&#x135;" horiz-adv-x="185" 
d="M61 -63v579h63v-564q0 -143 -110 -143l-44 2v52q22 -2 34 -1q34 0 45.5 19t11.5 56zM125 730l114 -141h-65l-86 102l-88 -102h-58l114 141h69z" />
    <glyph glyph-name="Kcommaaccent" unicode="&#x136;" horiz-adv-x="648" 
d="M72 0v714h68v-384l415 384h92l-319 -295l334 -419h-88l-297 372l-137 -127v-245h-68zM311 -50h86v-80q0 -69 -86 -73v28q36 7 39 34h-39v91z" />
    <glyph glyph-name="kcommaaccent" unicode="&#x137;" horiz-adv-x="500" 
d="M60 0v714h63v-448l286 250h84l-220 -191l235 -325h-79l-204 281l-102 -85v-196h-63zM221 -50h86v-80q0 -69 -86 -73v28q36 7 39 34h-39v91z" />
    <glyph glyph-name="kgreenlandic" unicode="&#x138;" horiz-adv-x="499" 
d="M59 0v516h63v-250l286 250h84l-220 -191l235 -325h-79l-204 281l-102 -85v-196h-63z" />
    <glyph glyph-name="Lacute" unicode="&#x139;" horiz-adv-x="537" 
d="M72 0v714h68v-656h400v-58h-468zM262 920l-132 -141h-51l105 141h78z" />
    <glyph glyph-name="lacute" unicode="&#x13a;" horiz-adv-x="185" 
d="M61 0v714h63v-714h-63zM242 920l-132 -141h-51l105 141h78z" />
    <glyph glyph-name="Lcommaaccent" unicode="&#x13b;" horiz-adv-x="537" 
d="M72 0v714h68v-656h400v-58h-468zM257 -50h86v-80q0 -69 -86 -73v28q36 7 39 34h-39v91z" />
    <glyph glyph-name="lcommaaccent" unicode="&#x13c;" horiz-adv-x="185" 
d="M61 0v714h63v-714h-63zM50 -50h86v-80q0 -69 -86 -73v28q36 7 39 34h-39v91z" />
    <glyph glyph-name="Lcaron" unicode="&#x13d;" horiz-adv-x="537" 
d="M72 0v714h68v-656h400v-58h-468zM378 714l-86 -141h-47l55 141h78z" />
    <glyph glyph-name="lcaron" unicode="&#x13e;" horiz-adv-x="185" 
d="M61 0v714h63v-714h-63zM307 714l-86 -141h-47l55 141h78z" />
    <glyph glyph-name="Ldot" unicode="&#x13f;" horiz-adv-x="537" 
d="M72 0v714h68v-656h400v-58h-468zM356 335h-68v101h68v-101z" />
    <glyph glyph-name="ldot" unicode="&#x140;" horiz-adv-x="296" 
d="M61 0v714h63v-714h-63zM256 335h-68v101h68v-101z" />
    <glyph glyph-name="Lslash" unicode="&#x141;" horiz-adv-x="537" 
d="M72 306v408h68v-361l243 168v-56l-243 -167v-240h400v-58h-468v251l-82 -57v56z" />
    <glyph glyph-name="lslash" unicode="&#x142;" horiz-adv-x="185" 
d="M61 395v319h63v-267l67 55v-55l-67 -55v-392h-63v340l-67 -55v55z" />
    <glyph glyph-name="Nacute" unicode="&#x143;" horiz-adv-x="704" 
d="M71 0v714h76l416 -604h2v604h68v-714h-76l-416 604h-2v-604h-68zM505 920l-132 -141h-51l105 141h78z" />
    <glyph glyph-name="nacute" unicode="&#x144;" horiz-adv-x="537" 
d="M59 0v516h63v-89h2q18 46 64 75t101 29q104 0 146.5 -50.5t42.5 -148.5v-332h-63v322q0 156 -131 156q-74 0 -117 -49.5t-45 -127.5v-301h-63zM415 730l-132 -141h-51l105 141h78z" />
    <glyph glyph-name="Ncommaaccent" unicode="&#x145;" horiz-adv-x="704" 
d="M71 0v714h76l416 -604h2v604h68v-714h-76l-416 604h-2v-604h-68zM311 -50h86v-80q0 -69 -86 -73v28q36 7 39 34h-39v91z" />
    <glyph glyph-name="ncommaaccent" unicode="&#x146;" horiz-adv-x="537" 
d="M59 0v516h63v-89h2q18 46 64 75t101 29q104 0 146.5 -50.5t42.5 -148.5v-332h-63v322q0 156 -131 156q-74 0 -117 -49.5t-45 -127.5v-301h-63zM227 -50h86v-80q0 -69 -86 -73v28q36 7 39 34h-39v91z" />
    <glyph glyph-name="Ncaron" unicode="&#x147;" horiz-adv-x="704" 
d="M71 0v714h76l416 -604h2v604h68v-714h-76l-416 604h-2v-604h-68zM324 779l-114 141h65l86 -102l88 102h58l-114 -141h-69z" />
    <glyph glyph-name="ncaron" unicode="&#x148;" horiz-adv-x="537" 
d="M59 0v516h63v-89h2q18 46 64 75t101 29q104 0 146.5 -50.5t42.5 -148.5v-332h-63v322q0 156 -131 156q-74 0 -117 -49.5t-45 -127.5v-301h-63zM233 589l-114 141h65l86 -102l88 102h58l-114 -141h-69z" />
    <glyph glyph-name="Eng" unicode="&#x14a;" horiz-adv-x="704" 
d="M565 714h68v-744q0 -84 -33.5 -122.5t-115.5 -38.5q-28 0 -62 3v58q27 -4 51 -4q51 0 71.5 20.5t20.5 73.5v28l-424 616h-2v-604h-68v714h76l416 -604h2v604z" />
    <glyph glyph-name="eng" unicode="&#x14b;" horiz-adv-x="537" 
d="M415 -55v377q0 156 -131 156q-74 0 -117 -49.5t-45 -127.5v-301h-63v516h63v-89h2q18 46 64 75t101 29q104 0 146.5 -50.5t42.5 -148.5v-372q0 -79 -28.5 -115t-101.5 -36q-26 0 -57 3v53q27 -3 47 -3q45 0 61 17.5t16 65.5z" />
    <glyph glyph-name="Omacron" unicode="&#x14c;" horiz-adv-x="741" 
d="M34 357q0 75 21.5 141t62 118t106 82.5t147.5 30.5q108 0 185.5 -53t114 -135.5t36.5 -183.5t-36.5 -183.5t-114 -135.5t-185.5 -53q-82 0 -147.5 30.5t-106 82.5t-62 118t-21.5 141zM102 357q0 -61 16 -115.5t47.5 -99.5t84.5 -72t121 -27t121 27t84 72t47 99.5
t16 115.5t-16 115.5t-47 99.5t-84 72t-121 27t-121 -27t-84.5 -72t-47.5 -99.5t-16 -115.5zM537 828h-329v45h329v-45z" />
    <glyph glyph-name="omacron" unicode="&#x14d;" 
d="M278 531q114 0 179 -78.5t65 -194.5t-65 -194.5t-179 -78.5t-179 78.5t-65 194.5t65 194.5t179 78.5zM278 478q-85 0 -133 -65.5t-48 -154.5t48 -154.5t133 -65.5t133 65.5t48 154.5t-48 154.5t-133 65.5zM445 638h-329v45h329v-45z" />
    <glyph glyph-name="Obreve" unicode="&#x14e;" horiz-adv-x="741" 
d="M34 357q0 75 21.5 141t62 118t106 82.5t147.5 30.5q108 0 185.5 -53t114 -135.5t36.5 -183.5t-36.5 -183.5t-114 -135.5t-185.5 -53q-82 0 -147.5 30.5t-106 82.5t-62 118t-21.5 141zM102 357q0 -61 16 -115.5t47.5 -99.5t84.5 -72t121 -27t121 27t84 72t47 99.5
t16 115.5t-16 115.5t-47 99.5t-84 72t-121 27t-121 -27t-84.5 -72t-47.5 -99.5t-16 -115.5zM229 914h39q2 -38 32.5 -60t70.5 -22t70 22t36 60h39q-8 -59 -46.5 -93t-98.5 -34q-61 0 -99 33.5t-43 93.5z" />
    <glyph glyph-name="obreve" unicode="&#x14f;" 
d="M278 531q114 0 179 -78.5t65 -194.5t-65 -194.5t-179 -78.5t-179 78.5t-65 194.5t65 194.5t179 78.5zM278 478q-85 0 -133 -65.5t-48 -154.5t48 -154.5t133 -65.5t133 65.5t48 154.5t-48 154.5t-133 65.5zM137 724h39q2 -38 32.5 -60t70.5 -22t70 22t36 60h39
q-8 -59 -46.5 -93t-98.5 -34q-61 0 -99 33.5t-43 93.5z" />
    <glyph glyph-name="Ohungarumlaut" unicode="&#x150;" horiz-adv-x="741" 
d="M34 357q0 75 21.5 141t62 118t106 82.5t147.5 30.5q108 0 185.5 -53t114 -135.5t36.5 -183.5t-36.5 -183.5t-114 -135.5t-185.5 -53q-82 0 -147.5 30.5t-106 82.5t-62 118t-21.5 141zM102 357q0 -61 16 -115.5t47.5 -99.5t84.5 -72t121 -27t121 27t84 72t47 99.5
t16 115.5t-16 115.5t-47 99.5t-84 72t-121 27t-121 -27t-84.5 -72t-47.5 -99.5t-16 -115.5zM470 779h-51l101 141h76zM314 779h-51l101 141h76z" />
    <glyph glyph-name="ohungarumlaut" unicode="&#x151;" 
d="M278 531q114 0 179 -78.5t65 -194.5t-65 -194.5t-179 -78.5t-179 78.5t-65 194.5t65 194.5t179 78.5zM278 478q-85 0 -133 -65.5t-48 -154.5t48 -154.5t133 -65.5t133 65.5t48 154.5t-48 154.5t-133 65.5zM378 589h-51l101 141h76zM222 589h-51l101 141h76z" />
    <glyph glyph-name="OE" unicode="&#x152;" horiz-adv-x="1074" 
d="M637 656v-258h368v-58h-368v-282h409v-58h-477v70q-35 -41 -87.5 -63t-106.5 -22q-154 0 -246 108t-92 264t92 264t246 108q127 0 194 -74v59h474v-58h-406zM569 177v332q0 46 -5 66q-17 43 -75 69.5t-114 26.5q-125 0 -197.5 -91t-72.5 -223t72.5 -223t197.5 -91
q114 0 176 79q16 20 18 55z" />
    <glyph glyph-name="oe" unicode="&#x153;" horiz-adv-x="889" 
d="M799 166h63q-21 -87 -80 -134t-148 -47q-66 0 -117.5 34.5t-66.5 96.5h-2q-18 -64 -67 -97.5t-118 -33.5q-115 0 -171 77.5t-56 195.5q0 115 59.5 194t170.5 79q68 0 116 -31.5t68 -95.5h2q21 58 71.5 92.5t118.5 34.5q113 0 167 -72.5t54 -217.5h-384q0 -83 41 -143
t120 -60q122 0 159 128zM479 294h321q0 77 -42.5 130.5t-117.5 53.5q-77 0 -119 -53t-42 -131zM265 478q-62 0 -101 -37t-52 -86t-13 -109q0 -86 41 -147t124 -61q152 0 152 224q0 216 -151 216z" />
    <glyph glyph-name="Racute" unicode="&#x154;" horiz-adv-x="667" 
d="M72 0v714h327q94 0 155.5 -47t61.5 -139q0 -70 -36 -119t-103 -63v-2q66 -9 93.5 -49.5t31.5 -111.5q0 -3 1.5 -33t3 -44t4.5 -39t9 -41t15 -26h-75q-6 9 -9.5 25t-5 28.5t-2.5 32t-2 25.5q-2 38 -4.5 61.5t-11 55t-23 49t-41 29.5t-63.5 11h-258v-317h-68zM140 656v-281
h254q65 0 109.5 38t44.5 101q0 67 -39 104.5t-115 37.5h-254zM460 920l-132 -141h-51l105 141h78z" />
    <glyph glyph-name="racute" unicode="&#x155;" horiz-adv-x="315" 
d="M60 0v516h58v-121h2q24 64 75 97.5t120 30.5v-63q-84 4 -138 -49.5t-54 -135.5v-275h-63zM342 730l-132 -141h-51l105 141h78z" />
    <glyph glyph-name="Rcommaaccent" unicode="&#x156;" horiz-adv-x="667" 
d="M72 0v714h327q94 0 155.5 -47t61.5 -139q0 -70 -36 -119t-103 -63v-2q66 -9 93.5 -49.5t31.5 -111.5q0 -3 1.5 -33t3 -44t4.5 -39t9 -41t15 -26h-75q-6 9 -9.5 25t-5 28.5t-2.5 32t-2 25.5q-2 38 -4.5 61.5t-11 55t-23 49t-41 29.5t-63.5 11h-258v-317h-68zM140 656v-281
h254q65 0 109.5 38t44.5 101q0 67 -39 104.5t-115 37.5h-254zM298 -50h86v-80q0 -69 -86 -73v28q36 7 39 34h-39v91z" />
    <glyph glyph-name="rcommaaccent" unicode="&#x157;" horiz-adv-x="315" 
d="M60 0v516h58v-121h2q24 64 75 97.5t120 30.5v-63q-84 4 -138 -49.5t-54 -135.5v-275h-63zM50 -50h86v-80q0 -69 -86 -73v28q36 7 39 34h-39v91z" />
    <glyph glyph-name="Rcaron" unicode="&#x158;" horiz-adv-x="667" 
d="M72 0v714h327q94 0 155.5 -47t61.5 -139q0 -70 -36 -119t-103 -63v-2q66 -9 93.5 -49.5t31.5 -111.5q0 -3 1.5 -33t3 -44t4.5 -39t9 -41t15 -26h-75q-6 9 -9.5 25t-5 28.5t-2.5 32t-2 25.5q-2 38 -4.5 61.5t-11 55t-23 49t-41 29.5t-63.5 11h-258v-317h-68zM140 656v-281
h254q65 0 109.5 38t44.5 101q0 67 -39 104.5t-115 37.5h-254zM275 779l-114 141h65l86 -102l88 102h58l-114 -141h-69z" />
    <glyph glyph-name="rcaron" unicode="&#x159;" horiz-adv-x="315" 
d="M60 0v516h58v-121h2q24 64 75 97.5t120 30.5v-63q-84 4 -138 -49.5t-54 -135.5v-275h-63zM158 589l-114 141h65l86 -102l88 102h58l-114 -141h-69z" />
    <glyph glyph-name="Sacute" unicode="&#x15a;" horiz-adv-x="630" 
d="M36 235h68q-4 -192 233 -192q41 0 82.5 13.5t74 48.5t32.5 83q0 94 -147 129l-159 39q-74 19 -117.5 57t-43.5 115q0 30 11 61.5t36 64.5t76.5 54t122.5 21q113 0 188.5 -58t75.5 -164h-68q-4 78 -59.5 121t-135.5 43q-78 0 -128.5 -34t-50.5 -108q0 -85 108 -109
l174 -43q87 -23 136 -65.5t49 -122.5q0 -20 -3.5 -40.5t-20 -52t-43.5 -54.5t-80.5 -40t-125.5 -17q-134 0 -212.5 62.5t-72.5 187.5zM463 920l-132 -141h-51l105 141h78z" />
    <glyph glyph-name="sacute" unicode="&#x15b;" horiz-adv-x="481" 
d="M432 365h-63q-2 56 -40 84.5t-95 28.5q-49 0 -85.5 -21.5t-36.5 -67.5q0 -60 107 -87l84 -19q62 -9 104.5 -45t42.5 -98q0 -77 -62.5 -116t-144.5 -39q-196 0 -212 182h63q4 -62 45.5 -95.5t106.5 -33.5q54 0 97.5 24.5t43.5 73.5q0 41 -30 61t-83 33l-81 18
q-71 18 -107.5 48t-36.5 90q0 73 58 109t136 36q81 0 133 -42.5t56 -123.5zM392 730l-132 -141h-51l105 141h78z" />
    <glyph glyph-name="Scircumflex" unicode="&#x15c;" horiz-adv-x="630" 
d="M36 235h68q-4 -192 233 -192q41 0 82.5 13.5t74 48.5t32.5 83q0 94 -147 129l-159 39q-74 19 -117.5 57t-43.5 115q0 30 11 61.5t36 64.5t76.5 54t122.5 21q113 0 188.5 -58t75.5 -164h-68q-4 78 -59.5 121t-135.5 43q-78 0 -128.5 -34t-50.5 -108q0 -85 108 -109
l174 -43q87 -23 136 -65.5t49 -122.5q0 -20 -3.5 -40.5t-20 -52t-43.5 -54.5t-80.5 -40t-125.5 -17q-134 0 -212.5 62.5t-72.5 187.5zM352 920l114 -141h-65l-86 102l-88 -102h-58l114 141h69z" />
    <glyph glyph-name="scircumflex" unicode="&#x15d;" horiz-adv-x="481" 
d="M432 365h-63q-2 56 -40 84.5t-95 28.5q-49 0 -85.5 -21.5t-36.5 -67.5q0 -60 107 -87l84 -19q62 -9 104.5 -45t42.5 -98q0 -77 -62.5 -116t-144.5 -39q-196 0 -212 182h63q4 -62 45.5 -95.5t106.5 -33.5q54 0 97.5 24.5t43.5 73.5q0 41 -30 61t-83 33l-81 18
q-71 18 -107.5 48t-36.5 90q0 73 58 109t136 36q81 0 133 -42.5t56 -123.5zM281 730l114 -141h-65l-86 102l-88 -102h-58l114 141h69z" />
    <glyph glyph-name="Scedilla" unicode="&#x15e;" horiz-adv-x="630" 
d="M36 235h68q-4 -192 233 -192q41 0 82.5 13.5t74 48.5t32.5 83q0 94 -147 129l-159 39q-74 19 -117.5 57t-43.5 115q0 30 11 61.5t36 64.5t76.5 54t122.5 21q113 0 188.5 -58t75.5 -164h-68q-4 78 -59.5 121t-135.5 43q-78 0 -128.5 -34t-50.5 -108q0 -85 108 -109
l174 -43q87 -23 136 -65.5t49 -122.5q0 -20 -3.5 -40.5t-20 -51.5t-43 -54t-79.5 -40.5t-124 -17.5l-32 -39q17 4 34 4q33 0 57.5 -17.5t24.5 -49.5q0 -42 -33.5 -64t-76.5 -22q-53 0 -94 21l14 32q34 -14 79 -14q53 0 53 43q0 17 -12.5 27.5t-30.5 10.5q-33 0 -51 -8
l-16 15l50 62q-121 7 -190.5 69.5t-63.5 179.5z" />
    <glyph glyph-name="scedilla" unicode="&#x15f;" horiz-adv-x="481" 
d="M432 365h-63q-2 56 -40 84.5t-95 28.5q-49 0 -85.5 -21.5t-36.5 -67.5q0 -60 107 -87l84 -19q62 -9 104.5 -45t42.5 -98q0 -75 -58.5 -113.5t-139.5 -41.5l-32 -39q17 4 34 4q33 0 57.5 -17.5t24.5 -49.5q0 -42 -33.5 -64t-76.5 -22q-53 0 -94 21l14 32q34 -14 79 -14
q53 0 53 43q0 17 -12.5 27.5t-30.5 10.5q-33 0 -51 -8l-16 15l49 62q-172 13 -186 181h63q4 -62 45.5 -95.5t106.5 -33.5q54 0 97.5 24.5t43.5 73.5q0 41 -30 61t-83 33l-81 18q-71 18 -107.5 48t-36.5 90q0 73 58 109t136 36q81 0 133 -42.5t56 -123.5z" />
    <glyph glyph-name="Scaron" unicode="&#x160;" horiz-adv-x="630" 
d="M36 235h68q-4 -192 233 -192q41 0 82.5 13.5t74 48.5t32.5 83q0 94 -147 129l-159 39q-74 19 -117.5 57t-43.5 115q0 30 11 61.5t36 64.5t76.5 54t122.5 21q113 0 188.5 -58t75.5 -164h-68q-4 78 -59.5 121t-135.5 43q-78 0 -128.5 -34t-50.5 -108q0 -85 108 -109
l174 -43q87 -23 136 -65.5t49 -122.5q0 -20 -3.5 -40.5t-20 -52t-43.5 -54.5t-80.5 -40t-125.5 -17q-134 0 -212.5 62.5t-72.5 187.5zM281 779l-114 141h65l86 -102l88 102h58l-114 -141h-69z" />
    <glyph glyph-name="scaron" unicode="&#x161;" horiz-adv-x="481" 
d="M432 365h-63q-2 56 -40 84.5t-95 28.5q-49 0 -85.5 -21.5t-36.5 -67.5q0 -60 107 -87l84 -19q62 -9 104.5 -45t42.5 -98q0 -77 -62.5 -116t-144.5 -39q-196 0 -212 182h63q4 -62 45.5 -95.5t106.5 -33.5q54 0 97.5 24.5t43.5 73.5q0 41 -30 61t-83 33l-81 18
q-71 18 -107.5 48t-36.5 90q0 73 58 109t136 36q81 0 133 -42.5t56 -123.5zM210 589l-114 141h65l86 -102l88 102h58l-114 -141h-69z" />
    <glyph glyph-name="Tcommaaccent" unicode="&#x162;" 
d="M-5 656v58h566v-58h-249v-656h-68v656h-249zM235 -50h86v-80q0 -69 -86 -73v28q36 7 39 34h-39v91z" />
    <glyph glyph-name="tcommaaccent" unicode="&#x163;" horiz-adv-x="296" 
d="M160 671v-155h105v-53h-105v-348q0 -34 10 -50t41 -18q27 0 54 3v-54q-9 0 -28 -1t-28 -1q-63 0 -88 25t-24 91v353h-90v53h90v155h63zM136 -50h86v-80q0 -69 -86 -73v28q36 7 39 34h-39v91z" />
    <glyph glyph-name="Tcaron" unicode="&#x164;" 
d="M-5 656v58h566v-58h-249v-656h-68v656h-249zM245 779l-114 141h65l86 -102l88 102h58l-114 -141h-69z" />
    <glyph glyph-name="tcaron" unicode="&#x165;" horiz-adv-x="296" 
d="M356 714l-86 -141h-47l55 141h78zM160 671v-155h105v-53h-105v-348q0 -34 10 -50t41 -18q27 0 54 3v-54q-9 0 -28 -1t-28 -1q-63 0 -88 25t-24 91v353h-90v53h90v155h63z" />
    <glyph glyph-name="Tbar" unicode="&#x166;" 
d="M-5 656v58h566v-58h-249v-170h165v-45h-165v-441h-68v441h-164v45h164v170h-249z" />
    <glyph glyph-name="tbar" unicode="&#x167;" horiz-adv-x="296" 
d="M160 671v-155h105v-53h-105v-109h96v-45h-96v-194q0 -34 10 -50t41 -18q27 0 54 3v-54l-56 -2q-63 0 -87.5 25t-24.5 91v199h-86v45h86v109h-90v53h90v155h63z" />
    <glyph glyph-name="Utilde" unicode="&#x168;" horiz-adv-x="685" 
d="M65 257v457h68v-442q0 -120 53 -174.5t156 -54.5t156.5 54.5t53.5 174.5v442h68v-457q0 -120 -68.5 -196t-209.5 -76q-140 0 -208.5 76.5t-68.5 195.5zM461 900h38q-7 -39 -28.5 -67t-58.5 -28q-30 0 -75 23t-63 23q-38 0 -50 -51h-39q4 38 28 67t61 29q31 0 75 -22
t60 -22q38 0 52 48z" />
    <glyph glyph-name="utilde" unicode="&#x169;" horiz-adv-x="537" 
d="M478 516v-516h-58v93h-2q-24 -51 -72 -79.5t-106 -28.5q-181 0 -181 196v335h63v-336q2 -72 33.5 -107t104.5 -35q76 0 115.5 60.5t39.5 146.5v271h63zM388 710h38q-7 -39 -28.5 -67t-58.5 -28q-29 0 -74.5 23t-63.5 23q-38 0 -50 -51h-39q4 38 28 67t61 29q31 0 75 -22
t60 -22q38 0 52 48z" />
    <glyph glyph-name="Umacron" unicode="&#x16a;" horiz-adv-x="685" 
d="M65 257v457h68v-442q0 -120 53 -174.5t156 -54.5t156.5 54.5t53.5 174.5v442h68v-457q0 -120 -68.5 -196t-209.5 -76q-140 0 -208.5 76.5t-68.5 195.5zM507 828h-329v45h329v-45z" />
    <glyph glyph-name="umacron" unicode="&#x16b;" horiz-adv-x="537" 
d="M478 516v-516h-58v93h-2q-24 -51 -72 -79.5t-106 -28.5q-181 0 -181 196v335h63v-336q2 -72 33.5 -107t104.5 -35q76 0 115.5 60.5t39.5 146.5v271h63zM434 638h-329v45h329v-45z" />
    <glyph glyph-name="Ubreve" unicode="&#x16c;" horiz-adv-x="685" 
d="M65 257v457h68v-442q0 -120 53 -174.5t156 -54.5t156.5 54.5t53.5 174.5v442h68v-457q0 -120 -68.5 -196t-209.5 -76q-140 0 -208.5 76.5t-68.5 195.5zM199 914h39q2 -38 32.5 -60t70.5 -22t70 22t36 60h39q-8 -59 -46.5 -93t-98.5 -34q-61 0 -99 33.5t-43 93.5z" />
    <glyph glyph-name="ubreve" unicode="&#x16d;" horiz-adv-x="537" 
d="M478 516v-516h-58v93h-2q-24 -51 -72 -79.5t-106 -28.5q-181 0 -181 196v335h63v-336q2 -72 33.5 -107t104.5 -35q76 0 115.5 60.5t39.5 146.5v271h63zM126 724h39q2 -38 32.5 -60t70.5 -22t70 22t36 60h39q-8 -59 -46.5 -93t-98.5 -34q-61 0 -99 33.5t-43 93.5z" />
    <glyph glyph-name="Uring" unicode="&#x16e;" horiz-adv-x="685" 
d="M65 257v457h68v-442q0 -120 53 -174.5t156 -54.5t156.5 54.5t53.5 174.5v442h68v-457q0 -120 -68.5 -196t-209.5 -76q-140 0 -208.5 76.5t-68.5 195.5zM233 860q0 44 31.5 75.5t75.5 31.5t75.5 -31.5t31.5 -75.5t-31.5 -75.5t-75.5 -31.5t-75.5 31.5t-31.5 75.5zM272 860
q0 -29 19.5 -48.5t48.5 -19.5t48.5 19.5t19.5 48.5t-19.5 48.5t-48.5 19.5t-48.5 -19.5t-19.5 -48.5z" />
    <glyph glyph-name="uring" unicode="&#x16f;" horiz-adv-x="537" 
d="M478 516v-516h-58v93h-2q-24 -51 -72 -79.5t-106 -28.5q-181 0 -181 196v335h63v-336q2 -72 33.5 -107t104.5 -35q76 0 115.5 60.5t39.5 146.5v271h63zM162 680q0 44 31.5 75.5t75.5 31.5t75.5 -31.5t31.5 -75.5t-31.5 -75.5t-75.5 -31.5t-75.5 31.5t-31.5 75.5zM201 680
q0 -29 19.5 -48.5t48.5 -19.5t48.5 19.5t19.5 48.5t-19.5 48.5t-48.5 19.5t-48.5 -19.5t-19.5 -48.5z" />
    <glyph glyph-name="Uhungarumlaut" unicode="&#x170;" horiz-adv-x="685" 
d="M65 257v457h68v-442q0 -120 53 -174.5t156 -54.5t156.5 54.5t53.5 174.5v442h68v-457q0 -120 -68.5 -196t-209.5 -76q-140 0 -208.5 76.5t-68.5 195.5zM440 779h-51l101 141h76zM284 779h-51l101 141h76z" />
    <glyph glyph-name="uhungarumlaut" unicode="&#x171;" horiz-adv-x="537" 
d="M478 516v-516h-58v93h-2q-24 -51 -72 -79.5t-106 -28.5q-181 0 -181 196v335h63v-336q2 -72 33.5 -107t104.5 -35q76 0 115.5 60.5t39.5 146.5v271h63zM367 589h-51l101 141h76zM211 589h-51l101 141h76z" />
    <glyph glyph-name="Uogonek" unicode="&#x172;" horiz-adv-x="685" 
d="M65 257v457h68v-442q0 -120 53 -174.5t156 -54.5t156.5 54.5t53.5 174.5v442h68v-457q0 -112 -61 -187t-186 -84q-41 -36 -53 -57t-12 -46q0 -23 12.5 -35t31.5 -12q34 0 55 41l29 -13q-30 -67 -98 -67q-43 0 -67 22.5t-24 59.5q0 52 81 106q-133 4 -198 80t-65 192z" />
    <glyph glyph-name="uogonek" unicode="&#x173;" horiz-adv-x="537" 
d="M478 0h-20q-52 -43 -67 -67t-15 -50q0 -23 12.5 -35t31.5 -12q34 0 55 41l29 -13q-30 -67 -98 -67q-43 0 -67 22.5t-24 59.5q0 57 105 121v93h-2q-24 -51 -72 -79.5t-106 -28.5q-181 0 -181 196v335h63v-336q2 -72 33.5 -107t104.5 -35q76 0 115.5 60.5t39.5 146.5v271
h63v-516z" />
    <glyph glyph-name="Wcircumflex" unicode="&#x174;" horiz-adv-x="907" 
d="M198 0l-198 714h73l162 -625h2l174 625h85l175 -625h2l163 625h68l-197 -714h-72l-181 639h-2l-180 -639h-74zM489 920l114 -141h-65l-86 102l-88 -102h-58l114 141h69z" />
    <glyph glyph-name="wcircumflex" unicode="&#x175;" horiz-adv-x="741" 
d="M174 0l-166 516h67l132 -442h2l126 442h71l126 -442h2l132 442h67l-166 -516h-69l-127 434h-2l-126 -434h-69zM406 730l114 -141h-65l-86 102l-88 -102h-58l114 141h69z" />
    <glyph glyph-name="Ycircumflex" unicode="&#x176;" horiz-adv-x="611" 
d="M271 0v294l-281 420h81l235 -362l234 362h81l-282 -420v-294h-68zM343 920l114 -141h-65l-86 102l-88 -102h-58l114 141h69z" />
    <glyph glyph-name="ycircumflex" unicode="&#x177;" horiz-adv-x="463" 
d="M208 2l-206 514h67l170 -440l159 440h63l-224 -595q-29 -68 -54 -90t-82 -22q-38 2 -48 5v53q25 -5 43 -5q20 0 34 5t24.5 18.5t15.5 23.5t16 34zM273 730l114 -141h-65l-86 102l-88 -102h-58l114 141h69z" />
    <glyph glyph-name="Ydieresis" unicode="&#x178;" horiz-adv-x="611" 
d="M271 0v294l-281 420h81l235 -362l234 362h81l-282 -420v-294h-68zM429 800h-68v101h68v-101zM252 800h-68v101h68v-101z" />
    <glyph glyph-name="Zacute" unicode="&#x179;" horiz-adv-x="574" 
d="M37 656v58h514v-60l-470 -596h480v-58h-556v60l470 596h-438zM435 920l-132 -141h-51l105 141h78z" />
    <glyph glyph-name="zacute" unicode="&#x17a;" horiz-adv-x="463" 
d="M432 471l-341 -418h355v-53h-431v51l337 412h-314v53h394v-45zM380 730l-132 -141h-51l105 141h78z" />
    <glyph glyph-name="Zdotaccent" unicode="&#x17b;" horiz-adv-x="574" 
d="M37 656v58h514v-60l-470 -596h480v-58h-556v60l470 596h-438zM323 800h-68v101h68v-101z" />
    <glyph glyph-name="zdotaccent" unicode="&#x17c;" horiz-adv-x="463" 
d="M432 471l-341 -418h355v-53h-431v51l337 412h-314v53h394v-45zM267 610h-68v101h68v-101z" />
    <glyph glyph-name="Zcaron" unicode="&#x17d;" horiz-adv-x="574" 
d="M37 656v58h514v-60l-470 -596h480v-58h-556v60l470 596h-438zM252 779l-114 141h65l86 -102l88 102h58l-114 -141h-69z" />
    <glyph glyph-name="zcaron" unicode="&#x17e;" horiz-adv-x="463" 
d="M432 471l-341 -418h355v-53h-431v51l337 412h-314v53h394v-45zM197 589l-114 141h65l86 -102l88 102h58l-114 -141h-69z" />
    <glyph glyph-name="florin" unicode="&#x192;" 
d="M7 -168l9 54q26 -6 52 -6q68 3 92 112l75 394h-100l9 53h101l13 69q23 99 37 128q38 78 133 78q27 0 62 -5l-12 -52q-20 4 -46 4q-16 -1 -29 -5.5t-22 -10t-17.5 -17t-13 -19.5t-9.5 -25t-7 -25t-6.5 -27.5t-5.5 -25.5l-14 -67h113l-9 -53h-113l-61 -323q-2 -8 -7 -35
t-7 -36.5t-8 -32.5t-10 -32l-12.5 -27.5t-17 -26l-21.5 -19t-27.5 -16t-33.5 -8t-42 -3.5q-17 0 -45 5z" />
    <glyph glyph-name="Aringacute" unicode="&#x1fa;" horiz-adv-x="630" 
d="M420 967l-92 -100h-48l69 100h71zM-7 0l274 680q-44 26 -44 78q0 39 27.5 65t67.5 26q41 0 68 -26t27 -65q0 -51 -43 -77l267 -681h-73l-87 222h-325l-86 -222h-73zM260 758q0 -25 16.5 -41t42.5 -16q25 0 41 16t16 41t-16 40.5t-42 15.5t-42 -15.5t-16 -40.5zM316 646
l-143 -366h281z" />
    <glyph glyph-name="aringacute" unicode="&#x1fb;" horiz-adv-x="519" 
d="M398 919l-119 -126h-52l93 126h78zM155 671q0 42 29.5 70.5t71.5 28.5q43 0 72.5 -28.5t29.5 -70.5t-29.5 -70.5t-71.5 -28.5q-43 0 -72.5 28.5t-29.5 70.5zM194 671q0 -27 17.5 -44.5t45.5 -17.5q27 0 44.5 17t17.5 45q0 27 -17.5 44.5t-45.5 17.5q-27 0 -44.5 -17
t-17.5 -45zM117 358h-63q5 88 60.5 130.5t148.5 42.5q190 0 190 -166v-274q0 -38 37 -38q11 0 20 4v-53q-20 -4 -41 -4q-44 0 -59 22.5t-15 67.5h-2q-37 -55 -77.5 -80t-110.5 -25q-76 0 -124.5 38t-48.5 113q0 28 8 50.5t18.5 38t33 28t38.5 19t48.5 12.5t49.5 8.5t55 6.5
l26 3q44 4 62.5 17.5t18.5 52.5q0 59 -36 82.5t-99 23.5q-62 0 -99 -29.5t-39 -90.5zM390 200v82h-2q-8 -15 -53 -23q-17 -3 -54 -8.5t-57 -9t-48.5 -12t-43 -18.5t-26 -28.5t-11.5 -42.5q0 -46 34 -74t81 -28q76 0 128 44.5t52 117.5z" />
    <glyph glyph-name="AEacute" unicode="&#x1fc;" horiz-adv-x="907" 
d="M513 340v-282h371v-58h-439v226h-259l-116 -226h-77l374 714h513v-58h-367v-258h344v-58h-344zM216 284h229v372h-40zM707 920l-132 -141h-51l105 141h78z" />
    <glyph glyph-name="aeacute" unicode="&#x1fd;" horiz-adv-x="870" 
d="M841 241h-388q-6 -87 38 -145t130 -58q123 0 153 129h63q-20 -88 -78 -135t-147 -47q-143 0 -189 130h-2q-8 -41 -43 -71.5t-80.5 -44.5t-92.5 -14q-76 0 -124.5 38t-48.5 113q0 28 8 50.5t18.5 38t33 28t38.5 19t48.5 12.5t49.5 8.5t55 6.5l26 3q44 4 62.5 17.5
t18.5 52.5q0 59 -36 82.5t-99 23.5q-62 0 -99 -29.5t-39 -90.5h-63q5 88 60.5 130.5t148.5 42.5q156 0 172 -107h2q19 51 70.5 79t110.5 28q61 0 106 -23.5t69.5 -65.5t36 -91.5t11.5 -109.5zM453 294h325q0 74 -45.5 129t-117.5 55q-75 0 -119.5 -54t-42.5 -130zM390 200
v82h-2q-8 -15 -53 -23q-17 -3 -54 -8.5t-57 -9t-48.5 -12t-43 -18.5t-26 -28.5t-11.5 -42.5q0 -46 34 -74t81 -28q76 0 128 44.5t52 117.5zM607 730l-132 -141h-51l105 141h78z" />
    <glyph glyph-name="Oslashacute" unicode="&#x1fe;" horiz-adv-x="741" 
d="M518 920l-132 -141h-51l105 141h78zM672 719l26 -23l-73 -81q82 -100 82 -258q0 -101 -36.5 -183.5t-114 -135.5t-185.5 -53q-142 0 -231 89l-76 -86l-27 25l79 88q-82 101 -82 256q0 75 21.5 141t62 118t106 82.5t147.5 30.5q140 0 230 -88zM160 150l398 443
q-71 78 -187 78q-68 0 -121 -27t-84.5 -72t-47.5 -99.5t-16 -115.5q0 -124 58 -207zM580 565l-397 -443q71 -79 188 -79q68 0 121 27t84 72t47 99.5t16 115.5q0 126 -59 208z" />
    <glyph glyph-name="oslashacute" unicode="&#x1ff;" 
d="M426 730l-132 -141h-51l105 141h78zM500 519l22 -20l-54 -59q54 -76 54 -182q0 -116 -65 -194.5t-179 -78.5q-105 0 -168 68l-59 -64l-22 20l61 67q-56 73 -56 182q0 116 65 194.5t179 78.5q107 0 170 -68zM133 123l273 295q-48 60 -128 60q-85 0 -133 -65.5t-48 -154.5
q0 -77 36 -135zM424 392l-273 -295q47 -59 127 -59q85 0 133 65.5t48 154.5q0 77 -35 134z" />
    <glyph glyph-name="Scommaaccent" unicode="&#x218;" horiz-adv-x="630" 
d="M36 235h68q-4 -192 233 -192q41 0 82.5 13.5t74 48.5t32.5 83q0 94 -147 129l-159 39q-74 19 -117.5 57t-43.5 115q0 30 11 61.5t36 64.5t76.5 54t122.5 21q113 0 188.5 -58t75.5 -164h-68q-4 78 -59.5 121t-135.5 43q-78 0 -128.5 -34t-50.5 -108q0 -85 108 -109
l174 -43q87 -23 136 -65.5t49 -122.5q0 -20 -3.5 -40.5t-20 -52t-43.5 -54.5t-80.5 -40t-125.5 -17q-134 0 -212.5 62.5t-72.5 187.5zM272 -50h86v-80q0 -69 -86 -73v28q36 7 39 34h-39v91z" />
    <glyph glyph-name="scommaaccent" unicode="&#x219;" horiz-adv-x="481" 
d="M432 365h-63q-2 56 -40 84.5t-95 28.5q-49 0 -85.5 -21.5t-36.5 -67.5q0 -60 107 -87l84 -19q62 -9 104.5 -45t42.5 -98q0 -77 -62.5 -116t-144.5 -39q-196 0 -212 182h63q4 -62 45.5 -95.5t106.5 -33.5q54 0 97.5 24.5t43.5 73.5q0 41 -30 61t-83 33l-81 18
q-71 18 -107.5 48t-36.5 90q0 73 58 109t136 36q81 0 133 -42.5t56 -123.5zM200 -50h86v-80q0 -69 -86 -73v28q36 7 39 34h-39v91z" />
    <glyph glyph-name="uni021A" unicode="&#x21a;" 
d="M-5 656v58h566v-58h-249v-656h-68v656h-249zM235 -50h86v-80q0 -69 -86 -73v28q36 7 39 34h-39v91z" />
    <glyph glyph-name="uni021B" unicode="&#x21b;" horiz-adv-x="296" 
d="M160 671v-155h105v-53h-105v-348q0 -34 10 -50t41 -18q27 0 54 3v-54q-9 0 -28 -1t-28 -1q-63 0 -88 25t-24 91v353h-90v53h90v155h63zM136 -50h86v-80q0 -69 -86 -73v28q36 7 39 34h-39v91z" />
    <glyph glyph-name="dotlessj" unicode="&#x237;" horiz-adv-x="185" 
d="M61 -63v579h63v-564q0 -143 -110 -143l-44 2v52q22 -2 34 -1q34 0 45.5 19t11.5 56z" />
    <glyph glyph-name="circumflex" unicode="&#x2c6;" horiz-adv-x="185" 
d="M130 730l114 -141h-65l-86 102l-88 -102h-58l114 141h69z" />
    <glyph glyph-name="caron" unicode="&#x2c7;" horiz-adv-x="185" 
d="M54 589l-114 141h65l86 -102l88 102h58l-114 -141h-69z" />
    <glyph glyph-name="uni02C9" unicode="&#x2c9;" horiz-adv-x="185" 
d="M257 638h-329v45h329v-45z" />
    <glyph glyph-name="breve" unicode="&#x2d8;" horiz-adv-x="185" 
d="M-51 724h39q2 -38 32.5 -60t70.5 -22t70 22t36 60h39q-8 -59 -46.5 -93t-98.5 -34q-61 0 -99 33.5t-43 93.5z" />
    <glyph glyph-name="dotaccent" unicode="&#x2d9;" horiz-adv-x="185" 
d="M127 610h-68v101h68v-101z" />
    <glyph glyph-name="ring" unicode="&#x2da;" horiz-adv-x="185" 
d="M-14 680q0 44 31.5 75.5t75.5 31.5t75.5 -31.5t31.5 -75.5t-31.5 -75.5t-75.5 -31.5t-75.5 31.5t-31.5 75.5zM25 680q0 -29 19.5 -48.5t48.5 -19.5t48.5 19.5t19.5 48.5t-19.5 48.5t-48.5 19.5t-48.5 -19.5t-19.5 -48.5z" />
    <glyph glyph-name="ogonek" unicode="&#x2db;" horiz-adv-x="185" 
d="M151 0h38q-52 -43 -67 -67t-15 -50q0 -23 12.5 -35t31.5 -12q34 0 55 41l29 -13q-30 -67 -98 -67q-43 0 -67 22.5t-24 59.5q0 57 105 121z" />
    <glyph glyph-name="tilde" unicode="&#x2dc;" horiz-adv-x="185" 
d="M211 710h38q-7 -39 -28.5 -67t-58.5 -28q-30 0 -75 23t-63 23q-38 0 -50 -51h-39q4 38 28 67t61 29q31 0 75 -22t60 -22q38 0 52 48z" />
    <glyph glyph-name="hungarumlaut" unicode="&#x2dd;" horiz-adv-x="185" 
d="M174 589h-51l101 141h76zM18 589h-51l101 141h76z" />
    <glyph glyph-name="uni0374" unicode="&#x374;" horiz-adv-x="220" 
d="M196 730l-101 -171h-51l79 171h73z" />
    <glyph glyph-name="uni0375" unicode="&#x375;" horiz-adv-x="220" 
d="M12 -203l101 171h51l-79 -171h-73z" />
    <glyph glyph-name="uni037E" unicode="&#x37e;" horiz-adv-x="278" 
d="M181 394h-84v106h84v-106zM97 106h84v-107q0 -47 -23 -86t-65 -50v43q22 8 35 38t11 56h-42v106z" />
    <glyph glyph-name="tonos" unicode="&#x384;" horiz-adv-x="241" 
d="M81 589l57 141h77l-83 -141h-51z" />
    <glyph glyph-name="dieresistonos" unicode="&#x385;" horiz-adv-x="332" 
d="M81 589l57 141h77l-83 -141h-51zM295 610h-68v101h68v-101zM65 610h-68v101h68v-101z" />
    <glyph glyph-name="Alphatonos" unicode="&#x386;" horiz-adv-x="637" 
d="M0 0l288 714h76l280 -714h-73l-87 222h-325l-86 -222h-73zM180 280h281l-138 366zM29 572l57 141h77l-83 -141h-51z" />
    <glyph glyph-name="anoteleia" unicode="&#x387;" horiz-adv-x="278" 
d="M181 394h-84v106h84v-106z" />
    <glyph glyph-name="Epsilontonos" unicode="&#x388;" horiz-adv-x="727" 
d="M206 0v714h493v-58h-425v-258h398v-58h-398v-282h430v-58h-498zM0 572l57 141h77l-83 -141h-51z" />
    <glyph glyph-name="Etatonos" unicode="&#x389;" horiz-adv-x="838" 
d="M206 0v714h68v-310h424v310h68v-714h-68v346h-424v-346h-68zM0 572l57 141h77l-83 -141h-51z" />
    <glyph glyph-name="Iotatonos" unicode="&#x38a;" horiz-adv-x="335" 
d="M190 0v714h68v-714h-68zM0 572l57 141h77l-83 -141h-51z" />
    <glyph glyph-name="Omicrontonos" unicode="&#x38c;" horiz-adv-x="835" 
d="M128 357q0 75 21.5 141t62 118t106 82.5t147.5 30.5q108 0 185.5 -53t114 -135.5t36.5 -183.5t-36.5 -183.5t-114 -135.5t-185.5 -53q-82 0 -147.5 30.5t-106 82.5t-62 118t-21.5 141zM196 357q0 -61 16 -115.5t47.5 -99.5t84.5 -72t121 -27t121 27t84 72t47 99.5
t16 115.5t-16 115.5t-47 99.5t-84 72t-121 27t-121 -27t-84.5 -72t-47.5 -99.5t-16 -115.5zM0 572l57 141h77l-83 -141h-51z" />
    <glyph glyph-name="Upsilontonos" unicode="&#x38e;" horiz-adv-x="800" 
d="M460 0v294l-281 420h81l235 -362l234 362h81l-282 -420v-294h-68zM0 572l57 141h77l-83 -141h-51z" />
    <glyph glyph-name="Omegatonos" unicode="&#x38f;" horiz-adv-x="860" 
d="M826 58v-58h-264v60q93 66 138.5 146t45.5 186q0 118 -72 198.5t-192 80.5q-121 0 -195 -75.5t-74 -202.5q0 -203 188 -333v-60h-266v58h178v4q-83 58 -126 143.5t-43 186.5q0 146 95 241.5t243 95.5t240.5 -101.5t92.5 -235.5q0 -210 -171 -330v-4h182zM0 572l57 141h77
l-83 -141h-51z" />
    <glyph glyph-name="iotadieresistonos" unicode="&#x390;" horiz-adv-x="189" 
d="M123 516v-425q0 -38 37 -38q11 0 20 4v-53q-20 -4 -44 -4q-45 0 -60.5 22.5t-15.5 67.5v426h63zM66 589l57 141h77l-83 -141h-51zM280 610h-68v101h68v-101zM50 610h-68v101h68v-101z" />
    <glyph glyph-name="Alpha" unicode="&#x391;" horiz-adv-x="630" 
d="M-7 0l288 714h76l280 -714h-73l-87 222h-325l-86 -222h-73zM173 280h281l-138 366z" />
    <glyph glyph-name="Beta" unicode="&#x392;" horiz-adv-x="667" 
d="M72 0v714h302q65 0 113.5 -15t82 -56t33.5 -104q0 -57 -34.5 -102.5t-89.5 -57.5v-2q69 -9 110 -56.5t41 -117.5q0 -25 -4 -47.5t-19.5 -52.5t-41.5 -51.5t-75.5 -36.5t-115.5 -15h-302zM140 401h234q78 0 119.5 34t41.5 87q0 134 -161 134h-234v-255zM140 58h234
q188 0 188 147q0 68 -48.5 103t-139.5 35h-234v-285z" />
    <glyph glyph-name="Gamma" unicode="&#x393;" horiz-adv-x="523" 
d="M72 0v714h454v-58h-387v-656h-67z" />
    <glyph glyph-name="uni0394" unicode="&#x394;" horiz-adv-x="630" 
d="M-7 0l288 714h76l280 -714h-644zM316 646l-228 -588h453z" />
    <glyph glyph-name="Epsilon" unicode="&#x395;" horiz-adv-x="593" 
d="M72 0v714h493v-58h-425v-258h398v-58h-398v-282h430v-58h-498z" />
    <glyph glyph-name="Zeta" unicode="&#x396;" horiz-adv-x="574" 
d="M37 656v58h514v-60l-470 -596h480v-58h-556v60l470 596h-438z" />
    <glyph glyph-name="Eta" unicode="&#x397;" horiz-adv-x="704" 
d="M72 0v714h68v-310h424v310h68v-714h-68v346h-424v-346h-68z" />
    <glyph glyph-name="Theta" unicode="&#x398;" horiz-adv-x="741" 
d="M34 357q0 75 21.5 141t62 118t106 82.5t147.5 30.5q108 0 185.5 -53t114 -135.5t36.5 -183.5t-36.5 -183.5t-114 -135.5t-185.5 -53q-82 0 -147.5 30.5t-106 82.5t-62 118t-21.5 141zM102 357q0 -61 16 -115.5t47.5 -99.5t84.5 -72t121 -27t121 27t84 72t47 99.5
t16 115.5t-16 115.5t-47 99.5t-84 72t-121 27t-121 -27t-84.5 -72t-47.5 -99.5t-16 -115.5zM214 339v57h313v-57h-313z" />
    <glyph glyph-name="Iota" unicode="&#x399;" horiz-adv-x="222" 
d="M77 0v714h68v-714h-68z" />
    <glyph glyph-name="Kappa" unicode="&#x39a;" horiz-adv-x="648" 
d="M72 0v714h68v-384l415 384h92l-319 -295l334 -419h-88l-297 372l-137 -127v-245h-68z" />
    <glyph glyph-name="Lambda" unicode="&#x39b;" horiz-adv-x="614" 
d="M548 0l-240 646l-242 -646h-73l280 714h76l272 -714h-73z" />
    <glyph glyph-name="Mu" unicode="&#x39c;" horiz-adv-x="833" 
d="M70 0v714h100l247 -626l246 626h100v-714h-68v617h-2l-244 -617h-64l-245 617h-2v-617h-68z" />
    <glyph glyph-name="Nu" unicode="&#x39d;" horiz-adv-x="704" 
d="M71 0v714h76l416 -604h2v604h68v-714h-76l-416 604h-2v-604h-68z" />
    <glyph glyph-name="Xi" unicode="&#x39e;" horiz-adv-x="570" 
d="M58 656v58h466v-58h-466zM93 337v57h396v-57h-396zM47 0v57h487v-57h-487z" />
    <glyph glyph-name="Omicron" unicode="&#x39f;" horiz-adv-x="741" 
d="M34 357q0 75 21.5 141t62 118t106 82.5t147.5 30.5q108 0 185.5 -53t114 -135.5t36.5 -183.5t-36.5 -183.5t-114 -135.5t-185.5 -53q-82 0 -147.5 30.5t-106 82.5t-62 118t-21.5 141zM102 357q0 -61 16 -115.5t47.5 -99.5t84.5 -72t121 -27t121 27t84 72t47 99.5
t16 115.5t-16 115.5t-47 99.5t-84 72t-121 27t-121 -27t-84.5 -72t-47.5 -99.5t-16 -115.5z" />
    <glyph glyph-name="Pi" unicode="&#x3a0;" horiz-adv-x="715" 
d="M91 0v714h547v-714h-67v656h-413v-656h-67z" />
    <glyph glyph-name="Rho" unicode="&#x3a1;" horiz-adv-x="630" 
d="M72 0v714h317q97 0 154.5 -54t57.5 -150t-57.5 -150t-154.5 -54h-249v-306h-68zM140 656v-292h234q74 0 116.5 37t42.5 109t-42.5 109t-116.5 37h-234z" />
    <glyph glyph-name="Sigma" unicode="&#x3a3;" horiz-adv-x="607" 
d="M569 0h-527v60l288 312l-276 282v60h497v-58h-415l276 -282l-289 -316h446v-58z" />
    <glyph glyph-name="Tau" unicode="&#x3a4;" 
d="M-5 656v58h566v-58h-249v-656h-68v656h-249z" />
    <glyph glyph-name="Upsilon" unicode="&#x3a5;" horiz-adv-x="611" 
d="M271 0v294l-281 420h81l235 -362l234 362h81l-282 -420v-294h-68z" />
    <glyph glyph-name="Phi" unicode="&#x3a6;" horiz-adv-x="769" 
d="M351 744h68v-72q149 -5 232.5 -79.5t83.5 -220.5q0 -141 -85 -215t-231 -79v-78h-68v78q-149 5 -233 76t-84 214q0 142 86 220.5t231 83.5v72zM419 615v-480q120 6 184 61t64 176q0 123 -64.5 180t-183.5 63zM351 135v480q-249 -12 -249 -247q0 -122 64 -174.5t185 -58.5
z" />
    <glyph glyph-name="Chi" unicode="&#x3a7;" horiz-adv-x="574" 
d="M245 368l-242 346h80l202 -299l209 299h76l-244 -348l258 -366h-82l-217 315l-220 -315h-77z" />
    <glyph glyph-name="Psi" unicode="&#x3a8;" horiz-adv-x="820" 
d="M374 221v493h68v-493q118 2 179 51.5t61 166.5v275h68v-272q0 -269 -308 -279v-163h-68v163q-163 1 -233.5 69.5t-70.5 209.5v272h68v-275q0 -120 55.5 -168t180.5 -50z" />
    <glyph glyph-name="uni03A9" unicode="&#x3a9;" horiz-adv-x="759" 
d="M725 58v-58h-264v60q93 66 138.5 146t45.5 186q0 118 -72 198.5t-192 80.5q-121 0 -195 -75.5t-74 -202.5q0 -203 188 -333v-60h-266v58h178v4q-83 58 -126 143.5t-43 186.5q0 146 95 241.5t243 95.5t240.5 -101.5t92.5 -235.5q0 -210 -171 -330v-4h182z" />
    <glyph glyph-name="Iotadieresis" unicode="&#x3aa;" horiz-adv-x="222" 
d="M235 800h-68v101h68v-101zM58 800h-68v101h68v-101zM77 0v714h68v-714h-68z" />
    <glyph glyph-name="Upsilondieresis" unicode="&#x3ab;" horiz-adv-x="611" 
d="M429 800h-68v101h68v-101zM252 800h-68v101h68v-101zM271 0v294l-281 420h81l235 -362l234 362h81l-282 -420v-294h-68z" />
    <glyph glyph-name="alphatonos" unicode="&#x3ac;" horiz-adv-x="569" 
d="M445 98h-2q-23 -55 -75.5 -84t-101.5 -29q-117 0 -175.5 80t-58.5 195q0 114 60 192.5t174 78.5q52 0 103 -29.5t69 -83.5h2v98h63v-425q0 -38 37 -38q11 0 20 4v-53q-20 -4 -41 -4q-44 0 -59 22.5t-15 67.5v8zM95 260q0 -93 43 -157.5t128 -64.5q84 0 129 64t45 156
q0 97 -46.5 158.5t-127.5 61.5q-61 0 -101.5 -36.5t-55 -83t-14.5 -98.5zM241 589l57 141h77l-83 -141h-51z" />
    <glyph glyph-name="epsilontonos" unicode="&#x3ad;" horiz-adv-x="482" 
d="M220 589l57 141h77l-83 -141h-51zM149 267v1q-51 6 -75 39t-24 77q0 72 56.5 109.5t141.5 37.5q163 0 191 -131h-63q-11 41 -41.5 59.5t-86.5 18.5q-135 0 -135 -92t103 -92h81v-53h-78q-124 0 -124 -101q0 -102 155 -102q64 0 101.5 22t49.5 84h63q-36 -159 -214 -159
q-218 0 -218 155q0 51 29.5 85t87.5 42z" />
    <glyph glyph-name="etatonos" unicode="&#x3ae;" horiz-adv-x="537" 
d="M59 0v516h63v-89h2q18 46 64 75t101 29q104 0 146.5 -50.5t42.5 -148.5v-523h-63v513q0 156 -131 156q-74 0 -117 -49.5t-45 -127.5v-301h-63zM248 589l57 141h77l-83 -141h-51z" />
    <glyph glyph-name="iotatonos" unicode="&#x3af;" horiz-adv-x="189" 
d="M123 516v-425q0 -38 37 -38q11 0 20 4v-53q-20 -4 -44 -4q-45 0 -60.5 22.5t-15.5 67.5v426h63zM67 589l57 141h77l-83 -141h-51z" />
    <glyph glyph-name="upsilondieresistonos" unicode="&#x3b0;" horiz-adv-x="524" 
d="M60 516h63v-329q0 -84 33.5 -116.5t104.5 -32.5q166 0 166 237q0 136 -54 241h63q54 -104 54 -239q0 -138 -56 -215t-173 -77q-101 0 -151 48.5t-50 153.5v329zM183 589l57 141h77l-83 -141h-51zM397 610h-68v101h68v-101zM167 610h-68v101h68v-101z" />
    <glyph glyph-name="alpha" unicode="&#x3b1;" horiz-adv-x="569" 
d="M445 98h-2q-23 -55 -75.5 -84t-101.5 -29q-117 0 -175.5 80t-58.5 195q0 114 60 192.5t174 78.5q52 0 103 -29.5t69 -83.5h2v98h63v-425q0 -38 37 -38q11 0 20 4v-53q-20 -4 -41 -4q-44 0 -59 22.5t-15 67.5v8zM95 260q0 -93 43 -157.5t128 -64.5q84 0 129 64t45 156
q0 97 -46.5 158.5t-127.5 61.5q-61 0 -101.5 -36.5t-55 -83t-14.5 -98.5z" />
    <glyph glyph-name="beta" unicode="&#x3b2;" 
d="M60 -191v682q0 110 52.5 166.5t153.5 56.5q102 0 151 -47t49 -120q0 -52 -26 -92.5t-61 -49.5v-2q139 -26 139 -195q0 -58 -18.5 -102.5t-50 -70t-68 -38t-76.5 -12.5q-61 0 -112 30.5t-68 82.5h-2v-289h-63zM123 489v-231q0 -105 49.5 -162.5t132.5 -57.5
q67 0 108.5 36.5t41.5 133.5q0 83 -36.5 118.5t-115.5 35.5h-49v53h14q65 0 100 34.5t35 97.5q0 55 -35 84.5t-102 29.5q-75 0 -109 -38.5t-34 -133.5z" />
    <glyph glyph-name="gamma" unicode="&#x3b3;" horiz-adv-x="435" 
d="M366 516h65q-45 -280 -198 -539v-168h-63v121q0 119 -52 297t-114 289h70q43 -77 88.5 -216.5t54.5 -227.5h4q105 209 145 444z" />
    <glyph glyph-name="delta" unicode="&#x3b4;" horiz-adv-x="539" 
d="M32 248q0 92 53.5 154.5t159.5 88.5q-69 31 -98 59t-29 61q0 39 41.5 71t130.5 32q85 0 147 -26v-54q-76 27 -147 27q-109 0 -109 -50q0 -23 24 -39.5t120 -65.5q182 -93 182 -260q0 -107 -58.5 -184t-172.5 -77q-119 0 -181.5 72t-62.5 191zM95 248q0 -100 49.5 -155
t131.5 -55q77 0 122.5 58t45.5 150q0 69 -35.5 122.5t-118.5 95.5q-195 -35 -195 -216z" />
    <glyph glyph-name="epsilon" unicode="&#x3b5;" horiz-adv-x="482" 
d="M149 267v1q-51 6 -75 39t-24 77q0 72 56.5 109.5t141.5 37.5q163 0 191 -131h-63q-11 41 -41.5 59.5t-86.5 18.5q-135 0 -135 -92t103 -92h81v-53h-78q-124 0 -124 -101q0 -102 155 -102q64 0 101.5 22t49.5 84h63q-36 -159 -214 -159q-218 0 -218 155q0 51 29.5 85
t87.5 42z" />
    <glyph glyph-name="zeta" unicode="&#x3b6;" horiz-adv-x="427" 
d="M399 -135h-57q6 29 6 50q0 18 -1.5 30t-7 26t-19 21.5t-33.5 7.5h-27q-107 0 -166.5 69.5t-59.5 192.5q0 127 77.5 234t205.5 162v3h-236v53h338v-47q-322 -148 -322 -405q4 -106 48 -157.5t138 -51.5h6q60 0 89.5 -33.5t29.5 -92.5q0 -33 -9 -62z" />
    <glyph glyph-name="eta" unicode="&#x3b7;" horiz-adv-x="537" 
d="M59 0v516h63v-89h2q18 46 64 75t101 29q104 0 146.5 -50.5t42.5 -148.5v-523h-63v513q0 156 -131 156q-74 0 -117 -49.5t-45 -127.5v-301h-63z" />
    <glyph glyph-name="theta" unicode="&#x3b8;" horiz-adv-x="519" 
d="M260 714q124 0 175.5 -91t51.5 -272t-52 -273.5t-175 -92.5q-125 0 -176.5 92.5t-51.5 273.5q0 177 52.5 270t175.5 93zM97 384h326q0 139 -38 208t-125 69q-90 0 -123.5 -65.5t-39.5 -211.5zM260 38q90 0 127 71.5t37 221.5h-328q0 -149 38 -221t126 -72z" />
    <glyph glyph-name="iota" unicode="&#x3b9;" horiz-adv-x="189" 
d="M123 516v-425q0 -38 37 -38q11 0 20 4v-53q-20 -4 -44 -4q-45 0 -60.5 22.5t-15.5 67.5v426h63z" />
    <glyph glyph-name="kappa" unicode="&#x3ba;" horiz-adv-x="500" 
d="M60 0v516h63v-262l286 262h84l-217 -194l232 -322h-79l-201 278l-105 -94v-184h-63z" />
    <glyph glyph-name="lambda" unicode="&#x3bb;" horiz-adv-x="504" 
d="M389 46l-141 391l-167 -437h-69l208 500l-28 79q-31 82 -80 82q-32 0 -53 -10v54q22 9 53 9q51 0 82.5 -31.5t59.5 -104.5l184 -498q10 -27 37 -27q11 0 20 4v-53q-20 -4 -44 -4q-45 0 -62 46z" />
    <glyph glyph-name="uni03BC" unicode="&#x3bc;" horiz-adv-x="537" 
d="M478 516v-516h-58v93h-2q-24 -51 -72 -79.5t-106 -28.5q-71 0 -118 35v-211h-63v707h63v-336q2 -72 33.5 -107t104.5 -35q76 0 115.5 60.5t39.5 146.5v271h63z" />
    <glyph glyph-name="nu" unicode="&#x3bd;" horiz-adv-x="456" 
d="M387 516h65q-44 -257 -186 -516h-67l-195 516h70l161 -453h2q108 202 150 453z" />
    <glyph glyph-name="xi" unicode="&#x3be;" horiz-adv-x="410" 
d="M173 369v3q-115 29 -115 154q0 91 56.5 139.5t150.5 48.5q64 0 130 -23v-54q-63 24 -130 24t-105.5 -32.5t-38.5 -102.5q0 -123 165 -123h74v-53h-78q-97 0 -141 -38t-44 -117q0 -74 46.5 -107t133.5 -35h6q60 0 89.5 -33.5t29.5 -92.5q0 -33 -9 -62h-57q6 29 6 50
q0 18 -1.5 30t-7 26t-19 21.5t-33.5 7.5h-27q-104 0 -162 53.5t-58 141.5q0 149 139 174z" />
    <glyph glyph-name="omicron" unicode="&#x3bf;" 
d="M278 531q114 0 179 -78.5t65 -194.5t-65 -194.5t-179 -78.5t-179 78.5t-65 194.5t65 194.5t179 78.5zM278 478q-85 0 -133 -65.5t-48 -154.5t48 -154.5t133 -65.5t133 65.5t48 154.5t-48 154.5t-133 65.5z" />
    <glyph glyph-name="pi" unicode="&#x3c0;" horiz-adv-x="591" 
d="M482 463v-372q0 -38 41 -38q19 0 28 4v-53q-20 -4 -52 -4q-45 0 -62.5 23t-17.5 67v373h-258v-463h-63v463h-75v53h541v-53h-82z" />
    <glyph glyph-name="rho" unicode="&#x3c1;" horiz-adv-x="569" 
d="M60 -191v448q0 130 61.5 202t171.5 72q117 0 177.5 -77t60.5 -197q0 -50 -12.5 -96.5t-38.5 -87t-71.5 -64.5t-104.5 -24q-132 0 -179 113h-2v-289h-63zM468 257q0 94 -43.5 157.5t-133.5 63.5q-81 0 -124.5 -58t-43.5 -161q0 -93 45.5 -157t135.5 -64q77 0 120.5 64
t43.5 155z" />
    <glyph glyph-name="sigma1" unicode="&#x3c2;" horiz-adv-x="481" 
d="M316 0h-37q-116 0 -180.5 69.5t-64.5 192.5q0 119 61 194t181 75q70 0 123 -32.5t74 -99.5h-63q-37 79 -134 79q-92 0 -135.5 -62t-43.5 -154q0 -105 51.5 -157t144.5 -52h25q60 0 89.5 -33.5t29.5 -92.5q0 -33 -9 -62h-57q6 29 6 50q0 18 -1.5 30t-7 26t-19 21.5
t-33.5 7.5z" />
    <glyph glyph-name="sigma" unicode="&#x3c3;" horiz-adv-x="569" 
d="M34 258q0 119 72 188.5t196 69.5h259v-54h-136q97 -72 97 -204q0 -114 -64 -193.5t-180 -79.5q-119 0 -181.5 79t-62.5 194zM97 258q0 -103 50.5 -161.5t130.5 -58.5q84 0 132.5 64t48.5 156q0 129 -91 205h-58q-97 0 -155 -51.5t-58 -153.5z" />
    <glyph glyph-name="tau" unicode="&#x3c4;" horiz-adv-x="457" 
d="M251 463v-372q0 -38 41 -38q19 0 28 4v-53q-20 -4 -52 -4q-45 0 -62.5 23t-17.5 67v373h-180v53h441v-53h-198z" />
    <glyph glyph-name="upsilon" unicode="&#x3c5;" horiz-adv-x="524" 
d="M60 516h63v-329q0 -84 33.5 -116.5t104.5 -32.5q166 0 166 237q0 136 -54 241h63q54 -104 54 -239q0 -138 -56 -215t-173 -77q-101 0 -151 48.5t-50 153.5v329z" />
    <glyph glyph-name="phi" unicode="&#x3c6;" horiz-adv-x="724" 
d="M393 656v-125q133 -3 216 -74.5t83 -193.5q0 -135 -81.5 -203.5t-215.5 -74.5v-176h-63v176q-136 5 -218 73.5t-82 202.5q0 123 81.5 194.5t218.5 75.5v125h61zM393 478v-440q106 0 171 57.5t65 167.5q0 97 -63.5 156t-172.5 59zM332 38v440q-109 0 -173 -58.5
t-64 -158.5q0 -109 65.5 -166t171.5 -57z" />
    <glyph glyph-name="chi" unicode="&#x3c7;" horiz-adv-x="467" 
d="M268 191l205 -382h-80l-167 326l-154 -326h-78l194 381l-179 326h79l139 -273l152 273h79z" />
    <glyph glyph-name="psi" unicode="&#x3c8;" horiz-adv-x="662" 
d="M364 654v-616q92 6 146.5 63t54.5 174q0 136 -54 241h63q54 -100 54 -239q0 -135 -71.5 -210t-192.5 -82v-176h-63v176q-128 8 -184.5 73.5t-56.5 182.5v275h63v-275q0 -93 40.5 -143.5t137.5 -59.5v616h63z" />
    <glyph glyph-name="omega" unicode="&#x3c9;" horiz-adv-x="717" 
d="M359 95h-3q-23 -110 -142 -110q-87 0 -133.5 72t-46.5 178q0 156 82 281h63q-41 -63 -61.5 -139t-20.5 -142q0 -87 29 -142t88 -55q113 0 113 136v222h63v-222q0 -136 113 -136q59 0 88 55t29 142q0 66 -20.5 142t-61.5 139h63q82 -125 82 -281q0 -106 -46.5 -178
t-133.5 -72q-121 0 -144 110z" />
    <glyph glyph-name="iotadieresis" unicode="&#x3ca;" horiz-adv-x="189" 
d="M123 516v-425q0 -38 37 -38q11 0 20 4v-53q-20 -4 -44 -4q-45 0 -60.5 22.5t-15.5 67.5v426h63zM215 610h-68v101h68v-101zM38 610h-68v101h68v-101z" />
    <glyph glyph-name="upsilondieresis" unicode="&#x3cb;" horiz-adv-x="524" 
d="M60 516h63v-329q0 -84 33.5 -116.5t104.5 -32.5q166 0 166 237q0 136 -54 241h63q54 -104 54 -239q0 -138 -56 -215t-173 -77q-101 0 -151 48.5t-50 153.5v329zM377 610h-68v101h68v-101zM200 610h-68v101h68v-101z" />
    <glyph glyph-name="omicrontonos" unicode="&#x3cc;" 
d="M251 589l57 141h77l-83 -141h-51zM278 531q114 0 179 -78.5t65 -194.5t-65 -194.5t-179 -78.5t-179 78.5t-65 194.5t65 194.5t179 78.5zM278 478q-85 0 -133 -65.5t-48 -154.5t48 -154.5t133 -65.5t133 65.5t48 154.5t-48 154.5t-133 65.5z" />
    <glyph glyph-name="upsilontonos" unicode="&#x3cd;" horiz-adv-x="524" 
d="M224 589l57 141h77l-83 -141h-51zM60 516h63v-329q0 -84 33.5 -116.5t104.5 -32.5q166 0 166 237q0 136 -54 241h63q54 -104 54 -239q0 -138 -56 -215t-173 -77q-101 0 -151 48.5t-50 153.5v329z" />
    <glyph glyph-name="omegatonos" unicode="&#x3ce;" horiz-adv-x="717" 
d="M359 95h-3q-23 -110 -142 -110q-87 0 -133.5 72t-46.5 178q0 156 82 281h63q-41 -63 -61.5 -139t-20.5 -142q0 -87 29 -142t88 -55q113 0 113 136v222h63v-222q0 -136 113 -136q59 0 88 55t29 142q0 66 -20.5 142t-61.5 139h63q82 -125 82 -281q0 -106 -46.5 -178
t-133.5 -72q-121 0 -144 110zM333 589l57 141h77l-83 -141h-51z" />
    <glyph glyph-name="uni0400" unicode="&#x400;" horiz-adv-x="593" 
d="M72 0v714h493v-58h-425v-258h398v-58h-398v-282h430v-58h-498zM306 779l-132 141h78l105 -141h-51z" />
    <glyph glyph-name="afii10023" unicode="&#x401;" horiz-adv-x="593" 
d="M72 0v714h493v-58h-425v-258h398v-58h-398v-282h430v-58h-498zM437 800h-68v101h68v-101zM260 800h-68v101h68v-101z" />
    <glyph glyph-name="afii10051" unicode="&#x402;" horiz-adv-x="742" 
d="M705 172q0 -127 -70 -209.5t-192 -86.5v59q100 6 147.5 70t47.5 167q0 92 -44.5 148.5t-122.5 56.5q-86 0 -132.5 -54t-46.5 -156v-167h-68v656h-229v58h566v-58h-269v-319h3q53 97 182 97q108 0 168 -71.5t60 -190.5z" />
    <glyph glyph-name="afii10052" unicode="&#x403;" horiz-adv-x="519" 
d="M140 0h-68v714h441v-58h-373v-656zM401 920l-132 -141h-51l105 141h78z" />
    <glyph glyph-name="afii10053" unicode="&#x404;" horiz-adv-x="704" 
d="M494 397v-57h-389q3 -81 31 -146t90 -108t149 -43q90 0 150.5 56.5t76.5 148.5h67q-20 -122 -97.5 -192.5t-196.5 -70.5q-82 0 -147.5 30.5t-106 82.5t-62 118t-21.5 141t21.5 141t62 118t106 82.5t147.5 30.5q106 0 187.5 -59t97.5 -165h-68q-18 79 -78 122.5t-139 43.5
q-122 0 -189.5 -77.5t-78.5 -196.5h387z" />
    <glyph glyph-name="afii10054" unicode="&#x405;" horiz-adv-x="630" 
d="M36 235h68q-4 -192 233 -192q41 0 82.5 13.5t74 48.5t32.5 83q0 94 -147 129l-159 39q-74 19 -117.5 57t-43.5 115q0 30 11 61.5t36 64.5t76.5 54t122.5 21q113 0 188.5 -58t75.5 -164h-68q-4 78 -59.5 121t-135.5 43q-78 0 -128.5 -34t-50.5 -108q0 -85 108 -109
l174 -43q87 -23 136 -65.5t49 -122.5q0 -20 -3.5 -40.5t-20 -52t-43.5 -54.5t-80.5 -40t-125.5 -17q-134 0 -212.5 62.5t-72.5 187.5z" />
    <glyph glyph-name="afii10055" unicode="&#x406;" horiz-adv-x="222" 
d="M77 0v714h68v-714h-68z" />
    <glyph glyph-name="afii10056" unicode="&#x407;" horiz-adv-x="222" 
d="M77 0v714h68v-714h-68zM233 800h-68v101h68v-101zM56 800h-68v101h68v-101z" />
    <glyph glyph-name="afii10057" unicode="&#x408;" horiz-adv-x="500" 
d="M220 -15q-199 0 -199 244h68q0 -3 0.5 -19.5t1 -23.5t2.5 -24t5 -25.5l8 -23t11.5 -22.5t17 -19t23.5 -16t30 -9t38 -4q78 0 106 41.5t28 143.5v486h68v-515q0 -111 -47.5 -162.5t-160.5 -51.5z" />
    <glyph glyph-name="afii10058" unicode="&#x409;" horiz-adv-x="1004" 
d="M759 0h-261v656h-256l-16 -442q-4 -114 -38 -171.5t-116 -57.5q-35 0 -68 12v58q26 -12 59 -12q50 0 70.5 39.5t24.5 145.5l17 486h391v-302h193q98 0 155 -55.5t57 -150.5t-57 -150.5t-155 -55.5zM903 206q0 69 -42 108.5t-117 39.5h-178v-296h178q75 0 117 39t42 109z
" />
    <glyph glyph-name="afii10059" unicode="&#x40a;" horiz-adv-x="1005" 
d="M557 412h203q98 0 155 -55.5t57 -150.5t-57 -150.5t-155 -55.5h-271v354h-349v-354h-68v714h68v-302h349v302h68v-302zM904 206q0 69 -42 108.5t-117 39.5h-188v-296h188q75 0 117 39t42 109z" />
    <glyph glyph-name="afii10060" unicode="&#x40b;" horiz-adv-x="748" 
d="M462 434q117 0 167.5 -54t50.5 -141v-239h-68v227q0 150 -155 150q-39 0 -86.5 -14t-78.5 -32v-331h-68v656h-229v58h566v-58h-269v-265q82 43 170 43z" />
    <glyph glyph-name="afii10061" unicode="&#x40c;" horiz-adv-x="648" 
d="M72 0v714h68v-384l415 384h92l-319 -295l334 -419h-88l-297 372l-137 -127v-245h-68zM455 920l-132 -141h-51l105 141h78z" />
    <glyph glyph-name="uni040D" unicode="&#x40d;" horiz-adv-x="704" 
d="M72 0v714h68v-641l404 641h88v-714h-68v641l-404 -641h-88zM363 779l-132 141h78l105 -141h-51z" />
    <glyph glyph-name="afii10062" unicode="&#x40e;" horiz-adv-x="593" 
d="M159 914h39q2 -38 32.5 -60t70.5 -22t70 22t36 60h39q-8 -59 -46.5 -93t-98.5 -34q-61 0 -99 33.5t-43 93.5zM-7 714h77l233 -483l226 483h73l-285 -593q-65 -136 -173 -136q-41 0 -78 16v60q40 -18 76 -18q68 0 112 96l12 26z" />
    <glyph glyph-name="afii10145" unicode="&#x40f;" horiz-adv-x="704" 
d="M386 0v-192h-68v192h-246v714h68v-656h424v656h68v-714h-246z" />
    <glyph glyph-name="afii10017" unicode="&#x410;" horiz-adv-x="630" 
d="M-7 0l288 714h76l280 -714h-73l-87 222h-325l-86 -222h-73zM173 280h281l-138 366z" />
    <glyph glyph-name="afii10018" unicode="&#x411;" horiz-adv-x="663" 
d="M621 206q0 -95 -57 -150.5t-155 -55.5h-337v714h493v-58h-425v-244h269q98 0 155 -55.5t57 -150.5zM553 206q0 69 -42 108.5t-117 39.5h-254v-296h254q75 0 117 39t42 109z" />
    <glyph glyph-name="afii10019" unicode="&#x412;" horiz-adv-x="667" 
d="M72 0v714h302q65 0 113.5 -15t82 -56t33.5 -104q0 -57 -34.5 -102.5t-89.5 -57.5v-2q69 -9 110 -56.5t41 -117.5q0 -25 -4 -47.5t-19.5 -52.5t-41.5 -51.5t-75.5 -36.5t-115.5 -15h-302zM140 401h234q78 0 119.5 34t41.5 87q0 134 -161 134h-234v-255zM140 58h234
q188 0 188 147q0 68 -48.5 103t-139.5 35h-234v-285z" />
    <glyph glyph-name="afii10020" unicode="&#x413;" horiz-adv-x="519" 
d="M140 0h-68v714h441v-58h-373v-656z" />
    <glyph glyph-name="afii10021" unicode="&#x414;" horiz-adv-x="709" 
d="M694 -192h-68v192h-552v-192h-68v250h65q46 82 71 186t30 180t5 179v111h442v-656h75v-250zM551 58v598h-306v-63q0 -156 -19.5 -287.5t-82.5 -247.5h408z" />
    <glyph glyph-name="afii10022" unicode="&#x415;" horiz-adv-x="593" 
d="M72 0v714h493v-58h-425v-258h398v-58h-398v-282h430v-58h-498z" />
    <glyph glyph-name="afii10024" unicode="&#x416;" horiz-adv-x="984" 
d="M358 356l-283 -356h-86l322 404l-297 310h92l352 -373v373h68v-375l352 375h92l-296 -307l321 -407h-88l-281 357l-100 -104v-253h-68v251z" />
    <glyph glyph-name="afii10025" unicode="&#x417;" horiz-adv-x="627" 
d="M587 204q0 -93 -70.5 -156t-195.5 -63q-134 0 -209 65t-75 179v6h65q0 -95 59.5 -144t162.5 -49q91 0 143 44.5t52 116.5q0 65 -43.5 104t-118.5 39h-114v58h114q61 0 102 33t41 92q0 71 -48 107.5t-125 36.5q-88 0 -141 -40.5t-60 -122.5h-66q5 105 76.5 162t189.5 57
q108 0 175 -50t67 -146q0 -54 -29.5 -94t-75.5 -58v-3q124 -38 124 -174z" />
    <glyph glyph-name="afii10026" unicode="&#x418;" horiz-adv-x="704" 
d="M72 0v714h68v-641l404 641h88v-714h-68v641l-404 -641h-88z" />
    <glyph glyph-name="afii10027" unicode="&#x419;" horiz-adv-x="704" 
d="M72 0v714h68v-641l404 641h88v-714h-68v641l-404 -641h-88zM211 914h39q2 -38 32.5 -60t70.5 -22t70 22t36 60h39q-8 -59 -46.5 -93t-98.5 -34q-61 0 -99 33.5t-43 93.5z" />
    <glyph glyph-name="afii10028" unicode="&#x41a;" horiz-adv-x="648" 
d="M72 0v714h68v-384l415 384h92l-319 -295l334 -419h-88l-297 372l-137 -127v-245h-68z" />
    <glyph glyph-name="afii10029" unicode="&#x41b;" horiz-adv-x="666" 
d="M594 0h-68v656h-284l-16 -442q-4 -114 -38 -171.5t-116 -57.5q-35 0 -68 12v58q26 -12 59 -12q50 0 70.5 39.5t24.5 145.5l17 486h419v-714z" />
    <glyph glyph-name="afii10030" unicode="&#x41c;" horiz-adv-x="833" 
d="M70 0v714h100l247 -626l246 626h100v-714h-68v617h-2l-244 -617h-64l-245 617h-2v-617h-68z" />
    <glyph glyph-name="afii10031" unicode="&#x41d;" horiz-adv-x="704" 
d="M72 0v714h68v-310h424v310h68v-714h-68v346h-424v-346h-68z" />
    <glyph glyph-name="afii10032" unicode="&#x41e;" horiz-adv-x="741" 
d="M34 357q0 75 21.5 141t62 118t106 82.5t147.5 30.5q108 0 185.5 -53t114 -135.5t36.5 -183.5t-36.5 -183.5t-114 -135.5t-185.5 -53q-82 0 -147.5 30.5t-106 82.5t-62 118t-21.5 141zM102 357q0 -61 16 -115.5t47.5 -99.5t84.5 -72t121 -27t121 27t84 72t47 99.5
t16 115.5t-16 115.5t-47 99.5t-84 72t-121 27t-121 -27t-84.5 -72t-47.5 -99.5t-16 -115.5z" />
    <glyph glyph-name="afii10033" unicode="&#x41f;" horiz-adv-x="704" 
d="M632 714v-714h-68v656h-424v-656h-68v714h560z" />
    <glyph glyph-name="afii10034" unicode="&#x420;" horiz-adv-x="630" 
d="M72 0v714h317q97 0 154.5 -54t57.5 -150t-57.5 -150t-154.5 -54h-249v-306h-68zM140 656v-292h234q74 0 116.5 37t42.5 109t-42.5 109t-116.5 37h-234z" />
    <glyph glyph-name="afii10035" unicode="&#x421;" horiz-adv-x="704" 
d="M38 357q0 75 21.5 141t62 118t106 82.5t147.5 30.5q108 0 190.5 -62t96.5 -169h-68q-18 81 -78.5 127t-140.5 46q-68 0 -121 -27t-84.5 -72t-47.5 -99.5t-16 -115.5t16 -115.5t47.5 -99.5t84.5 -72t121 -27q96 0 157.5 65t71.5 164h68q-14 -133 -93 -210t-204 -77
q-82 0 -147.5 30.5t-106 82.5t-62 118t-21.5 141z" />
    <glyph glyph-name="afii10036" unicode="&#x422;" 
d="M-5 656v58h566v-58h-249v-656h-68v656h-249z" />
    <glyph glyph-name="afii10037" unicode="&#x423;" horiz-adv-x="593" 
d="M-7 714h77l233 -483l226 483h73l-285 -593q-65 -136 -173 -136q-41 0 -78 16v60q40 -18 76 -18q68 0 112 96l12 26z" />
    <glyph glyph-name="afii10038" unicode="&#x424;" horiz-adv-x="754" 
d="M722 363q0 -132 -90 -203t-221 -73v-87h-68v87q-134 0 -222.5 71.5t-88.5 204.5q0 128 90 199.5t221 72.5v79h68v-79q135 0 223 -71.5t88 -200.5zM655 363q0 106 -66.5 158.5t-177.5 55.5v-433q108 2 176 58t68 161zM343 144v433q-109 -2 -176.5 -55t-67.5 -159
q0 -107 66.5 -160.5t177.5 -58.5z" />
    <glyph glyph-name="afii10039" unicode="&#x425;" horiz-adv-x="574" 
d="M245 368l-242 346h80l202 -299l209 299h76l-244 -348l258 -366h-82l-217 315l-220 -315h-77z" />
    <glyph glyph-name="afii10040" unicode="&#x426;" horiz-adv-x="722" 
d="M707 -192h-68v192h-567v714h68v-656h424v656h68v-656h75v-250z" />
    <glyph glyph-name="afii10041" unicode="&#x427;" horiz-adv-x="640" 
d="M500 340q-129 -30 -219 -30q-123 0 -176.5 51t-53.5 154v198h68v-194q0 -76 38 -113t127 -37q77 0 216 29v316h68v-714h-68v340z" />
    <glyph glyph-name="afii10042" unicode="&#x428;" horiz-adv-x="1044" 
d="M72 0v714h68v-656h348v656h68v-656h348v656h68v-714h-900z" />
    <glyph glyph-name="afii10043" unicode="&#x429;" horiz-adv-x="1062" 
d="M72 0v714h68v-656h348v656h68v-656h348v656h68v-656h75v-250h-68v192h-907z" />
    <glyph glyph-name="afii10044" unicode="&#x42a;" horiz-adv-x="789" 
d="M544 0h-317v656h-232v58h300v-302h249q98 0 155 -55.5t57 -150.5t-57 -150.5t-155 -55.5zM688 206q0 69 -42 108.5t-117 39.5h-234v-296h234q75 0 117 39t42 109z" />
    <glyph glyph-name="afii10045" unicode="&#x42b;" horiz-adv-x="844" 
d="M704 0v714h68v-714h-68zM389 0h-317v714h68v-302h249q98 0 155 -55.5t57 -150.5t-57 -150.5t-155 -55.5zM533 206q0 69 -42 108.5t-117 39.5h-234v-296h234q75 0 117 39t42 109z" />
    <glyph glyph-name="afii10046" unicode="&#x42c;" horiz-adv-x="634" 
d="M389 0h-317v714h68v-302h249q98 0 155 -55.5t57 -150.5t-57 -150.5t-155 -55.5zM533 206q0 69 -42 108.5t-117 39.5h-234v-296h234q75 0 117 39t42 109z" />
    <glyph glyph-name="afii10047" unicode="&#x42d;" horiz-adv-x="704" 
d="M216 340v57h381q-8 121 -69.5 197.5t-184.5 76.5q-82 0 -145.5 -42.5t-85.5 -123.5h-67q14 72 60.5 124t107.5 76t130 24q110 0 184.5 -52t106.5 -133.5t32 -186.5q0 -74 -20.5 -139.5t-60.5 -118t-105 -83.5t-147 -31q-123 0 -203.5 70t-95.5 193h68q11 -92 74 -148.5
t157 -56.5q88 0 149 42.5t87.5 107t29.5 147.5h-383z" />
    <glyph glyph-name="afii10048" unicode="&#x42e;" horiz-adv-x="1001" 
d="M140 714v-310h156q14 141 100.5 233t234.5 92q108 0 185.5 -53t114 -135.5t36.5 -183.5t-36.5 -183.5t-114 -135.5t-185.5 -53q-158 0 -246 104t-91 257h-154v-346h-68v714h68zM362 357q0 -61 16 -115.5t47.5 -99.5t84.5 -72t121 -27t121 27t84 72t47 99.5t16 115.5
t-16 115.5t-47 99.5t-84 72t-121 27t-121 -27t-84.5 -72t-47.5 -99.5t-16 -115.5z" />
    <glyph glyph-name="afii10049" unicode="&#x42f;" horiz-adv-x="630" 
d="M335 317l-245 -317h-86l246 317q-98 3 -152.5 54.5t-54.5 144.5q0 96 58.5 147t157.5 51h299v-714h-68v317h-155zM490 375v281h-226q-73 0 -113 -35.5t-40 -104.5t42 -105t116 -36h221z" />
    <glyph glyph-name="afii10065" unicode="&#x430;" horiz-adv-x="519" 
d="M117 358h-63q5 88 60.5 130.5t148.5 42.5q190 0 190 -166v-274q0 -38 37 -38q11 0 20 4v-53q-20 -4 -41 -4q-44 0 -59 22.5t-15 67.5h-2q-37 -55 -77.5 -80t-110.5 -25q-76 0 -124.5 38t-48.5 113q0 28 8 50.5t18.5 38t33 28t38.5 19t48.5 12.5t49.5 8.5t55 6.5l26 3
q44 4 62.5 17.5t18.5 52.5q0 59 -36 82.5t-99 23.5q-62 0 -99 -29.5t-39 -90.5zM390 200v82h-2q-8 -15 -53 -23q-17 -3 -54 -8.5t-57 -9t-48.5 -12t-43 -18.5t-26 -28.5t-11.5 -42.5q0 -46 34 -74t81 -28q76 0 128 44.5t52 117.5z" />
    <glyph glyph-name="afii10066" unicode="&#x431;" 
d="M521 248q0 -119 -66 -191t-173 -72q-114 0 -176.5 80t-62.5 218q0 190 56.5 284.5t189.5 106.5l76 7q38 4 53 11t19 22h69q-10 -45 -37 -64t-92 -25l-77 -7q-90 -9 -136.5 -59t-62.5 -165h3q60 113 191 113q100 0 163 -72t63 -187zM458 248q0 93 -47.5 149.5t-122.5 56.5
q-81 0 -131.5 -55t-50.5 -149q0 -92 49.5 -152t128.5 -60q77 0 125.5 56t48.5 154z" />
    <glyph glyph-name="afii10067" unicode="&#x432;" horiz-adv-x="519" 
d="M485 147q0 -72 -47.5 -109.5t-137.5 -37.5h-241v516h243q78 0 119.5 -34.5t41.5 -95.5q0 -44 -23.5 -72.5t-63.5 -38.5v-2q109 -21 109 -126zM403 377q0 87 -109 87h-173v-170h173q53 0 81 22t28 61zM423 148q0 97 -127 97h-175v-193h174q128 0 128 96z" />
    <glyph glyph-name="afii10068" unicode="&#x433;" horiz-adv-x="400" 
d="M398 463h-276v-463h-63v516h339v-53z" />
    <glyph glyph-name="afii10069" unicode="&#x434;" horiz-adv-x="552" 
d="M545 -164h-63v164h-413v-164h-63v217h61q71 131 71 381v82h336v-463h71v-217zM411 53v410h-211v-34q0 -232 -68 -376h279z" />
    <glyph glyph-name="afii10070" unicode="&#x435;" horiz-adv-x="519" 
d="M494 241h-397q0 -79 43.5 -141t126.5 -62q129 0 162 132h63q-43 -185 -225 -185q-116 0 -174.5 77t-58.5 196q0 72 23 131.5t77.5 100.5t132.5 41q79 0 132.5 -43t75.5 -107t19 -140zM97 294h334q-2 75 -47 129.5t-117 54.5q-73 0 -117 -53.5t-53 -130.5z" />
    <glyph glyph-name="afii10072" unicode="&#x436;" horiz-adv-x="741" 
d="M339 516h63v-262l240 262h82l-202 -213l224 -303h-79l-189 261l-76 -80v-181h-63v178l-78 82l-189 -260h-77l223 301l-201 215h84l238 -259v259z" />
    <glyph glyph-name="afii10073" unicode="&#x437;" horiz-adv-x="485" 
d="M240 531q94 0 142.5 -39t48.5 -102q0 -42 -23.5 -71.5t-59.5 -42.5v-2q100 -20 100 -121q0 -74 -56.5 -121t-150.5 -47q-101 0 -154.5 46t-58.5 130h63q17 -123 151 -123q140 0 140 113q0 42 -27 67t-83 25h-86v50h71q47 0 78 25t31 69q0 91 -127 91q-128 0 -139 -112
h-62q7 85 62.5 125t139.5 40z" />
    <glyph glyph-name="afii10074" unicode="&#x438;" horiz-adv-x="537" 
d="M478 0h-63v442l-278 -442h-78v516h63v-442l278 442h78v-516z" />
    <glyph glyph-name="afii10075" unicode="&#x439;" horiz-adv-x="537" 
d="M478 0h-63v442l-278 -442h-78v516h63v-442l278 442h78v-516zM133 724h39q2 -38 32.5 -60t70.5 -22t70 22t36 60h39q-8 -59 -46.5 -93t-98.5 -34q-61 0 -99 33.5t-43 93.5z" />
    <glyph glyph-name="afii10076" unicode="&#x43a;" horiz-adv-x="500" 
d="M60 0v516h63v-262l286 262h84l-217 -194l232 -322h-79l-201 278l-105 -94v-184h-63z" />
    <glyph glyph-name="afii10077" unicode="&#x43b;" horiz-adv-x="532" 
d="M473 0h-63v463h-209l-10 -293q-4 -100 -37.5 -142.5t-96.5 -42.5q-27 0 -55 11v52q26 -10 51 -10q37 0 54 28t20 111l11 339h335v-516z" />
    <glyph glyph-name="afii10078" unicode="&#x43c;" horiz-adv-x="668" 
d="M609 0h-63v425h-3l-181 -425h-56l-181 425h-3v-425h-63v516h84l192 -445l190 445h84v-516z" />
    <glyph glyph-name="afii10079" unicode="&#x43d;" horiz-adv-x="537" 
d="M478 0h-63v243h-293v-243h-63v516h63v-220h293v220h63v-516z" />
    <glyph glyph-name="afii10080" unicode="&#x43e;" 
d="M278 531q114 0 179 -78.5t65 -194.5t-65 -194.5t-179 -78.5t-179 78.5t-65 194.5t65 194.5t179 78.5zM278 478q-85 0 -133 -65.5t-48 -154.5t48 -154.5t133 -65.5t133 65.5t48 154.5t-48 154.5t-133 65.5z" />
    <glyph glyph-name="afii10081" unicode="&#x43f;" horiz-adv-x="537" 
d="M478 0h-63v463h-293v-463h-63v516h419v-516z" />
    <glyph glyph-name="afii10082" unicode="&#x440;" horiz-adv-x="574" 
d="M60 -191v707h58v-98h2q22 53 71.5 83t112.5 30q112 0 172 -78t60 -195t-60 -195t-172 -78q-60 0 -110 29.5t-69 83.5h-2v-289h-63zM473 258q0 57 -16.5 105t-56 81.5t-96.5 33.5q-181 0 -181 -220q0 -91 44.5 -155.5t136.5 -64.5q57 0 96.5 33.5t56 81.5t16.5 105z" />
    <glyph glyph-name="afii10083" unicode="&#x441;" horiz-adv-x="519" 
d="M487 354h-63q-27 124 -146 124q-85 0 -133 -65.5t-48 -154.5t48 -154.5t133 -65.5q58 0 101 42t49 105h63q-13 -94 -69.5 -147t-143.5 -53q-114 0 -179 78.5t-65 194.5t65 194.5t179 78.5q86 0 142 -45t67 -132z" />
    <glyph glyph-name="afii10084" unicode="&#x442;" horiz-adv-x="445" 
d="M445 463h-191v-463h-63v463h-191v53h445v-53z" />
    <glyph glyph-name="afii10085" unicode="&#x443;" horiz-adv-x="463" 
d="M208 2l-206 514h67l170 -440l159 440h63l-224 -595q-29 -68 -54 -90t-82 -22q-38 2 -48 5v53q25 -5 43 -5q20 0 34 5t24.5 18.5t15.5 23.5t16 34z" />
    <glyph glyph-name="afii10086" unicode="&#x444;" horiz-adv-x="801" 
d="M369 51h-3q-41 -66 -128 -66q-88 0 -144 68.5t-56 202.5q0 132 54.5 203.5t146.5 71.5q88 0 128 -67h2v250h63v-253h2q19 33 54.5 51.5t77.5 18.5q93 0 145 -71t52 -204q0 -130 -57.5 -200.5t-145.5 -70.5q-83 0 -125 63h-3v-239h-63v242zM700 256q0 112 -41 167t-109 55
q-49 0 -83.5 -31.5t-34.5 -78.5v-218q0 -50 33 -81t82 -31q71 0 112 54t41 164zM101 256q0 -109 41 -163.5t112 -54.5q49 0 82 31t33 81v215q0 46 -35 79.5t-83 33.5q-69 0 -109.5 -54.5t-40.5 -167.5z" />
    <glyph glyph-name="afii10087" unicode="&#x445;" horiz-adv-x="481" 
d="M1 0l200 268l-185 248h79l147 -196l144 196h79l-186 -247l201 -269h-80l-162 217l-159 -217h-78z" />
    <glyph glyph-name="afii10088" unicode="&#x446;" 
d="M549 -164h-63v164h-427v516h63v-463h293v463h63v-463h71v-217z" />
    <glyph glyph-name="afii10089" unicode="&#x447;" horiz-adv-x="505" 
d="M383 242q-99 -26 -166 -26q-86 0 -129.5 38t-43.5 125v137h63v-134q0 -60 27.5 -86t85.5 -26q76 0 163 26v220h63v-516h-63v242z" />
    <glyph glyph-name="afii10090" unicode="&#x448;" horiz-adv-x="789" 
d="M59 0v516h63v-463h241v463h63v-463h241v463h63v-516h-671z" />
    <glyph glyph-name="afii10091" unicode="&#x449;" horiz-adv-x="808" 
d="M59 0v516h63v-463h241v463h63v-463h241v463h63v-463h71v-217h-63v164h-679z" />
    <glyph glyph-name="afii10092" unicode="&#x44a;" horiz-adv-x="618" 
d="M0 516h232v-204h195q75 0 119 -42t44 -114q0 -73 -44 -114.5t-119 -41.5h-258v463h-169v53zM413 259h-181v-206h181q55 0 85 26.5t30 76.5q0 49 -30.5 76t-84.5 27z" />
    <glyph glyph-name="afii10093" unicode="&#x44b;" horiz-adv-x="670" 
d="M548 0v516h63v-516h-63zM289 0h-230v516h63v-204h167q75 0 119 -42t44 -114q0 -73 -44 -114.5t-119 -41.5zM275 259h-153v-206h153q55 0 85 26.5t30 76.5q0 49 -30.5 76t-84.5 27z" />
    <glyph glyph-name="afii10094" unicode="&#x44c;" horiz-adv-x="508" 
d="M317 0h-258v516h63v-204h195q75 0 119 -42t44 -114q0 -73 -44 -114.5t-119 -41.5zM303 259h-181v-206h181q55 0 85 26.5t30 76.5q0 49 -30.5 76t-84.5 27z" />
    <glyph glyph-name="afii10095" unicode="&#x44d;" horiz-adv-x="519" 
d="M31 166h63q12 -63 53.5 -95.5t102.5 -32.5q75 0 121 54.5t49 148.5h-242v53h241q-9 86 -49 135t-113 49q-58 0 -98.5 -29t-55.5 -83h-65q15 78 73.5 121.5t146.5 43.5q108 0 167.5 -74.5t59.5 -204.5q0 -119 -65 -193t-170 -74q-90 0 -147.5 48.5t-71.5 132.5z" />
    <glyph glyph-name="afii10096" unicode="&#x44e;" horiz-adv-x="759" 
d="M481 531q114 0 179 -78.5t65 -194.5t-65 -194.5t-179 -78.5q-110 0 -174.5 73.5t-68.5 184.5h-116v-243h-63v516h63v-220h118q10 103 73.5 169t167.5 66zM481 478q-85 0 -133 -65.5t-48 -154.5t48 -154.5t133 -65.5t133 65.5t48 154.5t-48 154.5t-133 65.5z" />
    <glyph glyph-name="afii10097" unicode="&#x44f;" horiz-adv-x="519" 
d="M457 0h-63v217h-131l-178 -217h-82l188 219q-69 3 -109.5 41.5t-40.5 104.5q0 68 43.5 109.5t115.5 41.5h257v-516zM394 463h-183q-51 0 -79 -26t-28 -71q0 -46 28 -71t83 -25h179v193z" />
    <glyph glyph-name="uni0450" unicode="&#x450;" horiz-adv-x="519" 
d="M258 589l-132 141h78l105 -141h-51zM494 241h-397q0 -79 43.5 -141t126.5 -62q129 0 162 132h63q-43 -185 -225 -185q-116 0 -174.5 77t-58.5 196q0 72 23 131.5t77.5 100.5t132.5 41q79 0 132.5 -43t75.5 -107t19 -140zM97 294h334q-2 75 -47 129.5t-117 54.5
q-73 0 -117 -53.5t-53 -130.5z" />
    <glyph glyph-name="afii10071" unicode="&#x451;" horiz-adv-x="519" 
d="M389 610h-68v101h68v-101zM212 610h-68v101h68v-101zM494 241h-397q0 -79 43.5 -141t126.5 -62q129 0 162 132h63q-43 -185 -225 -185q-116 0 -174.5 77t-58.5 196q0 72 23 131.5t77.5 100.5t132.5 41q79 0 132.5 -43t75.5 -107t19 -140zM97 294h334q-2 75 -47 129.5
t-117 54.5q-73 0 -117 -53.5t-53 -130.5z" />
    <glyph glyph-name="afii10099" unicode="&#x452;" horiz-adv-x="535" 
d="M478 317v-220q0 -125 -70 -203t-190 -85v59q95 7 146 69.5t51 168.5v201q0 156 -129 156q-73 0 -118.5 -49t-45.5 -128v-286h-63v583h-59v51h59v80h63v-80h213v-51h-213v-171h2q46 104 174 104q180 0 180 -199z" />
    <glyph glyph-name="afii10100" unicode="&#x453;" horiz-adv-x="400" 
d="M398 463h-276v-463h-63v516h339v-53zM344 730l-132 -141h-51l105 141h78z" />
    <glyph glyph-name="afii10101" unicode="&#x454;" horiz-adv-x="519" 
d="M486 166q-17 -85 -73 -133t-145 -48q-104 0 -169 74t-65 193q0 126 64 202.5t172 76.5q89 0 144 -43.5t69 -121.5h-65q-28 112 -147 112q-73 0 -118 -50t-53 -134h241v-53h-242q4 -93 51 -148t120 -55q123 0 153 128h63z" />
    <glyph glyph-name="afii10102" unicode="&#x455;" horiz-adv-x="481" 
d="M432 365h-63q-2 56 -40 84.5t-95 28.5q-49 0 -85.5 -21.5t-36.5 -67.5q0 -60 107 -87l84 -19q62 -9 104.5 -45t42.5 -98q0 -77 -62.5 -116t-144.5 -39q-196 0 -212 182h63q4 -62 45.5 -95.5t106.5 -33.5q54 0 97.5 24.5t43.5 73.5q0 41 -30 61t-83 33l-81 18
q-71 18 -107.5 48t-36.5 90q0 73 58 109t136 36q81 0 133 -42.5t56 -123.5z" />
    <glyph glyph-name="afii10103" unicode="&#x456;" horiz-adv-x="185" 
d="M61 613v101h63v-101h-63zM61 0v516h63v-516h-63z" />
    <glyph glyph-name="afii10104" unicode="&#x457;" horiz-adv-x="185" 
d="M124 0h-63v516h63v-516zM215 610h-68v101h68v-101zM38 610h-68v101h68v-101z" />
    <glyph glyph-name="afii10105" unicode="&#x458;" horiz-adv-x="185" 
d="M61 613v101h63v-101h-63zM61 -63v579h63v-564q0 -143 -110 -143q-8 0 -22 1t-22 1v52q22 -2 34 -1q34 0 45.5 19t11.5 56z" />
    <glyph glyph-name="afii10106" unicode="&#x459;" horiz-adv-x="780" 
d="M585 0h-202v463h-182l-10 -293q-4 -100 -37.5 -142.5t-96.5 -42.5q-27 0 -55 11v52q26 -10 51 -10q37 0 54 28t20 111l11 339h308v-204h139q75 0 119 -42t44 -114q0 -73 -44 -114.5t-119 -41.5zM571 259h-125v-206h125q55 0 85 26.5t30 76.5q0 49 -30.5 76t-84.5 27z" />
    <glyph glyph-name="afii10107" unicode="&#x45a;" horiz-adv-x="778" 
d="M438 516v-204h145q75 0 119 -42t44 -114q0 -73 -44 -114.5t-119 -41.5h-208v259h-253v-259h-63v516h63v-204h253v204h63zM569 259h-131v-206h131q55 0 85 26.5t30 76.5q0 49 -30.5 76t-84.5 27z" />
    <glyph glyph-name="afii10108" unicode="&#x45b;" horiz-adv-x="535" 
d="M478 317v-317h-63v307q0 156 -129 156q-73 0 -118.5 -49t-45.5 -128v-286h-63v583h-59v51h59v80h63v-80h213v-51h-213v-171h2q46 104 174 104q180 0 180 -199z" />
    <glyph glyph-name="afii10109" unicode="&#x45c;" horiz-adv-x="500" 
d="M60 0v516h63v-262l286 262h84l-217 -194l232 -322h-79l-201 278l-105 -94v-184h-63zM384 730l-132 -141h-51l105 141h78z" />
    <glyph glyph-name="uni045D" unicode="&#x45d;" horiz-adv-x="537" 
d="M478 0h-63v442l-278 -442h-78v516h63v-442l278 442h78v-516zM266 589l-132 141h78l105 -141h-51z" />
    <glyph glyph-name="afii10110" unicode="&#x45e;" horiz-adv-x="463" 
d="M93 724h39q2 -38 32.5 -60t70.5 -22t70 22t36 60h39q-8 -59 -46.5 -93t-98.5 -34q-61 0 -99 33.5t-43 93.5zM208 2l-206 514h67l170 -440l159 440h63l-224 -595q-29 -68 -54 -90t-82 -22q-38 2 -48 5v53q25 -5 43 -5q20 0 34 5t24.5 18.5t15.5 23.5t16 34z" />
    <glyph glyph-name="afii10193" unicode="&#x45f;" horiz-adv-x="537" 
d="M300 0v-164h-63v164h-178v516h63v-463h293v463h63v-516h-178z" />
    <glyph glyph-name="afii10146" unicode="&#x462;" horiz-adv-x="694" 
d="M411 605v-58h-211v-145h253q96 0 152 -54t56 -147q0 -91 -56 -146t-152 -55h-321v547h-137v58h137v109h68v-109h211zM593 201q0 66 -41 104.5t-114 38.5h-238v-286h238q73 0 114 37.5t41 105.5z" />
    <glyph glyph-name="afii10194" unicode="&#x463;" horiz-adv-x="563" 
d="M361 463h-184v-151h195q75 0 119 -42t44 -114q0 -73 -44 -114.5t-119 -41.5h-258v463h-114v53h114v198h63v-198h184v-53zM358 259h-181v-206h181q55 0 85 26.5t30 76.5q0 49 -30.5 76t-84.5 27z" />
    <glyph glyph-name="afii10147" unicode="&#x472;" horiz-adv-x="741" 
d="M34 357q0 75 21.5 141t62 118t106 82.5t147.5 30.5q108 0 185.5 -53t114 -135.5t36.5 -183.5t-36.5 -183.5t-114 -135.5t-185.5 -53q-82 0 -147.5 30.5t-106 82.5t-62 118t-21.5 141zM371 671q-122 0 -190 -78.5t-79 -195.5h537q-11 117 -79 195.5t-189 78.5zM371 43
q127 0 196 86.5t74 210.5h-541q5 -124 74 -210.5t197 -86.5z" />
    <glyph glyph-name="afii10195" unicode="&#x473;" 
d="M278 531q114 0 179 -78.5t65 -194.5t-65 -194.5t-179 -78.5t-179 78.5t-65 194.5t65 194.5t179 78.5zM278 478q-77 0 -124 -52.5t-57 -131.5h361q-10 78 -57 131t-123 53zM278 38q81 0 129 58.5t53 144.5h-365q5 -84 53.5 -143.5t129.5 -59.5z" />
    <glyph glyph-name="afii10148" unicode="&#x474;" horiz-adv-x="622" 
d="M543 586l-206 -586h-79l-265 714h73l232 -639h2l182 536q22 66 52 92t78 26q28 0 50 -7v-59q-23 8 -46 8q-25 0 -40.5 -18.5t-32.5 -66.5z" />
    <glyph glyph-name="afii10196" unicode="&#x475;" horiz-adv-x="492" 
d="M236 63l127 379q17 51 41 70t63 19q24 0 41 -5v-55q-20 6 -36 6q-21 0 -31.5 -12.5t-23.5 -47.5l-149 -417h-67l-199 516h70l162 -453h2z" />
    <glyph glyph-name="afii10050" unicode="&#x490;" horiz-adv-x="519" 
d="M513 656h-373v-656h-68v714h373v161h68v-219z" />
    <glyph glyph-name="afii10098" unicode="&#x491;" horiz-adv-x="400" 
d="M398 463h-276v-463h-63v516h276v157h63v-210z" />
    <glyph glyph-name="uni0492" unicode="&#x492;" horiz-adv-x="544" 
d="M7 301v58h90v355h441v-58h-373v-297h92v-58h-92v-301h-68v301h-90z" />
    <glyph glyph-name="uni0493" unicode="&#x493;" horiz-adv-x="436" 
d="M2 243v58h93v215h339v-53h-276v-162h94v-58h-94v-243h-63v243h-93z" />
    <glyph glyph-name="uni049A" unicode="&#x49a;" horiz-adv-x="648" 
d="M574 0l-297 372l-137 -127v-245h-68v714h68v-384l415 384h92l-319 -295l334 -419v-192h-68v192h-20z" />
    <glyph glyph-name="uni049B" unicode="&#x49b;" horiz-adv-x="500" 
d="M429 0l-201 278l-105 -94v-184h-63v516h63v-262l286 262h84l-217 -194l232 -322v-164h-63v164h-16z" />
    <glyph glyph-name="uni04A2" unicode="&#x4a2;" horiz-adv-x="704" 
d="M72 0v714h68v-310h424v310h68v-656h42v-250h-68v192h-42v346h-424v-346h-68z" />
    <glyph glyph-name="uni04A3" unicode="&#x4a3;" horiz-adv-x="537" 
d="M478 516v-463h37v-217h-63v164h-37v243h-293v-243h-63v516h63v-220h293v220h63z" />
    <glyph glyph-name="uni04AE" unicode="&#x4ae;" 
d="M245 294l-239 420h72l199 -365l201 365h69l-239 -420v-294h-63v294z" />
    <glyph glyph-name="uni04AF" unicode="&#x4af;" 
d="M245 74q-1 1 -6.5 13.5t-20.5 41.5l-38.5 74l-69 127l-104.5 184h72l199 -385l201 385h69l-105 -185l-69.5 -126.5l-38 -74t-20 -41.5t-6.5 -13v-214h-63v214z" />
    <glyph glyph-name="uni04B0" unicode="&#x4b0;" 
d="M245 294l-239 420h72l199 -365l201 365h69l-239 -420v-73h137v-55h-137v-166h-63v166h-135v55h135v73z" />
    <glyph glyph-name="uni04B1" unicode="&#x4b1;" 
d="M110 84v45h106l-210 385h72l199 -385l201 385h69l-211 -385h109v-45h-131l-6 -10v-214h-63v214l-6 10h-129z" />
    <glyph glyph-name="uni04BA" unicode="&#x4ba;" horiz-adv-x="640" 
d="M119 374q129 30 219 30q123 0 176.5 -51t53.5 -154v-198h-68v194q0 76 -38 113t-127 37q-77 0 -216 -29v-316h-68v714h68v-340z" />
    <glyph glyph-name="uni04BB" unicode="&#x4bb;" horiz-adv-x="505" 
d="M107 274q99 26 166 26q86 0 129.5 -38t43.5 -125v-137h-63v134q0 60 -27.5 86t-85.5 26q-76 0 -163 -26v-220h-63v516h63v-242z" />
    <glyph glyph-name="uni04D6" unicode="&#x4d6;" horiz-adv-x="593" 
d="M72 0v714h493v-58h-425v-258h398v-58h-398v-282h430v-58h-498zM153 922h39q2 -38 32.5 -60t70.5 -22t70 22t36 60h39q-8 -59 -46.5 -93t-98.5 -34q-61 0 -99 33.5t-43 93.5z" />
    <glyph glyph-name="uni04D7" unicode="&#x4d7;" horiz-adv-x="519" 
d="M494 241h-397q0 -79 43.5 -141t126.5 -62q129 0 162 132h63q-43 -185 -225 -185q-116 0 -174.5 77t-58.5 196q0 72 23 131.5t77.5 100.5t132.5 41q79 0 132.5 -43t75.5 -107t19 -140zM97 294h334q-2 75 -47 129.5t-117 54.5q-73 0 -117 -53.5t-53 -130.5zM116 724h39
q2 -38 32.5 -60t70.5 -22t70 22t36 60h39q-8 -59 -46.5 -93t-98.5 -34q-61 0 -99 33.5t-43 93.5z" />
    <glyph glyph-name="uni04D8" unicode="&#x4d8;" horiz-adv-x="741" 
d="M36 398l603 -1q-11 117 -79 195.5t-189 78.5q-88 0 -148.5 -42.5t-91.5 -113.5h-70q36 98 114.5 156t195.5 58q108 0 185.5 -53t114 -135.5t36.5 -183.5t-36.5 -183.5t-114 -135.5t-185.5 -53q-82 0 -147.5 30.5t-106 82.5t-62 118t-21.5 141q0 15 2 41zM371 43
q127 0 196 86.5t74 210.5h-541q5 -124 74 -210.5t197 -86.5z" />
    <glyph glyph-name="afii10846" unicode="&#x4d9;" horiz-adv-x="519" 
d="M39 275h397q0 79 -43.5 141t-126.5 62q-129 0 -162 -132h-63q43 185 225 185q116 0 174.5 -77t58.5 -196q0 -72 -23 -131.5t-77.5 -100.5t-132.5 -41q-79 0 -132.5 43t-75.5 107t-19 140zM436 222h-334q2 -75 47 -129.5t117 -54.5q73 0 117 53.5t53 130.5z" />
    <glyph glyph-name="uni04DA" unicode="&#x4da;" horiz-adv-x="741" 
d="M36 398l603 -1q-11 117 -79 195.5t-189 78.5q-88 0 -148.5 -42.5t-91.5 -113.5h-70q36 98 114.5 156t195.5 58q108 0 185.5 -53t114 -135.5t36.5 -183.5t-36.5 -183.5t-114 -135.5t-185.5 -53q-82 0 -147.5 30.5t-106 82.5t-62 118t-21.5 141q0 15 2 41zM371 43
q127 0 196 86.5t74 210.5h-541q5 -124 74 -210.5t197 -86.5zM493 808h-68v101h68v-101zM316 808h-68v101h68v-101z" />
    <glyph glyph-name="uni04DB" unicode="&#x4db;" horiz-adv-x="519" 
d="M39 275h397q0 79 -43.5 141t-126.5 62q-129 0 -162 -132h-63q43 185 225 185q116 0 174.5 -77t58.5 -196q0 -72 -23 -131.5t-77.5 -100.5t-132.5 -41q-79 0 -132.5 43t-75.5 107t-19 140zM436 222h-334q2 -75 47 -129.5t117 -54.5q73 0 117 53.5t53 130.5zM382 610h-68
v101h68v-101zM205 610h-68v101h68v-101z" />
    <glyph glyph-name="uni04DC" unicode="&#x4dc;" horiz-adv-x="984" 
d="M358 356l-283 -356h-86l322 404l-297 310h92l352 -373v373h68v-375l352 375h92l-296 -307l321 -407h-88l-281 357l-100 -104v-253h-68v251zM614 808h-68v101h68v-101zM437 808h-68v101h68v-101z" />
    <glyph glyph-name="uni04DD" unicode="&#x4dd;" horiz-adv-x="741" 
d="M339 516h63v-262l240 262h82l-202 -213l224 -303h-79l-189 261l-76 -80v-181h-63v178l-78 82l-189 -260h-77l223 301l-201 215h84l238 -259v259zM493 610h-68v101h68v-101zM316 610h-68v101h68v-101z" />
    <glyph glyph-name="uni04DE" unicode="&#x4de;" horiz-adv-x="627" 
d="M587 204q0 -93 -70.5 -156t-195.5 -63q-134 0 -209 65t-75 179v6h65q0 -95 59.5 -144t162.5 -49q91 0 143 44.5t52 116.5q0 65 -43.5 104t-118.5 39h-114v58h114q61 0 102 33t41 92q0 71 -48 107.5t-125 36.5q-88 0 -141 -40.5t-60 -122.5h-66q5 105 76.5 162t189.5 57
q108 0 175 -50t67 -146q0 -54 -29.5 -94t-75.5 -58v-3q124 -38 124 -174zM436 808h-68v101h68v-101zM259 808h-68v101h68v-101z" />
    <glyph glyph-name="uni04DF" unicode="&#x4df;" horiz-adv-x="485" 
d="M240 531q94 0 142.5 -39t48.5 -102q0 -42 -23.5 -71.5t-59.5 -42.5v-2q100 -20 100 -121q0 -74 -56.5 -121t-150.5 -47q-101 0 -154.5 46t-58.5 130h63q17 -123 151 -123q140 0 140 113q0 42 -27 67t-83 25h-86v50h71q47 0 78 25t31 69q0 91 -127 91q-128 0 -139 -112
h-62q7 85 62.5 125t139.5 40zM365 610h-68v101h68v-101zM188 610h-68v101h68v-101z" />
    <glyph glyph-name="uni04E2" unicode="&#x4e2;" horiz-adv-x="704" 
d="M72 0v714h68v-641l404 641h88v-714h-68v641l-404 -641h-88zM516 836h-329v45h329v-45z" />
    <glyph glyph-name="uni04E3" unicode="&#x4e3;" horiz-adv-x="537" 
d="M478 0h-63v442l-278 -442h-78v516h63v-442l278 442h78v-516zM433 638h-329v45h329v-45z" />
    <glyph glyph-name="uni04E4" unicode="&#x4e4;" horiz-adv-x="704" 
d="M72 0v714h68v-641l404 641h88v-714h-68v641l-404 -641h-88zM474 808h-68v101h68v-101zM297 808h-68v101h68v-101z" />
    <glyph glyph-name="uni04E5" unicode="&#x4e5;" horiz-adv-x="537" 
d="M478 0h-63v442l-278 -442h-78v516h63v-442l278 442h78v-516zM391 610h-68v101h68v-101zM214 610h-68v101h68v-101z" />
    <glyph glyph-name="uni04E6" unicode="&#x4e6;" horiz-adv-x="741" 
d="M34 357q0 75 21.5 141t62 118t106 82.5t147.5 30.5q108 0 185.5 -53t114 -135.5t36.5 -183.5t-36.5 -183.5t-114 -135.5t-185.5 -53q-82 0 -147.5 30.5t-106 82.5t-62 118t-21.5 141zM102 357q0 -61 16 -115.5t47.5 -99.5t84.5 -72t121 -27t121 27t84 72t47 99.5
t16 115.5t-16 115.5t-47 99.5t-84 72t-121 27t-121 -27t-84.5 -72t-47.5 -99.5t-16 -115.5zM493 808h-68v101h68v-101zM316 808h-68v101h68v-101z" />
    <glyph glyph-name="uni04E7" unicode="&#x4e7;" 
d="M278 531q114 0 179 -78.5t65 -194.5t-65 -194.5t-179 -78.5t-179 78.5t-65 194.5t65 194.5t179 78.5zM278 478q-85 0 -133 -65.5t-48 -154.5t48 -154.5t133 -65.5t133 65.5t48 154.5t-48 154.5t-133 65.5zM400 610h-68v101h68v-101zM223 610h-68v101h68v-101z" />
    <glyph glyph-name="uni04E8" unicode="&#x4e8;" horiz-adv-x="741" 
d="M34 357q0 75 21.5 141t62 118t106 82.5t147.5 30.5q108 0 185.5 -53t114 -135.5t36.5 -183.5t-36.5 -183.5t-114 -135.5t-185.5 -53q-82 0 -147.5 30.5t-106 82.5t-62 118t-21.5 141zM371 671q-122 0 -190 -78.5t-79 -195.5h537q-11 117 -79 195.5t-189 78.5zM371 43
q127 0 196 86.5t74 210.5h-541q5 -124 74 -210.5t197 -86.5z" />
    <glyph glyph-name="uni04E9" unicode="&#x4e9;" 
d="M278 531q114 0 179 -78.5t65 -194.5t-65 -194.5t-179 -78.5t-179 78.5t-65 194.5t65 194.5t179 78.5zM278 478q-77 0 -124 -52.5t-57 -131.5h361q-10 78 -57 131t-123 53zM278 38q81 0 129 58.5t53 144.5h-365q5 -84 53.5 -143.5t129.5 -59.5z" />
    <glyph glyph-name="uni04EA" unicode="&#x4ea;" horiz-adv-x="741" 
d="M34 357q0 75 21.5 141t62 118t106 82.5t147.5 30.5q108 0 185.5 -53t114 -135.5t36.5 -183.5t-36.5 -183.5t-114 -135.5t-185.5 -53q-82 0 -147.5 30.5t-106 82.5t-62 118t-21.5 141zM371 671q-122 0 -190 -78.5t-79 -195.5h537q-11 117 -79 195.5t-189 78.5zM371 43
q127 0 196 86.5t74 210.5h-541q5 -124 74 -210.5t197 -86.5zM493 808h-68v101h68v-101zM316 808h-68v101h68v-101z" />
    <glyph glyph-name="uni04EB" unicode="&#x4eb;" 
d="M278 531q114 0 179 -78.5t65 -194.5t-65 -194.5t-179 -78.5t-179 78.5t-65 194.5t65 194.5t179 78.5zM278 478q-77 0 -124 -52.5t-57 -131.5h361q-10 78 -57 131t-123 53zM278 38q81 0 129 58.5t53 144.5h-365q5 -84 53.5 -143.5t129.5 -59.5zM400 610h-68v101h68v-101z
M223 610h-68v101h68v-101z" />
    <glyph glyph-name="uni04EC" unicode="&#x4ec;" horiz-adv-x="704" 
d="M216 340v57h381q-8 121 -69.5 197.5t-184.5 76.5q-82 0 -145.5 -42.5t-85.5 -123.5h-67q14 72 60.5 124t107.5 76t130 24q110 0 184.5 -52t106.5 -133.5t32 -186.5q0 -74 -20.5 -139.5t-60.5 -118t-105 -83.5t-147 -31q-123 0 -203.5 70t-95.5 193h68q11 -92 74 -148.5
t157 -56.5q88 0 149 42.5t87.5 107t29.5 147.5h-383zM474 808h-68v101h68v-101zM297 808h-68v101h68v-101z" />
    <glyph glyph-name="uni04ED" unicode="&#x4ed;" horiz-adv-x="519" 
d="M31 166h63q12 -63 53.5 -95.5t102.5 -32.5q75 0 121 54.5t49 148.5h-242v53h241q-9 86 -49 135t-113 49q-58 0 -98.5 -29t-55.5 -83h-65q15 78 73.5 121.5t146.5 43.5q108 0 167.5 -74.5t59.5 -204.5q0 -119 -65 -193t-170 -74q-90 0 -147.5 48.5t-71.5 132.5zM382 610
h-68v101h68v-101zM205 610h-68v101h68v-101z" />
    <glyph glyph-name="uni04F0" unicode="&#x4f0;" horiz-adv-x="593" 
d="M-7 714h77l233 -483l226 483h73l-285 -593q-65 -136 -173 -136q-41 0 -78 16v60q40 -18 76 -18q68 0 112 96l12 26zM419 808h-68v101h68v-101zM242 808h-68v101h68v-101z" />
    <glyph glyph-name="uni04F1" unicode="&#x4f1;" horiz-adv-x="463" 
d="M208 2l-206 514h67l170 -440l159 440h63l-224 -595q-29 -68 -54 -90t-82 -22q-38 2 -48 5v53q25 -5 43 -5q20 0 34 5t24.5 18.5t15.5 23.5t16 34zM354 610h-68v101h68v-101zM177 610h-68v101h68v-101z" />
    <glyph glyph-name="uni04F4" unicode="&#x4f4;" horiz-adv-x="640" 
d="M500 340q-129 -30 -219 -30q-123 0 -176.5 51t-53.5 154v198h68v-194q0 -76 38 -113t127 -37q77 0 216 29v316h68v-714h-68v340zM442 808h-68v101h68v-101zM265 808h-68v101h68v-101z" />
    <glyph glyph-name="uni04F5" unicode="&#x4f5;" horiz-adv-x="505" 
d="M383 242q-99 -26 -166 -26q-86 0 -129.5 38t-43.5 125v137h63v-134q0 -60 27.5 -86t85.5 -26q76 0 163 26v220h63v-516h-63v242zM375 610h-68v101h68v-101zM198 610h-68v101h68v-101z" />
    <glyph glyph-name="uni04F8" unicode="&#x4f8;" horiz-adv-x="844" 
d="M704 0v714h68v-714h-68zM389 0h-317v714h68v-302h249q98 0 155 -55.5t57 -150.5t-57 -150.5t-155 -55.5zM533 206q0 69 -42 108.5t-117 39.5h-234v-296h234q75 0 117 39t42 109zM544 808h-68v101h68v-101zM367 808h-68v101h68v-101z" />
    <glyph glyph-name="uni04F9" unicode="&#x4f9;" horiz-adv-x="670" 
d="M548 0v516h63v-516h-63zM289 0h-230v516h63v-204h167q75 0 119 -42t44 -114q0 -73 -44 -114.5t-119 -41.5zM275 259h-153v-206h153q55 0 85 26.5t30 76.5q0 49 -30.5 76t-84.5 27zM457 610h-68v101h68v-101zM280 610h-68v101h68v-101z" />
    <glyph glyph-name="uni10D0" unicode="&#x10d0;" horiz-adv-x="435" 
d="M148 489h61q5 -67 34 -109q19 -22 46 -46q73 -62 89 -98q21 -41 21 -77q0 -77 -52 -126q-51 -45 -125 -45q-79 0 -129 49q-50 53 -50 124q0 34 17 78l21.5 -4t22.5 -5l20 -5q-11 -36 -11 -67q0 -47 32.5 -79t76.5 -32q47 0 77 30t30 82q0 29 -16 58q-14 27 -69 72
q-62 52 -86 126q-8 32 -10 74z" />
    <glyph glyph-name="uni10D1" unicode="&#x10d1;" 
d="M98 480l-12 12q10 2 16 4q-1 -3 -2.5 -8.5t-1.5 -7.5zM171 601q0 -81 -69 -105q14 87 14 116q0 50 -11 84q-7 13 -7 17q0 16 27 16q25 0 74 -28q58 -30 85 -50q31 -22 41 -37.5t10 -45.5v-22q0 -50 81 -119q108 -93 108 -205q0 -99 -65 -167q-63 -67 -177 -67
q-102 0 -170 67q-69 69 -69 165q0 101 89 179q42 37 105 81q18 12 22.5 28.5t4.5 56.5q0 26 -16 39q-17 15 -79 49v-25q2 -20 2 -27zM299 441l-13 1q-10 -6 -25 -19q-20 -12 -39 -28q-50 -39 -78 -80q-30 -45 -30 -99q0 -78 50 -123t118 -45q65 0 118 48q53 50 53 127
q0 47 -24 89q-25 47 -101 105q-27 22 -29 24z" />
    <glyph glyph-name="uni10D2" unicode="&#x10d2;" horiz-adv-x="565" 
d="M373 212l6 -11q70 -33 109.5 -94t39.5 -139q0 -94 -66 -164q-64 -70 -176 -70q-97 0 -169 70q-69 70 -69 160q0 97 69 166q69 71 186 87q12 49 12 87q0 41 -24.5 64.5t-66.5 23.5t-69.5 -22.5t-27.5 -60.5q0 -17 13 -58q-14 -2 -33.5 -6t-31.5 -6q-12 33 -12 70
q0 65 44 104.5t117 39.5q74 0 117.5 -40t43.5 -110q0 -29 -12 -91zM455 -25q0 58 -36.5 108t-95.5 77q-95 -12 -149.5 -63.5t-54.5 -127.5q0 -72 50 -124t117 -52q68 0 119 53q50 55 50 129z" />
    <glyph glyph-name="uni10D3" unicode="&#x10d3;" horiz-adv-x="872" 
d="M427 372h17q26 36 73.5 57.5t103.5 21.5q103 0 166 -62q64 -63 64 -171q0 -104 -64 -168q-63 -62 -167 -62q-105 0 -168 63q-64 64 -64 166q0 48 12 84q-20 41 -56.5 64.5t-76.5 23.5q-71 0 -114 -52t-43 -145q0 -85 38.5 -144.5t103.5 -91.5q76 -34 172 -62
q71 -20 98 -29h-1q42 -18 78 -40l58 -34l-49 -49q-86 65 -194 89q-107 25 -277 25h-55v61h91l4 17q-64 37 -101 108t-37 153q0 117 61 186q61 68 168 68q46 0 90.5 -21t68.5 -56zM619 48q66 0 114 48q47 52 47 122q0 81 -43.5 127t-114.5 46q-74 0 -118.5 -47t-44.5 -127
q0 -78 43.5 -123.5t116.5 -45.5z" />
    <glyph glyph-name="uni10D4" unicode="&#x10d4;" horiz-adv-x="506" 
d="M134 241h-60q0 5 -0.5 7t-0.5 5t-0.5 8t-0.5 6q0 83 52 132.5t138 49.5q214 0 214 -396q0 -155 -68 -236q-66 -83 -171 -83q-99 0 -155 45.5t-56 129.5q0 61 38 119l23 -13.5t28 -15.5q-24 -48 -24 -90q0 -54 40.5 -84.5t106.5 -30.5q75 0 121 69t46 190q0 166 -37 252
t-106 86q-61 0 -94.5 -34.5t-33.5 -96.5v-19z" />
    <glyph glyph-name="uni10D5" unicode="&#x10d5;" horiz-adv-x="544" 
d="M360 137l1 -20q64 -15 102.5 -58.5t38.5 -101.5q0 -98 -66 -160q-66 -63 -175 -63q-110 0 -167.5 45t-57.5 130q0 56 29 106l52 -31q-16 -37 -16 -75q0 -115 159 -115q79 0 125.5 42t46.5 114t-51 103t-167 32v60q93 2 136.5 32.5t43.5 96.5q0 53 -34.5 85t-87.5 32
q-136 0 -136 -132v-19h-60v5t-0.5 2.5t-0.5 1.5v3q0 3 -0.5 8t-0.5 6q0 84 55 132q54 50 143 50t141 -47t52 -128q0 -45 -29.5 -83.5t-75.5 -52.5z" />
    <glyph glyph-name="uni10D6" unicode="&#x10d6;" horiz-adv-x="723" 
d="M322 440v-67q85 70 158 70q97 0 159 -64q60 -65 60 -162q0 -93 -63 -162q-64 -67 -167 -67t-161 80.5t-58 224.5v183q-41 -35 -81 -35q-66 0 -103.5 39t-37.5 111q0 74 36.5 113t104.5 39q153 0 153 -148v-146l90 136q46 70 67 70q40 0 40 -41q0 -13 -19 -32
q-16 -20 -97 -77q-59 -43 -81 -65zM250 534v58q0 43 -21.5 68.5t-58.5 25.5t-57 -25t-20 -69q0 -43 20.5 -68t56.5 -25q40 0 80 35zM325 309l-3 -7q0 -136 35 -196t115 -60q73 0 114.5 45t41.5 124q0 80 -39 125t-109 45q-79 0 -155 -76z" />
    <glyph glyph-name="uni10D7" unicode="&#x10d7;" horiz-adv-x="868" 
d="M449 375h17q24 33 65.5 53.5t88.5 20.5q103 0 165 -65q63 -63 63 -163q0 -164 -175 -236l-35 50q140 57 140 186q0 77 -47 121q-44 47 -110 47q-40 0 -76.5 -23.5t-57.5 -64.5q13 -35 13 -84q0 -102 -66 -167q-62 -62 -166 -62q-105 0 -168 62q-63 64 -63 168
q0 108 63 171q63 62 169 62q118 0 180 -76zM269 48q73 0 116 45.5t43 123.5q0 80 -44 127t-118 47q-72 0 -115 -46t-43 -127q0 -76 46 -123t115 -47z" />
    <glyph glyph-name="uni10D8" unicode="&#x10d8;" horiz-adv-x="530" 
d="M209 35l-34 -50q-65 29 -100 88.5t-35 144.5q0 100 63 166q61 65 164 65q99 0 166 -67q66 -68 66 -164q0 -84 -35.5 -144t-98.5 -89q-6 10 -17.5 26t-16.5 24q97 50 97 183q0 76 -48 124q-54 47 -111 47q-65 0 -112 -48q-46 -48 -46 -123q0 -132 98 -183z" />
    <glyph glyph-name="uni10D9" unicode="&#x10d9;" horiz-adv-x="532" 
d="M360 137l1 -20q64 -15 102.5 -58.5t38.5 -101.5q0 -98 -66 -160q-66 -63 -175 -63q-110 0 -167.5 45t-57.5 130q0 56 29 106l52 -31q-16 -37 -16 -75q0 -115 159 -115q79 0 125.5 42t46.5 114q0 65 -45.5 101.5t-125.5 36.5q-7 0 -47 -2v58q99 6 139.5 29.5t40.5 70.5
q1 75 -20 111t-70 36v57q73 -1 107.5 -29t44.5 -84q9 -70 9 -92q0 -77 -105 -106z" />
    <glyph glyph-name="uni10DA" unicode="&#x10da;" horiz-adv-x="955" 
d="M660 169h-66q-1 80 -29 148q-29 71 -77 71q-46 0 -75 -61.5t-31 -157.5h-67q-1 80 -29 148q-29 71 -77 71q-100 0 -100 -174q0 -96 38.5 -161t103.5 -97q52 -25 172 -62q71 -20 98 -29h-1q42 -18 78 -40q40 -22 58 -34l-49 -49q-86 65 -194 89q-107 25 -277 25h-55v61h91
l5 17q-59 34 -102 116q-37 84 -37 165q0 112 45 171.5t126 59.5q91 0 139 -110q48 110 140 110q91 0 139 -110q48 110 139 110q78 0 125 -61t47 -170q0 -74 -40 -142q-39 -66 -86 -88q-6 10 -18 26.5t-17 24.5q37 22 62 69q28 50 28 109q0 78 -27.5 126t-73.5 48t-78 -71
q-27 -66 -28 -148z" />
    <glyph glyph-name="uni10DB" unicode="&#x10db;" horiz-adv-x="552" 
d="M490 532v-239q0 -144 -57.5 -224.5t-162.5 -80.5q-102 0 -166 71h1q-64 73 -64 169q0 101 60 167q60 69 159 69q85 0 158 -67v135q0 64 -45 105q-45 42 -104 42q-136 0 -136 -132v-19h-60q0 6 -0.5 8t-0.5 5v8l-1 5q0 80 55 132q56 51 143 51q95 0 159 -59
q62 -57 62 -146zM418 322l-3 8q-76 76 -155 76q-69 0 -109 -48.5t-40 -131.5q0 -81 41.5 -130.5t114.5 -49.5q80 0 115.5 65t35.5 211z" />
    <glyph glyph-name="uni10DC" unicode="&#x10dc;" horiz-adv-x="565" 
d="M145 605v-208q73 67 158 67q99 0 159 -69q61 -67 61 -167q0 -94 -66 -169h1q-64 -71 -165 -71q-105 0 -162.5 80.5t-57.5 224.5v312q0 66 21 95.5t70 29.5q22 0 109 -18q76 -17 100 -17q49 0 109 32q4 -10 14.5 -26.5t13.5 -23.5q-65 -42 -137 -42q-22 0 -101 19
q-61 16 -81 16q-46 0 -46 -65zM148 330l-3 -8q0 -146 35.5 -211t115.5 -65q72 0 114 49t42 131q0 83 -40 131.5t-109 48.5q-76 0 -155 -76z" />
    <glyph glyph-name="uni10DD" unicode="&#x10dd;" horiz-adv-x="712" 
d="M710 93v-61q-106 -9 -158 -62q-17 12 -51 34q87 114 87 210q0 174 -100 174q-46 0 -78 -71q-27 -62 -28 -148h-67q-1 84 -29 148q-29 71 -77 71q-100 0 -100 -174q0 -61 27 -109q25 -46 63 -69l-12 -16.5t-12.5 -19t-10.5 -15.5q-49 26 -85 88q-41 70 -41 142
q0 112 45 171.5t126 59.5q91 0 139 -110q50 110 140 110q80 0 125 -60t45 -171q0 -61 -39 -155q44 26 91 33z" />
    <glyph glyph-name="uni10DE" unicode="&#x10de;" horiz-adv-x="547" 
d="M375 431l1 -19q62 -21 96 -75t34 -126q0 -98 -66 -161q-66 -62 -175 -62q-110 0 -167.5 45t-57.5 130q0 57 29 105q12 -6 28.5 -16t24.5 -14q-17 -37 -17 -75q0 -115 159 -115q79 0 125.5 42.5t46.5 113.5q0 88 -53 134.5t-172 48.5v57q79 2 125.5 26.5t46.5 66.5
q0 22 -24 37q-19 13 -93 27q-76 15 -120 41v-1q-36 23 -59 51l22.5 20.5t20.5 18.5q27 -27 54 -41q30 -17 124 -41q84 -20 115.5 -40.5t35.5 -72.5q-1 -65 -84 -105z" />
    <glyph glyph-name="uni10DF" unicode="&#x10df;" horiz-adv-x="574" 
d="M513 464v-507q0 -98 -66 -161q-65 -62 -176 -62q-109 0 -167 45t-58 130q0 57 30 106q48 -29 52 -31q-17 -37 -17 -75q0 -115 159 -115q73 0 123 45q49 47 49 111v412q-67 -40 -179 -46q61 -55 61 -108q0 -46 -34 -76.5t-86 -30.5q-84 0 -152 132q7 4 21 13.5l23 15.5
q51 -101 108 -101q22 0 39 16t17 39q0 51 -77 103q7 12 19 30t15 23q88 0 148 21q61 22 118 71h30z" />
    <glyph glyph-name="uni10E0" unicode="&#x10e0;" horiz-adv-x="685" 
d="M340 357h18q39 89 130 89q83 0 127.5 -59.5t44.5 -171.5q0 -72 -41 -142q-39 -66 -85 -88q-6 10 -18 26.5t-17 24.5q34 20 62 69q28 50 28 109q0 174 -100 174q-46 0 -78 -71q-28 -66 -29 -148h-66q-1 81 -30 148q-28 71 -77 71q-99 0 -99 -174q0 -61 27 -109
q23 -46 62 -69q-24 -34 -34 -50q-49 28 -86 89q-40 71 -40 149q0 215 102 320q40 43 82 66.5t110 49.5q73 28 120 71q8 -7 20.5 -19.5t19.5 -18.5q-47 -51 -135 -86q-97 -37 -143 -80q-42 -39 -75 -116q48 35 69 35q92 0 131 -89z" />
    <glyph glyph-name="uni10E1" unicode="&#x10e1;" horiz-adv-x="554" 
d="M405 460l67 9q3 -58 25 -135q19 -70 19 -103q0 -104 -61 -174q-60 -69 -161 -69q-100 0 -159 74q-62 75 -62 197v465h72v-466q0 -96 40.5 -154t107.5 -58q70 0 111.5 49.5t41.5 134.5q0 24 -16 88q-24 84 -25 142z" />
    <glyph glyph-name="uni10E2" unicode="&#x10e2;" horiz-adv-x="806" 
d="M493 465l-17 -13q142 -25 225.5 -122.5t83.5 -243.5q0 -150 -103 -251q-102 -101 -269 -101q-169 0 -272 100q-103 99 -103 253q0 141 80 238q80 98 236 126q-56 53 -56 83q0 34 33 63q36 30 84 30t80 -26.5t32 -65.5q0 -28 -34 -70zM413 453q57 50 57 82
q0 14 -16.5 26.5t-39.5 12.5q-24 0 -41.5 -11.5t-17.5 -28.5q0 -33 58 -81zM471 308q0 55 -58 96q-59 -47 -59 -92q0 -21 18 -35.5t42 -14.5q23 0 40 13t17 33zM358 407l-45 -11q-99 -31 -152 -112.5t-53 -197.5q0 -130 84 -211t221 -81t219 81t82 212q0 123 -63 205.5
t-176 111.5q52 -54 52 -96q0 -38 -33 -69q-33 -30 -80 -30q-49 0 -83 30q-31 27 -31 78q0 16 7.5 31t16 24.5t28.5 28.5z" />
    <glyph glyph-name="uni10E3" unicode="&#x10e3;" horiz-adv-x="810" 
d="M479 169h-66q-1 81 -30 148q-28 71 -77 71q-14 0 -25 -11t-29 -49q-27 -60 -53 -77q-20 -16 -48 -16q-59 0 -91.5 54t-33.5 155h62q2 -65 20 -102t47 -37q14 0 26.5 11.5t28.5 45.5q23 49 45.5 66.5t50.5 17.5q92 0 140 -110q48 110 139 110q78 0 125 -61t47 -170v-259
q0 -96 -66 -160q-63 -63 -175 -63q-109 0 -167 45t-58 130q0 59 29 106q10 -5 25.5 -15t26.5 -16q-17 -40 -17 -75q0 -115 160 -115q79 0 125 41.5t46 114.5v265q0 78 -27.5 126t-73.5 48t-78 -71q-27 -66 -28 -148z" />
    <glyph glyph-name="uni10E4" unicode="&#x10e4;" horiz-adv-x="777" 
d="M612 137l1 -20q65 -15 103.5 -58.5t38.5 -101.5q0 -97 -67 -160q-66 -63 -175 -63t-166.5 45t-57.5 130q0 59 29 106q9 -5 25 -15t27 -16q-17 -37 -17 -75q0 -115 159 -115q78 0 125 42t47 114q0 71 -50 102.5t-167 32.5v60q92 2 136 32.5t44 96.5q0 53 -34.5 85
t-87.5 32q-88 0 -133 -81q4 -24 4 -44q0 -79 -51 -130q-51 -49 -129 -49q-80 0 -129 49t-49 131q0 84 49.5 132.5t129.5 48.5q87 0 147 -69q29 31 72.5 50t88.5 19q89 0 140.5 -47t51.5 -128q0 -45 -29 -83.5t-76 -52.5zM217 145q52 0 83 32.5t31 88.5q0 57 -31.5 91
t-84.5 34q-52 0 -83 -33t-31 -91q0 -54 32.5 -88t83.5 -34z" />
    <glyph glyph-name="uni10E5" unicode="&#x10e5;" horiz-adv-x="502" 
d="M438 724v-820q0 -78 -54 -125q-55 -46 -143 -46q-91 0 -145 51q-55 52 -55 122q0 38 17 78l21 -4t22 -5l20 -5q-10 -37 -10 -67q0 -48 37 -79.5t93 -31.5q60 0 93.5 28.5t33.5 83.5v277h-162v-60h-58v115h220v379l-139 -150l-49 45l198 214h60z" />
    <glyph glyph-name="uni10E6" unicode="&#x10e6;" horiz-adv-x="686" 
d="M659 -209l-49 -49q-86 65 -195 89q-106 25 -276 25h-55v61h91l4 17q-60 35 -102 116q-36 81 -36 165q0 112 44.5 171.5t126.5 59.5q91 0 139 -110q48 110 139 110q81 0 126 -59.5t45 -171.5q0 -72 -41 -142q-39 -66 -85 -88q-6 10 -18 26.5t-17 24.5q34 20 62 69
q28 50 28 109q0 174 -100 174q-46 0 -78 -71q-27 -66 -28 -148h-66q-1 80 -29 148q-29 71 -77 71q-100 0 -100 -174q0 -96 38.5 -161t103.5 -97q52 -25 172 -62q71 -20 98 -29h-1q44 -20 78 -40z" />
    <glyph glyph-name="uni10E7" unicode="&#x10e7;" horiz-adv-x="512" 
d="M449 449v-545q0 -78 -55 -125q-56 -46 -143 -46q-91 0 -145 51q-55 52 -55 122q0 38 17 78l21 -4t22 -5l20 -5q-10 -37 -10 -67q0 -48 37.5 -79.5t92.5 -31.5q60 0 93.5 28.5t33.5 83.5v288q-67 -62 -134 -62q-90 0 -137.5 53t-47.5 154v112h71v-90q0 -87 25 -128t85 -41
q80 0 138 76v183h71z" />
    <glyph glyph-name="uni10E8" unicode="&#x10e8;" horiz-adv-x="552" 
d="M490 602v-309q0 -144 -57.5 -224.5t-162.5 -80.5q-102 0 -166 71h1q-64 73 -64 169q0 101 60 167q60 69 159 69q85 0 158 -67v210q0 36 -15.5 56t-42.5 20q-31 0 -45 -26.5t-16 -84.5h-61q-3 109 -63 109q-27 0 -44.5 -18.5t-17.5 -49.5q0 -36 14 -78q-12 -4 -31.5 -9
t-28.5 -8q-24 44 -24 93q0 60 36.5 95.5t95.5 35.5q54 0 93 -69q36 70 94 70q59 0 93.5 -37t34.5 -104zM418 322l-3 8q-76 76 -155 76q-69 0 -109 -48.5t-40 -131.5q0 -81 41.5 -130.5t114.5 -49.5q80 0 115.5 65t35.5 211z" />
    <glyph glyph-name="uni10E9" unicode="&#x10e9;" horiz-adv-x="496" 
d="M146 449v-120q30 40 70.5 64t73.5 24q74 0 119 -49t45 -134q0 -71 -43 -234h-72q44 152 44 224q0 135 -94 135q-65 0 -105 -63q-38 -59 -38 -126q0 -29 0.5 -85.5t0.5 -84.5h-73v567q0 81 43.5 128t111.5 47q51 0 83 -31t32 -76q0 -65 -51.5 -112.5t-146.5 -73.5z
M146 586v-75q134 36 134 122q0 22 -14 35t-37 13q-36 0 -59.5 -26.5t-23.5 -68.5z" />
    <glyph glyph-name="uni10EA" unicode="&#x10ea;" horiz-adv-x="568" 
d="M428 117v-19q51 -24 81 -69.5t30 -101.5q0 -87 -63 -139q-64 -54 -175 -54q-122 0 -186 83.5t-64 245.5q0 192 105 384l59 -22q-93 -181 -93 -363q0 -268 182 -268q74 0 119.5 37.5t45.5 98.5q0 56 -34.5 92.5t-84.5 48.5h1q-40 10 -76 11v63q96 1 137 19.5t41 60.5
q0 23 -18 47q-20 26 -72 55q-41 21 -61 71q10 8 26.5 19.5t25.5 18.5q23 -43 60 -66v1q110 -69 110 -137q0 -77 -96 -117z" />
    <glyph glyph-name="uni10EB" unicode="&#x10eb;" horiz-adv-x="552" 
d="M490 724v-431q0 -144 -57.5 -224.5t-162.5 -80.5q-102 0 -166 71h1q-64 73 -64 169q0 101 60 167q60 69 159 69q85 0 158 -67v327h72zM418 322l-3 8q-76 76 -155 76q-69 0 -109 -48.5t-40 -131.5q0 -81 41.5 -130.5t114.5 -49.5q80 0 115.5 65t35.5 211z" />
    <glyph glyph-name="uni10EC" unicode="&#x10ec;" horiz-adv-x="592" 
d="M295 677l17 1q36 63 113 63q59 0 102 -41q41 -40 41 -102q0 -44 -34 -105l-60 33q22 41 22 75q0 30 -22 54t-49 24q-82 0 -87 -125h-71q-3 58 -24 91t-59 33q-75 0 -75 -116q0 -65 29 -202q76 100 171 100q87 0 149 -59q61 -61 61 -153q0 -70 -54 -187
q-55 -123 -185 -327h-60v64q0 45 -15 111q-13 60 -71 244q-58 182 -80 276q-16 79 -16 131q0 82 38 132.5t99 50.5q73 0 120 -66zM274 -120l20 -4q81 136 119 226q36 85 36 145q0 67 -44 108q-43 43 -96 43q-86 0 -149 -106q17 -65 57 -190q33 -106 40 -134q12 -38 17 -88z
" />
    <glyph glyph-name="uni10ED" unicode="&#x10ed;" horiz-adv-x="565" 
d="M535 321v-53q-15 5 -34 5q-9 0 -28 -7q-16 -5 -65 -53q46 -48 86 -52l23.5 -2.5t16.5 -1.5v-56h-33q-29 0 -79 51q0 -36 7 -74q21 -124 21 -174q0 -77 -59 -124q-60 -47 -151 -47t-145 51q-55 52 -55 122q0 38 17 78l21 -4t22 -5l20 -5q-10 -37 -10 -67q0 -48 37 -79.5
t93 -31.5q63 0 100.5 30t37.5 82q0 62 -13 162q-7 56 -7 87q-53 -50 -89 -50q-40 0 -68.5 30t-28.5 77q0 50 26.5 82t66.5 32q20 0 45 -19.5t43 -47.5q0 44 18 136q17 74 17 96q0 51 -52 83q-8 4 -23.5 12.5t-18.5 10.5q-67 37 -106 66q-12 -64 -35 -159q-8 2 -29.5 7
t-34.5 7q27 106 42 198q8 4 28.5 12.5l29.5 12.5q75 -52 153 -95q61 -34 74 -45q18 -14 31 -42q12 -29 12 -72q0 -31 -16 -88l-25 -90l15 -9q30 32 62 32q22 0 40 -9zM346 207v15q-27 30 -42 38t-32 8q-20 0 -31.5 -15.5t-11.5 -42.5q0 -23 10.5 -37.5t30.5 -14.5
q31 0 57 29q12 12 15 16z" />
    <glyph glyph-name="uni10EE" unicode="&#x10ee;" horiz-adv-x="552" 
d="M145 440v-67q85 70 158 70q98 0 159 -64t61 -162q0 -94 -64 -162q-64 -67 -166 -67q-105 0 -162.5 80.5t-57.5 224.5v431h72l-1 -264l91 125q47 70 67 70q41 0 41 -41q0 -12 -20 -32q-23 -25 -97 -77l-5 -4q-52 -38 -76 -61zM148 309l-3 -7q0 -134 35 -195t116 -61
q73 0 114.5 45t41.5 124q0 80 -39.5 125t-109.5 45q-79 0 -155 -76z" />
    <glyph glyph-name="uni10EF" unicode="&#x10ef;" horiz-adv-x="741" 
d="M677 -57l47 33q60 -72 60 -120q0 -44 -32 -73t-79 -29q-58 0 -92 48l-194 270l-193 -129q51 -43 51 -86q0 -44 -32 -73q-30 -32 -72 -32q-44 0 -102 38q6 10 17.5 25.5t16.5 23.5q41 -26 67 -26q15 0 27 13t12 30q0 35 -44 63q-11 7 -49 33l263 173l-153 215
q-22 29 -31.5 36t-23.5 7q-17 0 -27.5 -12.5t-10.5 -28.5q0 -35 41 -87l-48 -32q-58 70 -58 118q0 45 31.5 73.5t78.5 28.5q58 0 90 -46l167 -234l161 105q60 38 68 48q9 12 9 28q0 17 -11.5 27.5t-28.5 10.5q-36 0 -88 -41l-16.5 24l-16.5 24q66 58 120 58q44 0 72.5 -31.5
t28.5 -78.5q0 -33 -12 -55t-42 -42l-205 -131l124 -174l71 -98q7 -9 17 -14q14 -8 25 -8q37 0 37 40q0 36 -41 88z" />
    <glyph glyph-name="uni10F0" unicode="&#x10f0;" horiz-adv-x="549" 
d="M409 312v-19q110 -51 110 -148q0 -64 -60 -111q-66 -46 -166 -46q-183 0 -250 179l29 13.5t21 9.5q62 -144 199 -144q72 0 113.5 28.5t41.5 74.5q0 49 -79 95q-63 39 -170 68q9 26 17 56q108 -33 129 -33q19 0 32 13.5t13 33.5q0 67 -206 130q3 11 7 28l5 21
q96 -31 126 -31q22 0 38 11t16 28q0 30 -58 63t-155 59q2 11 6.5 27.5t6.5 24.5q122 -28 192 -72.5t70 -96.5q0 -25 -20 -47t-54 -35q87 -54 87 -111q0 -49 -41 -69z" />
    <glyph glyph-name="uni10F1" unicode="&#x10f1;" horiz-adv-x="659" 
d="M381 724h65q2 -21 20 -47q19 -27 77 -69q60 -45 69 -65q15 -24 15 -46q0 -40 -32.5 -68t-86.5 -40q53 -37 53 -84q0 -41 -36 -71t-94 -33q38 -43 38 -83q0 -58 -38.5 -94t-99.5 -36q-85 0 -151 71.5t-100 195.5q-35 135 -35 241t44.5 167t123.5 61q53 0 83.5 -34
t30.5 -92q0 -68 -51 -131.5t-143 -104.5q21 -134 75 -223q56 -91 122 -91q30 0 49 20t19 50q0 34 -29 62t-102 61l27 54q82 -41 128 -41q31 0 50 17t19 43q0 31 -31.5 54t-110.5 51q4 11 12 28.5t11 25.5q82 -31 111 -31q30 0 51.5 17t21.5 42q0 18 -10.5 31t-41.5 33h1
q-116 82 -124 159zM120 439l16 -8q59 30 92 74.5t33 93.5q0 29 -13.5 47t-34.5 18q-44 0 -70 -45t-26 -123q0 -28 3 -57z" />
    <glyph glyph-name="uni10F2" unicode="&#x10f2;" horiz-adv-x="559" 
d="M540 64l13 -63q-49 -13 -108 -13q-102 0 -158 19q-54 -19 -157 -19q-46 0 -113 10l18 65q72 -15 178 -15q-141 92 -141 204q0 84 61 141q58 57 154 57q95 0 155 -57q61 -58 61 -141q0 -111 -138 -204q107 0 175 16zM284 72h8q63 23 101 72.5t38 105.5q0 67 -41 104.5
t-102 37.5q-65 0 -104.5 -38t-39.5 -104q0 -53 40 -103q43 -52 100 -75z" />
    <glyph glyph-name="uni10F3" unicode="&#x10f3;" horiz-adv-x="524" 
d="M463 390l-241 -238h32q102 0 164 -52q64 -52 64 -138q0 -110 -69 -169t-201 -59q-87 0 -181 32l12 29.5l12 29.5q88 -33 150 -33q98 0 152 43t54 122q0 143 -200 143h-54v59l235 230h-336v58h407v-57z" />
    <glyph glyph-name="uni10F4" unicode="&#x10f4;" horiz-adv-x="482" 
d="M318 137v-18q64 -30 98.5 -80.5t34.5 -113.5q0 -84 -62 -138q-58 -54 -148 -54q-92 0 -145 56q-55 57 -55 138q0 38 17 78l21 -4t22 -5l20 -5q-10 -37 -10 -67q0 -55 38 -93q39 -39 92 -39q55 0 96 36q42 37 42 97q0 51 -33.5 96.5t-88.5 63.5q-49 15 -79 16v59
q71 1 110.5 21.5t39.5 54.5q0 15 -15.5 27.5t-61.5 28.5q-70 26 -89 47h1q-19 22 -19 43q0 40 50 70t130 41q3 -10 8 -25t7 -23q-126 -20 -126 -61q0 -11 13.5 -20.5t52.5 -24.5q77 -30 99 -53q22 -21 22 -48q0 -68 -82 -101z" />
    <glyph glyph-name="uni10F5" unicode="&#x10f5;" horiz-adv-x="565" 
d="M555 120v-59h-116v-111q0 -54 -10.5 -88.5t-41.5 -65.5q-51 -56 -143 -56q-93 0 -144 50t-51 144q0 86 46.5 136t131.5 50h141v86h-141q-85 0 -131.5 50t-46.5 135q0 95 50.5 145t144.5 50q90 0 143 -58q30 -30 41 -65t11 -87v-112h116v-58h-116v-86h116zM246 264h122
v111q0 70 -34 111t-86 41q-128 0 -128 -139q0 -124 126 -124zM368 -49v110h-122q-126 0 -126 -123q0 -140 128 -140q53 0 86.5 42t33.5 111z" />
    <glyph glyph-name="uni10F6" unicode="&#x10f6;" horiz-adv-x="822" 
d="M456 654v-234h71q128 0 200 -60q74 -59 74 -155q0 -99 -74 -158t-200 -59h-71v-165q0 -29 44 -29q28 0 78 7l9 -55q-66 -12 -140 -12q-35 0 -51 10q-12 9 -12 58v186h-72q-127 0 -200 60q-73 58 -73 157q0 97 73 155q73 60 200 60h72v214q0 29 -45 29q-29 0 -78 -8
q-1 10 -2.5 19t-3 19.5l-2.5 17.5q68 12 139 12q37 0 50 -10q14 -12 14 -59zM456 362v-316h71q94 0 148.5 42.5t54.5 116.5q0 73 -54.5 115t-148.5 42h-71zM312 46h72v316h-72q-93 0 -148 -42t-55 -115q0 -74 55 -116.5t148 -42.5z" />
    <glyph glyph-name="Wgrave" unicode="&#x1e80;" horiz-adv-x="907" 
d="M198 0l-198 714h73l162 -625h2l174 625h85l175 -625h2l163 625h68l-197 -714h-72l-181 639h-2l-180 -639h-74zM454 779l-132 141h78l105 -141h-51z" />
    <glyph glyph-name="wgrave" unicode="&#x1e81;" horiz-adv-x="741" 
d="M174 0l-166 516h67l132 -442h2l126 442h71l126 -442h2l132 442h67l-166 -516h-69l-127 434h-2l-126 -434h-69zM361 589l-132 141h78l105 -141h-51z" />
    <glyph glyph-name="Wacute" unicode="&#x1e82;" horiz-adv-x="907" 
d="M198 0l-198 714h73l162 -625h2l174 625h85l175 -625h2l163 625h68l-197 -714h-72l-181 639h-2l-180 -639h-74zM590 920l-132 -141h-51l105 141h78z" />
    <glyph glyph-name="wacute" unicode="&#x1e83;" horiz-adv-x="741" 
d="M174 0l-166 516h67l132 -442h2l126 442h71l126 -442h2l132 442h67l-166 -516h-69l-127 434h-2l-126 -434h-69zM517 730l-132 -141h-51l105 141h78z" />
    <glyph glyph-name="Wdieresis" unicode="&#x1e84;" horiz-adv-x="907" 
d="M198 0l-198 714h73l162 -625h2l174 625h85l175 -625h2l163 625h68l-197 -714h-72l-181 639h-2l-180 -639h-74zM575 800h-68v101h68v-101zM398 800h-68v101h68v-101z" />
    <glyph glyph-name="wdieresis" unicode="&#x1e85;" horiz-adv-x="741" 
d="M174 0l-166 516h67l132 -442h2l126 442h71l126 -442h2l132 442h67l-166 -516h-69l-127 434h-2l-126 -434h-69zM492 610h-68v101h68v-101zM315 610h-68v101h68v-101z" />
    <glyph glyph-name="Ygrave" unicode="&#x1ef2;" horiz-adv-x="611" 
d="M271 0v294l-281 420h81l235 -362l234 362h81l-282 -420v-294h-68zM298 779l-132 141h78l105 -141h-51z" />
    <glyph glyph-name="ygrave" unicode="&#x1ef3;" horiz-adv-x="463" 
d="M208 2l-206 514h67l170 -440l159 440h63l-224 -595q-29 -68 -54 -90t-82 -22q-38 2 -48 5v53q25 -5 43 -5q20 0 34 5t24.5 18.5t15.5 23.5t16 34zM228 589l-132 141h78l105 -141h-51z" />
    <glyph glyph-name="uni2010" unicode="&#x2010;" horiz-adv-x="370" 
d="M310 246h-250v58h250v-58z" />
    <glyph glyph-name="endash" unicode="&#x2013;" horiz-adv-x="500" 
d="M500 246h-500v58h500v-58z" />
    <glyph glyph-name="emdash" unicode="&#x2014;" horiz-adv-x="1000" 
d="M870 246h-740v58h740v-58z" />
    <glyph glyph-name="afii00208" unicode="&#x2015;" horiz-adv-x="1000" 
d="M900 246h-800v58h800v-58z" />
    <glyph glyph-name="quoteleft" unicode="&#x2018;" horiz-adv-x="278" 
d="M179 471h-84v107q0 47 23 86t66 50v-43q-24 -9 -36.5 -38t-10.5 -56h42v-106z" />
    <glyph glyph-name="quoteright" unicode="&#x2019;" horiz-adv-x="278" 
d="M99 714h84v-107q0 -47 -23 -86t-66 -50v43q24 7 37 37.5t10 56.5h-42v106z" />
    <glyph glyph-name="quotesinglbase" unicode="&#x201a;" horiz-adv-x="278" 
d="M99 106h84v-107q0 -47 -23 -86t-66 -50v43q24 7 37 37.5t10 56.5h-42v106z" />
    <glyph glyph-name="quotedblleft" unicode="&#x201c;" horiz-adv-x="370" 
d="M302 471h-84v107q0 47 23 86t66 50v-43q-24 -9 -36.5 -38t-10.5 -56h42v-106zM148 471h-84v107q0 47 23 86t66 50v-43q-24 -9 -36.5 -38t-10.5 -56h42v-106z" />
    <glyph glyph-name="quotedblright" unicode="&#x201d;" horiz-adv-x="370" 
d="M222 714h84v-107q0 -47 -23 -86t-66 -50v43q24 7 37 37.5t10 56.5h-42v106zM68 714h84v-107q0 -47 -23 -86t-66 -50v43q24 7 37 37.5t10 56.5h-42v106z" />
    <glyph glyph-name="quotedblbase" unicode="&#x201e;" horiz-adv-x="370" 
d="M222 106h84v-107q0 -47 -23 -86t-66 -50v43q24 7 37 37.5t10 56.5h-42v106zM68 106h84v-107q0 -47 -23 -86t-66 -50v43q24 7 37 37.5t10 56.5h-42v106z" />
    <glyph glyph-name="dagger" unicode="&#x2020;" 
d="M246 440h-198v53h198v221h63v-221h199v-53h-199v-591h-63v591z" />
    <glyph glyph-name="daggerdbl" unicode="&#x2021;" 
d="M246 47h-198v53h198v363h-198v53h198v198h63v-198h199v-53h-199v-363h199v-53h-199v-198h-63v198z" />
    <glyph glyph-name="bullet" unicode="&#x2022;" horiz-adv-x="500" 
d="M72 357q0 74 52 126t126 52t126.5 -52t52.5 -126t-52.5 -126.5t-126.5 -52.5t-126 52.5t-52 126.5z" />
    <glyph glyph-name="ellipsis" unicode="&#x2026;" horiz-adv-x="1000" 
d="M875 0h-84v106h84v-106zM542 0h-84v106h84v-106zM209 0h-84v106h84v-106z" />
    <glyph glyph-name="perthousand" unicode="&#x2030;" horiz-adv-x="1111" 
d="M129 -34l453 759h47l-452 -759h-48zM214 706q77 0 113 -46t36 -123t-36 -123t-113 -46t-113 46t-36 123t36 123t113 46zM214 661q-96 0 -96 -124t96 -124t96 124t-96 124zM901 323q77 0 113 -46t36 -123t-36 -123t-113 -46t-113 46t-36 123t36 123t113 46zM547 323
q77 0 113 -46t36 -123t-36 -123t-113 -46t-113 46t-36 123t36 123t113 46zM901 278q-96 0 -96 -124t96 -124t96 124t-96 124zM547 278q-96 0 -96 -124t96 -124t96 124t-96 124z" />
    <glyph glyph-name="guilsinglleft" unicode="&#x2039;" horiz-adv-x="259" 
d="M186 119l-133 125v62l133 125v-67l-94 -89l94 -89v-67z" />
    <glyph glyph-name="guilsinglright" unicode="&#x203a;" horiz-adv-x="259" 
d="M73 119v67l94 89l-94 89v67l133 -125v-62z" />
    <glyph glyph-name="interrobang" unicode="&#x203d;" horiz-adv-x="537" 
d="M115 464h-61q0 74 44.5 123t127.5 61v66h68v-63q90 -4 140 -47t50 -117q0 -49 -20.5 -82t-64.5 -72q-66 -57 -79.5 -77.5t-15.5 -76.5h-60l-18 322v93q-55 -11 -83 -46.5t-28 -83.5zM423 486q0 51 -33.5 79.5t-95.5 32.5v-97l-10 -204q22 28 74 71q35 28 50 54.5t15 63.5
zM231 0v106h84v-106h-84z" />
    <glyph glyph-name="fraction" unicode="&#x2044;" horiz-adv-x="167" 
d="M-166 -34l453 759h47l-452 -759h-48z" />
    <glyph glyph-name="zero.superior" unicode="&#x2070;" horiz-adv-x="370" 
d="M186 829q47 0 80.5 -20t49.5 -54.5t22.5 -69.5t6.5 -76q0 -221 -159 -221q-39 0 -68 13.5t-46.5 35t-28.5 51.5t-14.5 58.5t-3.5 61.5q0 41 6.5 76.5t23 70t50 54.5t81.5 20zM186 789q-112 0 -112 -180q0 -181 112 -181q110 0 110 181q0 180 -110 180z" />
    <glyph glyph-name="four.superior" unicode="&#x2074;" horiz-adv-x="370" 
d="M229 397v100h-210v39l213 284h44v-284h68v-39h-68v-100h-47zM229 753l-164 -217h164v217z" />
    <glyph glyph-name="five.superior" unicode="&#x2075;" horiz-adv-x="370" 
d="M310 777h-185l-26 -125q34 30 87 30q71 0 108 -40.5t37 -107.5q0 -61 -42.5 -103.5t-109.5 -42.5t-107.5 36t-41.5 99h47q2 -43 29.5 -69.5t73.5 -26.5q49 0 76.5 30t27.5 81q0 46 -26 76t-74 30q-61 0 -100 -49h-42l45 225h223v-43z" />
    <glyph glyph-name="six.superior" unicode="&#x2076;" horiz-adv-x="370" 
d="M329 720h-49q-10 70 -82 70q-34 0 -57.5 -15.5t-35.5 -43.5t-17.5 -56t-7.5 -64q44 63 119 63q65 0 102.5 -38.5t37.5 -103.5q0 -63 -40 -103.5t-108 -40.5q-158 0 -158 206q0 65 14.5 115t53 85t98.5 35q117 0 130 -109zM89 533q0 -45 26 -75.5t76 -30.5q46 0 73.5 28
t27.5 75q0 46 -26 75.5t-73 29.5q-49 0 -76.5 -29t-27.5 -73z" />
    <glyph glyph-name="seven.superior" unicode="&#x2077;" horiz-adv-x="370" 
d="M43 777v43h288v-41q-163 -159 -175 -382h-54q9 121 51 207t123 173h-233z" />
    <glyph glyph-name="eight.superior" unicode="&#x2078;" horiz-adv-x="370" 
d="M316 719q0 -65 -68 -89q88 -25 88 -112q0 -62 -42.5 -96t-108.5 -34q-70 0 -111 33t-41 97q0 39 22.5 67.5t64.5 41.5q-68 24 -68 92q0 50 36.5 80t95.5 30q58 0 95 -28.5t37 -81.5zM185 645q37 0 60.5 19t23.5 55q0 34 -22 53.5t-62 19.5t-62.5 -18.5t-22.5 -54.5
q0 -37 23.5 -55.5t61.5 -18.5zM185 427q49 0 76.5 23.5t27.5 67.5q0 41 -29 65.5t-75 24.5q-48 0 -76.5 -24t-28.5 -66q0 -43 28.5 -67t76.5 -24z" />
    <glyph glyph-name="nine.superior" unicode="&#x2079;" horiz-adv-x="370" 
d="M40 497h49q10 -70 82 -70q34 0 57.5 15.5t35.5 43.5t17.5 56t7.5 64q-44 -63 -119 -63q-65 0 -102.5 38.5t-37.5 103.5q0 63 40 103.5t108 40.5q158 0 158 -206q0 -65 -14.5 -115t-53 -85t-98.5 -35q-117 0 -130 109zM280 684q0 45 -26 75.5t-76 30.5q-46 0 -73.5 -28
t-27.5 -75q0 -46 26 -75.5t73 -29.5q49 0 76.5 29t27.5 73z" />
    <glyph glyph-name="plus.superior" unicode="&#x207a;" horiz-adv-x="400" 
d="M177 570v132h46v-132h144v-41h-144v-132h-46v132h-144v41h144z" />
    <glyph glyph-name="minus.superior" unicode="&#x207b;" horiz-adv-x="250" 
d="M217 543h-184v41h184v-41z" />
    <glyph glyph-name="equal.superior" unicode="&#x207c;" horiz-adv-x="400" 
d="M364 629v-41h-328v41h328zM364 513v-41h-328v41h328z" />
    <glyph glyph-name="parenleft.superior" unicode="&#x207d;" horiz-adv-x="190" 
d="M46 597q0 137 93 279h42q-84 -141 -84 -279q0 -72 18.5 -134t65.5 -145h-42q-93 135 -93 279z" />
    <glyph glyph-name="parenright.superior" unicode="&#x207e;" horiz-adv-x="190" 
d="M144 597q0 -137 -93 -279h-42q84 141 84 279q0 72 -18.5 134t-65.5 145h42q93 -135 93 -279z" />
    <glyph glyph-name="n.superior" unicode="&#x207f;" horiz-adv-x="370" 
d="M50 397v313h50v-50q34 59 104 59q59 0 87.5 -31t28.5 -83v-208h-51v194q0 89 -75 89q-44 0 -69 -29.5t-25 -71.5v-182h-50z" />
    <glyph glyph-name="zero.inferior" unicode="&#x2080;" horiz-adv-x="370" 
d="M186 263q47 0 80.5 -20t49.5 -54.5t22.5 -69.5t6.5 -76q0 -221 -159 -221q-39 0 -68 13.5t-46.5 35t-28.5 51.5t-14.5 58.5t-3.5 61.5q0 41 6.5 76.5t23 70t50 54.5t81.5 20zM186 223q-112 0 -112 -180q0 -181 112 -181q110 0 110 181q0 180 -110 180z" />
    <glyph glyph-name="one.inferior" unicode="&#x2081;" horiz-adv-x="370" 
d="M67 143v35l34 2q51 3 67 16.5t23 57.5h39v-423h-47v312h-116z" />
    <glyph glyph-name="two.inferior" unicode="&#x2082;" horiz-adv-x="370" 
d="M95 110h-47q0 73 37 113t106 40q63 0 98 -32t35 -93q0 -80 -89 -138l-55 -35q-76 -48 -87 -95h230v-39h-284q1 57 28.5 93t88.5 75l53 34q68 43 68 109q0 38 -24 59.5t-62 21.5q-49 0 -72.5 -32t-23.5 -81z" />
    <glyph glyph-name="three.inferior" unicode="&#x2083;" horiz-adv-x="370" 
d="M153 35v39h25q36 0 64.5 19t28.5 55q0 38 -22.5 57t-60.5 19q-46 0 -70.5 -28t-24.5 -75h-47q1 64 38.5 103t105.5 39q58 0 93 -29.5t35 -81.5q0 -73 -77 -95q45 -6 69.5 -33.5t24.5 -69.5q0 -62 -43 -97t-108 -35q-69 0 -109 35t-40 98l1 14h47v-6q0 -46 26.5 -74
t73.5 -28q44 0 74.5 24t30.5 66q0 41 -30 62.5t-80 21.5h-25z" />
    <glyph glyph-name="four.inferior" unicode="&#x2084;" horiz-adv-x="370" 
d="M229 -169v100h-210v39l213 284h44v-284h68v-39h-68v-100h-47zM229 187l-164 -217h164v217z" />
    <glyph glyph-name="five.inferior" unicode="&#x2085;" horiz-adv-x="370" 
d="M310 211h-185l-26 -125q34 30 87 30q71 0 108 -40.5t37 -107.5q0 -61 -42.5 -103.5t-109.5 -42.5t-107.5 36t-41.5 99h47q2 -43 29.5 -69.5t73.5 -26.5q49 0 76.5 30t27.5 81q0 46 -26 76t-74 30q-61 0 -100 -49h-42l45 225h223v-43z" />
    <glyph glyph-name="six.inferior" unicode="&#x2086;" horiz-adv-x="370" 
d="M329 154h-49q-10 70 -82 70q-34 0 -57.5 -15.5t-35.5 -43.5t-17.5 -56t-7.5 -64q44 63 119 63q65 0 102.5 -38.5t37.5 -103.5q0 -63 -40 -103.5t-108 -40.5q-158 0 -158 206q0 65 14.5 115t53 85t98.5 35q117 0 130 -109zM89 -33q0 -45 26 -75.5t76 -30.5q46 0 73.5 28
t27.5 75q0 46 -26 75.5t-73 29.5q-49 0 -76.5 -29t-27.5 -73z" />
    <glyph glyph-name="seven.inferior" unicode="&#x2087;" horiz-adv-x="370" 
d="M43 211v43h288v-41q-163 -159 -175 -382h-54q9 121 51 207t123 173h-233z" />
    <glyph glyph-name="eight.inferior" unicode="&#x2088;" horiz-adv-x="370" 
d="M316 153q0 -65 -68 -89q88 -25 88 -112q0 -62 -42.5 -96t-108.5 -34q-70 0 -111 33t-41 97q0 39 22.5 67.5t64.5 41.5q-68 24 -68 92q0 50 36.5 80t95.5 30q58 0 95 -28.5t37 -81.5zM185 79q37 0 60.5 19t23.5 55q0 34 -22 53.5t-62 19.5t-62.5 -18.5t-22.5 -54.5
q0 -37 23.5 -55.5t61.5 -18.5zM185 -139q49 0 76.5 23.5t27.5 67.5q0 41 -29 65.5t-75 24.5q-48 0 -76.5 -24t-28.5 -66q0 -43 28.5 -67t76.5 -24z" />
    <glyph glyph-name="nine.inferior" unicode="&#x2089;" horiz-adv-x="370" 
d="M40 -69h49q10 -70 82 -70q34 0 57.5 15.5t35.5 43.5t17.5 56t7.5 64q-44 -63 -119 -63q-65 0 -102.5 38.5t-37.5 103.5q0 63 40 103.5t108 40.5q158 0 158 -206q0 -65 -14.5 -115t-53 -85t-98.5 -35q-117 0 -130 109zM280 118q0 45 -26 75.5t-76 30.5q-46 0 -73.5 -28
t-27.5 -75q0 -46 26 -75.5t73 -29.5q49 0 76.5 29t27.5 73z" />
    <glyph glyph-name="plus.inferior" unicode="&#x208a;" horiz-adv-x="400" 
d="M177 4v132h46v-132h144v-41h-144v-132h-46v132h-144v41h144z" />
    <glyph glyph-name="minus.inferior" unicode="&#x208b;" horiz-adv-x="250" 
d="M217 -23h-184v41h184v-41z" />
    <glyph glyph-name="equal.inferior" unicode="&#x208c;" horiz-adv-x="400" 
d="M364 63v-41h-328v41h328zM364 -53v-41h-328v41h328z" />
    <glyph glyph-name="parenleft.inferior" unicode="&#x208d;" horiz-adv-x="190" 
d="M46 31q0 137 93 279h42q-84 -141 -84 -279q0 -72 18.5 -134t65.5 -145h-42q-93 135 -93 279z" />
    <glyph glyph-name="parenright.inferior" unicode="&#x208e;" horiz-adv-x="190" 
d="M144 31q0 -137 -93 -279h-42q84 141 84 279q0 72 -18.5 134t-65.5 145h42q93 -135 93 -279z" />
    <glyph glyph-name="Euro" unicode="&#x20ac;" 
d="M557 635l-27 -59q-66 79 -160 79q-92 0 -150 -67q-51 -58 -69 -154h333l-18 -45h-321q-3 -25 -3 -43v-8q0 -5 1 -8h304l-19 -45h-282q13 -104 63 -169q60 -75 158 -75q52 0 96 23q35 20 78 63v-77q-77 -65 -176 -65q-125 0 -202 89q-67 79 -82 211h-66l19 45h44
q-1 3 -1 9v11q0 7 2 39h-64l18 45h51q22 123 92 196q76 82 195 82q124 0 186 -77z" />
    <glyph glyph-name="uni20B7" unicode="&#x20b7;" horiz-adv-x="630" 
d="M0 306v58h72v350h317q97 0 154.5 -54t57.5 -150t-57.5 -150t-154.5 -54h-249v-42h322v-58h-322v-206h-68v206h-72v58h72v42h-72zM140 656v-292h234q74 0 116.5 37t42.5 109t-42.5 109t-116.5 37h-234z" />
    <glyph glyph-name="afii61248" unicode="&#x2105;" horiz-adv-x="834" 
d="M166 -34l453 759h47l-452 -759h-48zM335 568h-48q-7 99 -91 99q-55 0 -83.5 -48t-28.5 -133q0 -86 28.5 -133.5t83.5 -47.5q78 0 92 86h49q-8 -59 -46 -92.5t-95 -33.5q-78 0 -119.5 57.5t-41.5 163.5q0 105 42 162.5t119 57.5q128 0 139 -138zM640 432q47 0 80.5 -20
t49.5 -54.5t22.5 -69.5t6.5 -76q0 -221 -159 -221q-39 0 -68 13.5t-46.5 35t-28.5 51.5t-14.5 58.5t-3.5 61.5q0 41 6.5 76.5t23 70t50 54.5t81.5 20zM640 392q-112 0 -112 -180q0 -181 112 -181q110 0 110 181q0 180 -110 180z" />
    <glyph glyph-name="afii61289" unicode="&#x2113;" horiz-adv-x="500" 
d="M406 38q-53 -52 -120 -52q-53 0 -86 31t-33 93v130l-59 -64h-2l-21 27l82 84v264q0 80 33.5 125t84.5 45q44 0 71.5 -33t27.5 -90q0 -141 -166 -321v-159q0 -50 23 -71t55 -21q46 0 88 39h2zM341 593q0 40 -16.5 65.5t-40.5 25.5q-28 0 -47 -32t-19 -94v-233
q123 145 123 268z" />
    <glyph glyph-name="afii61352" unicode="&#x2116;" horiz-adv-x="969" 
d="M594 0h-76l-376 581h-2v-581h-68v691h76l376 -581h2v581h68v-691zM794 132q-66 0 -103.5 39.5t-37.5 105.5q0 65 38 105t103 40q66 0 103.5 -39.5t37.5 -105.5q0 -65 -38 -105t-103 -40zM794 178q40 0 63.5 26t23.5 73q0 46 -24.5 72.5t-62.5 26.5q-40 0 -63.5 -26
t-23.5 -73q0 -46 24.5 -72.5t62.5 -26.5zM935 0h-280v53h280v-53z" />
    <glyph glyph-name="published" unicode="&#x2117;" horiz-adv-x="800" 
d="M400 729q158 0 265 -107.5t107 -264.5t-107 -264.5t-265 -107.5t-265 107.5t-107 264.5t107 264.5t265 107.5zM400 676q-135 0 -224.5 -92t-89.5 -227t89.5 -227t224.5 -92q134 0 224 92.5t90 226.5t-90 226.5t-224 92.5zM580 446q0 -59 -38 -92.5t-106 -33.5h-111v-178
h-53v430h162q146 0 146 -126zM527 446q0 81 -97 81h-105v-162h105q97 0 97 81z" />
    <glyph glyph-name="trademark" unicode="&#x2122;" horiz-adv-x="990" 
d="M529 302h-53v412h85l133 -334l129 334h85v-412h-53v364h-2l-146 -364h-30l-146 364h-2v-364zM269 302h-53v367h-134v45h321v-45h-134v-367z" />
    <glyph glyph-name="Omega" unicode="&#x2126;" horiz-adv-x="759" 
d="M725 58v-58h-264v60q93 66 138.5 146t45.5 186q0 118 -72 198.5t-192 80.5q-121 0 -195 -75.5t-74 -202.5q0 -203 188 -333v-60h-266v58h178v4q-83 58 -126 143.5t-43 186.5q0 146 95 241.5t243 95.5t240.5 -101.5t92.5 -235.5q0 -210 -171 -330v-4h182z" />
    <glyph glyph-name="estimated" unicode="&#x212e;" horiz-adv-x="760" 
d="M719 345h-527v-236q77 -77 189 -77q82 0 143 37.5t109 119.5l46 -28q-61 -94 -129 -135t-169 -41q-151 0 -244 103t-93 257q0 155 93 258t244 103q150 0 243.5 -100.5t94.5 -260.5zM192 393h380v189q-82 78 -192 78t-188 -78v-189z" />
    <glyph glyph-name="onethird" unicode="&#x2153;" horiz-adv-x="834" 
d="M117 -34l453 759h47l-452 -759h-48zM53 586v35l34 2q51 3 67 16.5t23 57.5h39v-423h-47v312h-116zM589 204v39h25q36 0 64.5 19t28.5 55q0 38 -22.5 57t-60.5 19q-46 0 -70.5 -28t-24.5 -75h-47q1 64 38.5 103t105.5 39q58 0 93 -29.5t35 -81.5q0 -73 -77 -95
q45 -6 69.5 -33.5t24.5 -69.5q0 -62 -43 -97t-108 -35q-69 0 -109 35t-40 98l1 14h47v-6q0 -46 26.5 -74t73.5 -28q44 0 74.5 24t30.5 66q0 41 -30 62.5t-80 21.5h-25z" />
    <glyph glyph-name="twothirds" unicode="&#x2154;" horiz-adv-x="834" 
d="M176 -34l453 759h47l-452 -759h-48zM98 553h-47q0 73 37 113t106 40q63 0 98 -32t35 -93q0 -80 -89 -138l-55 -35q-76 -48 -87 -95h230v-39h-284q1 57 28.5 93t88.5 75l53 34q68 43 68 109q0 38 -24 59.5t-62 21.5q-49 0 -72.5 -32t-23.5 -81zM615 204v39h25
q36 0 64.5 19t28.5 55q0 38 -22.5 57t-60.5 19q-46 0 -70.5 -28t-24.5 -75h-47q1 64 38.5 103t105.5 39q58 0 93 -29.5t35 -81.5q0 -73 -77 -95q45 -6 69.5 -33.5t24.5 -69.5q0 -62 -43 -97t-108 -35q-69 0 -109 35t-40 98l1 14h47v-6q0 -46 26.5 -74t73.5 -28q44 0 74.5 24
t30.5 66q0 41 -30 62.5t-80 21.5h-25z" />
    <glyph glyph-name="oneeighth" unicode="&#x215b;" horiz-adv-x="834" 
d="M117 -34l453 759h47l-452 -759h-48zM53 586v35l34 2q51 3 67 16.5t23 57.5h39v-423h-47v312h-116zM753 322q0 -65 -68 -89q88 -25 88 -112q0 -62 -42.5 -96t-108.5 -34q-70 0 -111 33t-41 97q0 39 22.5 67.5t64.5 41.5q-68 24 -68 92q0 50 36.5 80t95.5 30q58 0 95 -28.5
t37 -81.5zM622 248q37 0 60.5 19t23.5 55q0 34 -22 53.5t-62 19.5t-62.5 -18.5t-22.5 -54.5q0 -37 23.5 -55.5t61.5 -18.5zM622 30q49 0 76.5 23.5t27.5 67.5q0 41 -29 65.5t-75 24.5q-48 0 -76.5 -24t-28.5 -66q0 -43 28.5 -67t76.5 -24z" />
    <glyph glyph-name="threeeighths" unicode="&#x215c;" horiz-adv-x="834" 
d="M174 -34l453 759h47l-452 -759h-48zM175 478v39h25q36 0 64.5 19t28.5 55q0 38 -22.5 57t-60.5 19q-46 0 -70.5 -28t-24.5 -75h-47q1 64 38.5 103t105.5 39q58 0 93 -29.5t35 -81.5q0 -73 -77 -95q45 -6 69.5 -33.5t24.5 -69.5q0 -62 -43 -97t-108 -35q-69 0 -109 35
t-40 98l1 14h47v-6q0 -46 26.5 -74t73.5 -28q44 0 74.5 24t30.5 66q0 41 -30 62.5t-80 21.5h-25zM768 322q0 -65 -68 -89q88 -25 88 -112q0 -62 -42.5 -96t-108.5 -34q-70 0 -111 33t-41 97q0 39 22.5 67.5t64.5 41.5q-68 24 -68 92q0 50 36.5 80t95.5 30q58 0 95 -28.5
t37 -81.5zM637 248q37 0 60.5 19t23.5 55q0 34 -22 53.5t-62 19.5t-62.5 -18.5t-22.5 -54.5q0 -37 23.5 -55.5t61.5 -18.5zM637 30q49 0 76.5 23.5t27.5 67.5q0 41 -29 65.5t-75 24.5q-48 0 -76.5 -24t-28.5 -66q0 -43 28.5 -67t76.5 -24z" />
    <glyph glyph-name="fiveeighths" unicode="&#x215d;" horiz-adv-x="834" 
d="M174 -34l453 759h47l-452 -759h-48zM338 654h-185l-26 -125q34 30 87 30q71 0 108 -40.5t37 -107.5q0 -61 -42.5 -103.5t-109.5 -42.5t-107.5 36t-41.5 99h47q2 -43 29.5 -69.5t73.5 -26.5q49 0 76.5 30t27.5 81q0 46 -26 76t-74 30q-61 0 -100 -49h-42l45 225h223v-43z
M768 322q0 -65 -68 -89q88 -25 88 -112q0 -62 -42.5 -96t-108.5 -34q-70 0 -111 33t-41 97q0 39 22.5 67.5t64.5 41.5q-68 24 -68 92q0 50 36.5 80t95.5 30q58 0 95 -28.5t37 -81.5zM637 248q37 0 60.5 19t23.5 55q0 34 -22 53.5t-62 19.5t-62.5 -18.5t-22.5 -54.5
q0 -37 23.5 -55.5t61.5 -18.5zM637 30q49 0 76.5 23.5t27.5 67.5q0 41 -29 65.5t-75 24.5q-48 0 -76.5 -24t-28.5 -66q0 -43 28.5 -67t76.5 -24z" />
    <glyph glyph-name="seveneighths" unicode="&#x215e;" horiz-adv-x="834" 
d="M124 -34l453 759h47l-452 -759h-48zM102 654v43h288v-41q-163 -159 -175 -382h-54q9 121 51 207t123 173h-233zM753 322q0 -65 -68 -89q88 -25 88 -112q0 -62 -42.5 -96t-108.5 -34q-70 0 -111 33t-41 97q0 39 22.5 67.5t64.5 41.5q-68 24 -68 92q0 50 36.5 80t95.5 30
q58 0 95 -28.5t37 -81.5zM622 248q37 0 60.5 19t23.5 55q0 34 -22 53.5t-62 19.5t-62.5 -18.5t-22.5 -54.5q0 -37 23.5 -55.5t61.5 -18.5zM622 30q49 0 76.5 23.5t27.5 67.5q0 41 -29 65.5t-75 24.5q-48 0 -76.5 -24t-28.5 -66q0 -43 28.5 -67t76.5 -24z" />
    <glyph glyph-name="partialdiff" unicode="&#x2202;" horiz-adv-x="511" 
d="M469 362q0 -52 -5 -98.5t-20 -99t-39.5 -89.5t-67.5 -62t-100 -25q-92 0 -148 66t-56 159q0 91 54.5 152.5t144.5 61.5q96 0 161 -76l1 45q0 44 -9 87t-27.5 83.5t-54 66t-82.5 25.5q-53 0 -114 -47l-42 50q68 60 153 60q57 0 101.5 -22t72 -57.5t45.5 -84t25 -96.5
t7 -99zM389 280q-63 85 -148 85q-63 0 -98.5 -45.5t-35.5 -109.5t35 -113t97 -49q52 0 87.5 41t49 91t13.5 100z" />
    <glyph glyph-name="Delta" unicode="&#x2206;" horiz-adv-x="630" 
d="M-7 0l288 714h76l280 -714h-644zM316 646l-228 -588h453z" />
    <glyph glyph-name="product" unicode="&#x220f;" horiz-adv-x="719" 
d="M650 -214h-78v928h-426v-928h-78v1000h582v-1000z" />
    <glyph glyph-name="summation" unicode="&#x2211;" horiz-adv-x="615" 
d="M589 -214h-564v64l322 440l-308 432v64h538v-72h-437l301 -424l-319 -432h467v-72z" />
    <glyph glyph-name="minus" unicode="&#x2212;" horiz-adv-x="600" 
d="M552 278v-53h-503v53h503z" />
    <glyph glyph-name="uni2215" unicode="&#x2215;" horiz-adv-x="167" 
d="M-166 -34l453 759h47l-452 -759h-48z" />
    <glyph glyph-name="uni2219" unicode="&#x2219;" horiz-adv-x="278" 
d="M139 375q24 0 41.5 -18t17.5 -42q0 -23 -18 -40.5t-41 -17.5q-24 0 -41.5 18t-17.5 42q0 23 18 40.5t41 17.5z" />
    <glyph glyph-name="radical" unicode="&#x221a;" horiz-adv-x="504" 
d="M514 786l-211 -1000h-75l-162 334l-47 -22l-28 60l112 52l151 -317l184 893h76z" />
    <glyph glyph-name="infinity" unicode="&#x221e;" horiz-adv-x="759" 
d="M717 255q0 -68 -40 -112.5t-107 -44.5q-87 0 -190 109q-3 -3 -23.5 -21.5t-26 -23l-23 -18.5t-28 -19l-26.5 -13t-31.5 -10.5t-32.5 -2.5q-66 0 -106.5 43t-40.5 110q0 66 39.5 111t105.5 45q38 0 76.5 -20t58.5 -38t58 -56l17.5 17.5t19 18.5t18 17t20 17.5l19.5 14
t22.5 13.5l22 9t25 7t25.5 2q66 0 107 -44t41 -111zM652 252q0 40 -21.5 65t-60.5 25q-12 0 -23.5 -3t-24 -9.5l-21.5 -11.5t-22.5 -16.5l-19 -16.5l-20 -18.5t-16.5 -15.5q32 -30 46 -42t44.5 -27.5t59.5 -15.5q37 0 58 24.5t21 61.5zM337 251q-29 27 -45 40.5t-48 31.5
t-57 18q-37 0 -58.5 -26t-21.5 -63q0 -39 22 -62.5t61 -23.5q62 0 147 85z" />
    <glyph glyph-name="integral" unicode="&#x222b;" horiz-adv-x="554" 
d="M420 730q0 -17 -12 -27.5t-30 -10.5t-34 21.5t-22 21.5q-8 0 -14.5 -7t-9.5 -18.5t-5 -25t-2 -29v-27t0.5 -22.5t0.5 -12l1 -39v-511q0 -119 -15 -167q-27 -90 -111 -90q-26 0 -47.5 13.5t-21.5 38.5q0 14 11.5 25t25.5 11q18 0 32.5 -21t19.5 -21q7 0 12.5 7.5t8.5 20.5
t5 27.5t2.5 31.5t0.5 28.5v23.5l-1 12v22v495q0 9 -0.5 39t-0.5 46.5t2 46t6.5 47.5t14 40.5t23 35t34 21.5t47.5 9q31 0 55 -14t24 -42z" />
    <glyph glyph-name="approxequal" unicode="&#x2248;" horiz-adv-x="600" 
d="M162 360q-30 0 -50 -21.5t-26 -53.5h-51q7 53 38.5 90.5t90.5 37.5q46 0 141 -35.5t133 -35.5q30 0 50 21.5t26 53.5h51q-7 -53 -38.5 -90.5t-90.5 -37.5q-46 0 -141 35.5t-133 35.5zM162 163q-30 0 -50 -21.5t-26 -53.5h-51q7 53 38.5 90.5t90.5 37.5q46 0 141 -35.5
t133 -35.5q30 0 50 21.5t26 53.5h51q-7 -53 -38.5 -90.5t-90.5 -37.5q-46 0 -141 35.5t-133 35.5z" />
    <glyph glyph-name="notequal" unicode="&#x2260;" horiz-adv-x="600" 
d="M552 181v-53h-292l-90 -156l-46 25l75 131h-150v53h181l83 144h-264v53h295l87 150l46 -25l-72 -125h147v-53h-178l-83 -144h261z" />
    <glyph glyph-name="lessequal" unicode="&#x2264;" horiz-adv-x="600" 
d="M551 141v-55l-503 194v54l503 194v-55l-443 -166zM48 0v53h503v-53h-503z" />
    <glyph glyph-name="greaterequal" unicode="&#x2265;" horiz-adv-x="600" 
d="M49 86v55l443 166l-443 166v55l503 -194v-54zM552 53v-53h-503v53h503z" />
    <glyph glyph-name="lozenge" unicode="&#x25ca;" horiz-adv-x="593" 
d="M504 356l-172 -391h-72l-171 391l171 391h72zM428 356l-132 315l-131 -315l131 -315z" />
    <glyph glyph-name="grave.cap" unicode="&#xe000;" horiz-adv-x="185" 
d="M101 779l-132 141h78l105 -141h-51z" />
    <glyph glyph-name="acute.cap" unicode="&#xe002;" horiz-adv-x="185" 
d="M216 920l-132 -141h-51l105 141h78z" />
    <glyph glyph-name="circumflex.cap" unicode="&#xe004;" horiz-adv-x="185" 
d="M130 920l114 -141h-65l-86 102l-88 -102h-58l114 141h69z" />
    <glyph glyph-name="caron.cap" unicode="&#xe006;" horiz-adv-x="185" 
d="M54 779l-114 141h65l86 -102l88 102h58l-114 -141h-69z" />
    <glyph glyph-name="caron.alt" unicode="&#xe008;" horiz-adv-x="185" 
d="M221 714l-86 -141h-47l55 141h78z" />
    <glyph glyph-name="tilde.cap" unicode="&#xe009;" horiz-adv-x="185" 
d="M211 900h38q-7 -39 -28.5 -67t-58.5 -28q-30 0 -75 23t-63 23q-38 0 -50 -51h-39q4 38 28 67t61 29q31 0 75 -22t60 -22q38 0 52 48z" />
    <glyph glyph-name="dieresis.cap" unicode="&#xe00b;" horiz-adv-x="185" 
d="M215 800h-68v101h68v-101zM38 800h-68v101h68v-101z" />
    <glyph glyph-name="macron.cap" unicode="&#xe00d;" horiz-adv-x="185" 
d="M257 828h-329v45h329v-45z" />
    <glyph glyph-name="breve.cap" unicode="&#xe00f;" horiz-adv-x="185" 
d="M-51 914h39q2 -38 32.5 -60t70.5 -22t70 22t36 60h39q-8 -59 -46.5 -93t-98.5 -34q-61 0 -99 33.5t-43 93.5z" />
    <glyph glyph-name="ring.cap" unicode="&#xe011;" horiz-adv-x="185" 
d="M-14 860q0 44 31.5 75.5t75.5 31.5t75.5 -31.5t31.5 -75.5t-31.5 -75.5t-75.5 -31.5t-75.5 31.5t-31.5 75.5zM25 860q0 -29 19.5 -48.5t48.5 -19.5t48.5 19.5t19.5 48.5t-19.5 48.5t-48.5 19.5t-48.5 -19.5t-19.5 -48.5z" />
    <glyph glyph-name="hungarumlaut.cap" unicode="&#xe013;" horiz-adv-x="185" 
d="M174 779h-51l101 141h76zM18 779h-51l101 141h76z" />
    <glyph glyph-name="dotaccent.cap" unicode="&#xe015;" horiz-adv-x="185" 
d="M127 800h-68v101h68v-101z" />
    <glyph glyph-name="commaaccent" unicode="&#xe017;" horiz-adv-x="278" 
d="M97 -50h86v-80q0 -69 -86 -73v28q36 7 39 34h-39v91z" />
    <glyph glyph-name="commaaccent.alt" unicode="&#xe01a;" horiz-adv-x="278" 
d="M180 623h-86v80q0 69 86 73v-28q-36 -7 -39 -34h39v-91z" />
    <glyph glyph-name="tonos.cap" unicode="&#xe01b;" horiz-adv-x="241" 
d="M81 572l57 141h77l-83 -141h-51z" />
    <glyph glyph-name="f_i" unicode="&#xf001;" horiz-adv-x="444" 
d="M320 613v101h63v-101h-63zM94 0v463h-88v53h88v47q0 74 27 112.5t98 38.5q26 0 53 -4v-54q-28 5 -46 5q-20 0 -33.5 -5.5t-20.5 -13t-10.5 -23t-4 -26t-0.5 -32.5v-45h102v-53h-102v-463h-63zM320 0v516h63v-516h-63z" />
    <glyph glyph-name="f_l" unicode="&#xf002;" horiz-adv-x="444" 
d="M320 0v714h63v-714h-63zM94 0v463h-88v53h88v47q0 74 27 112.5t98 38.5q26 0 53 -4v-54q-28 5 -46 5q-20 0 -33.5 -5.5t-20.5 -13t-10.5 -23t-4 -26t-0.5 -32.5v-45h102v-53h-102v-463h-63z" />
    <glyph glyph-name="uniF8FF" unicode="&#xf8ff;" horiz-adv-x="512" 
d="M0 718h512v-718h-512v718zM50 50h412v617h-412v-617zM271 234h-46l-2 17q0 56 13 81q15 28 46 59q31 29 40.5 46t9.5 37q0 36 -22.5 60.5t-53.5 24.5q-71 0 -82 -95l-50 8q7 69 43 103t92 34q54 0 89 -36t35 -95q0 -34 -13 -60t-50 -60q-37 -33 -43 -52q-6 -20 -6 -72z
M278 117h-56v67h56v-67z" />
    </font>
</defs>
</svg>
