<svg xmlns="http://www.w3.org/2000/svg" viewBox="0 0 63.3921 65.3955">
  <title>bell_10</title>
  <g id="Forma_1" data-name="Forma 1" style="isolation: isolate">
    <g>
      <text transform="translate(37.351 20.207) scale(1.0068 1)" style="font-size: 23.773067474365234px;fill: #b9c1cc;font-family: Geometria">10</text>
      <g id="Forma_1-2" data-name="Forma 1">
        <path d="M43.6767,53.6335c-4.0867-3.714-7.8683-8.9558-7.8683-22.0418,0-7.58-5.8658-13.7449-13.0757-13.7449S9.6553,24.0122,9.6553,31.5917c0,13.097-3.78,18.3339-7.8707,22.0461A5.5636,5.5636,0,0,0,0,57.7394a1.5276,1.5276,0,0,0,1.4874,1.5643H15.6032a7.3935,7.3935,0,0,0,7.1286,6.0918A7.3926,7.3926,0,0,0,29.86,59.3037H43.9762a1.5278,1.5278,0,0,0,1.4874-1.5643A5.5348,5.5348,0,0,0,43.6767,53.6335ZM22.7318,62.2681A4.33,4.33,0,0,1,18.69,59.3037h8.084A4.3307,4.3307,0,0,1,22.7318,62.2681ZM3.5607,56.1762A2.3991,2.3991,0,0,1,3.7333,56C9.9694,50.3412,12.63,43.041,12.63,31.5917A10.3815,10.3815,0,0,1,22.7322,20.9742,10.3805,10.3805,0,0,1,32.8331,31.5917c0,11.4389,2.6609,18.7385,8.9,24.4093a2.274,2.274,0,0,1,.173.1752H3.5607Z" style="fill: #b9c1cc;fill-rule: evenodd"/>
      </g>
    </g>
  </g>
</svg>
