<svg xmlns="http://www.w3.org/2000/svg" viewBox="0 0 5.038 5.0419">
  <title>button_animation</title>
  <g id="Forma_1" data-name="Forma 1" style="isolation: isolate">
    <g id="Forma_1-2" data-name="Forma 1">
      <path d="M3.4857,0.34a1.5509,1.5509,0,0,0-.7574.1959A1.5542,1.5542,0,0,0,0,1.54,2.5441,2.5441,0,0,0,.4319,2.8569a1.5243,1.5243,0,0,0,.943.7182v1.291a0.1774,0.1774,0,0,0,.3547,0V3.5751a1.28,1.28,0,0,0,.6481-0.359,1.5091,1.5091,0,0,0,.9305.699v0.951a0.1774,0.1774,0,0,0,.3547,0V3.915a1.5247,1.5247,0,0,0,.9431-0.7182A2.5444,2.5444,0,0,0,5.038,1.88,1.5478,1.5478,0,0,0,3.4857.34ZM1.5522,3.24c-0.6494,0-1.1974-1.0444-1.1974-1.7a1.1975,1.1975,0,0,1,2.3949,0C2.75,2.1957,2.2017,3.24,1.5522,3.24ZM3.4857,3.58a1.1372,1.1372,0,0,1-.8674-0.6447q0.0276-.0382.0543-0.0785A2.5446,2.5446,0,0,0,3.1046,1.54,1.52,1.52,0,0,0,2.9285.8282,1.1987,1.1987,0,0,1,4.6832,1.88C4.6832,2.5356,4.1351,3.58,3.4857,3.58Z" style="fill: #fff;fill-rule: evenodd"/>
    </g>
  </g>
</svg>
