<?xml version="1.0" encoding="utf-8"?>
<!-- Generator: Adobe Illustrator 19.1.1, SVG Export Plug-In . SVG Version: 6.00 Build 0)  -->
<svg version="1.1" id="Capa_1" xmlns="http://www.w3.org/2000/svg" xmlns:xlink="http://www.w3.org/1999/xlink" x="0px" y="0px"
	 viewBox="-41 164.9 512 512" style="enable-background:new -41 164.9 512 512;" xml:space="preserve">
<style type="text/css">
	.st0{fill:#8A8A8A;}
</style>
<path class="st0" d="M429.6,237.6c-26.8-26.8-62.3-41.5-100.2-41.5s-73.5,14.8-100.3,41.6l-14,14l-14.2-14.2
	c-26.8-26.8-62.5-41.7-100.4-41.7c-37.8,0-73.4,14.8-100.1,41.5c-26.8,26.8-41.6,62.4-41.5,100.3c0,37.9,14.9,73.4,41.7,100.2
	l203.8,203.8c2.8,2.8,6.6,4.3,10.3,4.3c3.7,0,7.5-1.4,10.3-4.2l204.3-203.5c26.8-26.8,41.6-62.4,41.6-100.3
	C471.1,300,456.5,264.4,429.6,237.6z"/>
</svg>
