<?xml version="1.0" encoding="utf-8"?>
<!-- Generator: Adobe Illustrator 19.1.1, SVG Export Plug-In . SVG Version: 6.00 Build 0)  -->
<svg version="1.1" id="Capa_1" xmlns="http://www.w3.org/2000/svg" xmlns:xlink="http://www.w3.org/1999/xlink" x="0px" y="0px"
	 viewBox="-41 164.9 512 512" style="enable-background:new -41 164.9 512 512;" xml:space="preserve">
<style type="text/css">
	.st0{fill:#373737;}
</style>
<g>
	<g>
		<path class="st0" d="M441.4,164.9H-11.4c-15.9,0-28.7,12.9-28.7,28.7s12.9,28.7,28.7,28.7h452.9c15.9,0,28.7-12.9,28.7-28.7
			S457.3,164.9,441.4,164.9z"/>
		<path class="st0" d="M441.4,313.6H-11.4c-15.9,0-28.7,12.9-28.7,28.7S-27.3,371-11.4,371h452.9c15.9,0,28.7-12.9,28.7-28.7
			S457.3,313.6,441.4,313.6z"/>
		<path class="st0" d="M441.4,462.3H-11.4c-15.9,0-28.7,12.9-28.7,28.7c0,15.9,12.9,28.7,28.7,28.7h452.9
			c15.9,0,28.7-12.9,28.7-28.7C470.2,475.2,457.3,462.3,441.4,462.3z"/>
		<path class="st0" d="M441.4,619.4H-11.4c-15.9,0-28.7,12.9-28.7,28.7s12.9,28.7,28.7,28.7h452.9c15.9,0,28.7-12.9,28.7-28.7
			S457.3,619.4,441.4,619.4z"/>
	</g>
</g>
</svg>
