<?xml version="1.0" encoding="utf-8"?>
<!-- Generator: Adobe Illustrator 19.1.1, SVG Export Plug-In . SVG Version: 6.00 Build 0)  -->
<svg version="1.1" id="Слой_1" xmlns="http://www.w3.org/2000/svg" xmlns:xlink="http://www.w3.org/1999/xlink" x="0px" y="0px"
	 viewBox="-271 395.5 51.4 51.4" style="enable-background:new -271 395.5 51.4 51.4;" xml:space="preserve">
<style type="text/css">
	.st0{fill:#474747;}
</style>
<title>icon_preferences</title>
<g id="Shape_1">
	<g id="Shape_1-2">
		<path class="st0" d="M-243.8,420.6V397c0-0.8-0.7-1.5-1.5-1.4c-0.8,0-1.4,0.7-1.4,1.4v23.6c-4,0.7-6.6,4.5-5.9,8.4
			c0.5,3,2.9,5.4,5.9,5.9v10.5c0,0.8,0.7,1.5,1.5,1.4c0.8,0,1.4-0.7,1.4-1.4v-10.5c4-0.7,6.6-4.5,5.9-8.4
			C-238.4,423.5-240.7,421.1-243.8,420.6z M-262,408.5V397c0-0.8-0.7-1.5-1.5-1.4c-0.8,0-1.4,0.7-1.4,1.4v11.5
			c-4,0.7-6.6,4.5-5.9,8.4c0.5,3,2.9,5.4,5.9,5.9v22.6c0,0.8,0.7,1.5,1.5,1.4c0.8,0,1.4-0.7,1.4-1.4v-22.6c4-0.7,6.6-4.4,5.9-8.4
			C-256.5,411.4-258.9,409-262,408.5z M-225.7,408.5V397c0-0.8-0.7-1.5-1.5-1.4c-0.8,0-1.4,0.7-1.4,1.4v11.5c-4,0.7-6.6,4.5-5.9,8.4
			c0.5,3,2.9,5.4,5.9,5.9v22.6c0,0.8,0.7,1.5,1.5,1.4c0.8,0,1.4-0.7,1.4-1.4v-22.6c4-0.7,6.6-4.4,5.9-8.4
			C-220.3,411.4-222.7,409-225.7,408.5z"/>
	</g>
</g>
</svg>
