<svg xmlns="http://www.w3.org/2000/svg" viewBox="0 0 51.3601 51.3602">
  <title>icon_preferences</title>
  <g id="Shape_1" data-name="Shape 1" style="isolation: isolate">
    <g id="Shape_1-2" data-name="Shape 1">
      <path d="M27.221,25.0341V1.4441a1.4867,1.4867,0,0,0-2.9721,0v23.59a7.2909,7.2909,0,0,0,0,14.37V49.9067a1.4867,1.4867,0,0,0,2.9721,0V39.4046A7.2909,7.2909,0,0,0,27.221,25.0341ZM25.7351,36.6573a4.44,4.44,0,1,1,4.5678-4.4384A4.5076,4.5076,0,0,1,25.7351,36.6573ZM9.0261,12.9283V1.4441a1.4867,1.4867,0,0,0-2.9721,0V12.9283a7.2921,7.2921,0,0,0,0,14.3724v22.606a1.4867,1.4867,0,0,0,2.9721,0V27.2894A7.2854,7.2854,0,0,0,9.0261,12.9283ZM7.54,24.5524a4.44,4.44,0,1,1,0-8.8759A4.44,4.44,0,1,1,7.54,24.5524ZM45.3061,12.9283V1.4441a1.4867,1.4867,0,0,0-2.9721,0V12.9283a7.2921,7.2921,0,0,0,0,14.3724V49.9161a1.4867,1.4867,0,0,0,2.9721,0V27.2894A7.2854,7.2854,0,0,0,45.3061,12.9283ZM43.82,24.5524A4.44,4.44,0,1,1,48.388,20.115,4.5074,4.5074,0,0,1,43.82,24.5524Z" style="fill: #474747;fill-rule: evenodd"/>
    </g>
  </g>
</svg>
