<svg xmlns="http://www.w3.org/2000/svg" viewBox="0 0 39.9999 39.9999">
  <title>icon_dialog</title>
  <g id="Shape_1" data-name="Shape 1" style="isolation: isolate">
    <g>
      <g id="Эллипс_1-2" data-name="Эллипс 1">
        <path d="M20,2A18,18,0,1,1,2,20,18.02,18.02,0,0,1,20,2m0-2A20,20,0,1,0,40,20,20,20,0,0,0,20,0h0Z" style="fill: #193256"/>
      </g>
      <g id="Shape_1-2" data-name="Shape 1">
        <path d="M27.8432,22.4976V12.83A2.4016,2.4016,0,0,0,25.48,10.4H9.5634A2.4015,2.4015,0,0,0,7.2,12.83v9.6677a2.4017,2.4017,0,0,0,2.3633,2.43h0.6744v2.9144a0.9608,0.9608,0,0,0,.9517.9731,0.9437,0.9437,0,0,0,.7164-0.3389l2.9856-3.554H25.485A2.3927,2.3927,0,0,0,27.8432,22.4976Zm-13.25,1.1133a0.6351,0.6351,0,0,0-.4863.2257l-2.5934,3.0808V24.2664a0.6517,0.6517,0,0,0-.6431-0.6611H9.5634a1.1,1.1,0,0,1-1.0823-1.1129V12.83A1.1,1.1,0,0,1,9.5634,11.717H25.48A1.1,1.1,0,0,1,26.5621,12.83v9.6677A1.1,1.1,0,0,1,25.48,23.6109H14.5935Zm15.8431-9.2324a0.6588,0.6588,0,0,0,0,1.3173,1.1,1.1,0,0,1,1.0825,1.1129v9.668A1.1,1.1,0,0,1,30.4366,27.59H29.1242a0.6519,0.6519,0,0,0-.6432.6613v2.6508L25.8875,27.821a0.626,0.626,0,0,0-.4863-0.2258H15.78a0.6615,0.6615,0,0,0,0,1.3224h9.3281l2.9908,3.5435a0.91,0.91,0,0,0,1.0458.2741,0.9636,0.9636,0,0,0,.617-0.9139V28.9067h0.6744a2.4015,2.4015,0,0,0,2.3634-2.43v-9.668A2.402,2.402,0,0,0,30.4366,14.3786ZM17.5215,17.11a0.7853,0.7853,0,1,0,.7634.785A0.7742,0.7742,0,0,0,17.5215,17.11Zm2.5569,0a0.7853,0.7853,0,1,0,.7634.785A0.7742,0.7742,0,0,0,20.0785,17.11Zm-5.1137,0a0.7853,0.7853,0,1,0,.7634.785A0.7741,0.7741,0,0,0,14.9648,17.11Z" style="fill: #193256;fill-rule: evenodd"/>
      </g>
    </g>
  </g>
</svg>
