<svg xmlns="http://www.w3.org/2000/svg" viewBox="0 0 39.9999 40">
  <title>icon_man</title>
  <g id="Forma_1" data-name="Forma 1" style="isolation: isolate">
    <g>
      <g id="Эллипс_7-2" data-name="Эллипс 7">
        <path d="M20,2A18,18,0,1,1,2,20,18.02,18.02,0,0,1,20,2m0-2A20,20,0,1,0,40,20,20,20,0,0,0,20,0h0Z" style="fill: #193256"/>
      </g>
      <g id="Forma_1-2" data-name="Forma 1">
        <path d="M22.9656,21.67a6.08,6.08,0,0,0,2.9262-5.2366,6.1606,6.1606,0,0,0-12.3212,0A6.08,6.08,0,0,0,16.4969,21.67,9.5242,9.5242,0,0,0,10.49,28.7549h1.54a7.8932,7.8932,0,0,1,15.4015,0h1.54A9.2743,9.2743,0,0,0,22.9656,21.67Zm-7.8548-5.2366a4.62,4.62,0,1,1,4.62,4.62A4.6343,4.6343,0,0,1,15.1108,16.4336Z" style="fill: #193256;fill-rule: evenodd"/>
      </g>
    </g>
  </g>
</svg>
