<svg xmlns="http://www.w3.org/2000/svg" viewBox="0 0 39.9999 39.9999">
  <title>icon_widgets</title>
  <g id="Forma_1" data-name="Forma 1" style="isolation: isolate">
    <g>
      <g id="Эллипс_3-2" data-name="Эллипс 3">
        <path d="M20,2A18,18,0,1,1,2,20,18.02,18.02,0,0,1,20,2m0-2A20,20,0,1,0,40,20,20,20,0,0,0,20,0h0Z" style="fill: #193256"/>
      </g>
      <g id="Forma_1-2" data-name="Forma 1">
        <path d="M20.4438,17.4128a2.2049,2.2049,0,1,0-2.1761-2.2049A2.1932,2.1932,0,0,0,20.4438,17.4128Zm-5.2711,0a2.2049,2.2049,0,1,0-2.1761-2.2049A2.193,2.193,0,0,0,15.1727,17.4128Zm10.6544,0a2.2049,2.2049,0,1,0-2.1761-2.2049A2.1932,2.1932,0,0,0,25.8271,17.4128Zm-5.383.8907a2.2051,2.2051,0,1,0,2.1762,2.205A2.1933,2.1933,0,0,0,20.4441,18.3034Zm-5.2711,0a2.2051,2.2051,0,1,0,2.1762,2.205A2.1932,2.1932,0,0,0,15.173,18.3034Zm10.6541,0a2.2051,2.2051,0,1,0,2.1762,2.205A2.1935,2.1935,0,0,0,25.8271,18.3034Zm-5.383,5.2839A2.2049,2.2049,0,1,0,22.62,25.7918,2.1929,2.1929,0,0,0,20.4441,23.5874Zm-5.2711,0a2.2049,2.2049,0,1,0,2.1762,2.2044A2.1929,2.1929,0,0,0,15.173,23.5874Zm10.6541,0a2.2049,2.2049,0,1,0,2.1762,2.2044A2.1932,2.1932,0,0,0,25.8271,23.5874Z" style="fill: #193256;fill-rule: evenodd"/>
      </g>
    </g>
  </g>
</svg>
