<svg xmlns="http://www.w3.org/2000/svg" viewBox="0 0 39.9999 39.9999">
  <title>icon_birthday</title>
  <g id="Forma_1" data-name="Forma 1" style="isolation: isolate">
    <g>
      <g id="Эллипс_1-2" data-name="Эллипс 1">
        <path d="M20,2A18,18,0,1,1,2,20,18.02,18.02,0,0,1,20,2m0-2A20,20,0,1,0,40,20,20,20,0,0,0,20,0h0Z" style="fill: #193256"/>
      </g>
      <g id="Forma_1-2" data-name="Forma 1">
        <path d="M27.2777,16.2843H25.3952a2.2977,2.2977,0,0,0,1.1113-1.9255,2.5021,2.5021,0,0,0-2.62-2.358c-1.2256,0-2.6769,2.1307-3.487,3.5084-0.81-1.3777-2.2618-3.5084-3.4872-3.5084a2.5023,2.5023,0,0,0-2.62,2.358,2.2972,2.2972,0,0,0,1.1113,1.9255H13.522a1.534,1.534,0,0,0-1.5213,1.5431v2.4463a1.5453,1.5453,0,0,0,.8492,1.3821V27.255a1.5339,1.5339,0,0,0,1.5208,1.5433h12.17a1.5341,1.5341,0,0,0,1.5213-1.5433V21.5936a1.5463,1.5463,0,0,0,.7365-1.32V17.8274A1.5336,1.5336,0,0,0,27.2777,16.2843ZM16.8933,13.4052a5.794,5.794,0,0,1,1.7308,1.9063H16.9125a1.1362,1.1362,0,0,1-1.2338-.9521A1.1318,1.1318,0,0,1,16.8933,13.4052ZM13.522,20.4106a0.1359,0.1359,0,0,1-.1353-0.1367V17.8274A0.1362,0.1362,0,0,1,13.522,17.69h6.1845v2.72H13.522v0Zm6.1848,6.9819H14.3707a0.1362,0.1362,0,0,1-.1348-0.1372V21.8167h5.4709v5.5757Zm4.18-13.9855a1.1364,1.1364,0,0,1,1.2338.9518,1.1362,1.1362,0,0,1-1.2338.9524H22.1749A5.9437,5.9437,0,0,1,23.8866,13.407Zm2.79,13.8483a0.1366,0.1366,0,0,1-.1354.1372H21.0927V21.8167h5.584v5.4385Zm0.7363-6.9816a0.1359,0.1359,0,0,1-.1353.1367h-6.185V17.69h6.185a0.1362,0.1362,0,0,1,.1353.1372v2.4463Z" style="fill: #193256;fill-rule: evenodd"/>
      </g>
    </g>
  </g>
</svg>
