<svg xmlns="http://www.w3.org/2000/svg" viewBox="0 0 40.0003 40.0003">
  <title>icon_+</title>
  <g id="Фигура_1_копия_3" data-name="Фигура 1 копия 3" style="isolation: isolate">
    <g>
      <g id="Эллипс_2_копия_5-2" data-name="Эллипс 2 копия 5">
        <path d="M20.0094,2A18,18,0,0,1,33.05,32.3979a17.882,17.882,0,0,1-12.5887,5.5964C20.3033,37.9983,20.1472,38,19.99,38A18,18,0,0,1,6.95,7.6026,17.8819,17.8819,0,0,1,19.5384,2.006Q19.7747,2,20.0094,2m0-2q-0.26,0-.5219.0067A20,20,0,0,0,19.99,40c0.1743,0,.3475-0.0022.5227-0.0067A20,20,0,0,0,20.0094,0h0Z" style="fill: #878787"/>
      </g>
      <g id="Фигура_1_копия_3-2" data-name="Фигура 1 копия 3">
        <polygon points="27.218 20.615 27.177 19.016 20.779 19.18 20.615 12.782 19.016 12.823 19.18 19.221 12.782 19.385 12.823 20.985 19.221 20.821 19.385 27.218 20.984 27.177 20.82 20.78 27.218 20.615" style="fill: #878787;fill-rule: evenodd"/>
      </g>
    </g>
  </g>
</svg>
