<svg xmlns="http://www.w3.org/2000/svg" viewBox="0 0 9.5988 9.5984">
  <title>icon_info</title>
  <g id="Forma_1" data-name="Forma 1" style="isolation: isolate">
    <g id="Forma_1-2" data-name="Forma 1">
      <path d="M4.7994,0A4.7992,4.7992,0,1,0,9.5988,4.799,4.8047,4.8047,0,0,0,4.7994,0Zm0,9.1672A4.3683,4.3683,0,1,1,9.1682,4.799,4.3733,4.3733,0,0,1,4.7994,9.1672Zm0.1018-5.474a0.2809,0.2809,0,0,0-.2952.2637V6.9337a0.2974,0.2974,0,0,0,.591,0V3.957A0.2812,0.2812,0,0,0,4.9012,3.6932ZM4.92,2.6419a0.3413,0.3413,0,0,0-.3589.32,0.3613,0.3613,0,0,0,.718,0A0.3414,0.3414,0,0,0,4.92,2.6419Z" style="fill: #253558;fill-rule: evenodd"/>
    </g>
  </g>
</svg>
