<svg xmlns="http://www.w3.org/2000/svg" viewBox="0 0 39.9999 39.9999">
  <title>icon_news</title>
  <g id="Forma_1" data-name="Forma 1" style="isolation: isolate">
    <g>
      <g id="Эллипс_8-2" data-name="Эллипс 8">
        <path d="M20,2A18,18,0,1,1,2,20,18.02,18.02,0,0,1,20,2m0-2A20,20,0,1,0,40,20,20,20,0,0,0,20,0h0Z" style="fill: #193256"/>
      </g>
      <g id="Forma_1-2" data-name="Forma 1">
        <path d="M29.2981,15.08H26.842v-3.38A0.7024,0.7024,0,0,0,26.14,11H10.7017a0.7024,0.7024,0,0,0-.7018.699v14.839a0.6606,0.6606,0,0,0,.0117.1513C10.0467,26.8291,10.7835,30,13.45,30H27.4619a0.688,0.688,0,0,0,.3041-0.07A3.968,3.968,0,0,0,30,26.69V15.7791A0.7026,0.7026,0,0,0,29.2981,15.08ZM28.5965,26.69a2.4573,2.4573,0,0,1-1.3217,1.9114H13.45c-1.38,0-1.9415-1.7831-2.0468-2.1561V12.3986H25.4386V25.57a0.7017,0.7017,0,0,0,1.4034,0V16.4785h1.7545V26.69ZM14.21,19.8588h3.2748A0.7024,0.7024,0,0,0,18.187,19.16v-3.73a0.7028,0.7028,0,0,0-.7017-0.7H14.21a0.7029,0.7029,0,0,0-.7018.7v3.73A0.7025,0.7025,0,0,0,14.21,19.8588Zm0.7017-3.73h1.8714V18.46H14.9121V16.1289Zm8.1871,8.8587H13.9765a0.6994,0.6994,0,1,0,0,1.3987h9.1227A0.6994,0.6994,0,1,0,23.0993,24.9876Zm-9.0057-1.9815h8.8888a0.6994,0.6994,0,1,0,0-1.3987H14.0935A0.6994,0.6994,0,1,0,14.0935,23.0061Zm9.0059-8.16h-2.69a0.6995,0.6995,0,1,0,0,1.399h2.69A0.6995,0.6995,0,1,0,23.0994,14.8464Zm0,3.38h-2.69a0.6995,0.6995,0,1,0,0,1.399h2.69A0.6995,0.6995,0,1,0,23.0994,18.2269Z" style="fill: #193256;fill-rule: evenodd"/>
      </g>
    </g>
  </g>
</svg>
