<svg xmlns="http://www.w3.org/2000/svg" viewBox="0 0 9.6 9.6015">
  <title>icon_around</title>
  <g id="Forma_1" data-name="Forma 1" style="isolation: isolate">
    <g id="Forma_1-2" data-name="Forma 1">
      <path d="M2.8837,0.853A4.3716,4.3716,0,0,1,8.0859,1.8721L6.7182,1.6487l-0.0607.41L8.7384,2.3857,8.84,0.2593,8.4327,0.24,8.3661,1.5939A4.7927,4.7927,0,0,0,.1915,6.1268l0.388-.102A4.3684,4.3684,0,0,1,2.8837.853ZM9.4085,3.489l-0.3879.1018A4.3918,4.3918,0,0,1,1.5259,7.7416L2.9013,7.9454l0.0607-.3879L0.8636,7.23,0.7832,9.335l0.388,0.02L1.2378,8.0023A4.7607,4.7607,0,0,0,4.8,9.6015a5.2092,5.2092,0,0,0,2.12-.47A4.7914,4.7914,0,0,0,9.4085,3.489ZM3.066,5.8333V6.9367H6.5321V5.8333A1.2366,1.2366,0,0,0,5.2879,4.5869h-0.98A1.235,1.235,0,0,0,3.066,5.8333Zm0.4075,0.02A0.8413,0.8413,0,0,1,4.31,5.0161H5.29a0.8417,0.8417,0,0,1,.8367.8387V6.5487H3.4735V5.8529ZM5.7993,3.2083A0.9993,0.9993,0,1,0,4.8,4.21,1.0014,1.0014,0,0,0,5.7993,3.2083Zm-1.591,0A0.5917,0.5917,0,1,1,4.8,3.8,0.5912,0.5912,0,0,1,4.2083,3.2083Z" style="fill: #253558;fill-rule: evenodd"/>
    </g>
  </g>
</svg>
