<?xml version="1.0" encoding="utf-8"?>
<!-- Generator: Adobe Illustrator 19.1.1, SVG Export Plug-In . SVG Version: 6.00 Build 0)  -->
<svg version="1.1" id="Слой_1" xmlns="http://www.w3.org/2000/svg" xmlns:xlink="http://www.w3.org/1999/xlink" x="0px" y="0px"
	 viewBox="-277 400.9 40 40" style="enable-background:new -277 400.9 40 40;" xml:space="preserve">
<style type="text/css">
	.st0{fill:#878787;}
	.st1{fill:#FFFFFF;}
</style>
<title>icon_+</title>
<path class="st0" d="M-257,400.9c-0.2,0-0.3,0-0.5,0c-11,0.3-19.8,9.5-19.5,20.5c0.3,10.8,9.1,19.5,20,19.5c0.2,0,0.3,0,0.5,0
	c11-0.3,19.8-9.5,19.5-20.5C-237.3,409.5-246.2,400.9-257,400.9L-257,400.9z"/>
<polygon class="st1" points="-249.8,421.5 -249.8,419.9 -256.2,420.1 -256.4,413.7 -258,413.7 -257.8,420.1 -264.2,420.3 
	-264.2,421.9 -257.8,421.7 -257.6,428.1 -256,428.1 -256.2,421.7 "/>
</svg>
