<?xml version="1.0" encoding="utf-8"?>
<!-- Generator: Adobe Illustrator 19.1.1, SVG Export Plug-In . SVG Version: 6.00 Build 0)  -->
<svg version="1.1" id="Capa_1" xmlns="http://www.w3.org/2000/svg" xmlns:xlink="http://www.w3.org/1999/xlink" x="0px" y="0px"
	 viewBox="-41 164.9 512 512" style="enable-background:new -41 164.9 512 512;" xml:space="preserve">
<style type="text/css">
	.st0{fill:#373737;}
</style>
<g>
	<g id="_x31__29_">
		<g>
			<path class="st0" d="M105.3,457.6H32.1c-40.4,0-73.1,32.7-73.1,73.1v73.1c0,40.4,32.7,73.1,73.1,73.1h73.1
				c40.4,0,73.1-32.7,73.1-73.1v-73.1C178.4,490.3,145.7,457.6,105.3,457.6z M397.9,165h-73.1c-40.4,0-73.1,32.7-73.1,73.1v73.1
				c0,40.4,32.7,73.1,73.1,73.1h73.1c40.4,0,73.1-32.7,73.1-73.1v-73.1C471,197.7,438.3,165,397.9,165z M397.9,457.6h-73.1
				c-40.4,0-73.1,32.7-73.1,73.1v73.1c0,40.4,32.7,73.1,73.1,73.1h73.1c40.4,0,73.1-32.8,73.1-73.1v-73.1
				C471,490.3,438.3,457.6,397.9,457.6z M105.3,165H32.1C-8.3,165-41,197.7-41,238.1v73.1c0,40.4,32.7,73.1,73.1,73.1h73.1
				c40.4,0,73.1-32.7,73.1-73.1v-73.1C178.4,197.7,145.7,165,105.3,165z"/>
		</g>
	</g>
</g>
</svg>
