<svg xmlns="http://www.w3.org/2000/svg" viewBox="0 0 4.5607 4.8">
  <title>search</title>
  <g id="Forma_1" data-name="Forma 1" style="isolation: isolate">
    <g id="Forma_1-2" data-name="Forma 1">
      <path d="M4.5131,4.51L3.1677,3.1335a1.885,1.885,0,0,0,.488-1.2668A1.85,1.85,0,0,0,1.8279,0,1.85,1.85,0,0,0,0,1.8666,1.85,1.85,0,0,0,1.8279,3.733a1.794,1.794,0,0,0,1.0945-.3716L4.2816,4.7494A0.1615,0.1615,0,0,0,4.3973,4.8a0.157,0.157,0,0,0,.1158-0.0507A0.1742,0.1742,0,0,0,4.5131,4.51ZM1.8279,3.3953A1.5146,1.5146,0,0,1,.3309,1.8666,1.5145,1.5145,0,0,1,1.8279.3379a1.5145,1.5145,0,0,1,1.497,1.5287A1.5127,1.5127,0,0,1,1.8279,3.3953Z" transform="translate(0 0)" style="fill: #b9c1cc;fill-rule: evenodd"/>
    </g>
  </g>
</svg>
