<?xml version="1.0" encoding="utf-8"?>
<!-- Generator: Adobe Illustrator 19.1.1, SVG Export Plug-In . SVG Version: 6.00 Build 0)  -->
<svg version="1.1" id="Capa_1" xmlns="http://www.w3.org/2000/svg" xmlns:xlink="http://www.w3.org/1999/xlink" x="0px" y="0px"
	 viewBox="-271 394.9 52 52" style="enable-background:new -271 394.9 52 52;" xml:space="preserve">
<style type="text/css">
	.st0{fill:#FFFFFF;stroke:#FFFFFF;stroke-width:0.5;stroke-miterlimit:10;}
	.st1{fill:none;stroke:#FFFFFF;stroke-width:2;stroke-miterlimit:10;}
</style>
<g>
	<path class="st0" d="M-230.4,416.4h-16.3c-0.4,0-0.6-0.3-0.6-0.6c0-0.4,0.3-0.6,0.6-0.6h16.3c0.4,0,0.6,0.3,0.6,0.6
		C-229.8,416.2-230,416.4-230.4,416.4z"/>
	<path class="st0" d="M-230.4,427.6h-16.3c-0.4,0-0.6-0.3-0.6-0.6c0-0.4,0.3-0.6,0.6-0.6h16.3c0.4,0,0.6,0.3,0.6,0.6
		C-229.8,427.3-230,427.6-230.4,427.6z"/>
	<path class="st0" d="M-250.5,422.9c-0.4-0.2-0.9-0.1-1.1,0.2l-3.4,5.5l-2.5-1.8c-0.4-0.3-0.8-0.2-1.1,0.2c-0.3,0.4-0.2,0.8,0.2,1.1
		l3.2,2.3c0.1,0.1,0.3,0.1,0.5,0.1c0.1,0,0.1,0,0.2,0c0.2,0,0.4-0.2,0.5-0.4l3.9-6.2C-250,423.6-250.1,423.1-250.5,422.9z"/>
	<path class="st0" d="M-250.5,411.7c-0.4-0.2-0.9-0.1-1.1,0.2l-3.4,5.5l-2.5-1.8c-0.4-0.3-0.8-0.2-1.1,0.2c-0.3,0.4-0.2,0.8,0.2,1.1
		l3.2,2.3c0.1,0.1,0.3,0.1,0.5,0.1c0.1,0,0.1,0,0.2,0c0.2,0,0.4-0.2,0.5-0.4l3.9-6.2C-250,412.4-250.1,412-250.5,411.7z"/>
</g>
<circle class="st1" cx="-245" cy="420.9" r="25"/>
</svg>
