<?xml version="1.0" encoding="utf-8"?>
<!-- Generator: Adobe Illustrator 19.1.1, SVG Export Plug-In . SVG Version: 6.00 Build 0)  -->
<svg version="1.1" id="Слой_1" xmlns="http://www.w3.org/2000/svg" xmlns:xlink="http://www.w3.org/1999/xlink" x="0px" y="0px"
	 viewBox="-295 419.6 3.5 2.2" style="enable-background:new -295 419.6 3.5 2.2;" xml:space="preserve">
<style type="text/css">
	.st0{fill:#868686;}
</style>
<title>views</title>
<g id="Forma_1_копия_6">
	<g id="Forma_1_копия_6-2">
		<path class="st0" d="M-293.2,420.2c-0.3,0-0.6,0.2-0.6,0.6c0,0.3,0.3,0.6,0.6,0.6c0.3,0,0.6-0.2,0.6-0.6
			C-292.6,420.5-292.9,420.2-293.2,420.2z M-293.2,421.2c-0.2,0-0.4-0.2-0.4-0.4c0-0.2,0.2-0.4,0.4-0.4c0.2,0,0.4,0.2,0.4,0.4
			C-292.8,421-293,421.2-293.2,421.2z M-293.2,419.6c-0.7,0.1-1.4,0.5-1.8,1.1c0.4,0.6,1.1,1,1.8,1.1c0.7-0.1,1.4-0.5,1.8-1.1
			C-291.9,420.2-292.5,419.8-293.2,419.6z M-293.2,421.7c-0.6-0.1-1.2-0.5-1.6-1c0.4-0.5,0.9-0.9,1.6-1c0.6,0.1,1.2,0.5,1.6,1
			C-292,421.3-292.6,421.6-293.2,421.7z"/>
	</g>
</g>
<circle class="st0" cx="-293.2" cy="420.8" r="0.5"/>
</svg>
