<svg xmlns="http://www.w3.org/2000/svg" viewBox="0 0 3.54 2.2401">
  <title>views</title>
  <g id="Forma_1_копия_6" data-name="Forma 1 копия 6" style="isolation: isolate">
    <g id="Forma_1_копия_6-2" data-name="Forma 1 копия 6">
      <path d="M1.77,0.56a0.5756,0.5756,0,0,0-.59.56,0.5756,0.5756,0,0,0,.59.56,0.5756,0.5756,0,0,0,.59-0.56A0.5756,0.5756,0,0,0,1.77.56Zm0,0.98a0.4322,0.4322,0,0,1-.4425-0.42A0.4322,0.4322,0,0,1,1.77.7a0.4322,0.4322,0,0,1,.4425.42A0.4322,0.4322,0,0,1,1.77,1.54ZM1.77,0A2.7386,2.7386,0,0,0,0,1.12,2.7367,2.7367,0,0,0,1.77,2.24,2.7386,2.7386,0,0,0,3.54,1.12,2.7367,2.7367,0,0,0,1.77,0Zm0,2.1A2.4482,2.4482,0,0,1,.184,1.12,2.45,2.45,0,0,1,1.77.14a2.4483,2.4483,0,0,1,1.5861.98A2.4494,2.4494,0,0,1,1.77,2.1Z" style="fill: #868686;fill-rule: evenodd"/>
    </g>
  </g>
</svg>
