<?xml version="1.0" standalone="no"?>
<!DOCTYPE svg PUBLIC "-//W3C//DTD SVG 1.1//EN" "http://www.w3.org/Graphics/SVG/1.1/DTD/svg11.dtd" >
<svg>
<metadata>
Created by FontForge 20090914 at Wed Oct  5 11:58:00 2016
 By www-data
Copyright (c) Alex Boa, 2004. All rights reserved.
</metadata>
<defs>
<font id="BodoniCyr" horiz-adv-x="530" >
  <font-face 
    font-family="Bodoni Cyr"
    font-weight="400"
    font-stretch="normal"
    units-per-em="1000"
    panose-1="2 0 5 3 9 0 0 2 0 3"
    ascent="800"
    descent="-200"
    x-height="426"
    cap-height="655"
    bbox="-59.999 -230 1067.01 856.997"
    underline-thickness="50"
    underline-position="-50"
    unicode-range="U+000D-U+2265"
  />
<missing-glyph horiz-adv-x="233" 
 />
    <glyph glyph-name=".notdef" horiz-adv-x="233" 
 />
    <glyph glyph-name="NULL" horiz-adv-x="0" 
 />
    <glyph glyph-name="NULL" horiz-adv-x="0" 
 />
    <glyph glyph-name="nonmarkingreturn" unicode="&#xd;" horiz-adv-x="233" 
 />
    <glyph glyph-name="space" unicode=" " horiz-adv-x="233" 
 />
    <glyph glyph-name="exclam" unicode="!" horiz-adv-x="302" 
d="M133 168c-0.666992 31.333 -1.49902 60.001 -2.49902 86.001s-2.16699 49 -3.5 69c-1.33301 21.333 -3.83301 49 -7.5 83s-10.834 74 -21.501 120c-3.33301 16.667 -6.5 31 -9.5 43s-4.5 23.667 -4.5 35c0 20 6 35.333 18 46s28.333 16 49 16
c24.667 0 42 -6.16699 52 -18.5s15 -25.833 15 -40.5c0 -8.66699 -1.33301 -19 -4 -31s-6.33398 -29.667 -11.001 -53c-4.66699 -22.667 -8.5 -42.667 -11.5 -60s-5.5 -33.5 -7.5 -48.5s-3.66699 -29.833 -5 -44.5s-2.66602 -30.334 -3.99902 -47.001
c-1.33301 -20 -2.5 -43 -3.5 -69s-1.83301 -54.667 -2.5 -86h-36zM95.001 67.001c0 15.333 5.5 28.5 16.5 39.5s24.167 16.5 39.5 16.5s28.5 -5.5 39.5 -16.5s16.5 -24.167 16.5 -39.5s-5.5 -28.5 -16.5 -39.5s-24.167 -16.5 -39.5 -16.5s-28.5 5.5 -39.5 16.5
s-16.5 24.167 -16.5 39.5z" />
    <glyph glyph-name="quotedbl" unicode="&#x22;" horiz-adv-x="395" 
d="M117 445h-39l-28 221h95zM293 445h-38l-29 221h96z" />
    <glyph glyph-name="numbersign" unicode="#" horiz-adv-x="739" 
d="M389 -60l27 178h-150l-27 -178h-70l26 178h-139l13 90h140l29 190h-140l14 90h140l27 177h70l-27 -177h151l27 177h70l-27 -177h140l-14 -90h-140l-29 -190h140l-14 -90h-140l-27 -178h-70zM458 398h-149l-29 -190h149z" />
    <glyph glyph-name="dollar" unicode="$" 
d="M42 209l13.0039 -0.000976562c6.66699 -16 15.667 -35 27 -57s23.666 -40.667 36.999 -56c16.667 -20 36.834 -37.833 60.501 -53.5s47.5 -25.167 71.5 -28.5v269l-42 12c-4 0.666992 -10 2.5 -18 5.5s-17 7 -27 12s-20.333 11.333 -31 19s-20.334 16.834 -29.001 27.501
c-11.333 14.667 -20.333 32.334 -27 53.001s-10 42.667 -10 66c0 32.667 5.66699 62 17 88s26.666 47 45.999 63c18 14.667 37.333 24.5 58 29.5s41.667 7.16699 63 6.5v74h29v-77c6 -0.666992 11.833 -1.5 17.5 -2.5s11.834 -2.33301 18.501 -4s14.167 -4 22.5 -7
s18.166 -6.83301 29.499 -11.5c6 -2.66699 11.833 -4.83398 17.5 -6.50098s10.834 -2 15.501 -1s9 3.33301 13 7s8 9.83398 12 18.501h16l4 -158h-14c-6 14 -14.5 30 -25.5 48s-22.833 33.667 -35.5 47c-17.333 17.333 -34.5 29.666 -51.5 36.999s-30.167 12 -39.5 14v-248
l59 -16c10 -2.66699 20.667 -6.16699 32 -10.5s22.666 -10 33.999 -17s22.166 -15.667 32.499 -26s19.5 -22.5 27.5 -36.5c4 -7.33301 8.83301 -19 14.5 -35s8.5 -36.667 8.5 -62c0 -24 -3.33301 -47.667 -10 -71s-17.334 -44.333 -32.001 -63
c-21.333 -27.333 -46 -46 -74 -56s-58.667 -14.333 -92 -13v-88h-29v91c-13.333 2 -27.5 4.83301 -42.5 8.5s-29.833 9.16699 -44.5 16.5l-27 14c-8.66699 4.66699 -17.667 7 -27 7c-13.333 0 -23.333 -3.83301 -30 -11.5s-10.667 -16.167 -12 -25.5h-26v208z
M251.004 646.999c-17.333 2.66699 -35.6689 0.831055 -55.002 -5.50195s-35.666 -16.5 -48.999 -30.5c-11.333 -11.333 -19.666 -24.666 -24.999 -39.999s-8 -30.666 -8 -45.999c0 -22.667 4.66699 -41.167 14 -55.5s20.5 -25.833 33.5 -34.5s26.5 -15.167 40.5 -19.5
s25.667 -7.5 35 -9.5l14 -3v244zM280.001 9.99609c18.667 -2 37.167 -0.666992 55.5 4s34.833 12.667 49.5 24s26.5 25.666 35.5 42.999s13.5 37 13.5 59c0 24.667 -8 48.834 -24 72.501s-43.667 40.5 -83 50.5l-47 12v-265z" />
    <glyph glyph-name="percent" unicode="%" horiz-adv-x="844" 
d="M84 511c0 6 0.499023 14.001 1.49902 24.001s3.5 21.167 7.5 33.5s10.333 24.833 19 37.5s20.667 24.334 36 35.001c15.333 11.333 29.833 18.333 43.5 21s25.5 4 35.5 4c11.333 0 23.833 -1.33301 37.5 -4s28.167 -9.66699 43.5 -21
c4.66699 -3.33301 10.667 -8.33301 18 -15s14.333 -15.167 21 -25.5s12.5 -23 17.5 -38s7.5 -32.167 7.5 -51.5c0 -3.33301 -0.333008 -9.83301 -1 -19.5s-3 -20.5 -7 -32.5s-10.167 -24.833 -18.5 -38.5s-20.166 -26.167 -35.499 -37.5c-16 -12 -31 -19.5 -45 -22.5
s-26.667 -4.5 -38 -4.5c-10 0 -21.833 1.5 -35.5 4.5s-28.834 10.5 -45.501 22.5c-14 10.667 -25.167 22 -33.5 34s-14.666 23.667 -18.999 35s-7 22.166 -8 32.499s-1.5 19.166 -1.5 26.499zM155.999 490.001c0 -25.333 1.83203 -43.999 5.49902 -55.999s6.5 -20 8.5 -24
c6.66699 -12 15.167 -21.5 25.5 -28.5s21.5 -10.5 33.5 -10.5c12.667 0 24 3.66699 34 11s17.667 16.666 23 27.999c2 4 4.83301 12 8.5 24s5.5 30.667 5.5 56v42c0 12 -1.16699 26 -3.5 42s-6.16602 28.667 -11.499 38c-4.66699 8.66699 -11.5 17.334 -20.5 26.001
s-20.833 13 -35.5 13c-16.667 0 -29.5 -4.83301 -38.5 -14.5s-15.167 -17.834 -18.5 -24.501c-5.33301 -10.667 -9.33301 -23.5 -12 -38.5s-4 -28.833 -4 -41.5v-42zM198.998 -80.998l417 826l32 -14l-418 -826zM471.998 145.002c0 6 0.499023 14.001 1.49902 24.001
s3.5 21.167 7.5 33.5s10.333 24.833 19 37.5s20.667 24.334 36 35.001c15.333 11.333 29.833 18.333 43.5 21s25.5 4 35.5 4c11.333 0 23.833 -1.33301 37.5 -4s28.167 -9.66699 43.5 -21c4.66699 -3.33301 10.667 -8.33301 18 -15s14.333 -15.167 21 -25.5
s12.5 -23 17.5 -38s7.5 -32.167 7.5 -51.5c0 -3.33301 -0.333008 -9.83301 -1 -19.5s-3 -20.5 -7 -32.5s-10.167 -24.833 -18.5 -38.5s-20.166 -26.167 -35.499 -37.5c-16 -12 -31 -19.5 -45 -22.5s-26.667 -4.5 -38 -4.5c-10 0 -21.833 1.5 -35.5 4.5
s-28.834 10.5 -45.501 22.5c-14 10.667 -25.167 22 -33.5 34s-14.666 23.667 -18.999 35s-7 22.166 -8 32.499s-1.5 19.166 -1.5 26.499zM543.997 124.003c0 -25.333 1.83203 -43.999 5.49902 -55.999s6.5 -20 8.5 -24c6.66699 -12 15.167 -21.5 25.5 -28.5
s21.5 -10.5 33.5 -10.5c12.667 0 24 3.66699 34 11s17.667 16.666 23 27.999c2 4 4.83301 12 8.5 24s5.5 30.667 5.5 56v42c0 12 -1.16699 26 -3.5 42s-6.16602 28.667 -11.499 38c-4.66699 8.66699 -11.5 17.334 -20.5 26.001s-20.833 13 -35.5 13
c-16.667 0 -29.5 -4.83301 -38.5 -14.5s-15.167 -17.834 -18.5 -24.501c-5.33301 -10.667 -9.33301 -23.5 -12 -38.5s-4 -28.833 -4 -41.5v-42z" />
    <glyph glyph-name="ampersand" unicode="&#x26;" horiz-adv-x="748" 
d="M310 357c-26 0 -45.8379 -2.66113 -59.5049 -7.99414s-22.167 -9 -25.5 -11c-13.333 -8 -23.833 -18.167 -31.5 -30.5s-13.334 -25 -17.001 -38s-6 -25.667 -7 -38s-1.5 -22.833 -1.5 -31.5v-16c0 -20.667 2.33301 -40.167 7 -58.5s13.334 -35.833 26.001 -52.5
c10.667 -14.667 26.5 -29.167 47.5 -43.5s47.167 -21.5 78.5 -21.5c20 0 37.833 2 53.5 6s29.334 8.66699 41.001 14s21.334 11.166 29.001 17.499s13.5 11.5 17.5 15.5c9.33301 10 18.833 25.167 28.5 45.5s14.5 48.166 14.5 83.499c0 18.667 -1.33301 34.667 -4 48l-56 1
c-32.667 0.666992 -57 -0.833008 -73 -4.5s-26.667 -6.83398 -32 -9.50098c-8.66699 -4 -16.667 -9.16699 -24 -15.5s-11 -13.166 -11 -20.499c0 -4.66699 1.33301 -7.83398 4 -9.50098s5.33398 -2.5 8.00098 -2.5c3.33301 0 6.16602 0.666992 8.49902 2
s4.83301 2.66602 7.5 3.99902c4.66699 2 10.334 3 17.001 3c9.33301 0 17.333 -1.5 24 -4.5s12 -6.5 16 -10.5c10 -10 15 -21.667 15 -35c0 -14.667 -5 -27.834 -15 -39.501s-23.333 -17.5 -40 -17.5c-19.333 0 -35.5 7 -48.5 21s-19.5 34 -19.5 60
c0 21.333 4.33301 42 13 62s19.334 36.667 32.001 50c13.333 14 31.5 27.167 54.5 39.5s52.167 18.166 87.5 17.499l98 -1h34.5c13 0 25.667 1 38 3s23.833 5.33301 34.5 10s19 11.334 25 20.001c2 2.66699 3.33301 6.5 4 11.5s1 9.16699 1 12.5
c0 1.33301 -1.16699 2.33301 -3.5 3s-4.16602 1 -5.49902 1s-2.83301 -0.333008 -4.5 -1s-3.16699 -1.33398 -4.5 -2.00098c-8 -3.33301 -15.667 -5 -23 -5c-11.333 0 -20.666 1.83301 -27.999 5.5s-13 8.16699 -17 13.5s-6.83301 11 -8.5 17s-2.5 11.333 -2.5 16
c0 12.667 4.16699 24.834 12.5 36.501s22.166 17.5 41.499 17.5c20 0 36.167 -6.5 48.5 -19.5s18.5 -32.833 18.5 -59.5c0 -22.667 -3.5 -42.667 -10.5 -60s-15.5 -32.166 -25.5 -44.499s-20.667 -22.5 -32 -30.5s-21.333 -14 -30 -18c-15.333 -7.33301 -30 -12 -44 -14
s-28.333 -3 -43 -3h-12c0 -3.33301 0.333008 -9.66602 1 -18.999s1 -17.666 1 -24.999c0 -19.333 -2 -38.5 -6 -57.5s-10.667 -36.833 -20 -53.5c-11.333 -20 -24.833 -36.167 -40.5 -48.5s-32.334 -21.833 -50.001 -28.5s-35.334 -11.167 -53.001 -13.5
s-34.167 -3.5 -49.5 -3.5c-32 0 -64.667 3.16699 -98 9.5s-62 16.833 -86 31.5s-45.667 35.5 -65 62.5s-29 59.5 -29 97.5c0 6.66699 0.666992 15.667 2 27s4.83301 23.5 10.5 36.5s14 26 25 39s26.5 24.833 46.5 35.5c21.333 11.333 45.833 20.5 73.5 27.5
s52.834 11.5 75.501 13.5v5c-20.667 4 -38.834 8.66699 -54.501 14s-29.834 12.333 -42.501 21c-17.333 12 -30.833 26.667 -40.5 44s-14.5 38.666 -14.5 63.999c0 17.333 2.66699 32.666 8 45.999s12.333 25.166 21 35.499s18.334 19.166 29.001 26.499
s21.334 13.666 32.001 18.999c16 7.33301 34 12.833 54 16.5s39.667 5.5 59 5.5c18.667 0 37 -1.83301 55 -5.5s34.333 -10.167 49 -19.5c19.333 -12 34 -26.833 44 -44.5s15 -35.167 15 -52.5c0 -18.667 -5.5 -34 -16.5 -46s-25.167 -18 -42.5 -18
s-31.666 5.16699 -42.999 15.5s-17 22.5 -17 36.5c0 10.667 2.33301 19.834 7 27.501s8.66699 13.167 12 16.5l16 16.5c5.33301 5.66699 8 11.5 8 17.5c0 8 -6.33301 16.167 -19 24.5s-33.334 12.5 -62.001 12.5c-11.333 0 -22.666 -1.16699 -33.999 -3.5
s-21 -6.16602 -29 -11.499c-9.33301 -6 -17.833 -15.333 -25.5 -28s-11.5 -30.334 -11.5 -53.001v-66c0 -11.333 1 -23.166 3 -35.499s6.83301 -23.833 14.5 -34.5s19.5 -19.334 35.5 -26.001s38 -10 66 -10h37v-22h-78z" />
    <glyph glyph-name="quotesingle" unicode="'" horiz-adv-x="218" 
d="M128 445h-38l-29 221h96z" />
    <glyph glyph-name="parenleft" unicode="(" horiz-adv-x="488" 
d="M328 -230c-31.333 32 -57.6699 65.6689 -79.0029 101.002s-38.666 69 -51.999 101c-15.333 35.333 -28.666 73.666 -39.999 114.999s-17 83.333 -17 126c0 57.333 6.83301 107.666 20.5 150.999s28.834 82 45.501 116c13.333 26.667 30.333 57.167 51 91.5
s44.334 67.166 71.001 98.499l20 -9c-18.667 -30 -35.167 -61 -49.5 -93s-25.833 -66.333 -34.5 -103c-8.66699 -36 -14.667 -74.667 -18 -116s-5 -86.666 -5 -135.999c0 -36.667 1.16699 -75.167 3.5 -115.5s10.166 -84.5 23.499 -132.5
c6.66699 -24 16.5 -53.167 29.5 -87.5s29.167 -66.5 48.5 -96.5z" />
    <glyph glyph-name="parenright" unicode=")" horiz-adv-x="488" 
d="M142 -219c19.333 30 35.4961 62.165 48.4961 96.498s22.833 63.5 29.5 87.5c13.333 48 21.166 92.167 23.499 132.5s3.5 78.833 3.5 115.5c0 49.333 -1.66699 94.666 -5 135.999s-9.33301 80 -18 116c-8.66699 36.667 -20.167 71 -34.5 103s-30.833 63 -49.5 93l20 9
c26.667 -31.333 50.334 -64.166 71.001 -98.499s37.667 -64.833 51 -91.5c16.667 -34 31.834 -72.667 45.501 -116s20.5 -93.666 20.5 -150.999c0 -42.667 -5.66699 -84.667 -17 -126s-24.666 -79.666 -39.999 -114.999c-13.333 -32 -30.666 -65.667 -51.999 -101
s-47.666 -69 -78.999 -101z" />
    <glyph glyph-name="asterisk" unicode="*" horiz-adv-x="499" 
d="M295 469l86.9951 -27c6.66699 -2 12 -3.5 16 -4.5s7.66699 -2.5 11 -4.5c13.333 -6.66699 20 -18 20 -34c0 -6.66699 -2.5 -15.167 -7.5 -25.5s-14.833 -15.5 -29.5 -15.5c-10 0 -18.167 2.16699 -24.5 6.5s-13.166 10.166 -20.499 17.499l-66 62l-17 -10l20 -88l4 -15.5
c1.33301 -5 2 -10.167 2 -15.5c0 -9.33301 -3.33301 -17.833 -10 -25.5s-16.667 -11.5 -30 -11.5c-11.333 0 -21 3.16699 -29 9.5s-12 15.5 -12 27.5c0 5.33301 0.666992 10.5 2 15.5l4 15.5l20 88l-17 10l-66 -62c-7.33301 -7.33301 -14.166 -13.166 -20.499 -17.499
s-14.166 -6.5 -23.499 -6.5c-13.333 0 -23 4.83301 -29 14.5s-9 18.834 -9 27.501c0 5.33301 1.33301 11 4 17s8.33398 11.333 17.001 16c3.33301 2 7 3.5 11 4.5s9.33301 2.5 16 4.5l86 27v19l-87 27c-7.33301 2 -12.666 3.5 -15.999 4.5s-6.66602 2.16699 -9.99902 3.5
c-14 6.66699 -21 19 -21 37c0 10 3.5 19 10.5 27s16.833 12 29.5 12c10 0 17.667 -2.16699 23 -6.5s11.666 -10.166 18.999 -17.499l66 -62l17 10l-20 88c-1.33301 7.33301 -2.66602 13.333 -3.99902 18s-2 9.33398 -2 14.001c0 11.333 4 20.166 12 26.499
s17.667 9.5 29 9.5s20.833 -3 28.5 -9s11.5 -14.667 11.5 -26c0 -4.66699 -0.5 -9.33398 -1.5 -14.001s-2.5 -11 -4.5 -19l-20 -88l17 -10l66 62c7.33301 7.33301 13.833 13.166 19.5 17.499s13.167 6.5 22.5 6.5c12.667 0 22.5 -3.83301 29.5 -11.5
s10.5 -17.167 10.5 -28.5c0 -15.333 -7.33301 -27 -22 -35c-4.66699 -2.66699 -8.83398 -4.5 -12.501 -5.5l-12.5 -3.5l-87 -27v-19z" />
    <glyph glyph-name="plus" unicode="+" horiz-adv-x="698" 
d="M328 337v279h42v-279h279v-42h-279v-279h-42v279h-279v42h279z" />
    <glyph glyph-name="comma" unicode="," horiz-adv-x="328" 
d="M129 -133c27.333 20.667 47.999 45.6699 61.999 75.0029c2.66699 6 5 12.333 7 19s3 12.667 3 18c0 8.66699 -2.16699 15 -6.5 19s-8.16602 6 -11.499 6s-6 -0.833008 -8 -2.5l-6 -5c-2 -1.66699 -4.66699 -3.33398 -8 -5.00098s-8 -2.5 -14 -2.5
c-16 0 -28.167 6.16699 -36.5 18.5s-12.5 25.166 -12.5 38.499c0 16 5.16699 29.167 15.5 39.5s23.833 15.5 40.5 15.5c10.667 0 21 -2.33301 31 -7s18.667 -11.334 26 -20.001c5.33301 -6 9.83301 -14.333 13.5 -25s5.5 -24.334 5.5 -41.001c0 -16 -2.66699 -32.5 -8 -49.5
s-12.666 -32.5 -21.999 -46.5c-5.33301 -7.33301 -12.333 -15.666 -21 -24.999s-21.334 -21.333 -38.001 -36z" />
    <glyph glyph-name="hyphen" unicode="-" horiz-adv-x="350" 
d="M70 230h210v-45h-210v45z" />
    <glyph glyph-name="period" unicode="." horiz-adv-x="308" 
d="M98 45c0 15.333 5.5 28.5 16.5 39.5s24.167 16.5 39.5 16.5s28.5 -5.5 39.5 -16.5s16.5 -24.167 16.5 -39.5s-5.5 -28.5 -16.5 -39.5s-24.167 -16.5 -39.5 -16.5s-28.5 5.5 -39.5 16.5s-16.5 24.167 -16.5 39.5z" />
    <glyph glyph-name="slash" unicode="/" horiz-adv-x="475" 
d="M28 -213l369 868h50l-369 -868h-50z" />
    <glyph glyph-name="zero" unicode="0" 
d="M41 329c0 38 2.99805 71.5 8.99805 100.5s13.167 54 21.5 75s17 38.5 26 52.5s16.833 25 23.5 33c25.333 30.667 50.833 51.5 76.5 62.5s48.167 16.5 67.5 16.5c18.667 0 41 -5.5 67 -16.5s51.667 -31.833 77 -62.5c6.66699 -8 14.5 -19 23.5 -33s17.667 -31.5 26 -52.5
s15.5 -46 21.5 -75s9 -62.5 9 -100.5s-3 -71.5 -9 -100.5s-13.167 -54 -21.5 -75s-17 -38.5 -26 -52.5s-16.833 -25 -23.5 -33c-12.667 -15.333 -25.5 -28.166 -38.5 -38.499s-25.833 -18.5 -38.5 -24.5s-24.667 -10.167 -36 -12.5s-21.666 -3.5 -30.999 -3.5
s-19.666 1.16699 -30.999 3.5s-23.333 6.5 -36 12.5s-25.5 14.167 -38.5 24.5s-25.833 23.166 -38.5 38.499c-6.66699 8 -14.5 19 -23.5 33s-17.667 31.5 -26 52.5s-15.5 46 -21.5 75s-9 62.5 -9 100.5zM152.998 223c0 -6 0.166992 -15.333 0.5 -28
s1.16602 -26.667 2.49902 -42s3.33301 -30.5 6 -45.5s6.33398 -27.833 11.001 -38.5c11.333 -25.333 26 -41.833 44 -49.5s34 -11.5 48 -11.5s30 3.83301 48 11.5s32.667 24.167 44 49.5c4.66699 10.667 8.33398 23.5 11.001 38.5s4.66699 30.167 6 45.5
s2.16602 29.333 2.49902 42s0.5 22 0.5 28v212c0 6 -0.166992 15.333 -0.5 28s-1.16602 26.667 -2.49902 42s-3.33301 30.5 -6 45.5s-6.33398 27.833 -11.001 38.5c-11.333 25.333 -26 41.833 -44 49.5s-34 11.5 -48 11.5s-30 -3.83301 -48 -11.5s-32.667 -24.167 -44 -49.5
c-4.66699 -10.667 -8.33398 -23.5 -11.001 -38.5s-4.66699 -30.167 -6 -45.5s-2.16602 -29.333 -2.49902 -42s-0.5 -22 -0.5 -28v-212z" />
    <glyph glyph-name="one" unicode="1" 
d="M159 652l174 14v-646h77v-20h-266v20h77v590c0 10 -4.33301 15.5 -13 16.5s-20.667 1.5 -36 1.5h-45v24h32z" />
    <glyph glyph-name="two" unicode="2" 
d="M475 196l-9.00195 -195.997h-414v63l173 162l53.5 52c17 17.333 31.833 37 44.5 59c12 20.667 21.5 44.334 28.5 71.001s10.5 56.334 10.5 89.001c0 30 -3.83301 54.667 -11.5 74s-17.834 34.666 -30.501 45.999s-26.667 19.333 -42 24s-30.666 7 -45.999 7
c-14 0 -26 -1.5 -36 -4.5s-20.667 -8.83301 -32 -17.5c-5.33301 -4.66699 -11.666 -10.834 -18.999 -18.501s-11 -17.167 -11 -28.5c0 -7.33301 1.16699 -12.666 3.5 -15.999s5.33301 -6.33301 9 -9s8 -5.66699 13 -9s10.5 -9 16.5 -17
c4.66699 -6.66699 7.66699 -12.334 9 -17.001s2 -10.334 2 -17.001c0 -22.667 -6.66699 -39.167 -20 -49.5s-28 -15.5 -44 -15.5c-17.333 0 -32.833 6.5 -46.5 19.5s-20.5 31.833 -20.5 56.5c0 17.333 4 35 12 53s19.667 34.667 35 50c13.333 13.333 27 24 41 32
s27.5 14 40.5 18s25 6.5 36 7.5s20.5 1.5 28.5 1.5c42 0 77 -6.66699 105 -20s51 -30 69 -50s30.667 -41 38 -63s11 -43.667 11 -65c0 -26 -4.16699 -48.833 -12.5 -68.5s-19.333 -37.834 -33 -54.501s-29.167 -31.834 -46.5 -45.501l-53 -41.5l-217 -166h276
c11.333 0 20.5 1 27.5 3s12.333 4.83301 16 8.5s6.33398 8 8.00098 13s3.16699 10.833 4.5 17.5l5.5 28.5c1.66699 9 3.16699 20.167 4.5 33.5h23z" />
    <glyph glyph-name="three" unicode="3" 
d="M297 369c21.333 -2 42.1631 -7.33203 62.4961 -15.999s37.5 -18.334 51.5 -29.001c14.667 -11.333 29 -27.5 43 -48.5s21 -48.167 21 -81.5c0 -10.667 -1 -23 -3 -37s-5.83301 -28.5 -11.5 -43.5s-13.5 -29.667 -23.5 -44s-23 -27.166 -39 -38.499
c-20 -14.667 -43 -25.334 -69 -32.001s-51.667 -10 -77 -10c-6 0 -13.5 0.166992 -22.5 0.5s-18.667 1.16602 -29 2.49902s-21.333 3.66602 -33 6.99902s-23.5 7.66602 -35.5 12.999c-32 14.667 -54.667 33.5 -68 56.5s-20 44.5 -20 64.5c0 24.667 7 43.334 21 56.001
s29 19 45 19c14.667 0 28.834 -5.16699 42.501 -15.5s20.5 -25.166 20.5 -44.499c0 -16.667 -2.66699 -27.667 -8 -33s-11.333 -9.16602 -18 -11.499s-12.667 -5.83301 -18 -10.5s-8 -14.667 -8 -30c0 -6.66699 2 -12.5 6 -17.5s8.66699 -9.16699 14 -12.5
s10.5 -6.16602 15.5 -8.49902s8.5 -3.83301 10.5 -4.5c10 -3.33301 19 -6.16602 27 -8.49902s19 -3.5 33 -3.5c7.33301 0 15.333 0.5 24 1.5s17.334 3 26.001 6s17.167 7.66699 25.5 14s16.166 15.166 23.499 26.499c6.66699 10 12 22.167 16 36.5s6 34.166 6 59.499v113
c0 8.66699 -1.33301 18.334 -4 29.001s-7.5 20.667 -14.5 30s-16.5 17.166 -28.5 23.499s-27.333 9.5 -46 9.5c-8.66699 0 -17.167 -1 -25.5 -3s-16.833 -3.66699 -25.5 -5c-8 -2 -15.667 -3 -23 -3c-11.333 0 -18.833 2.83301 -22.5 8.5s-5.5 10.5 -5.5 14.5
c0 3.33301 1.66699 8 5 14s10.333 9 21 9c6.66699 0 12.334 -0.5 17.001 -1.5l14 -3c4.66699 -1 10 -2 16 -3s14 -1.5 24 -1.5c18.667 0 33.334 2.66699 44.001 8s18.667 11 24 17c10 10.667 16.167 23.167 18.5 37.5s3.5 27.5 3.5 39.5v66c0 6 -0.666992 14.5 -2 25.5
s-5.16602 21.667 -11.499 32s-16.5 19.333 -30.5 27s-33.667 11.5 -59 11.5c-14.667 0 -27 -1.5 -37 -4.5s-18 -6.66699 -24 -11s-10.333 -8.83301 -13 -13.5s-4 -8.33398 -4 -11.001c0 -5.33301 2.66699 -10.166 8 -14.499s11 -9.5 17 -15.5
c2.66699 -3.33301 6.33398 -8.16602 11.001 -14.499s7 -14.833 7 -25.5c0 -15.333 -5.16699 -28.666 -15.5 -39.999s-24.166 -17 -41.499 -17c-6.66699 0 -13.667 1 -21 3s-14 5.5 -20 10.5s-10.833 11.5 -14.5 19.5s-5.5 18 -5.5 30c0 18 4.66699 35.833 14 53.5
s24 32.5 44 44.5c19.333 11.333 39.166 18.333 59.499 21s36.166 4 47.499 4c7.33301 0 17.166 -0.5 29.499 -1.5s25.666 -3.16699 39.999 -6.5s29 -8.33301 44 -15s28.833 -15.667 41.5 -27c16.667 -14.667 28.334 -30.334 35.001 -47.001s10 -34.334 10 -53.001
c0 -23.333 -3.66699 -42.5 -11 -57.5s-18.666 -28.5 -33.999 -40.5c-14 -11.333 -30 -20.5 -48 -27.5s-37.667 -12.5 -59 -16.5v-5z" />
    <glyph glyph-name="four" unicode="4" 
d="M378 227h103v-40h-103v-167h77v-20h-266v20h84v167h-227v26l276 453h56v-439zM273 541l-196 -314h196v314z" />
    <glyph glyph-name="five" unicode="5" 
d="M115 386c14.667 12 29.001 21.3301 43.001 27.9971s27.333 11.5 40 14.5s23.834 4.66699 33.501 5s17.167 0.5 22.5 0.5c22 0 42.5 -1.83301 61.5 -5.5s40.167 -12.834 63.5 -27.501c9.33301 -6 19.333 -13.833 30 -23.5s20.5 -21.5 29.5 -35.5s16.5 -30.5 22.5 -49.5
s9 -41.167 9 -66.5c0 -12 -0.833008 -25.667 -2.5 -41s-5.33398 -31.166 -11.001 -47.499s-13.334 -32.666 -23.001 -48.999s-22.5 -31.5 -38.5 -45.5c-28 -24.667 -56.333 -39.834 -85 -45.501s-56.667 -8.5 -84 -8.5c-7.33301 0 -16.666 0.5 -27.999 1.5
s-23.666 3.33301 -36.999 7s-26.833 9.5 -40.5 17.5s-26.5 19 -38.5 33c-10 11.333 -17.167 23.166 -21.5 35.499s-6.5 25.5 -6.5 39.5c0 22.667 5.83301 41.334 17.5 56.001s27.834 22 48.501 22c15.333 0 29.333 -4.5 42 -13.5s19 -23.167 19 -42.5
c0 -11.333 -1.5 -20.666 -4.5 -27.999s-8.5 -14.666 -16.5 -21.999c-4.66699 -4 -10.334 -9.16699 -17.001 -15.5s-10 -13.833 -10 -22.5c0 -6 2.5 -12.167 7.5 -18.5s11.833 -11.833 20.5 -16.5c8 -4.66699 17.167 -8.16699 27.5 -10.5s20.166 -3.5 29.499 -3.5
c13.333 0 27.833 2.16699 43.5 6.5s29.5 11.833 41.5 22.5c10 8.66699 17.833 18.334 23.5 29.001s9.66699 22 12 34s3.83301 24.333 4.5 37s1 25.334 1 38.001v107c0 4 -0.333008 9.83301 -1 17.5s-2.16699 16 -4.5 25s-5.83301 18.167 -10.5 27.5s-11 18 -19 26
c-13.333 13.333 -27.166 21.5 -41.499 24.5s-26.5 4.5 -36.5 4.5c-11.333 0 -21.833 -0.833008 -31.5 -2.5s-20.167 -5.16699 -31.5 -10.5c-9.33301 -4 -19.5 -10.167 -30.5 -18.5s-21.5 -19.166 -31.5 -32.499l-12 2l21 321c5.33301 -2.66699 13.5 -6 24.5 -10
s22.833 -7.66699 35.5 -11c20.667 -5.33301 38.5 -8.66602 53.5 -9.99902s29.167 -2 42.5 -2c20 0 42 1.66699 66 5s52.333 12.666 85 27.999l10 -13c-6.66699 -8.66699 -14.334 -17.334 -23.001 -26.001s-18.334 -16.667 -29.001 -24c-17.333 -12 -34.5 -21.5 -51.5 -28.5
s-32.667 -12 -47 -15s-27.166 -4.83301 -38.499 -5.5s-20 -1 -26 -1c-18.667 0 -35.834 0.666992 -51.501 2s-28.167 2.66602 -37.5 3.99902z" />
    <glyph glyph-name="six" unicode="6" 
d="M162 332c6.66699 14.667 15.3311 26.9941 25.998 36.9941s22.167 18.333 34.5 25s25.333 11.5 39 14.5s26.5 4.5 38.5 4.5c17.333 0 37 -4 59 -12s42.667 -20.667 62 -38s35.5 -39.5 48.5 -66.5s19.5 -59.167 19.5 -96.5c0 -33.333 -6.33301 -63 -19 -89
s-29.167 -48 -49.5 -66s-43.166 -31.833 -68.499 -41.5s-50.666 -14.5 -75.999 -14.5c-21.333 0 -45 3.83301 -71 11.5s-50.5 22.834 -73.5 45.501s-42.167 54.5 -57.5 95.5s-23 95.167 -23 162.5c0 26 1.33301 53 4 81s7.5 55.333 14.5 82s16.5 52 28.5 76
s27 45.167 45 63.5s39.333 32.833 64 43.5s53.667 16 87 16c28.667 0 53.667 -3.16699 75 -9.5s39.333 -14.666 54 -24.999s25.667 -22.166 33 -35.499s11 -27 11 -41c0 -7.33301 -1 -15 -3 -23s-5.33301 -15.333 -10 -22s-10.834 -12.167 -18.501 -16.5
s-17.167 -6.5 -28.5 -6.5s-20.833 1.83301 -28.5 5.5s-13.834 8.16699 -18.501 13.5s-8 11 -10 17s-3 11.667 -3 17c0 16 1.33301 27.833 4 35.5s5.5 13.5 8.5 17.5s5.83301 7.5 8.5 10.5s4 7.5 4 13.5c0 4.66699 -2.33301 8.83398 -7 12.501s-10.667 6.83398 -18 9.50098
s-15.666 4.66699 -24.999 6s-18.666 2 -27.999 2c-32 0 -57 -6.66699 -75 -20s-31.167 -29.666 -39.5 -48.999s-13.333 -40.5 -15 -63.5s-2.5 -43.833 -2.5 -62.5v-120zM162.997 140.994c0 -26.667 4.33301 -48.5 13 -65.5s19.167 -30.5 31.5 -40.5s25.333 -17 39 -21
s25.5 -6 35.5 -6c6 0 11.833 1 17.5 3s11.167 4.33301 16.5 7c15.333 8 27.166 17.5 35.499 28.5s14.333 22.5 18 34.5s5.83398 24 6.50098 36s1 22.667 1 32v98c0 28 -2.66699 51.167 -8 69.5s-12.333 32.833 -21 43.5s-18.834 18.167 -30.501 22.5s-23.5 6.5 -35.5 6.5
c-15.333 0 -30.166 -3.5 -44.499 -10.5s-27 -16.5 -38 -28.5s-19.833 -26 -26.5 -42s-10 -33.333 -10 -52v-115z" />
    <glyph glyph-name="seven" unicode="7" 
d="M68 489l26 165.993h358c4 0 6.66699 -0.333008 8 -1s2 -3 2 -7c0 -3.33301 -0.833008 -9 -2.5 -17s-6.5 -25.667 -14.5 -53c-7.33301 -25.333 -14.333 -47.333 -21 -66s-13.334 -36.167 -20.001 -52.5l-20.5 -50.5c-7 -17.333 -14.167 -37.333 -21.5 -60l-9 -28
c-4.66699 -14.667 -9.66699 -32.5 -15 -53.5s-10.833 -44.167 -16.5 -69.5s-10.167 -50.333 -13.5 -75c-2 -17.333 -3.83301 -35.666 -5.5 -54.999s-3.83398 -41.666 -6.50098 -66.999h-108c3.33301 30.667 7.83301 57.334 13.5 80.001s12.834 45.667 21.501 69
c8.66699 24 16.834 45 24.501 63s15.5 34.833 23.5 50.5s16.5 31.167 25.5 46.5l29.5 51c22 38.667 40.167 73.334 54.5 104.001s26.166 62.334 35.499 95.001h-261c-8 0 -17 -1.66699 -27 -5s-18.667 -11.666 -26 -24.999c-2.66699 -4.66699 -4.66699 -10.167 -6 -16.5
s-3.66602 -14.166 -6.99902 -23.499h-21z" />
    <glyph glyph-name="eight" unicode="8" 
d="M147 378c-7.33301 4.66699 -15.498 11.834 -24.498 21.501s-16.5 18.834 -22.5 27.501c-8 12 -14.333 25.167 -19 39.5s-7 28.166 -7 41.499c0 24 6.66699 47.333 20 70s28.666 40.334 45.999 53.001c17.333 12 37.333 20.833 60 26.5s45 8.5 67 8.5
c15.333 0 33.333 -1.83301 54 -5.5s40.667 -10.834 60 -21.501c28 -15.333 47 -33.333 57 -54s15 -40 15 -58c0 -23.333 -5.83301 -44.333 -17.5 -63s-26.834 -34.334 -45.501 -47.001c-5.33301 -4 -13 -8.5 -23 -13.5s-24 -11.167 -42 -18.5l49 -32l18.5 -14
c7 -5.33301 13.833 -11.166 20.5 -17.499s12.834 -12.5 18.501 -18.5s10.5 -11.333 14.5 -16c13.333 -16.667 22.666 -32.667 27.999 -48s8 -34.333 8 -57c0 -8 -0.666992 -17.667 -2 -29s-4.33301 -23.333 -9 -36s-11.834 -25.834 -21.501 -39.501
s-22.834 -27.167 -39.501 -40.5c-26 -20.667 -51.167 -33.834 -75.5 -39.501s-47.166 -8.5 -68.499 -8.5c-23.333 0 -44.333 2 -63 6s-35 9.16699 -49 15.5s-26.167 13.333 -36.5 21s-18.833 15.167 -25.5 22.5c-14.667 15.333 -25.667 32.666 -33 51.999s-11 39 -11 59
c0 16 2.16699 30.5 6.5 43.5s10 24.833 17 35.5s15 20.334 24 29.001s17.833 16.334 26.5 23.001c14.667 11.333 28.834 20.833 42.501 28.5l34.5 19.5zM301.002 400c18.667 8.66699 33.5 18.8271 44.5 30.4941s19 23.334 24 35.001s8.16699 22.834 9.5 33.501
s2 19.334 2 26.001c0 10 -1.5 22.833 -4.5 38.5s-10.833 30.834 -23.5 45.501c-14.667 16.667 -31 27.167 -49 31.5s-33.667 6.5 -47 6.5c-9.33301 0 -20.833 -1 -34.5 -3s-26.5 -7.66699 -38.5 -17c-9.33301 -7.33301 -17.833 -17.166 -25.5 -29.499
s-11.5 -27.166 -11.5 -44.499c0 -14 2.33301 -26.167 7 -36.5s10.5 -19.333 17.5 -27s14.167 -14.167 21.5 -19.5l20 -14zM225.002 328.993c-16.667 -9.33301 -30.335 -19.332 -41.002 -29.999s-19 -20.667 -25 -30c-13.333 -20.667 -21.833 -40.834 -25.5 -60.501
s-5.5 -37.167 -5.5 -52.5c0 -18 2.5 -37 7.5 -57s16.5 -38.667 34.5 -56c9.33301 -8.66699 21.333 -16.667 36 -24s33.334 -11 56.001 -11c30 0 54 5.33301 72 16s31 20.667 39 30c6.66699 7.33301 13.334 18 20.001 32s10 31.667 10 53c0 17.333 -2.5 32.5 -7.5 45.5
s-11.167 24.333 -18.5 34s-14.833 17.667 -22.5 24s-14.5 11.5 -20.5 15.5z" />
    <glyph glyph-name="nine" unicode="9" 
d="M371 323c-2.66699 -7.33301 -6.16895 -14.1689 -10.502 -20.502s-10.5 -13.166 -18.5 -20.499c-18.667 -17.333 -37.834 -28.333 -57.501 -33s-36.167 -7 -49.5 -7c-26.667 0 -52.334 6.33301 -77.001 19s-45.667 29.667 -63 51c-16 19.333 -28.333 41.666 -37 66.999
s-13 51 -13 77c0 10 0.833008 21.333 2.5 34s5 25.834 10 39.501s12.167 27.5 21.5 41.5s21.333 27.333 36 40c20.667 18 43.334 31.667 68.001 41s49.667 14 75 14s50 -4.16699 74 -12.5s45.667 -21.166 65 -38.499c16.667 -15.333 30.5 -32.666 41.5 -51.999
s19.833 -40 26.5 -62s11.334 -45.167 14.001 -69.5s4 -48.833 4 -73.5c0 -17.333 -0.833008 -36.166 -2.5 -56.499s-4.16699 -41.166 -7.5 -62.499s-8 -42.5 -14 -63.5s-13.333 -40.833 -22 -59.5c-12 -26 -25.667 -47.167 -41 -63.5s-31.5 -29.166 -48.5 -38.499
s-34.667 -15.833 -53 -19.5s-36.5 -5.5 -54.5 -5.5c-23.333 0 -47 2.83301 -71 8.5s-44.667 15.167 -62 28.5c-12.667 9.33301 -22.5 20.5 -29.5 33.5s-10.5 26.5 -10.5 40.5c0 8 1.33301 16.5 4 25.5s7.33398 17.167 14.001 24.5c7.33301 8 14.833 13.167 22.5 15.5
s14.167 3.5 19.5 3.5c19.333 0 34.166 -5.5 44.499 -16.5s15.5 -23.5 15.5 -37.5c0 -6.66699 -1 -13.334 -3 -20.001s-4.66699 -13.334 -8 -20.001c-4 -8.66699 -7.33301 -15.5 -10 -20.5s-4 -9.16699 -4 -12.5c0 -2 0.833008 -5 2.5 -9s5 -7.83301 10 -11.5
s12.5 -6.83398 22.5 -9.50098s23 -4 39 -4c5.33301 0 12.833 0.5 22.5 1.5s19.834 3.5 30.501 7.5s21.334 10.167 32.001 18.5s20 19.833 28 34.5c3.33301 6.66699 6.5 15.667 9.5 27s5.5 23.166 7.5 35.499s3.5 24.833 4.5 37.5s1.5 23.667 1.5 33zM370.998 513.997
c0 13.333 -1.49805 28.1689 -4.49805 44.502s-10.833 32.166 -23.5 47.499c-9.33301 11.333 -21.166 21 -35.499 29s-30.5 12 -48.5 12c-19.333 0 -36 -4.5 -50 -13.5s-25.333 -20.5 -34 -34.5c-9.33301 -14.667 -14.666 -29.667 -15.999 -45s-2 -31 -2 -47v-99
c0 -26 1.66699 -47 5 -63s11 -32 23 -48c6.66699 -8.66699 15.167 -16.834 25.5 -24.501s24.166 -11.5 41.499 -11.5c15.333 0 28.666 3.5 39.999 10.5s21.666 14.167 30.999 21.5c15.333 12.667 27.166 26.667 35.499 42s12.5 37 12.5 65v114z" />
    <glyph glyph-name="colon" unicode=":" horiz-adv-x="308" 
d="M98 381c0 15.333 5.5 28.5 16.5 39.5s24.167 16.5 39.5 16.5s28.5 -5.5 39.5 -16.5s16.5 -24.167 16.5 -39.5s-5.5 -28.5 -16.5 -39.5s-24.167 -16.5 -39.5 -16.5s-28.5 5.5 -39.5 16.5s-16.5 24.167 -16.5 39.5zM98 45c0 15.333 5.5 28.5 16.5 39.5
s24.167 16.5 39.5 16.5s28.5 -5.5 39.5 -16.5s16.5 -24.167 16.5 -39.5s-5.5 -28.5 -16.5 -39.5s-24.167 -16.5 -39.5 -16.5s-28.5 5.5 -39.5 16.5s-16.5 24.167 -16.5 39.5z" />
    <glyph glyph-name="semicolon" unicode=";" horiz-adv-x="328" 
d="M108 381c0 15.333 5.5 28.5 16.5 39.5s24.167 16.5 39.5 16.5s28.5 -5.5 39.5 -16.5s16.5 -24.167 16.5 -39.5s-5.5 -28.5 -16.5 -39.5s-24.167 -16.5 -39.5 -16.5s-28.5 5.5 -39.5 16.5s-16.5 24.167 -16.5 39.5zM129 -133c27.333 20.667 47.999 45.6699 61.999 75.0029
c2.66699 6 5 12.333 7 19s3 12.667 3 18c0 8.66699 -2.16699 15 -6.5 19s-8.16602 6 -11.499 6s-6 -0.833008 -8 -2.5l-6 -5c-2 -1.66699 -4.66699 -3.33398 -8 -5.00098s-8 -2.5 -14 -2.5c-16 0 -28.167 6.16699 -36.5 18.5s-12.5 25.166 -12.5 38.499
c0 16 5.16699 29.167 15.5 39.5s23.833 15.5 40.5 15.5c10.667 0 21 -2.33301 31 -7s18.667 -11.334 26 -20.001c5.33301 -6 9.83301 -14.333 13.5 -25s5.5 -24.334 5.5 -41.001c0 -16 -2.66699 -32.5 -8 -49.5s-12.666 -32.5 -21.999 -46.5
c-5.33301 -7.33301 -12.333 -15.666 -21 -24.999s-21.334 -21.333 -38.001 -36z" />
    <glyph glyph-name="less" unicode="&#x3c;" horiz-adv-x="532" 
d="M475 595l29 -54l-367 -212l367 -212l-29 -54l-461 266z" />
    <glyph glyph-name="equal" unicode="=" horiz-adv-x="698" 
d="M649 407v-42h-600v42h600zM649 267v-42h-600v42h600z" />
    <glyph glyph-name="greater" unicode="&#x3e;" horiz-adv-x="532" 
d="M57 63l-29 54l367 212l-367 212l29 54l461 -266z" />
    <glyph glyph-name="question" unicode="?" horiz-adv-x="524" 
d="M233 161l0.000976562 15c0 16 1 33.167 3 51.5s4.66699 35.833 8 52.5c6 28 13.833 51.333 23.5 70l30.5 57c9.33301 16 17.666 33 24.999 51s11 40.667 11 68c0 13.333 -1.66699 28.666 -5 45.999s-9.33301 31.666 -18 42.999c-11.333 14.667 -24 23.667 -38 27
s-25.667 5 -35 5c-13.333 0 -28.833 -2.33301 -46.5 -7s-33.167 -16 -46.5 -34c-4.66699 -6 -9 -13.333 -13 -22s-6 -16.667 -6 -24c0 -5.33301 1.16699 -11.166 3.5 -17.499s8.83301 -10.166 19.5 -11.499c4 -0.666992 7.83301 -0.833984 11.5 -0.500977s7.5 0.5 11.5 0.5
c13.333 0 24.333 -4.66699 33 -14c8 -8.66699 12 -19.667 12 -33c0 -6 -0.833008 -12.5 -2.5 -19.5s-5.83398 -13.833 -12.501 -20.5c-10 -10 -22 -15 -36 -15c-8 0 -17.167 2.33301 -27.5 7s-19.166 14 -26.499 28c-5.33301 9.33301 -9 19.5 -11 30.5s-3 21.167 -3 30.5
c0 25.333 5.16699 48 15.5 68s24.5 36 42.5 48c16 11.333 32.333 18.333 49 21s31.667 4 45 4c30 0 56.5 -4.66699 79.5 -14s41.833 -21.666 56.5 -36.999c12 -13.333 21.667 -29.333 29 -48s11 -39.667 11 -63c0 -18 -2.5 -34.833 -7.5 -50.5s-11.833 -30.5 -20.5 -44.5
c-11.333 -18.667 -24.333 -35.167 -39 -49.5l-39 -39.5c-25.333 -28 -42.333 -54.333 -51 -79s-13 -45.667 -13 -63v-17h-23zM182.001 45c0 15.333 5.5 28.5 16.5 39.5s24.167 16.5 39.5 16.5s28.5 -5.5 39.5 -16.5s16.5 -24.167 16.5 -39.5s-5.5 -28.5 -16.5 -39.5
s-24.167 -16.5 -39.5 -16.5s-28.5 5.5 -39.5 16.5s-16.5 24.167 -16.5 39.5z" />
    <glyph glyph-name="at" unicode="@" horiz-adv-x="714" 
d="M493 285c-5.33301 -18.667 -9.00391 -33.332 -11.0039 -43.999s-3 -19.334 -3 -26.001c0 -14.667 4.33301 -25 13 -31s18.667 -9 30 -9c4.66699 0 10.834 0.833008 18.501 2.5s16.334 5.16699 26.001 10.5s19.667 13.166 30 23.499s20.5 24.166 30.5 41.499
c10.667 18.667 18.667 37.834 24 57.501s8 41.167 8 64.5c0 38 -7.33301 72.833 -22 104.5s-34 59.167 -58 82.5c-21.333 20.667 -48.666 38.834 -81.999 54.501s-73.666 23.5 -120.999 23.5c-42 0 -81.333 -7 -118 -21s-70.334 -36.333 -101.001 -67
c-32 -32 -55.5 -67.167 -70.5 -105.5s-22.5 -76.833 -22.5 -115.5c0 -39.333 7.66699 -78.833 23 -118.5s39.333 -76.5 72 -110.5c30 -31.333 61.833 -53.666 95.5 -66.999s73.5 -20 119.5 -20c18 0 36.667 1.33301 56 4s39.666 8.66699 60.999 18
c17.333 7.33301 32.166 15 44.499 23s22.5 15.667 30.5 23l16 -20c-7.33301 -5.33301 -17.666 -12.333 -30.999 -21s-27.666 -16.667 -42.999 -24c-23.333 -11.333 -46.5 -19 -69.5 -23s-46.833 -6 -71.5 -6c-44 0 -85 6.66699 -123 20s-74.667 37.666 -110 72.999
c-36 36 -62.667 76.667 -80 122s-26 89 -26 131c0 42.667 8.16699 84.334 24.5 125.001s41.5 77.334 75.5 110.001c36 34.667 74.667 59.334 116 74.001s85 22 131 22c16 0 33.333 -1.16699 52 -3.5s37.834 -6.66602 57.501 -12.999s39.334 -15 59.001 -26
s38.5 -25.167 56.5 -42.5c25.333 -24 46 -53.667 62 -89s24 -75.333 24 -120c0 -25.333 -3 -48.5 -9 -69.5s-13.667 -40.167 -23 -57.5c-5.33301 -9.33301 -11.833 -19.5 -19.5 -30.5s-17.334 -21.333 -29.001 -31s-25.167 -17.834 -40.5 -24.501s-33 -10 -53 -10
c-6.66699 0 -14 0.5 -22 1.5s-16.167 3.16699 -24.5 6.5s-16.5 8.16602 -24.5 14.499s-15.333 14.5 -22 24.5c-16.667 -13.333 -32.667 -23.333 -48 -30s-32 -10 -50 -10c-22.667 0 -41.5 4.16699 -56.5 12.5s-26.833 17.166 -35.5 26.499c-13.333 14 -22.333 29.667 -27 47
s-7 35.666 -7 54.999c0 33.333 5.66699 61.333 17 84s22.666 40.667 33.999 54c20.667 24.667 43.334 42.167 68.001 52.5s51 15.5 79 15.5c12 0 25.667 -2.5 41 -7.5s31.333 -18.5 48 -40.5l11 35h62zM463.996 408.002c-3.33301 21.333 -11.8301 38.501 -25.4971 51.501
s-29.167 19.5 -46.5 19.5c-20.667 0 -37.834 -6.5 -51.501 -19.5s-24.834 -26.167 -33.501 -39.5c-16 -26 -26.667 -51.833 -32 -77.5s-8 -48.834 -8 -69.501c0 -16 0.833008 -28.5 2.5 -37.5s4.16699 -16.167 7.5 -21.5c4 -7.33301 10.333 -14.333 19 -21
s21.667 -10 39 -10c3.33301 0 7.66602 0.333008 12.999 1s11.5 2.5 18.5 5.5s14.5 7.5 22.5 13.5s16 14.667 24 26z" />
    <glyph glyph-name="A" unicode="A" horiz-adv-x="617" 
d="M125 133c-3.33301 -8 -7.33008 -19.666 -11.9971 -34.999s-7 -28 -7 -38c0 -9.33301 2.16699 -16.5 6.5 -21.5s11.166 -9.16699 20.499 -12.5c5.33301 -1.33301 11.5 -2.5 18.5 -3.5s13.167 -1.83301 18.5 -2.5v-20h-170v20
c11.333 1.33301 22.166 4.66602 32.499 9.99902s19.166 11.666 26.499 18.999c6 6.66699 11 13.834 15 21.501s6.66699 13.5 8 17.5l221 567h18l228 -635h68v-20h-275v20h89l-74 202h-196zM264.003 490.001l-98 -248h184z" />
    <glyph glyph-name="B" unicode="B" horiz-adv-x="665" 
d="M345 655c26 0 48.667 -1.33203 68 -3.99902s36 -6 50 -10s25.833 -8.33301 35.5 -13s17.834 -9.33398 24.501 -14.001c16 -11.333 29.5 -26.333 40.5 -45s16.5 -39.667 16.5 -63c0 -24.667 -5.83301 -45.334 -17.5 -62.001s-27.167 -31 -46.5 -43
s-40.5 -21.667 -63.5 -29s-46.167 -12 -69.5 -14v-5c21.333 -3.33301 44.666 -8.16602 69.999 -14.499s48 -14.833 68 -25.5c20.667 -11.333 37.167 -23.333 49.5 -36s21.5 -25.167 27.5 -37.5s9.83301 -24 11.5 -35s2.5 -20.167 2.5 -27.5c0 -28.667 -5.5 -53 -16.5 -73
s-23.5 -36 -37.5 -48c-25.333 -22 -56 -36.833 -92 -44.5s-72 -11.5 -108 -11.5h-316v20h77v615h-77v20h303zM304 365.001c21.333 0 43 3.16504 65 9.49805s39.333 15.833 52 28.5c7.33301 7.33301 13.166 15.833 17.499 25.5s7.5 19.334 9.5 29.001s3.33301 18.667 4 27
s1 15.166 1 20.499c0 6 -0.166992 13 -0.5 21s-1.5 16.333 -3.5 25s-4.66699 17.334 -8 26.001s-8 16.334 -14 23.001c-14 15.333 -31.667 25 -53 29s-40.666 6 -57.999 6h-85v-270h73zM344 19.999c13.333 0 28.8301 2 46.4971 6s32.834 10.667 45.501 20
c10 7.33301 20.833 21.5 32.5 42.5s17.5 52.167 17.5 93.5c0 26.667 -3.16699 50.167 -9.5 70.5s-19.833 38.5 -40.5 54.5c-17.333 13.333 -37.166 23 -59.499 29s-44.166 9 -65.499 9h-80v-325h113z" />
    <glyph glyph-name="C" unicode="C" horiz-adv-x="590" 
d="M544 666l0.00488281 -212.998h-20c-0.666992 7.33301 -2 16.833 -4 28.5s-4.83301 24 -8.5 37s-7.83398 25.5 -12.501 37.5s-10 22.333 -16 31c-12.667 17.333 -29.834 31.666 -51.501 42.999s-45.834 17 -72.501 17c-17.333 0 -33 -2 -47 -6
s-26.167 -9.16699 -36.5 -15.5s-19.333 -13 -27 -20s-13.834 -13.5 -18.501 -19.5c-12 -14.667 -21.333 -31 -28 -49s-11.667 -36 -15 -54s-5.5 -35 -6.5 -51s-1.5 -29.333 -1.5 -40v-162c0 -13.333 0.666992 -27.833 2 -43.5s4.16602 -31.5 8.49902 -47.5
s10.5 -31.5 18.5 -46.5s18.667 -28.833 32 -41.5s29 -23 47 -31s36.333 -12 55 -12c28 0 56.5 8.33301 85.5 25s52.167 38 69.5 64c12 18 20.833 37.167 26.5 57.5s10.5 41.5 14.5 63.5h24l-8 -218h-26c0 2 -0.5 5.33301 -1.5 10s-2.66699 9.16699 -5 13.5
s-5.5 8.16602 -9.5 11.499s-9.33301 5 -16 5c-8.66699 0 -17.167 -2.33301 -25.5 -7l-27.5 -15c-17.333 -9.33301 -35.5 -16.5 -54.5 -21.5s-39.833 -7.5 -62.5 -7.5c-19.333 0 -38.833 2.33301 -58.5 7s-39.167 12 -58.5 22s-37.666 22.833 -54.999 38.5s-33 34.5 -47 56.5
c-16 25.333 -29 55 -39 89s-15 73.333 -15 118c0 38 4.16699 74.167 12.5 108.5s22.833 67.833 43.5 100.5c18 28 37.333 51 58 69s41.667 32 63 42s42.166 16.833 62.499 20.5s38.833 5.5 55.5 5.5c15.333 0 28.833 -1.16699 40.5 -3.5s24.167 -5.83301 37.5 -10.5
l35 -12.5c8 -3 15.667 -4.5 23 -4.5c18 0 30 10.333 36 31h24z" />
    <glyph glyph-name="D" unicode="D" horiz-adv-x="719" 
d="M334 655c9.33301 0 21.9971 -0.500977 37.9971 -1.50098s33.833 -3.66699 53.5 -8s40.334 -10.666 62.001 -18.999s42.5 -19.833 62.5 -34.5c17.333 -13.333 33.666 -29.333 48.999 -48s28.833 -39.667 40.5 -63s20.834 -48.5 27.501 -75.5s10 -54.833 10 -83.5
c0 -29.333 -3.16699 -56.333 -9.5 -81s-14.666 -47.334 -24.999 -68.001s-21.833 -39 -34.5 -55s-25.334 -29.667 -38.001 -41c-19.333 -18 -38.666 -32 -57.999 -42s-37.833 -17.667 -55.5 -23s-34.667 -8.66602 -51 -9.99902s-31.166 -2 -44.499 -2h-319v20h77v615h-77v20
h292zM365.997 19.999c11.333 0 22.833 0.666992 34.5 2s23.334 4.5 35.001 9.5s23 12.333 34 22s21.5 22.834 31.5 39.501c10.667 18 19.334 36.833 26.001 56.5s11.667 39.5 15 59.5s5.66602 39.667 6.99902 59s2 37.666 2 54.999c0 16.667 -0.5 34.167 -1.5 52.5
s-2.66699 36.5 -5 54.5s-5.33301 35 -9 51s-8.16699 30.667 -13.5 44c-10 24.667 -22 44.167 -36 58.5s-29.167 25.333 -45.5 33s-33.333 12.667 -51 15s-34.834 3.5 -51.501 3.5h-107v-615h135z" />
    <glyph glyph-name="E" unicode="E" horiz-adv-x="601" 
d="M535 655l11.002 -188.997h-24c-3.33301 19.333 -8.5 39.5 -15.5 60.5s-14.5 37.5 -22.5 49.5c-14 20.667 -31.333 35.667 -52 45s-45.667 14 -75 14h-126v-275h36c4.66699 0 11 0.166992 19 0.5s16.333 2.16602 25 5.49902s17.334 8.66602 26.001 15.999s16 18 22 32
c4.66699 10 8.16699 21.167 10.5 33.5s4.16602 23.166 5.49902 32.499h20v-262h-20c-0.666992 2.66699 -1.5 7 -2.5 13s-2.16699 12.333 -3.5 19l-4 20c-1.33301 6.66699 -3 12.334 -5 17.001c-4.66699 12 -10.5 21.5 -17.5 28.5s-14.5 12.333 -22.5 16s-16 6 -24 7
s-15.667 1.5 -23 1.5h-42v-320h143c4 0 11 0.5 21 1.5s21.167 3.5 33.5 7.5s25.166 10.167 38.499 18.5s25.666 20.166 36.999 35.499c8.66699 11.333 16.5 26.5 23.5 45.5s13.167 44.167 18.5 75.5h24l-21 -204h-507v20h77v615h-77v20h493z" />
    <glyph glyph-name="F" unicode="F" horiz-adv-x="567" 
d="M542 655l11.002 -209.995h-24c-0.666992 5.33301 -1.5 13.166 -2.5 23.499s-3 21.666 -6 33.999s-6.83301 25 -11.5 38s-11 24.833 -19 35.5c-17.333 24 -37.333 39.833 -60 47.5s-47 11.5 -73 11.5h-126v-289h64c4.66699 0 11 0.166992 19 0.5
s16.333 2.16602 25 5.49902s17.334 8.66602 26.001 15.999s16 18 22 32c4.66699 10 8.16699 21.167 10.5 33.5s4.16602 23.166 5.49902 32.499h20v-262h-20c0 3.33301 -0.833008 12.166 -2.5 26.499s-5.83398 28.833 -12.501 43.5c-5.33301 12 -11.333 21.333 -18 28
s-13.834 11.834 -21.501 15.501s-15.5 6 -23.5 7s-16 1.5 -24 1.5h-70v-306h77v-20h-266v20h77v615h-77v20h500z" />
    <glyph glyph-name="G" unicode="G" horiz-adv-x="703" 
d="M423 253l-0.000976562 19h252v-19h-70v-39c0 -36 -8.66699 -69.167 -26 -99.5s-41 -55.5 -71 -75.5l-22.5 -13.5c-9.66699 -5.66699 -21.167 -11.167 -34.5 -16.5s-28.5 -10 -45.5 -14s-35.167 -6 -54.5 -6c-34 0 -67 5.5 -99 16.5s-60.667 27.5 -86 49.5
c-34 29.333 -61.333 67.833 -82 115.5s-31 100.167 -31 157.5c0 30 2.83301 57.667 8.5 83s13.167 48.5 22.5 69.5s19.833 39.833 31.5 56.5s23.834 31.334 36.501 44.001c27.333 28 57 49.167 89 63.5s67.333 21.5 106 21.5c28.667 0 56.667 -4.66699 84 -14
c11.333 -4 22 -8 32 -12s19.667 -6 29 -6c10.667 0 19.167 3 25.5 9s11.166 13.667 14.499 23h23v-213h-20c-2 22 -6.83301 45.833 -14.5 71.5s-17.834 46.5 -30.501 62.5c-4.66699 6 -10.5 12.5 -17.5 19.5s-15.667 13.333 -26 19s-22.5 10.5 -36.5 14.5s-30 6 -48 6
c-29.333 0 -57.166 -6.33301 -83.499 -19s-48.166 -37.334 -65.499 -74.001c-12 -25.333 -20.667 -55.666 -26 -90.999s-8 -79.333 -8 -132c0 -38 1.66699 -71.5 5 -100.5s7.66602 -54.167 12.999 -75.5s11.333 -39.333 18 -54s13.334 -26.334 20.001 -35.001
c2 -3.33301 5.83301 -8 11.5 -14s13.167 -12.167 22.5 -18.5s20.5 -11.833 33.5 -16.5s28.167 -7 45.5 -7c16.667 0 34.167 2.5 52.5 7.5s33.833 12.833 46.5 23.5c20 16 32.667 36 38 60s8 51 8 81v72h-70z" />
    <glyph glyph-name="H" unicode="H" horiz-adv-x="757" 
d="M301 655v-20h-70v-275h295v275h-70v20h259v-20h-77v-615h77v-20h-259v20h70v320h-295v-320h70v-20h-259v20h77v615h-77v20h259z" />
    <glyph glyph-name="I" unicode="I" horiz-adv-x="350" 
d="M308 655v-20h-77v-615h77v-20h-266v20h77v615h-77v20h266z" />
    <glyph glyph-name="J" unicode="J" horiz-adv-x="454" 
d="M412 655l-0.00292969 -20.001h-77v-466c0 -22.667 -2.16699 -43.5 -6.5 -62.5s-13.5 -37.167 -27.5 -54.5c-16 -20.667 -36.167 -36.334 -60.5 -47.001s-50.166 -16 -77.499 -16c-17.333 0 -33.666 2.33301 -48.999 7s-29 11 -41 19c-18 12 -32.333 27.333 -43 46
s-16 37 -16 55c0 19.333 5.83301 35.333 17.5 48s27.834 19 48.501 19c18.667 0 32.667 -6.16699 42 -18.5s14 -25.166 14 -38.499c0 -11.333 -2.66699 -20.5 -8 -27.5s-10.666 -13.167 -15.999 -18.5c-4 -3.33301 -8.66699 -7.66602 -14 -12.999s-8 -11 -8 -17
c0 -9.33301 6 -18.5 18 -27.5s27 -13.5 45 -13.5c13.333 0 24.666 2.5 33.999 7.5s17 11.5 23 19.5c4.66699 6 8 12.667 10 20s3 17.333 3 30v549h-77v20h266z" />
    <glyph glyph-name="K" unicode="K" horiz-adv-x="684" 
d="M301 655l0.000976562 -20h-70v-322l225 230c5.33301 5.33301 11.666 12.5 18.999 21.5s11 18.5 11 28.5c0 7.33301 -2.66699 14.5 -8 21.5s-14 12.167 -26 15.5c-6.66699 2 -15 3.33301 -25 4s-18.667 1 -26 1v20h235v-20c-20 -0.666992 -36.667 -4 -50 -10
s-25.333 -13 -36 -21c-4.66699 -3.33301 -10.5 -8 -17.5 -14s-14 -12.5 -21 -19.5l-20.5 -20c-6.66699 -6.33301 -12 -11.833 -16 -16.5l-98 -101l256 -413h37v-20h-272v20h92l-188 335l-71 -73v-262h70v-20h-259v20h77v615h-77v20h259z" />
    <glyph glyph-name="L" unicode="L" horiz-adv-x="578" 
d="M308 655l0.000976562 -20.001h-77v-615h116c4 0 10.167 0.5 18.5 1.5s17.833 3.33301 28.5 7s22.167 9 34.5 16s24.833 16.833 37.5 29.5c15.333 15.333 30.166 34.333 44.499 57s25.833 48.334 34.5 77.001h19l-31 -208h-491v20h77v615h-77v20h266z" />
    <glyph glyph-name="M" unicode="M" horiz-adv-x="847" 
d="M805 635l-77.001 -0.00292969v-615h77v-20h-266v20h77v575l-222 -607h-18l-232 602v-487c0 -7.33301 0.333008 -15.666 1 -24.999s4.66699 -19 12 -29c7.33301 -11.333 15.666 -18.666 24.999 -21.999s22 -5.66602 38 -6.99902v-20h-178v20
c18.667 -1.33301 33.834 1.83398 45.501 9.50098s20.167 16.5 25.5 26.5c2.66699 5.33301 5 12.833 7 22.5s3 18.167 3 25.5v475c0 13.333 -2.16699 23.666 -6.5 30.999s-9.66602 12.833 -15.999 16.5s-13 6 -20 7s-13.167 1.5 -18.5 1.5h-18l1 20h189l195 -507l187 507h189
v-20z" />
    <glyph glyph-name="N" unicode="N" horiz-adv-x="709" 
d="M212 655l348.003 -460.001v374c0 5.33301 -1 12.833 -3 22.5s-8.33301 18.5 -19 26.5c-7.33301 5.33301 -17 9.66602 -29 12.999s-23.667 4.66602 -35 3.99902v20h193v-20c-19.333 0.666992 -34.666 -1.33301 -45.999 -6s-19.666 -10.667 -24.999 -18
c-8 -10 -12.5 -21.167 -13.5 -33.5s-1.5 -23.166 -1.5 -32.499v-556h-7l-425 566v-445c0 -19.333 2.5 -34.166 7.5 -44.499s11.167 -18.5 18.5 -24.5s16.166 -11 26.499 -15s21.833 -6 34.5 -6v-20h-194v20c15.333 -1.33301 29.166 0.333984 41.499 5.00098
s22.166 11.667 29.499 21c7.33301 10 11.666 20.833 12.999 32.5s2 22.167 2 31.5v473c0 9.33301 -2.5 17.333 -7.5 24s-11.333 12 -19 16s-15.834 7 -24.501 9s-16.667 3 -24 3v20h159z" />
    <glyph glyph-name="O" unicode="O" horiz-adv-x="730" 
d="M50 328c0 42 6.66895 81.5 20.002 118.5s31 69.833 53 98.5c16 20.667 33.833 38.5 53.5 53.5s40 27.5 61 37.5s42.5 17.5 64.5 22.5s43 7.5 63 7.5s41 -2.5 63 -7.5s43.5 -12.5 64.5 -22.5s41.333 -22.5 61 -37.5s37.5 -32.833 53.5 -53.5
c22 -28.667 39.667 -61.5 53 -98.5s20 -76.5 20 -118.5c0 -42.667 -6.66699 -82.334 -20 -119.001s-31 -69.334 -53 -98.001c-18.667 -24 -38.834 -44 -60.501 -60s-43.334 -28.5 -65.001 -37.5s-42.667 -15.333 -63 -19s-38.166 -5.5 -53.499 -5.5
s-33.166 1.83301 -53.499 5.5s-41.333 10 -63 19s-43.334 21.5 -65.001 37.5s-41.834 36 -60.501 60c-22 28.667 -39.667 61.334 -53 98.001s-20 76.334 -20 119.001zM176.002 328c0 -34 1.33301 -65.833 4 -95.5s8.33398 -57.167 17.001 -82.5c8 -24.667 18.5 -46 31.5 -64
s27.167 -32.667 42.5 -44s31 -19.833 47 -25.5s31.667 -8.5 47 -8.5c14.667 0 30.167 2.83301 46.5 8.5s32.166 14.167 47.499 25.5s29.5 26 42.5 44s23.5 39.333 31.5 64c8.66699 25.333 14.334 52.833 17.001 82.5s4 61.5 4 95.5s-1.33301 65.833 -4 95.5
s-8.33398 57.167 -17.001 82.5c-8 24.667 -18.5 45.834 -31.5 63.501s-27.167 32.167 -42.5 43.5s-31.166 19.833 -47.499 25.5s-31.833 8.5 -46.5 8.5c-15.333 0 -31 -2.83301 -47 -8.5s-31.667 -14.167 -47 -25.5s-29.5 -25.833 -42.5 -43.5s-23.5 -38.834 -31.5 -63.501
c-8.66699 -25.333 -14.334 -52.833 -17.001 -82.5s-4 -61.5 -4 -95.5z" />
    <glyph glyph-name="P" unicode="P" horiz-adv-x="628" 
d="M330 655c34.667 0 69.5 -3.82812 104.5 -11.4951s65.833 -23.834 92.5 -48.501c13.333 -12.667 24 -25.667 32 -39s14 -26.333 18 -39s6.5 -24.334 7.5 -35.001s1.5 -19.334 1.5 -26.001c0 -18.667 -1.83301 -35.334 -5.5 -50.001s-8.33398 -27.5 -14.001 -38.5
s-11.5 -20.333 -17.5 -28s-11.333 -13.834 -16 -18.501c-23.333 -22.667 -53.166 -38.5 -89.499 -47.5s-74.5 -13.5 -114.5 -13.5h-98v-240h77v-20h-266v20h77v615h-77v20h288zM300 280.005c4 0 10.1689 0.332031 18.502 0.999023s17.5 1.83398 27.5 3.50098s20 4 30 7
s19 6.83301 27 11.5c21.333 13.333 36.166 31 44.499 53s12.5 42.333 12.5 61v73c0 6.66699 -0.166992 14.834 -0.5 24.501s-2 19.667 -5 30s-7.5 20.666 -13.5 30.999s-14.333 19.833 -25 28.5c-17.333 14 -36.333 22.667 -57 26s-40.334 5 -59.001 5h-69v-355h69z" />
    <glyph glyph-name="Q" unicode="Q" horiz-adv-x="738" 
d="M238 -72c9.33301 9.33301 18.332 16.8359 26.999 22.5029s17.667 11.167 27 16.5c11.333 6 21.666 10.833 30.999 14.5s20.333 6.16699 33 7.5c-17.333 1.33301 -35.833 4.33301 -55.5 9s-39.5 11.667 -59.5 21s-39.833 21.5 -59.5 36.5s-38.167 33.833 -55.5 56.5
c-8.66699 11.333 -17.334 24.333 -26.001 39s-16.5 31 -23.5 49s-12.667 37.667 -17 59s-6.5 44.333 -6.5 69c0 24 2.16699 46.667 6.5 68s10 41 17 59s14.833 34.333 23.5 49s17.334 27.667 26.001 39c34 43.333 72.333 74.666 115 93.999s85 29 127 29
s84.667 -9.66699 128 -29s81.666 -50.666 114.999 -93.999c8.66699 -11.333 17.334 -24.333 26.001 -39s16.5 -31 23.5 -49s12.667 -37.667 17 -59s6.5 -44 6.5 -68c0 -24.667 -2.16699 -47.667 -6.5 -69s-10 -41 -17 -59s-14.833 -34.333 -23.5 -49
s-17.334 -27.667 -26.001 -39c-32 -40.667 -67.167 -70.167 -105.5 -88.5s-76.5 -29.5 -114.5 -33.5c9.33301 -1.33301 21.666 -5.16602 36.999 -11.499s32.666 -19.833 51.999 -40.5c4 -4 7.33301 -7.66699 10 -11l8.5 -10.5l10.5 -13.5c4 -5.33301 9.66699 -12 17 -20
c6.66699 -7.33301 15 -15.5 25 -24.5s20.667 -13.5 32 -13.5s20.5 4 27.5 12s10.5 15.667 10.5 23c0 4.66699 -1.16699 9.16699 -3.5 13.5s-4.83301 8.16602 -7.5 11.499c-6.66699 8.66699 -10 17.667 -10 27s3.33301 18.666 10 27.999s16.667 14 30 14
c8.66699 0 18.334 -3.33301 29.001 -10s16 -18.334 16 -35.001c0 -14 -3.83301 -27.833 -11.5 -41.5s-16.167 -24.834 -25.5 -33.501c-15.333 -14.667 -34.166 -26 -56.499 -34s-44.833 -12 -67.5 -12c-12.667 0 -23.5 1.33301 -32.5 4s-18.833 7 -29.5 13
c-10.667 6.66699 -19.667 13.167 -27 19.5s-15 13.5 -23 21.5c-11.333 10.667 -19.166 18.334 -23.499 23.001s-7.5 8.16699 -9.5 10.5s-4.16699 4.66602 -6.5 6.99902l-12.5 12.5c-6 6 -12.833 11.667 -20.5 17s-16.5 8 -26.5 8c-9.33301 0 -20.166 -3 -32.499 -9
s-23.166 -12.667 -32.499 -20zM367.999 647.003c-37.333 0 -71.166 -13.001 -101.499 -39.001s-52.5 -60.333 -66.5 -103c-8.66699 -25.333 -14.334 -52.666 -17.001 -81.999s-4 -61 -4 -95s1.33301 -65.833 4 -95.5s8.33398 -57.167 17.001 -82.5
c8 -24 18.333 -44.833 31 -62.5s26.5 -32.334 41.5 -44.001s30.667 -20.334 47 -26.001s32.5 -8.5 48.5 -8.5c15.333 0 31.166 2.66699 47.499 8s32.166 13.833 47.499 25.5s29.5 26.334 42.5 44.001s23.5 38.834 31.5 63.501c8.66699 25.333 14.334 52.833 17.001 82.5
s4 61.5 4 95.5s-1.33301 65.667 -4 95s-8.33398 56.666 -17.001 81.999c-7.33301 20.667 -16.666 39.834 -27.999 57.501s-24.333 32.667 -39 45s-30.667 22 -48 29s-35.333 10.5 -54 10.5z" />
    <glyph glyph-name="R" unicode="R" horiz-adv-x="682" 
d="M313 655c50 0 90.6631 -2.16406 121.996 -6.49707s57.333 -12.166 78 -23.499c6 -3.33301 13.167 -8 21.5 -14s16.5 -13.667 24.5 -23s14.667 -20.5 20 -33.5s8 -28.167 8 -45.5c0 -24 -4.33301 -44.833 -13 -62.5s-20.667 -32.834 -36 -45.501
c-11.333 -9.33301 -23.833 -17 -37.5 -23s-27.667 -11 -42 -15s-28.166 -7.16699 -41.499 -9.5s-25 -3.83301 -35 -4.5v-4c12.667 -2 27.334 -5.33301 44.001 -10s34 -11.334 52 -20.001s32.167 -18 42.5 -28s18.333 -20.667 24 -32s9.66699 -23.166 12 -35.499
s4.16602 -24.833 5.49902 -37.5l6.5 -56c1.66699 -14.667 3 -26.834 4 -36.501s2.16699 -17.5 3.5 -23.5s3 -12 5 -18c2 -5.33301 4.66699 -10.5 8 -15.5s9 -7.5 17 -7.5c9.33301 0 19.333 4.33301 30 13s18.334 15.667 23.001 21l15 -16
c-9.33301 -13.333 -18.833 -23.5 -28.5 -30.5s-19 -12.333 -28 -16s-17.667 -5.83398 -26 -6.50098s-16.166 -1 -23.499 -1c-13.333 0 -28.5 2 -45.5 6s-32.167 14.667 -45.5 32c-10.667 14.667 -17.5 32.334 -20.5 53.001s-5.5 40.667 -7.5 60l-6 53.5
c-2 17.667 -4.66699 34.167 -8 49.5s-7.66602 29.166 -12.999 41.499s-12.333 22.166 -21 29.499c-12 10 -26 16.167 -42 18.5s-31.667 3.5 -47 3.5h-81v-316h77v-20h-266v20h77v615h-77v20h271zM300.996 356.003c21.333 0 43.667 2.50098 67 7.50098s44 17.167 62 36.5
c12.667 13.333 21 28.666 25 45.999s6 38.666 6 63.999c0 22.667 -3.33301 43.334 -10 62.001s-19.334 33.334 -38.001 44.001c-6.66699 4 -14.834 7.16699 -24.501 9.5s-19.667 4.16602 -30 5.49902s-20.166 2.33301 -29.499 3s-16.666 1 -21.999 1h-76v-279h70z" />
    <glyph glyph-name="S" unicode="S" horiz-adv-x="528" 
d="M56 209c6.66699 -16 15.501 -35.0039 26.501 -57.0039s22.5 -40.667 34.5 -56c12.667 -17.333 26.667 -31.5 42 -42.5s30.666 -20 45.999 -27s30.333 -11.833 45 -14.5s28.334 -4 41.001 -4c23.333 0 44.5 4 63.5 12s34.167 18.667 45.5 32
c8 8.66699 15.333 20.167 22 34.5s10 32.166 10 53.499c0 18 -2.66699 33.333 -8 46s-11.666 23.334 -18.999 32.001c-6.66699 7.33301 -16.334 15.166 -29.001 23.499s-29.667 15.5 -51 21.5l-118 32c-17.333 4.66699 -36 12.5 -56 23.5s-36.667 24.833 -50 41.5
c-8.66699 10.667 -15.334 22 -20.001 34s-8.16699 23.5 -10.5 34.5s-3.83301 20.833 -4.5 29.5s-1 15 -1 19c0 40 6.66699 71.833 20 95.5s28 42.167 44 55.5c16.667 13.333 34 23 52 29s37 9 57 9c17.333 0 33.833 -1.5 49.5 -4.5s30.5 -7.16699 44.5 -12.5
c14.667 -5.33301 26 -9.83301 34 -13.5s15.667 -5.5 23 -5.5c8.66699 0 15.334 2.33301 20.001 7s9.66699 10.667 15 18h16l4 -158h-14c-6 13.333 -14.5 29.333 -25.5 48s-22.833 34.334 -35.5 47.001c-17.333 18 -38 31.667 -62 41s-46.667 14 -68 14
c-20 0 -38.167 -3.5 -54.5 -10.5s-29.5 -15.5 -39.5 -25.5c-11.333 -11.333 -19.666 -24.666 -24.999 -39.999s-8 -30.666 -8 -45.999c0 -30.667 11.333 -57 34 -79c14 -13.333 29 -22.5 45 -27.5s30.667 -9.16699 44 -12.5l102 -27c10 -2.66699 20.667 -6.16699 32 -10.5
s22.666 -10 33.999 -17s22.166 -15.667 32.499 -26s19.5 -22.5 27.5 -36.5c8.66699 -15.333 14.667 -31.666 18 -48.999s5 -35.333 5 -54c0 -26 -3.83301 -50 -11.5 -72s-17.834 -40.667 -30.501 -56c-13.333 -17.333 -32.666 -33.166 -57.999 -47.499s-57 -21.5 -95 -21.5
c-5.33301 0 -12.5 0.333008 -21.5 1s-19 1.83398 -30 3.50098s-22.5 4.16699 -34.5 7.5s-24 7.66602 -36 12.999c-13.333 6 -24.833 11.5 -34.5 16.5s-19.167 7.5 -28.5 7.5c-11.333 0 -20.5 -3.5 -27.5 -10.5s-11.167 -16.167 -12.5 -27.5h-24v209h14z" />
    <glyph glyph-name="T" unicode="T" horiz-adv-x="634" 
d="M261 635c-10.667 0 -23.334 -0.333008 -38.001 -1s-26.667 -1.66699 -36 -3c-24 -3.33301 -44 -10.5 -60 -21.5s-28.667 -23.167 -38 -36.5c-6 -9.33301 -11.333 -19.5 -16 -30.5s-8.5 -22.167 -11.5 -33.5s-5.5 -22.166 -7.5 -32.499s-3.33301 -19.5 -4 -27.5h-28l5 206
h580l5 -206h-28c-0.666992 4 -1.66699 10.833 -3 20.5s-3.5 20.5 -6.5 32.5s-7 24.333 -12 37s-10.833 24 -17.5 34c-9.33301 14 -21.666 26.333 -36.999 37s-31.666 17.667 -48.999 21c-6.66699 1.33301 -15.834 2.16602 -27.501 2.49902s-31.167 0.833008 -58.5 1.5v-615
h77v-20h-266v20h77v615z" />
    <glyph glyph-name="U" unicode="U" horiz-adv-x="731" 
d="M308 655l-0.00292969 -19.9971h-77v-468c0 -17.333 1.5 -33 4.5 -47s11.167 -28.667 24.5 -44c10.667 -13.333 27.167 -26.166 49.5 -38.499s52.5 -18.5 90.5 -18.5c37.333 0 66.833 5.33301 88.5 16s37.167 20.667 46.5 30c12 11.333 21.167 23.333 27.5 36
s10.833 25.167 13.5 37.5s4.16699 24 4.5 35s0.5 21.167 0.5 30.5v361c0 15.333 -2.33301 27 -7 35s-9 13.667 -13 17c-7.33301 6 -16.5 10.167 -27.5 12.5s-24.167 4.16602 -39.5 5.49902v20h195v-20c-15.333 -0.666992 -29.166 -1.66699 -41.499 -3
s-22.833 -7.66602 -31.5 -18.999c-3.33301 -3.33301 -6.5 -10 -9.5 -20s-4.5 -26 -4.5 -48v-362c0 -22.667 -3.66699 -45.834 -11 -69.501s-22.666 -46.167 -45.999 -67.5c-19.333 -18 -43.166 -32 -71.499 -42s-58.5 -15 -90.5 -15c-24 0 -48.667 2.16699 -74 6.5
s-47.666 10.166 -66.999 17.499c-15.333 6 -30.166 13.5 -44.499 22.5s-26.5 19.167 -36.5 30.5s-17.833 22.666 -23.5 33.999s-9.83398 22.166 -12.501 32.499s-4.33398 19.833 -5.00098 28.5s-1 16 -1 22v452h-77v20h266z" />
    <glyph glyph-name="V" unicode="V" horiz-adv-x="655" 
d="M293 655l-0.00292969 -20h-79l169 -461l137 361c3.33301 8.66699 6 16.667 8 24s3 15.666 3 24.999c0 11.333 -1.66699 19.833 -5 25.5s-6.66602 9.83398 -9.99902 12.501c-5.33301 4 -12.5 7.16699 -21.5 9.5s-17.5 3.5 -25.5 3.5v20h172v-20
c-9.33301 -0.666992 -19.166 -2.66699 -29.499 -6s-19.166 -8 -26.499 -14c-4 -3.33301 -9.33301 -9.83301 -16 -19.5s-14 -25.167 -22 -46.5l-210 -560l-256 646h-67v20h279z" />
    <glyph glyph-name="W" unicode="W" horiz-adv-x="1009" 
d="M263 655l0.000976562 -20.002h-74l171 -461l122 317l-53 144h-69v20h265v-20h-76l173 -461l130 321c4 10.667 7.83301 21.834 11.5 33.501s5.5 23.834 5.5 36.501c0 8 -1.16699 16.167 -3.5 24.5s-7.5 16.166 -15.5 23.499c-4.66699 4 -10.5 7.33301 -17.5 10
s-14.333 5 -22 7s-15.334 3.33301 -23.001 4s-14.167 1 -19.5 1v20h227v-20c-20 -1.33301 -35.5 -6.16602 -46.5 -14.499s-20.167 -17.833 -27.5 -28.5c-3.33301 -4.66699 -6.83301 -10.667 -10.5 -18l-11 -22.5l-10.5 -23c-3.33301 -7.66699 -6 -14.5 -8 -20.5l-208 -519
l-179 467l-185 -467l-242 646h-53v20h249z" />
    <glyph glyph-name="X" unicode="X" horiz-adv-x="700" 
d="M278 655l-0.000976562 -20.002h-64l150 -226l100 153c2 3.33301 4 8.33301 6 15s3 12.334 3 17.001c0 4 -0.833008 8.33301 -2.5 13s-4.66699 9 -9 13s-10.166 7.5 -17.499 10.5s-17 4.5 -29 4.5h-14v20h219v-20c-18.667 -1.33301 -33 -3.16602 -43 -5.49902
s-18.333 -5.16602 -25 -8.49902c-6 -3.33301 -12.333 -7.83301 -19 -13.5s-13 -11.834 -19 -18.501s-11.667 -13.5 -17 -20.5s-9.66602 -13.167 -12.999 -18.5l-105 -162l241 -368h58v-20h-266v20h78l-186 280l-116 -179c-3.33301 -5.33301 -6.5 -12.333 -9.5 -21
s-4.5 -15.334 -4.5 -20.001c0 -4 0.666992 -9.16699 2 -15.5s4.5 -12.5 9.5 -18.5s12.833 -11.5 23.5 -16.5s25 -8.16699 43 -9.5v-20h-230v20c10 2.66699 22.333 6.33398 37 11.001s27.334 10.667 38.001 18c9.33301 6 19.166 14.667 29.499 26s18.166 21 23.499 29
l142 217l-211 314h-59v20h256z" />
    <glyph glyph-name="Y" unicode="Y" horiz-adv-x="656" 
d="M75 635l-60.999 -0.00195312v20h263v-20h-71l168 -329l117 217c3.33301 6 7.16602 13.667 11.499 23s6.5 20.333 6.5 33c0 14 -3 24.5 -9 31.5s-11.667 11.833 -17 14.5c-5.33301 3.33301 -13.5 5.83301 -24.5 7.5s-21.167 2.5 -30.5 2.5v20h214v-20
c-16 0.666992 -30.5 -2.66602 -43.5 -9.99902s-24.167 -15.666 -33.5 -24.999c-5.33301 -5.33301 -11.333 -13.5 -18 -24.5s-16.667 -28.5 -30 -52.5l-128 -237v-266h77v-20h-266v20h77v241z" />
    <glyph glyph-name="Z" unicode="Z" horiz-adv-x="615" 
d="M117 655h456l-388 -635h188c8.66699 0 17.667 0.5 27 1.5s19 3.33301 29 7s20.167 9.16699 30.5 16.5s20.5 17.333 30.5 30c9.33301 11.333 19 25.833 29 43.5s18.667 36.167 26 55.5h21l-21 -174h-503l404 636h-151c-23.333 0 -44 -3.83301 -62 -11.5
s-34.667 -19.167 -50 -34.5c-10.667 -10 -21 -22.667 -31 -38s-21.667 -36.333 -35 -63h-24z" />
    <glyph glyph-name="bracketleft" unicode="[" horiz-adv-x="446" 
d="M376 -213h-208v868h208v-24h-106v-820h106v-24z" />
    <glyph glyph-name="backslash" unicode="\" horiz-adv-x="475" 
d="M28 655h50l369 -868h-50z" />
    <glyph glyph-name="bracketright" unicode="]" horiz-adv-x="446" 
d="M168 655h208v-868h-208v24h106v820h-106v24z" />
    <glyph glyph-name="asciicircum" unicode="^" horiz-adv-x="364" 
d="M101 493h-84l165 165l165 -165h-84l-81 81z" />
    <glyph glyph-name="underscore" unicode="_" horiz-adv-x="532" 
d="M0 -180h532v-45h-532v45z" />
    <glyph glyph-name="grave" unicode="`" horiz-adv-x="340" 
d="M279 518h-25l-193 137h121z" />
    <glyph glyph-name="a" unicode="a" horiz-adv-x="476" 
d="M476 40c-8.66699 -12 -17.502 -21.333 -26.502 -28s-17.833 -11.667 -26.5 -15s-16.5 -5.5 -23.5 -6.5s-12.833 -1.5 -17.5 -1.5c-13.333 0 -25.5 1.83301 -36.5 5.5s-21.167 10.5 -30.5 20.5c-9.33301 10.667 -16.666 23.667 -21.999 39l-26.5 -21
c-11 -8.66699 -21.5 -15.667 -31.5 -21c-12 -6.66699 -26 -12.167 -42 -16.5s-31.667 -6.5 -47 -6.5c-20 0 -36.5 3.16699 -49.5 9.5s-22.833 12.166 -29.5 17.499c-14 11.333 -23.667 24 -29 38s-8 29 -8 45c0 24.667 5.5 45.334 16.5 62.001s26.5 31 46.5 43l18.5 9
c8.33301 4 19.333 8 33 12s30 7.5 49 10.5s41.167 4.5 66.5 4.5h33v112c0 10 -1 19.833 -3 29.5s-7.33301 18.167 -16 25.5c-5.33301 4.66699 -12.5 7.83398 -21.5 9.50098s-17.833 2.5 -26.5 2.5c-13.333 0 -26.666 -1.66699 -39.999 -5
c-11.333 -3.33301 -18.333 -7.33301 -21 -12s-4 -9 -4 -13c0 -4.66699 1.83301 -9.66699 5.5 -15s7.5 -12.333 11.5 -21c4.66699 -10.667 6.83398 -21 6.50098 -31s-2.83301 -19 -7.5 -27s-11.334 -14.5 -20.001 -19.5s-19 -7.5 -31 -7.5
c-15.333 0 -29.833 4.83301 -43.5 14.5s-20.5 24.5 -20.5 44.5c0 21.333 5.83301 38.5 17.5 51.5s25.167 23.833 40.5 32.5c19.333 10.667 39.166 17.667 59.499 21s40.5 5 60.5 5c36 0 65.833 -5 89.5 -15s39.834 -22 48.501 -36
c6.66699 -10.667 10.5 -22.334 11.5 -35.001s1.5 -25 1.5 -37v-260c0 -6 1 -13 3 -21s9.33301 -12 22 -12c8 0 16.5 3.5 25.5 10.5s15.833 14.167 20.5 21.5zM292.998 224l-15.998 0.00195312c-22 0 -40.333 -1.66699 -55 -5s-26.834 -7.5 -36.501 -12.5
s-17.167 -10.167 -22.5 -15.5s-9 -10.333 -11 -15c-4 -8 -6.66699 -18.5 -8 -31.5s-2 -25.167 -2 -36.5c0 -9.33301 1 -19.333 3 -30s6.66699 -20.334 14 -29.001c7.33301 -7.33301 14.833 -12.166 22.5 -14.499s15.167 -3.5 22.5 -3.5c12 0 21.667 1.66699 29 5
s15.666 7.66602 24.999 12.999c11.333 7.33301 20 13.666 26 18.999s9 11 9 17v139z" />
    <glyph glyph-name="b" unicode="b" horiz-adv-x="501" 
d="M17 635l0.00195312 17h99c15.333 0 27.5 0.333008 36.5 1s17.5 2.33398 25.5 5.00098v-268c7.33301 10.667 15.666 19.167 24.999 25.5s18.833 11 28.5 14s18.834 5 27.501 6s16 1.5 22 1.5c30 0 56.5 -6.33301 79.5 -19s43.833 -29.667 62.5 -51
c20 -23.333 34.333 -47.833 43 -73.5s13 -52.5 13 -80.5c0 -30.667 -4.33301 -57.5 -13 -80.5s-18.334 -42.167 -29.001 -57.5c-13.333 -20 -27.5 -35.667 -42.5 -47s-29.333 -19.833 -43 -25.5s-26.334 -9.33398 -38.001 -11.001s-20.834 -2.5 -27.501 -2.5
c-27.333 0 -51.333 7.33301 -72 22c-10 7.33301 -17.667 14.833 -23 22.5s-9.66602 14.5 -12.999 20.5v-54h-161v17h63v618h-63zM367.002 270c0 23.333 -1.66797 41.9971 -5.00098 55.9971s-6.66602 25.333 -9.99902 34c-5.33301 12.667 -11.833 22.834 -19.5 30.501
s-15.5 13.667 -23.5 18s-16 7.16602 -24 8.49902s-15 2 -21 2c-10 0 -20.167 -2.16699 -30.5 -6.5s-19.666 -10.166 -27.999 -17.499s-15 -16 -20 -26s-7.5 -20.667 -7.5 -32v-223c0 -10.667 1.16699 -20.667 3.5 -30s7.16602 -19.666 14.499 -30.999
c12.667 -18.667 26.5 -31 41.5 -37s28.167 -9 39.5 -9c12 0 24.5 3.16699 37.5 9.5s24.167 16.5 33.5 30.5c6 10 10.667 22.333 14 37s5 32.334 5 53.001v133z" />
    <glyph glyph-name="c" unicode="c" horiz-adv-x="413" 
d="M391 104c-3.33301 -8.66699 -7.83496 -18.5049 -13.502 -29.5049s-12.167 -21.167 -19.5 -30.5c-18.667 -23.333 -38 -38.333 -58 -45s-40.667 -10 -62 -10c-28 0 -55.5 4.33301 -82.5 13s-53.167 27.334 -78.5 56.001c-18 20.667 -31.667 42.667 -41 66
s-14 49.333 -14 78c0 43.333 9 82 27 116s40.667 61 68 81c18.667 14 37.5 23.833 56.5 29.5s38.833 8.5 59.5 8.5c19.333 0 38.666 -2.33301 57.999 -7s36.666 -12 51.999 -22c16.667 -11.333 28.334 -24.166 35.001 -38.499s10 -27.833 10 -40.5
c0 -18.667 -5.66699 -33.5 -17 -44.5s-25 -16.5 -41 -16.5c-18.667 0 -33.5 5.66699 -44.5 17s-16.5 24 -16.5 38c0 7.33301 1 14.5 3 21.5s4.66699 13.167 8 18.5c4.66699 8.66699 8.83398 14.667 12.501 18s5.5 7.33301 5.5 12c0 4 -3.66699 9.33301 -11 16
s-21.666 10 -42.999 10c-11.333 0 -24.333 -1.16699 -39 -3.5s-27.667 -9.16602 -39 -20.499c-14 -13.333 -22.833 -30.666 -26.5 -51.999s-5.5 -43 -5.5 -65v-126c0 -28 2 -50.333 6 -67s9.66699 -30 17 -40c6.66699 -8.66699 17 -17.167 31 -25.5s32.667 -12.5 56 -12.5
c38.667 0 69.667 13 93 39c9.33301 10.667 17.333 22.334 24 35.001s11.334 22.667 14.001 30z" />
    <glyph glyph-name="d" unicode="d" horiz-adv-x="501" 
d="M260 635l-0.000976562 17.0049h100c14.667 0 26.5 0.333008 35.5 1s17.5 2.33398 25.5 5.00098v-641h63v-17h-161v54c-4.66699 -7.33301 -9.66699 -14.333 -15 -21s-11.333 -12.667 -18 -18c-21.333 -17.333 -45.666 -26 -72.999 -26c-11.333 0 -23.5 1.16699 -36.5 3.5
s-26.167 6.66602 -39.5 12.999s-26.666 15.166 -39.999 26.499s-26 25.666 -38 42.999c-27.333 40 -41 84.333 -41 133c0 34 5.16699 64.333 15.5 91s23.833 49.667 40.5 69c20 23.333 43.333 40.666 70 51.999s52.667 17 78 17c13.333 0 24.666 -1.33301 33.999 -4
s18.333 -6.66699 27 -12c7.33301 -4.66699 13.833 -9.33398 19.5 -14.001s11.167 -10.334 16.5 -17.001v245h-63zM133.999 137.005c0 -12 0.998047 -26.834 2.99805 -44.501s7.33301 -33.167 16 -46.5c7.33301 -11.333 17.333 -20.666 30 -27.999s26.334 -11 41.001 -11
c13.333 0 27.5 3.66699 42.5 11s27.5 18.666 37.5 33.999c12.667 18.667 19 39.334 19 62.001v192c0 12 -0.666992 24.167 -2 36.5s-5.66602 24.5 -12.999 36.5c-8 12.667 -18.667 22.5 -32 29.5s-26.666 10.5 -39.999 10.5c-19.333 0 -36.833 -5.5 -52.5 -16.5
s-27.167 -25.167 -34.5 -42.5c-2.66699 -5.33301 -4.83398 -12 -6.50098 -20s-3.16699 -16.167 -4.5 -24.5s-2.33301 -16.5 -3 -24.5s-1 -15 -1 -21v-133z" />
    <glyph glyph-name="e" unicode="e" horiz-adv-x="440" 
d="M418 108c-8 -13.333 -17.834 -26.8369 -29.501 -40.5039s-22.5 -24.834 -32.5 -33.501c-20 -17.333 -40.667 -29.166 -62 -35.499s-41.666 -9.5 -60.999 -9.5c-29.333 0 -58 6 -86 18s-51.667 28.667 -71 50c-17.333 20 -30.666 43.833 -39.999 71.5s-14 54.5 -14 80.5
c0 30 4.83301 58.333 14.5 85s23.167 50.334 40.5 71.001c22.667 26.667 47.167 45.334 73.5 56.001s52.166 16 77.499 16c28.667 0 55.334 -6 80.001 -18s45.334 -28.667 62.001 -50c14 -18 24.667 -38.833 32 -62.5s11.333 -47.167 12 -70.5h-280v-68
c0 -25.333 1.83301 -48.166 5.5 -68.499s10.834 -37.833 21.501 -52.5c9.33301 -12 20.666 -21.667 33.999 -29s28.666 -11 45.999 -11c16 0 33.167 4 51.5 12s36.166 19.667 53.499 35c12 11.333 23 23.333 33 36s17.333 22.334 22 29.001zM309.999 252.996
l-0.000976562 25.999c0 10 -0.333008 20.333 -1 31s-1.66699 20.834 -3 30.501s-3 18.167 -5 25.5c-12 36 -37.333 54 -76 54c-19.333 0 -35.5 -4 -48.5 -12s-23.167 -19.333 -30.5 -34c-5.33301 -11.333 -8.66602 -21.833 -9.99902 -31.5s-2 -18.5 -2 -26.5v-63h176z" />
    <glyph glyph-name="f" unicode="f" horiz-adv-x="294" 
d="M27 409l-0.000976562 16.998h56v33c0 10 0.666992 21.333 2 34s4 25.834 8 39.501s9.66699 27.5 17 41.5s17 27 29 39c14.667 14.667 30.834 25.834 48.501 33.501s35.167 11.5 52.5 11.5c12 0 24.333 -2.16699 37 -6.5s23.667 -11.166 33 -20.499
c17.333 -16 26 -35 26 -57c0 -15.333 -4 -27.833 -12 -37.5s-19 -14.5 -33 -14.5c-8.66699 0 -17.5 2.83301 -26.5 8.5s-13.5 15.5 -13.5 29.5c0 7.33301 1.16699 13.333 3.5 18s6.16602 9.66699 11.499 15l11 11c4 4 6 9 6 15c0 8 -5 14.667 -15 20
c-8.66699 4.66699 -17 7 -25 7c-4 0 -8.5 -0.5 -13.5 -1.5s-10.167 -3 -15.5 -6s-10.166 -7.33301 -14.499 -13s-7.83301 -12.834 -10.5 -21.501c-3.33301 -10.667 -5.5 -26 -6.5 -46s-1.5 -37.667 -1.5 -53v-79h103v-17h-103v-392h63v-17h-224v17h63v392h-56z" />
    <glyph glyph-name="g" unicode="g" horiz-adv-x="452" 
d="M261 81c28 1.33301 52.668 1.33887 74.001 0.00585938s39 -6.33301 53 -15c4 -2.66699 8.66699 -6.16699 14 -10.5s10.5 -10 15.5 -17s9.16699 -15.5 12.5 -25.5s5 -21.667 5 -35c0 -18 -2.83301 -34.833 -8.5 -50.5s-13 -29.834 -22 -42.501
s-18.667 -23.834 -29 -33.501s-20.5 -17.834 -30.5 -24.501c-21.333 -14 -46.166 -24.667 -74.499 -32s-54.833 -11 -79.5 -11c-11.333 0 -23.5 0.666992 -36.5 2s-25.833 3.5 -38.5 6.5s-24.667 7.16699 -36 12.5s-21 11.666 -29 18.999c-10.667 10 -19 22 -25 36
s-9 27.667 -9 41c0 7.33301 1 15.5 3 24.5s5.66699 16.833 11 23.5s12.333 12.334 21 17.001s17.667 7 27 7s18.666 -3.33301 27.999 -10s15.666 -16.667 18.999 -30c-9.33301 -8.66699 -16.666 -17.5 -21.999 -26.5s-8 -19.167 -8 -30.5
c0 -7.33301 1.83301 -17.166 5.5 -29.499s13.834 -23.166 30.501 -32.499c10.667 -5.33301 21.167 -9 31.5 -11s20.833 -3 31.5 -3c10 0 21.167 0.833008 33.5 2.5s25.166 4.33398 38.499 8.00098s26.5 8.66699 39.5 15s24.833 14.166 35.5 23.499
c12.667 11.333 22.5 23.5 29.5 36.5s10.5 27.833 10.5 44.5c0 20 -7 34.667 -21 44c-8 5.33301 -18.333 8.83301 -31 10.5s-24 2.16699 -34 1.5l-134 -7c-13.333 -0.666992 -28.166 0.666016 -44.499 3.99902s-30.5 8.66602 -42.5 15.999c-13.333 8 -24.833 19 -34.5 33
s-14.5 32 -14.5 54c0 10 1.16699 19.333 3.5 28s7.16602 17.667 14.499 27s16.833 17.666 28.5 24.999s23.834 12.666 36.501 15.999c-3.33301 2.66699 -8.16602 6.33398 -14.499 11.001s-12.5 11.334 -18.5 20.001c-15.333 21.333 -23 46.333 -23 75c0 30 6 54 18 72
s23.333 31.333 34 40c15.333 12.667 33.333 22 54 28s40 9 58 9c14 0 29 -2.16699 45 -6.5s31.667 -11.166 47 -20.499c1.33301 10.667 3.83301 19.834 7.5 27.501s8.16699 14.5 13.5 20.5c9.33301 11.333 19.333 18.833 30 22.5s20 5.5 28 5.5
c6 0 12.833 -1.16699 20.5 -3.5s14.667 -5.66602 21 -9.99902s11.666 -10 15.999 -17s6.5 -15.167 6.5 -24.5c0 -15.333 -4.16699 -25.833 -12.5 -31.5s-16.166 -8.5 -23.499 -8.5c-9.33301 0 -18.166 2.5 -26.499 7.5s-12.5 14.167 -12.5 27.5
c0 4 0.166992 6.83301 0.5 8.5s0.666016 3 0.999023 4s0.666016 2.16699 0.999023 3.5s0.5 3.66602 0.5 6.99902c0 8.66699 -4.66699 13 -14 13c-5.33301 0 -10.833 -2.5 -16.5 -7.5s-10.834 -12.167 -15.501 -21.5c-1.33301 -2.66699 -2.83301 -6.83398 -4.5 -12.501
s-3.16699 -12.834 -4.5 -21.501c6 -4 11 -8.16699 15 -12.5l11 -11.5c9.33301 -11.333 16.166 -24.833 20.499 -40.5s6.5 -30.5 6.5 -44.5c0 -17.333 -3.83301 -34.5 -11.5 -51.5s-17.167 -31.167 -28.5 -42.5c-13.333 -13.333 -30.5 -24.833 -51.5 -34.5
s-43.833 -14.5 -68.5 -14.5c-20.667 0 -38.667 2.5 -54 7.5s-28 10.167 -38 15.5c-7.33301 -0.666992 -15 -2.33398 -23 -5.00098s-14.667 -6.33398 -20 -11.001c-7.33301 -6 -12 -12.5 -14 -19.5s-3 -13.167 -3 -18.5c0 -6.66699 1.33301 -12.334 4 -17.001
s5.66699 -8.66699 9 -12c6 -5.33301 13.5 -9 22.5 -11s18.167 -2.66699 27.5 -2zM281.001 333.006c0 19.333 -5.00098 37.667 -15.001 55c-11.333 20.667 -27.333 31 -48 31c-18 0 -33.667 -7.66699 -47 -23c-9.33301 -11.333 -15.166 -21.666 -17.499 -30.999
s-3.5 -20 -3.5 -32v-78c0 -8.66699 1.33301 -18.834 4 -30.501s6.66699 -21.834 12 -30.501c7.33301 -12.667 15.5 -20.667 24.5 -24s17.5 -5 25.5 -5c24.667 0 42.667 11 54 33c4.66699 8.66699 7.66699 17.334 9 26.001s2 16.667 2 24v85z" />
    <glyph glyph-name="h" unicode="h" horiz-adv-x="529" 
d="M17 635l0.00195312 17.001h100c12 0 22.667 0.166992 32 0.5s19 2.16602 29 5.49902v-290c7.33301 8 16.5 16.667 27.5 26s21.5 17 31.5 23c15.333 9.33301 29.166 15 41.499 17s25.833 3 40.5 3c17.333 0 35 -1.66699 53 -5s34.667 -13 50 -29
c11.333 -11.333 18.666 -22.833 21.999 -34.5s5 -22.167 5 -31.5v-320h63v-17h-217v17h56v320c0 7.33301 -0.5 15.333 -1.5 24s-5.16699 17.667 -12.5 27s-15.333 15.333 -24 18s-17.667 4 -27 4c-11.333 0 -21.333 -1.33301 -30 -4s-18.667 -8 -30 -16
c-8.66699 -6.66699 -17.167 -14 -25.5 -22s-15.833 -16 -22.5 -24v-327h56v-17h-217v17h63v618h-63z" />
    <glyph glyph-name="i" unicode="i" horiz-adv-x="261" 
d="M20 409l-0.000976562 17h99c10.667 0 19.834 0.166992 27.501 0.5s19.167 1.83301 34.5 4.5v-414h63v-17h-224v17h63v392h-63zM73.999 588c0 15.333 5.5 28.5 16.5 39.5s24.167 16.5 39.5 16.5s28.5 -5.5 39.5 -16.5s16.5 -24.167 16.5 -39.5s-5.5 -28.5 -16.5 -39.5
s-24.167 -16.5 -39.5 -16.5s-28.5 5.5 -39.5 16.5s-16.5 24.167 -16.5 39.5z" />
    <glyph glyph-name="j" unicode="j" horiz-adv-x="275" 
d="M25 409l0.00195312 17.001h114c10 0 18.833 0.166992 26.5 0.5s19.167 1.83301 34.5 4.5v-491c0 -24.667 -3.33301 -45.667 -10 -63s-14.334 -31.666 -23.001 -42.999c-16.667 -22 -36.167 -37.333 -58.5 -46s-43.833 -13 -64.5 -13c-13.333 0 -27.5 2 -42.5 6
s-27.5 11 -37.5 21c-2.66699 2.66699 -6.66699 7.83398 -12 15.501s-8 18.167 -8 31.5c0 15.333 4.66699 28 14 38s22.333 15 39 15c17.333 0 29.833 -5 37.5 -15s11.5 -20.333 11.5 -31c0 -12 -2.33301 -21 -7 -27s-7 -11.667 -7 -17c0 -3.33301 1.33301 -7 4 -11
s7 -6 13 -6c5.33301 0 12.833 2.83301 22.5 8.5s17.167 17.167 22.5 34.5c2 5.33301 3.5 10.166 4.5 14.499s1.66699 9.16602 2 14.499s0.666016 12.166 0.999023 20.499s0.5 19.5 0.5 33.5v488h-77zM93.002 588.001c0 15.333 5.5 28.5 16.5 39.5s24.167 16.5 39.5 16.5
s28.5 -5.5 39.5 -16.5s16.5 -24.167 16.5 -39.5s-5.5 -28.5 -16.5 -39.5s-24.167 -16.5 -39.5 -16.5s-28.5 5.5 -39.5 16.5s-16.5 24.167 -16.5 39.5z" />
    <glyph glyph-name="k" unicode="k" horiz-adv-x="498" 
d="M17 635l0.00292969 17h100c16.667 0 29.167 0.5 37.5 1.5s16.166 2.5 23.499 4.5v-443l89 87c20.667 20 34.5 36.167 41.5 48.5s10.5 22.833 10.5 31.5c0 7.33301 -3.33301 13.666 -10 18.999c-5.33301 4 -10.666 6.33301 -15.999 7s-10.333 1 -15 1h-11v17h176v-17
c-10.667 -2 -20.334 -5 -29.001 -9s-16.334 -8 -23.001 -12c-9.33301 -6 -19.333 -13.667 -30 -23s-19.334 -17.666 -26.001 -24.999l-51 -54l170 -269h37v-17h-212v17h56l-123 198l-34 -34v-164h56v-17h-217v17h63v618h-63z" />
    <glyph glyph-name="l" unicode="l" horiz-adv-x="258" 
d="M17 635v16.999h100c14.667 0 26.5 0.333008 35.5 1s17.5 2.33398 25.5 5.00098v-641h63v-17h-224v17h63v618h-63z" />
    <glyph glyph-name="m" unicode="m" horiz-adv-x="765" 
d="M20 409v16.999h100h15c4 0 8.16699 0.166992 12.5 0.5s9 0.833008 14 1.5s11.5 1.66699 19.5 3v-63c16 18 34.667 33.667 56 47c14 8.66699 27.167 14.5 39.5 17.5s25.833 4.5 40.5 4.5c32.667 0 58.167 -7.16699 76.5 -21.5s30.166 -31.5 35.499 -51.5
c8 9.33301 17.167 18.666 27.5 27.999s20.5 17 30.5 23c13.333 8.66699 26.833 14.5 40.5 17.5s27.5 4.5 41.5 4.5c12.667 0 27.667 -2 45 -6s33 -13.667 47 -29c10 -11.333 16.5 -22.666 19.5 -33.999s4.5 -21.666 4.5 -30.999v-320h63v-17h-217v17h56v320
c0 4 -0.666992 11 -2 21s-4.66602 19.667 -9.99902 29c-5.33301 8.66699 -11.833 14.667 -19.5 18s-16.167 5 -25.5 5c-11.333 0 -20.833 -2 -28.5 -6s-15.5 -9 -23.5 -15c-9.33301 -7.33301 -17.666 -14.666 -24.999 -21.999s-14 -15 -20 -23v-327h56v-17h-210v17h56v320
c0 8 -0.333008 16.167 -1 24.5s-4.33398 17.166 -11.001 26.499c-10.667 14.667 -26 22 -46 22c-10.667 0 -19.834 -1.83301 -27.501 -5.5s-15.5 -8.83398 -23.5 -15.501c-9.33301 -7.33301 -17.666 -14.666 -24.999 -21.999s-14 -15 -20 -23v-327h56v-17h-217v17h63v392
h-63z" />
    <glyph glyph-name="n" unicode="n" horiz-adv-x="532" 
d="M20 409l0.00195312 17h100h15c4 0 8.16699 0.166992 12.5 0.5s9 0.833008 14 1.5s11.5 1.66699 19.5 3v-63c7.33301 8 16.5 16.667 27.5 26s21.167 16.666 30.5 21.999c14.667 8.66699 28.834 14.334 42.501 17.001s27.167 4 40.5 4c15.333 0 32.666 -2 51.999 -6
s36.333 -13.333 51 -28c7.33301 -7.33301 13.666 -16.333 18.999 -27s8 -23.667 8 -39v-320h63v-17h-217v17h56v320c0 7.33301 -0.5 15.333 -1.5 24s-5.16699 17.667 -12.5 27s-15.333 15.333 -24 18s-18.334 4 -29.001 4c-10 0 -19.5 -1.33301 -28.5 -4
s-18.833 -8 -29.5 -16c-7.33301 -5.33301 -15.5 -12.5 -24.5 -21.5s-16.833 -17.167 -23.5 -24.5v-327h56v-17h-217v17h63v392h-63z" />
    <glyph glyph-name="o" unicode="o" horiz-adv-x="478" 
d="M239 437c31.333 0 60.998 -6.5 88.998 -19.5s51.667 -30.5 71 -52.5c18 -20.667 32 -44.5 42 -71.5s15 -53.833 15 -80.5c0 -27.333 -5 -54.666 -15 -81.999s-24 -51 -42 -71c-19.333 -21.333 -43.166 -38.5 -71.499 -51.5s-57.833 -19.5 -88.5 -19.5
s-60.167 6.5 -88.5 19.5s-52.166 30.167 -71.499 51.5c-18 20 -32 43.667 -42 71s-15 54.666 -15 81.999c0 26.667 5 53.5 15 80.5s24 50.833 42 71.5c19.333 22 43 39.5 71 52.5s57.667 19.5 89 19.5zM133.998 148c0 -15.333 1.83301 -32.5 5.5 -51.5
s10.167 -35.5 19.5 -49.5c11.333 -16.667 24 -27.5 38 -32.5s28 -7.5 42 -7.5s28 2.5 42 7.5s26.667 15.833 38 32.5c9.33301 14 15.833 30.5 19.5 49.5s5.5 36.167 5.5 51.5v100c0 23.333 -1 46 -3 68s-9.33301 42 -22 60c-5.33301 8 -14.5 17.167 -27.5 27.5
s-30.5 15.5 -52.5 15.5s-39.5 -5.16699 -52.5 -15.5s-22.167 -19.5 -27.5 -27.5c-12.667 -18 -20 -38 -22 -60s-3 -44.667 -3 -68v-100z" />
    <glyph glyph-name="p" unicode="p" horiz-adv-x="501" 
d="M17 409l-0.00195312 17.0029h99c10.667 0 19.834 0.166992 27.501 0.5s19.167 1.83301 34.5 4.5v-60c6.66699 13.333 13.834 23.666 21.501 30.999s12.834 12 15.501 14c6.66699 5.33301 15.667 10.166 27 14.499s25.333 6.5 42 6.5
c27.333 0 54.666 -6.83301 81.999 -20.5s51 -35.5 71 -65.5c13.333 -19.333 23.666 -40.833 30.999 -64.5s11 -48.834 11 -75.501s-4.33301 -52.667 -13 -78s-23 -50 -43 -74c-19.333 -22.667 -40.166 -40 -62.499 -52s-48.5 -18 -78.5 -18
c-9.33301 0 -19.833 0.833008 -31.5 2.5s-22.167 4.83398 -31.5 9.50098c-8 4 -15.5 9.16699 -22.5 15.5s-13.167 13.166 -18.5 20.499v-233h63v-17h-224v17h63v605h-63zM366.998 288.003c0 2.66699 -0.169922 7.33203 -0.50293 13.999s-1.16602 14.334 -2.49902 23.001
s-3.16602 17.834 -5.49902 27.501s-5.83301 18.5 -10.5 26.5c-6.66699 11.333 -15.667 20.833 -27 28.5s-26 11.5 -44 11.5s-33.667 -4 -47 -12s-24.666 -19.333 -33.999 -34c-7.33301 -11.333 -12.166 -22 -14.499 -32s-3.5 -19.667 -3.5 -29v-223
c0 -9.33301 2.66699 -19.5 8 -30.5s12 -20.167 20 -27.5s18 -13.166 30 -17.499s22.667 -6.5 32 -6.5c15.333 0 31 4.5 47 13.5s28.333 23.167 37 42.5c5.33301 11.333 9.16602 26.166 11.499 44.499s3.5 34.166 3.5 47.499v133z" />
    <glyph glyph-name="q" unicode="q" horiz-adv-x="501" 
d="M421 -196h63.0029v-17h-224v17h63v233c-3.33301 -4.66699 -7.66602 -9.66699 -12.999 -15s-12 -10.5 -20 -15.5s-17.333 -9.16699 -28 -12.5s-23.334 -5 -38.001 -5c-35.333 0 -65 7.16699 -89 21.5s-43.667 30.166 -59 47.499
c-20.667 23.333 -34.834 48.166 -42.501 74.499s-11.5 52.833 -11.5 79.5c0 20.667 3.16699 44.834 9.5 72.501s21.166 55.5 44.499 83.5c20.667 24.667 43.334 42.334 68.001 53.001s48.667 16 72 16c25.333 0 47.166 -6 65.499 -18s32.166 -28 41.499 -48v60
c8 -1.33301 14.5 -2.33301 19.5 -3s9.66699 -1.16699 14 -1.5s8.5 -0.5 12.5 -0.5h15h100v-17h-63v-605zM134.003 155c0 -4.66699 0.168945 -10.668 0.501953 -18.001s1 -15.333 2 -24s2.33301 -17.5 4 -26.5s4.16699 -16.833 7.5 -23.5c8.66699 -19.333 21 -33.5 37 -42.5
s32 -13.5 48 -13.5c13.333 0 27.166 3.5 41.499 10.5s25.5 16.833 33.5 29.5c7.33301 11.333 11.666 23.333 12.999 36s2 25 2 37v192c0 20.667 -6.33301 41 -19 61c-19.333 30.667 -46 46 -80 46c-32 0 -55.667 -13.333 -71 -40c-8.66699 -14.667 -14 -29.667 -16 -45
s-3 -30.666 -3 -45.999v-133z" />
    <glyph glyph-name="r" unicode="r" horiz-adv-x="395" 
d="M20 409l-0.00195312 17h100c10 0 18.833 0.166992 26.5 0.5s19.167 1.83301 34.5 4.5v-89c4.66699 9.33301 10.334 19.333 17.001 30s13.334 19.334 20.001 26.001c8 8.66699 19.833 17.334 35.5 26.001s34.167 13 55.5 13c13.333 0 24.5 -1.66699 33.5 -5
s16.167 -7 21.5 -11c16 -12 24 -29.333 24 -52c0 -6.66699 -0.833008 -13 -2.5 -19s-5.16699 -11.667 -10.5 -17c-10.667 -11.333 -23 -17 -37 -17c-15.333 0 -27.666 4.33301 -36.999 13s-14 19.667 -14 33c0 4.66699 0.333008 8 1 10
c0 1.33301 0.166992 2.66602 0.5 3.99902s0.5 2.66602 0.5 3.99902c0 5.33301 -2 9.83301 -6 13.5s-10 5.5 -18 5.5c-16.667 0 -33.334 -10.333 -50.001 -31c-8 -10 -14.333 -20.167 -19 -30.5s-8 -20.166 -10 -29.499s-3.33301 -17.833 -4 -25.5s-1 -13.834 -1 -18.501
v-247h63v-17h-224v17h63v392h-63z" />
    <glyph glyph-name="s" unicode="s" horiz-adv-x="367" 
d="M22 130h14.002c6 -15.333 14.167 -31 24.5 -47s22.166 -29.667 35.499 -41c15.333 -13.333 31.166 -22.5 47.499 -27.5s31.833 -7.5 46.5 -7.5c18 0 33.333 2.33301 46 7s22.667 10.5 30 17.5s12.666 15 15.999 24s5 17.5 5 25.5c0 9.33301 -1.83301 18 -5.5 26
s-8.16699 14.667 -13.5 20c-8 9.33301 -16.667 15.666 -26 18.999l-26 9l-81 23c-13.333 3.33301 -26.333 8.5 -39 15.5s-23 14.833 -31 23.5s-15.333 20 -22 34s-10 31.667 -10 53c0 29.333 5.66699 52.333 17 69s23 29.334 35 38.001s26 15.167 42 19.5s30.667 6.5 44 6.5
c12.667 0 24.667 -1.5 36 -4.5s18.666 -5.16699 21.999 -6.5c10 -3.33301 18.333 -6.5 25 -9.5s13 -4.5 19 -4.5c4.66699 0 9.16699 1 13.5 3s8.16602 5.66699 11.499 11h13v-118h-13c-2.66699 6 -6 12.833 -10 20.5l-12.5 23
c-4.33301 7.66699 -8.83301 14.834 -13.5 21.501s-9 12 -13 16c-10 9.33301 -22.5 16.666 -37.5 21.999s-28.833 8 -41.5 8c-8 0 -18.5 -1.33301 -31.5 -4s-23.167 -6.66699 -30.5 -12c-8 -5.33301 -14.5 -12.5 -19.5 -21.5s-7.5 -20.833 -7.5 -35.5
c0 -10.667 2 -19.5 6 -26.5s8.83301 -12.833 14.5 -17.5s11.834 -8.33398 18.501 -11.001l18 -7l118 -37c16.667 -5.33301 30.334 -11.666 41.001 -18.999s19 -14.666 25 -21.999c9.33301 -11.333 15.5 -23.5 18.5 -36.5s4.5 -25.167 4.5 -36.5
c0 -23.333 -3.5 -42.5 -10.5 -57.5s-13.5 -26.167 -19.5 -33.5c-8.66699 -10.667 -18.5 -19.334 -29.5 -26.001s-22.167 -12 -33.5 -16s-22.333 -6.83301 -33 -8.5s-20 -2.5 -28 -2.5c-18.667 0 -35.667 2.5 -51 7.5s-27.666 9.5 -36.999 13.5l-17.5 7.5
c-5.66699 2.33301 -11.167 3.5 -16.5 3.5c-6.66699 0 -13 -2.16699 -19 -6.5s-10.667 -10.5 -14 -18.5h-14v134z" />
    <glyph glyph-name="t" unicode="t" horiz-adv-x="337" 
d="M200 426h86.9951v-17h-87v-328c0 -6 0.666992 -14 2 -24s4 -17.667 8 -23c4.66699 -5.33301 9.83398 -8.5 15.501 -9.5s10.167 -1.5 13.5 -1.5c6.66699 0 12.334 0.5 17.001 1.5s11.334 3.16699 20.001 6.5l15.5 8c5 2.66699 10.167 7 15.5 13l10 -12
c-5.33301 -5.33301 -12.166 -10.833 -20.499 -16.5s-18.166 -11.167 -29.499 -16.5s-23.5 -9.66602 -36.5 -12.999s-25.5 -5 -37.5 -5c-19.333 0 -34.333 3.33301 -45 10s-17.667 12 -21 16c-11.333 11.333 -18.333 24.666 -21 39.999s-4 31.333 -4 48v306h-82v17h82v141
l98 35v-176z" />
    <glyph glyph-name="u" unicode="u" horiz-adv-x="529" 
d="M295 409l0.00195312 17.002h93c10.667 0 20.167 0.166992 28.5 0.5s19.166 1.83301 32.499 4.5v-414h63v-17h-161v57c-7.33301 -7.33301 -16.166 -15.666 -26.499 -24.999s-20.833 -16.666 -31.5 -21.999c-11.333 -6 -24.333 -11 -39 -15s-29.334 -6 -44.001 -6
c-18 0 -36.5 2.83301 -55.5 8.5s-34.5 14.167 -46.5 25.5c-12 12 -19.667 25.333 -23 40s-5 30 -5 46v300h-63v17h100h15c4 0 8.16699 0.166992 12.5 0.5s9 0.833008 14 1.5s11.5 1.66699 19.5 3v-342c0 -6.66699 0.666992 -14.834 2 -24.501
s5.66602 -18.834 12.999 -27.501s15.5 -14.334 24.5 -17.001s18.167 -4 27.5 -4c10.667 0 20.5 1.33301 29.5 4s19.167 8 30.5 16c7.33301 5.33301 15 11.666 23 18.999s15.667 16.333 23 27v327h-56z" />
    <glyph glyph-name="v" unicode="v" horiz-adv-x="477" 
d="M230 426l-0.000976562 -17h-75l119 -291l91 215c2 5.33301 3.83301 11 5.5 17s2.5 12.333 2.5 19c0 13.333 -5.66699 23.666 -17 30.999c-2 1.33301 -6 3 -12 5s-15 3.33301 -27 4v17h160v-17c-18.667 -1.33301 -34.667 -7 -48 -17
c-9.33301 -7.33301 -16.666 -16.166 -21.999 -26.499l-16 -32.5l-148 -344h-24l-175 420h-44v17h230z" />
    <glyph glyph-name="w" unicode="w" horiz-adv-x="748" 
d="M0 426l204 -0.00195312v-17h-49l130 -291l74 170l-54 121h-43v17h213v-17h-59l129 -291l82 204c2 4.66699 3.83301 9.66699 5.5 15s2.5 11.333 2.5 18c0 13.333 -3.33301 24.333 -10 33c-5.33301 6.66699 -13.333 11.834 -24 15.501s-21.667 5.5 -33 5.5v17h180v-17
c-6 -1.33301 -14.5 -3.66602 -25.5 -6.99902s-20.833 -9.33301 -29.5 -18c-6 -6 -11.5 -14 -16.5 -24s-10.833 -22.667 -17.5 -38l-142 -333h-25l-117 264l-113 -264h-27l-192 420h-43v17z" />
    <glyph glyph-name="x" unicode="x" horiz-adv-x="502" 
d="M61 409l-52.999 0.00390625v17h217v-17h-45l102 -146l45 66c9.33301 13.333 15.666 23.5 18.999 30.5s5 13.167 5 18.5c0 2.66699 -0.666992 5.83398 -2 9.50098s-3.83301 7.16699 -7.5 10.5s-9 6.16602 -16 8.49902s-16.167 3.16602 -27.5 2.49902v17h173v-17h-15
c-9.33301 0 -18.5 -2 -27.5 -6s-17.333 -9 -25 -15s-14.5 -12.333 -20.5 -19s-11 -12.667 -15 -18l-77 -107l158 -227h45v-17h-221v17h58l-115 163l-63 -87c-8.66699 -12 -13.667 -21.833 -15 -29.5s-1.33301 -14.167 0 -19.5c2 -6.66699 7 -12.834 15 -18.501
s17.667 -8.5 29 -8.5h8v-17h-182v17h8c7.33301 0 15.833 1.16699 25.5 3.5s20.167 7.16602 31.5 14.499c10 6.66699 20.333 15.167 31 25.5s22 24.166 34 41.499l68 96z" />
    <glyph glyph-name="y" unicode="y" horiz-adv-x="467" 
d="M45 409l-45.001 0.000976562v17h216v-17h-63l147 -308l80 227c1.33301 4 2.66602 9.16699 3.99902 15.5s2 12.166 2 17.499c0 18 -6 31 -18 39c-6.66699 4.66699 -13.5 7.33398 -20.5 8.00098s-13.167 1 -18.5 1h-9v17h161v-17c-16 -1.33301 -28.833 -6.33301 -38.5 -15
s-17.167 -18 -22.5 -28c-4.66699 -8 -8.33398 -15.833 -11.001 -23.5s-5.33398 -14.5 -8.00098 -20.5l-177 -476c-5.33301 -14 -10.833 -25.167 -16.5 -33.5s-14.5 -16.166 -26.5 -23.499c-9.33301 -5.33301 -18.666 -9.16602 -27.999 -11.499s-19.666 -3.5 -30.999 -3.5
c-14 0 -26.167 1.66699 -36.5 5s-19.166 7.66602 -26.499 12.999c-10 7.33301 -18 16.666 -24 27.999s-9 23.666 -9 36.999c0 18 6 32.333 18 43s25.667 16 41 16c14.667 0 27.167 -5 37.5 -15s15.5 -22 15.5 -36c0 -3.33301 -0.333008 -6.33301 -1 -9
s-1.66699 -5.66699 -3 -9s-2.66602 -6.5 -3.99902 -9.5s-2 -6.16699 -2 -9.5c0 -5.33301 1.83301 -10.333 5.5 -15s10.167 -7 19.5 -7c13.333 0 25.333 5.33301 36 16c3.33301 3.33301 6.5 7.5 9.5 12.5s5.16699 9.5 6.5 13.5l47 123z" />
    <glyph glyph-name="z" unicode="z" horiz-adv-x="406" 
d="M51 426h338.004l-246 -409h36c12 0 25.167 0.333008 39.5 1s28.5 3 42.5 7c17.333 5.33301 32.166 12.5 44.499 21.5s22.166 18.167 29.499 27.5c5.33301 7.33301 10.666 15.833 15.999 25.5s9.66602 20.167 12.999 31.5h16l-8 -131h-358l249 409h-52
c-15.333 0 -32 -1.83301 -50 -5.5s-33.667 -10.5 -47 -20.5c-8.66699 -6 -15.834 -12.833 -21.501 -20.5s-10.5 -15.167 -14.5 -22.5c-3.33301 -5.33301 -6.66602 -11.833 -9.99902 -19.5l-9 -20.5h-16z" />
    <glyph glyph-name="braceleft" unicode="{" horiz-adv-x="353" 
d="M300 694c-14.667 -3.33301 -27.167 -8.67578 -37.5 -16.0088s-18.166 -15.666 -23.499 -24.999c-8 -13.333 -12.833 -27.666 -14.5 -42.999s-2.5 -26.666 -2.5 -33.999s0.333008 -15 1 -23l2 -23c2 -18 3 -36.333 3 -55c0 -22 -1.83301 -45.667 -5.5 -71
s-12.167 -48.333 -25.5 -69c-9.33301 -15.333 -22.5 -29.5 -39.5 -42.5s-33.833 -23.833 -50.5 -32.5c16.667 -8.66699 33.5 -19.5 50.5 -32.5s30.167 -27.167 39.5 -42.5c13.333 -20.667 21.833 -43.667 25.5 -69s5.5 -49 5.5 -71c0 -18.667 -1 -37 -3 -55l-2 -23
c-0.666992 -8 -1 -15.667 -1 -23s0.833008 -18.666 2.5 -33.999s6.5 -29.666 14.5 -42.999c5.33301 -9.33301 13.166 -17.666 23.499 -24.999s22.833 -12.666 37.5 -15.999l-5 -34c-6.66699 0.666992 -17.167 2.5 -31.5 5.5s-28.5 8.83301 -42.5 17.5
c-8.66699 4.66699 -17.5 11.167 -26.5 19.5s-17.167 18.833 -24.5 31.5s-13.333 28 -18 46s-7 39.333 -7 64c0 15.333 0.666992 30.833 2 46.5s2 33.834 2 54.501c0 8 -0.333008 17.333 -1 28s-2 21.667 -4 33s-5 22.833 -9 34.5s-9.33301 22.5 -16 32.5
c-5.33301 8 -12.833 15.333 -22.5 22s-23.167 10.667 -40.5 12v42c17.333 1.33301 30.833 5.33301 40.5 12s17.167 14 22.5 22c6.66699 10 12 20.833 16 32.5s7 23.167 9 34.5s3.33301 22.333 4 33s1 20 1 28c0 20.667 -0.666992 38.834 -2 54.501s-2 31.167 -2 46.5
c0 24.667 2.33301 46 7 64s10.667 33.333 18 46s15.5 23 24.5 31s17.833 14.667 26.5 20c14 8.66699 28.167 14.5 42.5 17.5s24.833 4.83301 31.5 5.5z" />
    <glyph glyph-name="bar" unicode="|" horiz-adv-x="512" 
d="M231 780h50v-1000h-50v1000z" />
    <glyph glyph-name="braceright" unicode="}" horiz-adv-x="353" 
d="M56 -174c14.667 3.33301 27.167 8.67578 37.5 16.0088s18.166 15.666 23.499 24.999c8 13.333 12.833 27.666 14.5 42.999s2.5 26.666 2.5 33.999s-0.333008 15 -1 23l-2 23c-2 18 -3 36.333 -3 55c0 22 1.83301 45.667 5.5 71s12.167 48.333 25.5 69
c9.33301 15.333 22.5 29.5 39.5 42.5s33.833 23.833 50.5 32.5c-16.667 8.66699 -33.5 19.5 -50.5 32.5s-30.167 27.167 -39.5 42.5c-13.333 20.667 -21.833 43.667 -25.5 69s-5.5 49 -5.5 71c0 18.667 1 37 3 55l2 23c0.666992 8 1 15.667 1 23
s-0.833008 18.666 -2.5 33.999s-6.5 29.666 -14.5 42.999c-5.33301 9.33301 -13.166 17.666 -23.499 24.999s-22.833 12.666 -37.5 15.999l5 34c6.66699 -0.666992 17.167 -2.5 31.5 -5.5s28.5 -8.83301 42.5 -17.5c8.66699 -5.33301 17.5 -12 26.5 -20
s17.167 -18.333 24.5 -31s13.333 -28 18 -46s7 -39.333 7 -64c0 -15.333 -0.666992 -30.833 -2 -46.5s-2 -33.834 -2 -54.501c0 -8 0.166992 -17.333 0.5 -28s1.5 -21.667 3.5 -33s5 -22.833 9 -34.5s9.66699 -22.5 17 -32.5c5.33301 -8 12.833 -15.333 22.5 -22
s23.167 -10.667 40.5 -12v-42c-17.333 -1.33301 -30.833 -5.33301 -40.5 -12s-17.167 -14 -22.5 -22c-7.33301 -10 -13 -20.833 -17 -32.5s-7 -23.167 -9 -34.5s-3.16699 -22.333 -3.5 -33s-0.5 -20 -0.5 -28c0 -20.667 0.666992 -38.834 2 -54.501s2 -31.167 2 -46.5
c0 -24.667 -2.33301 -46 -7 -64s-10.667 -33.333 -18 -46s-15.5 -23.167 -24.5 -31.5s-17.833 -14.833 -26.5 -19.5c-14 -8.66699 -28.167 -14.5 -42.5 -17.5s-24.833 -4.83301 -31.5 -5.5z" />
    <glyph glyph-name="asciitilde" unicode="~" horiz-adv-x="518" 
d="M476 367c-2.66699 -5.33301 -7 -13.4971 -13 -24.4971s-13 -21.833 -21 -32.5s-19.5 -21.334 -34.5 -32.001s-34.5 -16 -58.5 -16c-11.333 0 -24.666 1.66699 -39.999 5l-59 13c-34 7.33301 -58.667 12 -74 14s-26.666 3 -33.999 3c-15.333 0 -28.333 -4 -39 -12
c-8 -7.33301 -14.333 -15.333 -19 -24h-28c3.33301 7.33301 8.66602 17 15.999 29s16.666 24 27.999 36c14 14.667 28.667 25.667 44 33s33.333 11 54 11c12.667 0 27.334 -1.5 44.001 -4.5s32.334 -6.5 47.001 -10.5c24 -6.66699 43.667 -12.334 59 -17.001s29 -7 41 -7
c16.667 0 31 5 43 15c3.33301 3.33301 6.66602 7.16602 9.99902 11.499s5.66602 7.5 6.99902 9.5h27z" />
    <glyph glyph-name="sterling" unicode="&#xa3;" horiz-adv-x="570" 
d="M427 337h-174.993c0.666992 -25.333 -0.833008 -49 -4.5 -71s-9.16699 -44.667 -16.5 -68s-15.833 -45.166 -25.5 -65.499s-23.5 -39.166 -41.5 -56.499l2 -5c12 9.33301 26.667 18.5 44 27.5s36.666 13.5 57.999 13.5c16 0 32 -2.5 48 -7.5s32.667 -10.5 50 -16.5
c20 -7.33301 34.667 -11.833 44 -13.5s16.333 -2.5 21 -2.5c14.667 0 25.834 3.66699 33.501 11s14.167 15.333 19.5 24c4 7.33301 8 15.166 12 23.499s7 15.5 9 21.5l23 -6l-24 -56.5c-5.33301 -12.333 -10.333 -22.5 -15 -30.5c-4 -8 -9.16699 -16 -15.5 -24
s-13.666 -15.5 -21.999 -22.5s-18.166 -12.667 -29.499 -17s-24 -6.5 -38 -6.5c-12.667 0 -25.334 1.83301 -38.001 5.5s-24.834 8 -36.501 13s-22.334 10.167 -32.001 15.5s-17.834 9.66602 -24.501 12.999c-9.33301 4.66699 -18.5 8.5 -27.5 11.5s-18.5 4.5 -28.5 4.5
c-4.66699 0 -10 -0.5 -16 -1.5s-13.5 -3 -22.5 -6s-19.667 -7 -32 -12s-27.166 -11.5 -44.499 -19.5l-7 21c8 2.66699 16.667 6.33398 26 11.001s17.333 10.334 24 17.001c15.333 14.667 24.5 31.5 27.5 50.5s4.5 35.5 4.5 49.5c0 11.333 -0.666992 24.833 -2 40.5
s-2.83301 31.667 -4.5 48s-3.5 32 -5.5 47s-3.66699 28.167 -5 39.5h-98v19h95c-2 23.333 -3.16699 40.166 -3.5 50.499s-0.5 17.5 -0.5 21.5c0 29.333 4.5 58.333 13.5 87s22.833 54.334 41.5 77.001c7.33301 8.66699 16 17.5 26 26.5s21.667 17 35 24s28.5 12.667 45.5 17
s35.833 6.5 56.5 6.5c23.333 0 44.666 -3.16699 63.999 -9.5s35.666 -14.5 48.999 -24.5c15.333 -11.333 27.166 -24.833 35.499 -40.5s12.5 -30.834 12.5 -45.501c0 -21.333 -6 -37.666 -18 -48.999s-25.667 -17 -41 -17c-16.667 0 -31 5.66699 -43 17
s-18 24.666 -18 39.999c0 10 2.16699 18.833 6.5 26.5s9.16602 14.167 14.499 19.5c3.33301 3.33301 6.66602 7 9.99902 11s5 7.66699 5 11c0 6 -5 13.833 -15 23.5s-28 14.5 -54 14.5c-13.333 0 -27.833 -1.33301 -43.5 -4s-31.167 -10 -46.5 -22
c-17.333 -14 -28 -29 -32 -45s-6 -31.667 -6 -47c0 -17.333 1 -32.333 3 -45s4.16699 -25 6.5 -37s4.66602 -24.833 6.99902 -38.5s3.83301 -29.834 4.5 -48.501h175v-19z" />
    <glyph glyph-name="currency" unicode="&#xa4;" horiz-adv-x="774" 
d="M704 622l-101 -100l17 -23c7.33301 -10 14.5 -22.5 21.5 -37.5s13 -32.333 18 -52s7.5 -41.167 7.5 -64.5s-2.5 -44.833 -7.5 -64.5s-11 -37 -18 -52s-14.167 -27.667 -21.5 -38s-13 -17.833 -17 -22.5l101 -100l-40 -40l-100 101l-23 -17
c-10 -7.33301 -22.5 -14.5 -37.5 -21.5s-32.333 -13 -52 -18s-41.167 -7.5 -64.5 -7.5s-44.833 2.5 -64.5 7.5s-37 11 -52 18s-27.667 14.167 -38 21.5s-17.833 13 -22.5 17l-100 -101l-40 40l101 100c-4 4.66699 -9.66699 12.167 -17 22.5s-14.5 23 -21.5 38
s-13 32.333 -18 52s-7.5 41.167 -7.5 64.5s2.5 44.833 7.5 64.5s11 37 18 52s14.167 27.5 21.5 37.5l17 23l-101 100l40 40l100 -101c4.66699 4 12.167 9.66699 22.5 17s23 14.5 38 21.5s32.333 13 52 18s41.167 7.5 64.5 7.5s44.833 -2.5 64.5 -7.5s37 -11 52 -18
s27.5 -14.167 37.5 -21.5l23 -17l100 101zM163 345c0 -31.333 5.83301 -61 17.5 -89s27.667 -52.5 48 -73.5s44 -37.5 71 -49.5s56.167 -18 87.5 -18c30.667 0 59.667 6 87 18s51.166 28.5 71.499 49.5s36.333 45.5 48 73.5s17.5 57.667 17.5 89s-5.83301 61 -17.5 89
s-27.667 52.5 -48 73.5s-44.166 37.5 -71.499 49.5s-56.333 18 -87 18c-31.333 0 -60.5 -6 -87.5 -18s-50.667 -28.5 -71 -49.5s-36.333 -45.5 -48 -73.5s-17.5 -57.667 -17.5 -89z" />
    <glyph glyph-name="section" unicode="&#xa7;" horiz-adv-x="543" 
d="M167 398c-6 4 -12.3271 9.00293 -18.9941 15.0029s-13.334 13.667 -20.001 23c-11.333 15.333 -19 30.666 -23 45.999s-6 31.666 -6 48.999c0 26.667 4.33301 51.5 13 74.5s22.667 44.167 42 63.5c13.333 12.667 29.666 23.834 48.999 33.501s44 14.5 74 14.5
c37.333 0 70.333 -9.66699 99 -29c4.66699 -3.33301 10.334 -7.66602 17.001 -12.999s13.167 -12.166 19.5 -20.499s11.666 -18 15.999 -29s6.5 -23.5 6.5 -37.5c0 -22.667 -5.5 -39.334 -16.5 -50.001s-23.167 -16 -36.5 -16c-14.667 0 -26.5 4.83301 -35.5 14.5
s-13.5 20.834 -13.5 33.501c0 9.33301 2 17.5 6 24.5s8.16699 13.333 12.5 19l12.5 16.5c4 5.33301 6 11.333 6 18c0 5.33301 -2.66699 11.333 -8 18s-12.666 12.334 -21.999 17.001c-16.667 9.33301 -37.334 14 -62.001 14c-25.333 0 -47.5 -5 -66.5 -15
s-33.5 -21.667 -43.5 -35c-4.66699 -6 -9.33398 -14.5 -14.001 -25.5s-7 -24.833 -7 -41.5c0 -15.333 2 -28.5 6 -39.5s8.66699 -20.167 14 -27.5c6 -8 13.5 -15.333 22.5 -22s18.167 -11.667 27.5 -15l165 -67c11.333 -5.33301 23.833 -12.5 37.5 -21.5
s26.167 -22.167 37.5 -39.5c9.33301 -13.333 16.666 -28.833 21.999 -46.5s8 -35.834 8 -54.501c0 -15.333 -2.33301 -31.5 -7 -48.5s-11.334 -32.167 -20.001 -45.5c-7.33301 -11.333 -15.333 -20.666 -24 -27.999s-17.334 -13 -26.001 -17s-17.167 -6.83301 -25.5 -8.5
s-15.833 -2.5 -22.5 -2.5l24 -13.5c10 -5.66699 20 -13.834 30 -24.501c11.333 -12 20.166 -24.667 26.499 -38s9.5 -29.333 9.5 -48s-2.33301 -38.5 -7 -59.5s-11.667 -39.167 -21 -54.5c-15.333 -25.333 -38 -46.333 -68 -63s-63.333 -25 -100 -25
c-20 0 -39.667 2.66699 -59 8s-37.333 13.666 -54 24.999c-22.667 15.333 -38.334 32 -47.001 50s-13 34.667 -13 50c0 16.667 4.83301 31.834 14.5 45.501s23.167 20.5 40.5 20.5c11.333 0 22.5 -4 33.5 -12s16.5 -21 16.5 -39c0 -13.333 -2 -22.5 -6 -27.5
s-8.33301 -9.16699 -13 -12.5c-4.66699 -2.66699 -9.66699 -6.16699 -15 -10.5s-8 -9.83301 -8 -16.5c0 -6 3.33301 -12.833 10 -20.5s15.667 -14.834 27 -21.501c10.667 -6 21.834 -10.833 33.501 -14.5s24.167 -5.5 37.5 -5.5c6.66699 0 14.667 0.5 24 1.5
s19 3.16699 29 6.5s20 7.83301 30 13.5s19 13.167 27 22.5c10 11.333 17 23.333 21 36s6 26 6 40c0 13.333 -1.5 25.333 -4.5 36s-8.83301 21 -17.5 31c-8.66699 10.667 -17.167 18.334 -25.5 23.001s-16.5 8.66699 -24.5 12l-152 65
c-13.333 5.33301 -27.333 14.166 -42 26.499s-26.667 25.166 -36 38.499c-11.333 15.333 -19.666 31.833 -24.999 49.5s-8 36.167 -8 55.5c0 21.333 3.5 42.666 10.5 63.999s18.167 39.333 33.5 54c9.33301 9.33301 20 16.666 32 21.999s23.667 9 35 11zM219.006 369.003
c-6.66699 2.66699 -12.9941 4.66504 -18.9941 5.99805s-12.667 2 -20 2c-18 0 -35 -5.66699 -51 -17c-12.667 -9.33301 -22 -19.666 -28 -30.999s-9 -23 -9 -35c0 -12.667 1.83301 -25 5.5 -37s9.16699 -22.667 16.5 -32s15.166 -16.666 23.499 -21.999
s15.833 -9.33301 22.5 -12l168 -70c6 -2.66699 11.667 -4.33398 17 -5.00098s10.666 -1 15.999 -1c11.333 0 21.166 1.83301 29.499 5.5s16.166 8.83398 23.499 15.501c9.33301 8.66699 17 19.167 23 31.5s9 25.833 9 40.5c0 11.333 -2 22.5 -6 33.5s-10.667 21.5 -20 31.5
c-6.66699 7.33301 -15.334 14.333 -26.001 21s-20.334 11.667 -29.001 15z" />
    <glyph glyph-name="copyright" unicode="&#xa9;" horiz-adv-x="764" 
d="M42 327c0 46.667 9 90.667 27 132s42.333 77.333 73 108s66.667 55 108 73s85.333 27 132 27s90.667 -9 132 -27s77.333 -42.333 108 -73s55 -66.667 73 -108s27 -85.333 27 -132s-9 -90.667 -27 -132s-42.333 -77.333 -73 -108s-66.667 -55 -108 -73
s-85.333 -27 -132 -27s-90.667 9 -132 27s-77.333 42.333 -108 73s-55 66.667 -73 108s-27 85.333 -27 132zM70 327c0 -43.333 8.16699 -83.833 24.5 -121.5s38.666 -70.667 66.999 -99s61.333 -50.666 99 -66.999s78.167 -24.5 121.5 -24.5c42.667 0 83 8.16699 121 24.5
s71.167 38.666 99.5 66.999s50.666 61.333 66.999 99s24.5 78.167 24.5 121.5c0 42.667 -8.16699 83 -24.5 121s-38.666 71.167 -66.999 99.5s-61.5 50.666 -99.5 66.999s-78.333 24.5 -121 24.5c-43.333 0 -83.833 -8.16699 -121.5 -24.5s-70.667 -38.666 -99 -66.999
s-50.666 -61.5 -66.999 -99.5s-24.5 -78.333 -24.5 -121zM487 406c-2 11.333 -5.33203 24.168 -9.99902 38.501s-10.334 26.166 -17.001 35.499c-10.667 16 -23 26.5 -37 31.5s-27.667 7.5 -41 7.5c-12.667 0 -23.5 -1.83301 -32.5 -5.5s-16.667 -8.16699 -23 -13.5
s-11.5 -11.333 -15.5 -18s-7.33301 -13 -10 -19c-11.333 -23.333 -17.833 -46 -19.5 -68s-2.5 -43 -2.5 -63c0 -19.333 1.16699 -42 3.5 -68s9.5 -50.667 21.5 -74c6.66699 -13.333 14.5 -23.666 23.5 -30.999s17.5 -12.833 25.5 -16.5s15 -5.83398 21 -6.50098s10 -1 12 -1
c16.667 0 33.334 5 50.001 15s29.667 21.667 39 35c7.33301 9.33301 13.666 21 18.999 35s9.66602 27.333 12.999 40h17l-5 -137h-17c0.666992 9.33301 -2 14.833 -8 16.5s-10.667 2.5 -14 2.5c-5.33301 0 -10.333 -1.33301 -15 -4s-11.667 -5.66699 -21 -9
c-24 -8.66699 -46 -13 -66 -13c-25.333 0 -51 5.16699 -77 15.5s-47.667 26.5 -65 48.5c-13.333 17.333 -24.333 38.166 -33 62.499s-13 49.5 -13 75.5c0 24.667 3.83301 50.834 11.5 78.501s20.167 52.5 37.5 74.5c17.333 21.333 38 37.833 62 49.5s52.333 17.5 85 17.5
c13.333 0 23.833 -0.666992 31.5 -2s14.834 -3 21.501 -5c12.667 -4 21.667 -6 27 -6c6 0 10.167 1.5 12.5 4.5s3.83301 5.83301 4.5 8.5h15l6 -132h-17z" />
    <glyph glyph-name="guillemotleft" unicode="&#xab;" horiz-adv-x="380" 
d="M269 3c-38 44 -77.167 83.165 -117.5 117.498s-81.5 64.833 -123.5 91.5c42 26 83.333 56.167 124 90.5s79.667 73.833 117 118.5l9 -8c-20 -35.333 -41.667 -69.666 -65 -102.999s-48 -66 -74 -98c26 -32 50.667 -64.667 74 -98s45 -67.666 65 -102.999zM342 98.998
c-19.333 21.333 -40.166 41.5 -62.499 60.5s-47.5 36.5 -75.5 52.5c28 16.667 53.167 34.5 75.5 53.5s43.166 39.167 62.499 60.5l10 -4c-18 -41.333 -41.333 -77.666 -70 -108.999c28.667 -32.667 52 -69.334 70 -110.001z" />
    <glyph glyph-name="logicalnot" unicode="&#xac;" horiz-adv-x="751" 
d="M709 38h-45v147h-622v45h667v-192z" />
    <glyph glyph-name="registered" unicode="&#xae;" horiz-adv-x="770" 
d="M45 327c0 46.667 9 90.667 27 132s42.333 77.333 73 108s66.667 55 108 73s85.333 27 132 27s90.667 -9 132 -27s77.333 -42.333 108 -73s55 -66.667 73 -108s27 -85.333 27 -132s-9 -90.667 -27 -132s-42.333 -77.333 -73 -108s-66.667 -55 -108 -73
s-85.333 -27 -132 -27s-90.667 9 -132 27s-77.333 42.333 -108 73s-55 66.667 -73 108s-27 85.333 -27 132zM73 327c0 -43.333 8.16699 -83.833 24.5 -121.5s38.666 -70.667 66.999 -99s61.333 -50.666 99 -66.999s78.167 -24.5 121.5 -24.5c42.667 0 83 8.16699 121 24.5
s71.167 38.666 99.5 66.999s50.666 61.333 66.999 99s24.5 78.167 24.5 121.5c0 42.667 -8.16699 83 -24.5 121s-38.666 71.167 -66.999 99.5s-61.5 50.666 -99.5 66.999s-78.333 24.5 -121 24.5c-43.333 0 -83.833 -8.16699 -121.5 -24.5s-70.667 -38.666 -99 -66.999
s-50.666 -61.5 -66.999 -99.5s-24.5 -78.333 -24.5 -121zM370 511c22.667 0 43.832 -1.00195 63.499 -3.00195s37.167 -6.66699 52.5 -14c18.667 -9.33301 31.167 -20.166 37.5 -32.499s9.5 -23.166 9.5 -32.499c0 -15.333 -3.33301 -28 -10 -38s-13.667 -17.667 -21 -23
c-12 -8.66699 -25 -15 -39 -19s-29.333 -7.33301 -46 -10v-3c6.66699 -1.33301 14.167 -3.33301 22.5 -6s17.166 -6 26.499 -10c11.333 -5.33301 21.166 -11.333 29.499 -18s14.5 -16.667 18.5 -30c0.666992 -2.66699 1.33398 -5.66699 2.00098 -9
s1.33398 -7.83301 2.00098 -13.5l2.5 -21c1 -8.33301 2.16699 -19.166 3.5 -32.499l4 -27.5c1.33301 -9 6 -13.5 14 -13.5c4 0 9 2.5 15 7.5s10.667 9.16699 14 12.5l9 -10c-11.333 -12.667 -23 -20.834 -35 -24.501s-23 -5.5 -33 -5.5c-3.33301 0 -8.33301 0.333008 -15 1
s-13.667 2.66699 -21 6s-14.166 8.5 -20.499 15.5s-10.833 17.167 -13.5 30.5c-1.33301 7.33301 -2.5 16 -3.5 26l-3 31c-1 10.667 -2.33301 21 -4 31s-3.83398 18.333 -6.50098 25c-3.33301 7.33301 -7.16602 13 -11.499 17s-9 7 -14 9s-10.167 3.16699 -15.5 3.5
s-10.333 0.5 -15 0.5h-37v-179h43v-11h-167v11h44v348h-44v11h162zM362.998 341.998c11.333 0 23 1.33496 35 4.00195s22.667 9.66699 32 21c6 7.33301 10 16.166 12 26.499s3 22.166 3 35.499c0 11.333 -1.33301 22.5 -4 33.5s-9 19.833 -19 26.5
c-7.33301 4.66699 -16.5 7.66699 -27.5 9s-20.167 2 -27.5 2h-35v-158h31z" />
    <glyph glyph-name="degree" unicode="&#xb0;" horiz-adv-x="294" 
d="M56 595c0 25.333 8.83301 46.833 26.5 64.5s39.167 26.5 64.5 26.5s46.833 -8.66699 64.5 -26s26.5 -39 26.5 -65c0 -25.333 -8.83301 -46.833 -26.5 -64.5s-39.167 -26.5 -64.5 -26.5c-26 0 -47.667 8.83301 -65 26.5s-26 39.167 -26 64.5zM81 595
c0 -18 6.5 -33.5 19.5 -46.5s28.5 -19.5 46.5 -19.5s33.5 6.5 46.5 19.5s19.5 28.5 19.5 46.5s-6.5 33.5 -19.5 46.5s-28.5 19.5 -46.5 19.5s-33.5 -6.5 -46.5 -19.5s-19.5 -28.5 -19.5 -46.5z" />
    <glyph glyph-name="plusminus" unicode="&#xb1;" horiz-adv-x="672" 
d="M316 176v151h-246v42h246v194h42v-194h244v-42h-244v-151h-42zM70 100h532v-42h-532v42z" />
    <glyph glyph-name="mu" unicode="&#xb5;" horiz-adv-x="529" 
d="M449 17l63.0029 0.000976562v-17h-161v57c-8.66699 -10.667 -17.667 -19.834 -27 -27.501s-19.666 -14.5 -30.999 -20.5c-12.667 -7.33301 -25.334 -12.833 -38.001 -16.5s-26.667 -5.5 -42 -5.5c-18 0 -33.333 2.66699 -46 8s-24.334 13.666 -35.001 24.999h-4
c4 -21.333 7.66699 -39.333 11 -54s5.66602 -23.667 6.99902 -27l13.5 -55c3.66699 -15.333 5.5 -29.666 5.5 -42.999c0 -26 -5.5 -43.667 -16.5 -53s-24.833 -14 -41.5 -14c-14 0 -24.833 2.5 -32.5 7.5s-13.334 11 -17.001 18s-6 14 -7 21s-1.5 12.5 -1.5 16.5
c0 12.667 1.5 27 4.5 43s6.16699 39 9.5 69c3.33301 26 6 47.833 8 65.5s3.66699 33 5 46s2.33301 24 3 33s1 17.5 1 25.5v307h98v-337c0 -7.33301 0.833008 -15.333 2.5 -24s5.5 -17 11.5 -25c6.66699 -8 14.834 -14 24.501 -18s19.167 -6 28.5 -6
c11.333 0 22.166 2.33301 32.499 7s19.5 9.66699 27.5 15c18 12 33.333 26.667 46 44v344h98v-409z" />
    <glyph glyph-name="paragraph" unicode="&#xb6;" horiz-adv-x="469" 
d="M209 316c-28.667 0.666992 -54.0029 6.33105 -76.0029 16.998s-40.333 24.167 -55 40.5s-25.667 34.333 -33 54s-11 38.834 -11 57.501s3.83301 38 11.5 58s18.834 38.333 33.501 55s32.834 30.334 54.501 41.001s46.834 16 75.501 16h50v-868h-50v529zM348.997 654.997
h50v-868h-50v868z" />
    <glyph glyph-name="guillemotright" unicode="&#xbb;" horiz-adv-x="380" 
d="M111 421c37.333 -44.667 76.333 -84.167 117 -118.5s82 -64.5 124 -90.5c-42 -26.667 -83.167 -57.167 -123.5 -91.5s-79.5 -73.5 -117.5 -117.5l-8 8c38.667 70 84.667 137 138 201c-53.333 64 -99.333 131 -138 201zM39 326c18.667 -21.333 39.167 -41.5 61.5 -60.5
s47.5 -36.833 75.5 -53.5c-28 -16 -53.167 -33.5 -75.5 -52.5s-42.833 -39.167 -61.5 -60.5l-11 4c9.33301 20.667 20 40 32 58s24.667 35.333 38 52c-13.333 16 -26 33 -38 51s-22.667 37.333 -32 58z" />
    <glyph glyph-name="divide" unicode="&#xf7;" horiz-adv-x="759" 
d="M56 337h532v-42h-532v42zM269 457c0 15.333 5.33301 28.333 16 39s23.667 16 39 16s28.166 -5.16699 38.499 -15.5s15.5 -23.5 15.5 -39.5c0 -15.333 -5.16699 -28.166 -15.5 -38.499s-23.166 -15.5 -38.499 -15.5c-16 0 -29.167 5.16699 -39.5 15.5
s-15.5 23.166 -15.5 38.499zM269 174c0 15.333 5.33301 28.333 16 39s23.667 16 39 16s28.166 -5.16699 38.499 -15.5s15.5 -23.5 15.5 -39.5c0 -15.333 -5.16699 -28.166 -15.5 -38.499s-23.166 -15.5 -38.499 -15.5c-16 0 -29.167 5.16699 -39.5 15.5
s-15.5 23.166 -15.5 38.499z" />
    <glyph glyph-name="florin" unicode="&#x192;" horiz-adv-x="560" 
d="M430 445l-97.999 0.00488281l-114 -418c-8.66699 -30.667 -19.667 -61.334 -33 -92.001s-32.333 -60 -57 -88c-25.333 -28.667 -48.333 -46.834 -69 -54.501s-38 -11.5 -52 -11.5c-23.333 0 -40.333 5.5 -51 16.5s-16 23.167 -16 36.5c0 12 4 22 12 30s18 12 30 12
c9.33301 0 16.833 -1.83301 22.5 -5.5s9.83398 -7.83398 12.501 -12.501c2.66699 -4 4.5 -8.5 5.5 -13.5s2.5 -10.167 4.5 -15.5c1.33301 -3.33301 3 -6.5 5 -9.5s5.66699 -4.5 11 -4.5s12 2.83301 20 8.5s16.667 18.5 26 38.5c5.33301 11.333 11.666 27.666 18.999 48.999
s16.333 51 27 89l121 445h-93l5 17h94l17 62c8.66699 30.667 19.667 61.5 33 92.5s32.333 60.5 57 88.5c13.333 15.333 26.166 27.333 38.499 36s23.666 15.167 33.999 19.5s19.666 7 27.999 8s15.166 1.5 20.499 1.5c24 0 41.667 -5.5 53 -16.5s17 -23.167 17 -36.5
c0 -12.667 -4 -22.834 -12 -30.501s-18 -11.5 -30 -11.5c-17.333 0 -29.666 6 -36.999 18c-2.66699 3.33301 -4.5 7.33301 -5.5 12s-2.5 10 -4.5 16c-1.33301 4 -3.16602 7.5 -5.49902 10.5s-6.16602 4.5 -11.499 4.5s-12 -2.83301 -20 -8.5s-16.667 -18.167 -26 -37.5
c-5.33301 -11.333 -10.5 -24.5 -15.5 -39.5l-14 -43.5l-11 -36.5c-3 -10.333 -4.83301 -16.833 -5.5 -19.5l-24 -89h97z" />
    <glyph glyph-name="afii10023" unicode="&#x401;" horiz-adv-x="601" 
d="M535 655l11.002 -188.997h-24c-3.33301 19.333 -8.5 39.5 -15.5 60.5s-14.5 37.5 -22.5 49.5c-14 20.667 -31.333 35.667 -52 45s-45.667 14 -75 14h-126v-275h36c4.66699 0 11 0.166992 19 0.5s16.333 2.16602 25 5.49902s17.334 8.66602 26.001 15.999s16 18 22 32
c4.66699 10 8.16699 21.167 10.5 33.5s4.16602 23.166 5.49902 32.499h20v-262h-20c-0.666992 2.66699 -1.5 7 -2.5 13s-2.16699 12.333 -3.5 19l-4 20c-1.33301 6.66699 -3 12.334 -5 17.001c-4.66699 12 -10.5 21.5 -17.5 28.5s-14.5 12.333 -22.5 16s-16 6 -24 7
s-15.667 1.5 -23 1.5h-42v-320h143c4 0 11 0.5 21 1.5s21.167 3.5 33.5 7.5s25.166 10.167 38.499 18.5s25.666 20.166 36.999 35.499c8.66699 11.333 16.5 26.5 23.5 45.5s13.167 44.167 18.5 75.5h24l-21 -204h-507v20h77v615h-77v20h493zM202.002 714.003
c-5.33301 0 -11.6699 0.327148 -19.0029 0.994141s-14.666 3.66699 -21.999 9c-8 5.33301 -12.833 11.333 -14.5 18s-2.5 12.667 -2.5 18s0.833008 10.833 2.5 16.5s5.16699 10.834 10.5 15.501s12.333 7.83398 21 9.50098s16.667 2.5 24 2.5
c3.33301 0 9.83301 -0.666992 19.5 -2s18.167 -4.66602 25.5 -9.99902s11.333 -10.666 12 -15.999s1 -10.666 1 -15.999s-0.833008 -11.166 -2.5 -17.499s-6.5 -12.5 -14.5 -18.5c-7.33301 -5.33301 -14.666 -8.33301 -21.999 -9s-13.666 -1 -18.999 -1zM412.998 713.997
c-7.33301 0 -14.502 0.5 -21.502 1.5s-13.5 3.83301 -19.5 8.5c-11.333 9.33301 -17 21.333 -17 36c0 8 1.33301 14.667 4 20s5.66699 9.33301 9 12c5.33301 4.66699 12.333 7.83398 21 9.50098s16.667 2.5 24 2.5c3.33301 0 9.83301 -0.666992 19.5 -2
s18.167 -4.66602 25.5 -9.99902c6 -4.66699 9.66699 -9.33398 11 -14.001s2 -9.66699 2 -15c0 -6.66699 -0.666992 -13.334 -2 -20.001s-6.33301 -13 -15 -19c-7.33301 -5.33301 -14.666 -8.33301 -21.999 -9s-13.666 -1 -18.999 -1z" />
    <glyph glyph-name="afii10051" unicode="&#x402;" horiz-adv-x="762" 
d="M260 636l-36.9971 0.00488281c-7.33301 0 -16.666 -0.666992 -27.999 -2s-23.333 -4 -36 -8s-25.167 -9.83301 -37.5 -17.5s-23.5 -17.834 -33.5 -30.501c-7.33301 -9.33301 -14.666 -22.833 -21.999 -40.5s-13 -42.5 -17 -74.5h-27l18 192h552l18 -192h-27
c-2.66699 19.333 -6.83398 39.5 -12.501 60.5s-14.167 39.167 -25.5 54.5c-9.33301 13.333 -19.833 23.833 -31.5 31.5s-23.5 13.5 -35.5 17.5s-23.833 6.5 -35.5 7.5s-22.834 1.5 -33.501 1.5h-37v-312c32 16 62 27.667 90 35s56 11 84 11
c19.333 0 38.166 -1.83301 56.499 -5.5s35.5 -9.5 51.5 -17.5c19.333 -10 34.666 -22 45.999 -36s20 -28.5 26 -43.5s9.83301 -29.667 11.5 -44s2.5 -26.5 2.5 -36.5c0 -22.667 -2.33301 -45.5 -7 -68.5s-14.667 -44.5 -30 -64.5
c-5.33301 -6.66699 -11.833 -13.834 -19.5 -21.501s-17.167 -14.834 -28.5 -21.501s-24.333 -12.167 -39 -16.5s-31 -6.5 -49 -6.5c-11.333 0 -24.333 1.66699 -39 5s-28 11 -40 23c-7.33301 7.33301 -13.166 15.666 -17.499 24.999s-6.5 19.666 -6.5 30.999
c0 17.333 5.16699 32.166 15.5 44.499s24.833 18.5 43.5 18.5c16 0 29.5 -5 40.5 -15s16.5 -24.667 16.5 -44c0 -10.667 -1.83301 -18.834 -5.5 -24.501s-8.16699 -10.5 -13.5 -14.5c-2.66699 -1.33301 -5.16699 -3.16602 -7.5 -5.49902s-3.5 -5.5 -3.5 -9.5
s1.66699 -7.83301 5 -11.5s8.66602 -5.5 15.999 -5.5c6 0 12 1.66699 18 5s10.667 7 14 11c4 4.66699 8.16699 13.834 12.5 27.501s6.5 37.167 6.5 70.5v63c0 18.667 -1 39 -3 61s-10.333 41.667 -25 59c-9.33301 10.667 -22.333 20 -39 28s-37.334 12 -62.001 12
c-12.667 0 -28.5 -2.33301 -47.5 -7s-43.5 -14.667 -73.5 -30v-285h63v-20h-252v20h77v616z" />
    <glyph glyph-name="afii10052" unicode="&#x403;" horiz-adv-x="538" 
d="M519 655l12.002 -189.999h-24c-2.66699 20.667 -7.83398 43.167 -15.501 67.5s-18.167 44.5 -31.5 60.5c-14.667 17.333 -30.334 28.666 -47.001 33.999s-32.667 8 -48 8h-134v-615h77v-20h-266v20h77v615h-77v20h477zM378.002 825.001l-192 -137h-26l98 137h120z" />
    <glyph glyph-name="afii10053" unicode="&#x404;" horiz-adv-x="607" 
d="M579 240c-1.33301 -14 -4.33203 -30.6689 -8.99902 -50.002s-12.334 -40.666 -23.001 -63.999c-13.333 -28.667 -28.166 -51.834 -44.499 -69.501s-33.666 -31.5 -51.999 -41.5s-36.833 -16.833 -55.5 -20.5s-36.334 -5.5 -53.001 -5.5
c-43.333 0 -85.666 9.16699 -126.999 27.5s-76.333 49.5 -105 93.5c-15.333 24 -28.666 53.333 -39.999 88s-17 76 -17 124c0 40 4.66699 78 14 114s27 72.667 53 110c17.333 24.667 35.833 44.667 55.5 60s39.5 27.5 59.5 36.5s39.333 15.167 58 18.5s36 5 52 5
c14.667 0 28.334 -1.33301 41.001 -4s24.667 -5.66699 36 -9c13.333 -4 24 -7.5 32 -10.5s16 -4.5 24 -4.5c6.66699 0 11.667 1 15 3s5.33301 3.33301 6 4c7.33301 6 12.666 14.333 15.999 25l24 1l5 -213l-22 -1c-1.33301 10.667 -3.33301 22.334 -6 35.001
s-5.83398 25 -9.50098 37s-8 23.333 -13 34s-10.167 19.667 -15.5 27c-13.333 17.333 -31.333 31.166 -54 41.499s-45.334 15.5 -68.001 15.5s-45.334 -4.66699 -68.001 -14s-43 -25.666 -61 -48.999c-10.667 -13.333 -19.167 -27.833 -25.5 -43.5s-11.166 -32 -14.499 -49
s-5.5 -34 -6.5 -51s-1.5 -33.833 -1.5 -50.5v-30h263v-20h-263v-64c0 -14 0.5 -29 1.5 -45s2.5 -31.833 4.5 -47.5s4.66699 -30.667 8 -45s7.66602 -26.833 12.999 -37.5c13.333 -28 33 -50.5 59 -67.5s55.333 -25.5 88 -25.5c12.667 0 26.667 1.83301 42 5.5
s30.5 10 45.5 19s29.667 21.333 44 37s27.5 35.834 39.5 60.501c10 21.333 17.5 41.5 22.5 60.5s8.83301 35.5 11.5 49.5h21z" />
    <glyph glyph-name="afii10054" unicode="&#x405;" horiz-adv-x="528" 
d="M56 209c6.66699 -16 15.501 -35.0039 26.501 -57.0039s22.5 -40.667 34.5 -56c12.667 -17.333 26.667 -31.5 42 -42.5s30.666 -20 45.999 -27s30.333 -11.833 45 -14.5s28.334 -4 41.001 -4c23.333 0 44.5 4 63.5 12s34.167 18.667 45.5 32
c8 8.66699 15.333 20.167 22 34.5s10 32.166 10 53.499c0 18 -2.66699 33.333 -8 46s-11.666 23.334 -18.999 32.001c-6.66699 7.33301 -16.334 15.166 -29.001 23.499s-29.667 15.5 -51 21.5l-118 32c-17.333 4.66699 -36 12.5 -56 23.5s-36.667 24.833 -50 41.5
c-8.66699 10.667 -15.334 22 -20.001 34s-8.16699 23.5 -10.5 34.5s-3.83301 20.833 -4.5 29.5s-1 15 -1 19c0 40 6.66699 71.833 20 95.5s28 42.167 44 55.5c16.667 13.333 34 23 52 29s37 9 57 9c17.333 0 33.833 -1.5 49.5 -4.5s30.5 -7.16699 44.5 -12.5
c14.667 -5.33301 26 -9.83301 34 -13.5s15.667 -5.5 23 -5.5c8.66699 0 15.334 2.33301 20.001 7s9.66699 10.667 15 18h16l4 -158h-14c-6 13.333 -14.5 29.333 -25.5 48s-22.833 34.334 -35.5 47.001c-17.333 18 -38 31.667 -62 41s-46.667 14 -68 14
c-20 0 -38.167 -3.5 -54.5 -10.5s-29.5 -15.5 -39.5 -25.5c-11.333 -11.333 -19.666 -24.666 -24.999 -39.999s-8 -30.666 -8 -45.999c0 -30.667 11.333 -57 34 -79c14 -13.333 29 -22.5 45 -27.5s30.667 -9.16699 44 -12.5l102 -27c10 -2.66699 20.667 -6.16699 32 -10.5
s22.666 -10 33.999 -17s22.166 -15.667 32.499 -26s19.5 -22.5 27.5 -36.5c8.66699 -15.333 14.667 -31.666 18 -48.999s5 -35.333 5 -54c0 -26 -3.83301 -50 -11.5 -72s-17.834 -40.667 -30.501 -56c-13.333 -17.333 -32.666 -33.166 -57.999 -47.499s-57 -21.5 -95 -21.5
c-5.33301 0 -12.5 0.333008 -21.5 1s-19 1.83398 -30 3.50098s-22.5 4.16699 -34.5 7.5s-24 7.66602 -36 12.999c-13.333 6 -24.833 11.5 -34.5 16.5s-19.167 7.5 -28.5 7.5c-11.333 0 -20.5 -3.5 -27.5 -10.5s-11.167 -16.167 -12.5 -27.5h-24v209h14z" />
    <glyph glyph-name="afii10055" unicode="&#x406;" horiz-adv-x="350" 
d="M308 655v-20h-77v-615h77v-20h-266v20h77v615h-77v20h266z" />
    <glyph glyph-name="afii10056" unicode="&#x407;" horiz-adv-x="350" 
d="M308 655v-20h-77v-615h77v-20h-266v20h77v615h-77v20h266zM76 714c-4.66699 0 -10.3359 0.333984 -17.0029 1.00098s-13 2.5 -19 5.5s-11.167 7.5 -15.5 13.5s-6.5 14.667 -6.5 26c0 17.333 5.33301 29 16 35s24.667 9 42 9c14.667 0 25.834 -1.83301 33.501 -5.5
s13.334 -8 17.001 -13s5.83398 -9.83301 6.50098 -14.5s1 -8.33398 1 -11.001c0 -4 -0.5 -8.66699 -1.5 -14s-3.5 -10.333 -7.5 -15s-9.83301 -8.66699 -17.5 -12s-18.167 -5 -31.5 -5zM286.998 714.001c-13.333 0 -23.833 1.66699 -31.5 5s-13.5 7.5 -17.5 12.5
s-6.5 10.167 -7.5 15.5s-1.5 10 -1.5 14c0 11.333 3.83301 21.333 11.5 30s23.167 13 46.5 13c17.333 0 31.333 -3.16699 42 -9.5s16 -17.833 16 -34.5c0 -10.667 -2 -19 -6 -25s-9 -10.5 -15 -13.5s-12.333 -5 -19 -6s-12.667 -1.5 -18 -1.5z" />
    <glyph glyph-name="afii10057" unicode="&#x408;" horiz-adv-x="454" 
d="M412 655l-0.00292969 -20.001h-77v-466c0 -22.667 -2.16699 -43.5 -6.5 -62.5s-13.5 -37.167 -27.5 -54.5c-16 -20.667 -36.167 -36.334 -60.5 -47.001s-50.166 -16 -77.499 -16c-17.333 0 -33.666 2.33301 -48.999 7s-29 11 -41 19c-18 12 -32.333 27.333 -43 46
s-16 37 -16 55c0 19.333 5.83301 35.333 17.5 48s27.834 19 48.501 19c18.667 0 32.667 -6.16699 42 -18.5s14 -25.166 14 -38.499c0 -11.333 -2.66699 -20.5 -8 -27.5s-10.666 -13.167 -15.999 -18.5c-4 -3.33301 -8.66699 -7.66602 -14 -12.999s-8 -11 -8 -17
c0 -9.33301 6 -18.5 18 -27.5s27 -13.5 45 -13.5c13.333 0 24.666 2.5 33.999 7.5s17 11.5 23 19.5c4.66699 6 8 12.667 10 20s3 17.333 3 30v549h-77v20h266z" />
    <glyph glyph-name="afii10058" unicode="&#x409;" horiz-adv-x="954" 
d="M650 655l-0.00488281 -19.999h-77v-272h88c38.667 0 74 -2.5 106 -7.5s62 -18.167 90 -39.5c22.667 -17.333 39.834 -36.833 51.501 -58.5s17.5 -47.834 17.5 -78.501c0 -26.667 -3.83301 -50.334 -11.5 -71.001s-18.167 -37.667 -31.5 -51
c-14 -14.667 -29.667 -25.834 -47 -33.501s-35.333 -13.334 -54 -17.001s-37.667 -5.66699 -57 -6s-37.666 -0.5 -54.999 -0.5h-286v20h77v615h-112c-9.33301 0 -21.666 -1 -36.999 -3s-28.666 -8.33301 -39.999 -19c-9.33301 -8.66699 -15.666 -18.667 -18.999 -30
s-5.66602 -22 -6.99902 -32c-1.33301 -10.667 -2.33301 -22.5 -3 -35.5s-1.16699 -28.333 -1.5 -46s-0.666016 -38.5 -0.999023 -62.5s-0.833008 -52 -1.5 -84l-4 -161c-1.33301 -34 -2.66602 -59.667 -3.99902 -77s-4.66602 -31.666 -9.99902 -42.999
c-5.33301 -12 -11.833 -21.667 -19.5 -29s-15.667 -12.666 -24 -15.999s-16.333 -5.5 -24 -6.5s-13.834 -1.5 -18.501 -1.5c-33.333 0 -60.333 7.33301 -81 22c-9.33301 6.66699 -17.833 15.834 -25.5 27.501s-11.5 26.834 -11.5 45.501c0 21.333 6 39 18 53
s29.333 21 52 21c18.667 0 33.5 -5.33301 44.5 -16s16.5 -23.334 16.5 -38.001c0 -17.333 -4.33301 -32.666 -13 -45.999l-9 -13c-2.66699 -4 -4 -7.66699 -4 -11c0 -4.66699 2 -9.33398 6 -14.001s10.667 -7 20 -7c11.333 0 22.166 3.83301 32.499 11.5
s18.166 18.834 23.499 33.501c4 10.667 6.5 23.667 7.5 39s1.83301 37 2.5 65l4 161c0.666992 33.333 1.33398 60.333 2.00098 81s1 37.167 1 49.5v27.5v16v14.5v22.5c0 10 -0.5 21.667 -1.5 35s-5.83301 25.666 -14.5 36.999c-5.33301 6.66699 -11.333 12 -18 16
s-13.334 7 -20.001 9s-12.834 3.16699 -18.501 3.5s-10.5 0.5 -14.5 0.5h-24v20h540zM692.995 20.001c24.667 0 43.833 4.16797 57.5 12.501s23.5 16.166 29.5 23.499c6.66699 8.66699 11.667 19.334 15 32.001s5 25.667 5 39v77c0 15.333 -1 31.166 -3 47.499
s-7 30.833 -15 43.5c-12.667 20 -29.5 33 -50.5 39s-44.167 9 -69.5 9h-89v-323h120z" />
    <glyph glyph-name="afii10059" unicode="&#x40a;" horiz-adv-x="1019" 
d="M301 655l0.000976562 -20h-70v-275h295v275h-70v20h259v-20h-77v-275h88c38.667 0 74.667 -2.83301 108 -8.5s62.666 -17.5 87.999 -35.5c26 -18.667 44 -40.167 54 -64.5s15 -49.166 15 -74.499s-3.83301 -48.166 -11.5 -68.499s-18.167 -37.5 -31.5 -51.5
c-14 -14.667 -30 -25.834 -48 -33.501s-36.667 -13.334 -56 -17.001s-38.333 -5.66699 -57 -6s-36 -0.5 -52 -0.5h-279v20h70v320h-295v-320h70v-20h-259v20h77v615h-77v20h259zM758.001 20c24.667 0 43.8311 4.16699 57.498 12.5s23.5 16.166 29.5 23.499
c6.66699 8.66699 11.667 19.334 15 32.001s5 25.667 5 39v76c0 20 -1.16699 37.5 -3.5 52.5s-7.16602 27.833 -14.499 38.5c-12 18.667 -28.667 31 -50 37s-44.666 9 -69.999 9h-89v-320h120z" />
    <glyph glyph-name="afii10060" unicode="&#x40b;" horiz-adv-x="816" 
d="M260 636l-36.999 0.00292969c-7.33301 0 -16.666 -0.666992 -27.999 -2s-23.333 -4 -36 -8s-25.167 -9.83301 -37.5 -17.5s-23.5 -17.834 -33.5 -30.501c-9.33301 -12 -17.333 -27.167 -24 -45.5s-11.667 -41.5 -15 -69.5h-27l18 192h552l18 -192h-27
c-2.66699 19.333 -6.83398 39.5 -12.501 60.5s-14.167 39.167 -25.5 54.5c-9.33301 13.333 -19.833 23.833 -31.5 31.5s-23.5 13.5 -35.5 17.5s-23.833 6.5 -35.5 7.5s-22.834 1.5 -33.501 1.5h-37v-312c36.667 20.667 69.5 33.5 98.5 38.5s51.5 7.5 67.5 7.5
c17.333 0 35.333 -1.33301 54 -4s35.667 -7.66699 51 -15c9.33301 -4 18.833 -9.66699 28.5 -17s18.5 -16.333 26.5 -27s14.5 -23.334 19.5 -38.001s7.5 -31.667 7.5 -51v-198h77v-20h-259v20h70v197c0 14 -1.33301 29.667 -4 47s-10 32.666 -22 45.999
c-6 6.66699 -15.833 13.667 -29.5 21s-33.167 11 -58.5 11c-14 0 -31.667 -2.33301 -53 -7s-46 -14.667 -74 -30v-285h70v-20h-259v20h77v616z" />
    <glyph glyph-name="afii10061" unicode="&#x40c;" horiz-adv-x="691" 
d="M308 655l0.00292969 -20h-77v-266h96c3.33301 0 8.33301 0.166992 15 0.5s14 1.83301 22 4.5s16.167 6.5 24.5 11.5s15.5 12.167 21.5 21.5c4.66699 6.66699 8.16699 14 10.5 22s4.16602 17.333 5.49902 28s2.5 22.834 3.5 36.501s2.5 29.5 4.5 47.5
c2 16.667 4.66699 33.5 8 50.5s10.333 31.833 21 44.5c11.333 13.333 23.5 21.666 36.5 24.999s25.833 5 38.5 5c13.333 0 26.333 -1.66699 39 -5s24.334 -10 35.001 -20c9.33301 -8.66699 16.166 -18.334 20.499 -29.001s6.5 -21.334 6.5 -32.001
c0 -8 -1.16699 -16.5 -3.5 -25.5s-6.16602 -16.833 -11.499 -23.5c-3.33301 -4 -8.83301 -8.66699 -16.5 -14s-18.834 -8 -33.501 -8c-17.333 0 -31.5 5.16699 -42.5 15.5s-16.5 22.5 -16.5 36.5c0 3.33301 0.333008 7.33301 1 12s2 11.334 4 20.001l5 16.5
c1.33301 4.33301 2 8.5 2 12.5c0 3.33301 -1.33301 7 -4 11s-8 6 -16 6c-10.667 0 -19.167 -3.66699 -25.5 -11s-11.333 -16.333 -15 -27s-6.33398 -22 -8.00098 -34s-2.83398 -22.333 -3.50098 -31l-3.5 -38.5c-1 -11 -1.83301 -20.833 -2.5 -29.5s-1.5 -16.5 -2.5 -23.5
s-2.5 -13.833 -4.5 -20.5l-5.5 -14c-2.33301 -6 -6 -12.333 -11 -19s-11.667 -12.834 -20 -18.501s-18.5 -9.5 -30.5 -11.5v-5c12.667 -2.66699 23.667 -4.66699 33 -6s17.833 -2.83301 25.5 -4.5l22 -5c7 -1.66699 14.5 -4.5 22.5 -8.5
c14.667 -7.33301 30 -18.666 46 -33.999s28.333 -38.333 37 -69c4 -15.333 6.83301 -33.333 8.5 -54s3.5 -48 5.5 -82c0.666992 -16 2.5 -28.667 5.5 -38s6.5 -16.666 10.5 -21.999s8.16699 -8.83301 12.5 -10.5s7.83301 -2.5 10.5 -2.5c7.33301 0 15.833 3.16699 25.5 9.5
s18.167 14.166 25.5 23.499l15 -14c-16 -17.333 -31.833 -30 -47.5 -38s-34.167 -12 -55.5 -12c-24.667 0 -44.667 3.5 -60 10.5s-27 14.5 -35 22.5c-12.667 13.333 -21.334 28.333 -26.001 45s-8 32 -10 46c-4 32 -5.83301 60.5 -5.5 85.5s-2.16699 47.5 -7.5 67.5
c-4.66699 18.667 -11.5 33.5 -20.5 44.5s-18.667 19.333 -29 25s-20.666 9.33398 -30.999 11.001s-18.833 2.5 -25.5 2.5h-96v-329h77v-20h-266v20h77v615h-77v20h266zM454.003 825l-192 -137h-26l98 137h120z" />
    <glyph glyph-name="afii10062" unicode="&#x40e;" horiz-adv-x="622" 
d="M275 655l-0.00292969 -20.002h-84l197 -415l123 314c3.33301 7.33301 6.5 17.5 9.5 30.5s4.5 23.5 4.5 31.5c0 13.333 -4.5 23.166 -13.5 29.499s-19.5 9.5 -31.5 9.5h-14v20h170v-20c-15.333 0 -28.166 -2.66699 -38.499 -8s-19 -11.5 -26 -18.5
s-12.5 -14.167 -16.5 -21.5s-6.66699 -13 -8 -17l-141 -365c-8 -20 -15.833 -37.833 -23.5 -53.5s-15.5 -30.834 -23.5 -45.501c-9.33301 -17.333 -18.833 -33.166 -28.5 -47.499s-20.5 -27.166 -32.5 -38.499s-23.833 -19.333 -35.5 -24s-25.167 -7 -40.5 -7
c-20.667 0 -38.667 3.16699 -54 9.5s-28.666 14.166 -39.999 23.499c-17.333 14.667 -28.5 29.834 -33.5 45.501s-7.5 29.834 -7.5 42.501c0 8.66699 1.33301 17.334 4 26.001s6.66699 16.5 12 23.5s12.333 12.833 21 17.5s19 7 31 7c21.333 0 37.333 -6 48 -18
s16 -24 16 -36c0 -7.33301 -1.33301 -14.666 -4 -21.999s-6 -13.666 -10 -18.999c-8 -10.667 -17 -18.834 -27 -24.501s-15 -12.834 -15 -21.501c0 -6.66699 4.16699 -14 12.5 -22s21.833 -12 40.5 -12c14.667 0 28.834 3.66699 42.501 11s25.167 16 34.5 26
c7.33301 8 14 17 20 27l12 20l-256 542h-69v20h275zM310.997 713.998c8 0 17.1641 0.499023 27.4971 1.49902s19.833 2.83301 28.5 5.5c11.333 3.33301 19 7.66602 23 12.999s6 9.66602 6 12.999c0 5.33301 -2.16699 10.5 -6.5 15.5s-8.16602 9.16699 -11.499 12.5
c-4 4.66699 -7.33301 9.33398 -10 14.001s-4 10.667 -4 18c0 14 5 25.833 15 35.5s22.667 14.5 38 14.5c14 0 27.167 -5.16699 39.5 -15.5s18.5 -25.5 18.5 -45.5c0 -11.333 -2 -21.166 -6 -29.499s-8.83301 -15.833 -14.5 -22.5s-11.667 -12.167 -18 -16.5
s-11.833 -7.5 -16.5 -9.5c-10.667 -6 -22.167 -10.5 -34.5 -13.5s-23.833 -5.16699 -34.5 -6.5s-19.667 -2.16602 -27 -2.49902s-11.666 -0.5 -12.999 -0.5s-5.66602 0.166992 -12.999 0.5s-16.333 1.16602 -27 2.49902s-22.167 3.5 -34.5 6.5s-23.833 7.5 -34.5 13.5
c-4.66699 2 -10.167 5.16699 -16.5 9.5s-12.333 9.83301 -18 16.5s-10.5 14.167 -14.5 22.5s-6 18.166 -6 29.499c0 20 6.16699 35.167 18.5 45.5s25.5 15.5 39.5 15.5c15.333 0 28 -4.83301 38 -14.5s15 -21.5 15 -35.5c0 -12.667 -4.66699 -23.667 -14 -33l-11.5 -12
c-4.33301 -4.66699 -6.5 -9.66699 -6.5 -15c0 -3.33301 2 -7.66602 6 -12.999s11.667 -9.66602 23 -12.999c8.66699 -2.66699 18.167 -4.5 28.5 -5.5s19.5 -1.5 27.5 -1.5z" />
    <glyph glyph-name="afii10145" unicode="&#x40f;" horiz-adv-x="745" 
d="M301 655l0.000976562 -19.002h-70v-616h283v616h-70v19h259v-19h-77v-616h77v-20h-227c-12.667 -9.33301 -23.167 -19.666 -31.5 -30.999s-16.166 -25 -23.499 -41c-10 -22 -17 -43.167 -21 -63.5s-6.33301 -43.166 -7 -68.499h-34c-0.666992 15.333 -2 29 -4 41
s-4.5 23 -7.5 33s-6.5 19.5 -10.5 28.5s-8.33301 18.167 -13 27.5c-8.66699 16 -16.834 29.5 -24.501 40.5s-17.834 22.167 -30.501 33.5h-227v20h77v616h-77v19h259z" />
    <glyph glyph-name="afii10017" unicode="&#x410;" horiz-adv-x="617" 
d="M125 133c-3.33301 -8 -7.33008 -19.666 -11.9971 -34.999s-7 -28 -7 -38c0 -9.33301 2.16699 -16.5 6.5 -21.5s11.166 -9.16699 20.499 -12.5c5.33301 -1.33301 11.5 -2.5 18.5 -3.5s13.167 -1.83301 18.5 -2.5v-20h-170v20
c11.333 1.33301 22.166 4.66602 32.499 9.99902s19.166 11.666 26.499 18.999c6 6.66699 11 13.834 15 21.501s6.66699 13.5 8 17.5l221 567h18l228 -635h68v-20h-275v20h89l-74 202h-196zM264.003 490.001l-98 -248h184z" />
    <glyph glyph-name="afii10018" unicode="&#x411;" horiz-adv-x="642" 
d="M521 655l10.999 -182.994h-19c-7.33301 33.333 -14.5 59.166 -21.5 77.499s-15.167 33.166 -24.5 44.499c-15.333 19.333 -31.5 31 -48.5 35s-34.5 6 -52.5 6h-135v-258l71 -1c48 -0.666992 85.667 -4.33398 113 -11.001s48 -13 62 -19
c23.333 -10 42.333 -21.833 57 -35.5s26 -27.667 34 -42s13.5 -28.5 16.5 -42.5s4.5 -26.333 4.5 -37c0 -28.667 -5.83301 -56.334 -17.5 -83.001s-29.5 -48.334 -53.5 -65.001c-14 -10 -29.5 -17.667 -46.5 -23s-34.167 -9.33301 -51.5 -12
s-34.666 -4.33398 -51.999 -5.00098s-33 -1 -47 -1h-279v20h77v615h-77v20h479zM292.999 20.0059c9.33301 0 20.499 0.166992 33.499 0.5s26.333 2.16602 40 5.49902s26.834 8.83301 39.501 16.5s23.334 18.5 32.001 32.5c8.66699 13.333 15 30.666 19 51.999s6 42 6 62
c0 32.667 -3.83301 59.167 -11.5 79.5s-17.167 35.833 -28.5 46.5c-10 10 -21.833 17.833 -35.5 23.5s-27.334 9.83398 -41.001 12.501s-26.5 4.33398 -38.5 5.00098s-21.333 1 -28 1h-49v-337h62z" />
    <glyph glyph-name="afii10019" unicode="&#x412;" horiz-adv-x="665" 
d="M345 655c26 0 48.667 -1.33203 68 -3.99902s36 -6 50 -10s25.833 -8.33301 35.5 -13s17.834 -9.33398 24.501 -14.001c16 -11.333 29.5 -26.333 40.5 -45s16.5 -39.667 16.5 -63c0 -24.667 -5.83301 -45.334 -17.5 -62.001s-27.167 -31 -46.5 -43
s-40.5 -21.667 -63.5 -29s-46.167 -12 -69.5 -14v-5c21.333 -3.33301 44.666 -8.16602 69.999 -14.499s48 -14.833 68 -25.5c20.667 -11.333 37.167 -23.333 49.5 -36s21.5 -25.167 27.5 -37.5s9.83301 -24 11.5 -35s2.5 -20.167 2.5 -27.5c0 -28.667 -5.5 -53 -16.5 -73
s-23.5 -36 -37.5 -48c-25.333 -22 -56 -36.833 -92 -44.5s-72 -11.5 -108 -11.5h-316v20h77v615h-77v20h303zM304 365.001c21.333 0 43 3.16504 65 9.49805s39.333 15.833 52 28.5c7.33301 7.33301 13.166 15.833 17.499 25.5s7.5 19.334 9.5 29.001s3.33301 18.667 4 27
s1 15.166 1 20.499c0 6 -0.166992 13 -0.5 21s-1.5 16.333 -3.5 25s-4.66699 17.334 -8 26.001s-8 16.334 -14 23.001c-14 15.333 -31.667 25 -53 29s-40.666 6 -57.999 6h-85v-270h73zM344 19.999c13.333 0 28.8301 2 46.4971 6s32.834 10.667 45.501 20
c10 7.33301 20.833 21.5 32.5 42.5s17.5 52.167 17.5 93.5c0 26.667 -3.16699 50.167 -9.5 70.5s-19.833 38.5 -40.5 54.5c-17.333 13.333 -37.166 23 -59.499 29s-44.166 9 -65.499 9h-80v-325h113z" />
    <glyph glyph-name="afii10020" unicode="&#x413;" horiz-adv-x="538" 
d="M519 655l12.002 -189.999h-24c-2.66699 20.667 -7.83398 43.167 -15.501 67.5s-18.167 44.5 -31.5 60.5c-14.667 17.333 -30.334 28.666 -47.001 33.999s-32.667 8 -48 8h-134v-615h77v-20h-266v20h77v615h-77v20h477z" />
    <glyph glyph-name="afii10021" unicode="&#x414;" horiz-adv-x="671" 
d="M631 635l-77 -0.00195312v-615h89l8 -199h-28c-4 24.667 -12.167 50 -24.5 76s-29.833 48.333 -52.5 67c-20.667 16.667 -40.834 26.834 -60.501 30.501s-41.167 5.5 -64.5 5.5h-208c-27.333 0 -53.166 -6.5 -77.499 -19.5s-45.166 -33.5 -62.499 -61.5
c-9.33301 -15.333 -17 -32.166 -23 -50.499s-10.667 -34.166 -14 -47.499h-28l11 199h39c13.333 0 26.166 3 38.499 9s23.5 17.667 33.5 35c4 6.66699 7.83301 15.167 11.5 25.5s7.5 25.333 11.5 45s8.16699 45.167 12.5 76.5s9.16602 71.666 14.499 120.999
c1.33301 13.333 2.83301 29.666 4.5 48.999l5 61c1.66699 21.333 3.16699 42.5 4.5 63.5s2 39.5 2 55.5c0 8.66699 -0.833008 18 -2.5 28s-6.83398 19 -15.501 27c-9.33301 9.33301 -21.166 14.833 -35.499 16.5s-28.166 2.83398 -41.499 3.50098v19h530v-20zM442 634.998
l-86.002 -0.000976562c-22 0 -42.667 -1 -62 -3s-34.666 -7.66699 -45.999 -17c-7.33301 -6 -13.166 -13.333 -17.499 -22s-7.5 -17.667 -9.5 -27s-3.33301 -18.5 -4 -27.5s-1.33398 -16.5 -2.00098 -22.5l-3 -39.5l-4 -55.5c-1.33301 -19.333 -2.83301 -37.5 -4.5 -54.5
s-2.83398 -29.5 -3.50098 -37.5c-1.33301 -16 -3.16602 -34.5 -5.49902 -55.5s-5 -42.167 -8 -63.5s-6.33301 -42.166 -10 -62.499s-7.5 -38.5 -11.5 -54.5c-3.33301 -14 -7.66602 -26.667 -12.999 -38s-14.333 -23 -27 -35h317v615z" />
    <glyph glyph-name="afii10022" unicode="&#x415;" horiz-adv-x="601" 
d="M535 655l11.002 -188.997h-24c-3.33301 19.333 -8.5 39.5 -15.5 60.5s-14.5 37.5 -22.5 49.5c-14 20.667 -31.333 35.667 -52 45s-45.667 14 -75 14h-126v-275h36c4.66699 0 11 0.166992 19 0.5s16.333 2.16602 25 5.49902s17.334 8.66602 26.001 15.999s16 18 22 32
c4.66699 10 8.16699 21.167 10.5 33.5s4.16602 23.166 5.49902 32.499h20v-262h-20c-0.666992 2.66699 -1.5 7 -2.5 13s-2.16699 12.333 -3.5 19l-4 20c-1.33301 6.66699 -3 12.334 -5 17.001c-4.66699 12 -10.5 21.5 -17.5 28.5s-14.5 12.333 -22.5 16s-16 6 -24 7
s-15.667 1.5 -23 1.5h-42v-320h143c4 0 11 0.5 21 1.5s21.167 3.5 33.5 7.5s25.166 10.167 38.499 18.5s25.666 20.166 36.999 35.499c8.66699 11.333 16.5 26.5 23.5 45.5s13.167 44.167 18.5 75.5h24l-21 -204h-507v20h77v615h-77v20h493z" />
    <glyph glyph-name="afii10024" unicode="&#x416;" horiz-adv-x="1060" 
d="M663 655l0.0136719 -20h-77v-267h80c23.333 0 41.5 3.66699 54.5 11s23 16.666 30 27.999s11.5 23.833 13.5 37.5s3.66699 26.5 5 38.5c2 18 3.5 33.667 4.5 47s2.16699 25.333 3.5 36s3.16602 20.334 5.49902 29.001s5.5 16.667 9.5 24
c11.333 21.333 24.5 34.5 39.5 39.5s29.833 7.5 44.5 7.5c12 0 25.167 -1.66699 39.5 -5s27.166 -10.333 38.499 -21c7.33301 -6.66699 13.333 -15.167 18 -25.5s7 -22.5 7 -36.5c0 -17.333 -5.33301 -33.166 -16 -47.499s-26.334 -21.5 -47.001 -21.5
c-16 0 -30.167 4.5 -42.5 13.5s-18.5 20.5 -18.5 34.5c0 12 1.66699 23 5 33c2.66699 6 4.83398 11.333 6.50098 16s2.5 9.66699 2.5 15c0 7.33301 -2.5 12.166 -7.5 14.499s-9.16699 3.5 -12.5 3.5c-10 0 -18.333 -3.83301 -25 -11.5s-11.834 -16.834 -15.501 -27.501
s-6.33398 -21.667 -8.00098 -33s-2.83398 -20.333 -3.50098 -27c-2.66699 -23.333 -4.83398 -44 -6.50098 -62s-4.16699 -34 -7.5 -48c-4.66699 -18 -10.667 -31.667 -18 -41s-18.333 -17 -33 -23v-11c12.667 -1.33301 27.167 -4 43.5 -8s31.166 -9.66699 44.499 -17
c14 -7.33301 29 -18.833 45 -34.5s28.333 -38.167 37 -67.5c4.66699 -15.333 7.66699 -33.166 9 -53.499s3 -47.166 5 -80.499c0.666992 -8 1.5 -16.167 2.5 -24.5s2.83301 -16 5.5 -23s6.5 -12.833 11.5 -17.5s11.833 -7 20.5 -7c11.333 0 21.666 3.83301 30.999 11.5
s15.666 14.167 18.999 19.5l15 -14c-19.333 -21.333 -36.5 -35 -51.5 -41s-32.833 -9 -53.5 -9c-26 0 -47 4.33301 -63 13s-28.667 19.334 -38 32.001s-16 26.167 -20 40.5s-6.66699 27.5 -8 39.5c-3.33301 26 -5.16602 52.333 -5.49902 79s-3.16602 50.334 -8.49902 71.001
c-1.33301 4.66699 -3.83301 11.667 -7.5 21s-9.5 18.666 -17.5 27.999s-18.333 17.5 -31 24.5s-29 10.5 -49 10.5h-82v-328h77v-20h-266v20h77v328h-82c-20 0 -36.333 -3.5 -49 -10.5s-23 -15.167 -31 -24.5s-13.833 -18.666 -17.5 -27.999s-6.16699 -16.333 -7.5 -21
c-5.33301 -20.667 -8.16602 -44.334 -8.49902 -71.001s-2.16602 -53 -5.49902 -79c-1.33301 -12 -4 -25.167 -8 -39.5s-10.667 -27.833 -20 -40.5s-22 -23.334 -38 -32.001s-37 -13 -63 -13c-20.667 0 -38.5 3 -53.5 9s-32.167 19.667 -51.5 41l15 14
c3.33301 -5.33301 9.66602 -11.833 18.999 -19.5s19.666 -11.5 30.999 -11.5c8.66699 0 15.5 2.33301 20.5 7s8.83301 10.5 11.5 17.5s4.5 14.667 5.5 23s1.83301 16.5 2.5 24.5c2 33.333 3.66699 60.166 5 80.499s4.33301 38.166 9 53.499
c8.66699 29.333 21 51.833 37 67.5s31 27.167 45 34.5c13.333 7.33301 28.166 13 44.499 17s30.833 6.66699 43.5 8v11c-14.667 6 -25.667 13.667 -33 23s-13.333 23 -18 41c-3.33301 14 -5.83301 30 -7.5 48s-3.83398 38.667 -6.50098 62
c-0.666992 6.66699 -1.83398 15.667 -3.50098 27s-4.33398 22.333 -8.00098 33s-8.83398 19.834 -15.501 27.501s-15 11.5 -25 11.5c-3.33301 0 -7.5 -1.16699 -12.5 -3.5s-7.5 -7.16602 -7.5 -14.499c0 -5.33301 0.833008 -10.333 2.5 -15s3.83398 -10 6.50098 -16
c3.33301 -10 5 -21 5 -33c0 -14 -6.16699 -25.5 -18.5 -34.5s-26.5 -13.5 -42.5 -13.5c-20.667 0 -36.334 7.16699 -47.001 21.5s-16 30.166 -16 47.499c0 14 2.33301 26.167 7 36.5s10.667 18.833 18 25.5c11.333 10.667 24.166 17.667 38.499 21s27.5 5 39.5 5
c14.667 0 29.5 -2.5 44.5 -7.5s28.167 -18.167 39.5 -39.5c4 -7.33301 7.16699 -15.333 9.5 -24s4.16602 -18.334 5.49902 -29.001s2.5 -22.667 3.5 -36s2.5 -29 4.5 -47c1.33301 -12 3 -24.833 5 -38.5s6.5 -26.167 13.5 -37.5s17 -20.666 30 -27.999s31.167 -11 54.5 -11
h80v267h-77v20h266z" />
    <glyph glyph-name="afii10025" unicode="&#x417;" horiz-adv-x="586" 
d="M73 452l19.9961 214.005h19c1.33301 -3.33301 4.83301 -7.5 10.5 -12.5s14.834 -7.5 27.501 -7.5c10 0 19.333 1.66699 28 5s21.667 6.66602 39 9.99902c10.667 2 23 3.33301 37 4s26.667 1 38 1c20 0 42 -1.66699 66 -5s48 -11.333 72 -24c8 -4 17 -9.5 27 -16.5
s19.167 -15.667 27.5 -26s15.333 -22.5 21 -36.5s8.5 -30 8.5 -48c0 -17.333 -2.66699 -33 -8 -47s-15.333 -28 -30 -42c-19.333 -18 -42 -32.333 -68 -43s-50 -18.334 -72 -23.001v-6c4 -0.666992 10.667 -2 20 -4s20 -5.33301 32 -10s25 -10.5 39 -17.5
s27.667 -15.833 41 -26.5c24.667 -19.333 41.667 -40 51 -62s14 -44 14 -66c0 -17.333 -2.33301 -32.833 -7 -46.5s-10.667 -25.834 -18 -36.501s-15.333 -19.834 -24 -27.501s-17 -14.167 -25 -19.5c-16 -10 -33.167 -18 -51.5 -24s-36.166 -10.5 -53.499 -13.5
s-33.166 -4.83301 -47.499 -5.5s-25.5 -1 -33.5 -1c-14.667 0 -29.834 0.666992 -45.501 2s-31.5 4.16602 -47.5 8.49902s-31.667 10.333 -47 18s-29.666 17.834 -42.999 30.501c-20.667 19.333 -33.334 38 -38.001 56s-7 32.667 -7 44c0 22 7 39.333 21 52s30 19 48 19
c10.667 0 20.167 -2 28.5 -6s15 -9 20 -15s8.83301 -12.667 11.5 -20s4 -14 4 -20c0 -14.667 -5.33301 -27.334 -16 -38.001c-4.66699 -4.66699 -9.66699 -8.33398 -15 -11.001l-14.5 -7.5c-4.33301 -2.33301 -8 -5.33301 -11 -9s-4.5 -8.83398 -4.5 -15.501
c0 -7.33301 3.66699 -16.166 11 -26.499s24.333 -20.166 51 -29.499c11.333 -4 22.666 -7.16699 33.999 -9.5s24 -3.5 38 -3.5c36 0 64.5 6 85.5 18s36.167 25.667 45.5 41c6 9.33301 10.667 19.833 14 31.5s5.83301 22.667 7.5 33s2.66699 19.166 3 26.499
s0.5 11.666 0.5 12.999v15.5c0 7.66699 -0.833008 16.834 -2.5 27.501s-4.16699 21.834 -7.5 33.501s-8 23.167 -14 34.5c-7.33301 13.333 -15.833 23.833 -25.5 31.5s-19.5 13.5 -29.5 17.5s-19.333 6.66699 -28 8s-15.667 2 -21 2h-87v20h83c22 0 39.667 4.16699 53 12.5
s23.666 16.5 30.999 24.5c13.333 15.333 21.333 31.833 24 49.5s4 35.834 4 54.501c0 17.333 -1.33301 35.833 -4 55.5s-10.667 37.5 -24 53.5c-13.333 15.333 -28.666 25.166 -45.999 29.499s-33.666 6.5 -48.999 6.5c-12.667 0 -27.667 -1.83301 -45 -5.5
s-35 -13.167 -53 -28.5c-25.333 -20 -42.666 -44 -51.999 -72s-16.666 -57.667 -21.999 -89h-19z" />
    <glyph glyph-name="afii10026" unicode="&#x418;" horiz-adv-x="757" 
d="M301 655v-20h-70v-519l295 454v65h-70v20h259v-20h-77v-615h77v-20h-259v20h70v514l-295 -459v-55h70v-20h-259v20h77v615h-77v20h259z" />
    <glyph glyph-name="afii10027" unicode="&#x419;" horiz-adv-x="757" 
d="M301 655v-20h-70v-519l295 454v65h-70v20h259v-20h-77v-615h77v-20h-259v20h70v514l-295 -459v-55h70v-20h-259v20h77v615h-77v20h259zM378 714c8 0 17.1689 0.5 27.502 1.5s19.5 2.5 27.5 4.5c11.333 3.33301 19.166 7.5 23.499 12.5s6.5 9.83301 6.5 14.5
c0 5.33301 -2.16699 10.166 -6.5 14.499s-8.5 8.83301 -12.5 13.5s-7.16699 9.16699 -9.5 13.5s-3.5 10.166 -3.5 17.499c0 15.333 4.83301 27.666 14.5 36.999s21.5 14 35.5 14c16 0 30.167 -5.16699 42.5 -15.5s18.5 -24.5 18.5 -42.5
c0 -13.333 -3.83301 -27.5 -11.5 -42.5s-22.167 -27.833 -43.5 -38.5c-14.667 -7.33301 -32 -13 -52 -17s-39 -6 -57 -6s-37 2 -57 6s-37.333 9.66699 -52 17c-21.333 10.667 -35.833 23.5 -43.5 38.5s-11.5 29.167 -11.5 42.5c0 18 6.16699 32.167 18.5 42.5
s26.5 15.5 42.5 15.5c14 0 25.833 -4.66699 35.5 -14s14.5 -21.666 14.5 -36.999c0 -7.33301 -1.16699 -13.166 -3.5 -17.499s-5.5 -8.83301 -9.5 -13.5s-8.16699 -9.16699 -12.5 -13.5s-6.5 -9.16602 -6.5 -14.499c0 -4.66699 2.16699 -9.5 6.5 -14.5
s12.166 -9.16699 23.499 -12.5c8 -2 17.167 -3.5 27.5 -4.5s19.5 -1.5 27.5 -1.5z" />
    <glyph glyph-name="afii10028" unicode="&#x41a;" horiz-adv-x="691" 
d="M308 655l0.00292969 -20h-77v-266h96c3.33301 0 8.33301 0.166992 15 0.5s14 1.83301 22 4.5s16.167 6.5 24.5 11.5s15.5 12.167 21.5 21.5c4.66699 6.66699 8.16699 14 10.5 22s4.16602 17.333 5.49902 28s2.5 22.834 3.5 36.501s2.5 29.5 4.5 47.5
c2 16.667 4.66699 33.5 8 50.5s10.333 31.833 21 44.5c11.333 13.333 23.5 21.666 36.5 24.999s25.833 5 38.5 5c13.333 0 26.333 -1.66699 39 -5s24.334 -10 35.001 -20c9.33301 -8.66699 16.166 -18.334 20.499 -29.001s6.5 -21.334 6.5 -32.001
c0 -8 -1.16699 -16.5 -3.5 -25.5s-6.16602 -16.833 -11.499 -23.5c-3.33301 -4 -8.83301 -8.66699 -16.5 -14s-18.834 -8 -33.501 -8c-17.333 0 -31.5 5.16699 -42.5 15.5s-16.5 22.5 -16.5 36.5c0 3.33301 0.333008 7.33301 1 12s2 11.334 4 20.001l5 16.5
c1.33301 4.33301 2 8.5 2 12.5c0 3.33301 -1.33301 7 -4 11s-8 6 -16 6c-10.667 0 -19.167 -3.66699 -25.5 -11s-11.333 -16.333 -15 -27s-6.33398 -22 -8.00098 -34s-2.83398 -22.333 -3.50098 -31l-3.5 -38.5c-1 -11 -1.83301 -20.833 -2.5 -29.5s-1.5 -16.5 -2.5 -23.5
s-2.5 -13.833 -4.5 -20.5l-5.5 -14c-2.33301 -6 -6 -12.333 -11 -19s-11.667 -12.834 -20 -18.501s-18.5 -9.5 -30.5 -11.5v-5c12.667 -2.66699 23.667 -4.66699 33 -6s17.833 -2.83301 25.5 -4.5l22 -5c7 -1.66699 14.5 -4.5 22.5 -8.5
c14.667 -7.33301 30 -18.666 46 -33.999s28.333 -38.333 37 -69c4 -15.333 6.83301 -33.333 8.5 -54s3.5 -48 5.5 -82c0.666992 -16 2.5 -28.667 5.5 -38s6.5 -16.666 10.5 -21.999s8.16699 -8.83301 12.5 -10.5s7.83301 -2.5 10.5 -2.5c7.33301 0 15.833 3.16699 25.5 9.5
s18.167 14.166 25.5 23.499l15 -14c-16 -17.333 -31.833 -30 -47.5 -38s-34.167 -12 -55.5 -12c-24.667 0 -44.667 3.5 -60 10.5s-27 14.5 -35 22.5c-12.667 13.333 -21.334 28.333 -26.001 45s-8 32 -10 46c-4 32 -5.83301 60.5 -5.5 85.5s-2.16699 47.5 -7.5 67.5
c-4.66699 18.667 -11.5 33.5 -20.5 44.5s-18.667 19.333 -29 25s-20.666 9.33398 -30.999 11.001s-18.833 2.5 -25.5 2.5h-96v-329h77v-20h-266v20h77v615h-77v20h266z" />
    <glyph glyph-name="afii10029" unicode="&#x41b;" horiz-adv-x="692" 
d="M650 635l-77.0039 -0.00195312v-615h77v-20h-266v20h77v615h-112c-9.33301 0 -21.666 -1 -36.999 -3s-28.666 -8.33301 -39.999 -19c-9.33301 -8.66699 -15.666 -18.667 -18.999 -30s-5.66602 -22 -6.99902 -32c-1.33301 -10.667 -2.33301 -22.5 -3 -35.5
s-1.16699 -28.333 -1.5 -46s-0.666016 -38.5 -0.999023 -62.5s-0.833008 -52 -1.5 -84l-4 -161c-0.666992 -24.667 -1.5 -46.834 -2.5 -66.501s-4.83301 -37.167 -11.5 -52.5c-5.33301 -12.667 -11.833 -22.5 -19.5 -29.5s-15.5 -12.333 -23.5 -16s-15.833 -6 -23.5 -7
s-14.167 -1.5 -19.5 -1.5c-33.333 0 -60.333 7.33301 -81 22c-9.33301 6.66699 -17.833 15.834 -25.5 27.501s-11.5 26.834 -11.5 45.501c0 21.333 6 39 18 53s29.333 21 52 21c18.667 0 33.5 -5.33301 44.5 -16s16.5 -23.334 16.5 -38.001
c0 -17.333 -4.33301 -32.666 -13 -45.999l-9 -13c-2.66699 -4 -4 -7.66699 -4 -11s1.66699 -7.66602 5 -12.999s10.666 -8 21.999 -8c9.33301 0 18.833 2.83301 28.5 8.5s17.834 16.5 24.501 32.5c5.33301 12.667 8.5 27.334 9.5 44.001s1.83301 38 2.5 64l4 161
c0.666992 33.333 1.33398 60.333 2.00098 81s1 37.167 1 49.5v27.5v16v14.5v22.5c0 10 -0.5 21.667 -1.5 35s-5.83301 25.666 -14.5 36.999c-5.33301 6.66699 -11.333 12 -18 16s-13.334 7 -20.001 9s-12.834 3.16699 -18.501 3.5s-10.5 0.5 -14.5 0.5h-24v20h540v-20z" />
    <glyph glyph-name="afii10030" unicode="&#x41c;" horiz-adv-x="847" 
d="M805 635l-77.001 -0.00292969v-615h77v-20h-266v20h77v575l-222 -607h-18l-232 602v-487c0 -7.33301 0.333008 -15.666 1 -24.999s4.66699 -19 12 -29c7.33301 -11.333 15.666 -18.666 24.999 -21.999s22 -5.66602 38 -6.99902v-20h-178v20
c18.667 -1.33301 33.834 1.83398 45.501 9.50098s20.167 16.5 25.5 26.5c2.66699 5.33301 5 12.833 7 22.5s3 18.167 3 25.5v475c0 13.333 -2.16699 23.666 -6.5 30.999s-9.66602 12.833 -15.999 16.5s-13 6 -20 7s-13.167 1.5 -18.5 1.5h-18l1 20h189l195 -507l187 507h189
v-20z" />
    <glyph glyph-name="afii10031" unicode="&#x41d;" horiz-adv-x="757" 
d="M301 655v-20h-70v-275h295v275h-70v20h259v-20h-77v-615h77v-20h-259v20h70v320h-295v-320h70v-20h-259v20h77v615h-77v20h259z" />
    <glyph glyph-name="afii10032" unicode="&#x41e;" horiz-adv-x="730" 
d="M50 328c0 42 6.66895 81.5 20.002 118.5s31 69.833 53 98.5c16 20.667 33.833 38.5 53.5 53.5s40 27.5 61 37.5s42.5 17.5 64.5 22.5s43 7.5 63 7.5s41 -2.5 63 -7.5s43.5 -12.5 64.5 -22.5s41.333 -22.5 61 -37.5s37.5 -32.833 53.5 -53.5
c22 -28.667 39.667 -61.5 53 -98.5s20 -76.5 20 -118.5c0 -42.667 -6.66699 -82.334 -20 -119.001s-31 -69.334 -53 -98.001c-18.667 -24 -38.834 -44 -60.501 -60s-43.334 -28.5 -65.001 -37.5s-42.667 -15.333 -63 -19s-38.166 -5.5 -53.499 -5.5
s-33.166 1.83301 -53.499 5.5s-41.333 10 -63 19s-43.334 21.5 -65.001 37.5s-41.834 36 -60.501 60c-22 28.667 -39.667 61.334 -53 98.001s-20 76.334 -20 119.001zM176.002 328c0 -34 1.33301 -65.833 4 -95.5s8.33398 -57.167 17.001 -82.5c8 -24.667 18.5 -46 31.5 -64
s27.167 -32.667 42.5 -44s31 -19.833 47 -25.5s31.667 -8.5 47 -8.5c14.667 0 30.167 2.83301 46.5 8.5s32.166 14.167 47.499 25.5s29.5 26 42.5 44s23.5 39.333 31.5 64c8.66699 25.333 14.334 52.833 17.001 82.5s4 61.5 4 95.5s-1.33301 65.833 -4 95.5
s-8.33398 57.167 -17.001 82.5c-8 24.667 -18.5 45.834 -31.5 63.501s-27.167 32.167 -42.5 43.5s-31.166 19.833 -47.499 25.5s-31.833 8.5 -46.5 8.5c-15.333 0 -31 -2.83301 -47 -8.5s-31.667 -14.167 -47 -25.5s-29.5 -25.833 -42.5 -43.5s-23.5 -38.834 -31.5 -63.501
c-8.66699 -25.333 -14.334 -52.833 -17.001 -82.5s-4 -61.5 -4 -95.5z" />
    <glyph glyph-name="afii10033" unicode="&#x41f;" horiz-adv-x="757" 
d="M715 655v-20h-77v-615h77v-20h-259v20h70v615h-295v-615h70v-20h-259v20h77v615h-77v20h673z" />
    <glyph glyph-name="afii10034" unicode="&#x420;" horiz-adv-x="628" 
d="M330 655c34.667 0 69.5 -3.82812 104.5 -11.4951s65.833 -23.834 92.5 -48.501c13.333 -12.667 24 -25.667 32 -39s14 -26.333 18 -39s6.5 -24.334 7.5 -35.001s1.5 -19.334 1.5 -26.001c0 -18.667 -1.83301 -35.334 -5.5 -50.001s-8.33398 -27.5 -14.001 -38.5
s-11.5 -20.333 -17.5 -28s-11.333 -13.834 -16 -18.501c-23.333 -22.667 -53.166 -38.5 -89.499 -47.5s-74.5 -13.5 -114.5 -13.5h-98v-240h77v-20h-266v20h77v615h-77v20h288zM300 280.005c4 0 10.1689 0.332031 18.502 0.999023s17.5 1.83398 27.5 3.50098s20 4 30 7
s19 6.83301 27 11.5c21.333 13.333 36.166 31 44.499 53s12.5 42.333 12.5 61v73c0 6.66699 -0.166992 14.834 -0.5 24.501s-2 19.667 -5 30s-7.5 20.666 -13.5 30.999s-14.333 19.833 -25 28.5c-17.333 14 -36.333 22.667 -57 26s-40.334 5 -59.001 5h-69v-355h69z" />
    <glyph glyph-name="afii10035" unicode="&#x421;" horiz-adv-x="590" 
d="M544 666l0.00488281 -212.998h-20c-0.666992 7.33301 -2 16.833 -4 28.5s-4.83301 24 -8.5 37s-7.83398 25.5 -12.501 37.5s-10 22.333 -16 31c-12.667 17.333 -29.834 31.666 -51.501 42.999s-45.834 17 -72.501 17c-17.333 0 -33 -2 -47 -6
s-26.167 -9.16699 -36.5 -15.5s-19.333 -13 -27 -20s-13.834 -13.5 -18.501 -19.5c-12 -14.667 -21.333 -31 -28 -49s-11.667 -36 -15 -54s-5.5 -35 -6.5 -51s-1.5 -29.333 -1.5 -40v-162c0 -13.333 0.666992 -27.833 2 -43.5s4.16602 -31.5 8.49902 -47.5
s10.5 -31.5 18.5 -46.5s18.667 -28.833 32 -41.5s29 -23 47 -31s36.333 -12 55 -12c28 0 56.5 8.33301 85.5 25s52.167 38 69.5 64c12 18 20.833 37.167 26.5 57.5s10.5 41.5 14.5 63.5h24l-8 -218h-26c0 2 -0.5 5.33301 -1.5 10s-2.66699 9.16699 -5 13.5
s-5.5 8.16602 -9.5 11.499s-9.33301 5 -16 5c-8.66699 0 -17.167 -2.33301 -25.5 -7l-27.5 -15c-17.333 -9.33301 -35.5 -16.5 -54.5 -21.5s-39.833 -7.5 -62.5 -7.5c-19.333 0 -38.833 2.33301 -58.5 7s-39.167 12 -58.5 22s-37.666 22.833 -54.999 38.5s-33 34.5 -47 56.5
c-16 25.333 -29 55 -39 89s-15 73.333 -15 118c0 38 4.16699 74.167 12.5 108.5s22.833 67.833 43.5 100.5c18 28 37.333 51 58 69s41.667 32 63 42s42.166 16.833 62.499 20.5s38.833 5.5 55.5 5.5c15.333 0 28.833 -1.16699 40.5 -3.5s24.167 -5.83301 37.5 -10.5
l35 -12.5c8 -3 15.667 -4.5 23 -4.5c18 0 30 10.333 36 31h24z" />
    <glyph glyph-name="afii10036" unicode="&#x422;" horiz-adv-x="634" 
d="M261 635c-10.667 0 -23.334 -0.333008 -38.001 -1s-26.667 -1.66699 -36 -3c-24 -3.33301 -44 -10.5 -60 -21.5s-28.667 -23.167 -38 -36.5c-6 -9.33301 -11.333 -19.5 -16 -30.5s-8.5 -22.167 -11.5 -33.5s-5.5 -22.166 -7.5 -32.499s-3.33301 -19.5 -4 -27.5h-28l5 206
h580l5 -206h-28c-0.666992 4 -1.66699 10.833 -3 20.5s-3.5 20.5 -6.5 32.5s-7 24.333 -12 37s-10.833 24 -17.5 34c-9.33301 14 -21.666 26.333 -36.999 37s-31.666 17.667 -48.999 21c-6.66699 1.33301 -15.834 2.16602 -27.501 2.49902s-31.167 0.833008 -58.5 1.5v-615
h77v-20h-266v20h77v615z" />
    <glyph glyph-name="afii10037" unicode="&#x423;" horiz-adv-x="622" 
d="M275 655l-0.00292969 -20.002h-84l197 -415l123 314c3.33301 7.33301 6.5 17.5 9.5 30.5s4.5 23.5 4.5 31.5c0 13.333 -4.5 23.166 -13.5 29.499s-19.5 9.5 -31.5 9.5h-14v20h170v-20c-15.333 0 -28.166 -2.66699 -38.499 -8s-19 -11.5 -26 -18.5
s-12.5 -14.167 -16.5 -21.5s-6.66699 -13 -8 -17l-141 -365c-8 -20 -15.833 -37.833 -23.5 -53.5s-15.5 -30.834 -23.5 -45.501c-9.33301 -17.333 -18.833 -33.166 -28.5 -47.499s-20.5 -27.166 -32.5 -38.499s-23.833 -19.333 -35.5 -24s-25.167 -7 -40.5 -7
c-20.667 0 -38.667 3.16699 -54 9.5s-28.666 14.166 -39.999 23.499c-17.333 14.667 -28.5 29.834 -33.5 45.501s-7.5 29.834 -7.5 42.501c0 8.66699 1.33301 17.334 4 26.001s6.66699 16.5 12 23.5s12.333 12.833 21 17.5s19 7 31 7c21.333 0 37.333 -6 48 -18
s16 -24 16 -36c0 -7.33301 -1.33301 -14.666 -4 -21.999s-6 -13.666 -10 -18.999c-8 -10.667 -17 -18.834 -27 -24.501s-15 -12.834 -15 -21.501c0 -6.66699 4.16699 -14 12.5 -22s21.833 -12 40.5 -12c14.667 0 28.834 3.66699 42.501 11s25.167 16 34.5 26
c7.33301 8 14 17 20 27l12 20l-256 542h-69v20h275z" />
    <glyph glyph-name="afii10038" unicode="&#x424;" horiz-adv-x="886" 
d="M576 682l-0.00195312 -20h-77v-57c70.667 -1.33301 126.834 -8.33301 168.501 -21s75.167 -29.334 100.5 -50.001c50.667 -42 76 -98.667 76 -170c0 -43.333 -7.5 -78.5 -22.5 -105.5s-32.167 -48.167 -51.5 -63.5c-18 -14.667 -38.833 -26.5 -62.5 -35.5
s-48 -16 -73 -21s-49.333 -8.33301 -73 -10s-44.5 -2.5 -62.5 -2.5v-106h77v-20h-266v20h77v106c-18 0 -38.833 0.833008 -62.5 2.5s-48 5 -73 10s-49.333 12 -73 21s-44.5 20.833 -62.5 35.5c-19.333 15.333 -36.5 36.5 -51.5 63.5s-22.5 62.167 -22.5 105.5
c0 71.333 25.333 128 76 170c25.333 20.667 58.833 37.334 100.5 50.001s97.834 19.667 168.501 21v57h-77v20h266zM386.998 585c-12.667 0 -27.3311 -0.665039 -43.998 -1.99805s-33.667 -4.33301 -51 -9s-33.833 -11.334 -49.5 -20.001s-28.834 -19.667 -39.501 -33
c-8 -10 -14.333 -21 -19 -33s-8.16699 -23.833 -10.5 -35.5s-3.83301 -22.667 -4.5 -33s-1 -18.833 -1 -25.5v-65c0 -21.333 1.66699 -42.333 5 -63s13.333 -40.334 30 -59.001c12.667 -14.667 28 -26.167 46 -34.5s36 -14.5 54 -18.5s34.667 -6.33301 50 -7
s26.666 -1 33.999 -1v439zM499.001 146.002c7.33301 0 18.6689 0.331055 34.002 0.998047s32 3 50 7s36 10.167 54 18.5s33.333 19.833 46 34.5c16.667 18.667 26.667 38.334 30 59.001s5 41.667 5 63v65c0 6.66699 -0.333008 15.167 -1 25.5s-2.16699 21.333 -4.5 33
s-5.83301 23.5 -10.5 35.5s-11 23 -19 33c-10.667 13.333 -23.834 24.333 -39.501 33s-32.167 15.334 -49.5 20.001s-34.333 7.66699 -51 9s-31.334 2 -44.001 2v-439z" />
    <glyph glyph-name="afii10039" unicode="&#x425;" horiz-adv-x="700" 
d="M278 655l-0.000976562 -20.002h-64l150 -226l100 153c2 3.33301 4 8.33301 6 15s3 12.334 3 17.001c0 4 -0.833008 8.33301 -2.5 13s-4.66699 9 -9 13s-10.166 7.5 -17.499 10.5s-17 4.5 -29 4.5h-14v20h219v-20c-18.667 -1.33301 -33 -3.16602 -43 -5.49902
s-18.333 -5.16602 -25 -8.49902c-6 -3.33301 -12.333 -7.83301 -19 -13.5s-13 -11.834 -19 -18.501s-11.667 -13.5 -17 -20.5s-9.66602 -13.167 -12.999 -18.5l-105 -162l241 -368h58v-20h-266v20h78l-186 280l-116 -179c-3.33301 -5.33301 -6.5 -12.333 -9.5 -21
s-4.5 -15.334 -4.5 -20.001c0 -4 0.666992 -9.16699 2 -15.5s4.5 -12.5 9.5 -18.5s12.833 -11.5 23.5 -16.5s25 -8.16699 43 -9.5v-20h-230v20c10 2.66699 22.333 6.33398 37 11.001s27.334 10.667 38.001 18c9.33301 6 19.166 14.667 29.499 26s18.166 21 23.499 29
l142 217l-211 314h-59v20h256z" />
    <glyph glyph-name="afii10040" unicode="&#x426;" horiz-adv-x="753" 
d="M301 655v-19.999h-70v-615h291v615h-70v20h258v-20h-76v-615h73l24 -202h-24c-4 25.333 -11.5 50.666 -22.5 75.999s-24.167 45 -39.5 59c-21.333 19.333 -46.5 32 -75.5 38s-58.5 9 -88.5 9h-439v20h77v615h-77v20h259z" />
    <glyph glyph-name="afii10041" unicode="&#x427;" horiz-adv-x="675" 
d="M273 655l-0.000976562 -20.001h-70v-196c0 -12.667 0.833008 -25.167 2.5 -37.5s7.5 -24.833 17.5 -37.5c13.333 -16.667 28.5 -27 45.5 -31s32.833 -6 47.5 -6c28.667 0 54.834 3 78.501 9s40.167 10.667 49.5 14v285h-70v20h259v-20h-77v-615h77v-20h-266v20h77v311
c-2.66699 -1.33301 -9 -3.66602 -19 -6.99902s-22.5 -6.83301 -37.5 -10.5s-31.667 -7 -50 -10s-37.5 -4.5 -57.5 -4.5c-14 0 -29.833 1 -47.5 3s-34.167 5.66699 -49.5 11c-22 7.33301 -39.167 17 -51.5 29s-21.5 24 -27.5 36s-9.66699 23.5 -11 34.5s-2 19.167 -2 24.5
v198h-77v20h259z" />
    <glyph glyph-name="afii10042" unicode="&#x428;" horiz-adv-x="1074" 
d="M301 655v-20h-70v-615h250v615h-70v20h252v-20h-70v-615h250v615h-70v20h259v-20h-77v-615h77v-20h-990v20h77v615h-77v20h259z" />
    <glyph glyph-name="afii10043" unicode="&#x429;" horiz-adv-x="1074" 
d="M301 655l-0.000976562 -20h-70v-615h250v615h-70v20h252v-20h-70v-615h250v615h-70v20h259v-20h-77v-615h73l24 -202h-24c-4 22.667 -9 42.167 -15 58.5s-12.167 30 -18.5 41s-12.166 19.333 -17.499 25l-10 10.5c-21.333 19.333 -47 32 -77 38s-59.333 9 -88 9h-760v20
h77v615h-77v20h259z" />
    <glyph glyph-name="afii10044" unicode="&#x42a;" horiz-adv-x="737" 
d="M432 635l-76.9971 -0.000976562v-272h87c11.333 0 24.333 -0.166992 39 -0.5s29.834 -1.66602 45.501 -3.99902s31.667 -5.83301 48 -10.5s31.833 -11 46.5 -19c10.667 -6 21.167 -13.333 31.5 -22s19.666 -19.167 27.999 -31.5s15.166 -27 20.499 -44s8 -36.5 8 -58.5
c0 -33.333 -6 -60 -18 -80s-24 -35.333 -36 -46c-14.667 -12.667 -30.834 -22.167 -48.501 -28.5s-35.667 -10.833 -54 -13.5s-36 -4.16699 -53 -4.5s-32.5 -0.5 -46.5 -0.5h-287v20h77v615c-16 0.666992 -31.833 0.5 -47.5 -0.5s-30.834 -3.66699 -45.501 -8
s-28.167 -10.5 -40.5 -18.5s-22.833 -18.333 -31.5 -31c-11.333 -15.333 -19.5 -34.5 -24.5 -57.5s-10.167 -49.5 -15.5 -79.5h-24l15 215h403v-20zM476.003 19.999c20.667 0 38.333 3.50098 53 10.501s25.667 15.5 33 25.5c6 8 11 18.833 15 32.5s6 26.5 6 38.5v77
c0 15.333 -1 31.166 -3 47.499s-7 30.833 -15 43.5c-12.667 20 -29.5 33 -50.5 39s-44.5 9 -70.5 9h-89v-323h121z" />
    <glyph glyph-name="afii10045" unicode="&#x42b;" horiz-adv-x="936" 
d="M308 655v-19.998h-77v-272h86c14 0 29.5 -0.333008 46.5 -1s34.333 -2.66699 52 -6s35 -8.16602 52 -14.499s33.167 -14.833 48.5 -25.5c25.333 -19.333 43 -40.833 53 -64.5s15 -47.834 15 -72.501c0 -26 -3.83301 -49.5 -11.5 -70.5s-18.167 -38.167 -31.5 -51.5
c-14 -14.667 -29.667 -25.834 -47 -33.501s-35.5 -13.334 -54.5 -17.001s-38 -5.66699 -57 -6s-37.167 -0.5 -54.5 -0.5h-286v20h77v615h-77v20h266zM351 20.002c24.667 0 43.833 4.16797 57.5 12.501s23.5 16.166 29.5 23.499c6.66699 8.66699 11.667 19.334 15 32.001
s5 25.667 5 39v77c0 15.333 -1 31.166 -3 47.499s-7 30.833 -15 43.5c-12.667 20 -29.5 33 -50.5 39s-44.167 9 -69.5 9h-89v-323h120zM893.999 655.003v-20h-70v-615h70v-20h-259v20h77v615h-77v20h259z" />
    <glyph glyph-name="afii10046" unicode="&#x42c;" horiz-adv-x="612" 
d="M308 655l-0.00195312 -19.9961h-77v-272h88c38.667 0 74 -2.5 106 -7.5s62 -18.167 90 -39.5c22.667 -17.333 39.834 -36.833 51.501 -58.5s17.5 -47.834 17.5 -78.501c0 -26.667 -3.83301 -50.334 -11.5 -71.001s-18.167 -37.667 -31.5 -51
c-14 -14.667 -29.667 -25.834 -47 -33.501s-35.333 -13.334 -54 -17.001s-37.667 -5.66699 -57 -6s-37.666 -0.5 -54.999 -0.5h-286v20h77v615h-77v20h266zM350.998 20.0039c24.667 0 43.833 4.16797 57.5 12.501s23.5 16.166 29.5 23.499
c6.66699 8.66699 11.667 19.334 15 32.001s5 25.667 5 39v77c0 15.333 -1 31.166 -3 47.499s-7 30.833 -15 43.5c-12.667 20 -29.5 33 -50.5 39s-44.167 9 -69.5 9h-89v-323h120z" />
    <glyph glyph-name="afii10047" unicode="&#x42d;" horiz-adv-x="586" 
d="M46 449l26.001 216.997h24c1.33301 -11.333 6 -18.666 14 -21.999s14.667 -5 20 -5c7.33301 0 15.666 1.66699 24.999 5s20 6.66602 32 9.99902c13.333 4 25.666 7 36.999 9s24 3 38 3s29.5 -1.16699 46.5 -3.5s34.667 -6.83301 53 -13.5s36.666 -16 54.999 -28
s35.833 -28 52.5 -48c27.333 -32 46.666 -67.667 57.999 -107s17 -83.333 17 -132c0 -54 -9.33301 -105.833 -28 -155.5s-45 -90.167 -79 -121.5c-30 -27.333 -61.5 -45.5 -94.5 -54.5s-64.167 -13.5 -93.5 -13.5c-32 0 -59.667 2.83301 -83 8.5
s-43.666 13.834 -60.999 24.501c-19.333 11.333 -37 27.333 -53 48s-24 44.334 -24 71.001c0 21.333 6.66699 38.666 20 51.999s29.333 20 48 20c17.333 0 32 -5.66699 44 -17s18 -25.666 18 -42.999c0 -10 -2.33301 -19.167 -7 -27.5s-10.667 -15.166 -18 -20.499
c-4 -3.33301 -9.33301 -7.5 -16 -12.5s-10 -12.167 -10 -21.5c0 -8 3.5 -15.833 10.5 -23.5s16.5 -14.334 28.5 -20.001s25.667 -10.334 41 -14.001s31.333 -5.5 48 -5.5c8.66699 0 20.834 1 36.501 3s32 7.5 49 16.5s33.167 22.5 48.5 40.5s26.666 43.333 33.999 76
c0.666992 4.66699 2 12.167 4 22.5s3.66699 21.333 5 33l4 34.5c1.33301 11.333 2 20.333 2 27v77h-264v19h264v86c0 19.333 -1.66699 39 -5 59s-8.33301 37.667 -15 53c-4.66699 10.667 -10.834 21.5 -18.501 32.5s-17.167 21 -28.5 30s-24.666 16.167 -39.999 21.5
s-33.333 8 -54 8c-29.333 0 -55.5 -6.16699 -78.5 -18.5s-43.5 -32.5 -61.5 -60.5c-11.333 -17.333 -20.666 -36.666 -27.999 -57.999s-12.666 -41.666 -15.999 -60.999h-27z" />
    <glyph glyph-name="afii10048" unicode="&#x42e;" horiz-adv-x="1048" 
d="M308 655l0.00195312 -20.0049h-77v-283h136c2 18.667 4.5 35.834 7.5 51.501s7 30.834 12 45.501s11.333 29.167 19 43.5s17.5 29.5 29.5 45.5c9.33301 12.667 21.166 26.5 35.499 41.5s31.5 29 51.5 42s43.333 23.667 70 32s57 12.5 91 12.5
c29.333 0 56.5 -3.5 81.5 -10.5s47.833 -16.333 68.5 -28s39 -25 55 -40s30 -30.5 42 -46.5c16.667 -22.667 31.667 -51.5 45 -86.5s20 -77.167 20 -126.5c0 -37.333 -5 -73.666 -15 -108.999s-26.667 -69.666 -50 -102.999c-11.333 -16 -24.833 -31.667 -40.5 -47
s-33.834 -28.833 -54.501 -40.5s-43.5 -21.167 -68.5 -28.5s-52.833 -11 -83.5 -11c-30 0 -57.5 3.5 -82.5 10.5s-47.667 16.5 -68 28.5s-38.5 25.667 -54.5 41s-30 31 -42 47c-24.667 34 -42 68.333 -52 103s-15.667 72.334 -17 113.001h-136v-312h77v-20h-266v20h77v615
h-77v20h266zM493.002 326.995c0 -30 1.16699 -59.168 3.5 -87.501s8.5 -58.166 18.5 -89.499c9.33301 -28.667 21 -52.167 35 -70.5s28.667 -32.833 44 -43.5s30.666 -18 45.999 -22s29 -6 41 -6c16 0 32.333 2.83301 49 8.5s32.334 14.167 47.001 25.5s28.167 26 40.5 44
s22.5 39.333 30.5 64c9.33301 30 15.166 60 17.499 90s3.5 59.333 3.5 88c0 26.667 -1.16699 55.5 -3.5 86.5s-8.16602 61.167 -17.499 90.5c-13.333 41.333 -34.833 75.333 -64.5 102s-63.834 40 -102.501 40c-36.667 0 -69.667 -12.833 -99 -38.5
s-51.666 -60.167 -66.999 -103.5c-10.667 -30 -17 -60 -19 -90s-3 -59.333 -3 -88z" />
    <glyph glyph-name="afii10049" unicode="&#x42f;" horiz-adv-x="696" 
d="M654 635l-76.9961 0.00585938v-615h77v-20h-266v20h77v316h-94c-11.333 0 -22.333 -0.5 -33 -1.5s-20.834 -3.16699 -30.501 -6.5s-18.667 -8.5 -27 -15.5s-15.5 -16.833 -21.5 -29.5c-7.33301 -15.333 -12.333 -33.833 -15 -55.5s-6 -50.834 -10 -87.501
c-3.33301 -29.333 -6.83301 -52.833 -10.5 -70.5s-9.5 -31.834 -17.5 -42.501c-7.33301 -10.667 -18.5 -19.667 -33.5 -27s-33.5 -11 -55.5 -11c-6 0 -13.167 0.5 -21.5 1.5s-17.333 3.5 -27 7.5s-19.667 9.5 -30 16.5s-20.5 16.5 -30.5 28.5l16 16l23.5 -22.5
c8.33301 -7.66699 16.5 -11.5 24.5 -11.5c4 0 9.5 2.16699 16.5 6.5s12.5 14.166 16.5 29.499c3.33301 12.667 5.33301 26.667 6 42s2 35.666 4 60.999c1.33301 14.667 3.16602 29.167 5.49902 43.5s6.66602 27.833 12.999 40.5s15.166 24.667 26.499 36
s26.666 21.666 45.999 30.999c17.333 8 33.833 14.167 49.5 18.5s30.834 7.5 45.501 9.5v5c-38 3.33301 -68.167 10 -90.5 20s-39.833 20.333 -52.5 31c-16 13.333 -28 28.333 -36 45s-12 36.667 -12 60c0 25.333 5.66699 48.333 17 69s30.333 38 57 52
c20.667 11.333 46.5 19.166 77.5 23.499s71.5 6.5 121.5 6.5h271v-20zM465.004 635.006l-75.999 -0.000976562c-35.333 0 -60.666 -2.5 -75.999 -7.5s-25.333 -8.83301 -30 -11.5c-12 -7.33301 -21.167 -15.666 -27.5 -24.999s-11 -19 -14 -29s-4.66699 -19.5 -5 -28.5
s-0.5 -16.833 -0.5 -23.5c0 -22.667 1.33301 -42.667 4 -60s11.667 -34 27 -50c19.333 -20 40.166 -32.333 62.499 -37s44.166 -7 65.499 -7h70v279z" />
    <glyph glyph-name="afii10065" unicode="&#x430;" horiz-adv-x="476" 
d="M476 40c-8.66699 -12 -17.502 -21.333 -26.502 -28s-17.833 -11.667 -26.5 -15s-16.5 -5.5 -23.5 -6.5s-12.833 -1.5 -17.5 -1.5c-13.333 0 -25.5 1.83301 -36.5 5.5s-21.167 10.5 -30.5 20.5c-9.33301 10.667 -16.666 23.667 -21.999 39l-26.5 -21
c-11 -8.66699 -21.5 -15.667 -31.5 -21c-12 -6.66699 -26 -12.167 -42 -16.5s-31.667 -6.5 -47 -6.5c-20 0 -36.5 3.16699 -49.5 9.5s-22.833 12.166 -29.5 17.499c-14 11.333 -23.667 24 -29 38s-8 29 -8 45c0 24.667 5.5 45.334 16.5 62.001s26.5 31 46.5 43l18.5 9
c8.33301 4 19.333 8 33 12s30 7.5 49 10.5s41.167 4.5 66.5 4.5h33v112c0 10 -1 19.833 -3 29.5s-7.33301 18.167 -16 25.5c-5.33301 4.66699 -12.5 7.83398 -21.5 9.50098s-17.833 2.5 -26.5 2.5c-13.333 0 -26.666 -1.66699 -39.999 -5
c-11.333 -3.33301 -18.333 -7.33301 -21 -12s-4 -9 -4 -13c0 -4.66699 1.83301 -9.66699 5.5 -15s7.5 -12.333 11.5 -21c4.66699 -10.667 6.83398 -21 6.50098 -31s-2.83301 -19 -7.5 -27s-11.334 -14.5 -20.001 -19.5s-19 -7.5 -31 -7.5
c-15.333 0 -29.833 4.83301 -43.5 14.5s-20.5 24.5 -20.5 44.5c0 21.333 5.83301 38.5 17.5 51.5s25.167 23.833 40.5 32.5c19.333 10.667 39.166 17.667 59.499 21s40.5 5 60.5 5c36 0 65.833 -5 89.5 -15s39.834 -22 48.501 -36
c6.66699 -10.667 10.5 -22.334 11.5 -35.001s1.5 -25 1.5 -37v-260c0 -6 1 -13 3 -21s9.33301 -12 22 -12c8 0 16.5 3.5 25.5 10.5s15.833 14.167 20.5 21.5zM292.998 224l-15.998 0.00195312c-22 0 -40.333 -1.66699 -55 -5s-26.834 -7.5 -36.501 -12.5
s-17.167 -10.167 -22.5 -15.5s-9 -10.333 -11 -15c-4 -8 -6.66699 -18.5 -8 -31.5s-2 -25.167 -2 -36.5c0 -9.33301 1 -19.333 3 -30s6.66699 -20.334 14 -29.001c7.33301 -7.33301 14.833 -12.166 22.5 -14.499s15.167 -3.5 22.5 -3.5c12 0 21.667 1.66699 29 5
s15.666 7.66602 24.999 12.999c11.333 7.33301 20 13.666 26 18.999s9 11 9 17v139z" />
    <glyph glyph-name="afii10066" unicode="&#x431;" horiz-adv-x="477" 
d="M431 723c0 -34.667 -5.33008 -62.5 -15.9971 -83.5s-26.667 -38.167 -48 -51.5c-12 -8 -25.833 -14.833 -41.5 -20.5s-31.834 -11.167 -48.501 -16.5s-33.5 -10.333 -50.5 -15s-32.833 -10 -47.5 -16c-24 -9.33301 -46.333 -21.5 -67 -36.5s-37 -37.5 -49 -67.5
c-6.66699 -16 -11.667 -34.167 -15 -54.5s-5 -39.833 -5 -58.5h9c6 12.667 13 25.167 21 37.5s16.667 23.166 26 32.499c22 23.333 45.833 39.833 71.5 49.5s50.5 14.5 74.5 14.5c30 0 58.167 -6.5 84.5 -19.5s49.166 -30.5 68.499 -52.5c18 -20.667 32 -44.5 42 -71.5
s15 -54.5 15 -82.5c0 -23.333 -4.33301 -47.666 -13 -72.999s-23.667 -50 -45 -74c-23.333 -25.333 -49.333 -44.166 -78 -56.499s-55.667 -18.5 -81 -18.5c-30 0 -58.833 6.66699 -86.5 20s-51.167 31.666 -70.5 54.999c-14 17.333 -25 36 -33 56s-14 39.833 -18 59.5
s-6.33301 38.334 -7 56.001s-1 33.167 -1 46.5c0 14 0.666992 31 2 51s4 41 8 63s9.66699 44 17 66s17 42.333 29 61c24.667 37.333 56.667 66.166 96 86.499s82.666 36.5 129.999 48.5c26.667 7.33301 46.834 12.5 60.501 15.5s24.167 7.5 31.5 13.5
c4.66699 3.33301 8.66699 8 12 14s5.66602 13.333 6.99902 22h16zM136.003 139c0 -15.333 2.33008 -31.499 6.99707 -48.499s10.667 -31.167 18 -42.5c18 -27.333 44 -41 78 -41c20.667 0 37.334 4.5 50.001 13.5s22.334 18.167 29.001 27.5
c7.33301 10.667 13.333 24.667 18 42s7 33.666 7 48.999v146c0 15.333 -2.33301 31.666 -7 48.999s-10.667 31.333 -18 42c-9.33301 13.333 -21.666 23.833 -36.999 31.5s-29.333 11.5 -42 11.5c-15.333 0 -30.333 -4.33301 -45 -13s-25.667 -18.667 -33 -30
c-7.33301 -10.667 -13.333 -24.667 -18 -42s-7 -33.666 -7 -48.999v-146z" />
    <glyph glyph-name="afii10067" unicode="&#x432;" horiz-adv-x="478" 
d="M254 426c28.667 0 51.3311 -1.66699 67.998 -5s29 -6.33301 37 -9c26 -9.33301 43.833 -21.5 53.5 -36.5s14.5 -30.5 14.5 -46.5c0 -12 -3.33301 -24.833 -10 -38.5s-20 -26.167 -40 -37.5c-11.333 -6.66699 -24.166 -12 -38.499 -16s-28.5 -6.66699 -42.5 -8v-4
c8.66699 -0.666992 21.5 -2.5 38.5 -5.5s35.167 -9.16699 54.5 -18.5c14.667 -7.33301 28.5 -17.166 41.5 -29.499s19.5 -30.833 19.5 -55.5c0 -12 -3.33301 -26.333 -10 -43s-21.667 -32.334 -45 -47.001c-12.667 -7.33301 -27.167 -13.5 -43.5 -18.5
s-32.166 -7.5 -47.499 -7.5h-284v17h63v392h-63v17h234zM255.997 17c10.667 0 21.167 1.00098 31.5 3.00098s19.833 7.33301 28.5 16c10 9.33301 16.167 20.5 18.5 33.5s3.5 28.167 3.5 45.5c0 18 -1.33301 34.333 -4 49s-9.66699 26.667 -21 36
c-3.33301 3.33301 -9.5 7.16602 -18.5 11.499s-21.167 6.5 -36.5 6.5h-77v-201h75zM243.997 234.001c17.333 0 30.832 2.50195 40.499 7.50195s17 11 22 18s8.16699 14.167 9.5 21.5s2 13 2 17v33c0 15.333 -1.66699 28.666 -5 39.999s-11.666 20.666 -24.999 27.999
c-7.33301 4 -16.333 6.66699 -27 8s-19.667 2 -27 2h-53v-175h63z" />
    <glyph glyph-name="afii10068" unicode="&#x433;" horiz-adv-x="382" 
d="M368 426l6.00098 -138.001h-21c-5.33301 22.667 -11.833 43 -19.5 61s-19.834 32 -36.501 42c-7.33301 4.66699 -17.833 8.83398 -31.5 12.501s-34.5 5.5 -62.5 5.5h-22v-392h63v-17h-224v17h63v392h-63v17h348z" />
    <glyph glyph-name="afii10069" unicode="&#x434;" horiz-adv-x="458" 
d="M437 409h-63.0039v-392h67l9 -148h-21c-2 16.667 -6.33301 33 -13 49s-15 29.667 -25 41c-17.333 19.333 -37 31 -59 35s-48.333 6 -79 6h-83c-28 0 -51.167 -3.33301 -69.5 -10s-33.5 -20.667 -45.5 -42c-6 -10.667 -11.167 -23.167 -15.5 -37.5
s-8.16602 -28.166 -11.499 -41.499h-22l12 148h15c10 0 20.167 1.66699 30.5 5s19.833 11 28.5 23c4 6 7.33301 13 10 21s4.83398 17.833 6.50098 29.5s3 25.834 4 42.501l3.5 60c0.666992 25.333 1.33398 46 2.00098 62s1.33398 29.333 2.00098 40s1 19.167 1 25.5v17.5
c0 9.33301 -0.833008 18.666 -2.5 27.999s-6.5 17.666 -14.5 24.999c-7.33301 6.66699 -14.5 10.5 -21.5 11.5s-14.5 1.5 -22.5 1.5h-19v17h396v-17zM275.996 409h-71.999c-10.667 0 -21.834 -1.5 -33.501 -4.5s-20.167 -11.5 -25.5 -25.5
c-1.33301 -3.33301 -2.33301 -7.16602 -3 -11.499s-1.16699 -10.333 -1.5 -18s-0.666016 -17.334 -0.999023 -29.001s-0.833008 -26.5 -1.5 -44.5l-3.5 -80c-1 -22 -2 -40.667 -3 -56s-2 -28 -3 -38s-2.5 -19 -4.5 -27c-3.33301 -12.667 -7.33301 -23.5 -12 -32.5
s-11.334 -17.5 -20.001 -25.5h184v392z" />
    <glyph glyph-name="afii10070" unicode="&#x435;" horiz-adv-x="440" 
d="M418 108c-8 -13.333 -17.834 -26.8369 -29.501 -40.5039s-22.5 -24.834 -32.5 -33.501c-20 -17.333 -40.667 -29.166 -62 -35.499s-41.666 -9.5 -60.999 -9.5c-29.333 0 -58 6 -86 18s-51.667 28.667 -71 50c-17.333 20 -30.666 43.833 -39.999 71.5s-14 54.5 -14 80.5
c0 30 4.83301 58.333 14.5 85s23.167 50.334 40.5 71.001c22.667 26.667 47.167 45.334 73.5 56.001s52.166 16 77.499 16c28.667 0 55.334 -6 80.001 -18s45.334 -28.667 62.001 -50c14 -18 24.667 -38.833 32 -62.5s11.333 -47.167 12 -70.5h-280v-68
c0 -25.333 1.83301 -48.166 5.5 -68.499s10.834 -37.833 21.501 -52.5c9.33301 -12 20.666 -21.667 33.999 -29s28.666 -11 45.999 -11c16 0 33.167 4 51.5 12s36.166 19.667 53.499 35c12 11.333 23 23.333 33 36s17.333 22.334 22 29.001zM309.999 252.996
l-0.000976562 25.999c0 10 -0.333008 20.333 -1 31s-1.66699 20.834 -3 30.501s-3 18.167 -5 25.5c-12 36 -37.333 54 -76 54c-19.333 0 -35.5 -4 -48.5 -12s-23.167 -19.333 -30.5 -34c-5.33301 -11.333 -8.66602 -21.833 -9.99902 -31.5s-2 -18.5 -2 -26.5v-63h176z" />
    <glyph glyph-name="afii10072" unicode="&#x436;" horiz-adv-x="758" 
d="M491 426l0.00585938 -17h-63v-177h11c17.333 0 30.666 1.33301 39.999 4s16.333 5.66699 21 9c12 8 20.667 20 26 36s9.66602 30.667 12.999 44c4.66699 19.333 9 35.666 13 48.999s9.66699 24.666 17 33.999c4.66699 6 12.167 12.333 22.5 19s24.166 10 41.499 10
c9.33301 0 18.666 -1.33301 27.999 -4s17.666 -6.83398 24.999 -12.501s13.333 -12.834 18 -21.501s7 -18.667 7 -30c0 -20 -5.66699 -35.667 -17 -47s-24.333 -17 -39 -17c-4 0 -9 0.666992 -15 2s-11.5 3.83301 -16.5 7.5s-9.33301 8.66699 -13 15s-5.5 14.5 -5.5 24.5
c0 8.66699 0.833008 14.167 2.5 16.5s2.5 6.16602 2.5 11.499c0 2.66699 -0.666992 5.83398 -2 9.50098s-5.33301 5.5 -12 5.5c-8.66699 0 -14.667 -4.16699 -18 -12.5s-6.66602 -18.5 -9.99902 -30.5l-15 -59.5c-3.33301 -13 -7.66602 -23.833 -12.999 -32.5
c-3.33301 -6.66699 -7.16602 -12.167 -11.499 -16.5s-8.5 -8.16602 -12.5 -11.499c21.333 -4 39.166 -8.16699 53.499 -12.5s26.833 -10.166 37.5 -17.499c11.333 -7.33301 20.5 -16 27.5 -26s12.167 -22.667 15.5 -38s5.5 -28.333 6.5 -39s3.16699 -22.334 6.5 -35.001
c4.66699 -15.333 10.5 -25 17.5 -29s12.833 -6 17.5 -6c7.33301 0 14 3 20 9s11.667 12.667 17 20l12 -9c-8.66699 -13.333 -17.5 -24.166 -26.5 -32.499s-17.667 -14.666 -26 -18.999s-16.5 -7.16602 -24.5 -8.49902s-15.333 -2 -22 -2c-36 0 -61 15.667 -75 47
c-7.33301 15.333 -11.5 31.5 -12.5 48.5s-4.16699 36.167 -9.5 57.5c-4 18 -10 32 -18 42s-16.833 17.167 -26.5 21.5s-19.667 7 -30 8s-19.833 1.5 -28.5 1.5h-20v-198h63v-17h-224v17h63v198h-20c-8.66699 0 -18.167 -0.5 -28.5 -1.5s-20.333 -3.66699 -30 -8
s-18.5 -11.5 -26.5 -21.5s-14 -24 -18 -42c-5.33301 -21.333 -8.5 -40.5 -9.5 -57.5s-5.16699 -33.167 -12.5 -48.5c-14 -31.333 -39 -47 -75 -47c-6.66699 0 -14 0.666992 -22 2s-16.167 4.16602 -24.5 8.49902s-17 10.666 -26 18.999s-17.833 19.166 -26.5 32.499l12 9
c5.33301 -7.33301 11 -14 17 -20s12.667 -9 20 -9c4.66699 0 10.5 2 17.5 6s12.833 13.667 17.5 29c3.33301 12.667 5.5 24.334 6.5 35.001s3.16699 23.667 6.5 39s8.5 28 15.5 38s16.167 18.667 27.5 26c10.667 7.33301 23.167 13.166 37.5 17.499s32.166 8.5 53.499 12.5
c-4 3.33301 -8.16699 7.16602 -12.5 11.499s-8.16602 9.83301 -11.499 16.5c-5.33301 8.66699 -9.66602 19.5 -12.999 32.5l-15 59.5c-3.33301 12 -6.66602 22.167 -9.99902 30.5s-9.33301 12.5 -18 12.5c-6.66699 0 -10.667 -1.83301 -12 -5.5s-2 -6.83398 -2 -9.50098
c0 -5.33301 0.833008 -9.16602 2.5 -11.499s2.5 -7.83301 2.5 -16.5c0 -10 -1.83301 -18.167 -5.5 -24.5s-8 -11.333 -13 -15s-10.5 -6.16699 -16.5 -7.5s-11 -2 -15 -2c-14.667 0 -27.667 5.66699 -39 17s-17 27 -17 47c0 11.333 2.33301 21.333 7 30
s10.667 15.834 18 21.501s15.666 9.83398 24.999 12.501s18.666 4 27.999 4c17.333 0 31.166 -3.33301 41.499 -10s17.833 -13 22.5 -19c7.33301 -9.33301 13 -20.666 17 -33.999s8.33301 -29.666 13 -48.999c3.33301 -13.333 7.66602 -28 12.999 -44s14 -28 26 -36
c4.66699 -3.33301 11.667 -6.33301 21 -9s22.666 -4 39.999 -4h11v177h-63v17h224z" />
    <glyph glyph-name="afii10073" unicode="&#x437;" horiz-adv-x="392" 
d="M38 278l15 159.004h18c1.33301 -2 4.33301 -4.66699 9 -8s12 -5 22 -5c7.33301 0 14 1 20 3s15 4 27 6c6 1.33301 13 2.33301 21 3s17 1 27 1c21.333 0 41.666 -2 60.999 -6s35.666 -10.667 48.999 -20c14.667 -10 25.334 -21.833 32.001 -35.5s10 -27.167 10 -40.5
c0 -14 -3 -26.833 -9 -38.5s-14 -21.834 -24 -30.501c-10.667 -8.66699 -24.167 -16 -40.5 -22s-31.833 -9.66699 -46.5 -11v-5c14.667 -2 29.834 -5.5 45.501 -10.5s30.167 -11.833 43.5 -20.5c15.333 -9.33301 27.5 -20.5 36.5 -33.5s13.5 -30.167 13.5 -51.5
c0 -38.667 -18 -69.334 -54 -92.001c-21.333 -13.333 -43.666 -21.833 -66.999 -25.5s-44.666 -5.5 -63.999 -5.5c-16.667 0 -34.834 1.33301 -54.501 4s-38.834 8.66699 -57.501 18c-16.667 8.66699 -31 20.167 -43 34.5s-18 32.166 -18 53.499
c0 19.333 5.16699 34.333 15.5 45s23.166 16 38.499 16c14 0 26.833 -4.5 38.5 -13.5s17.5 -21.5 17.5 -37.5c0 -9.33301 -1.66699 -17 -5 -23s-6.66602 -11 -9.99902 -15l-13 -14.5c-4 -4.33301 -6 -8.83301 -6 -13.5c0 -5.33301 2.66699 -11 8 -17
s12.666 -10.333 21.999 -13c3.33301 -0.666992 7.66602 -1.33398 12.999 -2.00098l16.5 -2c5.66699 -0.666992 10.834 -1.16699 15.501 -1.5s8 -0.5 10 -0.5c12.667 0 25.167 2.33301 37.5 7s22.166 11.334 29.499 20.001c6.66699 8 11.334 17.833 14.001 29.5
s4 22.167 4 31.5v43c0 19.333 -3.33301 34 -10 44s-13.667 17.667 -21 23s-15.833 9.5 -25.5 12.5s-20.167 4.5 -31.5 4.5h-46v17h41c2.66699 0 6.83398 0.166992 12.501 0.5s12 1.5 19 3.5s13.833 4.83301 20.5 8.5s12.334 8.83398 17.001 15.501s8 14.667 10 24
s3 17.666 3 24.999v38c0 5.33301 -1.16699 12.166 -3.5 20.499s-5.16602 15.166 -8.49902 20.499c-4.66699 6.66699 -11.334 12.334 -20.001 17.001s-20.667 7 -36 7c-4 0 -9.33301 -0.333008 -16 -1s-14 -2.5 -22 -5.5s-16.333 -7.5 -25 -13.5s-16.667 -14.333 -24 -25
c-9.33301 -12.667 -16.833 -28.5 -22.5 -47.5s-9.83398 -35.167 -12.501 -48.5h-17z" />
    <glyph glyph-name="afii10074" unicode="&#x438;" horiz-adv-x="532" 
d="M237 426v-17h-56v-318l170 287v31h-56v17h217v-17h-63v-392h63v-17h-217v17h56v327l-170 -287v-40h56v-17h-217v17h63v392h-63v17h217z" />
    <glyph glyph-name="afii10075" unicode="&#x439;" horiz-adv-x="532" 
d="M237 426v-17h-56v-318l170 287v31h-56v17h217v-17h-63v-392h63v-17h-217v17h56v327l-170 -287v-40h56v-17h-217v17h63v392h-63v17h217zM267 500c10.667 0 20.667 0.5 30 1.5s20 3.16699 32 6.5c11.333 3.33301 20.166 7.66602 26.499 12.999s9.5 11 9.5 17
c0 1.33301 -0.666992 3.33301 -2 6s-3.66602 4.66699 -6.99902 6s-6.83301 2 -10.5 2s-8.16699 1.33301 -13.5 4s-10.5 7 -15.5 13s-7.5 14.667 -7.5 26c0 12 4.16699 23.167 12.5 33.5s21.166 15.5 38.499 15.5c18 0 32.333 -5.33301 43 -16s16 -25.334 16 -44.001
c0 -20 -6.16699 -37.167 -18.5 -51.5s-27.166 -25.5 -44.499 -33.5c-16 -7.33301 -31.167 -11.833 -45.5 -13.5s-28.833 -2.5 -43.5 -2.5s-29.167 0.833008 -43.5 2.5s-29.5 6.16699 -45.5 13.5c-17.333 8 -32.166 19.167 -44.499 33.5s-18.5 31.5 -18.5 51.5
c0 18.667 5.33301 33.334 16 44.001s25 16 43 16c17.333 0 30.166 -5.16699 38.499 -15.5s12.5 -21.5 12.5 -33.5c0 -11.333 -2.5 -20 -7.5 -26s-10.167 -10.333 -15.5 -13s-9.83301 -4 -13.5 -4s-7.16699 -0.666992 -10.5 -2s-5.66602 -3.33301 -6.99902 -6
s-2 -4.66699 -2 -6c0 -6 3.16699 -11.667 9.5 -17s15.166 -9.66602 26.499 -12.999c12 -3.33301 22.667 -5.5 32 -6.5s19.333 -1.5 30 -1.5z" />
    <glyph glyph-name="afii10076" unicode="&#x43a;" horiz-adv-x="516" 
d="M244 426v-17h-63v-175h36c12.667 0 25.167 2.33301 37.5 7s22.833 15.334 31.5 32.001c6.66699 12.667 11 26.834 13 42.501s6.66699 35.167 14 58.5c1.33301 5.33301 3.5 11.666 6.5 18.999s7.5 14.166 13.5 20.499s13.833 11.833 23.5 16.5s21.834 7 36.501 7
c19.333 0 37.166 -6 53.499 -18s24.5 -29.667 24.5 -53c0 -15.333 -4.33301 -29.333 -13 -42s-22.334 -19 -41.001 -19c-16.667 0 -29.5 4.5 -38.5 13.5s-13.5 20.167 -13.5 33.5c0 6 1 12 3 18c0.666992 2 1.33398 4.16699 2.00098 6.5s1 4.5 1 6.5
c0 4 -1.33301 7.66699 -4 11s-6 5 -10 5c-6.66699 0 -11.5 -2.33301 -14.5 -7s-5.16699 -8.66699 -6.5 -12c-5.33301 -11.333 -9.33301 -23.833 -12 -37.5s-5.66699 -27.5 -9 -41.5c-5.33301 -21.333 -11.5 -37.333 -18.5 -48s-17.167 -18 -30.5 -22v-3
c4.66699 0 11 -0.5 19 -1.5s16.5 -2.5 25.5 -4.5s18.167 -4.5 27.5 -7.5s18 -6.83301 26 -11.5c21.333 -13.333 35 -28.5 41 -45.5s10.333 -35.833 13 -56.5c0.666992 -7.33301 1.5 -15 2.5 -23s2.66699 -15.5 5 -22.5s5.5 -12.833 9.5 -17.5s9.66699 -7 17 -7
s14.833 2.66699 22.5 8s13.5 11.666 17.5 18.999l13 -7c-10 -21.333 -23.333 -37.166 -40 -47.499s-33.667 -15.5 -51 -15.5c-18 0 -34.333 4.33301 -49 13s-25.667 19.667 -33 33c-4.66699 8.66699 -8 19 -10 31l-7 44c-3.33301 20.667 -6.5 37.167 -9.5 49.5
s-7.5 22.5 -13.5 30.5c-9.33301 13.333 -20 21.333 -32 24s-24 4 -36 4h-43v-200h63v-17h-224v17h63v392h-63v17h224z" />
    <glyph glyph-name="afii10077" unicode="&#x43b;" horiz-adv-x="486" 
d="M261 409c-18 0 -33.167 -0.666992 -45.5 -2s-22.166 -5.66602 -29.499 -12.999c-6.66699 -6 -10.834 -13 -12.501 -21s-2.5 -15.667 -2.5 -23v-257c0 -10 -0.666992 -20 -2 -30s-3.33301 -18.667 -6 -26c-5.33301 -15.333 -14.833 -27.166 -28.5 -35.499
s-30.834 -12.5 -51.501 -12.5c-11.333 0 -21.666 1.16699 -30.999 3.5s-17.333 6.16602 -24 11.499c-5.33301 4 -10.833 10.167 -16.5 18.5s-8.5 19.166 -8.5 32.499c0 20.667 6.16699 35.667 18.5 45s24.833 14 37.5 14c11.333 0 22 -3.5 32 -10.5s15 -17.833 15 -32.5
c0 -6.66699 -0.666992 -11.334 -2 -14.001s-2.66602 -5.16699 -3.99902 -7.5s-2 -4.83301 -2 -7.5c0 -3.33301 1.33301 -7.16602 4 -11.499s7.66699 -6.5 15 -6.5c5.33301 0 10.5 1.16699 15.5 3.5s9.16699 6.5 12.5 12.5c1.33301 2 3.16602 7.66699 5.49902 17
s3.5 25.666 3.5 48.999v244c0 7.33301 -0.666992 15.333 -2 24s-5.33301 16.334 -12 23.001c-6 6 -12.833 9.5 -20.5 10.5s-14.5 1.5 -20.5 1.5h-21v17h388v-17h-63v-392h63v-17h-224v17h63v392h-44z" />
    <glyph glyph-name="afii10078" unicode="&#x43c;" horiz-adv-x="618" 
d="M20 426l170 -0.000976562l124 -296l113 296h171v-17h-63v-392h63v-17h-224v17h63v381l-156 -398h-9l-160 394v-321c0 -6.66699 0.166992 -13.5 0.5 -20.5s2.83301 -13.167 7.5 -18.5c9.33301 -11.333 27.666 -17 54.999 -17v-17h-145v17
c10.667 0 20.334 0.833008 29.001 2.5s15.667 5.16699 21 10.5s8.5 11.833 9.5 19.5s1.5 14.834 1.5 21.501v282c0 10.667 -1.5 20 -4.5 28s-7.16699 14 -12.5 18c-3.33301 2.66699 -7.83301 5 -13.5 7s-13.5 3 -23.5 3h-17v17z" />
    <glyph glyph-name="afii10079" unicode="&#x43d;" horiz-adv-x="532" 
d="M237 426v-17h-56v-171h170v171h-56v17h217v-17h-63v-392h63v-17h-217v17h56v205h-170v-205h56v-17h-217v17h63v392h-63v17h217z" />
    <glyph glyph-name="afii10080" unicode="&#x43e;" horiz-adv-x="478" 
d="M239 437c31.333 0 60.998 -6.5 88.998 -19.5s51.667 -30.5 71 -52.5c18 -20.667 32 -44.5 42 -71.5s15 -53.833 15 -80.5c0 -27.333 -5 -54.666 -15 -81.999s-24 -51 -42 -71c-19.333 -21.333 -43.166 -38.5 -71.499 -51.5s-57.833 -19.5 -88.5 -19.5
s-60.167 6.5 -88.5 19.5s-52.166 30.167 -71.499 51.5c-18 20 -32 43.667 -42 71s-15 54.666 -15 81.999c0 26.667 5 53.5 15 80.5s24 50.833 42 71.5c19.333 22 43 39.5 71 52.5s57.667 19.5 89 19.5zM133.998 148c0 -15.333 1.83301 -32.5 5.5 -51.5
s10.167 -35.5 19.5 -49.5c11.333 -16.667 24 -27.5 38 -32.5s28 -7.5 42 -7.5s28 2.5 42 7.5s26.667 15.833 38 32.5c9.33301 14 15.833 30.5 19.5 49.5s5.5 36.167 5.5 51.5v100c0 23.333 -1 46 -3 68s-9.33301 42 -22 60c-5.33301 8 -14.5 17.167 -27.5 27.5
s-30.5 15.5 -52.5 15.5s-39.5 -5.16699 -52.5 -15.5s-22.167 -19.5 -27.5 -27.5c-12.667 -18 -20 -38 -22 -60s-3 -44.667 -3 -68v-100z" />
    <glyph glyph-name="afii10081" unicode="&#x43f;" horiz-adv-x="532" 
d="M512 426v-17h-63v-392h63v-17h-217v17h56v392h-170v-392h56v-17h-217v17h63v392h-63v17h492z" />
    <glyph glyph-name="afii10082" unicode="&#x440;" horiz-adv-x="501" 
d="M17 409l-0.00195312 17.0029h99c10.667 0 19.834 0.166992 27.501 0.5s19.167 1.83301 34.5 4.5v-60c6.66699 13.333 13.834 23.666 21.501 30.999s12.834 12 15.501 14c6.66699 5.33301 15.667 10.166 27 14.499s25.333 6.5 42 6.5
c27.333 0 54.666 -6.83301 81.999 -20.5s51 -35.5 71 -65.5c13.333 -19.333 23.666 -40.833 30.999 -64.5s11 -48.834 11 -75.501s-4.33301 -52.667 -13 -78s-23 -50 -43 -74c-19.333 -22.667 -40.166 -40 -62.499 -52s-48.5 -18 -78.5 -18
c-9.33301 0 -19.833 0.833008 -31.5 2.5s-22.167 4.83398 -31.5 9.50098c-8 4 -15.5 9.16699 -22.5 15.5s-13.167 13.166 -18.5 20.499v-233h63v-17h-224v17h63v605h-63zM366.998 288.003c0 2.66699 -0.169922 7.33203 -0.50293 13.999s-1.16602 14.334 -2.49902 23.001
s-3.16602 17.834 -5.49902 27.501s-5.83301 18.5 -10.5 26.5c-6.66699 11.333 -15.667 20.833 -27 28.5s-26 11.5 -44 11.5s-33.667 -4 -47 -12s-24.666 -19.333 -33.999 -34c-7.33301 -11.333 -12.166 -22 -14.499 -32s-3.5 -19.667 -3.5 -29v-223
c0 -9.33301 2.66699 -19.5 8 -30.5s12 -20.167 20 -27.5s18 -13.166 30 -17.499s22.667 -6.5 32 -6.5c15.333 0 31 4.5 47 13.5s28.333 23.167 37 42.5c5.33301 11.333 9.16602 26.166 11.499 44.499s3.5 34.166 3.5 47.499v133z" />
    <glyph glyph-name="afii10083" unicode="&#x441;" horiz-adv-x="413" 
d="M391 104c-3.33301 -8.66699 -7.83496 -18.5049 -13.502 -29.5049s-12.167 -21.167 -19.5 -30.5c-18.667 -23.333 -38 -38.333 -58 -45s-40.667 -10 -62 -10c-28 0 -55.5 4.33301 -82.5 13s-53.167 27.334 -78.5 56.001c-18 20.667 -31.667 42.667 -41 66
s-14 49.333 -14 78c0 43.333 9 82 27 116s40.667 61 68 81c18.667 14 37.5 23.833 56.5 29.5s38.833 8.5 59.5 8.5c19.333 0 38.666 -2.33301 57.999 -7s36.666 -12 51.999 -22c16.667 -11.333 28.334 -24.166 35.001 -38.499s10 -27.833 10 -40.5
c0 -18.667 -5.66699 -33.5 -17 -44.5s-25 -16.5 -41 -16.5c-18.667 0 -33.5 5.66699 -44.5 17s-16.5 24 -16.5 38c0 7.33301 1 14.5 3 21.5s4.66699 13.167 8 18.5c4.66699 8.66699 8.83398 14.667 12.501 18s5.5 7.33301 5.5 12c0 4 -3.66699 9.33301 -11 16
s-21.666 10 -42.999 10c-11.333 0 -24.333 -1.16699 -39 -3.5s-27.667 -9.16602 -39 -20.499c-14 -13.333 -22.833 -30.666 -26.5 -51.999s-5.5 -43 -5.5 -65v-126c0 -28 2 -50.333 6 -67s9.66699 -30 17 -40c6.66699 -8.66699 17 -17.167 31 -25.5s32.667 -12.5 56 -12.5
c38.667 0 69.667 13 93 39c9.33301 10.667 17.333 22.334 24 35.001s11.334 22.667 14.001 30z" />
    <glyph glyph-name="afii10084" unicode="&#x442;" horiz-adv-x="436" 
d="M428 264h-21.002c-2 10 -4.16699 18.667 -6.5 26s-5.16602 15.666 -8.49902 24.999s-7.66602 19.5 -12.999 30.5s-13 21.833 -23 32.5c-8 8 -19 15.5 -33 22.5s-32.667 9.83301 -56 8.5v-392h63v-17h-224v17h63v392c-20.667 1.33301 -37.834 -0.666992 -51.501 -6
s-26.167 -13.666 -37.5 -24.999c-10 -10.667 -17.667 -21.5 -23 -32.5s-9.66602 -21.167 -12.999 -30.5c-1.33301 -3.33301 -2.83301 -8.33301 -4.5 -15s-5.16699 -18.667 -10.5 -36h-21l9 162h402z" />
    <glyph glyph-name="afii10085" unicode="&#x443;" horiz-adv-x="467" 
d="M45 409l-45.001 0.000976562v17h216v-17h-63l147 -308l80 227c1.33301 4 2.66602 9.16699 3.99902 15.5s2 12.166 2 17.499c0 18 -6 31 -18 39c-6.66699 4.66699 -13.5 7.33398 -20.5 8.00098s-13.167 1 -18.5 1h-9v17h161v-17c-16 -1.33301 -28.833 -6.33301 -38.5 -15
s-17.167 -18 -22.5 -28c-4.66699 -8 -8.33398 -15.833 -11.001 -23.5s-5.33398 -14.5 -8.00098 -20.5l-177 -476c-5.33301 -14 -10.833 -25.167 -16.5 -33.5s-14.5 -16.166 -26.5 -23.499c-9.33301 -5.33301 -18.666 -9.16602 -27.999 -11.499s-19.666 -3.5 -30.999 -3.5
c-14 0 -26.167 1.66699 -36.5 5s-19.166 7.66602 -26.499 12.999c-10 7.33301 -18 16.666 -24 27.999s-9 23.666 -9 36.999c0 18 6 32.333 18 43s25.667 16 41 16c14.667 0 27.167 -5 37.5 -15s15.5 -22 15.5 -36c0 -3.33301 -0.333008 -6.33301 -1 -9
s-1.66699 -5.66699 -3 -9s-2.66602 -6.5 -3.99902 -9.5s-2 -6.16699 -2 -9.5c0 -5.33301 1.83301 -10.333 5.5 -15s10.167 -7 19.5 -7c13.333 0 25.333 5.33301 36 16c3.33301 3.33301 6.5 7.5 9.5 12.5s5.16699 9.5 6.5 13.5l47 123z" />
    <glyph glyph-name="afii10086" unicode="&#x444;" horiz-adv-x="728" 
d="M352 626c14.667 0 26.5039 0.332031 35.5039 0.999023s17.5 2.33398 25.5 5.00098v-255c11.333 19.333 25.666 34.166 42.999 44.499s36.666 15.5 57.999 15.5c23.333 0 48.333 -6 75 -18s50 -31 70 -57c13.333 -17.333 24.5 -38.333 33.5 -63s13.5 -52.334 13.5 -83.001
c0 -34 -5 -64.333 -15 -91s-22.667 -49.334 -38 -68.001c-22.667 -28 -46.5 -46.333 -71.5 -55s-47.833 -13 -68.5 -13c-15.333 0 -28.5 1.83301 -39.5 5.5s-20.5 8.33398 -28.5 14.001s-14.5 12 -19.5 19s-9.16699 13.5 -12.5 19.5v-243h63v-17h-224v17h63v243
c-3.33301 -6 -7.5 -12.5 -12.5 -19.5s-11.5 -13.333 -19.5 -19s-17.667 -10.334 -29 -14.001s-24.333 -5.5 -39 -5.5c-20.667 0 -43.5 4.33301 -68.5 13s-48.833 27 -71.5 55c-15.333 18.667 -28 41.334 -38 68.001s-15 57 -15 91c0 30.667 4.5 58.334 13.5 83.001
s20.167 45.667 33.5 63c20 26 43.333 45 70 57s51.667 18 75 18c21.333 0 40.666 -5.16699 57.999 -15.5s31.666 -25.166 42.999 -44.499v232h-63v17h100zM315.004 303.999c0 19.333 -2.49902 36.165 -7.49902 50.498s-11.833 26.333 -20.5 36
s-18.334 16.834 -29.001 21.501s-21.667 7 -33 7c-24.667 0 -46 -10.833 -64 -32.5s-27 -54.5 -27 -98.5v-154c0 -43.333 9.66699 -75.333 29 -96s41.333 -31 66 -31c6.66699 0 15 1.33301 25 4s19.5 8.33398 28.5 17.001s16.667 21.167 23 37.5s9.5 37.833 9.5 64.5v174z
M413.005 129.998c0 -26.667 3.16797 -48.166 9.50098 -64.499s14 -28.833 23 -37.5s18.333 -14.334 28 -17.001s18.167 -4 25.5 -4c24.667 0 46.667 10.333 66 31s29 52.667 29 96v154c0 44 -9 76.833 -27 98.5s-39.333 32.5 -64 32.5c-11.333 0 -22.333 -2.33301 -33 -7
s-20.334 -11.834 -29.001 -21.501s-15.5 -21.667 -20.5 -36s-7.5 -31.166 -7.5 -50.499v-174z" />
    <glyph glyph-name="afii10087" unicode="&#x445;" horiz-adv-x="502" 
d="M61 409l-52.999 0.00390625v17h217v-17h-45l102 -146l45 66c9.33301 13.333 15.666 23.5 18.999 30.5s5 13.167 5 18.5c0 2.66699 -0.666992 5.83398 -2 9.50098s-3.83301 7.16699 -7.5 10.5s-9 6.16602 -16 8.49902s-16.167 3.16602 -27.5 2.49902v17h173v-17h-15
c-9.33301 0 -18.5 -2 -27.5 -6s-17.333 -9 -25 -15s-14.5 -12.333 -20.5 -19s-11 -12.667 -15 -18l-77 -107l158 -227h45v-17h-221v17h58l-115 163l-63 -87c-8.66699 -12 -13.667 -21.833 -15 -29.5s-1.33301 -14.167 0 -19.5c2 -6.66699 7 -12.834 15 -18.501
s17.667 -8.5 29 -8.5h8v-17h-182v17h8c7.33301 0 15.833 1.16699 25.5 3.5s20.167 7.16602 31.5 14.499c10 6.66699 20.333 15.167 31 25.5s22 24.166 34 41.499l68 96z" />
    <glyph glyph-name="afii10088" unicode="&#x446;" horiz-adv-x="538" 
d="M237 426v-17h-56v-392h170v392h-56v17h217v-17h-63v-392h75l14 -161h-21c-5.33301 26.667 -13.5 51.5 -24.5 74.5s-29.167 40.833 -54.5 53.5c-14 7.33301 -28.833 11.833 -44.5 13.5s-30.5 2.5 -44.5 2.5h-329v17h63v392h-63v17h217z" />
    <glyph glyph-name="afii10089" unicode="&#x447;" horiz-adv-x="472" 
d="M217 426l-0.000976562 -17.001h-56v-162c0 -18 6.83301 -30 20.5 -36s27.5 -9 41.5 -9c10.667 0 22.334 1.5 35.001 4.5s23.667 6.16699 33 9.5v193h-56v17h217v-17h-63v-392h63v-17h-224v17h63v183c-18 -7.33301 -38.667 -13.666 -62 -18.999s-45 -8 -65 -8
c-13.333 0 -26.5 1.66699 -39.5 5s-23.833 8.33301 -32.5 15c-14 11.333 -22.333 23.833 -25 37.5s-4 25.167 -4 34.5v144h-63v17h217z" />
    <glyph glyph-name="afii10090" unicode="&#x448;" horiz-adv-x="760" 
d="M237 426v-17h-56v-392h150v392h-56v17h210v-17h-56v-392h150v392h-56v17h217v-17h-63v-392h63v-17h-720v17h63v392h-63v17h217z" />
    <glyph glyph-name="afii10091" unicode="&#x449;" horiz-adv-x="763" 
d="M237 426l-0.000976562 -16.999h-56v-392h150v392h-56v17h210v-17h-56v-392h150v392h-56v17h217v-17h-63v-392h72l14 -163h-21c-2 19.333 -7.16699 39.166 -15.5 59.499s-21.166 37.5 -38.499 51.5c-9.33301 7.33301 -19.5 13.333 -30.5 18s-22 8.16699 -33 10.5
s-21.5 4 -31.5 5s-18.667 1.5 -26 1.5h-547v17h63v392h-63v17h217z" />
    <glyph glyph-name="afii10092" unicode="&#x44a;" horiz-adv-x="529" 
d="M336 409l-62.999 0.00195312v-161h48c21.333 0 43.5 -1.33301 66.5 -4s44.5 -9.66699 64.5 -21c19.333 -10.667 34.666 -23.834 45.999 -39.501s17 -34.167 17 -55.5c0 -6 -0.666992 -13.833 -2 -23.5s-4.33301 -19.834 -9 -30.501s-11.834 -21 -21.501 -31
s-22.834 -19 -39.501 -27c-16 -7.33301 -31.5 -11.833 -46.5 -13.5s-30.167 -2.5 -45.5 -2.5h-239v17h63v392h-21c-13.333 0 -27.166 -1 -41.499 -3s-28.166 -8.33301 -41.499 -19c-12.667 -9.33301 -24 -23.5 -34 -42.5s-16.667 -45.167 -20 -78.5h-17l10 160h326v-17z
M312.001 17.002c10 0 21.501 0.333008 34.501 1s24.5 4.66699 34.5 12s16.167 15.833 18.5 25.5s3.5 18.834 3.5 27.501v71c0 19.333 -3.16699 34 -9.5 44s-12.833 17 -19.5 21c-7.33301 5.33301 -15.833 8.66602 -25.5 9.99902s-18.834 2 -27.501 2h-48v-214h39z" />
    <glyph glyph-name="afii10093" unicode="&#x44b;" horiz-adv-x="676" 
d="M244 426v-17h-63v-161h47c20.667 0 42.667 -1.83301 66 -5.5s44.666 -10.167 63.999 -19.5c20 -10 35.833 -22.667 47.5 -38s17.5 -34.333 17.5 -57c0 -22 -5.66699 -43.167 -17 -63.5s-29.666 -36.5 -54.999 -48.5c-16 -7.33301 -31.5 -11.833 -46.5 -13.5
s-30.167 -2.5 -45.5 -2.5h-239v17h63v392h-63v17h224zM220 17c9.33301 0 20.498 0.335938 33.498 1.00293s24.5 4.66699 34.5 12c11.333 7.33301 18 16.166 20 26.499s3 19.166 3 26.499v71c0 15.333 -2.66699 28.666 -8 39.999s-12.333 19.666 -21 24.999
c-7.33301 4.66699 -15.666 7.83398 -24.999 9.50098s-18.666 2.5 -27.999 2.5h-48v-214h39zM655.998 426.003v-17h-63v-392h63v-17h-224v17h63v392h-63v17h224z" />
    <glyph glyph-name="afii10094" unicode="&#x44c;" horiz-adv-x="437" 
d="M244 426v-17h-63v-161h47c20.667 0 42.667 -1.83301 66 -5.5s44.666 -10.167 63.999 -19.5c20 -10 35.833 -22.667 47.5 -38s17.5 -34.333 17.5 -57c0 -22 -5.66699 -43.167 -17 -63.5s-29.666 -36.5 -54.999 -48.5c-16 -7.33301 -31.5 -11.833 -46.5 -13.5
s-30.167 -2.5 -45.5 -2.5h-239v17h63v392h-63v17h224zM220 17c9.33301 0 20.498 0.335938 33.498 1.00293s24.5 4.66699 34.5 12c11.333 7.33301 18 16.166 20 26.499s3 19.166 3 26.499v71c0 15.333 -2.66699 28.666 -8 39.999s-12.333 19.666 -21 24.999
c-7.33301 4.66699 -15.666 7.83398 -24.999 9.50098s-18.666 2.5 -27.999 2.5h-48v-214h39z" />
    <glyph glyph-name="afii10095" unicode="&#x44d;" horiz-adv-x="421" 
d="M39 287l5.00195 150.002h22c3.33301 -7.33301 7.66602 -12.333 12.999 -15s10 -4 14 -4c5.33301 0 11.166 1.33301 17.499 4s13.833 5.33398 22.5 8.00098c7.33301 2 15.166 3.66699 23.499 5s16.833 2 25.5 2c26 0 52.5 -4.66699 79.5 -14s49.5 -22 67.5 -38
c21.333 -18.667 38.333 -42.667 51 -72s19 -60.333 19 -93c0 -36.667 -6.16699 -67.834 -18.5 -93.501s-24.5 -45.834 -36.5 -60.501c-21.333 -26 -45.833 -45.333 -73.5 -58s-59.834 -19 -96.501 -19c-32 0 -58.667 5 -80 15s-38 21.667 -50 35
c-7.33301 8.66699 -13.666 19 -18.999 31s-8 23.667 -8 35c0 15.333 5.16699 28.666 15.5 39.999s23.5 17 39.5 17c14 0 26.167 -4.83301 36.5 -14.5s15.5 -21.167 15.5 -34.5c0 -6.66699 -1.33301 -12.5 -4 -17.5s-5.66699 -9.83301 -9 -14.5l-14.5 -17.5
c-4.33301 -5 -6.5 -10.167 -6.5 -15.5c0 -3.33301 1.16699 -7.33301 3.5 -12s6.66602 -9.16699 12.999 -13.5s14.666 -8 24.999 -11s23.5 -4.5 39.5 -4.5c21.333 0 39.166 3.5 53.499 10.5s25.5 15.167 33.5 24.5c6.66699 8 11.834 17.167 15.501 27.5s6.5 20.833 8.5 31.5
s3.33301 21 4 31s1 18.667 1 26v55h-175v17h175v57c0 11.333 -0.5 22.833 -1.5 34.5s-4.16699 23.5 -9.5 35.5c-6 14 -16.167 27.833 -30.5 41.5s-35.166 20.5 -62.499 20.5c-18.667 0 -35.167 -3.66699 -49.5 -11s-26.666 -17 -36.999 -29s-18.666 -26 -24.999 -42
s-10.5 -32.667 -12.5 -50h-20z" />
    <glyph glyph-name="afii10096" unicode="&#x44e;" horiz-adv-x="722" 
d="M244 426l0.000976562 -17.002h-63v-179h89c2 28.667 7 53.334 15 74.001s21.333 41.334 40 62.001c23.333 25.333 49 43.5 77 54.5s55.333 16.5 82 16.5c32 0 61.667 -6.5 89 -19.5s50.666 -30.167 69.999 -51.5c12 -13.333 24.5 -32.666 37.5 -57.999s19.5 -57 19.5 -95
c0 -32.667 -5.5 -61.834 -16.5 -87.501s-24.167 -47.167 -39.5 -64.5c-19.333 -22 -43 -39.5 -71 -52.5s-57.667 -19.5 -89 -19.5c-26 0 -53.333 5.5 -82 16.5s-54.667 29.5 -78 55.5c-21.333 23.333 -35.5 47 -42.5 71s-10.833 51 -11.5 81h-89v-196h63v-17h-224v17h63v392
h-63v17h224zM382.001 285.998c-1.33301 -12 -1.99707 -23.8369 -1.99707 -35.5039v-35.5c0 -46.667 1.83301 -82.5 5.5 -107.5s10.167 -44.833 19.5 -59.5c11.333 -17.333 24 -28.5 38 -33.5s28.333 -7.5 43 -7.5c11.333 0 24.333 2.5 39 7.5s28 16.167 40 33.5
c13.333 19.333 20.666 42.5 21.999 69.5s2 59.167 2 96.5c0 14.667 0.166992 29.334 0.5 44.001s-0.166992 28.834 -1.5 42.501s-3.83301 26.834 -7.5 39.501s-9.16699 24.667 -16.5 36c-6.66699 9.33301 -16.167 18.833 -28.5 28.5s-28.833 14.5 -49.5 14.5
c-16.667 0 -31.834 -4 -45.501 -12s-24.834 -18.333 -33.501 -31c-9.33301 -14 -15.5 -29.167 -18.5 -45.5s-5.16699 -31.166 -6.5 -44.499z" />
    <glyph glyph-name="afii10097" unicode="&#x44f;" horiz-adv-x="505" 
d="M485 409l-63.0059 -0.00488281v-392h63v-17h-224v17h63v193h-44c-1.33301 0 -5.66602 -0.333008 -12.999 -1s-15.666 -2.66699 -24.999 -6c-12 -4.66699 -21.167 -11 -27.5 -19s-11.5 -18 -15.5 -30c-4 -13.333 -7.16699 -30 -9.5 -50s-8.16602 -40.667 -17.499 -62
c-7.33301 -18.667 -16.666 -32.167 -27.999 -40.5s-26.666 -12.5 -45.999 -12.5c-16.667 0 -30.334 2.5 -41.001 7.5s-20.667 11.167 -30 18.5c-5.33301 4 -9.83301 8 -13.5 12l-10.5 12l12 14c9.33301 -9.33301 16.5 -15.666 21.5 -18.999s9.16699 -5 12.5 -5
c8 0 14.167 2.33301 18.5 7s7.66602 10.667 9.99902 18s4.33301 16 6 26s3.5 20.333 5.5 31c2.66699 11.333 6.33398 22.833 11.001 34.5s13.667 22.834 27 33.501c12 9.33301 28.333 17.333 49 24s39.667 10.667 57 12v4c-13.333 0 -29.333 1.33301 -48 4
s-34.667 7.33398 -48 14.001c-23.333 10.667 -38.666 23.834 -45.999 39.501s-11 29.834 -11 42.501c0 6 0.666992 12.667 2 20s4 15 8 23s9.83301 15.833 17.5 23.5s17.5 14.5 29.5 20.5c13.333 6.66699 29.833 11.667 49.5 15s38.834 5 57.501 5h241v-17zM323.994 408.995
l-56.0029 0.000976562c-19.333 0 -34.166 -3.33301 -44.499 -10s-17.5 -13 -21.5 -19c-2.66699 -4 -5 -9 -7 -15s-3 -11.667 -3 -17v-53c0 -5.33301 2 -14 6 -26s12.667 -22 26 -30c0.666992 -0.666992 5.33398 -2.83398 14.001 -6.50098s19.334 -5.5 32.001 -5.5h54v182z
" />
    <glyph glyph-name="afii10071" unicode="&#x451;" horiz-adv-x="440" 
d="M418 108c-8 -13.333 -17.834 -26.8369 -29.501 -40.5039s-22.5 -24.834 -32.5 -33.501c-20 -17.333 -40.667 -29.166 -62 -35.499s-41.666 -9.5 -60.999 -9.5c-29.333 0 -58 6 -86 18s-51.667 28.667 -71 50c-17.333 20 -30.666 43.833 -39.999 71.5s-14 54.5 -14 80.5
c0 30 4.83301 58.333 14.5 85s23.167 50.334 40.5 71.001c22.667 26.667 47.167 45.334 73.5 56.001s52.166 16 77.499 16c28.667 0 55.334 -6 80.001 -18s45.334 -28.667 62.001 -50c14 -18 24.667 -38.833 32 -62.5s11.333 -47.167 12 -70.5h-280v-68
c0 -25.333 1.83301 -48.166 5.5 -68.499s10.834 -37.833 21.501 -52.5c9.33301 -12 20.666 -21.667 33.999 -29s28.666 -11 45.999 -11c16 0 33.167 4 51.5 12s36.166 19.667 53.499 35c12 11.333 23 23.333 33 36s17.333 22.334 22 29.001zM309.999 252.996
l-0.000976562 25.999c0 10 -0.333008 20.333 -1 31s-1.66699 20.834 -3 30.501s-3 18.167 -5 25.5c-12 36 -37.333 54 -76 54c-19.333 0 -35.5 -4 -48.5 -12s-23.167 -19.333 -30.5 -34c-5.33301 -11.333 -8.66602 -21.833 -9.99902 -31.5s-2 -18.5 -2 -26.5v-63h176z
M73.998 587.995c0 15.333 5.5 28.5 16.5 39.5s24.167 16.5 39.5 16.5s28.5 -5.5 39.5 -16.5s16.5 -24.167 16.5 -39.5s-5.5 -28.5 -16.5 -39.5s-24.167 -16.5 -39.5 -16.5s-28.5 5.5 -39.5 16.5s-16.5 24.167 -16.5 39.5zM271.998 587.995c0 15.333 5.5 28.5 16.5 39.5
s24.167 16.5 39.5 16.5s28.5 -5.5 39.5 -16.5s16.5 -24.167 16.5 -39.5s-5.5 -28.5 -16.5 -39.5s-24.167 -16.5 -39.5 -16.5s-28.5 5.5 -39.5 16.5s-16.5 24.167 -16.5 39.5z" />
    <glyph glyph-name="afii10099" unicode="&#x452;" horiz-adv-x="477" 
d="M23 635l0.00488281 17.0049h100c14.667 0 26.5 0.333008 35.5 1s17.5 2.33398 25.5 5.00098v-140h182v-20h-182v-130c7.33301 7.33301 16.5 15.833 27.5 25.5s21.5 17.5 31.5 23.5c22.667 13.333 45 20 67 20c24 0 46 -6.5 66 -19.5s36 -29.5 48 -49.5
c7.33301 -12.667 14.333 -31 21 -55s10 -58.667 10 -104c0 -27.333 -1.16699 -51.833 -3.5 -73.5s-4.83301 -40.334 -7.5 -56.001s-5.33398 -27.834 -8.00098 -36.501s-4 -13.334 -4 -14.001c-1.33301 -4.66699 -4 -12.334 -8 -23.001s-9.83301 -23 -17.5 -37
s-17.334 -29.167 -29.001 -45.5s-25.834 -32.5 -42.501 -48.5c-19.333 -19.333 -37.833 -33.666 -55.5 -42.999s-35.5 -16.666 -53.5 -21.999v17c13.333 3.33301 24.666 7.66602 33.999 12.999s18.333 11.666 27 18.999c7.33301 6 14.166 12.5 20.499 19.5
s12.166 16.833 17.499 29.5c6.66699 15.333 11.334 32.666 14.001 51.999s4 38.666 4 57.999v325c0 6.66699 -0.666992 14 -2 22s-4 15.333 -8 22s-9.5 12.167 -16.5 16.5s-16.5 6.5 -28.5 6.5c-11.333 0 -21.5 -1.83301 -30.5 -5.5s-17.833 -8.5 -26.5 -14.5
c-7.33301 -5.33301 -15.5 -12.5 -24.5 -21.5s-16.5 -17.167 -22.5 -24.5v-327h63v-17h-224v17h63v481h-92v20h92v117h-63z" />
    <glyph glyph-name="afii10100" unicode="&#x453;" horiz-adv-x="382" 
d="M368 426l6.00098 -138.001h-21c-5.33301 22.667 -11.833 43 -19.5 61s-19.834 32 -36.501 42c-7.33301 4.66699 -17.833 8.83398 -31.5 12.501s-34.5 5.5 -62.5 5.5h-22v-392h63v-17h-224v17h63v392h-63v17h348zM300.001 654.999l-192 -137h-26l98 137h120z" />
    <glyph glyph-name="afii10101" unicode="&#x454;" horiz-adv-x="412" 
d="M395 104c-3.33301 -8.66699 -7.8291 -18.5049 -13.4961 -29.5049s-12.167 -21.167 -19.5 -30.5c-18.667 -23.333 -38 -38.333 -58 -45s-39.667 -10 -59 -10c-36.667 0 -68.5 6.5 -95.5 19.5s-51.167 32.167 -72.5 57.5c-20.667 24.667 -35 49.334 -43 74.001
s-12 51.334 -12 80.001c0 29.333 5.16699 58.166 15.5 86.499s28.833 54.5 55.5 78.5c23.333 20.667 47.166 34.667 71.499 42s48.833 11 73.5 11c16 0 33 -2.33301 51 -7c12 -3.33301 21 -6.16602 27 -8.49902s11.667 -3.5 17 -3.5c4.66699 0 9.66699 1.16699 15 3.5
s9.66602 7.16602 12.999 14.499h17l4 -150h-18c-2 13.333 -5.5 28 -10.5 44s-11.167 29.333 -18.5 40c-8 12.667 -19.333 24 -34 34s-34 15 -58 15c-15.333 0 -28.5 -2 -39.5 -6s-20.333 -9 -28 -15s-13.834 -12.667 -18.501 -20s-8.33398 -14.333 -11.001 -21
c-3.33301 -9.33301 -6 -21.166 -8 -35.499s-3 -26.166 -3 -35.499v-57h175v-17h-175v-55c0 -16 1.5 -35.167 4.5 -57.5s11.167 -41.833 24.5 -58.5c12 -15.333 25 -25 39 -29s27 -6 39 -6c20 0 38.167 2.83301 54.5 8.5s31.166 15.834 44.499 30.501
c9.33301 10.667 17.333 22.334 24 35.001s11.334 22.667 14.001 30z" />
    <glyph glyph-name="afii10102" unicode="&#x455;" horiz-adv-x="367" 
d="M22 130h14.002c6 -15.333 14.167 -31 24.5 -47s22.166 -29.667 35.499 -41c15.333 -13.333 31.166 -22.5 47.499 -27.5s31.833 -7.5 46.5 -7.5c18 0 33.333 2.33301 46 7s22.667 10.5 30 17.5s12.666 15 15.999 24s5 17.5 5 25.5c0 9.33301 -1.83301 18 -5.5 26
s-8.16699 14.667 -13.5 20c-8 9.33301 -16.667 15.666 -26 18.999l-26 9l-81 23c-13.333 3.33301 -26.333 8.5 -39 15.5s-23 14.833 -31 23.5s-15.333 20 -22 34s-10 31.667 -10 53c0 29.333 5.66699 52.333 17 69s23 29.334 35 38.001s26 15.167 42 19.5s30.667 6.5 44 6.5
c12.667 0 24.667 -1.5 36 -4.5s18.666 -5.16699 21.999 -6.5c10 -3.33301 18.333 -6.5 25 -9.5s13 -4.5 19 -4.5c4.66699 0 9.16699 1 13.5 3s8.16602 5.66699 11.499 11h13v-118h-13c-2.66699 6 -6 12.833 -10 20.5l-12.5 23
c-4.33301 7.66699 -8.83301 14.834 -13.5 21.501s-9 12 -13 16c-10 9.33301 -22.5 16.666 -37.5 21.999s-28.833 8 -41.5 8c-8 0 -18.5 -1.33301 -31.5 -4s-23.167 -6.66699 -30.5 -12c-8 -5.33301 -14.5 -12.5 -19.5 -21.5s-7.5 -20.833 -7.5 -35.5
c0 -10.667 2 -19.5 6 -26.5s8.83301 -12.833 14.5 -17.5s11.834 -8.33398 18.501 -11.001l18 -7l118 -37c16.667 -5.33301 30.334 -11.666 41.001 -18.999s19 -14.666 25 -21.999c9.33301 -11.333 15.5 -23.5 18.5 -36.5s4.5 -25.167 4.5 -36.5
c0 -23.333 -3.5 -42.5 -10.5 -57.5s-13.5 -26.167 -19.5 -33.5c-8.66699 -10.667 -18.5 -19.334 -29.5 -26.001s-22.167 -12 -33.5 -16s-22.333 -6.83301 -33 -8.5s-20 -2.5 -28 -2.5c-18.667 0 -35.667 2.5 -51 7.5s-27.666 9.5 -36.999 13.5l-17.5 7.5
c-5.66699 2.33301 -11.167 3.5 -16.5 3.5c-6.66699 0 -13 -2.16699 -19 -6.5s-10.667 -10.5 -14 -18.5h-14v134z" />
    <glyph glyph-name="afii10103" unicode="&#x456;" horiz-adv-x="261" 
d="M20 409l-0.000976562 17h99c10.667 0 19.834 0.166992 27.501 0.5s19.167 1.83301 34.5 4.5v-414h63v-17h-224v17h63v392h-63zM73.999 588c0 15.333 5.5 28.5 16.5 39.5s24.167 16.5 39.5 16.5s28.5 -5.5 39.5 -16.5s16.5 -24.167 16.5 -39.5s-5.5 -28.5 -16.5 -39.5
s-24.167 -16.5 -39.5 -16.5s-28.5 5.5 -39.5 16.5s-16.5 24.167 -16.5 39.5z" />
    <glyph glyph-name="afii10104" unicode="&#x457;" horiz-adv-x="408" 
d="M-3 409l-0.000976562 17h99c10.667 0 19.834 0.166992 27.501 0.5s19.167 1.83301 34.5 4.5v-414h63v-17h-224v17h63v392h-63zM143.999 588c0 11.333 4.16699 21.6699 12.5 31.0029s19.166 14 32.499 14c14.667 0 25.834 -5.33301 33.501 -16s11.5 -20.334 11.5 -29.001
s-3.83301 -18.334 -11.5 -29.001s-18.834 -16 -33.501 -16c-13.333 0 -24.166 4.66699 -32.499 14s-12.5 19.666 -12.5 30.999zM319.999 588.004c0 12.667 4.5 23.3301 13.5 31.9971s19.5 13 31.5 13c13.333 0 24.166 -4.66699 32.499 -14s12.5 -19.666 12.5 -30.999
s-4.16699 -21.666 -12.5 -30.999s-19.166 -14 -32.499 -14c-12 0 -22.5 4.33301 -31.5 13s-13.5 19.334 -13.5 32.001z" />
    <glyph glyph-name="afii10105" unicode="&#x458;" horiz-adv-x="275" 
d="M25 409l0.00195312 17.001h114c10 0 18.833 0.166992 26.5 0.5s19.167 1.83301 34.5 4.5v-491c0 -24.667 -3.33301 -45.667 -10 -63s-14.334 -31.666 -23.001 -42.999c-16.667 -22 -36.167 -37.333 -58.5 -46s-43.833 -13 -64.5 -13c-13.333 0 -27.5 2 -42.5 6
s-27.5 11 -37.5 21c-2.66699 2.66699 -6.66699 7.83398 -12 15.501s-8 18.167 -8 31.5c0 15.333 4.66699 28 14 38s22.333 15 39 15c17.333 0 29.833 -5 37.5 -15s11.5 -20.333 11.5 -31c0 -12 -2.33301 -21 -7 -27s-7 -11.667 -7 -17c0 -3.33301 1.33301 -7 4 -11
s7 -6 13 -6c5.33301 0 12.833 2.83301 22.5 8.5s17.167 17.167 22.5 34.5c2 5.33301 3.5 10.166 4.5 14.499s1.66699 9.16602 2 14.499s0.666016 12.166 0.999023 20.499s0.5 19.5 0.5 33.5v488h-77zM93.002 588.001c0 15.333 5.5 28.5 16.5 39.5s24.167 16.5 39.5 16.5
s28.5 -5.5 39.5 -16.5s16.5 -24.167 16.5 -39.5s-5.5 -28.5 -16.5 -39.5s-24.167 -16.5 -39.5 -16.5s-28.5 5.5 -39.5 16.5s-16.5 24.167 -16.5 39.5z" />
    <glyph glyph-name="afii10106" unicode="&#x459;" horiz-adv-x="659" 
d="M466 426v-17h-63v-161h47c20.667 0 42.667 -1.83301 66 -5.5s44.666 -10.167 63.999 -19.5c20 -10 35.833 -22.667 47.5 -38s17.5 -34.333 17.5 -57c0 -22 -5.66699 -43.167 -17 -63.5s-29.666 -36.5 -54.999 -48.5c-16 -7.33301 -31.5 -11.833 -46.5 -13.5
s-30.167 -2.5 -45.5 -2.5h-239v17h63v392h-44c-18 0 -33.167 -0.666992 -45.5 -2s-22.166 -5.66602 -29.499 -12.999c-6.66699 -6 -10.834 -13 -12.501 -21s-2.5 -15.667 -2.5 -23v-257c0 -10 -0.666992 -20 -2 -30s-3.33301 -18.667 -6 -26
c-5.33301 -15.333 -14.833 -27.166 -28.5 -35.499s-30.834 -12.5 -51.501 -12.5c-11.333 0 -21.666 1.16699 -30.999 3.5s-17.333 6.16602 -24 11.499c-5.33301 4 -10.833 10.167 -16.5 18.5s-8.5 19.166 -8.5 32.499c0 20.667 6.16699 35.667 18.5 45s24.833 14 37.5 14
c11.333 0 22 -3.5 32 -10.5s15 -17.833 15 -32.5c0 -6.66699 -0.666992 -11.334 -2 -14.001s-2.66602 -5.16699 -3.99902 -7.5s-2 -4.83301 -2 -7.5c0 -3.33301 1.33301 -7.16602 4 -11.499s7.66699 -6.5 15 -6.5c5.33301 0 10.5 1.16699 15.5 3.5s9.16699 6.5 12.5 12.5
c1.33301 2 3.16602 7.66699 5.49902 17s3.5 25.666 3.5 48.999v244c0 7.33301 -0.666992 15.333 -2 24s-5.33301 16.334 -12 23.001c-6 6 -12.833 9.5 -20.5 10.5s-14.5 1.5 -20.5 1.5h-21v17h388zM442 17c9.33301 0 20.498 0.335938 33.498 1.00293s24.5 4.66699 34.5 12
c11.333 7.33301 18 16.166 20 26.499s3 19.166 3 26.499v71c0 15.333 -2.66699 28.666 -8 39.999s-12.333 19.666 -21 24.999c-7.33301 4.66699 -15.666 7.83398 -24.999 9.50098s-18.666 2.5 -27.999 2.5h-48v-214h39z" />
    <glyph glyph-name="afii10107" unicode="&#x45a;" horiz-adv-x="705" 
d="M237 426l-0.000976562 -17h-56v-165h170v165h-56v17h217v-17h-63v-165h47c8 0 17.333 -0.333008 28 -1s22 -1.83398 34 -3.50098s24 -4.16699 36 -7.5s23 -7.66602 33 -12.999c5.33301 -2.66699 11.666 -6.5 18.999 -11.5s14.333 -11.333 21 -19s12.334 -17 17.001 -28
s7 -23.5 7 -37.5c0 -23.333 -6.66699 -44.5 -20 -63.5s-30.666 -33.5 -51.999 -43.5c-16 -7.33301 -31.5 -11.833 -46.5 -13.5s-30.167 -2.5 -45.5 -2.5h-232v17h56v210h-170v-210h56v-17h-217v17h63v392h-63v17h217zM487.999 17c9.33301 0 20.498 0.335938 33.498 1.00293
s24.5 4.66699 34.5 12c11.333 7.33301 18 16.166 20 26.499s3 19.166 3 26.499v67c0 15.333 -2.66699 28.666 -8 39.999s-12.333 19.666 -21 24.999c-7.33301 4.66699 -15.666 7.83398 -24.999 9.50098s-18.666 2.5 -27.999 2.5h-48v-210h39z" />
    <glyph glyph-name="afii10108" unicode="&#x45b;" horiz-adv-x="536" 
d="M24 635l0.00195312 17.001h100c12 0 22.667 0.166992 32 0.5s19 2.16602 29 5.49902v-140h182v-20h-182v-130c7.33301 8 16.5 16.667 27.5 26s21.5 17 31.5 23c15.333 9.33301 29.166 15 41.499 17s25.833 3 40.5 3c17.333 0 35 -1.66699 53 -5s34.667 -13 50 -29
c11.333 -11.333 18.666 -22.833 21.999 -34.5s5 -22.167 5 -31.5v-320h63v-17h-217v17h56v320c0 7.33301 -0.5 15.333 -1.5 24s-5.16699 17.667 -12.5 27s-15.333 15.333 -24 18s-17.667 4 -27 4c-11.333 0 -21.333 -1.33301 -30 -4s-18.667 -8 -30 -16
c-8.66699 -6.66699 -17.167 -14 -25.5 -22s-15.833 -16 -22.5 -24v-327h56v-17h-217v17h63v481h-93v20h93v117h-63z" />
    <glyph glyph-name="afii10109" unicode="&#x45c;" horiz-adv-x="516" 
d="M244 426v-17h-63v-175h36c12.667 0 25.167 2.33301 37.5 7s22.833 15.334 31.5 32.001c6.66699 12.667 11 26.834 13 42.501s6.66699 35.167 14 58.5c1.33301 5.33301 3.5 11.666 6.5 18.999s7.5 14.166 13.5 20.499s13.833 11.833 23.5 16.5s21.834 7 36.501 7
c19.333 0 37.166 -6 53.499 -18s24.5 -29.667 24.5 -53c0 -15.333 -4.33301 -29.333 -13 -42s-22.334 -19 -41.001 -19c-16.667 0 -29.5 4.5 -38.5 13.5s-13.5 20.167 -13.5 33.5c0 6 1 12 3 18c0.666992 2 1.33398 4.16699 2.00098 6.5s1 4.5 1 6.5
c0 4 -1.33301 7.66699 -4 11s-6 5 -10 5c-6.66699 0 -11.5 -2.33301 -14.5 -7s-5.16699 -8.66699 -6.5 -12c-5.33301 -11.333 -9.33301 -23.833 -12 -37.5s-5.66699 -27.5 -9 -41.5c-5.33301 -21.333 -11.5 -37.333 -18.5 -48s-17.167 -18 -30.5 -22v-3
c4.66699 0 11 -0.5 19 -1.5s16.5 -2.5 25.5 -4.5s18.167 -4.5 27.5 -7.5s18 -6.83301 26 -11.5c21.333 -13.333 35 -28.5 41 -45.5s10.333 -35.833 13 -56.5c0.666992 -7.33301 1.5 -15 2.5 -23s2.66699 -15.5 5 -22.5s5.5 -12.833 9.5 -17.5s9.66699 -7 17 -7
s14.833 2.66699 22.5 8s13.5 11.666 17.5 18.999l13 -7c-10 -21.333 -23.333 -37.166 -40 -47.499s-33.667 -15.5 -51 -15.5c-18 0 -34.333 4.33301 -49 13s-25.667 19.667 -33 33c-4.66699 8.66699 -8 19 -10 31l-7 44c-3.33301 20.667 -6.5 37.167 -9.5 49.5
s-7.5 22.5 -13.5 30.5c-9.33301 13.333 -20 21.333 -32 24s-24 4 -36 4h-43v-200h63v-17h-224v17h63v392h-63v17h224zM367 655l-192 -137h-26l98 137h120z" />
    <glyph glyph-name="afii10110" unicode="&#x45e;" horiz-adv-x="467" 
d="M45 409l-45.001 0.000976562v17h216v-17h-63l147 -308l80 227c1.33301 4 2.66602 9.16699 3.99902 15.5s2 12.166 2 17.499c0 18 -6 31 -18 39c-6.66699 4.66699 -13.5 7.33398 -20.5 8.00098s-13.167 1 -18.5 1h-9v17h161v-17c-16 -1.33301 -28.833 -6.33301 -38.5 -15
s-17.167 -18 -22.5 -28c-4.66699 -8 -8.33398 -15.833 -11.001 -23.5s-5.33398 -14.5 -8.00098 -20.5l-177 -476c-5.33301 -14 -10.833 -25.167 -16.5 -33.5s-14.5 -16.166 -26.5 -23.499c-9.33301 -5.33301 -18.666 -9.16602 -27.999 -11.499s-19.666 -3.5 -30.999 -3.5
c-14 0 -26.167 1.66699 -36.5 5s-19.166 7.66602 -26.499 12.999c-10 7.33301 -18 16.666 -24 27.999s-9 23.666 -9 36.999c0 18 6 32.333 18 43s25.667 16 41 16c14.667 0 27.167 -5 37.5 -15s15.5 -22 15.5 -36c0 -3.33301 -0.333008 -6.33301 -1 -9
s-1.66699 -5.66699 -3 -9s-2.66602 -6.5 -3.99902 -9.5s-2 -6.16699 -2 -9.5c0 -5.33301 1.83301 -10.333 5.5 -15s10.167 -7 19.5 -7c13.333 0 25.333 5.33301 36 16c3.33301 3.33301 6.5 7.5 9.5 12.5s5.16699 9.5 6.5 13.5l47 123zM232.999 500.001
c10.667 0 22.3359 0.833008 35.0029 2.5s23.667 4.16699 33 7.5c7.33301 2.66699 14.166 6.66699 20.499 12s9.5 10.666 9.5 15.999c0 1.33301 -0.666992 3.33301 -2 6s-3.66602 4.66699 -6.99902 6s-6.83301 2 -10.5 2s-8.16699 1.33301 -13.5 4
c-4 2 -8.83301 5.66699 -14.5 11s-8.5 14.333 -8.5 27s4.16699 24.167 12.5 34.5s21.166 15.5 38.499 15.5s31.5 -5.5 42.5 -16.5s16.5 -25.833 16.5 -44.5c0 -12 -2.16699 -22.5 -6.5 -31.5s-9.5 -17 -15.5 -24s-12.5 -12.667 -19.5 -17s-13.167 -7.83301 -18.5 -10.5
c-12.667 -6 -27.834 -10.333 -45.501 -13s-33.167 -4 -46.5 -4s-28.833 1.33301 -46.5 4s-32.834 7 -45.501 13c-5.33301 2.66699 -11.5 6.16699 -18.5 10.5s-13.5 10 -19.5 17s-11.167 15 -15.5 24s-6.5 19.5 -6.5 31.5c0 18.667 5.5 33.5 16.5 44.5s25.167 16.5 42.5 16.5
s30.166 -5.16699 38.499 -15.5s12.5 -21.833 12.5 -34.5s-2.83301 -21.667 -8.5 -27s-10.5 -9 -14.5 -11c-5.33301 -2.66699 -9.83301 -4 -13.5 -4s-7.16699 -0.666992 -10.5 -2s-5.66602 -3.33301 -6.99902 -6s-2 -4.66699 -2 -6c0 -5.33301 3.16699 -10.666 9.5 -15.999
s13.166 -9.33301 20.499 -12c9.33301 -3.33301 20.333 -5.83301 33 -7.5s24.334 -2.5 35.001 -2.5z" />
    <glyph glyph-name="afii10193" unicode="&#x45f;" horiz-adv-x="532" 
d="M237 426v-17.002h-56v-392h170v392h-56v17h217v-17h-63v-392h63v-17h-174c-11.333 -12.667 -20 -25.167 -26 -37.5s-11.333 -25.5 -16 -39.5c-1.33301 -4 -2.5 -7.83301 -3.5 -11.5l-3.5 -13c-1.33301 -5 -3 -10.833 -5 -17.5s-4.33301 -15 -7 -25h-22
c-3.33301 10.667 -5.83301 19.334 -7.5 26.001s-3.16699 12.334 -4.5 17.001l-3.5 12.5c-1 3.66699 -2.16699 7.5 -3.5 11.5c-4.66699 14.667 -10 28 -16 40s-14.667 24.333 -26 37h-174v17h63v392h-63v17h217z" />
    <glyph glyph-name="afii10050" unicode="&#x490;" horiz-adv-x="528" 
d="M337 655c22.667 0 44 5.5 64 16.5s37.667 32.167 53 63.5c8 16.667 13.833 33.5 17.5 50.5s6.16699 30.5 7.5 40.5h24v-270h-21c-4 10.667 -9.66699 21 -17 31s-15.666 18.667 -24.999 26c-14.667 11.333 -29.334 17.833 -44.001 19.5s-29.667 2.5 -45 2.5h-120v-615h77
v-20h-266v20h77v615h-77v20h295z" />
    <glyph glyph-name="afii10098" unicode="&#x491;" horiz-adv-x="393" 
d="M243 426c10 0 19.833 0.5 29.5 1.5s19 3.5 28 7.5s17.5 10 25.5 18s15 18.667 21 32c1.33301 3.33301 3.5 9.5 6.5 18.5s6.5 23.167 10.5 42.5h21v-216h-21c-4 17.333 -11.5 31 -22.5 41s-21.167 17.333 -30.5 22c-11.333 5.33301 -24.833 9.33301 -40.5 12
s-35.5 4 -59.5 4h-30v-392h63v-17h-224v17h63v392h-63v17h223z" />
    <glyph glyph-name="endash" unicode="&#x2013;" horiz-adv-x="698" 
d="M649 230v-45h-600v45h600z" />
    <glyph glyph-name="emdash" unicode="&#x2014;" horiz-adv-x="983" 
d="M927 185h-871v45h871v-45z" />
    <glyph glyph-name="quoteleft" unicode="&#x2018;" horiz-adv-x="328" 
d="M199 704c-27.333 -20.667 -47.999 -45.6699 -61.999 -75.0029c-2.66699 -6 -5 -12.333 -7 -19s-3 -12.667 -3 -18c0 -8.66699 2.16699 -15 6.5 -19s8.16602 -6 11.499 -6s6 0.833008 8 2.5l6 5c2 1.66699 4.66699 3.33398 8 5.00098s8 2.5 14 2.5
c16 0 28.167 -6.16699 36.5 -18.5s12.5 -25.166 12.5 -38.499c0 -16 -5.16699 -29.167 -15.5 -39.5s-23.833 -15.5 -40.5 -15.5c-10.667 0 -21 2.33301 -31 7s-18.667 11.334 -26 20.001c-5.33301 6 -9.83301 14.333 -13.5 25s-5.5 24.334 -5.5 41.001
c0 16 2.66699 32.5 8 49.5s12.666 32.5 21.999 46.5c5.33301 7.33301 12.333 15.666 21 24.999s21.334 21.333 38.001 36z" />
    <glyph glyph-name="quoteright" unicode="&#x2019;" horiz-adv-x="328" 
d="M129 486c27.333 20.667 47.999 45.6699 61.999 75.0029c2.66699 6 5 12.333 7 19s3 12.667 3 18c0 8.66699 -2.16699 15 -6.5 19s-8.16602 6 -11.499 6s-6 -0.833008 -8 -2.5l-6 -5c-2 -1.66699 -4.66699 -3.33398 -8 -5.00098s-8 -2.5 -14 -2.5
c-16 0 -28.167 6.16699 -36.5 18.5s-12.5 25.166 -12.5 38.499c0 16 5.16699 29.167 15.5 39.5s23.833 15.5 40.5 15.5c10.667 0 21 -2.33301 31 -7s18.667 -11.334 26 -20.001c5.33301 -6 9.83301 -14.333 13.5 -25s5.5 -24.334 5.5 -41.001c0 -16 -2.66699 -32.5 -8 -49.5
s-12.666 -32.5 -21.999 -46.5c-5.33301 -7.33301 -12.333 -15.666 -21 -24.999s-21.334 -21.333 -38.001 -36z" />
    <glyph glyph-name="quotedblleft" unicode="&#x201c;" horiz-adv-x="526" 
d="M397 704c-27.333 -20.667 -47.999 -45.6699 -61.999 -75.0029c-2.66699 -6 -5 -12.333 -7 -19s-3 -12.667 -3 -18c0 -8.66699 2.16699 -15 6.5 -19s8.16602 -6 11.499 -6s6 0.833008 8 2.5l6 5c2 1.66699 4.66699 3.33398 8 5.00098s8 2.5 14 2.5
c16 0 28.167 -6.16699 36.5 -18.5s12.5 -25.166 12.5 -38.499c0 -16 -5.16699 -29.167 -15.5 -39.5s-23.833 -15.5 -40.5 -15.5c-10.667 0 -21 2.33301 -31 7s-18.667 11.334 -26 20.001c-5.33301 6 -9.83301 14.333 -13.5 25s-5.5 24.334 -5.5 41.001
c0 16 2.66699 32.5 8 49.5s12.666 32.5 21.999 46.5c5.33301 7.33301 12.333 15.666 21 24.999s21.334 21.333 38.001 36zM199.001 703.997c-27.333 -20.667 -47.999 -45.6699 -61.999 -75.0029c-2.66699 -6 -5 -12.333 -7 -19s-3 -12.667 -3 -18
c0 -8.66699 2.16699 -15 6.5 -19s8.16602 -6 11.499 -6s6 0.833008 8 2.5l6 5c2 1.66699 4.66699 3.33398 8 5.00098s8 2.5 14 2.5c16 0 28.167 -6.16699 36.5 -18.5s12.5 -25.166 12.5 -38.499c0 -16 -5.16699 -29.167 -15.5 -39.5s-23.833 -15.5 -40.5 -15.5
c-10.667 0 -21 2.33301 -31 7s-18.667 11.334 -26 20.001c-5.33301 6 -9.83301 14.333 -13.5 25s-5.5 24.334 -5.5 41.001c0 16 2.66699 32.5 8 49.5s12.666 32.5 21.999 46.5c5.33301 7.33301 12.333 15.666 21 24.999s21.334 21.333 38.001 36z" />
    <glyph glyph-name="quotedblright" unicode="&#x201d;" horiz-adv-x="526" 
d="M129 486c27.333 20.667 47.999 45.6699 61.999 75.0029c2.66699 6 5 12.333 7 19s3 12.667 3 18c0 8.66699 -2.16699 15 -6.5 19s-8.16602 6 -11.499 6s-6 -0.833008 -8 -2.5l-6 -5c-2 -1.66699 -4.66699 -3.33398 -8 -5.00098s-8 -2.5 -14 -2.5
c-16 0 -28.167 6.16699 -36.5 18.5s-12.5 25.166 -12.5 38.499c0 16 5.16699 29.167 15.5 39.5s23.833 15.5 40.5 15.5c10.667 0 21 -2.33301 31 -7s18.667 -11.334 26 -20.001c5.33301 -6 9.83301 -14.333 13.5 -25s5.5 -24.334 5.5 -41.001c0 -16 -2.66699 -32.5 -8 -49.5
s-12.666 -32.5 -21.999 -46.5c-5.33301 -7.33301 -12.333 -15.666 -21 -24.999s-21.334 -21.333 -38.001 -36zM326.999 486.003c27.333 20.667 47.999 45.6699 61.999 75.0029c2.66699 6 5 12.333 7 19s3 12.667 3 18c0 8.66699 -2.16699 15 -6.5 19s-8.16602 6 -11.499 6
s-6 -0.833008 -8 -2.5l-6 -5c-2 -1.66699 -4.66699 -3.33398 -8 -5.00098s-8 -2.5 -14 -2.5c-16 0 -28.167 6.16699 -36.5 18.5s-12.5 25.166 -12.5 38.499c0 16 5.16699 29.167 15.5 39.5s23.833 15.5 40.5 15.5c10.667 0 21 -2.33301 31 -7s18.667 -11.334 26 -20.001
c5.33301 -6 9.83301 -14.333 13.5 -25s5.5 -24.334 5.5 -41.001c0 -16 -2.66699 -32.5 -8 -49.5s-12.666 -32.5 -21.999 -46.5c-5.33301 -7.33301 -12.333 -15.666 -21 -24.999s-21.334 -21.333 -38.001 -36z" />
    <glyph glyph-name="quotedblbase" unicode="&#x201e;" horiz-adv-x="526" 
d="M129 -133c27.333 20.667 47.999 45.6699 61.999 75.0029c2.66699 6 5 12.333 7 19s3 12.667 3 18c0 8.66699 -2.16699 15 -6.5 19s-8.16602 6 -11.499 6s-6 -0.833008 -8 -2.5l-6 -5c-2 -1.66699 -4.66699 -3.33398 -8 -5.00098s-8 -2.5 -14 -2.5
c-16 0 -28.167 6.16699 -36.5 18.5s-12.5 25.166 -12.5 38.499c0 16 5.16699 29.167 15.5 39.5s23.833 15.5 40.5 15.5c10.667 0 21 -2.33301 31 -7s18.667 -11.334 26 -20.001c5.33301 -6 9.83301 -14.333 13.5 -25s5.5 -24.334 5.5 -41.001c0 -16 -2.66699 -32.5 -8 -49.5
s-12.666 -32.5 -21.999 -46.5c-5.33301 -7.33301 -12.333 -15.666 -21 -24.999s-21.334 -21.333 -38.001 -36zM326.999 -132.997c27.333 20.667 47.999 45.6699 61.999 75.0029c2.66699 6 5 12.333 7 19s3 12.667 3 18c0 8.66699 -2.16699 15 -6.5 19s-8.16602 6 -11.499 6
s-6 -0.833008 -8 -2.5l-6 -5c-2 -1.66699 -4.66699 -3.33398 -8 -5.00098s-8 -2.5 -14 -2.5c-16 0 -28.167 6.16699 -36.5 18.5s-12.5 25.166 -12.5 38.499c0 16 5.16699 29.167 15.5 39.5s23.833 15.5 40.5 15.5c10.667 0 21 -2.33301 31 -7s18.667 -11.334 26 -20.001
c5.33301 -6 9.83301 -14.333 13.5 -25s5.5 -24.334 5.5 -41.001c0 -16 -2.66699 -32.5 -8 -49.5s-12.666 -32.5 -21.999 -46.5c-5.33301 -7.33301 -12.333 -15.666 -21 -24.999s-21.334 -21.333 -38.001 -36z" />
    <glyph glyph-name="dagger" unicode="&#x2020;" horiz-adv-x="577" 
d="M275 419c-23.333 1.33301 -42.4961 -0.335938 -57.4961 -5.00293s-29.167 -9.66699 -42.5 -15l-42 -16c-12.667 -4.66699 -24.667 -7 -36 -7c-18 0 -31.667 5.5 -41 16.5s-14 24.5 -14 40.5c0 21.333 5.83301 36.166 17.5 44.499s24.167 12.5 37.5 12.5
c11.333 0 23 -2.33301 35 -7s23.667 -8.66699 35 -12c34 -11.333 58.667 -17.833 74 -19.5s26.666 -1.83398 33.999 -0.500977v14c0 10.667 -1 23.334 -3 38.001s-8 36.667 -18 66c-5.33301 17.333 -10.333 32.5 -15 45.5s-7 25.5 -7 37.5
c0 6.66699 0.833008 13.334 2.5 20.001s4.5 12.834 8.5 18.501s9.66699 10.334 17 14.001s16.666 5.5 27.999 5.5s20.666 -1.83301 27.999 -5.5s13 -8.33398 17 -14.001s6.83301 -11.834 8.5 -18.501s2.5 -13.334 2.5 -20.001c0 -12 -2.33301 -24.5 -7 -37.5
s-9.66699 -28.167 -15 -45.5c-10 -29.333 -16 -51.333 -18 -66s-3 -27.334 -3 -38.001v-14c2 0 5.33301 -0.166992 10 -0.5s11.167 0 19.5 1s18.833 3 31.5 6s28.334 7.5 47.001 13.5c11.333 3.33301 23.166 7.33301 35.499 12s24.166 7 35.499 7
c17.333 0 30.833 -5.16699 40.5 -15.5s14.5 -24.166 14.5 -41.499c0 -16 -4.66699 -29.5 -14 -40.5s-23 -16.5 -41 -16.5c-11.333 0 -23.333 2.33301 -36 7l-42 16c-13.333 5.33301 -27.666 10.333 -42.999 15s-34.666 6.33398 -57.999 5.00098v-68
c0 -17.333 0.5 -36.666 1.5 -57.999s2.33301 -42.833 4 -64.5s3.5 -42.667 5.5 -63s4 -37.833 6 -52.5c4.66699 -39.333 10.167 -80.166 16.5 -122.499s9.5 -84.166 9.5 -125.499c0 -5.33301 -0.333008 -12.833 -1 -22.5s-2.66699 -19.167 -6 -28.5
s-8.83301 -17.333 -16.5 -24s-18.5 -10 -32.5 -10c-13.333 0 -23.833 3.16699 -31.5 9.5s-13.334 14 -17.001 23s-5.83398 18.333 -6.50098 28s-1 18.167 -1 25.5c0 36.667 2.66699 74 8 112l18 135c5.33301 40 9.5 78.667 12.5 116s4.5 78 4.5 122v68v0z" />
    <glyph glyph-name="bullet" unicode="&#x2022;" horiz-adv-x="698" 
d="M251 350c0 27.333 9.5 50.5 28.5 69.5s42.167 28.5 69.5 28.5s50.5 -9.5 69.5 -28.5s28.5 -42.167 28.5 -69.5s-9.5 -50.5 -28.5 -69.5s-42.167 -28.5 -69.5 -28.5s-50.5 9.5 -69.5 28.5s-28.5 42.167 -28.5 69.5z" />
    <glyph glyph-name="ellipsis" unicode="&#x2026;" horiz-adv-x="868" 
d="M98 45c0 15.333 5.5 28.5 16.5 39.5s24.167 16.5 39.5 16.5s28.5 -5.5 39.5 -16.5s16.5 -24.167 16.5 -39.5s-5.5 -28.5 -16.5 -39.5s-24.167 -16.5 -39.5 -16.5s-28.5 5.5 -39.5 16.5s-16.5 24.167 -16.5 39.5zM378 45c0 15.333 5.5 28.5 16.5 39.5
s24.167 16.5 39.5 16.5s28.5 -5.5 39.5 -16.5s16.5 -24.167 16.5 -39.5s-5.5 -28.5 -16.5 -39.5s-24.167 -16.5 -39.5 -16.5s-28.5 5.5 -39.5 16.5s-16.5 24.167 -16.5 39.5zM658 45c0 15.333 5.5 28.5 16.5 39.5s24.167 16.5 39.5 16.5s28.5 -5.5 39.5 -16.5
s16.5 -24.167 16.5 -39.5s-5.5 -28.5 -16.5 -39.5s-24.167 -16.5 -39.5 -16.5s-28.5 5.5 -39.5 16.5s-16.5 24.167 -16.5 39.5z" />
    </font>
</defs>
</svg>
