<?xml version="1.0" encoding="utf-8"?>
<!-- Generator: Adobe Illustrator 19.1.0, SVG Export Plug-In . SVG Version: 6.00 Build 0)  -->
<svg version="1.2" baseProfile="tiny" id="Layer_1" xmlns="http://www.w3.org/2000/svg" xmlns:xlink="http://www.w3.org/1999/xlink"
	 x="0px" y="0px" width="11.1px" height="19px" viewBox="0 0 11.1 19" xml:space="preserve">
<g>
	<g>
		<path fill="#FFCC00" d="M3.7,19c-0.2,0-0.7,0-1.1-0.4c-0.4-0.4-0.4-0.9-0.4-1.1l0-1.4c0-0.7,0-1.4,0-2.1c0-1.2,0-2.3-0.1-3.5
			l0-0.6l-0.6,0C0.6,9.8,0,9.2,0,8.2l0-2.1c0-0.9,0.6-1.5,1.5-1.5l0.1,0c0.1,0,0.2,0,0.3,0c0.1-0.5,0.1-1,0.3-1.5
			c0.3-1.1,1.3-2.5,3.6-3C7.1-0.1,8.5,0,10.1,0.6c0.7,0.2,1,0.9,0.9,1.6l0,0.1c-0.1,0.6-0.2,1.2-0.4,1.8c-0.1,0.5-0.3,1-0.8,1.3
			c0,0,0,0-0.1,0c0.3,0.4,0.3,0.8,0.3,1c0,0.6,0,1.2,0,1.9c0,1-0.6,1.6-1.5,1.6H8.1c0,0.2,0,0.4,0,0.6l0.1,7c0,0.2,0,0.7-0.4,1.1
			c-0.3,0.3-0.6,0.4-1.1,0.4C5.7,18.9,4.7,19,3.7,19z M3.1,7.8c0.5,0,1,0.4,1,0.9c0,0.2,0,0.3,0,0.3l0,1.3c0,1.2,0,2.4,0.1,3.5
			c0,0.7,0,1.4,0,2.2l0,0.9c0.6,0,1.3,0,1.9,0l-0.1-6.5c0-0.4,0-0.8,0-1.1l0-0.5c0-0.6,0.4-1,1-1h1c0-0.3,0-0.7,0-1
			c-0.3,0-0.5,0-0.8,0l-0.5,0c-0.3,0-0.5-0.1-0.7-0.3C5.9,6.3,5.8,6.1,5.8,5.8l0-0.1c0-0.1,0-0.2,0-0.3C5.9,4.6,6.2,4,6.7,3.7
			c0.5-0.3,1.1-0.4,1.8-0.3c0.1,0,0.2,0,0.3,0.1C8.9,3.1,8.9,2.7,9,2.3C7.9,2,7,1.9,6.1,2.1C4.6,2.4,4.2,3.2,4,3.8
			C3.9,4.2,3.8,4.7,3.8,5.2l0,0.3C3.6,6.4,3,6.7,2.4,6.7c-0.1,0-0.3,0-0.4,0l0,1.1L3.1,7.8z"/>
	</g>
</g>
</svg>
