<?xml version="1.0" encoding="utf-8"?>
<!-- Generator: Adobe Illustrator 19.1.0, SVG Export Plug-In . SVG Version: 6.00 Build 0)  -->
<svg version="1.2" baseProfile="tiny" id="Layer_1" xmlns="http://www.w3.org/2000/svg" xmlns:xlink="http://www.w3.org/1999/xlink"
	 x="0px" y="0px" width="19.5px" height="19.5px" viewBox="0 0 19.5 19.5" xml:space="preserve">
<g>
	<path fill="#FFCC00" d="M16.6,0H2.9C1.3,0,0,1.3,0,2.9v13.7c0,1.6,1.3,2.9,2.9,2.9h13.7c1.6,0,2.9-1.3,2.9-2.9V2.9
		C19.5,1.3,18.2,0,16.6,0z M2.9,2h13.7c0.5,0,0.9,0.4,0.9,0.9v3h-4.6C12,5.2,10.9,4.7,9.7,4.7c-1.2,0-2.3,0.4-3.1,1.1H2v-3
		C2,2.4,2.4,2,2.9,2z M9.7,6.7c1.7,0,3,1.3,3,3s-1.3,3-3,3s-3-1.3-3-3S8.1,6.7,9.7,6.7z M16.6,17.5H2.9c-0.5,0-0.9-0.4-0.9-0.9V7.9
		h3.1C4.9,8.5,4.7,9.1,4.7,9.7c0,2.8,2.2,5,5,5c2.8,0,5-2.2,5-5c0-0.7-0.1-1.3-0.4-1.8h3.1v8.7C17.5,17.1,17.1,17.5,16.6,17.5z"/>
	<path fill="#FFCC00" d="M15.1,4.8c0.3,0,0.5-0.1,0.7-0.3c0.2-0.2,0.3-0.4,0.3-0.7c0-0.3-0.1-0.5-0.3-0.7c-0.4-0.4-1-0.4-1.4,0
		c-0.2,0.2-0.3,0.4-0.3,0.7c0,0.3,0.1,0.5,0.3,0.7C14.5,4.7,14.8,4.8,15.1,4.8z"/>
</g>
</svg>
