<?xml version="1.0" encoding="utf-8"?>
<!-- Generator: Adobe Illustrator 19.1.0, SVG Export Plug-In . SVG Version: 6.00 Build 0)  -->
<svg version="1.2" baseProfile="tiny" id="Layer_1" xmlns="http://www.w3.org/2000/svg" xmlns:xlink="http://www.w3.org/1999/xlink"
	 x="0px" y="0px" width="22px" height="21.9px" viewBox="0 0 22 21.9" xml:space="preserve">
<g>
	<path fill="#FFCC00" d="M21.7,10.6c-0.5-2.5-2.1-3.9-4.6-4.2c-0.5-0.1-1-0.1-1.5,0c-1,0.1-1.9,0.4-2.7,0.9
		c-0.2-0.4-0.7-0.6-1.3-0.6H8.6c-1.1,0-1.6,0.5-1.6,1.6v12.2l0,0.3c0,0.5,0.2,0.8,0.4,0.9c0.2,0.2,0.5,0.4,0.9,0.4c0,0,0,0,0,0
		l3.6,0c0.7,0,1.3-0.5,1.3-1.3l0-2.2c0-1.5,0-3,0-4.6c0-0.6,0.1-1,0.3-1.4c0.3-0.6,1-0.6,1.4-0.6c0.4,0.1,0.7,0.2,0.8,0.8
		c0.1,0.4,0.1,0.8,0.1,1.3l0,6.4c0,1.1,0.4,1.5,1.6,1.5l3.1,0c1,0,1.5-0.5,1.5-1.5v-7C22,12.4,21.9,11.4,21.7,10.6z M20,19.9l-2.2,0
		l0-5.9c0-0.7-0.1-1.2-0.2-1.8c-0.4-1.7-1.6-2.2-2.5-2.3c-0.2,0-0.3,0-0.5,0c-1.3,0-2.4,0.6-2.9,1.7c-0.3,0.6-0.5,1.4-0.5,2.2
		c0,1.5,0,3,0,4.6l0,1.5l-2.1,0V8.6h2c0,0.2,0,0.4,0,0.6c0,0.2,0.1,0.5,0.2,0.6c0.2,0.3,0.5,0.4,0.8,0.4c0.3,0,0.6-0.1,0.8-0.4
		l0.2-0.2c0.1-0.1,0.2-0.2,0.3-0.4c0.6-0.6,1.4-1,2.3-1.1c0.4,0,0.8,0,1.1,0c1.7,0.2,2.6,1,2.9,2.7c0.2,0.7,0.2,1.5,0.2,2.5V19.9z"
		/>
	<path fill="#FFCC00" d="M6.8,3.4C6.8,1.5,5.3,0,3.4,0h0C2.5,0,1.6,0.3,1,1C0.4,1.6,0,2.5,0,3.4c0,1.5,1,2.7,2.3,3.2l-0.5,0
		c-1,0-1.4,0.5-1.4,1.4l0,7.8c0,1.6,0,3.1,0,4.7c0,0.2,0,0.7,0.4,1c0.3,0.3,0.6,0.4,1,0.4c0,0,0,0,0,0c1.1,0,2.2,0,3.4,0
		c0.4,0,0.8-0.1,1-0.4s0.4-0.6,0.4-1c0-4.2,0-8.4,0-12.6c0-0.4-0.1-0.8-0.4-1c-0.3-0.3-0.6-0.4-1-0.4c-0.2,0-0.3,0-0.5,0
		C5,6.4,5.4,6.2,5.8,5.8C6.4,5.2,6.8,4.3,6.8,3.4z M2.3,19.9c0-1.4,0-2.7,0-4.1l0-7.2h0.6c0.5,0,1.1,0,1.6,0c0,3.8,0,7.6,0,11.3
		C3.8,19.9,3,19.9,2.3,19.9z M5.5,8l-1,0c0,0,0,0,0,0L5.5,8z M4.4,4.4c-0.3,0.3-0.6,0.4-1,0.4c0,0,0,0,0,0C2.6,4.8,2,4.2,2,3.4
		c0-0.4,0.1-0.7,0.4-1C2.7,2.1,3,2,3.4,2c0,0,0,0,0,0c0.8,0,1.4,0.6,1.4,1.4C4.8,3.8,4.7,4.2,4.4,4.4z"/>
</g>
</svg>
