<?xml version="1.0" encoding="utf-8"?>
<!-- Generator: Adobe Illustrator 19.1.1, SVG Export Plug-In . SVG Version: 6.00 Build 0)  -->
<svg version="1.1" id="Layer_1" xmlns="http://www.w3.org/2000/svg" xmlns:xlink="http://www.w3.org/1999/xlink" x="0px" y="0px"
	 viewBox="-186 396.3 222.6 48.6" style="enable-background:new -186 396.3 222.6 48.6;" xml:space="preserve">
<style type="text/css">
	.st0{fill:#34471C;}
</style>
<g>
	<path class="st0" d="M-182.1,421.3v-15.5V404c0-2-0.2-3.5-0.5-4.5c-0.3-1-1-1.5-2.1-1.5h-1.3v-1.4c1.1,0,2.1,0.1,3,0.2
		c0.9,0.1,1.5,0.2,1.9,0.2c0.7,0,1.8-0.1,3.5-0.3c1.7-0.3,3.2-0.4,4.3-0.4c3,0,5.2,0.8,6.7,2.4s2.2,3.5,2.2,5.6c0,1.2-0.3,2.3-1,3.4
		c-0.7,1.1-1.6,2.1-2.8,2.9s-2.7,1.3-4.5,1.6v0.5h1c0.8,0,1.8,0.1,2.9,0.4c1.1,0.3,2.3,0.7,3.5,1.4c1.2,0.7,2.2,1.6,3,2.9
		c0.8,1.2,1.2,2.8,1.2,4.7c0,1.2-0.2,2.4-0.6,3.5c-0.4,1.2-1,2.3-1.9,3.3c-0.9,1-2,1.8-3.4,2.4c-1.4,0.6-3,0.9-4.9,0.9
		c-1.3,0-2.2,0-2.8-0.1s-1.4-0.2-2.5-0.3c-1.1-0.2-2.1-0.3-2.9-0.3c-0.4,0-1.1,0.1-2,0.2c-0.9,0.1-1.6,0.2-2,0.2h-1.9v-1.5h1.1
		c0.9,0,1.5-0.5,1.9-1.4c0.4-0.9,0.7-2,0.8-3.3C-182.1,424.5-182.1,423-182.1,421.3z M-178.2,407.7v4.4c0.7,0.1,1.2,0.1,1.6,0.1
		c1.7,0,3.2-0.3,4.4-1c1.2-0.7,2.2-1.6,2.8-2.7c0.6-1.1,1-2.3,1-3.6c0-1.1-0.3-2.2-0.8-3.3s-1.3-1.9-2.2-2.6c-0.9-0.7-1.9-1-3-1
		h-3.4C-178.1,401.3-178.2,404.5-178.2,407.7z M-178.2,413.7v8.4v2.2c0,1.8,0.1,3.1,0.3,3.9c0.2,0.8,0.7,1.5,1.4,1.9
		s1.9,0.6,3.6,0.6c5.1,0,7.6-2.9,7.6-8.8c0-2.2-0.5-4-1.6-5.3c-1.1-1.3-2.4-2.1-3.9-2.6c-1.5-0.4-3.1-0.7-4.8-0.7
		C-176.7,413.5-177.6,413.6-178.2,413.7z"/>
	<path class="st0" d="M-152.9,427.9l0.5,0.2c1.2-1.7,2.9-3.9,5-6.5c0.7-0.8,2.5-3.2,5.5-6.9c1.5-1.8,2.8-3.7,4.1-5.5l1.4,0.3
		c-0.1,1.3-0.2,3.6-0.3,7v6.3v2.7c0,0.9,0,1.7,0.1,2.3c0.1,0.6,0.2,1.1,0.5,1.5c0.3,0.4,0.7,0.8,1.2,1c0.5,0.2,1.3,0.3,2.2,0.3v1.3
		h-2.3c-0.4,0-1.1-0.1-2-0.2h-2.9c-0.9,0.1-1.5,0.2-1.9,0.2h-2.2v-1.3c1.7,0,2.8-0.4,3.3-1.3c0.5-0.9,0.7-2.3,0.7-4.2V423
		c0-3.3,0.2-6.1,0.5-8.3l-0.6-0.2c-1.1,1.6-2.2,3-3.2,4.4s-2.2,2.7-3.3,4.2c-1.1,1.5-2.4,2.8-3.5,4.2c-1.1,1.4-2.7,3.1-4.6,5.3
		l-1.6-0.3c0.2-2.3,0.3-6.1,0.3-11.2c0-3,0-5.1-0.1-6.3c-0.1-1.3-0.3-2.2-0.7-2.8c-0.4-0.6-1.1-0.9-2-0.9h-1v-1.3h2.5
		c0.2,0,0.6,0,1.1,0.1s0.8,0.1,1,0.1h2.1c0.2,0,0.5-0.1,1-0.1s0.9-0.1,1.1-0.1h2.5v1.3h-1c-0.8,0-1.4,0.2-1.9,0.5
		c-0.4,0.3-0.8,0.9-1,1.7c-0.2,0.8-0.3,2.1-0.3,3.7v2.3v1v1.4C-152.7,424.3-152.7,426.3-152.9,427.9z"/>
	<path class="st0" d="M-123,424.2V411c-2.5,0-4.4,0.5-5.7,1.4c-1.3,0.9-2,2.5-2,4.7h-1.4v-7.9c1.9,0.1,3.2,0.2,3.7,0.2
		c2.2,0.1,4.6,0.2,7.1,0.2c4.8,0,8.7-0.1,11.6-0.4c-0.2,1.2-0.6,3.8-1.4,7.9h-1.5c0.2-0.9,0.3-1.6,0.3-2.1c0-1.5-0.6-2.5-1.7-3
		s-3-0.8-5.7-0.8v13.2c0,2,0.2,3.6,0.5,4.7s1.1,1.6,2.2,1.6h1.3v1.3h-2.3c-0.3,0-0.7,0-1.1-0.1c-0.5-0.1-0.8-0.1-0.8-0.1h-3
		c-0.6,0.1-1.1,0.1-1.2,0.2c-0.1,0.1-0.4,0-0.6,0h-2.3v-1.3h1.4c1.1,0,1.9-0.6,2.2-1.7C-123.1,427.9-123,426.1-123,424.2z"/>
	<path class="st0" d="M-87.5,427.2v1.8c-1.7,1.4-2.9,2.3-3.7,2.8c-0.8,0.5-1.4,0.7-2,0.7c-1.5,0-2.4-1.2-2.9-3.6
		c-1.1,1.1-2.3,2-3.7,2.7c-1.4,0.6-2.7,1-4,1c-2,0-3.5-0.4-4.4-1.3c-0.9-0.9-1.4-1.7-1.4-2.6c0-2,1.1-3.7,3.3-5.1
		c2.2-1.4,5.7-2.3,10.5-2.7v-1.6c0-2.4-0.2-4.1-0.6-5.4c-0.4-1.2-0.9-2.1-1.6-2.5c-0.7-0.4-1.7-0.6-2.9-0.6c-0.9,0-1.7,0.3-2.4,0.8
		s-1,1.2-1,2c0,0.5,0.2,0.9,0.5,1.5l-4.3,2.6c-0.3-0.7-0.5-1.3-0.5-1.9c0-1.3,0.6-2.4,1.8-3.4c1.2-1,2.6-1.8,4.3-2.3
		c1.7-0.5,3.2-0.8,4.5-0.8c1.7,0,3.2,0.4,4.3,1.1c1.2,0.8,1.8,2,1.8,3.7c0,0.7-0.1,2.3-0.2,4.8c-0.2,2.5-0.3,5.2-0.4,8.3
		c0,2,0.4,3,1.1,3C-90.5,430.1-89.2,429.1-87.5,427.2z M-95.8,422c-3,0.2-5.4,0.6-7.1,1.2s-2.5,1.8-2.5,3.6c0,1.1,0.3,2,0.9,2.8
		s1.4,1.2,2.5,1.2c1.6,0,3-0.7,4.3-2C-96.4,427.5-95.8,425.3-95.8,422z"/>
	<path class="st0" d="M-65.4,431.9h-1.9c-0.5,0-0.8,0-1.1-0.1c-0.3-0.1-0.6-0.1-0.8-0.2c-0.3,0-0.9-0.1-1.9-0.1
		c-0.6,0-1.1,0.1-1.5,0.2s-1.2,0.2-2.5,0.2H-77v-1.5h1.1c1.3,0,2-0.8,2.4-2.4c0.3-1.6,0.5-3.6,0.5-6.1v-16.5c0-1.7-0.1-3-0.3-4
		c-0.2-1-0.6-1.8-1.2-2.4s-1.5-0.9-2.6-0.9v-1.5c4.7,0.2,10.8,0.4,18.4,0.4s13.7-0.1,18.4-0.4v1.5c-1.2,0-2,0.3-2.6,0.9
		s-1,1.4-1.1,2.4s-0.3,2.4-0.3,4v15.7v1.5c0,2.2,0.2,4.1,0.5,5.6c0.4,1.5,1.1,2.2,2.3,2.2h1.1v1.5h-1.9c-0.4,0-1.1-0.1-2-0.2
		c-0.5-0.1-1.1-0.2-1.8-0.2s-1.3,0.1-2,0.2c-1,0.1-1.7,0.2-2.1,0.2h-1.9v-1.5h1.1c1.1,0,1.8-0.6,2.2-1.7s0.5-2.7,0.5-4.6
		c0-0.4,0-0.9,0-1.5s0-1.2,0-1.5v-22.2h-20.8v23v1.5c0,2.3,0.2,4,0.5,5.2s1.1,1.8,2.2,1.8h1.1L-65.4,431.9L-65.4,431.9z"/>
	<path class="st0" d="M-15.7,427.2v1.8c-1.7,1.4-2.9,2.3-3.7,2.8s-1.4,0.7-2,0.7c-1.5,0-2.4-1.2-2.9-3.6c-1.1,1.1-2.3,2-3.7,2.7
		c-1.4,0.6-2.7,1-4,1c-2,0-3.5-0.4-4.4-1.3c-0.9-0.9-1.4-1.7-1.4-2.6c0-2,1.1-3.7,3.3-5.1s5.7-2.3,10.5-2.7v-1.6
		c0-2.4-0.2-4.1-0.6-5.4c-0.4-1.2-0.9-2.1-1.6-2.5c-0.7-0.4-1.7-0.6-2.9-0.6c-0.9,0-1.7,0.3-2.4,0.8s-1,1.2-1,2
		c0,0.5,0.2,0.9,0.5,1.5l-4.3,2.6c-0.3-0.7-0.5-1.3-0.5-1.9c0-1.3,0.6-2.4,1.8-3.4s2.6-1.8,4.3-2.3s3.2-0.8,4.5-0.8
		c1.7,0,3.2,0.4,4.3,1.1c1.2,0.8,1.8,2,1.8,3.7c0,0.7-0.1,2.3-0.2,4.8c-0.2,2.5-0.3,5.2-0.4,8.3c0,2,0.4,3,1.1,3
		C-18.7,430.1-17.4,429.1-15.7,427.2z M-24.1,422c-3,0.2-5.4,0.6-7.1,1.2s-2.5,1.8-2.5,3.6c0,1.1,0.3,2,0.9,2.8
		c0.6,0.8,1.4,1.2,2.5,1.2c1.6,0,3-0.7,4.3-2C-24.7,427.5-24.1,425.3-24.1,422z"/>
	<path class="st0" d="M-16.8,411.6v-1.3c4.2-0.2,7.3-0.7,9.4-1.7c-0.4,1.7-0.6,3.3-0.8,4.9c2.1-1.7,3.9-2.9,5.3-3.5
		c1.4-0.6,2.7-0.9,3.9-0.9c1.7,0,3.2,0.5,4.5,1.4c1.3,1,2.3,2.3,2.9,3.9c0.6,1.6,1,3.4,1,5.3c0,2-0.4,3.7-1.2,5.3s-1.9,2.9-3.4,4
		c-1.4,1.1-3.1,1.9-4.9,2.5c-1.8,0.6-3.7,0.9-5.7,0.9c-0.4,0-1.1,0-2-0.1v4c0,2.1,0.2,3.8,0.5,5.2s1.1,2,2.3,2h2.3v1.3h-3.4
		c-0.3,0-1-0.1-2.1-0.2h-2.6c-1.1,0.1-1.8,0.2-2.1,0.2h-2.3v-1.3h1.3c1.2,0,1.9-0.7,2.2-2.1c0.3-1.4,0.5-3.1,0.5-5.2v-16.6
		c0-2.3-0.1-4.1-0.3-5.2s-0.5-1.9-1.1-2.2c-0.5-0.4-1.4-0.6-2.6-0.6C-15.2,411.6-16.8,411.6-16.8,411.6z M-7.7,414.6v15.9
		c1.1,0.5,2.5,0.8,4.1,0.8c1.8,0,3.4-0.5,4.8-1.6c1.4-1.1,2.4-2.4,3.2-4.1c0.7-1.7,1.1-3.4,1.1-5.2c0-1.8-0.4-3.4-1.1-4.7
		c-0.8-1.3-1.7-2.3-2.9-3c-1.2-0.7-2.3-1-3.5-1c-0.9,0-1.9,0.3-3,0.8C-6,413-6.9,413.7-7.7,414.6z"/>
	<path class="st0" d="M10.9,411v-1.3h2.5c0.3,0,0.9,0.1,2,0.2h2.5c1-0.1,1.6-0.2,1.9-0.2h1.9v1.3c-1.2,0-2,0.2-2.5,0.7
		s-0.8,1-0.8,1.6c-0.1,0.6-0.1,1.8-0.2,3.7v5.8c0,1,0.1,2,0.1,3s0.2,1.9,0.3,2.6c0.1,0.7,0.5,1.2,1,1.6s1.2,0.6,2,0.6v1.3h-1.7
		c-0.4,0-1-0.1-2-0.2h-2.8c-1,0.1-1.6,0.2-2,0.2h-2.3v-1.3c0.4,0.1,0.7,0.2,1.1,0.2c1.3,0,2.1-0.7,2.4-2c0.3-1.3,0.5-3.3,0.5-5.9
		v-5.8c0-2.2-0.2-3.8-0.5-4.8s-1-1.5-2-1.5C12,410.7,11.5,410.8,10.9,411z M36.6,429.7v1.4c-1.3,0.9-2.7,1.3-4.2,1.3
		c-0.6,0-1.2-0.2-1.8-0.5c-0.6-0.3-1.1-0.8-1.7-1.3c-0.5-0.6-1.1-1.2-1.6-1.9c-0.5-0.7-1-1.3-1.4-1.9c-1-1.4-1.9-2.5-2.7-3.5
		s-1.9-1.9-3.1-2.9c0.8-0.7,1.4-1.3,1.8-1.6c2.4-2.3,4.1-3.9,4.9-4.9c0.8-1,1.2-1.7,1.2-2.1c0-0.2-0.1-0.4-0.4-0.6
		c-0.3-0.2-0.7-0.3-1.2-0.3v-1.3c0.4,0,0.7,0,1,0s0.6,0.1,0.8,0.1c0.3,0.1,0.5,0.1,0.8,0.1h1.5c0.5-0.1,0.9-0.1,1.2-0.1
		s0.7-0.1,1.1-0.1s0.7-0.1,1-0.1h1.4v1.3c-1.3,0-2.5,0.3-3.5,0.9c-1.1,0.6-2.4,1.7-4,3.3c-1.8,1.7-3.4,3.2-4.8,4.4
		c1.2,0.4,2.4,1.1,3.4,2c1.1,1,2.3,2.5,3.8,4.7c1.1,1.6,1.9,2.7,2.5,3.3c0.6,0.7,1.2,1,1.7,1C35.4,430.6,36.2,430.3,36.6,429.7z"/>
</g>
</svg>
