<?xml version="1.0" encoding="utf-8"?>
<!-- Generator: Adobe Illustrator 19.1.0, SVG Export Plug-In . SVG Version: 6.00 Build 0)  -->
<svg version="1.2" baseProfile="tiny" id="Layer_1" xmlns="http://www.w3.org/2000/svg" xmlns:xlink="http://www.w3.org/1999/xlink"
	 x="0px" y="0px" width="18.5px" height="45.4px" viewBox="0 0 18.5 45.4" xml:space="preserve">
<g>
	<path fill="#FFCC00" d="M10.3,10.8c0.1-1.1,0.4-1.4,0.7-1.7c0.7-0.6,1.3-1.3,1.3-3.5c0-1.7-0.8-2.4-1.3-2.9
		c-0.5-0.4-0.7-0.6-0.7-1.7c0-0.6-0.4-1-1-1s-1,0.4-1,1c0,2,0.8,2.7,1.4,3.2c0.4,0.4,0.7,0.6,0.7,1.4c0,1.4-0.3,1.6-0.6,2
		C9,8.2,8.4,8.9,8.3,10.8C3.6,11.3,0,15.2,0,20v7.7c0,3.3,1.8,6.3,4.6,8C5.1,36,5.7,35.8,6,35.3c0.3-0.5,0.1-1.1-0.4-1.4
		C3.4,32.7,2,30.3,2,27.7V20c0-4,3.3-7.3,7.3-7.3c4,0,7.3,3.3,7.3,7.3v7.7c0,2.7-1.6,5.3-4.1,6.5c-0.5,0.2-0.7,0.8-0.5,1.3
		c0.2,0.4,0.5,0.6,0.9,0.6c0.1,0,0.3,0,0.4-0.1c3.2-1.6,5.2-4.8,5.2-8.3V20C18.5,15.3,14.9,11.3,10.3,10.8z"/>
	<path fill="#FFCC00" d="M9,21.4c0.6,0,1-0.4,1-1v-3.3c0-0.6-0.4-1-1-1s-1,0.4-1,1v3.3C8,20.9,8.5,21.4,9,21.4z"/>
	<path fill="#FFCC00" d="M10.6,41.4L10,42v-13c0-0.6-0.4-1-1-1s-1,0.4-1,1v13l-0.6-0.6C7,41,6.4,41,6,41.4c-0.4,0.4-0.4,1,0,1.4
		l2.3,2.3c0.2,0.2,0.5,0.3,0.7,0.3s0.5-0.1,0.7-0.3l2.3-2.3c0.4-0.4,0.4-1,0-1.4S11,41,10.6,41.4z"/>
</g>
</svg>
