<?xml version="1.0" encoding="utf-8"?>
<!-- Generator: Adobe Illustrator 19.1.0, SVG Export Plug-In . SVG Version: 6.00 Build 0)  -->
<svg version="1.2" baseProfile="tiny" id="Layer_1" xmlns="http://www.w3.org/2000/svg" xmlns:xlink="http://www.w3.org/1999/xlink"
	 x="0px" y="0px" width="19.4px" height="19.4px" viewBox="0 0 19.4 19.4" xml:space="preserve">
<path fill="#FFFFFF" d="M19.1,17.7L14,12.6c1.1-1.4,1.6-3,1.6-4.8c0-2.1-0.8-4.1-2.3-5.5c-3.1-3.1-8-3.1-11.1,0C0.8,3.8,0,5.7,0,7.8
	c0,2.1,0.8,4.1,2.3,5.5s3.4,2.3,5.5,2.3c1.8,0,3.4-0.6,4.8-1.6l5.1,5.1c0.2,0.2,0.5,0.3,0.7,0.3s0.5-0.1,0.7-0.3
	C19.5,18.8,19.5,18.1,19.1,17.7z M3.7,12C2.6,10.9,2,9.4,2,7.8c0-1.6,0.6-3,1.7-4.1C4.8,2.6,6.3,2,7.8,2c1.5,0,3,0.6,4.1,1.7
	c1.1,1.1,1.7,2.6,1.7,4.1c0,1.6-0.6,3-1.7,4.1s-2.6,1.7-4.1,1.7C6.3,13.7,4.8,13.1,3.7,12z"/>
</svg>
