<?xml version="1.0" encoding="utf-8"?>
<!-- Generator: Adobe Illustrator 19.1.0, SVG Export Plug-In . SVG Version: 6.00 Build 0)  -->
<svg version="1.2" baseProfile="tiny" id="Layer_1" xmlns="http://www.w3.org/2000/svg" xmlns:xlink="http://www.w3.org/1999/xlink"
	 x="0px" y="0px" width="19px" height="21.5px" viewBox="0 0 19 21.5" xml:space="preserve">
<path fill="#50882E" d="M15.1,13.6c-1,0-1.9,0.4-2.6,1l-4.8-3c0.1-0.3,0.1-0.6,0.1-0.9c0-0.3,0-0.6-0.1-0.8l4.8-3.2
	c0.7,0.7,1.6,1.1,2.7,1.1c2.2,0,3.9-1.8,3.9-3.9S17.3,0,15.1,0s-3.9,1.8-3.9,3.9c0,0.4,0.1,0.8,0.2,1.1L6.8,8.1
	C6.1,7.3,5,6.8,3.9,6.8C1.8,6.8,0,8.6,0,10.7s1.8,3.9,3.9,3.9c1.1,0,2.1-0.5,2.8-1.2l4.7,3c-0.1,0.4-0.2,0.8-0.2,1.2
	c0,2.2,1.8,3.9,3.9,3.9s3.9-1.8,3.9-3.9S17.3,13.6,15.1,13.6z M15.1,2c1,0,1.9,0.9,1.9,1.9s-0.9,1.9-1.9,1.9S13.2,5,13.2,3.9
	S14.1,2,15.1,2z M3.9,12.6c-1,0-1.9-0.9-1.9-1.9s0.9-1.9,1.9-1.9s1.9,0.9,1.9,1.9S5,12.6,3.9,12.6z M15.1,19.5c-1,0-1.9-0.9-1.9-1.9
	s0.9-1.9,1.9-1.9s1.9,0.9,1.9,1.9S16.2,19.5,15.1,19.5z"/>
</svg>
