<?xml version="1.0" encoding="utf-8"?>
<!-- Generator: Adobe Illustrator 19.1.0, SVG Export Plug-In . SVG Version: 6.00 Build 0)  -->
<svg version="1.2" baseProfile="tiny" id="Layer_1" xmlns="http://www.w3.org/2000/svg" xmlns:xlink="http://www.w3.org/1999/xlink"
	 x="0px" y="0px" width="6.6px" height="11.4px" viewBox="0 0 6.6 11.4" xml:space="preserve">
<path fill="#FFCC00" d="M6.3,2.6L4,0.3c-0.4-0.4-1-0.4-1.4,0L0.3,2.6c-0.4,0.4-0.4,1,0,1.4C0.5,4.2,0.7,4.3,1,4.3S1.5,4.2,1.7,4
	l0.6-0.6v7c0,0.6,0.4,1,1,1s1-0.4,1-1v-7L4.9,4c0.2,0.2,0.5,0.3,0.7,0.3S6.2,4.2,6.3,4C6.7,3.6,6.7,3,6.3,2.6z"/>
</svg>
