<?xml version="1.0" encoding="utf-8"?>
<!-- Generator: Adobe Illustrator 19.1.0, SVG Export Plug-In . SVG Version: 6.00 Build 0)  -->
<svg version="1.2" baseProfile="tiny" id="Layer_1" xmlns="http://www.w3.org/2000/svg" xmlns:xlink="http://www.w3.org/1999/xlink"
	 x="0px" y="0px" width="27.2px" height="16.6px" viewBox="0 0 27.2 16.6" xml:space="preserve">
<g>
	<path fill="#FFCC00" d="M21.5,16.6c-1,0-1.8-0.4-2.6-1.2c-0.6-0.6-1.3-1.3-2-2c0,0.2,0,0.3,0,0.5c0,0.3,0,0.6-0.1,0.9
		c-0.2,1.1-0.9,1.8-2.1,1.8c-0.4,0-0.7,0-1.1,0c-0.6,0-1.3,0-2-0.1c-0.9-0.1-1.7-0.4-2.2-0.9C8,14.4,6.9,13.4,6,12.4
		C4,10.1,2.2,7.5,0.7,4.7l0,0C0.2,3.6-0.3,2.5,0.2,1.6c0.5-0.9,1.7-1,2.9-1c0.1,0,0.3,0,0.4,0c0.2,0,0.4,0,0.6,0
		c2.2-0.4,3.1,1.3,3.4,1.9c0.6,1.1,1.2,2.1,2,3.2c0-0.4,0-0.9,0-1.3l0-0.8c-0.5-0.1-0.8-0.4-1-0.7C8.3,2.5,8.3,2,8.4,1.5
		c0.2-0.6,0.8-1.3,1.5-1.4C10.6,0,11.2,0,11.7,0l0.5,0l0.2,0c0.7,0,1.5,0,2.3,0c1.4,0.1,2.2,0.8,2.2,2.3c0,0.6,0,1.2,0,1.8l0,0.7
		c0,0,0,0.1,0,0.1l0,0.7c0,0.1,0,0.3,0,0.4c0.2-0.2,0.3-0.5,0.5-0.7c0.4-0.8,0.7-1.6,1.1-2.4l0.4-0.9c0.4-0.9,1.1-1.3,2-1.3
		c0.7,0,1.5,0,2.2,0c0.6,0,1.1,0,1.7,0c1.2,0,1.8,0.5,2.1,1c0.3,0.4,0.5,1.1,0,2.2c-0.3,0.8-0.8,1.4-1.3,2.1l-0.2,0.3
		c-0.6,0.9-1.3,1.9-2.2,3c0,0,0,0,0,0c1.1,1.2,2.1,2.3,3.2,3.5c0.3,0.4,1.2,1.4,0.5,2.7c-0.6,1.3-1.9,1.2-2.4,1.2l-0.7,0
		c-0.8,0-1.5,0-2.2,0C21.7,16.6,21.6,16.6,21.5,16.6z M16.5,11.1c0.6,0,1.1,0.3,1.4,0.6c0.9,0.8,1.7,1.6,2.4,2.4
		c0.4,0.4,0.8,0.6,1.3,0.5c0.8-0.1,1.6,0,2.4,0l0.6,0c0.5,0,0.5-0.1,0.6-0.2c0-0.1,0-0.2-0.3-0.4c-1-1.2-2.1-2.3-3.1-3.5
		c-1-1.1-0.5-2.1-0.2-2.6c0.8-1.1,1.5-2,2.2-2.9L24,4.7c0.4-0.6,0.8-1.1,1.1-1.7c0.1-0.1,0.1-0.2,0.1-0.3c-0.1,0-0.2,0-0.4,0
		c-0.6,0-1.1,0-1.7,0c-0.8,0-1.5,0-2.3,0c0,0-0.1,0-0.1,0c0,0,0,0,0,0.1l-0.4,0.8c-0.4,0.9-0.7,1.7-1.2,2.6
		c-0.4,0.8-0.9,1.5-1.5,2.1l-0.1,0.1C17.2,8.8,16.5,9,16,8.9c-0.8-0.1-1-1-1.1-1.6c0-0.6,0-1.2,0-1.8l0-0.6c0,0,0-0.1,0-0.1l0-0.8
		c0-0.6,0-1.1,0-1.7c0-0.2,0-0.3,0-0.3c0,0-0.1,0-0.3,0c-0.7,0-1.4,0-2.2,0l-0.2,0l-0.5,0c-0.3,0-0.5,0-0.8,0
		c0.3,0.3,0.6,0.7,0.6,1.5l0,0.9c0,0.9,0,1.8,0,2.7c0,0.4-0.1,0.7-0.3,1c0,0.1-0.1,0.1-0.1,0.2c-0.1,0.3-0.3,0.5-0.6,0.6
		C10.3,9,10,9,9.7,8.8c-0.1,0-0.1-0.1-0.2-0.1C9.3,8.6,8.9,8.4,8.6,8C7.6,6.4,6.7,5,5.9,3.5C5.4,2.6,5,2.5,4.5,2.6
		c-0.4,0.1-0.7,0-1,0c-0.1,0-0.3,0-0.4,0c-0.5,0-0.9,0-1,0.1c0.1,0.2,0.2,0.5,0.5,1.1l0,0c1.4,2.6,3.1,5.1,5,7.3
		c0.8,0.9,1.8,1.9,3.2,3c0.3,0.2,0.7,0.4,1.2,0.4c0.5,0.1,1.1,0.1,1.7,0c0.4,0,0.8,0,1.2,0c0,0,0,0,0,0c0,0,0,0,0-0.1
		c0-0.2,0.1-0.5,0.1-0.7c0-0.3,0.1-0.7,0.1-1c0.1-0.6,0.4-1.3,1-1.6C16.2,11.1,16.3,11.1,16.5,11.1z"/>
</g>
</svg>
