<?xml version="1.0" encoding="utf-8"?>
<!-- Generator: Adobe Illustrator 19.1.0, SVG Export Plug-In . SVG Version: 6.00 Build 0)  -->
<svg version="1.2" baseProfile="tiny" id="Layer_1" xmlns="http://www.w3.org/2000/svg" xmlns:xlink="http://www.w3.org/1999/xlink"
	 x="0px" y="0px" width="428.1px" height="209px" viewBox="0 0 428.1 209" xml:space="preserve">
<g>
	<g>
		<g>
			<path fill="#50882E" d="M427.4,63.6c0,19.7-11.4,29.6-34.3,29.6h-95.8v59.4h-34.9V0h130.7c22.9,0,34.3,9.9,34.3,29.6V63.6z
				 M393.1,54.7V38.4c0-5.1-1.5-8.5-4.4-10.1c-2.2-1.4-6-2.1-11.5-2.1h-79.8v40.5h79.8c5.5,0,9.4-0.7,11.5-2.1
				C391.6,63.2,393.1,59.8,393.1,54.7z"/>
		</g>
		<polygon fill="#50882E" points="249.4,13.6 217.4,102.3 176,0 151.2,0 110.7,102.3 71.9,0 35.3,0 94.1,152.6 118.6,152.6 
			161.2,47 203.2,152.6 227.1,152.6 249.4,94.8 		"/>
		<polygon fill="#50882E" points="80.3,152.6 21.7,0 2.4,0 60.9,152.6 		"/>
	</g>
	<g>
		<path fill="#50882E" d="M0,179.4h5l8,23.5l8.7-23.5h3l8.4,23.5l8.1-23.5h4.4L35,209h-3.7l-8.2-22.4L14.6,209h-3.9L0,179.4z"/>
		<path fill="#50882E" d="M53.2,184.6h24.5v3.6H57.8v6.3h12v3.6h-12v7.3H78v3.6H53.2V184.6z"/>
		<path fill="#50882E" d="M86.6,184.6h20.6c3.7,0,5.3,1.4,5.3,4.8v2.8c0,2.6-1.3,3.8-4.3,4.2c2.9,0.3,4.4,2,4.4,4.7v3.1
			c0,3.3-2.4,4.8-7.1,4.8h-19V184.6z M107.9,190.2c0-1.6-0.7-2-2.6-2H91.2v6.3h14.1c1.8,0,2.6-0.2,2.6-2V190.2z M91.2,205.4h14.1
			c2,0,2.8-0.6,2.8-2.8v-1.9c0-2.1-0.8-2.8-2.8-2.8H91.2V205.4z"/>
		<path fill="#50882E" d="M120.5,191.6H133v4.2h-12.5V191.6z"/>
		<path fill="#50882E" d="M143.9,179.4h23.9c4.3,0,6.3,1.6,6.3,5.7v6.6c0,4.1-2,5.7-6.3,5.7h-19V209h-4.9V179.4z M148.9,183.2v10.3
			h17c2.2,0,3.2-0.6,3.2-3.1v-4.1c0-2.5-1-3.1-3.2-3.1H148.9z"/>
		<path fill="#50882E" d="M184.1,184.6h19.6c3.6,0,5.1,1.3,5.1,4.7v5.5c0,3.3-1.6,4.7-5.1,4.7h-3.2l10.7,9.5h-6.1l-9.7-9.5h-6.7v9.5
			h-4.6V184.6z M188.7,188.2v7.9h13c2,0,2.6-0.5,2.6-2.5v-2.9c0-2-0.9-2.5-2.6-2.5H188.7z"/>
		<path fill="#50882E" d="M224.8,184.6h17.6c4.7,0,6,1.4,6,5.8v12.8c0,4.5-1.4,5.7-6,5.7h-17.6c-4.7,0-6-1.2-6-5.7v-12.8
			C218.8,186,220.1,184.6,224.8,184.6z M243.7,205.3v-17.1h-20.3v17.1H243.7z"/>
		<path fill="#50882E" d="M263,188.3v17.1h19.2v-6.6h-9.9v-3.3h14.5v7.9c0,4.5-1.4,5.7-6,5.7h-16.5c-4.7,0-6-1.3-6-5.7v-12.8
			c0-4.5,1.4-5.8,6-5.8h16.5c4.3,0,6,1.2,6,5.5v0.7l-4.6,0.8v-3.3H263z"/>
		<path fill="#50882E" d="M297,184.6h19.6c3.6,0,5.1,1.3,5.1,4.7v5.5c0,3.3-1.6,4.7-5.1,4.7h-3.2l10.7,9.5H318l-9.7-9.5h-6.7v9.5
			H297V184.6z M301.6,188.2v7.9h13c2,0,2.6-0.5,2.6-2.5v-2.9c0-2-0.9-2.5-2.6-2.5H301.6z"/>
		<path fill="#50882E" d="M332.2,184.6h24.5v3.6h-19.9v6.3h12v3.6h-12v7.3H357v3.6h-24.8V184.6z"/>
		<path fill="#50882E" d="M370,188.3v6.3h15.6c4.7,0,5.9,1.4,5.9,5.7v2.9c0,4.5-1.3,5.7-5.9,5.7h-14.8c-4.7,0-6-1.3-6-5.7v-0.7
			l4.2-0.9v3.6h18.4v-6.8h-15.7c-4.6,0-5.9-1.3-5.9-5.7v-2.3c0-4.5,1.4-5.8,5.9-5.8h13.6c4.3,0,6,1.1,6,5.3v0.6l-4.2,0.9v-3.2H370z"
			/>
		<path fill="#50882E" d="M406.6,188.3v6.3h15.6c4.7,0,5.9,1.4,5.9,5.7v2.9c0,4.5-1.3,5.7-5.9,5.7h-14.8c-4.7,0-6-1.3-6-5.7v-0.7
			l4.2-0.9v3.6H424v-6.8h-15.7c-4.6,0-5.9-1.3-5.9-5.7v-2.3c0-4.5,1.4-5.8,5.9-5.8h13.6c4.3,0,6,1.1,6,5.3v0.6l-4.2,0.9v-3.2H406.6z
			"/>
	</g>
</g>
</svg>
