<?xml version="1.0" standalone="no"?>
<!DOCTYPE svg PUBLIC "-//W3C//DTD SVG 1.1//EN" "http://www.w3.org/Graphics/SVG/1.1/DTD/svg11.dtd" >
<svg>
<metadata>
Created by FontForge 20090622 at Sat Oct 29 14:24:59 2016
 By deploy user
Part of the digitally encoded machine readable outline data for producing the Typefaces provided is copyrighted &#194;&#169; 2008 Linotype GmbH, www.linotype.com. All rights reserved. This software is the property of Linotype GmbH, and may not be reproduced, used, displayed, modified, disclosed or transferred without the express written approval of Linotype GmbH.  The digitally encoded machine readable software for producing the Typefaces licensed to you is copyrighted (c) 1992 Adobe Systems. All Rights Reserved. This software is the property of Adobe Systems Incorporated and its licensors, and may not be reproduced, used, displayed, modified, disclosed or transferred without the express written approval of Adobe. Linotype Didot is a trademark of Linotype GmbH and may be registered in certain jurisdictions. This typeface is original artwork of Adrian Frutiger and Linotype Design Studio. The design may be protected in certain jurisdictions.
</metadata>
<defs>
<font id="DidotLTsPro-Bold" horiz-adv-x="278" >
  <font-face 
    font-family="Didot LTs Pro Roman"
    font-weight="700"
    font-stretch="normal"
    units-per-em="1000"
    panose-1="0 0 8 0 0 0 0 0 0 0"
    ascent="721"
    descent="-279"
    x-height="429"
    cap-height="714"
    bbox="-161 -400 1059 972"
    underline-thickness="50"
    underline-position="-50"
    unicode-range="U+000D-U+FB04"
  />
<missing-glyph horiz-adv-x="485" 
d="M0 0v680h485v-680h-485zM47 47h391v585h-391v-585zM211 222v16q0 50 11 75.5t46 55.5q28 27 37 44t9 36q0 33 -21 56.5t-51 23.5q-67 0 -77 -90q-8 1 -24 3.5t-24 4.5q7 66 41 98t87 32q52 0 85 -34t33 -90q0 -32 -12.5 -56.5t-47.5 -56.5t-40.5 -47.5t-5.5 -70.5h-46z
M210 111v63h53v-63h-53z" />
    <glyph glyph-name="IJ" unicode="IJ" horiz-adv-x="930" 
d="M39 0v14h92v684h-92v14h329v-14h-92v-684h92v-14h-329zM452 93q0 71 79 71q61 0 61 -48q0 -10 -7 -41t-7 -36q0 -40 44 -40q15 0 24.5 6t13 18t4.5 20.5t1 21.5v633h-92v14h329v-14h-92v-494q0 -28 -1.5 -48.5t-12.5 -55.5t-30.5 -57.5t-59.5 -40t-96 -17.5
q-64 0 -111 25t-47 83z" />
    <glyph glyph-name="ij" unicode="ij" horiz-adv-x="619" 
d="M93 644q0 29 21 50t50 21t50 -21t21 -50t-21 -50t-50 -21t-50 21t-21 50zM36 415v14h189v-415h67v-14h-256v14h67v401h-67zM395 644q0 29 21 50t50 21t50 -21t21 -50t-21 -50t-50 -21t-50 21t-21 50zM405 -212v627h-67v14h189v-472q0 -244 -167 -244q-54 0 -89 23t-35 62
q0 56 56 56q53 0 53 -44q0 -8 -4 -26t-4 -25q0 -9 1 -14.5t8.5 -11.5t22.5 -6q19 0 27.5 12t8.5 49z" />
    <glyph glyph-name="napostrophe" unicode="&#x22;n" horiz-adv-x="630" 
d="M42 0v14h66v401h-66v14h186v-100h2q48 109 167 109q64 0 101.5 -38.5t37.5 -103.5v-282h67v-14h-251v14h62v316q0 81 -63 81q-51 0 -86 -48t-35 -135v-214h63v-14h-251zM17 544l4 133q3 46 39 46q15 0 24.5 -10t9.5 -26q0 -3 -2 -11l-64 -132h-11z" />
    <glyph glyph-name="f_f" unicode="ff" horiz-adv-x="642" 
d="M226 415v-401h55v-14h-243v14h66v401h-66v14h66q0 38 0.5 58.5t4 57t11 58t22 48.5t35 41.5t53 25t73.5 10.5q47 0 85 -21.5t44 -62.5q45 84 166 84q51 0 88 -24.5t37 -72.5q0 -23 -17 -39t-40 -16q-53 0 -53 51q0 5 4 27t4 25q0 17 -12.5 26t-30.5 9q-20 0 -32.5 -9.5
t-17.5 -31t-6 -38.5t-1 -51v-155h83v-14h-83v-401h77v-14h-255v14h56v401h-173zM226 584v-155h173q0 103 11 158q-14 -11 -34 -11q-58 0 -58 51q0 5 4 27t4 25q0 17 -12.5 26t-30.5 9q-20 0 -32.5 -9.5t-17.5 -31t-6 -38.5t-1 -51z" />
    <glyph glyph-name="fi" unicode="fi" horiz-adv-x="623" 
d="M38 0v14h66v401h-66v14h66q0 76 7.5 119t32.5 84q63 96 197 96q38 0 74.5 -8t68 -33.5t31.5 -64.5q0 -26 -17 -40.5t-43 -14.5q-62 0 -62 44q0 17 5.5 38t5.5 30q0 35 -59 35q-119 0 -119 -156v-129h295v-415h67v-14h-250v14h61v401h-173v-401h61v-14h-249z" />
    <glyph glyph-name="fl" unicode="fl" horiz-adv-x="611" 
d="M38 415v14h67q0 107 5 145t29 75q52 79 175 79q28 0 74.5 -8t51.5 -8h74v-698h66v-14h-244v14h56v557q-13 4 -19 6.5t-14.5 12.5t-8.5 24q0 5 7.5 30t7.5 29q0 41 -60 41q-27 0 -43.5 -11.5t-23.5 -35t-9 -43t-2 -50.5v-145h72v-14h-72v-401h55v-14h-244v14h67v401h-67z
" />
    <glyph glyph-name="f_f_i" unicode="ffi" horiz-adv-x="914" 
d="M636 728q38 0 74.5 -8t68 -33.5t31.5 -64.5q0 -26 -17 -40.5t-43 -14.5q-62 0 -62 44q0 17 5.5 38t5.5 30q0 35 -59 35q-119 0 -119 -156v-129h295v-415h67v-14h-250v14h61v401h-173v-401h61v-14h-239v14h56v401h-173v-401h55v-14h-243v14h66v401h-66v14h66
q0 38 0.5 58.5t4 57t11 58t22 48.5t35 41.5t53 25t73.5 10.5q52 0 87.5 -23t41.5 -66q66 89 204 89zM226 584v-155h173q0 103 11 158q-14 -11 -34 -11q-58 0 -58 51q0 5 4 27t4 25q0 17 -12.5 26t-30.5 9q-20 0 -32.5 -9.5t-17.5 -31t-6 -38.5t-1 -51z" />
    <glyph glyph-name="f_f_l" unicode="ffl" horiz-adv-x="897" 
d="M598 728q28 0 76 -8t52 -8h74v-698h66v-14h-244v14h56v557q-16 2 -29 12t-13 31q0 5 7.5 30t7.5 29q0 41 -60 41q-27 0 -43.5 -11.5t-23.5 -35t-9 -43t-2 -50.5v-145h72v-14h-72v-401h55v-14h-225v14h56v401h-173v-401h55v-14h-243v14h66v401h-66v14h66q0 38 0.5 58.5
t4 57t11 58t22 48.5t35 41.5t53 25t73.5 10.5q47 0 85 -21.5t44 -62.5q45 84 166 84zM226 584v-155h173q0 103 11 158q-14 -11 -34 -11q-58 0 -58 51q0 5 4 27t4 25q0 17 -12.5 26t-30.5 9q-20 0 -32.5 -9.5t-17.5 -31t-6 -38.5t-1 -51z" />
    <glyph glyph-name=".notdef" horiz-adv-x="485" 
d="M0 0v680h485v-680h-485zM47 47h391v585h-391v-585zM211 222v16q0 50 11 75.5t46 55.5q28 27 37 44t9 36q0 33 -21 56.5t-51 23.5q-67 0 -77 -90q-8 1 -24 3.5t-24 4.5q7 66 41 98t87 32q52 0 85 -34t33 -90q0 -32 -12.5 -56.5t-47.5 -56.5t-40.5 -47.5t-5.5 -70.5h-46z
M210 111v63h53v-63h-53z" />
    <glyph glyph-name=".null" horiz-adv-x="500" 
 />
    <glyph glyph-name="nonmarkingreturn" horiz-adv-x="333" 
 />
    <glyph glyph-name="CR" unicode="&#xd;" horiz-adv-x="0" 
 />
    <glyph glyph-name="space" unicode=" " 
 />
    <glyph glyph-name="exclam" unicode="!" horiz-adv-x="296" 
d="M138 201l-48 397q-7 58 -7 62q0 30 18 49t47 19t47 -19t18 -49q0 -4 -7 -62l-48 -397h-20zM77 61q0 29 21 50t50 21t50 -21t21 -50t-21 -50t-50 -21t-50 21t-21 50z" />
    <glyph glyph-name="quotedbl" unicode="&#x22;" horiz-adv-x="370" 
d="M250 424l-26 213q-4 28 -4 42q0 49 39 49t39 -49q0 -14 -4 -42l-26 -213h-18zM102 424l-26 213q-4 28 -4 42q0 49 39 49t39 -49q0 -14 -4 -42l-26 -213h-18z" />
    <glyph glyph-name="numbersign" unicode="#" horiz-adv-x="556" 
d="M43 0l86 237h-133l7 18h133l72 198h-133l7 18h133l87 241h21l-87 -241h169l87 241h21l-87 -241h133l-7 -18h-133l-72 -198h133l-7 -18h-133l-86 -237h-21l86 237h-169l-86 -237h-21zM157 255h169l72 198h-169z" />
    <glyph glyph-name="dollar" unicode="$" horiz-adv-x="630" 
d="M56 0v222h14q19 -102 81 -163q61 -60 145 -60v307q-42 13 -66.5 21.5t-59 27t-53.5 38.5t-33 53.5t-14 75.5q0 79 64 139.5t162 66.5v59h17v-59q50 -1 100.5 -19t59.5 -18q13 0 18 4t10 17h17v-190h-14q-13 38 -20 56t-23.5 49t-34 46t-47 27.5t-66.5 13.5v-259
q118 -36 159 -60q102 -57 102 -167q0 -97 -73 -167t-188 -76v-70h-17v70q-47 1 -117 19.5t-77 18.5q-13 0 -19.5 -4.5t-11.5 -18.5h-15zM296 459v255q-69 -4 -110 -42t-41 -83q0 -51 39 -80.5t112 -49.5zM313 -1q47 1 82.5 18t53 42.5t25.5 49t8 45.5q0 62 -42.5 92.5
t-126.5 55.5v-303z" />
    <glyph glyph-name="percent" unicode="%" horiz-adv-x="778" 
d="M191 -5l376 733l20 -9l-376 -733zM217 406q-66 0 -119 46.5t-53 114.5t53 114.5t119 46.5t119 -46.5t53 -114.5t-53 -114.5t-119 -46.5zM217 420q22 0 37 8t22.5 18t11.5 33t4.5 39t0.5 49t-0.5 49t-4.5 39t-11.5 33t-22.5 18t-37 8t-37 -8t-22.5 -18t-11.5 -33t-4.5 -39
t-0.5 -49t0.5 -49t4.5 -39t11.5 -33t22.5 -18t37 -8zM389 147q0 68 53 114.5t119 46.5t119 -46.5t53 -114.5t-53 -114.5t-119 -46.5t-119 46.5t-53 114.5zM485 147q0 -33 0.5 -49t4.5 -39t11.5 -33t22.5 -18t37 -8t37 8t22.5 18t11.5 33t4.5 39t0.5 49t-0.5 49t-4.5 39
t-11.5 33t-22.5 18t-37 8t-37 -8t-22.5 -18t-11.5 -33t-4.5 -39t-0.5 -49z" />
    <glyph glyph-name="ampersand" unicode="&#x26;" horiz-adv-x="796" 
d="M73 204q0 44 16.5 81.5t51 69.5t58.5 49.5t68 44.5q-32 85 -32 119q0 61 46.5 110.5t102.5 49.5q41 0 67.5 -25t26.5 -77q0 -76 -87 -133l168 -329q44 63 44 195q0 79 -24 105t-80 26v14h202v-14q-35 -6 -48.5 -13t-23 -33t-11.5 -82q-6 -149 -51 -214l46 -81
q16 -29 42 -29q18 0 29.5 17.5t14.5 32t3 24.5q0 8 -3 18h14q3 -9 3 -16q0 -8 -1 -18t-8 -31.5t-19.5 -37.5t-39 -29t-62.5 -13q-39 0 -63 15.5t-47 44.5q-26 -21 -41 -30.5t-47.5 -19.5t-72.5 -10q-58 0 -102.5 16.5t-70 40.5t-42 55.5t-22 57.5t-5.5 49zM385 505
q80 53 80 119q0 36 -17 63t-50 27q-7 0 -14 -1.5t-20.5 -7t-22 -21.5t-8.5 -40q0 -50 52 -139zM189 308q0 -40 25 -108.5t70.5 -128t90.5 -59.5q38 0 95 45q-15 22 -26 44l-150 291q-4 9 -12 25.5l-10 20.5q-34 -26 -48 -39.5t-24.5 -36t-10.5 -54.5z" />
    <glyph glyph-name="quotesingle" unicode="'" 
d="M130 424l-26 213q-4 28 -4 42q0 49 39 49t39 -49q0 -14 -4 -42l-26 -213h-18z" />
    <glyph glyph-name="parenleft" unicode="(" horiz-adv-x="288" 
d="M302 -252l-14 -12q-109 79 -168.5 206t-59.5 285t59.5 285t168.5 206l14 -12q-44 -29 -70.5 -74.5t-44 -146t-17.5 -258.5t17.5 -258.5t44 -146t70.5 -74.5z" />
    <glyph glyph-name="parenright" unicode=")" horiz-adv-x="288" 
d="M226 227q0 -158 -59.5 -285t-168.5 -206l-14 12q67 44 99.5 146t32.5 333t-32.5 333t-99.5 146l14 12q109 -79 168.5 -206t59.5 -285z" />
    <glyph glyph-name="asterisk" unicode="*" horiz-adv-x="482" 
d="M241 302q-21 0 -37 15t-16 34q0 15 23 71q24 58 27 89q-48 -44 -64 -68q-27 -38 -40.5 -50t-31.5 -12q-24 0 -39.5 15.5t-15.5 37.5q0 23 14.5 36t28 16t42.5 6q41 4 104 21q-47 19 -128 27q-60 7 -60 55q0 23 16 38.5t35 15.5q26 0 42.5 -17t41.5 -52.5t56 -60.5
q-4 31 -28 89q-23 56 -23 71q0 19 16 34t37 15t37 -15t16 -34q0 -15 -23 -71q-24 -58 -28 -89q31 25 56 60.5t41.5 52.5t42.5 17q19 0 35 -15.5t16 -38.5q0 -48 -60 -55q-80 -8 -129 -25v-2q63 -17 104 -21q29 -3 42.5 -6t28 -16t14.5 -36q0 -22 -16 -37.5t-39 -15.5
q-18 0 -31.5 12t-40.5 50q-16 24 -64 68q4 -31 28 -89q23 -56 23 -71q0 -19 -16 -34t-37 -15z" />
    <glyph glyph-name="plus" unicode="+" horiz-adv-x="650" 
d="M76 238v58h218v212h62v-212h218v-58h-218v-214h-62v214h-218z" />
    <glyph glyph-name="comma" unicode="," 
d="M55 61q0 35 23 53t53 18q40 0 66 -32t26 -87q0 -30 -10 -57t-22.5 -45.5t-35.5 -38t-36.5 -29t-37.5 -24.5l-7 13q56 39 81.5 66.5t25.5 60.5q0 28 -15 41q-15 -10 -42 -10q-25 0 -47 18t-22 53z" />
    <glyph glyph-name="hyphen" unicode="-" horiz-adv-x="370" 
d="M91 166v98h188v-98h-188z" />
    <glyph glyph-name="period" unicode="." 
d="M68 61q0 29 21 50t50 21t50 -21t21 -50t-21 -50t-50 -21t-50 21t-21 50z" />
    <glyph glyph-name="slash" unicode="/" horiz-adv-x="296" 
d="M3 0l270 718l20 -6l-270 -718z" />
    <glyph glyph-name="zero" unicode="0" horiz-adv-x="556" 
d="M278 -14q-50 0 -90 17.5t-65 42.5t-43 63.5t-26.5 69.5t-13.5 72.5t-5.5 60.5t-0.5 45q0 29 3 61t11 77t25.5 83.5t43 73.5t67.5 55.5t94 20.5q50 0 90 -17.5t65 -42.5t43 -63.5t26.5 -69.5t13.5 -72.5t5.5 -60.5t0.5 -45q0 -29 -3 -61t-11 -77t-25.5 -83.5t-43 -73.5
t-67.5 -55.5t-94 -20.5zM278 0q26 0 44 8t30 29.5t19 45.5t10.5 70.5t4.5 89t1 114.5q0 56 -0.5 91.5t-2 75t-4.5 63t-8.5 47.5t-13.5 37t-19.5 24t-26.5 15t-34 4q-26 0 -44 -8t-30 -29.5t-19 -45.5t-10.5 -70.5t-4.5 -89t-1 -114.5t1 -114.5t4.5 -89t10.5 -70.5t19 -45.5
t30 -29.5t44 -8z" />
    <glyph glyph-name="one" unicode="1" horiz-adv-x="556" 
d="M142 0v14h94v623l-131 -74l-8 13l29.5 17t28 16t24.5 14t24.5 15l21 14t22.5 16l21.5 17l24.5 20.5l25 22.5h40v-714h92v-14h-308z" />
    <glyph glyph-name="two" unicode="2" horiz-adv-x="556" 
d="M30 0v14l6 5l80.5 77.5l64 64t54.5 60t39 53.5t32 57t18.5 56.5t13 67t2.5 75.5q0 92 -17.5 138t-70.5 46q-82 0 -82 -78q0 -4 3 -28t3 -28q0 -44 -57 -44q-61 0 -61 51q0 46 53.5 93.5t153.5 47.5q105 0 157.5 -56t52.5 -138q0 -100 -106 -210l-72 -74l-148 -146h220
q97 0 103 101h14v-205h-456z" />
    <glyph glyph-name="three" unicode="3" horiz-adv-x="556" 
d="M20 142l16 5q4 -22 15 -45t30.5 -47t54 -39.5t77.5 -15.5q47 0 78 17t46 50t20.5 68t5.5 83q0 31 -1 48t-7.5 46t-19.5 45t-39 28.5t-63 12.5q-57 0 -120 -40l-8 14q46 29 130 45q16 3 25 6t28 14.5t30 28t20 48.5t9 74q0 126 -96 126q-30 0 -50 -13.5t-20 -41.5
q0 -5 4 -31t4 -30q0 -22 -12 -33t-22.5 -12.5t-28.5 -1.5q-22 0 -38.5 11.5t-16.5 36.5q0 59 53.5 94t142.5 35q61 0 105.5 -15.5t65.5 -40t30 -47t9 -44.5q0 -37 -16.5 -65.5t-49 -48t-66.5 -32t-85 -24.5v-2q238 -38 238 -201q0 -38 -16.5 -75.5t-48 -71t-85.5 -54.5
t-121 -21q-171 0 -207 156z" />
    <glyph glyph-name="four" unicode="4" horiz-adv-x="556" 
d="M31 159q23 70 90.5 217.5t125.5 243.5q24 39 42 62t34.5 32.5t26 11.5t28.5 2q57 0 57 -32q0 -16 -21 -34q-69 -58 -188 -208.5t-176 -280.5h264v256h122v-256h89v-14h-89v-145h89v-14h-299v14h88v145h-283z" />
    <glyph glyph-name="five" unicode="5" horiz-adv-x="556" 
d="M46 97q0 56 61 56t61 -44q0 -3 -2.5 -23t-2.5 -24q0 -34 19 -48t41 -14t34.5 1.5t32.5 13.5t31.5 34.5t20 67.5t8.5 109q0 63 -9 104.5t-27 61.5t-37 27t-47 7q-13 0 -25 -2.5t-21 -5.5t-18.5 -10l-16 -11.5t-14.5 -15t-11.5 -14.5t-10.5 -16t-8.5 -15t-7.5 -16l-6 -12
h-13l67 413h30q14 -14 34.5 -28t59.5 -29.5t76 -15.5q78 0 128 70l13 -6q-73 -102 -106.5 -132t-87.5 -30q-42 0 -152 44l-36 -219l2 -2q21 25 34.5 37t43 22.5t71.5 10.5q96 0 163 -58.5t67 -150.5q0 -57 -29 -112.5t-89.5 -95.5t-138.5 -40q-77 0 -129.5 33t-52.5 78z" />
    <glyph glyph-name="six" unicode="6" horiz-adv-x="556" 
d="M285 -14q-110 0 -181.5 84t-71.5 230q0 112 41.5 210.5t115.5 158t162 59.5q59 0 102 -28t43 -82q0 -59 -60 -59q-59 0 -59 44q0 13 8.5 37t8.5 32q0 7 -2.5 15t-14 17.5t-31.5 9.5q-34 0 -62 -16t-46 -46.5t-31 -61.5t-21.5 -75.5t-12.5 -72.5t-8 -67l2 -2
q14 19 24.5 29.5t39 23t65.5 12.5q92 0 160 -65.5t68 -159.5q0 -91 -73.5 -159t-165.5 -68zM281 0q27 0 43.5 6.5t33 28.5t24 70.5t7.5 125.5q0 97 -23.5 145t-76.5 48q-63 0 -98 -46q-16 -20 -21.5 -43.5t-5.5 -80.5q0 -70 8 -120t19 -75t29 -39.5t30.5 -17t30.5 -2.5z" />
    <glyph glyph-name="seven" unicode="7" horiz-adv-x="556" 
d="M119 26q0 22 20 42l87 81q98 92 159.5 218t79.5 223h-311q-57 0 -67 -76h-14v198h422q0 -63 -28 -181.5t-75 -234.5q-73 -180 -113.5 -245t-93.5 -65q-66 0 -66 40z" />
    <glyph glyph-name="eight" unicode="8" horiz-adv-x="556" 
d="M39 171q0 37 11.5 66t36.5 51t48 36t63 34q-33 18 -51.5 31t-39 34t-30 49t-9.5 65q0 84 64 137.5t158 53.5q78 0 133 -43.5t55 -107.5q0 -96 -134 -157q83 -38 124 -86t41 -116q0 -85 -69.5 -158.5t-173.5 -73.5q-93 0 -160 53.5t-67 131.5zM331 427q13 11 20 20.5
t15 42.5t8 86q0 138 -96 138q-51 0 -83 -35t-32 -86q0 -32 10.5 -56t37.5 -44t49.5 -32t70.5 -34zM148 175q0 -175 118 -175q39 0 67.5 14.5t43.5 38t21.5 48t6.5 49.5q0 59 -25 92.5t-82 63.5l-85 45q-65 -39 -65 -176z" />
    <glyph glyph-name="nine" unicode="9" horiz-adv-x="556" 
d="M61 93q0 62 66 62q52 0 52 -41q0 -9 -6 -35t-6 -34q0 -21 11.5 -31.5t22 -12t28.5 -1.5q45 0 75.5 25t46.5 73.5t22.5 106t6.5 136.5h-2q-42 -65 -126 -65q-92 0 -160 65.5t-68 159.5q0 91 73.5 159t165.5 68q110 0 181.5 -84t71.5 -230q0 -90 -17 -165.5t-51 -135
t-91 -93.5t-131 -34q-91 0 -128 34t-37 73zM259 290q45 0 76.5 24.5t40.5 66.5q5 30 5 79q0 70 -8 120t-18.5 75.5t-27.5 39.5t-29.5 16.5t-30.5 2.5q-23 0 -40.5 -8t-34 -31t-25 -71.5t-8.5 -120.5q0 -102 24.5 -147.5t75.5 -45.5z" />
    <glyph glyph-name="colon" unicode=":" 
d="M139 301q-29 0 -50 21t-21 50t21 50t50 21t50 -21t21 -50t-21 -50t-50 -21zM68 61q0 29 21 50t50 21t50 -21t21 -50t-21 -50t-50 -21t-50 21t-21 50z" />
    <glyph glyph-name="semicolon" unicode=";" 
d="M139 301q-29 0 -50 21t-21 50t21 50t50 21t50 -21t21 -50t-21 -50t-50 -21zM55 61q0 35 23 53t53 18q40 0 66 -32t26 -87q0 -30 -10 -57t-22.5 -45.5t-35.5 -38t-36.5 -29t-37.5 -24.5l-7 13q56 39 81.5 66.5t25.5 60.5q0 28 -15 41q-15 -10 -42 -10q-25 0 -47 18t-22 53
z" />
    <glyph glyph-name="less" unicode="&#x3c;" horiz-adv-x="593" 
d="M12 236v8l568 236v-20l-535 -220l535 -220v-20z" />
    <glyph glyph-name="equal" unicode="=" horiz-adv-x="593" 
d="M56 317v18h480v-18h-480zM56 145v18h480v-18h-480z" />
    <glyph glyph-name="greater" unicode="&#x3e;" horiz-adv-x="593" 
d="M12 0v20l536 220l-536 220v20l568 -236v-8z" />
    <glyph glyph-name="question" unicode="?" horiz-adv-x="439" 
d="M398 516q0 -89 -52.5 -152t-122.5 -63q-38 0 -61 16v-137h-11v169h1q16 -35 71 -35q30 0 40 16q11 11 13 39t2 147q0 80 -6.5 118.5t-24.5 56.5q-19 20 -62 20q-36 0 -57 -23.5t-21 -63.5q0 -22 8 -39.5t8 -34.5q0 -22 -16 -37.5t-44 -15.5q-60 0 -60 65q0 52 59 107
t123 55q93 0 153 -58t60 -150zM216 51q0 -27 -17 -45t-43 -18q-25 0 -42.5 18.5t-17.5 44.5t17.5 44.5t42.5 18.5q26 0 43 -18t17 -45z" />
    <glyph glyph-name="at" unicode="@" horiz-adv-x="833" 
d="M43 338q0 161 122 275.5t294 114.5q148 0 239.5 -84t91.5 -210q0 -105 -62.5 -191t-138.5 -86q-80 0 -88 89q-9 -17 -16.5 -27.5t-22.5 -27t-37.5 -25.5t-50.5 -9q-20 0 -41.5 6.5t-44.5 20.5t-38 43t-15 69q0 96 71 169.5t151 73.5q27 0 45.5 -7.5t28.5 -22.5
t13.5 -22.5t7.5 -21.5l18 63h85l-68 -233q-9 -32 -9 -53q0 -44 44 -44q50 0 98.5 72.5t48.5 161.5q0 115 -83 195.5t-224 80.5q-109 0 -197.5 -54.5t-135.5 -139t-47 -178.5q0 -141 99.5 -235.5t253.5 -94.5q146 0 269 95l13 -17q-129 -98 -288 -98q-163 1 -274.5 99
t-111.5 253zM324 277q0 -94 67 -94q36 0 58.5 25t40.5 69q14 34 29 87t15 80q0 38 -19.5 54t-44.5 16q-59 0 -102.5 -75t-43.5 -162z" />
    <glyph glyph-name="A" unicode="A" horiz-adv-x="759" 
d="M-26 0v14h85l298 726h27l315 -726h86v-14h-336v14h93l-116 268h-240l-111 -268h89v-14h-190zM191 296h230l-118 273z" />
    <glyph glyph-name="B" unicode="B" horiz-adv-x="685" 
d="M35 0v14h92v684h-92v14h151q28 0 83 1.5t83 1.5q43 0 83 -8.5t77 -26.5t59.5 -51.5t22.5 -79.5q0 -40 -21.5 -72t-56 -50t-65 -27.5t-59.5 -13.5v-4q44 -3 82 -13.5t75.5 -30.5t59.5 -57t22 -88q0 -55 -28.5 -95.5t-73.5 -61t-89.5 -30t-86.5 -9.5q-28 0 -83.5 1.5
t-83.5 1.5h-151zM272 389h41q43 0 70.5 11.5t39.5 34t16 44t4 54.5q0 91 -27 129.5t-100 38.5q-7 0 -14 -0.5t-16 -1.5t-14 -1v-309zM272 14q27 -3 58 -3q70 0 104 39.5t34 153.5q0 19 -1.5 35.5t-9.5 43t-21.5 45.5t-41 33t-64.5 14h-58v-361z" />
    <glyph glyph-name="C" unicode="C" horiz-adv-x="722" 
d="M51 354q0 108 58.5 196t143.5 133t172 45q47 0 110 -18.5t75 -18.5q14 0 21 4t10 17h16v-204h-13q-14 43 -27 71.5t-38 63.5t-63.5 53t-89.5 18q-57 0 -96.5 -18.5t-62 -47.5t-34.5 -79t-15.5 -97.5t-3.5 -119.5q0 -202 48 -277.5t164 -75.5q84 0 142.5 62.5t78.5 150.5
h16v-212h-16q-9 21 -33 21q-9 0 -74.5 -18t-114.5 -18q-149 0 -261.5 108.5t-112.5 260.5z" />
    <glyph glyph-name="D" unicode="D" horiz-adv-x="815" 
d="M32 0v14h92v684h-92v14h92q34 0 102 1.5t102 1.5q59 0 115 -8.5t116.5 -33.5t105 -63.5t73.5 -104t29 -149.5t-29 -149.5t-72.5 -103.5t-101.5 -63t-110 -34t-103 -9q-38 0 -113.5 1.5t-113.5 1.5h-92zM269 14q29 -3 53 -3q74 0 128.5 23t83 56t45.5 82t21 87.5t4 86.5
q0 70 -6 120.5t-23.5 97t-47 75t-79 45.5t-117.5 17q-43 0 -62 -3v-684z" />
    <glyph glyph-name="E" unicode="E" horiz-adv-x="722" 
d="M37 0v14h92v684h-92v14h598v-171h-13q-50 157 -189 157h-159v-309h56q69 0 102 37.5t49 111.5h13v-311h-13q-16 70 -46.5 109t-93.5 39h-67v-361h164q88 0 146 56.5t79 148.5h13v-219h-639z" />
    <glyph glyph-name="F" unicode="F" horiz-adv-x="685" 
d="M37 0v14h92v684h-92v14h591v-171h-13q-32 80 -73.5 118.5t-116.5 38.5h-151v-322h56q69 0 102 37.5t49 111.5h13v-311h-13q-16 70 -46.5 109t-93.5 39h-67v-348h93v-14h-330z" />
    <glyph glyph-name="G" unicode="G" horiz-adv-x="778" 
d="M47 354q0 108 58.5 196t143.5 133t172 45q46 0 109.5 -18.5t75.5 -18.5q22 0 31 21h17v-204h-15q-54 207 -217 206q-31 0 -57.5 -6t-46.5 -16.5t-36 -25.5t-27 -33.5t-19.5 -40t-12.5 -44.5t-7.5 -48t-4 -50.5t-1.5 -51t0 -50.5v-24q0 -180 49 -252.5t163 -72.5
q36 0 61 11.5t40 29t23 47t10.5 58t2.5 69.5v38h-103v14h309v-14h-65v-229h-18q-4 23 -33 23q-25 0 -57 -15.5t-75 -30.5t-96 -15q-149 0 -261.5 108.5t-112.5 260.5z" />
    <glyph glyph-name="H" unicode="H" horiz-adv-x="833" 
d="M35 0v14h92v684h-92v14h329v-14h-92v-328h289v328h-92v14h329v-14h-92v-684h92v-14h-329v14h92v342h-289v-342h92v-14h-329z" />
    <glyph glyph-name="I" unicode="I" horiz-adv-x="407" 
d="M39 0v14h92v684h-92v14h329v-14h-92v-684h92v-14h-329z" />
    <glyph glyph-name="J" unicode="J" horiz-adv-x="500" 
d="M22 93q0 71 79 71q61 0 61 -48q0 -10 -7 -41t-7 -36q0 -40 44 -40q15 0 24.5 6t13 18t4.5 20.5t1 21.5v633h-92v14h329v-14h-92v-494q0 -28 -1.5 -48.5t-12.5 -55.5t-30.5 -57.5t-59.5 -40t-96 -17.5q-64 0 -111 25t-47 83z" />
    <glyph glyph-name="K" unicode="K" horiz-adv-x="778" 
d="M42 0v14h92v684h-92v14h329v-14h-92v-320h8l306 320h-101v14h200v-14h-80l-223 -234l346 -450h62v-14h-334v14h90l-266 350h-8v-350h92v-14h-329z" />
    <glyph glyph-name="L" unicode="L" horiz-adv-x="722" 
d="M46 0v14h92v684h-92v14h329v-14h-92v-684h165q73 0 134 51.5t85 160.5h13v-226h-634z" />
    <glyph glyph-name="M" unicode="M" horiz-adv-x="926" 
d="M34 0v14h92v684h-92v14h257l173 -498h2l176 498h250v-14h-92v-684h92v-14h-328v14h91v684h-2l-246 -698h-16l-247 698h-2v-684h92v-14h-200z" />
    <glyph glyph-name="N" unicode="N" horiz-adv-x="741" 
d="M34 0v14h92v684h-92v14h236l333 -476h2v462h-92v14h200v-14h-92v-698h-27l-450 641h-2v-627h92v-14h-200z" />
    <glyph glyph-name="O" unicode="O" horiz-adv-x="833" 
d="M42 354q0 81 34.5 153t89 119.5t120.5 74.5t131 27q94 0 178.5 -44t140 -131t55.5 -196q0 -150 -112 -261t-262 -111t-262.5 108.5t-112.5 260.5zM205 354q0 -138 22.5 -216t67 -108.5t122.5 -30.5q48 0 84 11.5t58.5 37t36.5 54.5t21 75t9 86t2 100q0 41 -1 69t-4 64
t-9 60.5t-16 51.5t-26 44.5t-37.5 32.5t-51 22t-66.5 7q-55 0 -94 -18t-61.5 -47.5t-35.5 -78t-17 -97.5t-4 -119z" />
    <glyph glyph-name="P" unicode="P" horiz-adv-x="648" 
d="M271 339v-325h92v-14h-329v14h92v684h-92v14h92q34 0 102 1.5t102 1.5q51 0 98 -8t94 -27t75.5 -58t28.5 -94q0 -83 -80.5 -136t-233.5 -53h-41zM271 698v-345h31q86 0 123.5 38.5t37.5 130.5q0 91 -34.5 135t-118.5 44q-6 0 -39 -3z" />
    <glyph glyph-name="Q" unicode="Q" horiz-adv-x="833" 
d="M735 -200v-14q-166 8 -219.5 29t-97.5 98q-20 34 -59 78q-132 21 -224.5 124t-92.5 239q0 81 34.5 153t89 119.5t120.5 74.5t131 27q94 0 178.5 -44t140 -131t55.5 -196q0 -150 -112 -261t-262 -111q-19 0 -34 3q20 -21 43.5 -29t85.5 -14q46 -4 72.5 -25t47.5 -60
q22 -39 38 -49.5t65 -10.5zM205 354q0 -138 22.5 -216t67 -108.5t122.5 -30.5q48 0 84 11.5t58.5 37t36.5 54.5t21 75t9 86t2 100q0 41 -1 69t-4 64t-9 60.5t-16 51.5t-26 44.5t-37.5 32.5t-51 22t-66.5 7q-55 0 -94 -18t-61.5 -47.5t-35.5 -78t-17 -97.5t-4 -119z" />
    <glyph glyph-name="R" unicode="R" horiz-adv-x="722" 
d="M127 14v684h-92v14h151q28 0 83 1.5t83 1.5q43 0 83 -8.5t78 -27t61 -53.5t23 -82q0 -73 -58.5 -111t-138.5 -44v-5q50 -9 73 -14t55.5 -18t47.5 -30t27.5 -47t15.5 -72q11 -145 19 -168q13 -26 40 -27q6 0 12.5 2t10.5 3.5t10.5 6.5t8 6.5t8.5 7.5l6 7l10 -9
q-18 -18 -27 -25t-32.5 -14.5t-57.5 -7.5q-42 0 -72 12.5t-45 28.5t-24 44t-11 45t-3 46q-2 43 -4 65t-10 56t-21 50.5t-38 29.5t-61 13h-66v-361h92v-14h-329v14h92zM272 698v-309h41q43 0 70.5 11.5t39.5 34t16 44t4 54.5q0 91 -27 129.5t-100 38.5q-7 0 -14 -0.5
t-16 -1.5t-14 -1z" />
    <glyph glyph-name="S" unicode="S" horiz-adv-x="648" 
d="M63 0v222h15q19 -102 81 -163q28 -28 60 -42t49.5 -16t45.5 -2q49 0 86 16.5t55 42t26.5 50t8.5 46.5q0 35 -17.5 61t-46.5 40t-66 27t-76 23t-76 27t-66 39t-46.5 61t-17.5 90q0 82 69 144t172 62q51 0 102 -18.5t60 -18.5q13 0 18 4t10 17h16v-190h-13l-16.5 47t-18 43
t-25.5 41.5t-32.5 30.5t-45 23t-56.5 7q-75 0 -120 -38.5t-45 -86.5q0 -37 23.5 -64t61.5 -42.5t84 -29.5t91.5 -30.5t83.5 -39t61.5 -62t23.5 -93.5q0 -100 -78 -171.5t-198 -71.5q-48 0 -118.5 19t-77.5 19q-13 0 -19.5 -4.5t-11.5 -18.5h-16z" />
    <glyph glyph-name="T" unicode="T" horiz-adv-x="705" 
d="M280 14v684h-36q-78 0 -121 -35.5t-71 -133.5h-13v183h627v-183h-13q-28 98 -71 133.5t-121 35.5h-36v-684h92v-14h-329v14h92z" />
    <glyph glyph-name="U" unicode="U" horiz-adv-x="778" 
d="M32 698v14h330v-14h-92v-449q0 -44 2.5 -74.5t12 -66.5t26 -57.5t47.5 -36.5t74 -15q44 0 79.5 10t57.5 24.5t38 38t23.5 42t11.5 44.5t4.5 38.5t0.5 31.5v470h-91v14h200v-14h-93v-469q0 -21 -0.5 -34.5t-5 -41.5t-13 -47.5t-26.5 -44t-42.5 -40t-64 -26t-88.5 -10.5
q-75 0 -130.5 14.5t-87 37t-50.5 57t-24.5 66t-5.5 71.5v467h-93z" />
    <glyph glyph-name="V" unicode="V" horiz-adv-x="722" 
d="M-18 698v14h335v-14h-96l207 -542l211 542h-90v14h191v-14h-86l-282 -726h-29l-276 726h-85z" />
    <glyph glyph-name="W" unicode="W" horiz-adv-x="1037" 
d="M-12 698v14h307v-14h-73l180 -527h2l105 298l-78 229h-54v14h299v-14h-93l181 -528h2l185 528h-86v14h184v-14h-81l-257 -726h-29l-164 474h-2l-168 -474h-29l-248 726h-83z" />
    <glyph glyph-name="X" unicode="X" horiz-adv-x="759" 
d="M10 698v14h335v-14h-82l146 -248l156 248h-86v14h181v-14h-78l-164 -262l258 -422h83v-14h-343v14h89l-182 301l-186 -301h90v-14h-190v14h82l195 316l-224 368h-80z" />
    <glyph glyph-name="Y" unicode="Y" horiz-adv-x="704" 
d="M-16 698v14h323v-14h-79l204 -349l184 349h-87v14h191v-14h-87l-193 -367v-317h93v-14h-330v14h92v279l-232 405h-79z" />
    <glyph glyph-name="Z" unicode="Z" horiz-adv-x="685" 
d="M34 0l402 698h-139q-76 0 -117.5 -37.5t-76.5 -115.5h-13v167h518l-404 -698h181q86 0 149.5 51t87.5 161h13v-226h-601z" />
    <glyph glyph-name="bracketleft" unicode="[" horiz-adv-x="259" 
d="M97 -280v992h122v-20h-102v-952h102v-20h-122z" />
    <glyph glyph-name="backslash" unicode="\" horiz-adv-x="296" 
d="M23 718l270 -718l-20 -6l-270 718z" />
    <glyph glyph-name="bracketright" unicode="]" horiz-adv-x="259" 
d="M162 712v-992h-122v20h102v952h-102v20h122z" />
    <glyph glyph-name="asciicircum" unicode="^" horiz-adv-x="593" 
d="M119 305l173 407h9l172 -407h-21l-156 369l-155 -369h-22z" />
    <glyph glyph-name="underscore" unicode="_" horiz-adv-x="500" 
d="M0 -106v31h500v-31h-500z" />
    <glyph glyph-name="grave" unicode="`" 
d="M94 705l88 -176h-13l-141 150q-9 10 -9 27q0 14 11.5 22t21.5 8q26 0 42 -31z" />
    <glyph glyph-name="a" unicode="a" horiz-adv-x="519" 
d="M498 25l9 -9q-20 -30 -90 -30q-93 0 -106 69h-2q-15 -40 -43 -54.5t-82 -14.5q-57 0 -99.5 23.5t-42.5 76.5q0 23 8 41t19 29t31 21.5t34.5 15.5l39.5 13q86 26 108.5 40.5t22.5 50.5v61q0 71 -62 71q-57 0 -57 -49q0 -3 3 -26.5t3 -28.5q0 -41 -61 -41q-58 0 -58 51
q0 50 50.5 79t120.5 29q85 0 134 -31t49 -110v-248q0 -48 33 -48q21 0 38 19zM305 116v132h-2q-3 -12 -27 -24l-21 -10t-22.5 -11t-19 -11t-18.5 -15l-12.5 -18t-10 -24.5t-2.5 -30.5q0 -95 65 -95q29 0 49.5 26.5t20.5 80.5z" />
    <glyph glyph-name="b" unicode="b" horiz-adv-x="593" 
d="M97 14v693h-66v14h188v-362h2q31 84 116 84q55 0 98.5 -22t68.5 -57t38 -73.5t13 -75.5q0 -92 -61.5 -160.5t-156.5 -68.5q-84 0 -118 88h-2v-74h-186v14h66zM219 214q0 -26 1 -45.5t4.5 -47t11.5 -46.5t20.5 -37.5t33 -28t47.5 -9.5q51 0 67 51.5t16 162.5
q0 121 -20 168t-71 47q-110 0 -110 -215z" />
    <glyph glyph-name="c" unicode="c" horiz-adv-x="481" 
d="M35 215q0 52 27.5 103t85.5 88t133 37t122.5 -30.5t47.5 -80.5q0 -60 -65 -60q-62 0 -62 44q0 6 7.5 35t7.5 35q0 20 -17 31.5t-44 11.5q-34 0 -56.5 -16t-33.5 -47t-14.5 -64t-3.5 -81q0 -37 1.5 -63.5t9 -58.5t20.5 -51.5t37 -33.5t57 -14q38 0 68.5 14t46.5 35
t24.5 38t10.5 29l14 -5q-5 -21 -15.5 -39.5t-30 -39.5t-53.5 -33.5t-78 -12.5q-21 0 -46.5 4t-62.5 18.5t-66.5 37.5t-50.5 67t-21 102z" />
    <glyph glyph-name="d" unicode="d" horiz-adv-x="593" 
d="M496 721v-707h66v-14h-186v74h-2q-34 -88 -118 -88q-95 0 -156.5 68.5t-61.5 160.5q0 37 13 75.5t38 73.5t68.5 57t98.5 22q85 0 116 -84h2v348h-68v14h190zM374 214q0 215 -110 215q-51 0 -71 -47t-20 -168q0 -111 16 -162.5t67 -51.5q27 0 47.5 9.5t33 28t20.5 37.5
t11.5 46.5t4.5 47t1 45.5z" />
    <glyph glyph-name="e" unicode="e" horiz-adv-x="500" 
d="M465 251h-295v-45q0 -34 1.5 -58.5t9 -54.5t20.5 -48.5t37.5 -31.5t58.5 -13q37 0 67 14.5t46 35.5t25 38t10 28l14 -5q-13 -48 -56 -86.5t-121 -38.5q-107 0 -177 62.5t-70 167.5q0 88 69 157.5t164 69.5q78 0 137.5 -49t59.5 -143zM170 265h160v67q0 97 -65 97
q-22 0 -38 -6.5t-26 -22t-16 -27.5t-9 -36.5t-4 -35t-2 -36.5z" />
    <glyph glyph-name="f" unicode="f" horiz-adv-x="352" 
d="M38 415v14h66q0 38 0.5 58.5t4 57t11 58t22 48.5t35 41.5t53 25t73.5 10.5q51 0 88 -24.5t37 -72.5q0 -23 -17 -39t-40 -16q-53 0 -53 51q0 5 4 27t4 25q0 17 -12.5 26t-30.5 9q-20 0 -32.5 -9.5t-17.5 -31t-6 -38.5t-1 -51v-155h83v-14h-83v-401h77v-14h-265v14h66v401
h-66z" />
    <glyph glyph-name="g" unicode="g" horiz-adv-x="537" 
d="M176 71h110q191 0 191 -159q0 -82 -65.5 -144.5t-171.5 -62.5q-59 0 -99.5 13.5t-58.5 34.5t-25 39t-7 35q0 49 39.5 81.5t93.5 46.5v2q-32 0 -62.5 8.5t-56.5 34.5t-26 65q0 12 4 27.5t26.5 44t60.5 49.5q-63 47 -63 106q0 64 53.5 107.5t141.5 43.5q74 0 133 -46
q28 26 47.5 36t50.5 10q58 0 58 -52q0 -20 -12 -31.5t-32 -11.5q-38 0 -44 36q-4 24 -10 27q-3 1 -7 1q-11 0 -42 -23q40 -42 40 -97q0 -56 -44.5 -97.5t-135.5 -41.5q-65 0 -122 24q-18 -12 -27 -23t-10.5 -17.5t-1.5 -16.5q0 -49 74 -49zM256 167q39 0 58 25.5t19 102.5
q0 45 -4 70.5t-21.5 44.5t-51.5 19q-80 0 -80 -122q0 -87 20 -113.5t60 -26.5zM140 -157q0 -20 5.5 -39.5t18.5 -38.5t38.5 -31t61.5 -12q58 0 101 39t43 97q0 53 -31 75t-70 22h-104q-33 -26 -48 -50.5t-15 -61.5z" />
    <glyph glyph-name="h" unicode="h" horiz-adv-x="630" 
d="M37 0v14h66v693h-66v14h188v-388h2q6 14 10 20.5t18.5 25.5t30.5 29.5t44 20t62 9.5q64 0 101.5 -38.5t37.5 -103.5v-282h67v-14h-251v14h62v316q0 81 -63 81q-51 0 -86 -48t-35 -135v-214h63v-14h-251z" />
    <glyph glyph-name="i" unicode="i" horiz-adv-x="315" 
d="M93 644q0 29 21 50t50 21t50 -21t21 -50t-21 -50t-50 -21t-50 21t-21 50zM36 415v14h189v-415h67v-14h-256v14h67v401h-67z" />
    <glyph glyph-name="j" unicode="j" horiz-adv-x="333" 
d="M109 644q0 29 21 50t50 21t50 -21t21 -50t-21 -50t-50 -21t-50 21t-21 50zM119 -212v627h-67v14h189v-472q0 -244 -167 -244q-54 0 -89 23t-35 62q0 56 56 56q53 0 53 -44q0 -8 -4 -26t-4 -25q0 -9 1 -14.5t8.5 -11.5t22.5 -6q19 0 27.5 12t8.5 49z" />
    <glyph glyph-name="k" unicode="k" horiz-adv-x="593" 
d="M35 707v14h188v-477h5l186 171h-73v14h157v-14h-64l-112 -106l229 -295h39v-14h-265v14h72l-169 216h-5v-216h62v-14h-250v14h66v693h-66z" />
    <glyph glyph-name="l" unicode="l" horiz-adv-x="315" 
d="M36 707v14h189v-707h67v-14h-256v14h67v693h-67z" />
    <glyph glyph-name="m" unicode="m" horiz-adv-x="889" 
d="M42 415v14h186v-71h2q49 80 139 80q33 0 58 -6.5t40.5 -20t23.5 -24.5t18 -29q45 80 135 80q43 0 74 -12t45.5 -26.5t22.5 -39.5t9 -38.5t1 -34.5v-273h66v-14h-247v14h59v310q0 87 -67 87q-30 0 -62 -27t-32 -75v-295h59v-14h-241v14h60v318q0 41 -17.5 60t-43.5 19
q-40 0 -70 -35q-17 -20 -23.5 -45t-6.5 -73v-244h59v-14h-247v14h66v401h-66z" />
    <glyph glyph-name="n" unicode="n" horiz-adv-x="630" 
d="M42 0v14h66v401h-66v14h186v-100h2q48 109 167 109q64 0 101.5 -38.5t37.5 -103.5v-282h67v-14h-251v14h62v316q0 81 -63 81q-51 0 -86 -48t-35 -135v-214h63v-14h-251z" />
    <glyph glyph-name="o" unicode="o" horiz-adv-x="556" 
d="M278 443q102 0 173 -67.5t71 -160.5q0 -94 -71 -161.5t-173 -67.5t-173 67.5t-71 161.5q0 93 71 160.5t173 67.5zM278 0q37 0 60.5 17t33.5 52t12.5 65.5t2.5 80.5t-2.5 80.5t-12.5 65t-33.5 51.5t-60.5 17t-60.5 -17t-33.5 -51.5t-12.5 -65t-2.5 -80.5t2.5 -80.5
t12.5 -65.5t33.5 -52t60.5 -17z" />
    <glyph glyph-name="p" unicode="p" horiz-adv-x="593" 
d="M97 -266v681h-66v14h186v-74h2q32 88 118 88q55 0 98.5 -22t68.5 -57t38 -73.5t13 -75.5q0 -92 -61.5 -160.5t-156.5 -68.5q-83 0 -116 86h-2v-338h68v-14h-256v14h66zM219 214q0 -26 1 -45.5t4.5 -47t11.5 -46.5t20.5 -37.5t33 -28t47.5 -9.5q51 0 67 51.5t16 162.5
q0 121 -20 168t-71 47q-110 0 -110 -215z" />
    <glyph glyph-name="q" unicode="q" horiz-adv-x="593" 
d="M496 415v-681h66v-14h-256v14h68v338h-2q-33 -86 -116 -86q-95 0 -156.5 68.5t-61.5 160.5q0 37 13 75.5t38 73.5t68.5 57t98.5 22q86 0 118 -88h2v74h186v-14h-66zM374 214q0 215 -110 215q-51 0 -71 -47t-20 -168q0 -111 16 -162.5t67 -51.5q27 0 47.5 9.5t33 28
t20.5 37.5t11.5 46.5t4.5 47t1 45.5z" />
    <glyph glyph-name="r" unicode="r" horiz-adv-x="444" 
d="M41 415v14h185v-84h2q44 93 129 93q42 0 68 -23t26 -62q0 -64 -61 -64t-61 45q0 4 3.5 26t3.5 24q0 24 -23 24q-25 0 -55 -40t-30 -98v-256h79v-14h-266v14h65v401h-65z" />
    <glyph glyph-name="s" unicode="s" horiz-adv-x="426" 
d="M44 0v145h14q12 -29 19 -44.5t21.5 -38t28.5 -34t36 -20t49 -8.5q89 0 89 77q0 23 -15.5 41t-63.5 36l-81 30q-91 34 -91 116q0 60 46.5 101.5t117.5 41.5q29 0 65.5 -12.5t40.5 -12.5q15 0 19 13h14v-122h-13q-13 32 -21 47.5t-23.5 35.5t-37 28.5t-51.5 8.5
q-36 0 -62 -18t-26 -51q0 -9 2 -16.5t8.5 -17.5t22.5 -20t40 -18l85 -29q110 -38 110 -129q0 -64 -51 -104t-120 -40q-28 0 -79.5 14t-60.5 14q-12 0 -18 -14h-14z" />
    <glyph glyph-name="t" unicode="t" horiz-adv-x="370" 
d="M101 429v129q35 -14 61 -14t61 14v-129h117v-14h-117v-335q0 -35 11 -54.5t42 -19.5q59 0 83 88l15 -3q-20 -105 -133 -105q-49 0 -80 11t-43 33t-14.5 36.5t-2.5 40.5v308h-67v14h67z" />
    <glyph glyph-name="u" unicode="u" horiz-adv-x="611" 
d="M27 415v14h189v-317q0 -91 68 -91q45 0 74 40t29 96v258h-66v14h188v-415h66v-14h-186v81h-2q-16 -42 -58.5 -66t-90.5 -24q-72 0 -108 32t-36 103v289h-67z" />
    <glyph glyph-name="v" unicode="v" horiz-adv-x="463" 
d="M-14 415v14h262v-14h-72l123 -277l109 277h-77v14h140v-14h-46l-177 -443h-8l-199 443h-55z" />
    <glyph glyph-name="w" unicode="w" horiz-adv-x="741" 
d="M228 -28l-174 443h-60v14h255v-14h-65l103 -260l79 213l-20 47h-51v14h250v-14h-67l103 -260l96 260h-70v14h135v-14h-49l-164 -443h-7l-148 375l-139 -375h-7z" />
    <glyph glyph-name="x" unicode="x" horiz-adv-x="500" 
d="M3 415v14h262v-14h-61l85 -140l102 140h-67v14h141v-14h-56l-110 -153l157 -248h41v-14h-255v14h69l-99 155l-111 -155h77v-14h-163v14h67l121 168l-149 233h-51z" />
    <glyph glyph-name="y" unicode="y" horiz-adv-x="481" 
d="M177 415l122 -289l127 289h-83v14h145v-14h-46q-85 -183 -164 -380.5t-96 -234.5q-21 -45 -47 -66t-65 -21q-45 0 -74 22t-29 59q0 27 18 41t46 14q21 0 37 -11t16 -31q0 -13 -6.5 -29.5t-6.5 -25.5q0 -22 20 -22q23 0 44.5 24.5t31.5 46t24 56.5l43 107l-188 451h-54v14
h255v-14h-70z" />
    <glyph glyph-name="z" unicode="z" horiz-adv-x="463" 
d="M34 0l243 415h-89q-51 0 -76.5 -23.5t-51.5 -81.5h-11l15 119h357l-242 -415h122q30 0 51.5 9.5t35.5 31t20.5 37t16.5 46.5h11l-11 -138h-391z" />
    <glyph glyph-name="braceleft" unicode="{" horiz-adv-x="370" 
d="M337 712v-18q-35 -2 -61.5 -10t-42 -24t-25 -30.5t-13 -39t-4.5 -39t-1 -40.5v-78q0 -88 -6 -122.5t-28 -56.5q-31 -31 -94 -38q63 -7 94 -38q22 -22 28 -56.5t6 -122.5v-78q0 -26 1 -40.5t4.5 -39t13 -39t25 -30.5t42 -24t61.5 -10v-18q-75 6 -108 33q-28 21 -41.5 53.5
t-15.5 59.5t-2 84v107q0 75 -25.5 106.5t-110.5 49.5v6q85 18 110.5 49.5t25.5 106.5v107q0 57 2 84t15.5 59.5t41.5 53.5q33 27 108 33z" />
    <glyph glyph-name="bar" unicode="|" horiz-adv-x="222" 
d="M101 -250v1000h20v-1000h-20z" />
    <glyph glyph-name="braceright" unicode="}" horiz-adv-x="370" 
d="M34 -280v18q35 2 61.5 10t42 24t25 30.5t13 39t4.5 39t1 40.5v78q0 88 6 122.5t28 56.5q31 31 94 38q-63 7 -94 38q-22 22 -28 56.5t-6 122.5v78q0 26 -1 40.5t-4.5 39t-13 39t-25 30.5t-42 24t-61.5 10v18q75 -6 108 -33q28 -21 41.5 -53.5t15.5 -59.5t2 -84v-107
q0 -75 25.5 -106.5t110.5 -49.5v-6q-85 -18 -110.5 -49.5t-25.5 -106.5v-107q0 -57 -2 -84t-15.5 -59.5t-41.5 -53.5q-33 -27 -108 -33z" />
    <glyph glyph-name="asciitilde" unicode="~" horiz-adv-x="650" 
d="M116 211h-57q0 75 38.5 112.5t98.5 37.5q5 0 21 -2q19 -3 117.5 -44t135.5 -41q28 0 46 22.5t19 62.5h56q0 -77 -31.5 -112t-81.5 -38h-20q-13 0 -20 2q-25 4 -102 38t-113 41q-26 6 -44 5q-29 -2 -45.5 -23t-17.5 -61z" />
    <glyph glyph-name="uni00A0" unicode="&#xa0;" 
 />
    <glyph glyph-name="exclamdown" unicode="&#xa1;" horiz-adv-x="296" 
d="M219 372q0 -29 -21 -50t-50 -21t-50 21t-21 50t21 50t50 21t50 -21t21 -50zM158 232l48 -397q7 -58 7 -62q0 -30 -18 -49t-47 -19t-47 19t-18 49q0 4 7 62l48 397h20z" />
    <glyph glyph-name="cent" unicode="&#xa2;" horiz-adv-x="520" 
d="M178 -92l27 93q-63 20 -110 75t-47 139q0 52 27.5 103t85.5 88t133 37q24 0 35 -3l24 84l14 -3l-23 -82q55 -10 87.5 -38t32.5 -69q0 -60 -65 -60q-62 0 -62 44q0 6 7.5 35t7.5 35q0 18 -15 30l-109 -386q30 -30 80 -30q38 0 68.5 14t46.5 35t24.5 38t10.5 29l14 -5
q-5 -21 -15.5 -39.5t-30 -39.5t-53.5 -33.5t-78 -12.5q-37 0 -77 11l-26 -92zM217 44l107 378q-11 7 -33 7q-34 0 -56.5 -16t-33.5 -47t-14.5 -64t-3.5 -81q0 -130 34 -177z" />
    <glyph glyph-name="sterling" unicode="&#xa3;" horiz-adv-x="592" 
d="M38 377v14h96q-36 60 -36 124q0 92 76.5 152.5t171.5 60.5q84 0 130.5 -41t46.5 -85q0 -52 -61 -52q-58 0 -58 45q0 5 4.5 31t4.5 41q0 19 -16 33t-44 14q-120 0 -120 -191q0 -107 5 -132h154v-14h-155q14 -126 14 -191q0 -23 -7 -70q94 -15 167 -15q71 0 91 8t39 39
l13 -4q-10 -25 -17 -39.5t-23 -40t-32 -40t-41 -26.5t-54 -12q-31 0 -62.5 12.5t-48.5 24l-50 35.5q-24 -31 -45 -44.5t-58 -13.5q-32 0 -55 16t-23 50q0 67 88 67q23 0 96 -15q3 12 3 24q0 46 -17.5 89t-72.5 146h-104zM216 67q-36 32 -56 42t-44 10t-40.5 -14.5
t-16.5 -39.5q0 -23 19 -37t45 -14q34 0 52.5 12t40.5 41z" />
    <glyph glyph-name="currency" unicode="&#xa4;" horiz-adv-x="556" 
d="M64 156l63 64q-52 59 -52 137q0 79 53 137l-64 64l13 13l64 -64q61 53 137 53q75 0 136 -53l65 64l13 -13l-64 -64q53 -60 53 -137q0 -79 -53 -137l64 -64l-13 -13l-65 64q-56 -53 -137 -53q-73 0 -136 53l-64 -64zM95 357q0 -76 53.5 -129.5t129.5 -53.5t129.5 53.5
t53.5 129.5t-53.5 129.5t-129.5 53.5t-129.5 -53.5t-53.5 -129.5z" />
    <glyph glyph-name="yen" unicode="&#xa5;" horiz-adv-x="556" 
d="M226 14v267h-178v17h174l-47 105h-127v17h120l-124 278h-78v14h310v-14h-79l157 -377l135 377h-87v14h188v-14h-84l-97 -278h136v-17h-141l-37 -105h178v-17h-179v-267h93v-14h-325v14h92z" />
    <glyph glyph-name="brokenbar" unicode="&#xa6;" horiz-adv-x="222" 
d="M101 325v350h20v-350h-20zM101 -175v350h20v-350h-20z" />
    <glyph glyph-name="section" unicode="&#xa7;" horiz-adv-x="556" 
d="M272 481l134 -84q86 -52 86 -138q0 -92 -98 -181q40 -33 61 -68t21 -88q0 -71 -60.5 -136.5t-160.5 -65.5q-52 0 -90.5 14.5t-57.5 36.5t-27 42.5t-8 39.5q0 56 63 56q21 0 37.5 -9.5t16.5 -30.5q0 -15 -11.5 -36t-11.5 -35q0 -29 27 -46.5t65 -17.5q64 0 96.5 44
t32.5 96q0 44 -22 72.5t-69 56.5l-136 82q-51 32 -73.5 68t-22.5 91q0 98 96 168q-28 27 -44 56t-16 74q0 71 58 128.5t158 57.5q68 0 112.5 -30.5t44.5 -82.5q0 -11 -1 -18.5t-5.5 -18t-17 -16t-31.5 -5.5q-57 0 -57 41q0 14 11 35t11 35q0 24 -22 35t-51 11
q-36 0 -62.5 -13.5t-39 -33.5t-17.5 -36.5t-5 -30.5q0 -65 86 -119zM116 317q0 -63 90 -119l120 -75l56 -37q50 41 50 92q0 59 -71 104q-161 101 -190 122q-19 -17 -27.5 -26t-18 -26t-9.5 -35z" />
    <glyph glyph-name="dieresis" unicode="&#xa8;" 
d="M162 644q0 26 19 45t45 19t45 -19t19 -45t-19 -45t-45 -19t-45 19t-19 45zM-12 644q0 26 19 45t45 19t45 -19t19 -45t-19 -45t-45 -19t-45 19t-19 45z" />
    <glyph glyph-name="copyright" unicode="&#xa9;" horiz-adv-x="833" 
d="M45 357q0 153 108.5 262t262.5 109q153 0 262 -109t109 -262t-109 -262t-262 -109q-154 0 -262.5 109t-108.5 262zM65 357q0 -145 103 -248t248 -103t248 103t103 248t-103 248t-248 103t-248 -103t-103 -248zM571 276v-126h-10q-5 13 -19 13q-5 0 -44 -11t-69 -11
q-89 0 -156.5 64.5t-67.5 155.5q0 96 70.5 159.5t153.5 63.5q29 0 66 -11t45 -11q15 0 17 12h10v-121h-8q-7 25 -15 43t-22.5 38t-37.5 31t-54 11q-78 0 -102.5 -51.5t-24.5 -181.5q0 -108 29 -151t98 -43q50 0 85 37.5t46 89.5h10z" />
    <glyph glyph-name="ordfeminine" unicode="&#xaa;" horiz-adv-x="311" 
d="M266 644v-149q0 -31 18 -31q13 0 24 19l9 -9q-7 -9 -11.5 -12.5t-17 -7.5t-31.5 -4q-30 0 -46 12t-20 27q-19 -39 -68 -39q-101 0 -101 64q0 25 17.5 42.5t71.5 32.5l49 14q27 7 27 37v43q0 34 -36 34q-34 0 -34 -27q0 -3 2 -15.5t2 -14.5q0 -14 -7 -21.5t-15 -9
t-22 -1.5q-35 0 -35 32q0 29 29 48.5t83 19.5q39 0 64 -9t34.5 -25t11.5 -26t2 -24zM185 518v84q-7 -5 -32 -14q-15 -6 -22 -10t-15 -17.5t-8 -34.5q0 -15 1 -23.5t4 -19t10.5 -15t20.5 -4.5q20 0 30.5 15t10.5 39z" />
    <glyph glyph-name="guillemotleft" unicode="&#xab;" horiz-adv-x="393" 
d="M350 51h-21q0 27 -16.5 55t-42.5 50t-43.5 34.5t-32.5 20.5v4q15 8 32.5 20.5t43.5 34.5t42.5 50t16.5 55h21q0 -45 -17.5 -93t-38.5 -69q21 -24 38.5 -70.5t17.5 -91.5zM186 51h-21q0 27 -16.5 55t-42.5 50t-43.5 34.5t-32.5 20.5v4q15 8 32.5 20.5t43.5 34.5t42.5 50
t16.5 55h21q0 -45 -17.5 -93t-38.5 -69q21 -24 38.5 -70.5t17.5 -91.5z" />
    <glyph glyph-name="logicalnot" unicode="&#xac;" horiz-adv-x="593" 
d="M516 145v172h-460v18h480v-190h-20z" />
    <glyph glyph-name="uni00AD" unicode="&#xad;" horiz-adv-x="370" 
d="M91 166v98h188v-98h-188z" />
    <glyph glyph-name="registered" unicode="&#xae;" horiz-adv-x="490" 
d="M60 542q0 77 54.5 131.5t130.5 54.5q77 0 131.5 -55t54.5 -131t-54.5 -130.5t-131.5 -54.5t-131 54.5t-54 130.5zM70 542q0 -72 51 -123.5t124 -51.5t124.5 51.5t51.5 123.5q0 73 -51.5 124.5t-124.5 51.5t-124 -51.5t-51 -124.5zM187 453v188h-26v4h42q7 0 23 0.5
t23 0.5q26 0 46.5 -11t20.5 -36q0 -39 -54 -43v-1q23 -4 32 -7t18 -13.5t10 -29.5q4 -49 10 -52q2 -2 6 -2t16 9l3 -2q-13 -13 -33 -13q-18 0 -28 9t-11.5 17t-2.5 22q-1 21 -2.5 30t-10 19t-24.5 10h-18v-99h25v-4h-91v4h26zM227 641v-85h11q22 0 29 10.5t7 29.5
q0 25 -7.5 35.5t-27.5 10.5q-2 0 -6 -0.5t-6 -0.5z" />
    <glyph glyph-name="macron" unicode="&#xaf;" 
d="M-22 612v30h322v-30h-322z" />
    <glyph glyph-name="degree" unicode="&#xb0;" horiz-adv-x="400" 
d="M65 593q0 56 39.5 95.5t95.5 39.5t95.5 -39.5t39.5 -95.5t-39.5 -95.5t-95.5 -39.5t-95.5 39.5t-39.5 95.5zM85 593q0 -48 33.5 -81.5t81.5 -33.5t81.5 33.5t33.5 81.5t-33.5 81.5t-81.5 33.5t-81.5 -33.5t-33.5 -81.5z" />
    <glyph glyph-name="plusminus" unicode="&#xb1;" horiz-adv-x="593" 
d="M286 66v197h-230v18h230v199h20v-199h230v-18h-230v-197h-20zM56 0v18h480v-18h-480z" />
    <glyph glyph-name="twosuperior" unicode="&#xb2;" horiz-adv-x="333" 
d="M103 357h92q37 0 52.5 2t29.5 15.5t17 42.5h14v-126h-288v14l10 9q62 56 90 83.5t53 63t31.5 67.5t6.5 81q0 37 -4.5 60.5t-14 32t-16 10.5t-17.5 2q-22 0 -33.5 -8.5t-13 -15.5t-1.5 -18q0 -2 3 -16t3 -17q0 -14 -12.5 -22.5t-28.5 -8.5q-15 0 -27 7.5t-12 21.5
q0 43 40.5 67t86.5 24q57 0 97 -32t40 -87q0 -61 -67 -125z" />
    <glyph glyph-name="threesuperior" unicode="&#xb3;" horiz-adv-x="333" 
d="M74 501l-8 13q22 14 34 17l68 18q48 13 48 96q0 69 -58 69q-40 0 -40 -31q0 -3 3 -18t3 -17q0 -18 -13.5 -25.5t-27.5 -7.5q-5 0 -11.5 1t-16.5 9.5t-10 23.5q0 24 15 41.5t38.5 24.5t42 10t35.5 3q47 0 86.5 -22.5t39.5 -68.5q0 -23 -10.5 -40.5t-32 -29t-37.5 -17
t-43 -12.5v-2q54 -4 95.5 -34.5t41.5 -83.5q0 -57 -49.5 -97t-119.5 -40q-109 0 -134 99h15q11 -36 40 -60.5t66 -24.5q26 0 43.5 8t27 19.5t15 31.5t6.5 37t1 43q0 93 -74 93q-48 0 -79 -26z" />
    <glyph glyph-name="acute" unicode="&#xb4;" 
d="M96 529l88 176q16 31 42 31q10 0 21.5 -8t11.5 -22q0 -17 -9 -27l-141 -150h-13z" />
    <glyph glyph-name="mu" unicode="&#xb5;" horiz-adv-x="611" 
d="M94 -280v695h-67v14h189v-317q0 -91 68 -91q45 0 74 40t29 96v258h-66v14h188v-415h66v-14h-186v81h-2q-15 -36 -49.5 -61.5t-65.5 -25.5q-33 0 -56 23v-297h-122z" />
    <glyph glyph-name="paragraph" unicode="&#xb6;" horiz-adv-x="593" 
d="M314 712h244v-14h-67v-551q0 -195 -104 -272q-83 -60 -187 -60q-34 0 -57 9.5t-32.5 24.5t-12.5 26t-3 21q0 28 18.5 42t45.5 14q53 0 53 -37q0 -15 -9 -41q-6 -18 -6 -20q0 -8 9 -8q6 0 16 4t27.5 22t28.5 47q21 54 21 228v142q-92 2 -149 24q-53 21 -88.5 73t-35.5 117
q0 59 29 106.5t75 68.5q77 34 184 34zM384 147v551h-70v-551q0 -83 -3 -130t-14.5 -91t-34.5 -66t-62 -31q69 3 114 45q20 19 33 40.5t25 81.5t12 151z" />
    <glyph glyph-name="periodcentered" unicode="&#xb7;" 
d="M68 282q0 29 21 50t50 21t50 -21t21 -50t-21 -50t-50 -21t-50 21t-21 50z" />
    <glyph glyph-name="cedilla" unicode="&#xb8;" 
d="M82 -79l73 79h20l-70 -72l2 -2q30 14 52 14q36 0 63.5 -24.5t27.5 -60.5q0 -45 -33.5 -70t-79.5 -25q-39 0 -80 30l9 12q33 -22 58 -22q47 0 47 71q0 14 -1 22.5t-4 20t-11.5 17.5t-21.5 6q-20 0 -37 -10z" />
    <glyph glyph-name="onesuperior" unicode="&#xb9;" horiz-adv-x="333" 
d="M147 305v360q-50 -29 -80 -42l-7 13q98 50 140 92h28v-423h57v-14h-196v14h58z" />
    <glyph glyph-name="ordmasculine" unicode="&#xba;" horiz-adv-x="334" 
d="M321 589q0 -57 -46.5 -98t-107.5 -41t-107.5 41t-46.5 98t46.5 98t107.5 41t107.5 -41t46.5 -98zM167 461q19 0 32 8t19.5 17.5t9.5 29.5t3.5 33.5t0.5 39.5t-0.5 39.5t-3.5 33.5t-9.5 29.5t-19.5 17.5t-32 8t-32 -8t-19.5 -17.5t-9.5 -29.5t-3.5 -33.5t-0.5 -39.5
t0.5 -39.5t3.5 -33.5t9.5 -29.5t19.5 -17.5t32 -8z" />
    <glyph glyph-name="guillemotright" unicode="&#xbb;" horiz-adv-x="393" 
d="M362 215v-4q-15 -8 -32.5 -20.5t-43.5 -34.5t-42.5 -50t-16.5 -55h-21q0 45 17.5 91.5t38.5 70.5q-21 21 -38.5 69t-17.5 93h21q0 -27 16.5 -55t42.5 -50t43.5 -34.5t32.5 -20.5zM198 215v-4q-15 -8 -32.5 -20.5t-43.5 -34.5t-42.5 -50t-16.5 -55h-21q0 45 17.5 91.5
t38.5 70.5q-21 21 -38.5 69t-17.5 93h21q0 -27 16.5 -55t42.5 -50t43.5 -34.5t32.5 -20.5z" />
    <glyph glyph-name="onequarter" unicode="&#xbc;" horiz-adv-x="834" 
d="M209 -5l376 733l20 -9l-376 -733zM165 305v360q-50 -29 -80 -42l-7 13q98 50 140 92h28v-423h57v-14h-196v14h58zM702 257v-149h54v-14h-54v-80h54v-14h-191v14h56v80h-178q63 151 114 242q32 56 55.5 78.5t49.5 22.5q39 0 39 -22q0 -6 -2.5 -9.5t-16.5 -16.5l-49 -45
q-13 -12 -33 -33.5t-61.5 -79.5t-74.5 -123h157v149h81z" />
    <glyph glyph-name="onehalf" unicode="&#xbd;" horiz-adv-x="834" 
d="M210 -5l376 733l20 -9l-376 -733zM166 305v360q-50 -29 -80 -42l-7 13q98 50 140 92h28v-423h57v-14h-196v14h58zM549 66h92q37 0 52.5 2t29.5 15.5t17 42.5h14v-126h-288v14l10 9q62 56 90 83.5t53 63t31.5 67.5t6.5 81q0 37 -4.5 60.5t-14 32t-16 10.5t-17.5 2
q-22 0 -33.5 -8.5t-13 -15.5t-1.5 -18q0 -2 3 -16t3 -17q0 -14 -12.5 -22.5t-28.5 -8.5q-15 0 -27 7.5t-12 21.5q0 43 40.5 67t86.5 24q57 0 97 -32t40 -87q0 -61 -67 -125z" />
    <glyph glyph-name="threequarters" unicode="&#xbe;" horiz-adv-x="834" 
d="M232 -5l376 733l20 -9l-376 -733zM115 501l-8 13q22 14 34 17l68 18q48 13 48 96q0 69 -58 69q-40 0 -40 -31q0 -3 3 -18t3 -17q0 -18 -13.5 -25.5t-27.5 -7.5q-5 0 -11.5 1t-16.5 9.5t-10 23.5q0 24 15 41.5t38.5 24.5t42 10t35.5 3q47 0 86.5 -22.5t39.5 -68.5
q0 -23 -10.5 -40.5t-32 -29t-37.5 -17t-43 -12.5v-2q54 -4 95.5 -34.5t41.5 -83.5q0 -57 -49.5 -97t-119.5 -40q-109 0 -134 99h15q11 -36 40 -60.5t66 -24.5q26 0 43.5 8t27 19.5t15 31.5t6.5 37t1 43q0 93 -74 93q-48 0 -79 -26zM725 257v-149h54v-14h-54v-80h54v-14h-191
v14h56v80h-178q63 151 114 242q32 56 55.5 78.5t49.5 22.5q39 0 39 -22q0 -6 -2.5 -9.5t-16.5 -16.5l-49 -45q-13 -12 -33 -33.5t-61.5 -79.5t-74.5 -123h157v149h81z" />
    <glyph glyph-name="questiondown" unicode="&#xbf;" horiz-adv-x="444" 
d="M384 372q0 -29 -21 -50t-50 -21t-50 21t-21 50t21 50t50 21t50 -21t21 -50zM321 241v-235h-17q-31 47 -64 47q-37 0 -51 -43.5t-14 -136.5q0 -89 13 -121.5t49 -32.5q25 0 38.5 11.5t13.5 26.5q0 11 -10.5 27t-10.5 31q0 25 13 35t42 10q22 0 38 -11.5t16 -35.5
q0 -52 -43.5 -80t-100.5 -28q-85 0 -132.5 52t-47.5 130q0 47 19 84.5t47 57.5t55 30.5t48 10.5q55 0 80 -34h2v205h17z" />
    <glyph glyph-name="Agrave" unicode="&#xc0;" horiz-adv-x="759" 
d="M327 938l88 -176h-13l-141 150q-9 10 -9 27q0 13 11.5 21.5t21.5 8.5q27 0 42 -31zM-26 0v14h85l298 726h27l315 -726h86v-14h-336v14h93l-116 268h-240l-111 -268h89v-14h-190zM421 296l-118 273l-112 -273h230z" />
    <glyph glyph-name="Aacute" unicode="&#xc1;" horiz-adv-x="759" 
d="M329 762l88 176q15 31 42 31q10 0 21.5 -8.5t11.5 -21.5q0 -17 -9 -27l-141 -150h-13zM-26 0v14h85l298 726h27l315 -726h86v-14h-336v14h93l-116 268h-240l-111 -268h89v-14h-190zM421 296l-118 273l-112 -273h230z" />
    <glyph glyph-name="Acircumflex" unicode="&#xc2;" horiz-adv-x="759" 
d="M227 762l109 197h73l108 -197h-12l-133 127l-133 -127h-12zM-26 0v14h85l298 726h27l315 -726h86v-14h-336v14h93l-116 268h-240l-111 -268h89v-14h-190zM421 296l-118 273l-112 -273h230z" />
    <glyph glyph-name="Atilde" unicode="&#xc3;" horiz-adv-x="759" 
d="M242 829l-12 -27h-14l19 51t12.5 26t16.5 21q22 18 51 18q10 0 81.5 -20t77.5 -20q17 0 27.5 17.5t12.5 28.5h14q-5 -24 -14.5 -46.5t-31.5 -46t-50 -23.5q-21 0 -84 20.5t-78 20.5q-19 0 -28 -20zM-26 0v14h85l298 726h27l315 -726h86v-14h-336v14h93l-116 268h-240
l-111 -268h89v-14h-190zM421 296l-118 273l-112 -273h230z" />
    <glyph glyph-name="Adieresis" unicode="&#xc4;" horiz-adv-x="759" 
d="M395 857q0 26 19 45t45 19t45 -19t19 -45t-19 -45t-45 -19t-45 19t-19 45zM221 857q0 26 19 45t45 19t45 -19t19 -45t-19 -45t-45 -19t-45 19t-19 45zM-26 0v14h85l298 726h27l315 -726h86v-14h-336v14h93l-116 268h-240l-111 -268h89v-14h-190zM421 296l-118 273
l-112 -273h230z" />
    <glyph glyph-name="Aring" unicode="&#xc5;" horiz-adv-x="759" 
d="M470 857q0 -37 -28 -68t-77 -31t-77 31t-28 68t28 68t77 31t77 -31t28 -68zM365 945q-28 0 -37.5 -21t-9.5 -67t9.5 -67t37.5 -21t37.5 21t9.5 67t-9.5 67t-37.5 21zM-26 0v14h85l298 726h27l315 -726h86v-14h-336v14h93l-116 268h-240l-111 -268h89v-14h-190zM421 296
l-118 273l-112 -273h230z" />
    <glyph glyph-name="AE" unicode="&#xc6;" horiz-adv-x="981" 
d="M-31 0v14h60l395 684h-93v14h566v-171h-13q-50 157 -189 157h-107v-309h19q69 0 102 37.5t49 111.5h13v-311h-13q-16 70 -46.5 109t-93.5 39h-30v-361h95q88 0 146 56.5t79 148.5h13v-219h-570v14h92v361h-188l-209 -361h99v-14h-176zM441 698l-178 -309h180v309h-2z" />
    <glyph glyph-name="Ccedilla" unicode="&#xc7;" horiz-adv-x="722" 
d="M663 212v-212h-16q-9 21 -33 21q-9 0 -74.5 -18t-114.5 -18h-23l-57 -57l2 -2q30 14 52 14q36 0 63.5 -24.5t27.5 -60.5q0 -45 -33.5 -70t-79.5 -25q-39 0 -80 30l9 12q33 -22 58 -22q47 0 47 71q0 14 -1 22.5t-4 20t-11.5 17.5t-21.5 6q-20 0 -37 -10l-14 14l62 67
q-137 15 -235 120t-98 246q0 108 58.5 196t143.5 133t172 45q47 0 110 -18.5t75 -18.5q14 0 21 4t10 17h16v-204h-13q-14 43 -27 71.5t-38 63.5t-63.5 53t-89.5 18q-31 0 -57.5 -6t-46.5 -16.5t-36 -25.5t-27 -33.5t-19.5 -40t-12.5 -44.5t-7.5 -48t-4 -50.5t-1.5 -51
t0 -50.5v-24q0 -180 49 -252.5t163 -72.5q84 0 142.5 62.5t78.5 150.5h16z" />
    <glyph glyph-name="Egrave" unicode="&#xc8;" horiz-adv-x="722" 
d="M324 938l88 -176h-13l-141 150q-9 10 -9 27q0 13 11.5 21.5t21.5 8.5q26 0 42 -31zM37 698v14h598v-171h-13q-50 157 -189 157h-159v-309h56q69 0 102 37.5t49 111.5h13v-311h-13q-16 70 -46.5 109t-93.5 39h-67v-361h164q88 0 146 56.5t79 148.5h13v-219h-639v14h92v684
h-92z" />
    <glyph glyph-name="Eacute" unicode="&#xc9;" horiz-adv-x="722" 
d="M326 762l88 176q16 31 42 31q10 0 21.5 -8.5t11.5 -21.5q0 -17 -9 -27l-141 -150h-13zM37 698v14h598v-171h-13q-50 157 -189 157h-159v-309h56q69 0 102 37.5t49 111.5h13v-311h-13q-16 70 -46.5 109t-93.5 39h-67v-361h164q88 0 146 56.5t79 148.5h13v-219h-639v14h92
v684h-92z" />
    <glyph glyph-name="Ecircumflex" unicode="&#xca;" horiz-adv-x="722" 
d="M224 762l109 197h73l108 -197h-12l-133 127l-133 -127h-12zM37 698v14h598v-171h-13q-50 157 -189 157h-159v-309h56q69 0 102 37.5t49 111.5h13v-311h-13q-16 70 -46.5 109t-93.5 39h-67v-361h164q88 0 146 56.5t79 148.5h13v-219h-639v14h92v684h-92z" />
    <glyph glyph-name="Edieresis" unicode="&#xcb;" horiz-adv-x="722" 
d="M392 857q0 26 19 45t45 19t45 -19t19 -45t-19 -45t-45 -19t-45 19t-19 45zM218 857q0 26 19 45t45 19t45 -19t19 -45t-19 -45t-45 -19t-45 19t-19 45zM37 698v14h598v-171h-13q-50 157 -189 157h-159v-309h56q69 0 102 37.5t49 111.5h13v-311h-13q-16 70 -46.5 109
t-93.5 39h-67v-361h164q88 0 146 56.5t79 148.5h13v-219h-639v14h92v684h-92z" />
    <glyph glyph-name="Igrave" unicode="&#xcc;" horiz-adv-x="407" 
d="M159 938l88 -176h-13l-141 150q-9 10 -9 27q0 13 11.5 21.5t21.5 8.5q27 0 42 -31zM39 698v14h329v-14h-92v-684h92v-14h-329v14h92v684h-92z" />
    <glyph glyph-name="Iacute" unicode="&#xcd;" horiz-adv-x="407" 
d="M161 762l88 176q15 31 42 31q10 0 21.5 -8.5t11.5 -21.5q0 -17 -9 -27l-141 -150h-13zM39 698v14h329v-14h-92v-684h92v-14h-329v14h92v684h-92z" />
    <glyph glyph-name="Icircumflex" unicode="&#xce;" horiz-adv-x="407" 
d="M59 762l109 197h73l108 -197h-12l-133 127l-133 -127h-12zM39 698v14h329v-14h-92v-684h92v-14h-329v14h92v684h-92z" />
    <glyph glyph-name="Idieresis" unicode="&#xcf;" horiz-adv-x="407" 
d="M227 857q0 26 19 45t45 19t45 -19t19 -45t-19 -45t-45 -19t-45 19t-19 45zM53 857q0 26 19 45t45 19t45 -19t19 -45t-19 -45t-45 -19t-45 19t-19 45zM39 698v14h329v-14h-92v-684h92v-14h-329v14h92v684h-92z" />
    <glyph glyph-name="Eth" unicode="&#xd0;" horiz-adv-x="815" 
d="M124 14v358h-92v17h92v309h-92v14h92q34 0 102 1.5t102 1.5q59 0 115 -8.5t116.5 -33.5t105 -63.5t73.5 -104t29 -149.5t-29 -149.5t-72.5 -103.5t-101.5 -63t-110 -34t-103 -9q-38 0 -113.5 1.5t-113.5 1.5h-92v14h92zM269 698v-309h148v-17h-148v-358q29 -3 53 -3
q74 0 128.5 23t83 56t45.5 82t21 87.5t4 86.5q0 70 -6 120.5t-23.5 97t-47 75t-79 45.5t-117.5 17q-43 0 -62 -3z" />
    <glyph glyph-name="Ntilde" unicode="&#xd1;" horiz-adv-x="741" 
d="M241 829l-12 -27h-14l19 51t12.5 26t16.5 21q22 18 51 18q10 0 81.5 -20t77.5 -20q17 0 27.5 17.5t12.5 28.5h14q-5 -24 -14.5 -46.5t-31.5 -46t-50 -23.5q-21 0 -84 20.5t-78 20.5q-19 0 -28 -20zM34 698v14h236l333 -476h2v462h-92v14h200v-14h-92v-698h-27l-450 641
h-2v-627h92v-14h-200v14h92v684h-92z" />
    <glyph glyph-name="Ograve" unicode="&#xd2;" horiz-adv-x="833" 
d="M372 938l88 -176h-13l-141 150q-9 10 -9 27q0 13 11.5 21.5t21.5 8.5q26 0 42 -31zM42 354q0 81 34.5 153t89 119.5t120.5 74.5t131 27q94 0 178.5 -44t140 -131t55.5 -196q0 -150 -112 -261t-262 -111t-262.5 108.5t-112.5 260.5zM205 354q0 -138 22.5 -216t67 -108.5
t122.5 -30.5q48 0 84 11.5t58.5 37t36.5 54.5t21 75t9 86t2 100q0 41 -1 69t-4 64t-9 60.5t-16 51.5t-26 44.5t-37.5 32.5t-51 22t-66.5 7q-55 0 -94 -18t-61.5 -47.5t-35.5 -78t-17 -97.5t-4 -119z" />
    <glyph glyph-name="Oacute" unicode="&#xd3;" horiz-adv-x="833" 
d="M374 762l88 176q16 31 42 31q10 0 21.5 -8.5t11.5 -21.5q0 -17 -9 -27l-141 -150h-13zM42 354q0 81 34.5 153t89 119.5t120.5 74.5t131 27q94 0 178.5 -44t140 -131t55.5 -196q0 -150 -112 -261t-262 -111t-262.5 108.5t-112.5 260.5zM205 354q0 -138 22.5 -216
t67 -108.5t122.5 -30.5q48 0 84 11.5t58.5 37t36.5 54.5t21 75t9 86t2 100q0 41 -1 69t-4 64t-9 60.5t-16 51.5t-26 44.5t-37.5 32.5t-51 22t-66.5 7q-55 0 -94 -18t-61.5 -47.5t-35.5 -78t-17 -97.5t-4 -119z" />
    <glyph glyph-name="Ocircumflex" unicode="&#xd4;" horiz-adv-x="833" 
d="M272 762l109 197h73l108 -197h-12l-133 127l-133 -127h-12zM42 354q0 81 34.5 153t89 119.5t120.5 74.5t131 27q94 0 178.5 -44t140 -131t55.5 -196q0 -150 -112 -261t-262 -111t-262.5 108.5t-112.5 260.5zM205 354q0 -138 22.5 -216t67 -108.5t122.5 -30.5
q48 0 84 11.5t58.5 37t36.5 54.5t21 75t9 86t2 100q0 41 -1 69t-4 64t-9 60.5t-16 51.5t-26 44.5t-37.5 32.5t-51 22t-66.5 7q-55 0 -94 -18t-61.5 -47.5t-35.5 -78t-17 -97.5t-4 -119z" />
    <glyph glyph-name="Otilde" unicode="&#xd5;" horiz-adv-x="833" 
d="M287 829l-12 -27h-14l19 51t12.5 26t16.5 21q22 18 51 18q10 0 81.5 -20t77.5 -20q17 0 27.5 17.5t12.5 28.5h14q-5 -24 -14.5 -46.5t-31.5 -46t-50 -23.5q-21 0 -84 20.5t-78 20.5q-19 0 -28 -20zM42 354q0 81 34.5 153t89 119.5t120.5 74.5t131 27q94 0 178.5 -44
t140 -131t55.5 -196q0 -150 -112 -261t-262 -111t-262.5 108.5t-112.5 260.5zM205 354q0 -138 22.5 -216t67 -108.5t122.5 -30.5q48 0 84 11.5t58.5 37t36.5 54.5t21 75t9 86t2 100q0 41 -1 69t-4 64t-9 60.5t-16 51.5t-26 44.5t-37.5 32.5t-51 22t-66.5 7q-55 0 -94 -18
t-61.5 -47.5t-35.5 -78t-17 -97.5t-4 -119z" />
    <glyph glyph-name="Odieresis" unicode="&#xd6;" horiz-adv-x="833" 
d="M440 857q0 26 19 45t45 19t45 -19t19 -45t-19 -45t-45 -19t-45 19t-19 45zM266 857q0 26 19 45t45 19t45 -19t19 -45t-19 -45t-45 -19t-45 19t-19 45zM42 354q0 81 34.5 153t89 119.5t120.5 74.5t131 27q94 0 178.5 -44t140 -131t55.5 -196q0 -150 -112 -261t-262 -111
t-262.5 108.5t-112.5 260.5zM205 354q0 -138 22.5 -216t67 -108.5t122.5 -30.5q48 0 84 11.5t58.5 37t36.5 54.5t21 75t9 86t2 100q0 41 -1 69t-4 64t-9 60.5t-16 51.5t-26 44.5t-37.5 32.5t-51 22t-66.5 7q-55 0 -94 -18t-61.5 -47.5t-35.5 -78t-17 -97.5t-4 -119z" />
    <glyph glyph-name="multiply" unicode="&#xd7;" horiz-adv-x="593" 
d="M504 19l-208 208l-208 -208l-13 14l207 207l-207 207l13 14l208 -208l208 208l13 -14l-207 -207l207 -207z" />
    <glyph glyph-name="Oslash" unicode="&#xd8;" horiz-adv-x="833" 
d="M186 -68l52 101q-88 47 -142 133t-54 188q0 81 34.5 153t89 119.5t120.5 74.5t131 27q81 0 160 -37l49 97l14 -7l-49 -96q89 -46 144.5 -131.5t55.5 -196.5q0 -150 -112 -261t-262 -111q-88 0 -166 40l-51 -100zM257 70l305 593q-49 51 -145 51q-55 0 -94 -18
t-61.5 -47.5t-35.5 -78t-17 -97.5t-4 -119q0 -206 52 -284zM573 651l-306 -595q46 -57 150 -57q48 0 84 11.5t58.5 37t36.5 54.5t21 75t9 86t2 100q0 108 -10 176.5t-45 111.5z" />
    <glyph glyph-name="Ugrave" unicode="&#xd9;" horiz-adv-x="778" 
d="M374 938l88 -176h-13l-141 150q-9 10 -9 27q0 13 11.5 21.5t21.5 8.5q26 0 42 -31zM32 698v14h330v-14h-92v-449q0 -44 2.5 -74.5t12 -66.5t26 -57.5t47.5 -36.5t74 -15q44 0 79.5 10t57.5 24.5t38 38t23.5 42t11.5 44.5t4.5 38.5t0.5 31.5v470h-91v14h200v-14h-93v-469
q0 -21 -0.5 -34.5t-5 -41.5t-13 -47.5t-26.5 -44t-42.5 -40t-64 -26t-88.5 -10.5q-75 0 -130.5 14.5t-87 37t-50.5 57t-24.5 66t-5.5 71.5v467h-93z" />
    <glyph glyph-name="Uacute" unicode="&#xda;" horiz-adv-x="778" 
d="M376 762l88 176q16 31 42 31q10 0 21.5 -8.5t11.5 -21.5q0 -17 -9 -27l-141 -150h-13zM32 698v14h330v-14h-92v-449q0 -44 2.5 -74.5t12 -66.5t26 -57.5t47.5 -36.5t74 -15q44 0 79.5 10t57.5 24.5t38 38t23.5 42t11.5 44.5t4.5 38.5t0.5 31.5v470h-91v14h200v-14h-93
v-469q0 -21 -0.5 -34.5t-5 -41.5t-13 -47.5t-26.5 -44t-42.5 -40t-64 -26t-88.5 -10.5q-75 0 -130.5 14.5t-87 37t-50.5 57t-24.5 66t-5.5 71.5v467h-93z" />
    <glyph glyph-name="Ucircumflex" unicode="&#xdb;" horiz-adv-x="778" 
d="M274 762l109 197h73l108 -197h-12l-133 127l-133 -127h-12zM32 698v14h330v-14h-92v-449q0 -44 2.5 -74.5t12 -66.5t26 -57.5t47.5 -36.5t74 -15q44 0 79.5 10t57.5 24.5t38 38t23.5 42t11.5 44.5t4.5 38.5t0.5 31.5v470h-91v14h200v-14h-93v-469q0 -21 -0.5 -34.5
t-5 -41.5t-13 -47.5t-26.5 -44t-42.5 -40t-64 -26t-88.5 -10.5q-75 0 -130.5 14.5t-87 37t-50.5 57t-24.5 66t-5.5 71.5v467h-93z" />
    <glyph glyph-name="Udieresis" unicode="&#xdc;" horiz-adv-x="778" 
d="M442 857q0 26 19 45t45 19t45 -19t19 -45t-19 -45t-45 -19t-45 19t-19 45zM268 857q0 26 19 45t45 19t45 -19t19 -45t-19 -45t-45 -19t-45 19t-19 45zM32 698v14h330v-14h-92v-449q0 -44 2.5 -74.5t12 -66.5t26 -57.5t47.5 -36.5t74 -15q44 0 79.5 10t57.5 24.5t38 38
t23.5 42t11.5 44.5t4.5 38.5t0.5 31.5v470h-91v14h200v-14h-93v-469q0 -21 -0.5 -34.5t-5 -41.5t-13 -47.5t-26.5 -44t-42.5 -40t-64 -26t-88.5 -10.5q-75 0 -130.5 14.5t-87 37t-50.5 57t-24.5 66t-5.5 71.5v467h-93z" />
    <glyph glyph-name="Yacute" unicode="&#xdd;" horiz-adv-x="704" 
d="M339 762l88 176q15 31 42 31q10 0 21.5 -8.5t11.5 -21.5q0 -17 -9 -27l-141 -150h-13zM-16 698v14h323v-14h-79l204 -349l184 349h-87v14h191v-14h-87l-193 -367v-317h93v-14h-330v14h92v279l-232 405h-79z" />
    <glyph glyph-name="Thorn" unicode="&#xde;" horiz-adv-x="648" 
d="M271 220v-206h92v-14h-329v14h92v684h-92v14h329v-14h-92v-102h59q51 0 98 -8t94 -27t75.5 -58t28.5 -94q0 -83 -80.5 -136t-233.5 -53h-41zM271 579v-345h31q86 0 123.5 38.5t37.5 130.5q0 91 -34.5 135t-118.5 44q-6 0 -39 -3z" />
    <glyph glyph-name="germandbls" unicode="&#xdf;" horiz-adv-x="648" 
d="M34 0v14h67v493q0 51 12 87t45 70q65 64 172 64q47 0 79.5 -13t47.5 -33.5t20.5 -38t5.5 -35.5q0 -41 -18.5 -75t-36.5 -59.5t-18 -45.5q0 -27 20 -52.5t49 -47.5t57.5 -46t48.5 -57.5t20 -71.5q0 -70 -57.5 -118.5t-138.5 -48.5q-53 0 -95 21.5t-42 69.5q0 25 18 39.5
t44 14.5q19 0 35 -10t16 -28q0 -8 -5.5 -31.5t-5.5 -30.5q0 -31 42 -31q54 0 76.5 29t22.5 60q0 32 -20.5 62.5t-50 55l-59 48t-50 52t-20.5 57.5q0 25 15 48t37 42l44 39t37 48t15 60q0 54 -31.5 80.5t-70.5 26.5q-79 0 -108.5 -46t-29.5 -120v-542h-189z" />
    <glyph glyph-name="agrave" unicode="&#xe0;" horiz-adv-x="519" 
d="M215 705l88 -176h-13l-141 150q-9 10 -9 27q0 14 11.5 22t21.5 8q27 0 42 -31zM498 25l9 -9q-20 -30 -90 -30q-93 0 -106 69h-2q-15 -40 -43 -54.5t-82 -14.5q-57 0 -99.5 23.5t-42.5 76.5q0 23 8 41t19 29t31 21.5t34.5 15.5l39.5 13q86 26 108.5 40.5t22.5 50.5v61
q0 71 -62 71q-57 0 -57 -49q0 -3 3 -26.5t3 -28.5q0 -41 -61 -41q-58 0 -58 51q0 50 50.5 79t120.5 29q85 0 134 -31t49 -110v-248q0 -48 33 -48q21 0 38 19zM305 116v132h-2q-3 -12 -27 -24l-21 -10t-22.5 -11t-19 -11t-18.5 -15l-12.5 -18t-10 -24.5t-2.5 -30.5
q0 -95 65 -95q29 0 49.5 26.5t20.5 80.5z" />
    <glyph glyph-name="aacute" unicode="&#xe1;" horiz-adv-x="519" 
d="M217 529l88 176q15 31 42 31q10 0 21.5 -8t11.5 -22q0 -17 -9 -27l-141 -150h-13zM498 25l9 -9q-20 -30 -90 -30q-93 0 -106 69h-2q-15 -40 -43 -54.5t-82 -14.5q-57 0 -99.5 23.5t-42.5 76.5q0 23 8 41t19 29t31 21.5t34.5 15.5l39.5 13q86 26 108.5 40.5t22.5 50.5v61
q0 71 -62 71q-57 0 -57 -49q0 -3 3 -26.5t3 -28.5q0 -41 -61 -41q-58 0 -58 51q0 50 50.5 79t120.5 29q85 0 134 -31t49 -110v-248q0 -48 33 -48q21 0 38 19zM305 116v132h-2q-3 -12 -27 -24l-21 -10t-22.5 -11t-19 -11t-18.5 -15l-12.5 -18t-10 -24.5t-2.5 -30.5
q0 -95 65 -95q29 0 49.5 26.5t20.5 80.5z" />
    <glyph glyph-name="acircumflex" unicode="&#xe2;" horiz-adv-x="519" 
d="M115 529l109 197h73l108 -197h-12l-133 127l-133 -127h-12zM498 25l9 -9q-20 -30 -90 -30q-93 0 -106 69h-2q-15 -40 -43 -54.5t-82 -14.5q-57 0 -99.5 23.5t-42.5 76.5q0 23 8 41t19 29t31 21.5t34.5 15.5l39.5 13q86 26 108.5 40.5t22.5 50.5v61q0 71 -62 71
q-57 0 -57 -49q0 -3 3 -26.5t3 -28.5q0 -41 -61 -41q-58 0 -58 51q0 50 50.5 79t120.5 29q85 0 134 -31t49 -110v-248q0 -48 33 -48q21 0 38 19zM305 116v132h-2q-3 -12 -27 -24l-21 -10t-22.5 -11t-19 -11t-18.5 -15l-12.5 -18t-10 -24.5t-2.5 -30.5q0 -95 65 -95
q29 0 49.5 26.5t20.5 80.5z" />
    <glyph glyph-name="atilde" unicode="&#xe3;" horiz-adv-x="519" 
d="M130 596l-12 -27h-14l19 51t12.5 26t16.5 21q22 18 51 18q10 0 81.5 -20t77.5 -20q17 0 27.5 17.5t12.5 28.5h14q-5 -24 -14.5 -46.5t-31.5 -46t-50 -23.5q-21 0 -84 20.5t-78 20.5q-19 0 -28 -20zM498 25l9 -9q-20 -30 -90 -30q-93 0 -106 69h-2q-15 -40 -43 -54.5
t-82 -14.5q-57 0 -99.5 23.5t-42.5 76.5q0 23 8 41t19 29t31 21.5t34.5 15.5l39.5 13q86 26 108.5 40.5t22.5 50.5v61q0 71 -62 71q-57 0 -57 -49q0 -3 3 -26.5t3 -28.5q0 -41 -61 -41q-58 0 -58 51q0 50 50.5 79t120.5 29q85 0 134 -31t49 -110v-248q0 -48 33 -48
q21 0 38 19zM305 116v132h-2q-3 -12 -27 -24l-21 -10t-22.5 -11t-19 -11t-18.5 -15l-12.5 -18t-10 -24.5t-2.5 -30.5q0 -95 65 -95q29 0 49.5 26.5t20.5 80.5z" />
    <glyph glyph-name="adieresis" unicode="&#xe4;" horiz-adv-x="519" 
d="M283 644q0 26 19 45t45 19t45 -19t19 -45t-19 -45t-45 -19t-45 19t-19 45zM109 644q0 26 19 45t45 19t45 -19t19 -45t-19 -45t-45 -19t-45 19t-19 45zM498 25l9 -9q-20 -30 -90 -30q-93 0 -106 69h-2q-15 -40 -43 -54.5t-82 -14.5q-57 0 -99.5 23.5t-42.5 76.5q0 23 8 41
t19 29t31 21.5t34.5 15.5l39.5 13q86 26 108.5 40.5t22.5 50.5v61q0 71 -62 71q-57 0 -57 -49q0 -3 3 -26.5t3 -28.5q0 -41 -61 -41q-58 0 -58 51q0 50 50.5 79t120.5 29q85 0 134 -31t49 -110v-248q0 -48 33 -48q21 0 38 19zM305 116v132h-2q-3 -12 -27 -24l-21 -10
t-22.5 -11t-19 -11t-18.5 -15l-12.5 -18t-10 -24.5t-2.5 -30.5q0 -95 65 -95q29 0 49.5 26.5t20.5 80.5z" />
    <glyph glyph-name="aring" unicode="&#xe5;" horiz-adv-x="519" 
d="M365 629q0 -37 -28 -68t-77 -31t-77 31t-28 68t28 68t77 31t77 -31t28 -68zM260 717q-28 0 -37.5 -21t-9.5 -67t9.5 -67t37.5 -21t37.5 21t9.5 67t-9.5 67t-37.5 21zM498 25l9 -9q-20 -30 -90 -30q-93 0 -106 69h-2q-15 -40 -43 -54.5t-82 -14.5q-57 0 -99.5 23.5
t-42.5 76.5q0 23 8 41t19 29t31 21.5t34.5 15.5l39.5 13q86 26 108.5 40.5t22.5 50.5v61q0 71 -62 71q-57 0 -57 -49q0 -3 3 -26.5t3 -28.5q0 -41 -61 -41q-58 0 -58 51q0 50 50.5 79t120.5 29q85 0 134 -31t49 -110v-248q0 -48 33 -48q21 0 38 19zM305 116v132h-2
q-3 -12 -27 -24l-21 -10t-22.5 -11t-19 -11t-18.5 -15l-12.5 -18t-10 -24.5t-2.5 -30.5q0 -95 65 -95q29 0 49.5 26.5t20.5 80.5z" />
    <glyph glyph-name="ae" unicode="&#xe6;" horiz-adv-x="741" 
d="M31 86q0 23 8 41t19 29t31 21.5t34.5 15.5l39.5 13q90 26 113.5 40.5t23.5 50.5v73q0 59 -62 59q-57 0 -57 -49q0 -3 3 -26.5t3 -28.5q0 -41 -61 -41q-58 0 -58 51q0 50 50.5 79t120.5 29q94 0 150 -44q54 44 119 44q75 0 134 -49t59 -143h-279v-45q0 -43 3 -73.5
t13.5 -64t34 -51t60.5 -17.5t67 14.5t46 35.5t25 38t10 28l14 -5q-13 -48 -56 -86.5t-121 -38.5q-157 0 -204 112h-2q-8 -112 -139 -112q-57 0 -99.5 23.5t-42.5 76.5zM422 265h144v67q0 97 -65 97q-18 0 -31.5 -6.5t-21.5 -22t-13 -27t-7.5 -36.5l-3.5 -35t-2 -37zM300 116
v132h-2q-1 -3 -3.5 -5.5t-5.5 -4.5t-7.5 -4.5t-6.5 -3.5q-14 -9 -40.5 -23t-39.5 -23t-24.5 -29.5t-11.5 -50.5q0 -95 65 -95q30 0 53 26.5t23 80.5z" />
    <glyph glyph-name="ccedilla" unicode="&#xe7;" horiz-adv-x="481" 
d="M204 -93l-14 14l63 68q-25 2 -50.5 8.5t-57 23t-55 40t-39.5 64t-16 90.5q0 82 66.5 155t179.5 73q75 0 122.5 -30.5t47.5 -80.5q0 -60 -65 -60q-62 0 -62 44q0 6 7.5 35t7.5 35q0 20 -17 31.5t-44 11.5q-34 0 -56.5 -16t-33.5 -47t-14.5 -64t-3.5 -81q0 -37 1.5 -63.5
t9 -58.5t20.5 -51.5t37 -33.5t57 -14q38 0 68.5 14t46.5 35t24.5 38t10.5 29l14 -5q-5 -21 -15.5 -39.5t-30 -39.5t-53.5 -33.5t-78 -12.5h-11l-58 -58l2 -2q30 14 52 14q36 0 63.5 -24.5t27.5 -60.5q0 -45 -33.5 -70t-79.5 -25q-39 0 -80 30l9 12q33 -22 58 -22q47 0 47 71
q0 14 -1 22.5t-4 20t-11.5 17.5t-21.5 6q-20 0 -37 -10z" />
    <glyph glyph-name="egrave" unicode="&#xe8;" horiz-adv-x="500" 
d="M205 705l88 -176h-13l-141 150q-9 10 -9 27q0 14 11.5 22t21.5 8q27 0 42 -31zM465 251h-295v-45q0 -34 1.5 -58.5t9 -54.5t20.5 -48.5t37.5 -31.5t58.5 -13q37 0 67 14.5t46 35.5t25 38t10 28l14 -5q-13 -48 -56 -86.5t-121 -38.5q-107 0 -177 62.5t-70 167.5
q0 88 69 157.5t164 69.5q78 0 137.5 -49t59.5 -143zM170 265h160v67q0 97 -65 97q-22 0 -38 -6.5t-26 -22t-16 -27.5t-9 -36.5t-4 -35t-2 -36.5z" />
    <glyph glyph-name="eacute" unicode="&#xe9;" horiz-adv-x="500" 
d="M207 529l88 176q15 31 42 31q10 0 21.5 -8t11.5 -22q0 -17 -9 -27l-141 -150h-13zM465 251h-295v-45q0 -34 1.5 -58.5t9 -54.5t20.5 -48.5t37.5 -31.5t58.5 -13q37 0 67 14.5t46 35.5t25 38t10 28l14 -5q-13 -48 -56 -86.5t-121 -38.5q-107 0 -177 62.5t-70 167.5
q0 88 69 157.5t164 69.5q78 0 137.5 -49t59.5 -143zM170 265h160v67q0 97 -65 97q-22 0 -38 -6.5t-26 -22t-16 -27.5t-9 -36.5t-4 -35t-2 -36.5z" />
    <glyph glyph-name="ecircumflex" unicode="&#xea;" horiz-adv-x="500" 
d="M105 529l109 197h73l108 -197h-12l-133 127l-133 -127h-12zM465 251h-295v-45q0 -34 1.5 -58.5t9 -54.5t20.5 -48.5t37.5 -31.5t58.5 -13q37 0 67 14.5t46 35.5t25 38t10 28l14 -5q-13 -48 -56 -86.5t-121 -38.5q-107 0 -177 62.5t-70 167.5q0 88 69 157.5t164 69.5
q78 0 137.5 -49t59.5 -143zM170 265h160v67q0 97 -65 97q-22 0 -38 -6.5t-26 -22t-16 -27.5t-9 -36.5t-4 -35t-2 -36.5z" />
    <glyph glyph-name="edieresis" unicode="&#xeb;" horiz-adv-x="500" 
d="M273 644q0 26 19 45t45 19t45 -19t19 -45t-19 -45t-45 -19t-45 19t-19 45zM99 644q0 26 19 45t45 19t45 -19t19 -45t-19 -45t-45 -19t-45 19t-19 45zM465 251h-295v-45q0 -34 1.5 -58.5t9 -54.5t20.5 -48.5t37.5 -31.5t58.5 -13q37 0 67 14.5t46 35.5t25 38t10 28l14 -5
q-13 -48 -56 -86.5t-121 -38.5q-107 0 -177 62.5t-70 167.5q0 88 69 157.5t164 69.5q78 0 137.5 -49t59.5 -143zM170 265h160v67q0 97 -65 97q-22 0 -38 -6.5t-26 -22t-16 -27.5t-9 -36.5t-4 -35t-2 -36.5z" />
    <glyph glyph-name="igrave" unicode="&#xec;" horiz-adv-x="315" 
d="M113 705l88 -176h-13l-141 150q-9 10 -9 27q0 14 11.5 22t21.5 8q27 0 42 -31zM36 415v14h189v-415h67v-14h-256v14h67v401h-67z" />
    <glyph glyph-name="iacute" unicode="&#xed;" horiz-adv-x="315" 
d="M115 529l88 176q15 31 42 31q10 0 21.5 -8t11.5 -22q0 -17 -9 -27l-141 -150h-13zM36 415v14h189v-415h67v-14h-256v14h67v401h-67z" />
    <glyph glyph-name="icircumflex" unicode="&#xee;" horiz-adv-x="315" 
d="M13 529l109 197h73l108 -197h-12l-133 127l-133 -127h-12zM36 415v14h189v-415h67v-14h-256v14h67v401h-67z" />
    <glyph glyph-name="idieresis" unicode="&#xef;" horiz-adv-x="315" 
d="M181 644q0 26 19 45t45 19t45 -19t19 -45t-19 -45t-45 -19t-45 19t-19 45zM7 644q0 26 19 45t45 19t45 -19t19 -45t-19 -45t-45 -19t-45 19t-19 45zM36 415v14h189v-415h67v-14h-256v14h67v401h-67z" />
    <glyph glyph-name="eth" unicode="&#xf0;" horiz-adv-x="556" 
d="M133 538l114 75q-43 44 -123 85l8 14q88 -36 150 -76l116 76l8 -11l-112 -74q228 -157 228 -382q0 -68 -21.5 -118.5t-50 -76.5t-66 -41.5t-61.5 -19t-45 -3.5q-102 0 -173 67.5t-71 161.5q0 93 71 160.5t173 67.5q39 0 83 -27q-30 104 -105 187l-115 -76zM169 215
q0 -50 2.5 -80.5t12.5 -65.5t33.5 -52t60.5 -17t60.5 17t33.5 52t12.5 65.5t2.5 80.5t-2.5 80.5t-12.5 65t-33.5 51.5t-60.5 17t-60.5 -17t-33.5 -51.5t-12.5 -65t-2.5 -80.5z" />
    <glyph glyph-name="ntilde" unicode="&#xf1;" horiz-adv-x="630" 
d="M185 596l-12 -27h-14l19 51t12.5 26t16.5 21q22 18 51 18q10 0 81.5 -20t77.5 -20q17 0 27.5 17.5t12.5 28.5h14q-5 -24 -14.5 -46.5t-31.5 -46t-50 -23.5q-21 0 -84 20.5t-78 20.5q-19 0 -28 -20zM42 0v14h66v401h-66v14h186v-100h2q48 109 167 109q64 0 101.5 -38.5
t37.5 -103.5v-282h67v-14h-251v14h62v316q0 81 -63 81q-51 0 -86 -48t-35 -135v-214h63v-14h-251z" />
    <glyph glyph-name="ograve" unicode="&#xf2;" horiz-adv-x="556" 
d="M233 705l88 -176h-13l-141 150q-9 10 -9 27q0 14 11.5 22t21.5 8q27 0 42 -31zM278 443q102 0 173 -67.5t71 -160.5q0 -94 -71 -161.5t-173 -67.5t-173 67.5t-71 161.5q0 93 71 160.5t173 67.5zM278 0q37 0 60.5 17t33.5 52t12.5 65.5t2.5 80.5t-2.5 80.5t-12.5 65
t-33.5 51.5t-60.5 17t-60.5 -17t-33.5 -51.5t-12.5 -65t-2.5 -80.5t2.5 -80.5t12.5 -65.5t33.5 -52t60.5 -17z" />
    <glyph glyph-name="oacute" unicode="&#xf3;" horiz-adv-x="556" 
d="M235 529l88 176q15 31 42 31q10 0 21.5 -8t11.5 -22q0 -17 -9 -27l-141 -150h-13zM278 443q102 0 173 -67.5t71 -160.5q0 -94 -71 -161.5t-173 -67.5t-173 67.5t-71 161.5q0 93 71 160.5t173 67.5zM278 0q37 0 60.5 17t33.5 52t12.5 65.5t2.5 80.5t-2.5 80.5t-12.5 65
t-33.5 51.5t-60.5 17t-60.5 -17t-33.5 -51.5t-12.5 -65t-2.5 -80.5t2.5 -80.5t12.5 -65.5t33.5 -52t60.5 -17z" />
    <glyph glyph-name="ocircumflex" unicode="&#xf4;" horiz-adv-x="556" 
d="M133 529l109 197h73l108 -197h-12l-133 127l-133 -127h-12zM278 443q102 0 173 -67.5t71 -160.5q0 -94 -71 -161.5t-173 -67.5t-173 67.5t-71 161.5q0 93 71 160.5t173 67.5zM278 0q37 0 60.5 17t33.5 52t12.5 65.5t2.5 80.5t-2.5 80.5t-12.5 65t-33.5 51.5t-60.5 17
t-60.5 -17t-33.5 -51.5t-12.5 -65t-2.5 -80.5t2.5 -80.5t12.5 -65.5t33.5 -52t60.5 -17z" />
    <glyph glyph-name="otilde" unicode="&#xf5;" horiz-adv-x="556" 
d="M148 596l-12 -27h-14l19 51t12.5 26t16.5 21q22 18 51 18q10 0 81.5 -20t77.5 -20q17 0 27.5 17.5t12.5 28.5h14q-5 -24 -14.5 -46.5t-31.5 -46t-50 -23.5q-21 0 -84 20.5t-78 20.5q-19 0 -28 -20zM278 443q102 0 173 -67.5t71 -160.5q0 -94 -71 -161.5t-173 -67.5
t-173 67.5t-71 161.5q0 93 71 160.5t173 67.5zM278 0q37 0 60.5 17t33.5 52t12.5 65.5t2.5 80.5t-2.5 80.5t-12.5 65t-33.5 51.5t-60.5 17t-60.5 -17t-33.5 -51.5t-12.5 -65t-2.5 -80.5t2.5 -80.5t12.5 -65.5t33.5 -52t60.5 -17z" />
    <glyph glyph-name="odieresis" unicode="&#xf6;" horiz-adv-x="556" 
d="M301 644q0 26 19 45t45 19t45 -19t19 -45t-19 -45t-45 -19t-45 19t-19 45zM127 644q0 26 19 45t45 19t45 -19t19 -45t-19 -45t-45 -19t-45 19t-19 45zM278 443q102 0 173 -67.5t71 -160.5q0 -94 -71 -161.5t-173 -67.5t-173 67.5t-71 161.5q0 93 71 160.5t173 67.5z
M278 0q37 0 60.5 17t33.5 52t12.5 65.5t2.5 80.5t-2.5 80.5t-12.5 65t-33.5 51.5t-60.5 17t-60.5 -17t-33.5 -51.5t-12.5 -65t-2.5 -80.5t2.5 -80.5t12.5 -65.5t33.5 -52t60.5 -17z" />
    <glyph glyph-name="divide" unicode="&#xf7;" horiz-adv-x="650" 
d="M325 389q-23 0 -37.5 15.5t-14.5 39.5q0 25 14.5 40t37.5 15q24 0 38 -15t15 -40q0 -24 -14.5 -39.5t-38.5 -15.5zM576 238h-501v58h501v-58zM325 37q-23 0 -37.5 15t-14.5 39q0 25 14.5 40.5t37.5 15.5q24 0 38 -15.5t15 -40.5q0 -24 -14.5 -39t-38.5 -15z" />
    <glyph glyph-name="oslash" unicode="&#xf8;" horiz-adv-x="556" 
d="M117 -67l43 83q-58 29 -92 82.5t-34 116.5q0 93 71 160.5t173 67.5q50 0 93 -18l41 79l14 -6l-41 -79q62 -27 99.5 -82.5t37.5 -121.5q0 -94 -71 -161.5t-173 -67.5q-59 0 -105 23l-42 -82zM187 68l168 325q-25 36 -77 36q-37 0 -60.5 -17t-33.5 -51.5t-12.5 -65
t-2.5 -80.5q0 -104 18 -147zM364 378l-170 -329q23 -49 84 -49q37 0 60.5 17t33.5 52t12.5 65.5t2.5 80.5q0 118 -23 163z" />
    <glyph glyph-name="ugrave" unicode="&#xf9;" horiz-adv-x="611" 
d="M261 705l88 -176h-13l-141 150q-9 10 -9 27q0 14 11.5 22t21.5 8q27 0 42 -31zM27 415v14h189v-317q0 -91 68 -91q45 0 74 40t29 96v258h-66v14h188v-415h66v-14h-186v81h-2q-16 -42 -58.5 -66t-90.5 -24q-72 0 -108 32t-36 103v289h-67z" />
    <glyph glyph-name="uacute" unicode="&#xfa;" horiz-adv-x="611" 
d="M263 529l88 176q15 31 42 31q10 0 21.5 -8t11.5 -22q0 -17 -9 -27l-141 -150h-13zM27 415v14h189v-317q0 -91 68 -91q45 0 74 40t29 96v258h-66v14h188v-415h66v-14h-186v81h-2q-16 -42 -58.5 -66t-90.5 -24q-72 0 -108 32t-36 103v289h-67z" />
    <glyph glyph-name="ucircumflex" unicode="&#xfb;" horiz-adv-x="611" 
d="M161 529l109 197h73l108 -197h-12l-133 127l-133 -127h-12zM27 415v14h189v-317q0 -91 68 -91q45 0 74 40t29 96v258h-66v14h188v-415h66v-14h-186v81h-2q-16 -42 -58.5 -66t-90.5 -24q-72 0 -108 32t-36 103v289h-67z" />
    <glyph glyph-name="udieresis" unicode="&#xfc;" horiz-adv-x="611" 
d="M325 644q0 26 19 45t45 19t45 -19t19 -45t-19 -45t-45 -19t-45 19t-19 45zM151 644q0 26 19 45t45 19t45 -19t19 -45t-19 -45t-45 -19t-45 19t-19 45zM27 415v14h189v-317q0 -91 68 -91q45 0 74 40t29 96v258h-66v14h188v-415h66v-14h-186v81h-2q-16 -42 -58.5 -66
t-90.5 -24q-72 0 -108 32t-36 103v289h-67z" />
    <glyph glyph-name="yacute" unicode="&#xfd;" horiz-adv-x="481" 
d="M222 529l88 176q16 31 42 31q10 0 21.5 -8t11.5 -22q0 -17 -9 -27l-141 -150h-13zM177 415l122 -289l127 289h-83v14h145v-14h-46q-85 -183 -164 -380.5t-96 -234.5q-21 -45 -47 -66t-65 -21q-45 0 -74 22t-29 59q0 27 18 41t46 14q21 0 37 -11t16 -31q0 -13 -6.5 -29.5
t-6.5 -25.5q0 -22 20 -22q23 0 44.5 24.5t31.5 46t24 56.5l43 107l-188 451h-54v14h255v-14h-70z" />
    <glyph glyph-name="thorn" unicode="&#xfe;" horiz-adv-x="593" 
d="M97 -266v973h-66v14h188v-362h2q31 84 116 84q55 0 98.5 -22t68.5 -57t38 -73.5t13 -75.5q0 -92 -61.5 -160.5t-156.5 -68.5q-83 0 -116 86h-2v-338h68v-14h-256v14h66zM219 214q0 -26 1 -45.5t4.5 -47t11.5 -46.5t20.5 -37.5t33 -28t47.5 -9.5q51 0 67 51.5t16 162.5
q0 121 -20 168t-71 47q-110 0 -110 -215z" />
    <glyph glyph-name="ydieresis" unicode="&#xff;" horiz-adv-x="481" 
d="M274 644q0 26 19 45t45 19t45 -19t19 -45t-19 -45t-45 -19t-45 19t-19 45zM100 644q0 26 19 45t45 19t45 -19t19 -45t-19 -45t-45 -19t-45 19t-19 45zM177 415l122 -289l127 289h-83v14h145v-14h-46q-85 -183 -164 -380.5t-96 -234.5q-21 -45 -47 -66t-65 -21
q-45 0 -74 22t-29 59q0 27 18 41t46 14q21 0 37 -11t16 -31q0 -13 -6.5 -29.5t-6.5 -25.5q0 -22 20 -22q23 0 44.5 24.5t31.5 46t24 56.5l43 107l-188 451h-54v14h255v-14h-70z" />
    <glyph glyph-name="Amacron" unicode="&#x100;" horiz-adv-x="759" 
d="M-26 0v14h85l298 726h27l315 -726h86v-14h-336v14h93l-116 268h-240l-111 -268h89v-14h-190zM191 296h230l-118 273zM209 845v30h322v-30h-322z" />
    <glyph glyph-name="amacron" unicode="&#x101;" horiz-adv-x="519" 
d="M498 25l9 -9q-20 -30 -90 -30q-93 0 -106 69h-2q-15 -40 -43 -54.5t-82 -14.5q-57 0 -99.5 23.5t-42.5 76.5q0 23 8 41t19 29t31 21.5t34.5 15.5l39.5 13q86 26 108.5 40.5t22.5 50.5v61q0 71 -62 71q-57 0 -57 -49q0 -3 3 -26.5t3 -28.5q0 -41 -61 -41q-58 0 -58 51
q0 50 50.5 79t120.5 29q85 0 134 -31t49 -110v-248q0 -48 33 -48q21 0 38 19zM305 116v132h-2q-3 -12 -27 -24l-21 -10t-22.5 -11t-19 -11t-18.5 -15l-12.5 -18t-10 -24.5t-2.5 -30.5q0 -95 65 -95q29 0 49.5 26.5t20.5 80.5zM89 612v30h322v-30h-322z" />
    <glyph glyph-name="Abreve" unicode="&#x102;" horiz-adv-x="759" 
d="M-26 0v14h85l298 726h27l315 -726h86v-14h-336v14h93l-116 268h-240l-111 -268h89v-14h-190zM191 296h230l-118 273zM226 945h12q24 -90 130 -90t130 90h12q1 -76 -37.5 -116t-104.5 -40t-104.5 40t-37.5 116z" />
    <glyph glyph-name="abreve" unicode="&#x103;" horiz-adv-x="519" 
d="M498 25l9 -9q-20 -30 -90 -30q-93 0 -106 69h-2q-15 -40 -43 -54.5t-82 -14.5q-57 0 -99.5 23.5t-42.5 76.5q0 23 8 41t19 29t31 21.5t34.5 15.5l39.5 13q86 26 108.5 40.5t22.5 50.5v61q0 71 -62 71q-57 0 -57 -49q0 -3 3 -26.5t3 -28.5q0 -41 -61 -41q-58 0 -58 51
q0 50 50.5 79t120.5 29q85 0 134 -31t49 -110v-248q0 -48 33 -48q21 0 38 19zM305 116v132h-2q-3 -12 -27 -24l-21 -10t-22.5 -11t-19 -11t-18.5 -15l-12.5 -18t-10 -24.5t-2.5 -30.5q0 -95 65 -95q29 0 49.5 26.5t20.5 80.5zM107 712h12q24 -90 130 -90t130 90h12
q1 -76 -37.5 -116t-104.5 -40t-104.5 40t-37.5 116z" />
    <glyph glyph-name="Aogonek" unicode="&#x104;" horiz-adv-x="759" 
d="M549 -42l79 42h-179v14h93l-116 268h-240l-111 -268h89v-14h-190v14h85l298 726h27l315 -726h86v-14h-136q-95 -81 -95 -123q0 -47 44 -47q25 0 44 14l7 -12q-29 -20 -46 -26t-46 -6q-41 0 -63 19.5t-22 47.5q0 50 77 91zM421 296l-118 273l-112 -273h230z" />
    <glyph glyph-name="aogonek" unicode="&#x105;" horiz-adv-x="519" 
d="M333 -42l56 30q-67 8 -78 67h-2q-15 -40 -43 -54.5t-82 -14.5q-57 0 -99.5 23.5t-42.5 76.5q0 23 8 41t19 29t31 21.5t34.5 15.5l39.5 13q86 26 108.5 40.5t22.5 50.5v61q0 71 -62 71q-57 0 -57 -49q0 -3 3 -26.5t3 -28.5q0 -41 -61 -41q-58 0 -58 51q0 50 50.5 79
t120.5 29q85 0 134 -31t49 -110v-248q0 -48 33 -48q21 0 38 19l9 -9q-20 -30 -90 -30q-79 -69 -79 -109q0 -47 44 -47q25 0 44 14l7 -12q-29 -20 -46 -26t-46 -6q-41 0 -63 19.5t-22 47.5q0 50 77 91zM305 116v132h-2q-3 -12 -27 -24l-21 -10t-22.5 -11t-19 -11t-18.5 -15
l-12.5 -18t-10 -24.5t-2.5 -30.5q0 -95 65 -95q29 0 49.5 26.5t20.5 80.5z" />
    <glyph glyph-name="Cacute" unicode="&#x106;" horiz-adv-x="722" 
d="M51 354q0 108 58.5 196t143.5 133t172 45q47 0 110 -18.5t75 -18.5q14 0 21 4t10 17h16v-204h-13q-14 43 -27 71.5t-38 63.5t-63.5 53t-89.5 18q-57 0 -96.5 -18.5t-62 -47.5t-34.5 -79t-15.5 -97.5t-3.5 -119.5q0 -202 48 -277.5t164 -75.5q84 0 142.5 62.5t78.5 150.5
h16v-212h-16q-9 21 -33 21q-9 0 -74.5 -18t-114.5 -18q-149 0 -261.5 108.5t-112.5 260.5zM381 762l88 176q15 31 42 31q10 0 21.5 -8.5t11.5 -21.5q0 -17 -9 -27l-141 -150h-13z" />
    <glyph glyph-name="cacute" unicode="&#x107;" horiz-adv-x="481" 
d="M35 215q0 52 27.5 103t85.5 88t133 37t122.5 -30.5t47.5 -80.5q0 -60 -65 -60q-62 0 -62 44q0 6 7.5 35t7.5 35q0 20 -17 31.5t-44 11.5q-34 0 -56.5 -16t-33.5 -47t-14.5 -64t-3.5 -81q0 -37 1.5 -63.5t9 -58.5t20.5 -51.5t37 -33.5t57 -14q38 0 68.5 14t46.5 35
t24.5 38t10.5 29l14 -5q-5 -21 -15.5 -39.5t-30 -39.5t-53.5 -33.5t-78 -12.5q-21 0 -46.5 4t-62.5 18.5t-66.5 37.5t-50.5 67t-21 102zM234 529l88 176q16 31 42 31q10 0 21.5 -8t11.5 -22q0 -17 -9 -27l-141 -150h-13z" />
    <glyph glyph-name="Ccircumflex" unicode="&#x108;" horiz-adv-x="722" 
d="M51 354q0 108 58.5 196t143.5 133t172 45q47 0 110 -18.5t75 -18.5q14 0 21 4t10 17h16v-204h-13q-14 43 -27 71.5t-38 63.5t-63.5 53t-89.5 18q-57 0 -96.5 -18.5t-62 -47.5t-34.5 -79t-15.5 -97.5t-3.5 -119.5q0 -202 48 -277.5t164 -75.5q84 0 142.5 62.5t78.5 150.5
h16v-212h-16q-9 21 -33 21q-9 0 -74.5 -18t-114.5 -18q-149 0 -261.5 108.5t-112.5 260.5zM278 762l109 197h73l108 -197h-12l-133 127l-133 -127h-12z" />
    <glyph glyph-name="ccircumflex" unicode="&#x109;" horiz-adv-x="481" 
d="M35 215q0 52 27.5 103t85.5 88t133 37t122.5 -30.5t47.5 -80.5q0 -60 -65 -60q-62 0 -62 44q0 6 7.5 35t7.5 35q0 20 -17 31.5t-44 11.5q-34 0 -56.5 -16t-33.5 -47t-14.5 -64t-3.5 -81q0 -37 1.5 -63.5t9 -58.5t20.5 -51.5t37 -33.5t57 -14q38 0 68.5 14t46.5 35
t24.5 38t10.5 29l14 -5q-5 -21 -15.5 -39.5t-30 -39.5t-53.5 -33.5t-78 -12.5q-21 0 -46.5 4t-62.5 18.5t-66.5 37.5t-50.5 67t-21 102zM130 529l109 197h73l108 -197h-12l-133 127l-133 -127h-12z" />
    <glyph glyph-name="Cdotaccent" unicode="&#x10a;" horiz-adv-x="722" 
d="M51 354q0 108 58.5 196t143.5 133t172 45q47 0 110 -18.5t75 -18.5q14 0 21 4t10 17h16v-204h-13q-14 43 -27 71.5t-38 63.5t-63.5 53t-89.5 18q-57 0 -96.5 -18.5t-62 -47.5t-34.5 -79t-15.5 -97.5t-3.5 -119.5q0 -202 48 -277.5t164 -75.5q84 0 142.5 62.5t78.5 150.5
h16v-212h-16q-9 21 -33 21q-9 0 -74.5 -18t-114.5 -18q-149 0 -261.5 108.5t-112.5 260.5zM361 877q0 26 19 45t45 19t45 -19t19 -45t-19 -45t-45 -19t-45 19t-19 45z" />
    <glyph glyph-name="cdotaccent" unicode="&#x10b;" horiz-adv-x="481" 
d="M35 215q0 52 27.5 103t85.5 88t133 37t122.5 -30.5t47.5 -80.5q0 -60 -65 -60q-62 0 -62 44q0 6 7.5 35t7.5 35q0 20 -17 31.5t-44 11.5q-34 0 -56.5 -16t-33.5 -47t-14.5 -64t-3.5 -81q0 -37 1.5 -63.5t9 -58.5t20.5 -51.5t37 -33.5t57 -14q38 0 68.5 14t46.5 35
t24.5 38t10.5 29l14 -5q-5 -21 -15.5 -39.5t-30 -39.5t-53.5 -33.5t-78 -12.5q-21 0 -46.5 4t-62.5 18.5t-66.5 37.5t-50.5 67t-21 102zM211 644q0 26 19 45t45 19t45 -19t19 -45t-19 -45t-45 -19t-45 19t-19 45z" />
    <glyph glyph-name="Ccaron" unicode="&#x10c;" horiz-adv-x="722" 
d="M51 354q0 108 58.5 196t143.5 133t172 45q47 0 110 -18.5t75 -18.5q14 0 21 4t10 17h16v-204h-13q-14 43 -27 71.5t-38 63.5t-63.5 53t-89.5 18q-57 0 -96.5 -18.5t-62 -47.5t-34.5 -79t-15.5 -97.5t-3.5 -119.5q0 -202 48 -277.5t164 -75.5q84 0 142.5 62.5t78.5 150.5
h16v-212h-16q-9 21 -33 21q-9 0 -74.5 -18t-114.5 -18q-149 0 -261.5 108.5t-112.5 260.5zM568 959l-109 -197h-73l-108 197h12l133 -127l133 127h12z" />
    <glyph glyph-name="ccaron" unicode="&#x10d;" horiz-adv-x="481" 
d="M35 215q0 52 27.5 103t85.5 88t133 37t122.5 -30.5t47.5 -80.5q0 -60 -65 -60q-62 0 -62 44q0 6 7.5 35t7.5 35q0 20 -17 31.5t-44 11.5q-34 0 -56.5 -16t-33.5 -47t-14.5 -64t-3.5 -81q0 -37 1.5 -63.5t9 -58.5t20.5 -51.5t37 -33.5t57 -14q38 0 68.5 14t46.5 35
t24.5 38t10.5 29l14 -5q-5 -21 -15.5 -39.5t-30 -39.5t-53.5 -33.5t-78 -12.5q-21 0 -46.5 4t-62.5 18.5t-66.5 37.5t-50.5 67t-21 102zM420 726l-109 -197h-73l-108 197h12l133 -127l133 127h12z" />
    <glyph glyph-name="Dcaron" unicode="&#x10e;" horiz-adv-x="815" 
d="M32 0v14h92v684h-92v14h92q34 0 102 1.5t102 1.5q59 0 115 -8.5t116.5 -33.5t105 -63.5t73.5 -104t29 -149.5t-29 -149.5t-72.5 -103.5t-101.5 -63t-110 -34t-103 -9q-38 0 -113.5 1.5t-113.5 1.5h-92zM269 14q29 -3 53 -3q74 0 128.5 23t83 56t45.5 82t21 87.5t4 86.5
q0 70 -6 120.5t-23.5 97t-47 75t-79 45.5t-117.5 17q-43 0 -62 -3v-684zM470 959l-109 -197h-73l-108 197h12l133 -127l133 127h12z" />
    <glyph glyph-name="dcaron" unicode="&#x10f;" horiz-adv-x="593" 
d="M496 721v-707h66v-14h-186v74h-2q-34 -88 -118 -88q-95 0 -156.5 68.5t-61.5 160.5q0 37 13 75.5t38 73.5t68.5 57t98.5 22q85 0 116 -84h2v348h-68v14h190zM374 214q0 215 -110 215q-51 0 -71 -47t-20 -168q0 -111 16 -162.5t67 -51.5q27 0 47.5 9.5t33 28t20.5 37.5
t11.5 46.5t4.5 47t1 45.5zM560 544l4 133q3 46 39 46q15 0 24.5 -10t9.5 -26q0 -3 -2 -11l-64 -132h-11z" />
    <glyph glyph-name="Dcroat" unicode="&#x110;" horiz-adv-x="815" 
d="M124 14v358h-92v17h92v309h-92v14h92q34 0 102 1.5t102 1.5q59 0 115 -8.5t116.5 -33.5t105 -63.5t73.5 -104t29 -149.5t-29 -149.5t-72.5 -103.5t-101.5 -63t-110 -34t-103 -9q-38 0 -113.5 1.5t-113.5 1.5h-92v14h92zM269 698v-309h148v-17h-148v-358q29 -3 53 -3
q74 0 128.5 23t83 56t45.5 82t21 87.5t4 86.5q0 70 -6 120.5t-23.5 97t-47 75t-79 45.5t-117.5 17q-43 0 -62 -3z" />
    <glyph glyph-name="dcroat" unicode="&#x111;" horiz-adv-x="593" 
d="M255 562v20h119v125h-68v14h190v-139h61v-20h-61v-548h66v-14h-186v74h-2q-34 -88 -118 -88q-95 0 -156.5 68.5t-61.5 160.5q0 37 13 75.5t38 73.5t68.5 57t98.5 22q85 0 116 -84h2v203h-119zM374 214q0 215 -110 215q-51 0 -71 -47t-20 -168q0 -111 16 -162.5t67 -51.5
q27 0 47.5 9.5t33 28t20.5 37.5t11.5 46.5t4.5 47t1 45.5z" />
    <glyph glyph-name="Emacron" unicode="&#x112;" horiz-adv-x="722" 
d="M37 0v14h92v684h-92v14h598v-171h-13q-50 157 -189 157h-159v-309h56q69 0 102 37.5t49 111.5h13v-311h-13q-16 70 -46.5 109t-93.5 39h-67v-361h164q88 0 146 56.5t79 148.5h13v-219h-639zM208 845v30h322v-30h-322z" />
    <glyph glyph-name="emacron" unicode="&#x113;" horiz-adv-x="500" 
d="M465 251h-295v-45q0 -34 1.5 -58.5t9 -54.5t20.5 -48.5t37.5 -31.5t58.5 -13q37 0 67 14.5t46 35.5t25 38t10 28l14 -5q-13 -48 -56 -86.5t-121 -38.5q-107 0 -177 62.5t-70 167.5q0 88 69 157.5t164 69.5q78 0 137.5 -49t59.5 -143zM170 265h160v67q0 97 -65 97
q-22 0 -38 -6.5t-26 -22t-16 -27.5t-9 -36.5t-4 -35t-2 -36.5zM108 612v30h322v-30h-322z" />
    <glyph glyph-name="Ebreve" unicode="&#x114;" horiz-adv-x="722" 
d="M37 0v14h92v684h-92v14h598v-171h-13q-50 157 -189 157h-159v-309h56q69 0 102 37.5t49 111.5h13v-311h-13q-16 70 -46.5 109t-93.5 39h-67v-361h164q88 0 146 56.5t79 148.5h13v-219h-639zM227 945h12q24 -90 130 -90t130 90h12q1 -76 -37.5 -116t-104.5 -40t-104.5 40
t-37.5 116z" />
    <glyph glyph-name="ebreve" unicode="&#x115;" horiz-adv-x="500" 
d="M465 251h-295v-45q0 -34 1.5 -58.5t9 -54.5t20.5 -48.5t37.5 -31.5t58.5 -13q37 0 67 14.5t46 35.5t25 38t10 28l14 -5q-13 -48 -56 -86.5t-121 -38.5q-107 0 -177 62.5t-70 167.5q0 88 69 157.5t164 69.5q78 0 137.5 -49t59.5 -143zM170 265h160v67q0 97 -65 97
q-22 0 -38 -6.5t-26 -22t-16 -27.5t-9 -36.5t-4 -35t-2 -36.5zM127 712h12q24 -90 130 -90t130 90h12q1 -76 -37.5 -116t-104.5 -40t-104.5 40t-37.5 116z" />
    <glyph glyph-name="Edotaccent" unicode="&#x116;" horiz-adv-x="722" 
d="M37 0v14h92v684h-92v14h598v-171h-13q-50 157 -189 157h-159v-309h56q69 0 102 37.5t49 111.5h13v-311h-13q-16 70 -46.5 109t-93.5 39h-67v-361h164q88 0 146 56.5t79 148.5h13v-219h-639zM305 877q0 26 19 45t45 19t45 -19t19 -45t-19 -45t-45 -19t-45 19t-19 45z" />
    <glyph glyph-name="edotaccent" unicode="&#x117;" horiz-adv-x="500" 
d="M465 251h-295v-45q0 -34 1.5 -58.5t9 -54.5t20.5 -48.5t37.5 -31.5t58.5 -13q37 0 67 14.5t46 35.5t25 38t10 28l14 -5q-13 -48 -56 -86.5t-121 -38.5q-107 0 -177 62.5t-70 167.5q0 88 69 157.5t164 69.5q78 0 137.5 -49t59.5 -143zM170 265h160v67q0 97 -65 97
q-22 0 -38 -6.5t-26 -22t-16 -27.5t-9 -36.5t-4 -35t-2 -36.5zM205 644q0 26 19 45t45 19t45 -19t19 -45t-19 -45t-45 -19t-45 19t-19 45z" />
    <glyph glyph-name="Eogonek" unicode="&#x118;" horiz-adv-x="722" 
d="M478 -42l79 42h-520v14h92v684h-92v14h598v-171h-13q-50 157 -189 157h-159v-309h56q69 0 102 37.5t49 111.5h13v-311h-13q-16 70 -46.5 109t-93.5 39h-67v-361h164q88 0 146 56.5t79 148.5h13v-219h-98q-95 -81 -95 -123q0 -47 44 -47q25 0 44 14l7 -12q-29 -20 -46 -26
t-46 -6q-41 0 -63 19.5t-22 47.5q0 50 77 91z" />
    <glyph glyph-name="eogonek" unicode="&#x119;" horiz-adv-x="500" 
d="M319 -30l34 28q-34 -12 -71 -12q-107 0 -177 62.5t-70 167.5q0 88 69 157.5t164 69.5q78 0 137.5 -49t59.5 -143h-295v-45q0 -34 1.5 -58.5t9 -54.5t20.5 -48.5t37.5 -31.5t58.5 -13q37 0 67 14.5t46 35.5t25 38t10 28l14 -5q-14 -52 -64 -92q-73 -59 -73 -134
q0 -55 46 -55q25 0 44 14l7 -12q-29 -20 -46 -26t-46 -6q-41 0 -63 19.5t-22 47.5q0 40 77 103zM170 265h160v67q0 97 -65 97q-22 0 -38 -6.5t-26 -22t-16 -27.5t-9 -36.5t-4 -35t-2 -36.5z" />
    <glyph glyph-name="Ecaron" unicode="&#x11a;" horiz-adv-x="722" 
d="M37 0v14h92v684h-92v14h598v-171h-13q-50 157 -189 157h-159v-309h56q69 0 102 37.5t49 111.5h13v-311h-13q-16 70 -46.5 109t-93.5 39h-67v-361h164q88 0 146 56.5t79 148.5h13v-219h-639zM514 959l-109 -197h-73l-108 197h12l133 -127l133 127h12z" />
    <glyph glyph-name="ecaron" unicode="&#x11b;" horiz-adv-x="500" 
d="M465 251h-295v-45q0 -34 1.5 -58.5t9 -54.5t20.5 -48.5t37.5 -31.5t58.5 -13q37 0 67 14.5t46 35.5t25 38t10 28l14 -5q-13 -48 -56 -86.5t-121 -38.5q-107 0 -177 62.5t-70 167.5q0 88 69 157.5t164 69.5q78 0 137.5 -49t59.5 -143zM170 265h160v67q0 97 -65 97
q-22 0 -38 -6.5t-26 -22t-16 -27.5t-9 -36.5t-4 -35t-2 -36.5zM414 726l-109 -197h-73l-108 197h12l133 -127l133 127h12z" />
    <glyph glyph-name="Gcircumflex" unicode="&#x11c;" horiz-adv-x="778" 
d="M47 354q0 108 58.5 196t143.5 133t172 45q46 0 109.5 -18.5t75.5 -18.5q22 0 31 21h17v-204h-15q-54 207 -217 206q-31 0 -57.5 -6t-46.5 -16.5t-36 -25.5t-27 -33.5t-19.5 -40t-12.5 -44.5t-7.5 -48t-4 -50.5t-1.5 -51t0 -50.5v-24q0 -180 49 -252.5t163 -72.5
q36 0 61 11.5t40 29t23 47t10.5 58t2.5 69.5v38h-103v14h309v-14h-65v-229h-18q-4 23 -33 23q-25 0 -57 -15.5t-75 -30.5t-96 -15q-149 0 -261.5 108.5t-112.5 260.5zM276 762l109 197h73l108 -197h-12l-133 127l-133 -127h-12z" />
    <glyph glyph-name="gcircumflex" unicode="&#x11d;" horiz-adv-x="537" 
d="M176 71h110q191 0 191 -159q0 -82 -65.5 -144.5t-171.5 -62.5q-59 0 -99.5 13.5t-58.5 34.5t-25 39t-7 35q0 49 39.5 81.5t93.5 46.5v2q-32 0 -62.5 8.5t-56.5 34.5t-26 65q0 12 4 27.5t26.5 44t60.5 49.5q-63 47 -63 106q0 64 53.5 107.5t141.5 43.5q74 0 133 -46
q28 26 47.5 36t50.5 10q58 0 58 -52q0 -20 -12 -31.5t-32 -11.5q-38 0 -44 36q-4 24 -10 27q-3 1 -7 1q-11 0 -42 -23q40 -42 40 -97q0 -56 -44.5 -97.5t-135.5 -41.5q-65 0 -122 24q-18 -12 -27 -23t-10.5 -17.5t-1.5 -16.5q0 -49 74 -49zM256 167q39 0 58 25.5t19 102.5
q0 45 -4 70.5t-21.5 44.5t-51.5 19q-80 0 -80 -122q0 -87 20 -113.5t60 -26.5zM140 -157q0 -20 5.5 -39.5t18.5 -38.5t38.5 -31t61.5 -12q58 0 101 39t43 97q0 53 -31 75t-70 22h-104q-33 -26 -48 -50.5t-15 -61.5zM113 529l109 197h73l108 -197h-12l-133 127l-133 -127h-12
z" />
    <glyph glyph-name="Gbreve" unicode="&#x11e;" horiz-adv-x="778" 
d="M47 354q0 108 58.5 196t143.5 133t172 45q46 0 109.5 -18.5t75.5 -18.5q22 0 31 21h17v-204h-15q-54 207 -217 206q-31 0 -57.5 -6t-46.5 -16.5t-36 -25.5t-27 -33.5t-19.5 -40t-12.5 -44.5t-7.5 -48t-4 -50.5t-1.5 -51t0 -50.5v-24q0 -180 49 -252.5t163 -72.5
q36 0 61 11.5t40 29t23 47t10.5 58t2.5 69.5v38h-103v14h309v-14h-65v-229h-18q-4 23 -33 23q-25 0 -57 -15.5t-75 -30.5t-96 -15q-149 0 -261.5 108.5t-112.5 260.5zM279 945h12q24 -90 130 -90t130 90h12q1 -76 -37.5 -116t-104.5 -40t-104.5 40t-37.5 116z" />
    <glyph glyph-name="gbreve" unicode="&#x11f;" horiz-adv-x="537" 
d="M176 71h110q191 0 191 -159q0 -82 -65.5 -144.5t-171.5 -62.5q-59 0 -99.5 13.5t-58.5 34.5t-25 39t-7 35q0 49 39.5 81.5t93.5 46.5v2q-32 0 -62.5 8.5t-56.5 34.5t-26 65q0 12 4 27.5t26.5 44t60.5 49.5q-63 47 -63 106q0 64 53.5 107.5t141.5 43.5q74 0 133 -46
q28 26 47.5 36t50.5 10q58 0 58 -52q0 -20 -12 -31.5t-32 -11.5q-38 0 -44 36q-4 24 -10 27q-3 1 -7 1q-11 0 -42 -23q40 -42 40 -97q0 -56 -44.5 -97.5t-135.5 -41.5q-65 0 -122 24q-18 -12 -27 -23t-10.5 -17.5t-1.5 -16.5q0 -49 74 -49zM256 167q39 0 58 25.5t19 102.5
q0 45 -4 70.5t-21.5 44.5t-51.5 19q-80 0 -80 -122q0 -87 20 -113.5t60 -26.5zM140 -157q0 -20 5.5 -39.5t18.5 -38.5t38.5 -31t61.5 -12q58 0 101 39t43 97q0 53 -31 75t-70 22h-104q-33 -26 -48 -50.5t-15 -61.5zM116 712h12q24 -90 130 -90t130 90h12q1 -76 -37.5 -116
t-104.5 -40t-104.5 40t-37.5 116z" />
    <glyph glyph-name="Gdotaccent" unicode="&#x120;" horiz-adv-x="778" 
d="M47 354q0 108 58.5 196t143.5 133t172 45q46 0 109.5 -18.5t75.5 -18.5q22 0 31 21h17v-204h-15q-54 207 -217 206q-31 0 -57.5 -6t-46.5 -16.5t-36 -25.5t-27 -33.5t-19.5 -40t-12.5 -44.5t-7.5 -48t-4 -50.5t-1.5 -51t0 -50.5v-24q0 -180 49 -252.5t163 -72.5
q36 0 61 11.5t40 29t23 47t10.5 58t2.5 69.5v38h-103v14h309v-14h-65v-229h-18q-4 23 -33 23q-25 0 -57 -15.5t-75 -30.5t-96 -15q-149 0 -261.5 108.5t-112.5 260.5zM357 877q0 26 19 45t45 19t45 -19t19 -45t-19 -45t-45 -19t-45 19t-19 45z" />
    <glyph glyph-name="gdotaccent" unicode="&#x121;" horiz-adv-x="537" 
d="M176 71h110q191 0 191 -159q0 -82 -65.5 -144.5t-171.5 -62.5q-59 0 -99.5 13.5t-58.5 34.5t-25 39t-7 35q0 49 39.5 81.5t93.5 46.5v2q-32 0 -62.5 8.5t-56.5 34.5t-26 65q0 12 4 27.5t26.5 44t60.5 49.5q-63 47 -63 106q0 64 53.5 107.5t141.5 43.5q74 0 133 -46
q28 26 47.5 36t50.5 10q58 0 58 -52q0 -20 -12 -31.5t-32 -11.5q-38 0 -44 36q-4 24 -10 27q-3 1 -7 1q-11 0 -42 -23q40 -42 40 -97q0 -56 -44.5 -97.5t-135.5 -41.5q-65 0 -122 24q-18 -12 -27 -23t-10.5 -17.5t-1.5 -16.5q0 -49 74 -49zM256 167q39 0 58 25.5t19 102.5
q0 45 -4 70.5t-21.5 44.5t-51.5 19q-80 0 -80 -122q0 -87 20 -113.5t60 -26.5zM140 -157q0 -20 5.5 -39.5t18.5 -38.5t38.5 -31t61.5 -12q58 0 101 39t43 97q0 53 -31 75t-70 22h-104q-33 -26 -48 -50.5t-15 -61.5zM191 644q0 26 19 45t45 19t45 -19t19 -45t-19 -45t-45 -19
t-45 19t-19 45z" />
    <glyph glyph-name="Gcommaaccent" unicode="&#x122;" horiz-adv-x="778" 
d="M47 354q0 108 58.5 196t143.5 133t172 45q46 0 109.5 -18.5t75.5 -18.5q22 0 31 21h17v-204h-15q-54 207 -217 206q-31 0 -57.5 -6t-46.5 -16.5t-36 -25.5t-27 -33.5t-19.5 -40t-12.5 -44.5t-7.5 -48t-4 -50.5t-1.5 -51t0 -50.5v-24q0 -180 49 -252.5t163 -72.5
q36 0 61 11.5t40 29t23 47t10.5 58t2.5 69.5v38h-103v14h309v-14h-65v-229h-18q-4 23 -33 23q-25 0 -57 -15.5t-75 -30.5t-96 -15q-149 0 -261.5 108.5t-112.5 260.5zM385 -257l-8 12q82 44 82 90q0 15 -11 24q-13 -7 -31 -7q-19 0 -35 13t-16 38q0 24 17 36.5t39 12.5
q30 0 49 -22.5t19 -61.5q0 -25 -9.5 -47t-28.5 -39t-32 -26.5t-35 -22.5z" />
    <glyph glyph-name="gcommaaccent" unicode="&#x123;" horiz-adv-x="537" 
d="M176 71h110q191 0 191 -159q0 -82 -65.5 -144.5t-171.5 -62.5q-59 0 -99.5 13.5t-58.5 34.5t-25 39t-7 35q0 49 39.5 81.5t93.5 46.5v2q-32 0 -62.5 8.5t-56.5 34.5t-26 65q0 12 4 27.5t26.5 44t60.5 49.5q-63 47 -63 106q0 64 53.5 107.5t141.5 43.5q74 0 133 -46
q28 26 47.5 36t50.5 10q58 0 58 -52q0 -20 -12 -31.5t-32 -11.5q-38 0 -44 36q-4 24 -10 27q-3 1 -7 1q-11 0 -42 -23q40 -42 40 -97q0 -56 -44.5 -97.5t-135.5 -41.5q-65 0 -122 24q-18 -12 -27 -23t-10.5 -17.5t-1.5 -16.5q0 -49 74 -49zM256 167q39 0 58 25.5t19 102.5
q0 45 -4 70.5t-21.5 44.5t-51.5 19q-80 0 -80 -122q0 -87 20 -113.5t60 -26.5zM140 -157q0 -20 5.5 -39.5t18.5 -38.5t38.5 -31t61.5 -12q58 0 101 39t43 97q0 53 -31 75t-70 22h-104q-33 -26 -48 -50.5t-15 -61.5zM300 746l8 -12q-82 -44 -82 -90q0 -15 11 -24q13 7 31 7
q19 0 35 -13t16 -38q0 -24 -17 -36.5t-39 -12.5q-30 0 -49 22.5t-19 61.5q0 25 9.5 47t28.5 39t32 26.5t35 22.5z" />
    <glyph glyph-name="Hcircumflex" unicode="&#x124;" horiz-adv-x="833" 
d="M35 0v14h92v684h-92v14h329v-14h-92v-328h289v328h-92v14h329v-14h-92v-684h92v-14h-329v14h92v342h-289v-342h92v-14h-329zM271 762l109 197h73l108 -197h-12l-133 127l-133 -127h-12z" />
    <glyph glyph-name="hcircumflex" unicode="&#x125;" horiz-adv-x="630" 
d="M37 0v14h66v693h-66v14h188v-388h2q6 14 10 20.5t18.5 25.5t30.5 29.5t44 20t62 9.5q64 0 101.5 -38.5t37.5 -103.5v-282h67v-14h-251v14h62v316q0 81 -63 81q-51 0 -86 -48t-35 -135v-214h63v-14h-251zM107 775l109 197h73l108 -197h-12l-133 127l-133 -127h-12z" />
    <glyph glyph-name="Hbar" unicode="&#x126;" horiz-adv-x="833" 
d="M35 698v14h329v-14h-92v-148h289v148h-92v14h329v-14h-92v-684h92v-14h-329v14h92v342h-289v-342h92v-14h-329v14h92v684h-92zM272 370h289v166h-289v-166z" />
    <glyph glyph-name="hbar" unicode="&#x127;" horiz-adv-x="630" 
d="M37 0v14h66v548h-61v20h61v125h-66v14h188v-139h119v-20h-119v-229h2q6 14 10 20.5t18.5 25.5t30.5 29.5t44 20t62 9.5q64 0 101.5 -38.5t37.5 -103.5v-282h67v-14h-251v14h62v316q0 81 -63 81q-51 0 -86 -48t-35 -135v-214h63v-14h-251z" />
    <glyph glyph-name="Itilde" unicode="&#x128;" horiz-adv-x="407" 
d="M39 0v14h92v684h-92v14h329v-14h-92v-684h92v-14h-329zM74 829l-12 -27h-14l19 51t12.5 26t16.5 21q22 18 51 18q10 0 81.5 -20t77.5 -20q17 0 27.5 17.5t12.5 28.5h14q-5 -24 -14.5 -46.5t-31.5 -46t-50 -23.5q-21 0 -84 20.5t-78 20.5q-19 0 -28 -20z" />
    <glyph glyph-name="itilde" unicode="&#x129;" horiz-adv-x="315" 
d="M36 415v14h189v-415h67v-14h-256v14h67v401h-67zM31 596l-12 -27h-14l19 51t12.5 26t16.5 21q22 18 51 18q10 0 81.5 -20t77.5 -20q17 0 27.5 17.5t12.5 28.5h14q-5 -24 -14.5 -46.5t-31.5 -46t-50 -23.5q-21 0 -84 20.5t-78 20.5q-19 0 -28 -20z" />
    <glyph glyph-name="Imacron" unicode="&#x12a;" horiz-adv-x="407" 
d="M39 0v14h92v684h-92v14h329v-14h-92v-684h92v-14h-329zM43 845v30h322v-30h-322z" />
    <glyph glyph-name="imacron" unicode="&#x12b;" horiz-adv-x="315" 
d="M36 415v14h189v-415h67v-14h-256v14h67v401h-67zM0 612v30h322v-30h-322z" />
    <glyph glyph-name="Ibreve" unicode="&#x12c;" horiz-adv-x="407" 
d="M39 0v14h92v684h-92v14h329v-14h-92v-684h92v-14h-329zM69 945h12q24 -90 130 -90t130 90h12q1 -76 -37.5 -116t-104.5 -40t-104.5 40t-37.5 116z" />
    <glyph glyph-name="ibreve" unicode="&#x12d;" horiz-adv-x="315" 
d="M36 415v14h189v-415h67v-14h-256v14h67v401h-67zM19 712h12q24 -90 130 -90t130 90h12q1 -76 -37.5 -116t-104.5 -40t-104.5 40t-37.5 116z" />
    <glyph glyph-name="Iogonek" unicode="&#x12e;" horiz-adv-x="407" 
d="M159 -42l79 42h-199v14h92v684h-92v14h329v-14h-92v-684h92v-14h-109q-95 -81 -95 -123q0 -47 44 -47q25 0 44 14l7 -12q-29 -20 -46 -26t-46 -6q-41 0 -63 19.5t-22 47.5q0 50 77 91z" />
    <glyph glyph-name="iogonek" unicode="&#x12f;" horiz-adv-x="315" 
d="M93 644q0 29 21 50t50 21t50 -21t21 -50t-21 -50t-50 -21t-50 21t-21 50zM111 -42l79 42h-154v14h67v401h-67v14h189v-415h67v-14h-81q-95 -81 -95 -123q0 -47 44 -47q25 0 44 14l7 -12q-29 -20 -46 -26t-46 -6q-41 0 -63 19.5t-22 47.5q0 50 77 91z" />
    <glyph glyph-name="Idotaccent" unicode="&#x130;" horiz-adv-x="407" 
d="M39 0v14h92v684h-92v14h329v-14h-92v-684h92v-14h-329zM140 877q0 26 19 45t45 19t45 -19t19 -45t-19 -45t-45 -19t-45 19t-19 45z" />
    <glyph glyph-name="dotlessi" unicode="&#x131;" horiz-adv-x="315" 
d="M36 415v14h189v-415h67v-14h-256v14h67v401h-67z" />
    <glyph glyph-name="Jcircumflex" unicode="&#x134;" horiz-adv-x="500" 
d="M22 93q0 71 79 71q61 0 61 -48q0 -10 -7 -41t-7 -36q0 -40 44 -40q15 0 24.5 6t13 18t4.5 20.5t1 21.5v633h-92v14h329v-14h-92v-494q0 -28 -1.5 -48.5t-12.5 -55.5t-30.5 -57.5t-59.5 -40t-96 -17.5q-64 0 -111 25t-47 83zM160 762l109 197h73l108 -197h-12l-133 127
l-133 -127h-12z" />
    <glyph glyph-name="jcircumflex" unicode="&#x135;" horiz-adv-x="333" 
d="M119 -212v627h-67v14h189v-472q0 -244 -167 -244q-54 0 -89 23t-35 62q0 56 56 56q53 0 53 -44q0 -8 -4 -26t-4 -25q0 -9 1 -14.5t8.5 -11.5t22.5 -6q19 0 27.5 12t8.5 49zM23 529l109 197h73l108 -197h-12l-133 127l-133 -127h-12z" />
    <glyph glyph-name="Kcommaaccent" unicode="&#x136;" horiz-adv-x="778" 
d="M42 0v14h92v684h-92v14h329v-14h-92v-320h8l306 320h-101v14h200v-14h-80l-223 -234l346 -450h62v-14h-334v14h90l-266 350h-8v-350h92v-14h-329zM374 -257l-8 12q82 44 82 90q0 15 -11 24q-13 -7 -31 -7q-19 0 -35 13t-16 38q0 24 17 36.5t39 12.5q30 0 49 -22.5
t19 -61.5q0 -25 -9.5 -47t-28.5 -39t-32 -26.5t-35 -22.5z" />
    <glyph glyph-name="kcommaaccent" unicode="&#x137;" horiz-adv-x="593" 
d="M35 707v14h188v-477h5l186 171h-73v14h157v-14h-64l-112 -106l229 -295h39v-14h-265v14h72l-169 216h-5v-216h62v-14h-250v14h66v693h-66zM274 -257l-8 12q82 44 82 90q0 15 -11 24q-13 -7 -31 -7q-19 0 -35 13t-16 38q0 24 17 36.5t39 12.5q30 0 49 -22.5t19 -61.5
q0 -25 -9.5 -47t-28.5 -39t-32 -26.5t-35 -22.5z" />
    <glyph glyph-name="kgreenlandic" unicode="&#x138;" horiz-adv-x="593" 
d="M35 415v14h188v-185h5l186 171h-73v14h157v-14h-64l-112 -106l229 -295h39v-14h-265v14h72l-169 216h-5v-216h62v-14h-250v14h66v401h-66z" />
    <glyph glyph-name="Lacute" unicode="&#x139;" horiz-adv-x="722" 
d="M46 0v14h92v684h-92v14h329v-14h-92v-684h165q73 0 134 51.5t85 160.5h13v-226h-634zM152 762l88 176q16 31 42 31q10 0 21.5 -8.5t11.5 -21.5q0 -17 -9 -27l-141 -150h-13z" />
    <glyph glyph-name="lacute" unicode="&#x13a;" horiz-adv-x="315" 
d="M36 707v14h189v-707h67v-14h-256v14h67v693h-67zM96 743l88 176q16 31 42 31q10 0 21.5 -8t11.5 -22q0 -17 -9 -27l-141 -150h-13z" />
    <glyph glyph-name="Lcommaaccent" unicode="&#x13b;" horiz-adv-x="722" 
d="M46 0v14h92v684h-92v14h329v-14h-92v-684h165q73 0 134 51.5t85 160.5h13v-226h-634zM340 -257l-8 12q82 44 82 90q0 15 -11 24q-13 -7 -31 -7q-19 0 -35 13t-16 38q0 24 17 36.5t39 12.5q30 0 49 -22.5t19 -61.5q0 -25 -9.5 -47t-28.5 -39t-32 -26.5t-35 -22.5z" />
    <glyph glyph-name="lcommaaccent" unicode="&#x13c;" horiz-adv-x="315" 
d="M36 707v14h189v-707h67v-14h-256v14h67v693h-67zM131 -257l-8 12q82 44 82 90q0 15 -11 24q-13 -7 -31 -7q-19 0 -35 13t-16 38q0 24 17 36.5t39 12.5q30 0 49 -22.5t19 -61.5q0 -25 -9.5 -47t-28.5 -39t-32 -26.5t-35 -22.5z" />
    <glyph glyph-name="Lcaron" unicode="&#x13d;" horiz-adv-x="722" 
d="M46 0v14h92v684h-92v14h329v-14h-92v-684h165q73 0 134 51.5t85 160.5h13v-226h-634zM441 544l4 133q3 46 39 46q15 0 24.5 -10t9.5 -26q0 -3 -2 -11l-64 -132h-11z" />
    <glyph glyph-name="lcaron" unicode="&#x13e;" horiz-adv-x="315" 
d="M36 707v14h189v-707h67v-14h-256v14h67v693h-67zM295 544l4 133q3 46 39 46q15 0 24.5 -10t9.5 -26q0 -3 -2 -11l-64 -132h-11z" />
    <glyph glyph-name="Ldot" unicode="&#x13f;" horiz-adv-x="722" 
d="M46 0v14h92v684h-92v14h329v-14h-92v-684h165q73 0 134 51.5t85 160.5h13v-226h-634zM495 364q0 26 19 45t45 19t45 -19t19 -45t-19 -45t-45 -19t-45 19t-19 45z" />
    <glyph glyph-name="ldot" unicode="&#x140;" horiz-adv-x="441" 
d="M36 707v14h189v-707h67v-14h-256v14h67v693h-67zM316 364q0 26 19 45t45 19t45 -19t19 -45t-19 -45t-45 -19t-45 19t-19 45z" />
    <glyph glyph-name="Lslash" unicode="&#x141;" horiz-adv-x="722" 
d="M138 14v315l-92 -52v20l92 52v349h-92v14h329v-14h-92v-274l148 83v-20l-148 -83v-390h165q73 0 134 51.5t85 160.5h13v-226h-634v14h92z" />
    <glyph glyph-name="lslash" unicode="&#x142;" horiz-adv-x="315" 
d="M103 359v348h-67v14h189v-291l67 39v-20l-67 -39v-396h67v-14h-256v14h67v325l-67 -39v20z" />
    <glyph glyph-name="Nacute" unicode="&#x143;" horiz-adv-x="741" 
d="M34 0v14h92v684h-92v14h236l333 -476h2v462h-92v14h200v-14h-92v-698h-27l-450 641h-2v-627h92v-14h-200zM329 762l88 176q15 31 42 31q10 0 21.5 -8.5t11.5 -21.5q0 -17 -9 -27l-141 -150h-13z" />
    <glyph glyph-name="nacute" unicode="&#x144;" horiz-adv-x="630" 
d="M42 0v14h66v401h-66v14h186v-100h2q48 109 167 109q64 0 101.5 -38.5t37.5 -103.5v-282h67v-14h-251v14h62v316q0 81 -63 81q-51 0 -86 -48t-35 -135v-214h63v-14h-251zM270 529l88 176q16 31 42 31q10 0 21.5 -8t11.5 -22q0 -17 -9 -27l-141 -150h-13z" />
    <glyph glyph-name="Ncommaaccent" unicode="&#x145;" horiz-adv-x="741" 
d="M34 0v14h92v684h-92v14h236l333 -476h2v462h-92v14h200v-14h-92v-698h-27l-450 641h-2v-627h92v-14h-200zM354 -257l-8 12q82 44 82 90q0 15 -11 24q-13 -7 -31 -7q-19 0 -35 13t-16 38q0 24 17 36.5t39 12.5q30 0 49 -22.5t19 -61.5q0 -25 -9.5 -47t-28.5 -39t-32 -26.5
t-35 -22.5z" />
    <glyph glyph-name="ncommaaccent" unicode="&#x146;" horiz-adv-x="630" 
d="M42 0v14h66v401h-66v14h186v-100h2q48 109 167 109q64 0 101.5 -38.5t37.5 -103.5v-282h67v-14h-251v14h62v316q0 81 -63 81q-51 0 -86 -48t-35 -135v-214h63v-14h-251zM289 -257l-8 12q82 44 82 90q0 15 -11 24q-13 -7 -31 -7q-19 0 -35 13t-16 38q0 24 17 36.5t39 12.5
q30 0 49 -22.5t19 -61.5q0 -25 -9.5 -47t-28.5 -39t-32 -26.5t-35 -22.5z" />
    <glyph glyph-name="Ncaron" unicode="&#x147;" horiz-adv-x="741" 
d="M34 0v14h92v684h-92v14h236l333 -476h2v462h-92v14h200v-14h-92v-698h-27l-450 641h-2v-627h92v-14h-200zM520 959l-109 -197h-73l-108 197h12l133 -127l133 127h12z" />
    <glyph glyph-name="ncaron" unicode="&#x148;" horiz-adv-x="630" 
d="M42 0v14h66v401h-66v14h186v-100h2q48 109 167 109q64 0 101.5 -38.5t37.5 -103.5v-282h67v-14h-251v14h62v316q0 81 -63 81q-51 0 -86 -48t-35 -135v-214h63v-14h-251zM480 726l-109 -197h-73l-108 197h12l133 -127l133 127h12z" />
    <glyph glyph-name="Eng" unicode="&#x14a;" horiz-adv-x="741" 
d="M34 698v14h236l333 -476h2v462h-92v14h200v-14h-92v-741q0 -244 -167 -244q-54 0 -89 23t-35 62q0 56 56 56q53 0 53 -44q0 -8 -4 -26t-4 -25q0 -8 1 -12t8.5 -7t22.5 -3q54 0 90.5 59.5t36.5 160.5v48l-446 636h-2v-627h92v-14h-200v14h92v684h-92z" />
    <glyph glyph-name="eng" unicode="&#x14b;" horiz-adv-x="617" 
d="M413 215l1 2v113q0 81 -63 81q-51 0 -86 -48t-35 -135v-214h63v-14h-251v14h66v401h-66v14h186v-100h2q48 109 167 109q64 0 101 -38t37 -102v-341q0 -244 -167 -244q-54 0 -89 23t-35 62q0 56 56 56q53 0 53 -44q0 -8 -4 -26t-4 -25q0 -9 1 -14.5t8.5 -11.5t22.5 -6
q19 0 27.5 12t8.5 49v427z" />
    <glyph glyph-name="Omacron" unicode="&#x14c;" horiz-adv-x="833" 
d="M42 354q0 81 34.5 153t89 119.5t120.5 74.5t131 27q94 0 178.5 -44t140 -131t55.5 -196q0 -150 -112 -261t-262 -111t-262.5 108.5t-112.5 260.5zM205 354q0 -138 22.5 -216t67 -108.5t122.5 -30.5q48 0 84 11.5t58.5 37t36.5 54.5t21 75t9 86t2 100q0 41 -1 69t-4 64
t-9 60.5t-16 51.5t-26 44.5t-37.5 32.5t-51 22t-66.5 7q-55 0 -94 -18t-61.5 -47.5t-35.5 -78t-17 -97.5t-4 -119zM256 845v30h322v-30h-322z" />
    <glyph glyph-name="omacron" unicode="&#x14d;" horiz-adv-x="556" 
d="M278 443q102 0 173 -67.5t71 -160.5q0 -94 -71 -161.5t-173 -67.5t-173 67.5t-71 161.5q0 93 71 160.5t173 67.5zM278 0q37 0 60.5 17t33.5 52t12.5 65.5t2.5 80.5t-2.5 80.5t-12.5 65t-33.5 51.5t-60.5 17t-60.5 -17t-33.5 -51.5t-12.5 -65t-2.5 -80.5t2.5 -80.5
t12.5 -65.5t33.5 -52t60.5 -17zM116 612v30h322v-30h-322z" />
    <glyph glyph-name="Obreve" unicode="&#x14e;" horiz-adv-x="833" 
d="M42 354q0 81 34.5 153t89 119.5t120.5 74.5t131 27q94 0 178.5 -44t140 -131t55.5 -196q0 -150 -112 -261t-262 -111t-262.5 108.5t-112.5 260.5zM205 354q0 -138 22.5 -216t67 -108.5t122.5 -30.5q48 0 84 11.5t58.5 37t36.5 54.5t21 75t9 86t2 100q0 41 -1 69t-4 64
t-9 60.5t-16 51.5t-26 44.5t-37.5 32.5t-51 22t-66.5 7q-55 0 -94 -18t-61.5 -47.5t-35.5 -78t-17 -97.5t-4 -119zM275 945h12q24 -90 130 -90t130 90h12q1 -76 -37.5 -116t-104.5 -40t-104.5 40t-37.5 116z" />
    <glyph glyph-name="obreve" unicode="&#x14f;" horiz-adv-x="556" 
d="M278 443q102 0 173 -67.5t71 -160.5q0 -94 -71 -161.5t-173 -67.5t-173 67.5t-71 161.5q0 93 71 160.5t173 67.5zM278 0q37 0 60.5 17t33.5 52t12.5 65.5t2.5 80.5t-2.5 80.5t-12.5 65t-33.5 51.5t-60.5 17t-60.5 -17t-33.5 -51.5t-12.5 -65t-2.5 -80.5t2.5 -80.5
t12.5 -65.5t33.5 -52t60.5 -17zM135 712h12q24 -90 130 -90t130 90h12q1 -76 -37.5 -116t-104.5 -40t-104.5 40t-37.5 116z" />
    <glyph glyph-name="Ohungarumlaut" unicode="&#x150;" horiz-adv-x="833" 
d="M42 354q0 81 34.5 153t89 119.5t120.5 74.5t131 27q94 0 178.5 -44t140 -131t55.5 -196q0 -150 -112 -261t-262 -111t-262.5 108.5t-112.5 260.5zM205 354q0 -138 22.5 -216t67 -108.5t122.5 -30.5q48 0 84 11.5t58.5 37t36.5 54.5t21 75t9 86t2 100q0 41 -1 69t-4 64
t-9 60.5t-16 51.5t-26 44.5t-37.5 32.5t-51 22t-66.5 7q-55 0 -94 -18t-61.5 -47.5t-35.5 -78t-17 -97.5t-4 -119zM462 762l88 176q16 31 42 31q10 0 21.5 -8.5t11.5 -21.5q0 -17 -9 -27l-141 -150h-13zM340 762l88 176q16 31 42 31q10 0 21.5 -8.5t11.5 -21.5q0 -17 -9 -27
l-141 -150h-13z" />
    <glyph glyph-name="ohungarumlaut" unicode="&#x151;" horiz-adv-x="556" 
d="M278 443q102 0 173 -67.5t71 -160.5q0 -94 -71 -161.5t-173 -67.5t-173 67.5t-71 161.5q0 93 71 160.5t173 67.5zM278 0q37 0 60.5 17t33.5 52t12.5 65.5t2.5 80.5t-2.5 80.5t-12.5 65t-33.5 51.5t-60.5 17t-60.5 -17t-33.5 -51.5t-12.5 -65t-2.5 -80.5t2.5 -80.5
t12.5 -65.5t33.5 -52t60.5 -17zM321 529l88 176q15 31 42 31q10 0 21.5 -8t11.5 -22q0 -17 -9 -27l-141 -150h-13zM199 529l88 176q15 31 42 31q10 0 21.5 -8t11.5 -22q0 -17 -9 -27l-141 -150h-13z" />
    <glyph glyph-name="OE" unicode="&#x152;" horiz-adv-x="1093" 
d="M1059 219v-219h-476q-26 0 -78 -3t-78 -3q-74 0 -138 23.5t-107 61.5t-74 85.5t-45 94t-14 89.5q0 154 115 262t262 108q30 0 91 -3t91 -3h410v-171h-13q-50 157 -189 157h-159v-309h56q69 0 102 37.5t49 111.5h13v-311h-13q-16 70 -46.5 109t-93.5 39h-67v-361h164
q88 0 146 56.5t79 148.5h13zM512 17v678q-50 9 -87 9q-42 0 -75 -10.5t-55.5 -27t-38 -45t-24 -55.5t-13.5 -67t-6 -71.5t-1 -77.5q0 -192 47.5 -267t167.5 -75q45 0 85 9z" />
    <glyph glyph-name="oe" unicode="&#x153;" horiz-adv-x="852" 
d="M816 251h-295v-45q0 -34 1.5 -58.5t9 -54.5t20.5 -48.5t37.5 -31.5t58.5 -13q37 0 67 14.5t46 35.5t25 38t10 28l14 -5q-13 -48 -56 -86.5t-119 -38.5q-112 0 -182 68q-73 -68 -173 -68q-102 0 -173 67.5t-71 161.5q0 93 71 160.5t173 67.5q107 0 176 -72q69 72 165 72
q77 0 136 -49t59 -143zM521 265h160v67q0 97 -65 97q-22 0 -38 -6.5t-26 -22t-16 -27.5t-9 -36.5t-4 -35t-2 -36.5zM280 0q37 0 60.5 17t33.5 52t12.5 65.5t2.5 80.5t-2.5 80.5t-12.5 65t-33.5 51.5t-60.5 17t-60.5 -17t-33.5 -51.5t-12.5 -65t-2.5 -80.5t2.5 -80.5
t12.5 -65.5t33.5 -52t60.5 -17z" />
    <glyph glyph-name="Racute" unicode="&#x154;" horiz-adv-x="722" 
d="M127 14v684h-92v14h151q28 0 83 1.5t83 1.5q43 0 83 -8.5t78 -27t61 -53.5t23 -82q0 -73 -58.5 -111t-138.5 -44v-5q50 -9 73 -14t55.5 -18t47.5 -30t27.5 -47t15.5 -72q11 -145 19 -168q13 -26 40 -27q6 0 12.5 2t10.5 3.5t10.5 6.5t8 6.5t8.5 7.5l6 7l10 -9
q-18 -18 -27 -25t-32.5 -14.5t-57.5 -7.5q-42 0 -72 12.5t-45 28.5t-24 44t-11 45t-3 46q-2 43 -4 65t-10 56t-21 50.5t-38 29.5t-61 13h-66v-361h92v-14h-329v14h92zM272 698v-309h41q43 0 70.5 11.5t39.5 34t16 44t4 54.5q0 91 -27 129.5t-100 38.5q-7 0 -14 -0.5
t-16 -1.5t-14 -1zM265 762l88 176q15 31 42 31q10 0 21.5 -8.5t11.5 -21.5q0 -17 -9 -27l-141 -150h-13z" />
    <glyph glyph-name="racute" unicode="&#x155;" horiz-adv-x="444" 
d="M41 415v14h185v-84h2q44 93 129 93q42 0 68 -23t26 -62q0 -64 -61 -64t-61 45q0 4 3.5 26t3.5 24q0 24 -23 24q-25 0 -55 -40t-30 -98v-256h79v-14h-266v14h65v401h-65zM165 529l88 176q15 31 42 31q10 0 21.5 -8t11.5 -22q0 -17 -9 -27l-141 -150h-13z" />
    <glyph glyph-name="Rcommaaccent" unicode="&#x156;" horiz-adv-x="722" 
d="M127 14v684h-92v14h151q28 0 83 1.5t83 1.5q43 0 83 -8.5t78 -27t61 -53.5t23 -82q0 -73 -58.5 -111t-138.5 -44v-5q50 -9 73 -14t55.5 -18t47.5 -30t27.5 -47t15.5 -72q11 -145 19 -168q13 -26 40 -27q6 0 12.5 2t10.5 3.5t10.5 6.5t8 6.5t8.5 7.5l6 7l10 -9
q-18 -18 -27 -25t-32.5 -14.5t-57.5 -7.5q-42 0 -72 12.5t-45 28.5t-24 44t-11 45t-3 46q-2 43 -4 65t-10 56t-21 50.5t-38 29.5t-61 13h-66v-361h92v-14h-329v14h92zM272 698v-309h41q43 0 70.5 11.5t39.5 34t16 44t4 54.5q0 91 -27 129.5t-100 38.5q-7 0 -14 -0.5
t-16 -1.5t-14 -1zM344 -257l-8 12q82 44 82 90q0 15 -11 24q-13 -7 -31 -7q-19 0 -35 13t-16 38q0 24 17 36.5t39 12.5q30 0 49 -22.5t19 -61.5q0 -25 -9.5 -47t-28.5 -39t-32 -26.5t-35 -22.5z" />
    <glyph glyph-name="rcommaaccent" unicode="&#x157;" horiz-adv-x="444" 
d="M41 415v14h185v-84h2q44 93 129 93q42 0 68 -23t26 -62q0 -64 -61 -64t-61 45q0 4 3.5 26t3.5 24q0 24 -23 24q-25 0 -55 -40t-30 -98v-256h79v-14h-266v14h65v401h-65zM136 -257l-8 12q82 44 82 90q0 15 -11 24q-13 -7 -31 -7q-19 0 -35 13t-16 38q0 24 17 36.5t39 12.5
q30 0 49 -22.5t19 -61.5q0 -25 -9.5 -47t-28.5 -39t-32 -26.5t-35 -22.5z" />
    <glyph glyph-name="Rcaron" unicode="&#x158;" horiz-adv-x="722" 
d="M127 14v684h-92v14h151q28 0 83 1.5t83 1.5q43 0 83 -8.5t78 -27t61 -53.5t23 -82q0 -73 -58.5 -111t-138.5 -44v-5q50 -9 73 -14t55.5 -18t47.5 -30t27.5 -47t15.5 -72q11 -145 19 -168q13 -26 40 -27q6 0 12.5 2t10.5 3.5t10.5 6.5t8 6.5t8.5 7.5l6 7l10 -9
q-18 -18 -27 -25t-32.5 -14.5t-57.5 -7.5q-42 0 -72 12.5t-45 28.5t-24 44t-11 45t-3 46q-2 43 -4 65t-10 56t-21 50.5t-38 29.5t-61 13h-66v-361h92v-14h-329v14h92zM272 698v-309h41q43 0 70.5 11.5t39.5 34t16 44t4 54.5q0 91 -27 129.5t-100 38.5q-7 0 -14 -0.5
t-16 -1.5t-14 -1zM463 959l-109 -197h-73l-108 197h12l133 -127l133 127h12z" />
    <glyph glyph-name="rcaron" unicode="&#x159;" horiz-adv-x="444" 
d="M41 415v14h185v-84h2q44 93 129 93q42 0 68 -23t26 -62q0 -64 -61 -64t-61 45q0 4 3.5 26t3.5 24q0 24 -23 24q-25 0 -55 -40t-30 -98v-256h79v-14h-266v14h65v401h-65zM358 726l-109 -197h-73l-108 197h12l133 -127l133 127h12z" />
    <glyph glyph-name="Sacute" unicode="&#x15a;" horiz-adv-x="648" 
d="M63 0v222h15q19 -102 81 -163q28 -28 60 -42t49.5 -16t45.5 -2q49 0 86 16.5t55 42t26.5 50t8.5 46.5q0 35 -17.5 61t-46.5 40t-66 27t-76 23t-76 27t-66 39t-46.5 61t-17.5 90q0 82 69 144t172 62q51 0 102 -18.5t60 -18.5q13 0 18 4t10 17h16v-190h-13l-16.5 47t-18 43
t-25.5 41.5t-32.5 30.5t-45 23t-56.5 7q-75 0 -120 -38.5t-45 -86.5q0 -37 23.5 -64t61.5 -42.5t84 -29.5t91.5 -30.5t83.5 -39t61.5 -62t23.5 -93.5q0 -100 -78 -171.5t-198 -71.5q-48 0 -118.5 19t-77.5 19q-13 0 -19.5 -4.5t-11.5 -18.5h-16zM272 762l88 176q16 31 42 31
q10 0 21.5 -8.5t11.5 -21.5q0 -17 -9 -27l-141 -150h-13z" />
    <glyph glyph-name="sacute" unicode="&#x15b;" horiz-adv-x="426" 
d="M44 0v145h14q12 -29 19 -44.5t21.5 -38t28.5 -34t36 -20t49 -8.5q89 0 89 77q0 23 -15.5 41t-63.5 36l-81 30q-91 34 -91 116q0 60 46.5 101.5t117.5 41.5q29 0 65.5 -12.5t40.5 -12.5q15 0 19 13h14v-122h-13q-13 32 -21 47.5t-23.5 35.5t-37 28.5t-51.5 8.5
q-36 0 -62 -18t-26 -51q0 -9 2 -16.5t8.5 -17.5t22.5 -20t40 -18l85 -29q110 -38 110 -129q0 -64 -51 -104t-120 -40q-28 0 -79.5 14t-60.5 14q-12 0 -18 -14h-14zM159 529l88 176q15 31 42 31q10 0 21.5 -8t11.5 -22q0 -17 -9 -27l-141 -150h-13z" />
    <glyph glyph-name="Scircumflex" unicode="&#x15c;" horiz-adv-x="648" 
d="M63 0v222h15q19 -102 81 -163q28 -28 60 -42t49.5 -16t45.5 -2q49 0 86 16.5t55 42t26.5 50t8.5 46.5q0 35 -17.5 61t-46.5 40t-66 27t-76 23t-76 27t-66 39t-46.5 61t-17.5 90q0 82 69 144t172 62q51 0 102 -18.5t60 -18.5q13 0 18 4t10 17h16v-190h-13l-16.5 47t-18 43
t-25.5 41.5t-32.5 30.5t-45 23t-56.5 7q-75 0 -120 -38.5t-45 -86.5q0 -37 23.5 -64t61.5 -42.5t84 -29.5t91.5 -30.5t83.5 -39t61.5 -62t23.5 -93.5q0 -100 -78 -171.5t-198 -71.5q-48 0 -118.5 19t-77.5 19q-13 0 -19.5 -4.5t-11.5 -18.5h-16zM174 762l109 197h73
l108 -197h-12l-133 127l-133 -127h-12z" />
    <glyph glyph-name="scircumflex" unicode="&#x15d;" horiz-adv-x="426" 
d="M44 0v145h14q12 -29 19 -44.5t21.5 -38t28.5 -34t36 -20t49 -8.5q89 0 89 77q0 23 -15.5 41t-63.5 36l-81 30q-91 34 -91 116q0 60 46.5 101.5t117.5 41.5q29 0 65.5 -12.5t40.5 -12.5q15 0 19 13h14v-122h-13q-13 32 -21 47.5t-23.5 35.5t-37 28.5t-51.5 8.5
q-36 0 -62 -18t-26 -51q0 -9 2 -16.5t8.5 -17.5t22.5 -20t40 -18l85 -29q110 -38 110 -129q0 -64 -51 -104t-120 -40q-28 0 -79.5 14t-60.5 14q-12 0 -18 -14h-14zM66 529l109 197h73l108 -197h-12l-133 127l-133 -127h-12z" />
    <glyph glyph-name="Scedilla" unicode="&#x15e;" horiz-adv-x="648" 
d="M259 -80l60 65h-13q-48 0 -118.5 19t-77.5 19q-13 0 -19.5 -4.5t-11.5 -18.5h-16v222h15q19 -102 81 -163q28 -28 60 -42t49.5 -16t45.5 -2q49 0 86 16.5t55 42t26.5 50t8.5 46.5q0 35 -17.5 61t-46.5 40t-66 27t-76 23t-76 27t-66 39t-46.5 61t-17.5 90q0 82 69 144
t172 62q51 0 102 -18.5t60 -18.5q13 0 18 4t10 17h16v-190h-13l-16.5 47t-18 43t-25.5 41.5t-32.5 30.5t-45 23t-56.5 7q-75 0 -120 -38.5t-45 -86.5q0 -37 23.5 -64t61.5 -42.5t84 -29.5t91.5 -30.5t83.5 -39t61.5 -62t23.5 -93.5q0 -93 -67.5 -162t-174.5 -79l-58 -60
l2 -2q30 14 52 14q36 0 63.5 -24.5t27.5 -60.5q0 -45 -33.5 -70t-79.5 -25q-40 0 -80 30l9 12q33 -22 58 -22q47 0 47 71q0 14 -1 22.5t-4 20t-11.5 17.5t-21.5 6q-20 0 -37 -10z" />
    <glyph glyph-name="scedilla" unicode="&#x15f;" horiz-adv-x="426" 
d="M144 -79l60 66q-26 2 -72.5 14.5t-55.5 12.5q-12 0 -18 -14h-14v145h14q12 -29 19 -44.5t21.5 -38t28.5 -34t36 -20t49 -8.5h5h5q79 3 79 77q0 23 -15.5 41t-63.5 36l-81 30q-91 34 -91 116q0 60 46.5 101.5t117.5 41.5q29 0 65.5 -12.5t40.5 -12.5q15 0 19 13h14v-122
h-13q-13 32 -21 47.5t-23.5 35.5t-37 28.5t-51.5 8.5q-36 0 -62 -18t-26 -51q0 -9 2 -16.5t8.5 -17.5t22.5 -20t40 -18l85 -29q110 -38 110 -129q0 -62 -48.5 -102t-115.5 -42l-56 -58l2 -2q30 14 52 14q36 0 63.5 -24.5t27.5 -60.5q0 -45 -33.5 -70t-79.5 -25q-39 0 -80 30
l9 12q33 -22 58 -22q47 0 47 71q0 14 -1 22.5t-4 20t-11.5 17.5t-21.5 6q-20 0 -37 -10z" />
    <glyph glyph-name="Scaron" unicode="&#x160;" horiz-adv-x="648" 
d="M469 959l-109 -197h-73l-108 197h12l133 -127l133 127h12zM63 0v222h15q19 -102 81 -163q28 -28 60 -42t49.5 -16t45.5 -2q49 0 86 16.5t55 42t26.5 50t8.5 46.5q0 35 -17.5 61t-46.5 40t-66 27t-76 23t-76 27t-66 39t-46.5 61t-17.5 90q0 82 69 144t172 62
q51 0 102 -18.5t60 -18.5q13 0 18 4t10 17h16v-190h-13l-16.5 47t-18 43t-25.5 41.5t-32.5 30.5t-45 23t-56.5 7q-75 0 -120 -38.5t-45 -86.5q0 -37 23.5 -64t61.5 -42.5t84 -29.5t91.5 -30.5t83.5 -39t61.5 -62t23.5 -93.5q0 -100 -78 -171.5t-198 -71.5q-48 0 -118.5 19
t-77.5 19q-13 0 -19.5 -4.5t-11.5 -18.5h-16z" />
    <glyph glyph-name="scaron" unicode="&#x161;" horiz-adv-x="426" 
d="M358 726l-109 -197h-73l-108 197h12l133 -127l133 127h12zM44 0v145h14q12 -29 19 -44.5t21.5 -38t28.5 -34t36 -20t49 -8.5q89 0 89 77q0 23 -15.5 41t-63.5 36l-81 30q-91 34 -91 116q0 60 46.5 101.5t117.5 41.5q29 0 65.5 -12.5t40.5 -12.5q15 0 19 13h14v-122h-13
q-13 32 -21 47.5t-23.5 35.5t-37 28.5t-51.5 8.5q-36 0 -62 -18t-26 -51q0 -9 2 -16.5t8.5 -17.5t22.5 -20t40 -18l85 -29q110 -38 110 -129q0 -64 -51 -104t-120 -40q-28 0 -79.5 14t-60.5 14q-12 0 -18 -14h-14z" />
    <glyph glyph-name="Tcommaaccent" unicode="&#x162;" horiz-adv-x="705" 
d="M280 14v684h-36q-78 0 -121 -35.5t-71 -133.5h-13v183h627v-183h-13q-28 98 -71 133.5t-121 35.5h-36v-684h92v-14h-329v14h92zM315 -257l-8 12q82 44 82 90q0 15 -11 24q-13 -7 -31 -7q-19 0 -35 13t-16 38q0 24 17 36.5t39 12.5q30 0 49 -22.5t19 -61.5q0 -25 -9.5 -47
t-28.5 -39t-32 -26.5t-35 -22.5z" />
    <glyph glyph-name="tcommaaccent" unicode="&#x163;" horiz-adv-x="370" 
d="M101 429v129q35 -14 61 -14t61 14v-129h117v-14h-117v-335q0 -35 11 -54.5t42 -19.5q59 0 83 88l15 -3q-20 -105 -133 -105q-49 0 -80 11t-43 33t-14.5 36.5t-2.5 40.5v308h-67v14h67zM142 -257l-8 12q82 44 82 90q0 15 -11 24q-13 -7 -31 -7q-19 0 -35 13t-16 38
q0 24 17 36.5t39 12.5q30 0 49 -22.5t19 -61.5q0 -25 -9.5 -47t-28.5 -39t-32 -26.5t-35 -22.5z" />
    <glyph glyph-name="Tcaron" unicode="&#x164;" horiz-adv-x="705" 
d="M280 14v684h-36q-78 0 -121 -35.5t-71 -133.5h-13v183h627v-183h-13q-28 98 -71 133.5t-121 35.5h-36v-684h92v-14h-329v14h92zM497 959l-109 -197h-73l-108 197h12l133 -127l133 127h12z" />
    <glyph glyph-name="tcaron" unicode="&#x165;" horiz-adv-x="370" 
d="M101 429v129q35 -14 61 -14t61 14v-129h117v-14h-117v-335q0 -35 11 -54.5t42 -19.5q59 0 83 88l15 -3q-20 -105 -133 -105q-49 0 -80 11t-43 33t-14.5 36.5t-2.5 40.5v308h-67v14h67zM306 544l4 133q3 46 39 46q15 0 24.5 -10t9.5 -26q0 -3 -2 -11l-64 -132h-11z" />
    <glyph glyph-name="Tbar" unicode="&#x166;" horiz-adv-x="705" 
d="M138 458v14h142v226h-36q-78 0 -121 -35.5t-71 -133.5h-13v183h627v-183h-13q-28 98 -71 133.5t-121 35.5h-36v-226h150v-14h-150v-444h92v-14h-329v14h92v444h-142z" />
    <glyph glyph-name="tbar" unicode="&#x167;" horiz-adv-x="370" 
d="M34 300v14h67v101h-67v14h67v129q35 -14 61 -14t61 14v-129h117v-14h-117v-101h117v-14h-117v-220q0 -35 11 -54.5t42 -19.5q59 0 83 88l15 -3q-20 -105 -133 -105q-49 0 -80 11t-43 33t-14.5 36.5t-2.5 40.5v193h-67z" />
    <glyph glyph-name="Utilde" unicode="&#x168;" horiz-adv-x="778" 
d="M32 698v14h330v-14h-92v-449q0 -44 2.5 -74.5t12 -66.5t26 -57.5t47.5 -36.5t74 -15q44 0 79.5 10t57.5 24.5t38 38t23.5 42t11.5 44.5t4.5 38.5t0.5 31.5v470h-91v14h200v-14h-93v-469q0 -21 -0.5 -34.5t-5 -41.5t-13 -47.5t-26.5 -44t-42.5 -40t-64 -26t-88.5 -10.5
q-75 0 -130.5 14.5t-87 37t-50.5 57t-24.5 66t-5.5 71.5v467h-93zM285 829l-12 -27h-14l19 51t12.5 26t16.5 21q22 18 51 18q10 0 81.5 -20t77.5 -20q17 0 27.5 17.5t12.5 28.5h14q-5 -24 -14.5 -46.5t-31.5 -46t-50 -23.5q-21 0 -84 20.5t-78 20.5q-19 0 -28 -20z" />
    <glyph glyph-name="utilde" unicode="&#x169;" horiz-adv-x="611" 
d="M27 415v14h189v-317q0 -91 68 -91q45 0 74 40t29 96v258h-66v14h188v-415h66v-14h-186v81h-2q-16 -42 -58.5 -66t-90.5 -24q-72 0 -108 32t-36 103v289h-67zM173 596l-12 -27h-14l19 51t12.5 26t16.5 21q22 18 51 18q10 0 81.5 -20t77.5 -20q17 0 27.5 17.5t12.5 28.5h14
q-5 -24 -14.5 -46.5t-31.5 -46t-50 -23.5q-21 0 -84 20.5t-78 20.5q-19 0 -28 -20z" />
    <glyph glyph-name="Umacron" unicode="&#x16a;" horiz-adv-x="778" 
d="M32 698v14h330v-14h-92v-449q0 -44 2.5 -74.5t12 -66.5t26 -57.5t47.5 -36.5t74 -15q44 0 79.5 10t57.5 24.5t38 38t23.5 42t11.5 44.5t4.5 38.5t0.5 31.5v470h-91v14h200v-14h-93v-469q0 -21 -0.5 -34.5t-5 -41.5t-13 -47.5t-26.5 -44t-42.5 -40t-64 -26t-88.5 -10.5
q-75 0 -130.5 14.5t-87 37t-50.5 57t-24.5 66t-5.5 71.5v467h-93zM254 845v30h322v-30h-322z" />
    <glyph glyph-name="umacron" unicode="&#x16b;" horiz-adv-x="611" 
d="M27 415v14h189v-317q0 -91 68 -91q45 0 74 40t29 96v258h-66v14h188v-415h66v-14h-186v81h-2q-16 -42 -58.5 -66t-90.5 -24q-72 0 -108 32t-36 103v289h-67zM142 612v30h322v-30h-322z" />
    <glyph glyph-name="Ubreve" unicode="&#x16c;" horiz-adv-x="778" 
d="M32 698v14h330v-14h-92v-449q0 -44 2.5 -74.5t12 -66.5t26 -57.5t47.5 -36.5t74 -15q44 0 79.5 10t57.5 24.5t38 38t23.5 42t11.5 44.5t4.5 38.5t0.5 31.5v470h-91v14h200v-14h-93v-469q0 -21 -0.5 -34.5t-5 -41.5t-13 -47.5t-26.5 -44t-42.5 -40t-64 -26t-88.5 -10.5
q-75 0 -130.5 14.5t-87 37t-50.5 57t-24.5 66t-5.5 71.5v467h-93zM283 945h12q24 -90 130 -90t130 90h12q1 -76 -37.5 -116t-104.5 -40t-104.5 40t-37.5 116z" />
    <glyph glyph-name="ubreve" unicode="&#x16d;" horiz-adv-x="611" 
d="M27 415v14h189v-317q0 -91 68 -91q45 0 74 40t29 96v258h-66v14h188v-415h66v-14h-186v81h-2q-16 -42 -58.5 -66t-90.5 -24q-72 0 -108 32t-36 103v289h-67zM161 712h12q24 -90 130 -90t130 90h12q1 -76 -37.5 -116t-104.5 -40t-104.5 40t-37.5 116z" />
    <glyph glyph-name="Uring" unicode="&#x16e;" horiz-adv-x="778" 
d="M32 698v14h330v-14h-92v-449q0 -44 2.5 -74.5t12 -66.5t26 -57.5t47.5 -36.5t74 -15q44 0 79.5 10t57.5 24.5t38 38t23.5 42t11.5 44.5t4.5 38.5t0.5 31.5v470h-91v14h200v-14h-93v-469q0 -21 -0.5 -34.5t-5 -41.5t-13 -47.5t-26.5 -44t-42.5 -40t-64 -26t-88.5 -10.5
q-75 0 -130.5 14.5t-87 37t-50.5 57t-24.5 66t-5.5 71.5v467h-93zM525 857q0 -37 -28 -68t-77 -31t-77 31t-28 68t28 68t77 31t77 -31t28 -68zM420 945q-28 0 -37.5 -21t-9.5 -67t9.5 -67t37.5 -21t37.5 21t9.5 67t-9.5 67t-37.5 21z" />
    <glyph glyph-name="uring" unicode="&#x16f;" horiz-adv-x="611" 
d="M27 415v14h189v-317q0 -91 68 -91q45 0 74 40t29 96v258h-66v14h188v-415h66v-14h-186v81h-2q-16 -42 -58.5 -66t-90.5 -24q-72 0 -108 32t-36 103v289h-67zM408 629q0 -37 -28 -68t-77 -31t-77 31t-28 68t28 68t77 31t77 -31t28 -68zM303 717q-28 0 -37.5 -21t-9.5 -67
t9.5 -67t37.5 -21t37.5 21t9.5 67t-9.5 67t-37.5 21z" />
    <glyph glyph-name="Uhungarumlaut" unicode="&#x170;" horiz-adv-x="778" 
d="M32 698v14h330v-14h-92v-449q0 -44 2.5 -74.5t12 -66.5t26 -57.5t47.5 -36.5t74 -15q44 0 79.5 10t57.5 24.5t38 38t23.5 42t11.5 44.5t4.5 38.5t0.5 31.5v470h-91v14h200v-14h-93v-469q0 -21 -0.5 -34.5t-5 -41.5t-13 -47.5t-26.5 -44t-42.5 -40t-64 -26t-88.5 -10.5
q-75 0 -130.5 14.5t-87 37t-50.5 57t-24.5 66t-5.5 71.5v467h-93zM461 762l88 176q15 31 42 31q10 0 21.5 -8.5t11.5 -21.5q0 -17 -9 -27l-141 -150h-13zM339 762l88 176q15 31 42 31q10 0 21.5 -8.5t11.5 -21.5q0 -17 -9 -27l-141 -150h-13z" />
    <glyph glyph-name="uhungarumlaut" unicode="&#x171;" horiz-adv-x="611" 
d="M27 415v14h189v-317q0 -91 68 -91q45 0 74 40t29 96v258h-66v14h188v-415h66v-14h-186v81h-2q-16 -42 -58.5 -66t-90.5 -24q-72 0 -108 32t-36 103v289h-67zM338 529l88 176q16 31 42 31q10 0 21.5 -8t11.5 -22q0 -17 -9 -27l-141 -150h-13zM216 529l88 176q16 31 42 31
q10 0 21.5 -8t11.5 -22q0 -17 -9 -27l-141 -150h-13z" />
    <glyph glyph-name="Uogonek" unicode="&#x172;" horiz-adv-x="778" 
d="M394 -42l52 28q-3 0 -11 -0.5t-12 -0.5q-75 0 -130.5 14.5t-87 37t-50.5 57t-24.5 66t-5.5 71.5v467h-93v14h330v-14h-92v-449q0 -44 2.5 -74.5t12 -66.5t26 -57.5t47.5 -36.5t74 -15q44 0 79.5 10t57.5 24.5t38 38t23.5 42t11.5 44.5t4.5 38.5t0.5 31.5v470h-91v14h200
v-14h-93v-469q0 -19 -0.5 -31t-4 -37t-10 -43t-20 -41.5t-32 -39t-48.5 -29t-67 -19.5q-82 -72 -82 -112q0 -47 44 -47q25 0 44 14l7 -12q-29 -20 -46 -26t-46 -6q-41 0 -63 19.5t-22 47.5q0 50 77 91z" />
    <glyph glyph-name="uogonek" unicode="&#x173;" horiz-adv-x="611" 
d="M384 -42l79 42h-74v81h-2q-16 -42 -58.5 -66t-90.5 -24q-72 0 -108 32t-36 103v289h-67v14h189v-317q0 -91 68 -91q45 0 74 40t29 96v258h-66v14h188v-415h66v-14h-91q-95 -81 -95 -123q0 -47 44 -47q25 0 44 14l7 -12q-29 -20 -46 -26t-46 -6q-41 0 -63 19.5t-22 47.5
q0 50 77 91z" />
    <glyph glyph-name="Wcircumflex" unicode="&#x174;" horiz-adv-x="1037" 
d="M-12 698v14h307v-14h-73l180 -527h2l105 298l-78 229h-54v14h299v-14h-93l181 -528h2l185 528h-86v14h184v-14h-81l-257 -726h-29l-164 474h-2l-168 -474h-29l-248 726h-83zM385 762l109 197h73l108 -197h-12l-133 127l-133 -127h-12z" />
    <glyph glyph-name="wcircumflex" unicode="&#x175;" horiz-adv-x="741" 
d="M228 -28l-174 443h-60v14h255v-14h-65l103 -260l79 213l-20 47h-51v14h250v-14h-67l103 -260l96 260h-70v14h135v-14h-49l-164 -443h-7l-148 375l-139 -375h-7zM234 529l109 197h73l108 -197h-12l-133 127l-133 -127h-12z" />
    <glyph glyph-name="Ycircumflex" unicode="&#x176;" horiz-adv-x="704" 
d="M-16 698v14h323v-14h-79l204 -349l184 349h-87v14h191v-14h-87l-193 -367v-317h93v-14h-330v14h92v279l-232 405h-79zM223 762l109 197h73l108 -197h-12l-133 127l-133 -127h-12z" />
    <glyph glyph-name="ycircumflex" unicode="&#x177;" horiz-adv-x="481" 
d="M177 415l122 -289l127 289h-83v14h145v-14h-46q-85 -183 -164 -380.5t-96 -234.5q-21 -45 -47 -66t-65 -21q-45 0 -74 22t-29 59q0 27 18 41t46 14q21 0 37 -11t16 -31q0 -13 -6.5 -29.5t-6.5 -25.5q0 -22 20 -22q23 0 44.5 24.5t31.5 46t24 56.5l43 107l-188 451h-54v14
h255v-14h-70zM98 529l109 197h73l108 -197h-12l-133 127l-133 -127h-12z" />
    <glyph glyph-name="Ydieresis" unicode="&#x178;" horiz-adv-x="704" 
d="M405 857q0 26 19 45t45 19t45 -19t19 -45t-19 -45t-45 -19t-45 19t-19 45zM231 857q0 26 19 45t45 19t45 -19t19 -45t-19 -45t-45 -19t-45 19t-19 45zM-16 698v14h323v-14h-79l204 -349l184 349h-87v14h191v-14h-87l-193 -367v-317h93v-14h-330v14h92v279l-232 405h-79z
" />
    <glyph glyph-name="Zacute" unicode="&#x179;" horiz-adv-x="685" 
d="M34 0l402 698h-139q-76 0 -117.5 -37.5t-76.5 -115.5h-13v167h518l-404 -698h181q86 0 149.5 51t87.5 161h13v-226h-601zM301 762l88 176q15 31 42 31q10 0 21.5 -8.5t11.5 -21.5q0 -17 -9 -27l-141 -150h-13z" />
    <glyph glyph-name="zacute" unicode="&#x17a;" horiz-adv-x="463" 
d="M34 0l243 415h-89q-51 0 -76.5 -23.5t-51.5 -81.5h-11l15 119h357l-242 -415h122q30 0 51.5 9.5t35.5 31t20.5 37t16.5 46.5h11l-11 -138h-391zM186 529l88 176q16 31 42 31q10 0 21.5 -8t11.5 -22q0 -17 -9 -27l-141 -150h-13z" />
    <glyph glyph-name="Zdotaccent" unicode="&#x17b;" horiz-adv-x="685" 
d="M34 0l402 698h-139q-76 0 -117.5 -37.5t-76.5 -115.5h-13v167h518l-404 -698h181q86 0 149.5 51t87.5 161h13v-226h-601zM275 877q0 26 19 45t45 19t45 -19t19 -45t-19 -45t-45 -19t-45 19t-19 45z" />
    <glyph glyph-name="zdotaccent" unicode="&#x17c;" horiz-adv-x="463" 
d="M34 0l243 415h-89q-51 0 -76.5 -23.5t-51.5 -81.5h-11l15 119h357l-242 -415h122q30 0 51.5 9.5t35.5 31t20.5 37t16.5 46.5h11l-11 -138h-391zM169 644q0 26 19 45t45 19t45 -19t19 -45t-19 -45t-45 -19t-45 19t-19 45z" />
    <glyph glyph-name="Zcaron" unicode="&#x17d;" horiz-adv-x="685" 
d="M488 959l-109 -197h-73l-108 197h12l133 -127l133 127h12zM34 0l402 698h-139q-76 0 -117.5 -37.5t-76.5 -115.5h-13v167h518l-404 -698h181q86 0 149.5 51t87.5 161h13v-226h-601z" />
    <glyph glyph-name="zcaron" unicode="&#x17e;" horiz-adv-x="463" 
d="M377 726l-109 -197h-73l-108 197h12l133 -127l133 127h12zM34 0l243 415h-89q-51 0 -76.5 -23.5t-51.5 -81.5h-11l15 119h357l-242 -415h122q30 0 51.5 9.5t35.5 31t20.5 37t16.5 46.5h11l-11 -138h-391z" />
    <glyph glyph-name="florin" unicode="&#x192;" horiz-adv-x="556" 
d="M64 340v14h126q13 100 42.5 180.5t85 137t128.5 56.5q47 0 83.5 -23.5t36.5 -69.5q0 -27 -19.5 -39t-38.5 -12q-55 0 -55 39q0 17 10 36t10 29q0 26 -38 26q-28 0 -47 -13t-29 -40.5t-14.5 -49.5t-8.5 -61q-2 -16 -8 -87.5t-7 -81.5l-3 -27h116v-14h-117
q-25 -230 -65 -358q-41 -129 -58 -164q-47 -98 -122 -98q-38 0 -72 21.5t-34 58.5q0 23 15.5 36t39.5 13q19 0 32.5 -8.5t13.5 -24.5q0 -7 -8.5 -30t-8.5 -29q0 -23 34 -23q77 0 82 176q8 300 22 430h-124z" />
    <glyph glyph-name="Aringacute" unicode="&#x1fa;" horiz-adv-x="759" 
d="M299 862l119 85q28 21 39 21q12 0 20.5 -8t8.5 -20q0 -20 -21 -27l-142 -51h-24zM468 766q0 -24 -17 -46.5t-47 -32.5l295 -673h86v-14h-336v14h93l-116 268h-240l-111 -268h89v-14h-190v14h85l275 670q-35 8 -54.5 32t-19.5 50q0 32 27.5 58.5t76.5 26.5t76.5 -26.5
t27.5 -58.5zM364 839q-28 0 -37.5 -17t-9.5 -56t9.5 -57.5t37.5 -18.5t37.5 18.5t9.5 57.5t-9.5 56t-37.5 17zM421 296l-118 273l-112 -273h230z" />
    <glyph glyph-name="aringacute" unicode="&#x1fb;" horiz-adv-x="519" 
d="M173 768l119 85q28 21 39 21q12 0 20.5 -8t8.5 -20q0 -20 -21 -27l-142 -51h-24zM365 629q0 -37 -28 -68t-77 -31t-77 31t-28 68t28 68t77 31t77 -31t28 -68zM260 717q-28 0 -37.5 -21t-9.5 -67t9.5 -67t37.5 -21t37.5 21t9.5 67t-9.5 67t-37.5 21zM498 25l9 -9
q-20 -30 -90 -30q-93 0 -106 69h-2q-15 -40 -43 -54.5t-82 -14.5q-57 0 -99.5 23.5t-42.5 76.5q0 23 8 41t19 29t31 21.5t34.5 15.5l39.5 13q86 26 108.5 40.5t22.5 50.5v61q0 71 -62 71q-57 0 -57 -49q0 -3 3 -26.5t3 -28.5q0 -41 -61 -41q-58 0 -58 51q0 50 50.5 79
t120.5 29q85 0 134 -31t49 -110v-248q0 -48 33 -48q21 0 38 19zM305 116v132h-2q-3 -12 -27 -24l-21 -10t-22.5 -11t-19 -11t-18.5 -15l-12.5 -18t-10 -24.5t-2.5 -30.5q0 -95 65 -95q29 0 49.5 26.5t20.5 80.5z" />
    <glyph glyph-name="AEacute" unicode="&#x1fc;" horiz-adv-x="981" 
d="M-31 0v14h60l395 684h-93v14h566v-171h-13q-50 157 -189 157h-107v-309h19q69 0 102 37.5t49 111.5h13v-311h-13q-16 70 -46.5 109t-93.5 39h-30v-361h95q88 0 146 56.5t79 148.5h13v-219h-570v14h92v361h-188l-209 -361h99v-14h-176zM441 698l-178 -309h180v309h-2z
M503 762l88 176q15 31 42 31q10 0 21.5 -8.5t11.5 -21.5q0 -17 -9 -27l-141 -150h-13z" />
    <glyph glyph-name="aeacute" unicode="&#x1fd;" horiz-adv-x="741" 
d="M31 86q0 23 8 41t19 29t31 21.5t34.5 15.5l39.5 13q90 26 113.5 40.5t23.5 50.5v73q0 59 -62 59q-57 0 -57 -49q0 -3 3 -26.5t3 -28.5q0 -41 -61 -41q-58 0 -58 51q0 50 50.5 79t120.5 29q94 0 150 -44q54 44 119 44q75 0 134 -49t59 -143h-279v-45q0 -43 3 -73.5
t13.5 -64t34 -51t60.5 -17.5t67 14.5t46 35.5t25 38t10 28l14 -5q-13 -48 -56 -86.5t-121 -38.5q-157 0 -204 112h-2q-8 -112 -139 -112q-57 0 -99.5 23.5t-42.5 76.5zM422 265h144v67q0 97 -65 97q-18 0 -31.5 -6.5t-21.5 -22t-13 -27t-7.5 -36.5l-3.5 -35t-2 -37zM300 116
v132h-2q-1 -3 -3.5 -5.5t-5.5 -4.5t-7.5 -4.5t-6.5 -3.5q-14 -9 -40.5 -23t-39.5 -23t-24.5 -29.5t-11.5 -50.5q0 -95 65 -95q30 0 53 26.5t23 80.5zM326 529l88 176q16 31 42 31q10 0 21.5 -8t11.5 -22q0 -17 -9 -27l-141 -150h-13z" />
    <glyph glyph-name="Oslashacute" unicode="&#x1fe;" horiz-adv-x="833" 
d="M186 -68l52 101q-88 47 -142 133t-54 188q0 81 34.5 153t89 119.5t120.5 74.5t131 27q81 0 160 -37l49 97l14 -7l-49 -96q89 -46 144.5 -131.5t55.5 -196.5q0 -150 -112 -261t-262 -111q-88 0 -166 40l-51 -100zM257 70l305 593q-49 51 -145 51q-55 0 -94 -18
t-61.5 -47.5t-35.5 -78t-17 -97.5t-4 -119q0 -206 52 -284zM573 651l-306 -595q46 -57 150 -57q48 0 84 11.5t58.5 37t36.5 54.5t21 75t9 86t2 100q0 108 -10 176.5t-45 111.5zM364 762l88 176q16 31 42 31q10 0 21.5 -8.5t11.5 -21.5q0 -17 -9 -27l-141 -150h-13z" />
    <glyph glyph-name="oslashacute" unicode="&#x1ff;" horiz-adv-x="556" 
d="M117 -67l43 83q-58 29 -92 82.5t-34 116.5q0 93 71 160.5t173 67.5q50 0 93 -18l41 79l14 -6l-41 -79q62 -27 99.5 -82.5t37.5 -121.5q0 -94 -71 -161.5t-173 -67.5q-59 0 -105 23l-42 -82zM187 68l168 325q-25 36 -77 36q-37 0 -60.5 -17t-33.5 -51.5t-12.5 -65
t-2.5 -80.5q0 -104 18 -147zM364 378l-170 -329q23 -49 84 -49q37 0 60.5 17t33.5 52t12.5 65.5t2.5 80.5q0 118 -23 163zM236 529l88 176q16 31 42 31q10 0 21.5 -8t11.5 -22q0 -17 -9 -27l-141 -150h-13z" />
    <glyph glyph-name="Scommaaccent" unicode="&#x218;" horiz-adv-x="648" 
d="M63 0v222h15q19 -102 81 -163q28 -28 60 -42t49.5 -16t45.5 -2q49 0 86 16.5t55 42t26.5 50t8.5 46.5q0 35 -17.5 61t-46.5 40t-66 27t-76 23t-76 27t-66 39t-46.5 61t-17.5 90q0 82 69 144t172 62q51 0 102 -18.5t60 -18.5q13 0 18 4t10 17h16v-190h-13l-16.5 47t-18 43
t-25.5 41.5t-32.5 30.5t-45 23t-56.5 7q-75 0 -120 -38.5t-45 -86.5q0 -37 23.5 -64t61.5 -42.5t84 -29.5t91.5 -30.5t83.5 -39t61.5 -62t23.5 -93.5q0 -100 -78 -171.5t-198 -71.5q-48 0 -118.5 19t-77.5 19q-13 0 -19.5 -4.5t-11.5 -18.5h-16zM283 -257l-8 12q82 44 82 90
q0 15 -11 24q-13 -7 -31 -7q-19 0 -35 13t-16 38q0 24 17 36.5t39 12.5q30 0 49 -22.5t19 -61.5q0 -25 -9.5 -47t-28.5 -39t-32 -26.5t-35 -22.5z" />
    <glyph glyph-name="scommaaccent" unicode="&#x219;" horiz-adv-x="426" 
d="M44 0v145h14q12 -29 19 -44.5t21.5 -38t28.5 -34t36 -20t49 -8.5q89 0 89 77q0 23 -15.5 41t-63.5 36l-81 30q-91 34 -91 116q0 60 46.5 101.5t117.5 41.5q29 0 65.5 -12.5t40.5 -12.5q15 0 19 13h14v-122h-13q-13 32 -21 47.5t-23.5 35.5t-37 28.5t-51.5 8.5
q-36 0 -62 -18t-26 -51q0 -9 2 -16.5t8.5 -17.5t22.5 -20t40 -18l85 -29q110 -38 110 -129q0 -64 -51 -104t-120 -40q-28 0 -79.5 14t-60.5 14q-12 0 -18 -14h-14zM180 -257l-8 12q82 44 82 90q0 15 -11 24q-13 -7 -31 -7q-19 0 -35 13t-16 38q0 24 17 36.5t39 12.5
q30 0 49 -22.5t19 -61.5q0 -25 -9.5 -47t-28.5 -39t-32 -26.5t-35 -22.5z" />
    <glyph glyph-name="uni021A" unicode="&#x21a;" horiz-adv-x="705" 
d="M280 14v684h-36q-78 0 -121 -35.5t-71 -133.5h-13v183h627v-183h-13q-28 98 -71 133.5t-121 35.5h-36v-684h92v-14h-329v14h92zM315 -257l-8 12q82 44 82 90q0 15 -11 24q-13 -7 -31 -7q-19 0 -35 13t-16 38q0 24 17 36.5t39 12.5q30 0 49 -22.5t19 -61.5q0 -25 -9.5 -47
t-28.5 -39t-32 -26.5t-35 -22.5z" />
    <glyph glyph-name="uni021B" unicode="&#x21b;" horiz-adv-x="370" 
d="M101 429v129q35 -14 61 -14t61 14v-129h117v-14h-117v-335q0 -35 11 -54.5t42 -19.5q59 0 83 88l15 -3q-20 -105 -133 -105q-49 0 -80 11t-43 33t-14.5 36.5t-2.5 40.5v308h-67v14h67zM142 -257l-8 12q82 44 82 90q0 15 -11 24q-13 -7 -31 -7q-19 0 -35 13t-16 38
q0 24 17 36.5t39 12.5q30 0 49 -22.5t19 -61.5q0 -25 -9.5 -47t-28.5 -39t-32 -26.5t-35 -22.5z" />
    <glyph glyph-name="dotlessj" unicode="&#x237;" horiz-adv-x="333" 
d="M119 -212v627h-67v14h189v-472q0 -244 -167 -244q-54 0 -89 23t-35 62q0 56 56 56q53 0 53 -44q0 -8 -4 -26t-4 -25q0 -9 1 -14.5t8.5 -11.5t22.5 -6q19 0 27.5 12t8.5 49z" />
    <glyph glyph-name="circumflex" unicode="&#x2c6;" 
d="M-6 529l109 197h73l108 -197h-12l-133 127l-133 -127h-12z" />
    <glyph glyph-name="caron" unicode="&#x2c7;" 
d="M284 726l-109 -197h-73l-108 197h12l133 -127l133 127h12z" />
    <glyph glyph-name="uni02C9" unicode="&#x2c9;" 
d="M-22 612v30h322v-30h-322z" />
    <glyph glyph-name="breve" unicode="&#x2d8;" 
d="M-3 712h12q24 -90 130 -90t130 90h12q1 -76 -37.5 -116t-104.5 -40t-104.5 40t-37.5 116z" />
    <glyph glyph-name="dotaccent" unicode="&#x2d9;" 
d="M75 644q0 26 19 45t45 19t45 -19t19 -45t-19 -45t-45 -19t-45 19t-19 45z" />
    <glyph glyph-name="ring" unicode="&#x2da;" 
d="M244 629q0 -37 -28 -68t-77 -31t-77 31t-28 68t28 68t77 31t77 -31t28 -68zM139 717q-28 0 -37.5 -21t-9.5 -67t9.5 -67t37.5 -21t37.5 21t9.5 67t-9.5 67t-37.5 21z" />
    <glyph glyph-name="ogonek" unicode="&#x2db;" 
d="M143 -42l79 42h21q-95 -81 -95 -123q0 -47 44 -47q25 0 44 14l7 -12q-29 -20 -46 -26t-46 -6q-41 0 -63 19.5t-22 47.5q0 50 77 91z" />
    <glyph glyph-name="tilde" unicode="&#x2dc;" 
d="M9 596l-12 -27h-14l19 51t12.5 26t16.5 21q22 18 51 18q10 0 81.5 -20t77.5 -20q17 0 27.5 17.5t12.5 28.5h14q-5 -24 -14.5 -46.5t-31.5 -46t-50 -23.5q-21 0 -84 20.5t-78 20.5q-19 0 -28 -20z" />
    <glyph glyph-name="hungarumlaut" unicode="&#x2dd;" 
d="M157 529l88 176q15 31 42 31q10 0 21.5 -8t11.5 -22q0 -17 -9 -27l-141 -150h-13zM35 529l88 176q15 31 42 31q10 0 21.5 -8t11.5 -22q0 -17 -9 -27l-141 -150h-13z" />
    <glyph glyph-name="uni0394" unicode="&#x394;" horiz-adv-x="642" 
d="M609 0h-574v29l260 642l46 13l268 -655v-29zM483 52l-196 491l-193 -491h389z" />
    <glyph glyph-name="uni03A9" unicode="&#x3a9;" horiz-adv-x="721" 
d="M658 150l29 -1q-9 -49 -25 -149h-243q-2 7 -8 21q2 3 23 42.5l28.5 54.5t24.5 54t24.5 65.5t14.5 64.5t7 72q0 141 -49 209t-126 68q-78 0 -124.5 -67.5t-46.5 -213.5q0 -60 22 -131.5t42.5 -113t55.5 -104.5l-8 -21h-243q-14 100 -22 149l27 1q15 -45 30.5 -59t46.5 -14
h98q-32 26 -54.5 49t-51.5 61t-45 86.5t-16 103.5q0 139 82.5 223t209.5 84q129 0 209 -81t80 -220q0 -49 -15.5 -95t-44 -86t-53 -66.5t-58.5 -58.5h104q32 0 46 13t29 60z" />
    <glyph glyph-name="uni03BC" unicode="&#x3bc;" horiz-adv-x="611" 
d="M94 -280v695h-67v14h189v-317q0 -91 68 -91q45 0 74 40t29 96v258h-66v14h188v-415h66v-14h-186v81h-2q-15 -36 -49.5 -61.5t-65.5 -25.5q-33 0 -56 23v-297h-122z" />
    <glyph glyph-name="pi" unicode="&#x3c0;" horiz-adv-x="514" 
d="M466 479q10 -4 23 -8q-10 -60 -33 -89q-18 -5 -61 -5q-3 -39 -3 -183v-13q0 -38 0.5 -55.5t3.5 -38.5t10.5 -29t20.5 -9h4q4 0 16 4q11 4 26 17q2 -6 12 -20q-37 -61 -100 -61q-44 0 -64.5 31t-20.5 111q0 98 10 248q-106 2 -127 2v-21q0 -92 -12.5 -176.5t-25.5 -126.5
t-21 -52q-30 -12 -56 -16q-1 3 -3.5 8.5t-3.5 7.5q43 56 63 170.5t20 207.5q-39 0 -62.5 -9t-51.5 -30l-14 23q21 27 35 41t46 28.5t73 14.5q33 0 114.5 -1.5t127.5 -1.5q21 0 32.5 6.5t21.5 24.5z" />
    <glyph glyph-name="uni0400" unicode="&#x400;" horiz-adv-x="722" 
d="M312 938l88 -176h-13l-141 150q-9 10 -9 27q0 13 11.5 21.5t21.5 8.5q26 0 42 -31zM37 0v14h92v684h-92v14h598v-171h-13q-50 157 -189 157h-159v-309h56q69 0 102 37.5t49 111.5h13v-311h-13q-16 70 -46.5 109t-93.5 39h-67v-361h164q88 0 146 56.5t79 148.5h13v-219
h-639z" />
    <glyph glyph-name="afii10023" unicode="&#x401;" horiz-adv-x="722" 
d="M37 0v14h92v684h-92v14h598v-171h-13q-50 157 -189 157h-159v-309h56q69 0 102 37.5t49 111.5h13v-311h-13q-16 70 -46.5 109t-93.5 39h-67v-361h164q88 0 146 56.5t79 148.5h13v-219h-639zM390 857q0 26 19 45t45 19t45 -19t19 -45t-19 -45t-45 -19t-45 19t-19 45z
M216 857q0 26 19 45t45 19t45 -19t19 -45t-19 -45t-45 -19t-45 19t-19 45z" />
    <glyph glyph-name="afii10051" unicode="&#x402;" horiz-adv-x="851" 
d="M722 220v-35q0 -87 -57.5 -141t-151.5 -54q-66 0 -114.5 46t-48.5 102q0 42 26.5 68t58.5 26q33 0 56 -23.5t23 -56.5q0 -24 -12.5 -39.5t-25 -27.5t-12.5 -29q0 -20 13 -37.5t36 -17.5q32 0 51 29t19 72v127q0 94 -26.5 130t-92.5 36q-44 0 -81 -14v-131
q-65 -39 -65 -111q0 -77 74 -139h-240v13h91v689h-14q-66 0 -112.5 -37t-65.5 -89.5t-19 -114.5h-11v253h617v-253h-9q0 61 -21 114t-69 90t-114 37h-42v-306q49 13 81 13q125 0 191.5 -41.5t66.5 -147.5z" />
    <glyph glyph-name="afii10052" unicode="&#x403;" horiz-adv-x="579" 
d="M548 469h10v245h-520v-13h90v-688h-90v-13h323v13h-92v688h75q99 0 151.5 -68.5t52.5 -163.5zM256 762l88 176q16 31 42 31q10 0 21.5 -8.5t11.5 -21.5q0 -17 -9 -27l-141 -150h-13z" />
    <glyph glyph-name="afii10053" unicode="&#x404;" horiz-adv-x="695" 
d="M48 356q0 100 37.5 185.5t108 137.5t158.5 52q24 0 77 -15.5t74 -15.5q39 0 46 28h12v-226h-12q0 74 -63 145t-134 71q-32 0 -51 -7.5t-39 -28.5q-54 -62 -60 -303h233v-13h-233v-10q0 -260 60 -324q34 -37 104 -37q54 0 104 29.5t50 51.5q0 6 -1.5 10t-6.5 8t-8 5.5
l-11 5.5l-12 6l-20 14t-15 19.5t-9 34.5q0 31 16.5 49t46.5 18q36 0 59.5 -26t23.5 -64q0 -73 -70 -123t-147 -50q-135 0 -226.5 110.5t-91.5 262.5z" />
    <glyph glyph-name="afii10054" unicode="&#x405;" horiz-adv-x="648" 
d="M63 0v222h15q19 -102 81 -163q28 -28 60 -42t49.5 -16t45.5 -2q49 0 86 16.5t55 42t26.5 50t8.5 46.5q0 35 -17.5 61t-46.5 40t-66 27t-76 23t-76 27t-66 39t-46.5 61t-17.5 90q0 82 69 144t172 62q51 0 102 -18.5t60 -18.5q13 0 18 4t10 17h16v-190h-13l-16.5 47t-18 43
t-25.5 41.5t-32.5 30.5t-45 23t-56.5 7q-75 0 -120 -38.5t-45 -86.5q0 -37 23.5 -64t61.5 -42.5t84 -29.5t91.5 -30.5t83.5 -39t61.5 -62t23.5 -93.5q0 -100 -78 -171.5t-198 -71.5q-48 0 -118.5 19t-77.5 19q-13 0 -19.5 -4.5t-11.5 -18.5h-16z" />
    <glyph glyph-name="afii10055" unicode="&#x406;" horiz-adv-x="407" 
d="M39 0v14h92v684h-92v14h329v-14h-92v-684h92v-14h-329z" />
    <glyph glyph-name="afii10056" unicode="&#x407;" horiz-adv-x="407" 
d="M39 0v14h92v684h-92v14h329v-14h-92v-684h92v-14h-329zM230 857q0 26 19 45t45 19t45 -19t19 -45t-19 -45t-45 -19t-45 19t-19 45zM56 857q0 26 19 45t45 19t45 -19t19 -45t-19 -45t-45 -19t-45 19t-19 45z" />
    <glyph glyph-name="afii10057" unicode="&#x408;" horiz-adv-x="500" 
d="M22 93q0 71 79 71q61 0 61 -48q0 -10 -7 -41t-7 -36q0 -40 44 -40q15 0 24.5 6t13 18t4.5 20.5t1 21.5v633h-92v14h329v-14h-92v-494q0 -28 -1.5 -48.5t-12.5 -55.5t-30.5 -57.5t-59.5 -40t-96 -17.5q-64 0 -111 25t-47 83z" />
    <glyph glyph-name="afii10058" unicode="&#x409;" horiz-adv-x="931" 
d="M336 0v13h91v688h-112q-21 0 -30 -11.5t-9 -38.5v-239q0 -210 -26 -305q-16 -61 -43 -91t-81 -30q-51 0 -89 33.5t-38 83.5q0 33 21 57.5t54 24.5q30 0 52 -21.5t22 -51.5q0 -19 -15.5 -47t-15.5 -39q0 -26 26 -26q68 0 94 110q26 91 26 302v236q0 30 -7.5 41.5
t-30.5 11.5h-49v13h483v-13h-92v-300h67q136 0 200.5 -45t64.5 -138q0 -99 -63.5 -158.5t-194.5 -59.5h-305zM760 218q0 106 -29.5 138.5t-110.5 32.5h-53v-376h61q78 0 105 45.5t27 159.5z" />
    <glyph glyph-name="afii10059" unicode="&#x40a;" horiz-adv-x="986" 
d="M402 0v13h80v373h-213v-373h82v-13h-313v13h90v688h-90v13h313v-13h-82v-302h213v302h-80v13h312v-13h-92v-302h67q265 0 265 -191q0 -98 -63 -153t-195 -55h-294zM815 208q0 106 -30.5 142t-109.5 36h-53v-373h61q80 0 106 41t26 154z" />
    <glyph glyph-name="afii10060" unicode="&#x40b;" horiz-adv-x="882" 
d="M813 0h-304v13h73v217q0 94 -26 130t-92 36q-44 0 -81 -14v-369h90v-13h-321v13h91v688h-14q-98 0 -147.5 -68t-49.5 -164h-11v245h617v-245h-9q0 95 -53 163.5t-151 68.5h-42v-305q49 13 81 13q125 0 191.5 -41.5t66.5 -147.5v-207h91v-13z" />
    <glyph glyph-name="afii10061" unicode="&#x40c;" horiz-adv-x="697" 
d="M697 28l-9 9q-18 -21 -53 -21q-27 0 -42.5 20.5t-15.5 58.5v82q0 199 -229 199q53 19 64 105q0 3 2 28t2.5 32t3.5 28.5t6 31.5t8.5 26.5t12.5 27.5t17 21q24 24 46 24q13 0 13 -11q0 -9 -15.5 -31.5t-15.5 -42.5q0 -28 20 -48t50 -20q32 0 51 22t19 55q0 52 -28.5 75
t-71.5 23q-16 0 -25.5 -1.5t-24 -9t-29.5 -23.5q-18 -18 -28.5 -46.5t-14 -47.5t-7 -61t-4.5 -52q-20 -102 -88 -102h-42v322h82v13h-313v-13h90v-688h-90v-13h313v13h-82v353h31q70 0 101 -28t31 -94v-56q0 -51 16 -90.5t43 -61.5t56.5 -32.5t60.5 -10.5q57 0 89 35z
M276 762l88 176q16 31 42 31q10 0 21.5 -8.5t11.5 -21.5q0 -17 -9 -27l-141 -150h-13z" />
    <glyph glyph-name="uni040D" unicode="&#x40d;" horiz-adv-x="753" 
d="M352 938l88 -176h-13l-141 150q-9 10 -9 27q0 13 11.5 21.5t21.5 8.5q26 0 42 -31zM402 0h312v13h-90v688h90v13h-312v-13h80v-98l-213 -446v544h82v13h-313v-13h90v-688h-90v-13h313v13h-82v110l213 445v-555h-80v-13z" />
    <glyph glyph-name="afii10062" unicode="&#x40e;" horiz-adv-x="648" 
d="M392 292l152 367q17 42 -13 42h-82v13h213v-13h-64q-24 0 -42 -42l-234 -570q-18 -46 -49.5 -76t-76.5 -30q-63 0 -102.5 42t-39.5 97q0 40 23 62.5t54 22.5q32 0 51 -18.5t19 -49.5q0 -39 -50 -73q-16 -9 -16 -25q0 -17 16 -31t45 -14q73 0 112 94l22 51l-251 560h-94
v13h348v-13h-106zM531 871q0 -47 -46 -72t-102 -25q-59 0 -102.5 24.5t-43.5 72.5q0 24 17 42t41 18q20 0 35.5 -13t15.5 -32q0 -21 -24 -37q-24 -15 -24 -27q0 -17 23.5 -26.5t61.5 -9.5q87 0 87 36q0 5 -4 10t-12.5 11t-9.5 7q-23 15 -23 36q0 20 15.5 32.5t36.5 12.5
q24 0 41 -18t17 -42z" />
    <glyph glyph-name="afii10145" unicode="&#x40f;" horiz-adv-x="799" 
d="M714 0h-217q-32 0 -54 -11t-34.5 -27.5t-19.5 -45t-8.5 -54t-1.5 -63.5h-12q0 48 -3.5 79t-15 61.5t-36 45.5t-63.5 15h-211v13h90v688h-90v13h313v-13h-82v-688h213v688h-80v13h312v-13h-90v-688h90v-13z" />
    <glyph glyph-name="afii10017" unicode="&#x410;" horiz-adv-x="759" 
d="M-26 0v14h85l298 726h27l315 -726h86v-14h-336v14h93l-116 268h-240l-111 -268h89v-14h-190zM191 296h230l-118 273z" />
    <glyph glyph-name="afii10018" unicode="&#x411;" horiz-adv-x="676" 
d="M594 213q0 -96 -59 -154.5t-180 -58.5h-317v13h90v688h-90v13h513v-210h-11q0 76 -50.5 136.5t-135.5 60.5h-85v-298h75q124 0 187 -49t63 -141zM454 213q0 106 -25.5 142t-104.5 36h-55v-378h62q76 0 99.5 43t23.5 157z" />
    <glyph glyph-name="afii10019" unicode="&#x412;" horiz-adv-x="685" 
d="M35 0v14h92v684h-92v14h151q28 0 83 1.5t83 1.5q43 0 83 -8.5t77 -26.5t59.5 -51.5t22.5 -79.5q0 -40 -21.5 -72t-56 -50t-65 -27.5t-59.5 -13.5v-4q44 -3 82 -13.5t75.5 -30.5t59.5 -57t22 -88q0 -55 -28.5 -95.5t-73.5 -61t-89.5 -30t-86.5 -9.5q-28 0 -83.5 1.5
t-83.5 1.5h-151zM272 389h41q43 0 70.5 11.5t39.5 34t16 44t4 54.5q0 91 -27 129.5t-100 38.5q-7 0 -14 -0.5t-16 -1.5t-14 -1v-309zM272 14q27 -3 58 -3q70 0 104 39.5t34 153.5q0 19 -1.5 35.5t-9.5 43t-21.5 45.5t-41 33t-64.5 14h-58v-361z" />
    <glyph glyph-name="afii10020" unicode="&#x413;" horiz-adv-x="579" 
d="M558 469h-10q0 95 -52.5 163.5t-151.5 68.5h-75v-688h92v-13h-323v13h90v688h-90v13h520v-245z" />
    <glyph glyph-name="afii10021" unicode="&#x414;" horiz-adv-x="707" 
d="M639 -233h-11q0 104 -53.5 168.5t-142.5 64.5h-217q-87 0 -141 -64.5t-54 -168.5h-13v246h81q38 36 62.5 93t34 136t12 137.5t2.5 151.5v115q0 32 -7.5 43.5t-26.5 11.5h-65v13h528v-13h-91v-688h102v-246zM395 13v688h-147q-21 0 -28.5 -11t-7.5 -44v-115
q0 -92 -2.5 -150t-12 -137t-33 -136t-61.5 -95h292z" />
    <glyph glyph-name="afii10022" unicode="&#x415;" horiz-adv-x="722" 
d="M37 0v14h92v684h-92v14h598v-171h-13q-50 157 -189 157h-159v-309h56q69 0 102 37.5t49 111.5h13v-311h-13q-16 70 -46.5 109t-93.5 39h-67v-361h164q88 0 146 56.5t79 148.5h13v-219h-639z" />
    <glyph glyph-name="afii10024" unicode="&#x416;" horiz-adv-x="974" 
d="M336 701v13h302v-13h-82v-322h31q40 0 61.5 31.5t26.5 70.5q1 9 5 51.5t7 61.5t14 48t28 46q22 22 39 28t41 6q43 0 71 -22.5t28 -75.5q0 -33 -19 -55t-51 -22q-30 0 -50 20t-20 48q0 20 15.5 42.5t15.5 31.5q0 11 -12 11q-22 0 -46 -24q-10 -10 -17.5 -21.5t-12.5 -27
l-8.5 -27t-6 -31t-3.5 -29t-2.5 -31.5t-1.5 -28q-11 -86 -65 -105q229 0 229 -199v-83q0 -38 16 -59t43 -21q32 0 54 22l8 -9q-34 -36 -89 -36q-68 0 -121.5 49t-53.5 147v57q0 66 -31 94t-102 28h-21v-353h82v-13h-302v13h82v353h-21q-70 0 -101.5 -28t-31.5 -94v-57
q0 -98 -53.5 -147t-121.5 -49q-55 0 -89 36l8 9q22 -22 55 -22q27 0 42.5 21t15.5 59v83q0 199 229 199q-58 20 -65 105q0 3 -2.5 32.5t-3.5 38t-5 32.5t-9 36t-13 28t-19 28q-24 24 -45 24q-13 0 -13 -11q0 -9 15.5 -31.5t15.5 -42.5q0 -28 -20 -48t-50 -20q-32 0 -51 22
t-19 55q0 53 28 75.5t71 22.5q16 0 25.5 -1.5t24 -9t30.5 -23.5q17 -17 28 -46t14 -48t7 -61.5t5 -51.5q3 -38 25.5 -70t62.5 -32h31v322h-82z" />
    <glyph glyph-name="afii10025" unicode="&#x417;" horiz-adv-x="602" 
d="M516 189q0 -37 -15.5 -72.5t-47.5 -66t-87.5 -49t-127.5 -18.5q-81 0 -137 42t-56 113q0 37 24 63t58 26q29 0 47 -19t18 -48q0 -50 -65 -78q-17 -8 -17 -30q0 -17 37 -37t91 -20q73 0 106.5 44.5t33.5 143.5q0 122 -23 156.5t-101 34.5h-73v12h83q57 0 78.5 33.5
t21.5 125.5q0 99 -20 136t-93 37q-67 0 -117.5 -56.5t-50.5 -132.5h-11v199h11q6 -24 40 -24q17 0 60.5 13.5t68.5 13.5q105 0 171.5 -50t66.5 -132q0 -69 -62 -118.5t-138 -49.5q107 0 166.5 -50.5t59.5 -141.5z" />
    <glyph glyph-name="afii10026" unicode="&#x418;" horiz-adv-x="753" 
d="M714 0h-312v13h80v555l-213 -445v-110h82v-13h-313v13h90v688h-90v13h313v-13h-82v-544l213 446v98h-80v13h312v-13h-90v-688h90v-13z" />
    <glyph glyph-name="afii10027" unicode="&#x419;" horiz-adv-x="753" 
d="M714 0h-312v13h80v555l-213 -445v-110h82v-13h-313v13h90v688h-90v13h313v-13h-82v-544l213 446v98h-80v13h312v-13h-90v-688h90v-13zM521 871q0 -47 -46 -72t-102 -25q-59 0 -102.5 24.5t-43.5 72.5q0 24 17 42t41 18q20 0 35.5 -13t15.5 -32q0 -21 -24 -37
q-24 -15 -24 -27q0 -17 23.5 -26.5t61.5 -9.5q87 0 87 36q0 5 -4 10t-12.5 11t-9.5 7q-23 15 -23 36q0 20 15.5 32.5t36.5 12.5q24 0 41 -18t17 -42z" />
    <glyph glyph-name="afii10028" unicode="&#x41a;" horiz-adv-x="697" 
d="M688 37l9 -9q-32 -35 -89 -35q-31 0 -60.5 10.5t-56.5 32.5t-43 61.5t-16 90.5v56q0 66 -31 94t-101 28h-31v-353h82v-13h-313v13h90v688h-90v13h313v-13h-82v-322h42q68 0 88 102q1 10 4.5 52t7 61t14 47.5t28.5 46.5q15 16 29.5 23.5t24 9t25.5 1.5q43 0 71.5 -23
t28.5 -75q0 -33 -19 -55t-51 -22q-30 0 -50 20t-20 48q0 20 15.5 42.5t15.5 31.5q0 11 -13 11q-22 0 -46 -24q-10 -10 -17 -21t-12.5 -27.5t-8.5 -26.5t-6 -31.5t-3.5 -28.5t-2.5 -32t-2 -28q-11 -86 -64 -105q229 0 229 -199v-82q0 -38 15.5 -58.5t42.5 -20.5q35 0 53 21z
" />
    <glyph glyph-name="afii10029" unicode="&#x41b;" horiz-adv-x="765" 
d="M681 0h-323v13h90v688h-133q-21 0 -30 -11.5t-9 -38.5v-239q0 -210 -26 -305q-16 -61 -43 -91t-81 -30q-51 0 -89 33.5t-38 83.5q0 33 21 57.5t54 24.5q30 0 52 -21.5t22 -51.5q0 -19 -15.5 -47t-15.5 -39q0 -26 26 -26q68 0 94 110q26 91 26 302v236q0 30 -7.5 41.5
t-30.5 11.5h-49v13h505v-13h-91v-688h91v-13z" />
    <glyph glyph-name="afii10030" unicode="&#x41c;" horiz-adv-x="926" 
d="M34 0v14h92v684h-92v14h257l173 -498h2l176 498h250v-14h-92v-684h92v-14h-328v14h91v684h-2l-246 -698h-16l-247 698h-2v-684h92v-14h-200z" />
    <glyph glyph-name="afii10031" unicode="&#x41d;" horiz-adv-x="753" 
d="M714 0h-312v13h80v353h-213v-353h82v-13h-313v13h90v688h-90v13h313v-13h-82v-322h213v322h-80v13h312v-13h-90v-688h90v-13z" />
    <glyph glyph-name="afii10032" unicode="&#x41e;" horiz-adv-x="833" 
d="M42 354q0 81 34.5 153t89 119.5t120.5 74.5t131 27q94 0 178.5 -44t140 -131t55.5 -196q0 -150 -112 -261t-262 -111t-262.5 108.5t-112.5 260.5zM205 354q0 -138 22.5 -216t67 -108.5t122.5 -30.5q48 0 84 11.5t58.5 37t36.5 54.5t21 75t9 86t2 100q0 41 -1 69t-4 64
t-9 60.5t-16 51.5t-26 44.5t-37.5 32.5t-51 22t-66.5 7q-55 0 -94 -18t-61.5 -47.5t-35.5 -78t-17 -97.5t-4 -119z" />
    <glyph glyph-name="afii10033" unicode="&#x41f;" horiz-adv-x="799" 
d="M714 0h-312v13h80v688h-213v-688h82v-13h-313v13h90v688h-90v13h676v-13h-90v-688h90v-13z" />
    <glyph glyph-name="afii10034" unicode="&#x420;" horiz-adv-x="648" 
d="M271 289v-275h92v-14h-329v14h92v684h-92v14h92q34 0 102 1.5t102 1.5q51 0 98 -8t94 -27t75.5 -58t28.5 -94q0 -41 -19.5 -81.5t-56.5 -76.5t-99 -58.5t-139 -22.5h-41zM271 698v-395h31q81 0 121 60.5t40 158.5q0 91 -34.5 135t-118.5 44q-6 0 -39 -3z" />
    <glyph glyph-name="afii10035" unicode="&#x421;" horiz-adv-x="722" 
d="M51 354q0 108 58.5 196t143.5 133t172 45q47 0 110 -18.5t75 -18.5q14 0 21 4t10 17h16v-204h-13q-14 43 -27 71.5t-38 63.5t-63.5 53t-89.5 18q-57 0 -96.5 -18.5t-62 -47.5t-34.5 -79t-15.5 -97.5t-3.5 -119.5q0 -202 48 -277.5t164 -75.5q84 0 142.5 62.5t78.5 150.5
h16v-212h-16q-9 21 -33 21q-9 0 -74.5 -18t-114.5 -18q-149 0 -261.5 108.5t-112.5 260.5z" />
    <glyph glyph-name="afii10036" unicode="&#x422;" horiz-adv-x="705" 
d="M280 14v684h-36q-78 0 -121 -35.5t-71 -133.5h-13v183h627v-183h-13q-28 98 -71 133.5t-121 35.5h-36v-684h92v-14h-329v14h92z" />
    <glyph glyph-name="afii10037" unicode="&#x423;" horiz-adv-x="648" 
d="M392 292l152 367q17 42 -13 42h-82v13h213v-13h-64q-24 0 -42 -42l-234 -570q-18 -46 -49.5 -76t-76.5 -30q-63 0 -102.5 42t-39.5 97q0 40 23 62.5t54 22.5q32 0 51 -18.5t19 -49.5q0 -39 -50 -73q-16 -9 -16 -25q0 -17 16 -31t45 -14q73 0 112 94l22 51l-251 560h-94
v13h348v-13h-106z" />
    <glyph glyph-name="afii10038" unicode="&#x424;" horiz-adv-x="925" 
d="M831 356q0 -117 -78.5 -198.5t-183.5 -81.5h-63v-63h81v-13h-304v13h82v63h-64q-104 0 -182.5 81.5t-78.5 198.5q0 118 78.5 200.5t182.5 82.5h64v62h-82v13h304v-13h-81v-62h63q105 0 183.5 -82t78.5 -201zM677 356q0 47 -5 89t-18 85.5t-41 69.5t-67 26h-40v-538h40
q131 0 131 268zM365 88v538h-40q-39 0 -67 -26t-41 -69.5t-18 -85.5t-5 -89q0 -268 131 -268h40z" />
    <glyph glyph-name="afii10039" unicode="&#x425;" horiz-adv-x="759" 
d="M10 698v14h335v-14h-82l146 -248l156 248h-86v14h181v-14h-78l-164 -262l258 -422h83v-14h-343v14h89l-182 301l-186 -301h90v-14h-190v14h82l195 316l-224 368h-80z" />
    <glyph glyph-name="afii10040" unicode="&#x426;" horiz-adv-x="799" 
d="M726 -233h-9q0 104 -54 168.5t-141 64.5h-484v13h90v688h-90v13h313v-13h-82v-688h213v688h-80v13h312v-13h-90v-688h102v-246z" />
    <glyph glyph-name="afii10041" unicode="&#x427;" horiz-adv-x="765" 
d="M683 0h-333v13h99v305q-44 -13 -80 -13q-126 0 -192.5 41.5t-66.5 146.5v208h-90v13h304v-13h-73v-217q0 -94 25.5 -130t92.5 -36q49 0 80 14v369h-74v13h308v-13h-90v-688h90v-13z" />
    <glyph glyph-name="afii10042" unicode="&#x428;" horiz-adv-x="1102" 
d="M1000 0h-962v13h86v688h-86v13h298v-13h-72v-688h183v688h-70v13h282v-13h-70v-688h183v688h-70v13h298v-13h-85v-688h85v-13z" />
    <glyph glyph-name="afii10043" unicode="&#x429;" horiz-adv-x="1102" 
d="M1017 -233h-10q0 104 -53 168.5t-142 64.5h-774v13h86v688h-86v13h298v-13h-72v-688h183v688h-70v13h282v-13h-70v-688h183v688h-70v13h298v-13h-85v-688h102v-246z" />
    <glyph glyph-name="afii10044" unicode="&#x42a;" horiz-adv-x="726" 
d="M694 218q0 -99 -64 -158.5t-194 -59.5h-306v13h92v688q-62 0 -106.5 -37.5t-64.5 -90.5t-20 -112h-11v253h434v-13h-91v-280h66q132 0 198.5 -54t66.5 -149zM554 218q0 109 -30.5 150t-109.5 41h-51v-396h59q79 0 105.5 45.5t26.5 159.5z" />
    <glyph glyph-name="afii10045" unicode="&#x42b;" horiz-adv-x="1018" 
d="M920 0h-323v13h90v688h-90v13h323v-13h-92v-688h92v-13zM590 218q0 -99 -63.5 -158.5t-193.5 -59.5h-295v13h90v688h-90v13h323v-13h-92v-280h56q132 0 198.5 -54t66.5 -149zM452 218q0 108 -31 149.5t-109 41.5h-43v-396h50q78 0 105.5 46t27.5 159z" />
    <glyph glyph-name="afii10046" unicode="&#x42c;" horiz-adv-x="633" 
d="M601 218q0 -99 -63.5 -158.5t-194.5 -59.5h-305v13h90v688h-90v13h323v-13h-92v-280h67q131 0 198 -54t67 -149zM462 218q0 108 -31 149.5t-109 41.5h-53v-396h61q79 0 105.5 45.5t26.5 159.5z" />
    <glyph glyph-name="afii10047" unicode="&#x42d;" horiz-adv-x="695" 
d="M606 356q0 -151 -91.5 -262t-226.5 -111q-77 0 -147 50t-70 123q0 38 23.5 64t59.5 26q30 0 46.5 -18t16.5 -49q0 -19 -9 -34.5t-15 -19.5l-20 -14l-12 -6l-11 -5.5t-8 -5.5t-6.5 -8t-1.5 -10q0 -22 50 -51.5t104 -29.5q70 0 104 37q60 64 60 324v10h-233v13h233
q-6 241 -60 303q-20 21 -39 28.5t-51 7.5q-71 0 -134 -71t-63 -145h-12v226h12q7 -28 46 -28q21 0 74 15.5t77 15.5q88 0 158.5 -52t108 -137.5t37.5 -185.5z" />
    <glyph glyph-name="afii10048" unicode="&#x42e;" horiz-adv-x="1119" 
d="M1005 356q0 -155 -92.5 -264t-222.5 -109t-221.5 109t-91.5 264v9h-108v-352h82v-13h-313v13h90v688h-90v13h313v-13h-82v-323h109q8 146 96 249.5t216 103.5q130 0 222.5 -110t92.5 -265zM849 356q0 135 -13 213t-46 113q-32 36 -100 36q-64 0 -97 -36q-61 -68 -61 -326
q0 -143 14 -214.5t47 -109.5q33 -37 97 -37q68 0 100 37q33 33 46 105.5t13 218.5z" />
    <glyph glyph-name="afii10049" unicode="&#x42f;" horiz-adv-x="707" 
d="M630 0h-324v13h91v332h-28q-69 0 -103.5 -27t-34.5 -91v-40q0 -98 -53.5 -147t-121.5 -49q-55 0 -89 36l9 9q18 -23 53 -23q27 0 43 21.5t16 59.5v72q0 80 47.5 132.5t141.5 52.5q-75 0 -130 53t-55 125q0 76 63.5 130.5t166.5 54.5h308v-13h-92v-688h92v-13zM397 357
v344h-50q-67 0 -90.5 -39t-23.5 -138t21 -133t90 -34h53z" />
    <glyph glyph-name="afii10065" unicode="&#x430;" horiz-adv-x="519" 
d="M498 25l9 -9q-20 -30 -90 -30q-93 0 -106 69h-2q-15 -40 -43 -54.5t-82 -14.5q-57 0 -99.5 23.5t-42.5 76.5q0 23 8 41t19 29t31 21.5t34.5 15.5l39.5 13q86 26 108.5 40.5t22.5 50.5v61q0 71 -62 71q-57 0 -57 -49q0 -3 3 -26.5t3 -28.5q0 -41 -61 -41q-58 0 -58 51
q0 50 50.5 79t120.5 29q85 0 134 -31t49 -110v-248q0 -48 33 -48q21 0 38 19zM305 116v132h-2q-3 -12 -27 -24l-21 -10t-22.5 -11t-19 -11t-18.5 -15l-12.5 -18t-10 -24.5t-2.5 -30.5q0 -95 65 -95q29 0 49.5 26.5t20.5 80.5z" />
    <glyph glyph-name="afii10066" unicode="&#x431;" horiz-adv-x="517" 
d="M477 209q0 -92 -62.5 -155t-153.5 -63q-94 0 -154 66t-60 186q0 149 26.5 233t78.5 139q63 68 225 78q67 5 71 42h12q-14 -84 -56 -120q-23 -21 -57.5 -29.5t-65 -10.5t-72 -19.5t-78.5 -52.5q-67 -65 -71 -228h2q21 68 74.5 110t124.5 42q96 0 156 -62.5t60 -155.5z
M357 209q0 149 -33 185q-20 21 -63 21q-41 0 -62 -21q-32 -35 -32 -185t32 -185q21 -21 62 -21q43 0 63 21q33 36 33 185z" />
    <glyph glyph-name="afii10067" unicode="&#x432;" horiz-adv-x="510" 
d="M481 113q0 -46 -37.5 -79.5t-105.5 -33.5h-307v12h65v402h-65v12h284q61 0 101.5 -25.5t40.5 -73.5q0 -42 -34.5 -71t-80.5 -29q65 0 102 -30t37 -84zM347 325q0 47 -17 68t-62 21h-58v-181h78q34 0 46.5 21t12.5 71zM362 109q0 70 -16.5 91t-63.5 21h-72v-209h73
q43 0 61 21.5t18 75.5z" />
    <glyph glyph-name="afii10068" unicode="&#x433;" horiz-adv-x="429" 
d="M414 255h-10q0 62 -41 110.5t-111 48.5h-40v-402h80v-12h-259v12h65v402h-65v12h381v-171z" />
    <glyph glyph-name="afii10069" unicode="&#x434;" horiz-adv-x="490" 
d="M141 297v66q0 51 -25 51h-34v12h377v-12h-65v-402h65v-165h-10q0 61 -41 107t-111 46h-129q-70 0 -111 -46t-41 -107h-10v165h51q37 40 60.5 115.5t23.5 169.5zM153 363v-66q0 -94 -23 -169t-60 -116h210v402h-102q-14 0 -19.5 -10.5t-5.5 -40.5z" />
    <glyph glyph-name="afii10070" unicode="&#x435;" horiz-adv-x="500" 
d="M465 251h-295v-45q0 -34 1.5 -58.5t9 -54.5t20.5 -48.5t37.5 -31.5t58.5 -13q37 0 67 14.5t46 35.5t25 38t10 28l14 -5q-13 -48 -56 -86.5t-121 -38.5q-107 0 -177 62.5t-70 167.5q0 88 69 157.5t164 69.5q78 0 137.5 -49t59.5 -143zM170 265h160v67q0 97 -65 97
q-22 0 -38 -6.5t-26 -22t-16 -27.5t-9 -36.5t-4 -35t-2 -36.5z" />
    <glyph glyph-name="afii10072" unicode="&#x436;" horiz-adv-x="740" 
d="M487 0h-234v12h60v207h-44q-41 0 -55.5 -16.5t-14.5 -57.5v-37q0 -58 -36.5 -86.5t-82.5 -28.5q-53 0 -86 35l8 9q20 -23 44 -23q17 0 27 20.5t10 52.5v18q0 123 157 123q-38 11 -56 108q-11 79 -51 79q-8 0 -8 -10q0 -3 10 -17t10 -28q0 -20 -13.5 -34.5t-38.5 -14.5
t-37 16.5t-12 39.5q0 31 20.5 47.5t47.5 16.5q23 0 38.5 -7t24 -22t12.5 -27.5t8 -33.5q4 -24 7.5 -38.5t12 -33.5t22 -28.5t33.5 -9.5h43v183h-60v12h234v-12h-60v-183h43q20 0 33.5 9.5t22 28.5t12 33.5t7.5 38.5q4 21 8 33.5t12.5 27.5t24 22t38.5 7q27 0 47.5 -16.5
t20.5 -47.5q0 -23 -12 -39.5t-37 -16.5t-38.5 14.5t-13.5 34.5q0 14 10 28t10 17q0 10 -8 10q-40 0 -51 -79q-17 -96 -56 -108q157 0 157 -123v-18q0 -32 10 -52.5t27 -20.5q24 0 44 23l8 -9q-33 -35 -86 -35q-46 0 -82.5 28.5t-36.5 86.5v37q0 41 -14.5 57.5t-55.5 16.5
h-44v-207h60v-12z" />
    <glyph glyph-name="afii10073" unicode="&#x437;" horiz-adv-x="423" 
d="M378 113q0 -60 -45 -91t-150 -31q-70 0 -112 27.5t-42 60.5q0 21 12.5 37t36.5 16q25 0 37.5 -12.5t12.5 -30.5q0 -8 -4 -20t-4 -22q0 -19 20 -31.5t39 -12.5q41 0 59.5 24t18.5 82q0 71 -13.5 90.5t-60.5 19.5h-56v13h60q35 0 48 19t13 74q0 53 -16.5 76t-53.5 23
q-38 0 -72.5 -39t-34.5 -83h-10v135h10q0 -4 6.5 -10.5t15.5 -6.5q11 0 43 7.5t62 7.5q76 0 119.5 -28.5t43.5 -79.5q0 -43 -36.5 -71.5t-91.5 -28.5q71 0 108 -29.5t37 -84.5z" />
    <glyph glyph-name="afii10074" unicode="&#x438;" horiz-adv-x="587" 
d="M556 0h-239v12h60v349l-167 -313v-36h60v-12h-239v12h65v402h-65v12h239v-12h-60v-338l167 313v25h-60v12h239v-12h-65v-402h65v-12z" />
    <glyph glyph-name="afii10075" unicode="&#x439;" horiz-adv-x="587" 
d="M556 0h-239v12h60v349l-167 -313v-36h60v-12h-239v12h65v402h-65v12h239v-12h-60v-338l167 313v25h-60v12h239v-12h-65v-402h65v-12zM438 641q0 -47 -46 -72t-102 -25q-59 0 -102.5 24.5t-43.5 72.5q0 24 17 42t41 18q20 0 35.5 -13t15.5 -32q0 -21 -24 -37
q-24 -15 -24 -27q0 -17 23.5 -26.5t61.5 -9.5q87 0 87 36q0 5 -4 10t-12.5 11t-9.5 7q-23 15 -23 36q0 20 15.5 32.5t36.5 12.5q24 0 41 -18t17 -42z" />
    <glyph glyph-name="afii10076" unicode="&#x43a;" horiz-adv-x="534" 
d="M261 219h-51v-207h60v-12h-239v12h65v402h-65v12h239v-12h-60v-183h50q20 0 33.5 9.5t22 28.5t12 33.5t7.5 38.5q4 21 8 33.5t12.5 27.5t24 22t38.5 7q27 0 47.5 -16.5t20.5 -47.5q0 -23 -12 -39.5t-37 -16.5t-38.5 14.5t-13.5 34.5q0 14 10 28t10 17q0 10 -8 10
q-40 0 -51 -79q-17 -96 -56 -108q157 0 157 -123v-18q0 -32 10 -52.5t27 -20.5q24 0 44 23l8 -9q-33 -35 -86 -35q-46 0 -82.5 28.5t-36.5 86.5v37q0 41 -14.5 57.5t-55.5 16.5z" />
    <glyph glyph-name="afii10077" unicode="&#x43b;" horiz-adv-x="507" 
d="M476 0h-249v12h70v402h-89q-12 0 -18 -2t-10.5 -11.5t-4.5 -29.5v-125q0 -60 -3 -101.5t-12 -78.5t-27.5 -55.5t-46.5 -18.5q-78 0 -78 77q0 24 15.5 40t39.5 16q22 0 35.5 -14t13.5 -35q0 -14 -11.5 -28.5t-11.5 -20.5q0 -15 18 -15q8 0 15 5.5t14.5 21.5t13.5 40
t9.5 64.5t3.5 92.5v135q0 43 -24 43h-45v12h382v-12h-65v-402h65v-12z" />
    <glyph glyph-name="afii10078" unicode="&#x43c;" horiz-adv-x="676" 
d="M100 48v366h-69v12h180l132 -299l130 299h172v-12h-65v-402h65v-12h-240v12h61v370l-169 -390h-15l-170 388v-332q0 -23 6 -29.5t20 -6.5h35v-12h-142v12h43q26 0 26 36z" />
    <glyph glyph-name="afii10079" unicode="&#x43d;" horiz-adv-x="587" 
d="M556 0h-239v12h60v207h-167v-207h60v-12h-239v12h65v402h-65v12h239v-12h-60v-183h167v183h-60v12h239v-12h-65v-402h65v-12z" />
    <glyph glyph-name="afii10080" unicode="&#x43e;" horiz-adv-x="556" 
d="M278 443q102 0 173 -67.5t71 -160.5q0 -94 -71 -161.5t-173 -67.5t-173 67.5t-71 161.5q0 93 71 160.5t173 67.5zM278 0q37 0 60.5 17t33.5 52t12.5 65.5t2.5 80.5t-2.5 80.5t-12.5 65t-33.5 51.5t-60.5 17t-60.5 -17t-33.5 -51.5t-12.5 -65t-2.5 -80.5t2.5 -80.5
t12.5 -65.5t33.5 -52t60.5 -17z" />
    <glyph glyph-name="afii10081" unicode="&#x43f;" horiz-adv-x="587" 
d="M556 0h-239v12h60v402h-167v-402h60v-12h-239v12h65v402h-65v12h525v-12h-65v-402h65v-12z" />
    <glyph glyph-name="afii10082" unicode="&#x440;" horiz-adv-x="593" 
d="M97 -266v681h-66v14h186v-74h2q32 88 118 88q55 0 98.5 -22t68.5 -57t38 -73.5t13 -75.5q0 -92 -61.5 -160.5t-156.5 -68.5q-83 0 -116 86h-2v-338h68v-14h-256v14h66zM219 214q0 -26 1 -45.5t4.5 -47t11.5 -46.5t20.5 -37.5t33 -28t47.5 -9.5q51 0 67 51.5t16 162.5
q0 121 -20 168t-71 47q-110 0 -110 -215z" />
    <glyph glyph-name="afii10083" unicode="&#x441;" horiz-adv-x="481" 
d="M35 215q0 52 27.5 103t85.5 88t133 37t122.5 -30.5t47.5 -80.5q0 -60 -65 -60q-62 0 -62 44q0 6 7.5 35t7.5 35q0 20 -17 31.5t-44 11.5q-34 0 -56.5 -16t-33.5 -47t-14.5 -64t-3.5 -81q0 -37 1.5 -63.5t9 -58.5t20.5 -51.5t37 -33.5t57 -14q38 0 68.5 14t46.5 35
t24.5 38t10.5 29l14 -5q-5 -21 -15.5 -39.5t-30 -39.5t-53.5 -33.5t-78 -12.5q-21 0 -46.5 4t-62.5 18.5t-66.5 37.5t-50.5 67t-21 102z" />
    <glyph glyph-name="afii10084" unicode="&#x442;" horiz-adv-x="464" 
d="M446 255h-10q0 62 -36 110.5t-96 48.5h-15v-402h70v-12h-254v12h70v402h-15q-61 0 -96.5 -48.5t-35.5 -110.5h-10v171h428v-171z" />
    <glyph glyph-name="afii10085" unicode="&#x443;" horiz-adv-x="481" 
d="M177 415l122 -289l127 289h-83v14h145v-14h-46q-85 -183 -164 -380.5t-96 -234.5q-21 -45 -47 -66t-65 -21q-45 0 -74 22t-29 59q0 27 18 41t46 14q21 0 37 -11t16 -31q0 -13 -6.5 -29.5t-6.5 -25.5q0 -22 20 -22q23 0 44.5 24.5t31.5 46t24 56.5l43 107l-188 451h-54v14
h255v-14h-70z" />
    <glyph glyph-name="afii10086" unicode="&#x444;" horiz-adv-x="757" 
d="M714 213q0 -97 -48.5 -159.5t-137.5 -62.5q-26 0 -53 9.5t-40 22.5v-290h65v-12h-243v12h65v290q-41 -32 -93 -32q-89 0 -137.5 62.5t-48.5 159.5t48.5 159.5t137.5 62.5q58 0 93 -33v306h-65v12h178v-318q35 33 93 33q89 0 137.5 -62.5t48.5 -159.5zM596 184v36
q0 42 -0.5 63t-3 49t-8 40.5t-15.5 26.5t-25 18.5t-37 4.5q-37 0 -72 -35v-350q34 -34 72 -34q25 0 42 9.5t26 23t14 39.5t6 48.5t1 60.5zM322 37v350q-35 35 -72 35q-22 0 -37 -4.5t-25 -18.5t-15.5 -26.5t-8 -40.5t-3 -49t-0.5 -63v-36q0 -38 1 -60.5t6 -48.5t14 -39.5
t26 -23t42 -9.5q38 0 72 34z" />
    <glyph glyph-name="afii10087" unicode="&#x445;" horiz-adv-x="500" 
d="M3 415v14h262v-14h-61l85 -140l102 140h-67v14h141v-14h-56l-110 -153l157 -248h41v-14h-255v14h69l-99 155l-111 -155h77v-14h-163v14h67l121 168l-149 233h-51z" />
    <glyph glyph-name="afii10088" unicode="&#x446;" horiz-adv-x="597" 
d="M572 -175h-10q0 63 -48.5 119t-123.5 56h-359v12h65v402h-65v12h239v-12h-60v-402h167v402h-60v12h239v-12h-65v-402h81v-187z" />
    <glyph glyph-name="afii10089" unicode="&#x447;" horiz-adv-x="544" 
d="M513 0h-259v12h81v171q-35 -13 -82 -13q-93 0 -138.5 27t-45.5 112v105h-59v12h228v-12h-55v-147q0 -50 15.5 -67.5t54.5 -17.5q51 0 82 14v218h-55v12h233v-12h-64v-402h64v-12z" />
    <glyph glyph-name="afii10090" unicode="&#x448;" horiz-adv-x="832" 
d="M801 0h-770v12h60v402h-60v12h227v-12h-55v-402h152v402h-55v12h222v-12h-55v-402h152v402h-55v12h237v-12h-70v-402h70v-12z" />
    <glyph glyph-name="afii10091" unicode="&#x449;" horiz-adv-x="837" 
d="M812 -175h-10q0 63 -48.5 119t-123.5 56h-599v12h60v402h-60v12h227v-12h-55v-402h152v402h-55v12h222v-12h-55v-402h152v402h-55v12h237v-12h-70v-402h81v-187z" />
    <glyph glyph-name="afii10092" unicode="&#x44a;" horiz-adv-x="554" 
d="M529 132q0 -57 -42 -94.5t-120 -37.5h-282v12h65v402q-57 0 -89.5 -49.5t-32.5 -111.5h-13v173h320v-12h-71v-160h99q80 0 123 -33t43 -89zM414 132q0 63 -19.5 86.5t-64.5 23.5h-66v-230h70q44 0 62 27t18 93z" />
    <glyph glyph-name="afii10093" unicode="&#x44b;" horiz-adv-x="747" 
d="M716 0h-239v12h60v402h-60v12h239v-12h-65v-402h65v-12zM465 132q0 -57 -42 -94.5t-120 -37.5h-272v12h65v402h-65v12h240v-12h-61v-160h89q80 0 123 -33t43 -89zM350 132q0 63 -19.5 86.5t-64.5 23.5h-56v-230h60q44 0 62 27t18 93z" />
    <glyph glyph-name="afii10094" unicode="&#x44c;" horiz-adv-x="500" 
d="M475 132q0 -57 -42 -94.5t-120 -37.5h-282v12h65v402h-65v12h250v-12h-71v-160h99q80 0 123 -33t43 -89zM360 132q0 63 -19.5 86.5t-64.5 23.5h-66v-230h70q44 0 62 27t18 93z" />
    <glyph glyph-name="afii10095" unicode="&#x44d;" horiz-adv-x="466" 
d="M423 213q0 -92 -64 -157t-154 -65q-68 0 -116.5 37t-48.5 79q0 46 46 46q21 0 33.5 -11t12.5 -27q0 -13 -6.5 -25.5t-6.5 -29.5q0 -59 86 -59q40 0 61 21q20 20 28 63.5t8 127.5v6h-144v12h144q-1 137 -36 172q-21 21 -61 21q-43 0 -83.5 -39t-40.5 -103h-10v145h10
q0 -4 6.5 -10.5t15.5 -6.5q11 0 41.5 12.5t60.5 12.5q93 0 155.5 -64.5t62.5 -157.5z" />
    <glyph glyph-name="afii10096" unicode="&#x44e;" horiz-adv-x="762" 
d="M719 213q0 -92 -65 -157t-155 -65t-154 65t-64 157v6h-71v-207h60v-12h-239v12h65v402h-65v12h239v-12h-60v-183h72q8 85 71 144.5t146 59.5q90 0 155 -65t65 -157zM599 213q0 152 -37 189q-20 21 -63 21q-41 0 -62 -21q-36 -39 -36 -189t36 -189q21 -21 62 -21
q43 0 63 21q37 37 37 189z" />
    <glyph glyph-name="afii10097" unicode="&#x44f;" horiz-adv-x="539" 
d="M508 0h-239v12h60v189h-63q-34 0 -50 -15t-16 -53v-27q0 -58 -34 -86.5t-78 -28.5q-29 0 -46 10t-36 30l8 9q21 -24 40 -24q27 0 27 55v22q0 55 26.5 86t100.5 31q-56 0 -91.5 30t-35.5 75q0 48 39.5 79.5t107.5 31.5h280v-12h-65v-402h65v-12zM329 213v201h-55
q-42 0 -60.5 -24t-18.5 -77q0 -54 15.5 -77t57.5 -23h61z" />
    <glyph glyph-name="uni0450" unicode="&#x450;" horiz-adv-x="500" 
d="M465 251h-295v-45q0 -34 1.5 -58.5t9 -54.5t20.5 -48.5t37.5 -31.5t58.5 -13q37 0 67 14.5t46 35.5t25 38t10 28l14 -5q-13 -48 -56 -86.5t-121 -38.5q-107 0 -177 62.5t-70 167.5q0 88 69 157.5t164 69.5q78 0 137.5 -49t59.5 -143zM170 265h160v67q0 97 -65 97
q-22 0 -38 -6.5t-26 -22t-16 -27.5t-9 -36.5t-4 -35t-2 -36.5zM243 705l88 -176h-13l-141 150q-9 10 -9 27q0 14 11.5 22t21.5 8q27 0 42 -31z" />
    <glyph glyph-name="afii10071" unicode="&#x451;" horiz-adv-x="500" 
d="M273 644q0 26 19 45t45 19t45 -19t19 -45t-19 -45t-45 -19t-45 19t-19 45zM99 644q0 26 19 45t45 19t45 -19t19 -45t-19 -45t-45 -19t-45 19t-19 45zM465 251h-295v-45q0 -34 1.5 -58.5t9 -54.5t20.5 -48.5t37.5 -31.5t58.5 -13q37 0 67 14.5t46 35.5t25 38t10 28l14 -5
q-13 -48 -56 -86.5t-121 -38.5q-107 0 -177 62.5t-70 167.5q0 88 69 157.5t164 69.5q78 0 137.5 -49t59.5 -143zM170 265h160v67q0 97 -65 97q-22 0 -38 -6.5t-26 -22t-16 -27.5t-9 -36.5t-4 -35t-2 -36.5z" />
    <glyph glyph-name="afii10099" unicode="&#x452;" horiz-adv-x="556" 
d="M495 268v-173q0 -291 -183 -291q-38 0 -69.5 23.5t-31.5 58.5q0 21 15.5 37.5t37.5 16.5q25 0 38.5 -11.5t13.5 -29.5q0 -12 -8 -24.5t-8 -28.5q0 -18 6 -24.5t23 -6.5q51 0 51 118v388q0 102 -58 102q-45 0 -72.5 -23.5t-44.5 -75.5v-312h63v-12h-243v12h65v529h-65v12
h65v156h-65v12h180v-168h195v-12h-195v-184q13 39 45.5 58.5t71.5 19.5q82 0 127.5 -43.5t45.5 -123.5z" />
    <glyph glyph-name="afii10100" unicode="&#x453;" horiz-adv-x="429" 
d="M404 255h10v171h-381v-12h65v-402h-65v-12h259v12h-80v402h40q70 0 111 -48.5t41 -110.5zM167 529l88 176q15 31 42 31q10 0 21.5 -8t11.5 -22q0 -17 -9 -27l-141 -150h-13z" />
    <glyph glyph-name="afii10101" unicode="&#x454;" horiz-adv-x="466" 
d="M43 213q0 93 62.5 157.5t155.5 64.5q30 0 60.5 -12.5t41.5 -12.5q9 0 15.5 6.5t6.5 10.5h10v-145h-10q0 64 -40.5 103t-83.5 39q-40 0 -61 -21q-35 -35 -36 -172h144v-12h-144v-6q0 -84 8 -127.5t28 -63.5q21 -21 61 -21q86 0 86 59q0 17 -6.5 29.5t-6.5 25.5
q0 16 12.5 27t33.5 11q46 0 46 -46q0 -42 -48.5 -79t-116.5 -37q-90 0 -154 65t-64 157z" />
    <glyph glyph-name="afii10102" unicode="&#x455;" horiz-adv-x="397" 
d="M370 139q0 -63 -43 -105.5t-115 -42.5q-36 0 -66.5 13.5t-44.5 13.5q-13 0 -24 -6.5t-14 -12.5h-10v154h12q0 -66 42 -108t105 -42q45 0 69 23t24 68q0 35 -27 52.5t-95 33.5q-61 13 -91.5 40t-30.5 76q0 65 39.5 102t92.5 37q30 0 55.5 -9.5t36.5 -9.5q9 0 16 8t7 12h10
v-124h-10q0 43 -38 78t-77 35q-75 0 -75 -79q0 -33 26.5 -49t94.5 -33q56 -13 93.5 -45.5t37.5 -79.5z" />
    <glyph glyph-name="afii10103" unicode="&#x456;" horiz-adv-x="315" 
d="M93 644q0 29 21 50t50 21t50 -21t21 -50t-21 -50t-50 -21t-50 21t-21 50zM36 415v14h189v-415h67v-14h-256v14h67v401h-67z" />
    <glyph glyph-name="afii10104" unicode="&#x457;" horiz-adv-x="315" 
d="M181 644q0 26 19 45t45 19t45 -19t19 -45t-19 -45t-45 -19t-45 19t-19 45zM7 644q0 26 19 45t45 19t45 -19t19 -45t-19 -45t-45 -19t-45 19t-19 45zM36 415v14h189v-415h67v-14h-256v14h67v401h-67z" />
    <glyph glyph-name="afii10105" unicode="&#x458;" horiz-adv-x="333" 
d="M109 644q0 29 21 50t50 21t50 -21t21 -50t-21 -50t-50 -21t-50 21t-21 50zM119 -212v627h-67v14h189v-472q0 -244 -167 -244q-54 0 -89 23t-35 62q0 56 56 56q53 0 53 -44q0 -8 -4 -26t-4 -25q0 -9 1 -14.5t8.5 -11.5t22.5 -6q19 0 27.5 12t8.5 49z" />
    <glyph glyph-name="afii10106" unicode="&#x459;" horiz-adv-x="695" 
d="M226 0h1v12h70v402h-89q-12 0 -18 -2t-10.5 -11.5t-4.5 -29.5v-125q0 -60 -3 -101.5t-12 -78.5t-27.5 -55.5t-46.5 -18.5q-78 0 -78 77q0 24 15.5 40t39.5 16q22 0 35.5 -14t13.5 -35q0 -14 -11.5 -28.5t-11.5 -20.5q0 -15 18 -15q8 0 15 5.5t14.5 21.5t13.5 40t9.5 64.5
t3.5 92.5v135q0 43 -24 43h-45v12h382v-12h-71v-160h99q80 0 123 -33t43 -89q0 -57 -42 -94.5t-120 -37.5h-282zM555 132q0 63 -19.5 86.5t-64.5 23.5h-66v-230h70q44 0 62 27t18 93z" />
    <glyph glyph-name="afii10107" unicode="&#x45a;" horiz-adv-x="775" 
d="M317 0v12h60v214h-167v-214h60v-12h-239v12h65v402h-65v12h239v-12h-60v-176h167v176h-60v12h239v-12h-71v-176h99q81 0 123.5 -29.5t42.5 -84.5q0 -57 -41 -90.5t-121 -33.5h-271zM635 124q0 56 -20 79t-64 23h-66v-214h70q44 0 62 25.5t18 86.5z" />
    <glyph glyph-name="afii10108" unicode="&#x45b;" horiz-adv-x="573" 
d="M559 0h-241v12h62v309q0 102 -58 102q-45 0 -72.5 -23.5t-44.5 -75.5v-312h63v-12h-243v12h65v555h-65v12h65v130h-65v12h180v-142h195v-12h-195v-210q13 39 45.5 58.5t71.5 19.5q82 0 127.5 -43.5t45.5 -123.5v-256h64v-12z" />
    <glyph glyph-name="afii10109" unicode="&#x45c;" horiz-adv-x="534" 
d="M210 219h51q41 0 55.5 -16.5t14.5 -57.5v-37q0 -58 36.5 -86.5t82.5 -28.5q53 0 86 35l-8 9q-20 -23 -44 -23q-17 0 -27 20.5t-10 52.5v18q0 123 -157 123q39 12 56 108q11 79 51 79q8 0 8 -10q0 -3 -10 -17t-10 -28q0 -20 13.5 -34.5t38.5 -14.5t37 16.5t12 39.5
q0 31 -20.5 47.5t-47.5 16.5q-23 0 -38.5 -7t-24 -22t-12.5 -27.5t-8 -33.5q-4 -24 -7.5 -38.5t-12 -33.5t-22 -28.5t-33.5 -9.5h-50v183h60v12h-239v-12h65v-402h-65v-12h239v12h-60v207zM187 529l88 176q15 31 42 31q10 0 21.5 -8t11.5 -22q0 -17 -9 -27l-141 -150h-13z
" />
    <glyph glyph-name="uni045D" unicode="&#x45d;" horiz-adv-x="587" 
d="M317 0h239v12h-65v402h65v12h-239v-12h60v-25l-167 -313v338h60v12h-239v-12h65v-402h-65v-12h239v12h-60v36l167 313v-349h-60v-12zM265 705l88 -176h-13l-141 150q-9 10 -9 27q0 14 11.5 22t21.5 8q27 0 42 -31z" />
    <glyph glyph-name="afii10110" unicode="&#x45e;" horiz-adv-x="481" 
d="M177 415l122 -289l127 289h-83v14h145v-14h-46q-85 -183 -164 -380.5t-96 -234.5q-21 -45 -47 -66t-65 -21q-45 0 -74 22t-29 59q0 27 18 41t46 14q21 0 37 -11t16 -31q0 -13 -6.5 -29.5t-6.5 -25.5q0 -22 20 -22q23 0 44.5 24.5t31.5 46t24 56.5l43 107l-188 451h-54v14
h255v-14h-70zM411 641q0 -47 -46 -72t-102 -25q-59 0 -102.5 24.5t-43.5 72.5q0 24 17 42t41 18q20 0 35.5 -13t15.5 -32q0 -21 -24 -37q-24 -15 -24 -27q0 -17 23.5 -26.5t61.5 -9.5q87 0 87 36q0 5 -4 10t-12.5 11t-9.5 7q-23 15 -23 36q0 20 15.5 32.5t36.5 12.5
q24 0 41 -18t17 -42z" />
    <glyph glyph-name="afii10193" unicode="&#x45f;" horiz-adv-x="587" 
d="M556 0h-160q-29 0 -48 -7.5t-29 -17t-15 -33t-5.5 -39.5t-0.5 -53h-13q0 82 -17.5 116t-81.5 34h-155v12h65v402h-65v12h239v-12h-60v-402h167v402h-60v12h239v-12h-65v-402h65v-12z" />
    <glyph glyph-name="afii10050" unicode="&#x490;" horiz-adv-x="579" 
d="M558 701h-289v-688h102v-13h-333v13h90v688h-90v13h306q99 0 151.5 68t52.5 165h10v-246z" />
    <glyph glyph-name="afii10098" unicode="&#x491;" horiz-adv-x="419" 
d="M409 414h-197v-402h80v-12h-259v12h65v402h-65v12h222q70 0 107 44.5t37 106.5h10v-163z" />
    <glyph glyph-name="uni0492" unicode="&#x492;" horiz-adv-x="579" 
d="M38 372h90v329h-90v13h520v-245h-10q0 95 -52.5 163.5t-151.5 68.5h-75v-329h163v-12h-163v-347h92v-13h-323v13h90v347h-90v12z" />
    <glyph glyph-name="uni0493" unicode="&#x493;" horiz-adv-x="429" 
d="M33 228h65v186h-65v12h381v-171h-10q0 62 -41 110.5t-111 48.5h-40v-186h114v-12h-114v-204h80v-12h-259v12h65v204h-65v12z" />
    <glyph glyph-name="uni049A" unicode="&#x49a;" horiz-adv-x="697" 
d="M547 2q-50 17 -82.5 64.5t-32.5 121.5v56q0 66 -31 94t-101 28h-31v-353h82v-13h-313v13h90v688h-90v13h313v-13h-82v-322h42q68 0 88 102q1 10 4.5 52t7 61t14 47.5t28.5 46.5q15 16 29.5 23.5t24 9t25.5 1.5q43 0 71.5 -23t28.5 -75q0 -33 -19 -55t-51 -22
q-30 0 -50 20t-20 48q0 20 15.5 42.5t15.5 31.5q0 11 -13 11q-22 0 -46 -24q-10 -10 -17 -21t-12.5 -27.5t-8.5 -26.5t-6 -31.5t-3.5 -28.5t-2.5 -32t-2 -28q-11 -86 -64 -105q229 0 229 -199v-82q0 -38 15.5 -58.5t42.5 -20.5l62 -1v-246h-9q0 75 -31 136t-84 88
q-9 4 -26 9z" />
    <glyph glyph-name="uni049B" unicode="&#x49b;" horiz-adv-x="534" 
d="M431 -6q-7 1 -21 5q-34 10 -56.5 37.5t-22.5 71.5v37q0 41 -14.5 57.5t-55.5 16.5h-51v-207h60v-12h-239v12h65v402h-65v12h239v-12h-60v-183h50q20 0 33.5 9.5t22 28.5t12 33.5t7.5 38.5q4 21 8 33.5t12.5 27.5t24 22t38.5 7q27 0 47.5 -16.5t20.5 -47.5
q0 -23 -12 -39.5t-37 -16.5t-38.5 14.5t-13.5 34.5q0 14 10 28t10 17q0 10 -8 10q-40 0 -51 -79q-17 -96 -56 -108q157 0 157 -123v-18q0 -32 10 -52.5t27 -20.5h50v-187h-10q0 56 -47 123q-19 27 -46 44z" />
    <glyph glyph-name="uni04A2" unicode="&#x4a2;" horiz-adv-x="753" 
d="M624 701v-688h102v-246h-9q0 104 -54 168.5t-141 64.5h-120v13h80v353h-213v-353h82v-13h-313v13h90v688h-90v13h313v-13h-82v-322h213v322h-80v13h312v-13h-90z" />
    <glyph glyph-name="uni04A3" unicode="&#x4a3;" horiz-adv-x="587" 
d="M390 0h-73v12h60v207h-167v-207h60v-12h-239v12h65v402h-65v12h239v-12h-60v-183h167v183h-60v12h239v-12h-65v-402h81v-187h-10q0 63 -48.5 119t-123.5 56z" />
    <glyph glyph-name="uni04AE" unicode="&#x4ae;" horiz-adv-x="704" 
d="M-16 698v14h323v-14h-79l204 -349l184 349h-87v14h191v-14h-87l-193 -367v-317h93v-14h-330v14h92v279l-232 405h-79z" />
    <glyph glyph-name="uni04AF" unicode="&#x4af;" horiz-adv-x="465" 
d="M405 372l-149 -386v-252h115v-12h-243v12h115v252l-207 428h-60v12h260v-12h-70l128 -302l100 260q17 42 -15 42h-43v12h153v-12h-37q-19 0 -27 -7t-20 -35z" />
    <glyph glyph-name="uni04B0" unicode="&#x4b0;" horiz-adv-x="704" 
d="M558 238h-118v-224h93v-14h-330v14h92v224h-118v12h118v43l-232 405h-79v14h323v-14h-79l204 -349l184 349h-87v14h191v-14h-87l-193 -367v-81h118v-12z" />
    <glyph glyph-name="uni04B1" unicode="&#x4b1;" horiz-adv-x="465" 
d="M243 -82h-125v12h125v56l-207 428h-60v12h260v-12h-70l128 -302l100 260q17 42 -15 42h-43v12h153v-12h-37q-19 0 -27 -7t-20 -35l-149 -386v-56h125v-12h-125v-184h115v-12h-243v12h115v184z" />
    <glyph glyph-name="uni04BA" unicode="&#x4ba;" horiz-adv-x="765" 
d="M20 714h333v-13h-100v-305q49 13 81 13q126 0 192.5 -41.5t66.5 -147.5v-207h90v-13h-305v13h74v217q0 93 -26 129.5t-92 36.5q-44 0 -81 -14v-369h75v-13h-308v13h90v688h-90v13z" />
    <glyph glyph-name="uni04BB" unicode="&#x4bb;" horiz-adv-x="573" 
d="M559 0h-241v12h62v308v77q1 13 -6.5 19t-21.5 6q-114 0 -147 -99v-311h63v-12h-243v12h65v699h-65v12h180v-366q39 78 147 78q78 0 110.5 -41.5t32.5 -125.5v-256h64v-12z" />
    <glyph glyph-name="uni04D8" unicode="&#x4d8;" horiz-adv-x="724" 
d="M361 718q-100 -1 -173.5 -67.5t-108.5 -170.5h-15q4 14 7 21q35 101 113 165.5t177 64.5q130 0 222 -110t92 -265t-91.5 -264t-222.5 -109q-129 0 -221 109t-92 264v10h471q-1 122 -12 199q-14 82 -46 117q-35 36 -100 36zM207 230q8 -144 56 -198q36 -37 98 -37
q66 0 100 37q47 50 55 198q3 49 3 121h-315q0 -71 3 -121z" />
    <glyph glyph-name="afii10846" unicode="&#x4d9;" horiz-adv-x="496" 
d="M43 187v3h296v23q0 83 -9 125.5t-30 63.5t-63 21q-55 0 -100.5 -25.5t-74.5 -65.5l-8 8q30 43 79 69t104 26q91 0 157 -65t66 -157t-66 -157t-157 -65q-61 0 -107.5 35.5t-66.5 79t-20 81.5zM339 178h-191q1 -117 34 -154q19 -21 55 -21q42 0 63 21q38 38 39 154z" />
    <glyph glyph-name="uni04E8" unicode="&#x4e8;" horiz-adv-x="833" 
d="M42 354q0 81 34.5 153t89 119.5t120.5 74.5t131 27q94 0 178.5 -44t140 -131t55.5 -196q0 -150 -112 -261t-262 -111t-262.5 108.5t-112.5 260.5zM417 714q-54 0 -93 -17.5t-61.5 -46t-36 -76t-17.5 -95.5t-4 -116h423q0 41 -1 69t-4 64t-9 60.5t-16 51.5t-26 44.5
t-37.5 32.5t-51 22t-66.5 7zM417 -1q56 0 95 18t61.5 45.5t35 75.5t16 93.5t3.5 113.5h-423q0 -135 23 -210.5t67.5 -105.5t121.5 -30z" />
    <glyph glyph-name="uni04E9" unicode="&#x4e9;" horiz-adv-x="556" 
d="M278 443q102 0 173 -67.5t71 -160.5q0 -94 -71 -161.5t-173 -67.5t-173 67.5t-71 161.5q0 93 71 160.5t173 67.5zM278 0q36 0 59 16t33 49t13.5 63t3.5 78h-218q0 -37 1.5 -62.5t8 -55t17.5 -47t32 -29.5t50 -12zM278 429q-29 0 -50 -12t-32 -29.5t-17.5 -47t-8 -54.5
t-1.5 -62h218q0 48 -3.5 77.5t-13.5 62.5t-33 49t-59 16z" />
    <glyph glyph-name="uni10D0" unicode="&#x10d0;" horiz-adv-x="487" 
d="M166 130q0 -54 29.5 -89.5t85.5 -35.5q37 0 72 32q28 27 40 73q3 7 3 28q0 29 -16.5 48.5t-48.5 40.5q-19 13 -42 27q-50 30 -86 66q-40 44 -40 106q0 14 2 27l34 1q18 -48 50.5 -80t81.5 -62q6 -6 9 -7l15 -9q53 -33 85 -65q41 -41 41 -93q0 -60 -58 -108
q-49 -43 -142 -43q-113 0 -167.5 38.5t-54.5 104.5q0 13 6 31q10 39 69 39q13 0 17 -1q28 -3 28 -11l-3 -8q0 -1 -2 -6.5t-3 -6.5q-5 -12 -5 -37z" />
    <glyph glyph-name="uni10D1" unicode="&#x10d1;" horiz-adv-x="532" 
d="M252 374v201q0 47 -19 47q-6 0 -24 -2q-7 0 -9 -1l-4 -1h-6h-11q-108 0 -118 47q-2 14 -2 15v13h89q24 0 24 -6q-1 -1 -1 -10v-5q2 -19 47 -19q75 -4 98 -21q33 -23 45 -59v-199l-11 1l12 -4h-1q7 -4 21 -10l21 -9q113 -60 120 -156q0 -89 -56 -142q-48 -48 -121 -62h1
q-20 -5 -52 -5q-31 0 -65 8h1q-69 15 -118 63q-54 56 -54 138q0 65 47 106q37 31 96 53h-1q29 12 66 20zM184 188q0 -79 30 -130q35 -53 81 -53q111 0 111 183q0 73 -28.5 112.5t-74.5 39.5q-43 0 -86 -28q-33 -22 -33 -124z" />
    <glyph glyph-name="uni10D2" unicode="&#x10d2;" horiz-adv-x="565" 
d="M291 123v135q0 22 -7 35q-17 52 -63 52q-26 0 -42.5 -15t-18.5 -37q-2 -5 -2 -18q0 -39 18 -46h-2q17 -6 19 -16q0 -2 -1 -3v-2v-1q-7 -27 -46 -27q-48 0 -67.5 20t-19.5 58q0 37 46 71q36 28 94 35h12q1 0 4.5 0.5t5.5 0.5q73 0 120 -31q57 -39 57 -99v-112l-13 2
q170 -66 170 -240q0 -97 -65 -156q-61 -56 -164 -56q-109 0 -185 60h1q-83 66 -83 152q0 66 56 131q47 52 120 87q27 13 72 22zM188 -115v-1q0 -99 41 -143q49 -48 97 -48q56 0 85.5 52t29.5 140q0 100 -26 150q-30 55 -51 64q-18 6 -23 6q-52 0 -107 -54h1
q-47 -53 -47 -166z" />
    <glyph glyph-name="uni10D3" unicode="&#x10d3;" horiz-adv-x="725" 
d="M181 170q0 -124 45 -169q56 -47 110 -70q2 -2 9.5 -5t9.5 -4q39 -17 49 -24h-1q10 -4 20 -10h-1l63 -35q51 -30 97 -76q49 -52 49 -118v-12l-34 -1q-44 91 -157 165q-96 61 -171 83q-4 0 -10 2h2q-2 1 -10 1q-14 2 -17 2h-6q-41 -2 -47 -62q-3 -21 -18.5 -35t-37.5 -17
l11 1q-2 -2 -20 -2q-22 -1 -37.5 9t-19.5 28l6 -1q-1 1 -4 3l-3 3v5q0 11 10 22.5t20.5 19t31.5 20.5l-2 -2q15 10 23 16t15.5 17t7.5 24l8 -2q-8 6 -22 20l-7 7q-84 84 -84 190q0 102 60 153q53 45 132 45q74 0 111 -28q1 -1 13 -10q24 18 51 27t42.5 10t45.5 1
q43 0 77 -17h-1q49 -22 82.5 -62.5t33.5 -95.5q0 -65 -54 -128q-51 -54 -138 -54q-78 0 -137 44q-65 50 -70 130q0 42 15 78h-1l11 21l-2 -2q-22 66 -79 66q-38 0 -54 -46q-16 -41 -16 -125zM436 186q6 -99 27 -130q27 -32 51 -32q37 0 53.5 29.5t16.5 97.5q0 22 -1 35
q0 93 -20 122q-24 33 -49 33q-44 0 -61 -35t-17 -120z" />
    <glyph glyph-name="uni10D4" unicode="&#x10d4;" horiz-adv-x="474" 
d="M346 -196v452q0 37 -14 62.5t-42 25.5q-22 0 -38.5 -22.5t-23.5 -52.5q-2 -14 -2 -20q0 -11 1 -16l-17 2q43 -8 43 -39q0 -5 -2 -10l1 1q-2 -17 -18.5 -29.5t-45.5 -12.5q-5 0 -13 2q-1 0 -3 0.5t-3 0.5l-11 1q-54 22 -54 76q0 53 48 93q37 33 98 43q2 0 7 0.5t7 0.5
q14 2 26 2q83 0 131 -41.5t48 -111.5v-378q0 -75 -65 -123q-56 -44 -136 -45q-17 0 -22 1q-74 8 -127 55q-60 53 -60 128q0 51 23.5 88.5t59.5 57.5q26 14 56 14q11 0 26 -5q-50 -81 -50 -165q0 -71 27 -106q33 -42 61 -47l2 -1h4q20 0 39 22t31 54q8 17 8 43z" />
    <glyph glyph-name="uni10D5" unicode="&#x10d5;" horiz-adv-x="471" 
d="M154 146q-37 0 -58 22t-22 54q0 53 55 95q46 34 115 42h12q1 0 4.5 0.5t5.5 0.5q4 0 9 -0.5t8 -0.5h19q66 -4 109 -35q55 -37 55 -124q0 -22 -8 -39q-23 -54 -82 -89q69 -32 78 -63q12 -39 12 -114q0 -93 -34 -163q-34 -64 -166 -64q-93 0 -136 41q-48 48 -61 87
q-10 29 -10 62q0 75 82 126q26 17 58 17h17q1 -1 8 -1q-37 -48 -39 -149v-7q0 -68 20 -109q23 -47 53 -47q53 0 70 56q15 54 15 159q0 78 -16 111q-19 42 -71 56l5 4q5 0 6 1q16 2 29 7q47 10 48 92v9l1 -1q-2 5 -2 10q0 94 -23 119q-29 29 -54 29q-21 0 -45 -27
q-21 -21 -21 -60q0 -3 2 -17v-3q1 -1 1 -3l-11 2q32 -17 32 -41q-1 -18 -20 -31.5t-50 -13.5z" />
    <glyph glyph-name="uni10D6" unicode="&#x10d6;" horiz-adv-x="700" 
d="M403 343q4 1 10 5q-1 1 -10 -5zM284 167v248q-24 -10 -62 -10q-72 0 -112 34q-51 41 -51 103q0 72 43.5 108.5t111.5 36.5q54 0 90 -13h-1q47 -15 75 -46h-1q37 -40 37 -101v-179q1 1 4 2q22 9 63 14h6h1q1 1 3 1h8q26 0 41 -4h-1q60 -14 98 -55q45 -48 45 -132
q0 -99 -64 -145q-56 -42 -138 -42q-82 2 -135 57q-61 60 -61 123zM406 182q0 -76 27 -125q28 -52 50 -52q36 0 53.5 39t17.5 130q0 78 -20 124.5t-51 46.5q-35 0 -56 -45t-21 -118zM151 542q0 -58 21 -88t50 -30q3 0 11 4q21 7 36 37.5t15 76.5q0 75 -23 98q-27 27 -48 28
q-62 -2 -62 -126z" />
    <glyph glyph-name="uni10D7" unicode="&#x10d7;" horiz-adv-x="754" 
d="M59 159q0 118 113 177h-1q40 22 89 22h4q68 -4 121 -53q3 -3 5 -4.5t2.5 -2t1.5 -0.5q1 -1 3 -4q56 64 129 64q34 0 61 -7q62 -18 96 -51q47 -44 51 -111q0 -59 -36 -122h1q-24 -46 -73 -105h1q-5 -6 -13.5 -14.5l-11.5 -11.5q-25 -35 -50 -60v52h1q-2 5 -2 9q0 35 23 87
v1q0 3 1 4q29 56 29 115q0 194 -78 194q-18 0 -47 -50q-24 -45 -24 -129q0 -81 -35 -134q-25 -39 -76 -72q-39 -21 -84 -21q-41 0 -83 18q-47 26 -80 71q-38 53 -38 138zM182 144q0 -75 23 -121q28 -58 46 -69h-2q2 -2 8 -4q1 -1 3 -1q64 0 71 195q0 94 -26 139
q-28 55 -45 55q-3 0 -4 -1q-29 -13 -51.5 -66t-22.5 -127z" />
    <glyph glyph-name="uni10D8" unicode="&#x10d8;" horiz-adv-x="501" 
d="M181 171q0 -35 10 -96q9 -67 49 -135q-55 0 -83 22q-41 34 -69 87q-29 64 -29 129q0 80 45 125q39 39 96 56q39 10 81 10q58 0 94 -13h-1q54 -18 83 -55h-1q39 -43 39 -123q0 -73 -35 -138q-30 -58 -78 -88q-22 -12 -69 -12q16 29 43 94q18 59 18 144q0 80 -24 125.5
t-69 45.5q-50 0 -75 -48t-25 -130z" />
    <glyph glyph-name="uni10D9" unicode="&#x10d9;" horiz-adv-x="491" 
d="M485 190q0 -78 -88 -120q1 0 1 -1l2 -1v-1q41 -21 56 -47q23 -35 29 -131q0 -99 -45 -155h1q-36 -45 -96 -65h1q-24 -9 -62 -9q-44 0 -82 13q-61 20 -97 58q-46 46 -46 113q0 80 92 135q29 16 81 16q-45 -43 -45 -122q0 -12 1 -15v-6q0 -2 0.5 -4t0.5 -4q0 -96 29 -127
q34 -37 66 -37q22 0 47 48q24 43 30 109q2 18 2 30v11q0 2 -1 2v3v6q0 94 -17 126q-20 38 -73 54q9 4 29 4l10.5 2.5t7.5 1.5q14 5 35 30q15 18 15 83q0 62 -14 85l-13 23l-13 23q-6 0 -9 3q-22 16 -33 35q88 0 134 -44q51 -49 60 -94l-1 1q5 -16 5 -32z" />
    <glyph glyph-name="uni10DA" unicode="&#x10da;" horiz-adv-x="980" 
d="M183 172v-7q0 -90 37 -128q41 -41 142 -79q12 -4 79 -23l52 -15q182 -49 252 -94q72 -48 88 -74q16 -27 36 -67q0 -3 3 -6q2 -4 8.5 -15.5t11.5 -17.5l-30 -2q-94 91 -199 137q-119 52 -245 88l-153 45q-2 0 -18 -5h2q-14 -6 -20 -9t-15 -9.5t-12.5 -16.5t-3.5 -24l-1 1
q4 -11 4 -22q1 -20 -16.5 -31t-45.5 -11h-10q-26 3 -44 15t-18 30q0 5 2 10h-1q4 35 69 72q2 2 7 4.5l7 3.5t5.5 2.5t5.5 3.5q1 0 5 2.5t6 3.5h-2l5 4q5 4 9 9l4 -1q-34 12 -59 42q-70 84 -70 184q0 68 38 111q32 35 85 57h-1q40 17 87 17q83 0 131 -36l29 18h-1
q28 18 91 18q51 0 74 -11h-1q28 -13 40 -24q21 15 61 27q26 8 68 8q38 0 70 -11h-1q52 -18 80 -49h-1q39 -39 39 -93q0 -68 -70 -130q-24 -22 -87 -38q24 68 29 84v-1q6 30 6 56q0 6 -2 36q-11 126 -63 126q-31 0 -51 -32t-20 -87q0 -50 3 -69.5t13 -31.5h-2q2 -1 4 -4t3 -4
l14 -14h-173q12 21 17 27l5 5h-3q19 38 19 91q0 46 -25 82q-28 37 -46 37q-8 0 -18 -6q-23 -13 -38.5 -42t-15.5 -71q0 -68 16 -91h-2q2 -4 7 -10t8 -9q2 -2 5 -7t4 -6h-182q6 12 23 35h-1q22 36 22 88q0 55 -23 87t-55 32q-1 0 -2.5 -0.5t-4.5 -1t-6 -0.5h1
q-31 -7 -52.5 -46.5t-22.5 -105.5q0 -9 1 -11z" />
    <glyph glyph-name="uni10DB" unicode="&#x10db;" horiz-adv-x="473" 
d="M385 312h-4q4 -4 4 0zM260 367q54 0 85 -18v197q0 71 -26 91q-33 27 -59 27q-1 0 -3 -0.5t-5 -1t-6 -0.5q-2 0 -5 -0.5t-4 -0.5h2q-26 -7 -44.5 -30t-18.5 -57t17 -65q9 -15 9 -20q0 -16 -20 -27.5t-50 -13.5q-31 1 -52 21.5t-21 60.5q4 59 52 104q44 39 99 52q22 6 50 6
q208 0 208 -192v-333q0 -87 -66 -136q-59 -44 -142 -44q-92 0 -144 43q-57 48 -57 153q0 70 46 119q39 40 98 57h-1q29 8 58 8zM345 191q0 73 -16 104q-19 37 -62 37q-48 0 -67.5 -35t-25.5 -114q2 -102 16 -134q20 -45 70 -45q54 0 70 46q15 42 15 141z" />
    <glyph glyph-name="uni10DC" unicode="&#x10dc;" horiz-adv-x="501" 
d="M196 533v-186q13 6 50 12q2 0 6.5 0.5t6.5 0.5q14 2 27 2q88 1 145 -51v1q64 -55 64 -139q0 -186 -206 -186q-82 0 -141 38q-65 44 -65 141v344q0 93 52 133q45 33 111 40q30 2 43 2q26 0 56 -6q2 0 7 -0.5t6 -0.5q2 -1 2 -2t1 -2t4 -1q1 0 4 -0.5t4 -0.5q3 0 6 -0.5
t4.5 -1t2.5 -0.5q9 0 50 11l2 1l4 2q21 8 41 8l7 -4q-12 -7 -16 -12l-8 -8l-5 -6h3q-3 0 -7 -4h1q-30 -37 -72 -37q-29 0 -58 11q-2 0 -8 2l-6 3h2q-16 6 -20 6q-18 0 -33 -5q-67 -15 -67 -105zM196 196q0 -132 25 -157q32 -35 68 -35q49 0 67 39.5t18 137.5q0 95 -25 119
q-29 29 -60 29q-44 0 -72 -25q-21 -20 -21 -108z" />
    <glyph glyph-name="uni10DD" unicode="&#x10dd;" horiz-adv-x="720" 
d="M457 124q-1 0 -2 1q2 0 2 -1zM448 122h-135l-7 4q22 9 24 75q-14 136 -82 136q-30 0 -43.5 -37t-13.5 -123q0 -110 13.5 -171t52.5 -91h-29q-2 0 -6 0.5t-6 0.5q-66 13 -110 86q-47 80 -47 175q0 77 43 120h-1q33 36 90 53q27 7 57 7q79 0 131 -62q22 27 61 44.5t87 17.5
q28 0 55 -8q49 -16 83 -57q36 -46 36 -131q0 -63 -31 -126q-25 -51 -70 -90q-36 -30 -93 -30q0 3 7 10h-1q13 23 30 64q34 79 34 180q0 168 -50 168q-7 0 -31 -6q-21 -9 -44 -40q-20 -23 -20 -90q0 -58 23 -76q-1 0 -1 1z" />
    <glyph glyph-name="uni10DE" unicode="&#x10de;" horiz-adv-x="466" 
d="M339 164q0 83 -29 110q-32 33 -79 44l2 4q20 1 46 10q33 13 59 40t32 66q-4 46 -67 88l-14.5 11l-17.5 13q-72 52 -77 56q-40 37 -40 72q0 2 2 7l-1 -1v5h39q0 -13 4 -18h-1q19 -27 96 -70l26 -13h-1q62 -38 94 -66q49 -42 49 -84q0 -35 -23 -59t-64 -47q-16 -9 -23 -12
q2 -2 3 -2q2 0 3 -2q3 -1 12 -6t13 -7q46 -29 60 -51h-1q20 -35 20 -102q0 -95 -70 -132q-58 -31 -143 -31q-76 0 -129 35q-60 40 -60 98q0 29 20 49.5t48 26.5q2 1 14 1q34 0 48 -17h-1q19 -19 19 -23l-2 -5q-4 -8 -17 -25h1q-10 -18 -10 -41q0 -9 1 -10q0 -20 6 -30
q25 -42 62 -42q50 0 70.5 37.5t20.5 122.5z" />
    <glyph glyph-name="uni10DF" unicode="&#x10df;" horiz-adv-x="491" 
d="M189 -132v-1q0 -76 23 -99q32 -30 60 -33q3 -1 12 -1q34 0 56 34t22 108v466q-9 -2 -25.5 -6l-30 -7.5t-25.5 -7.5q47 -29 52 -70v-6q0 -53 -40 -84q-30 -23 -86 -24q-39 0 -62 8h2q-88 22 -88 77q0 45 57 45q22 -2 38 -11.5t16 -24.5q0 -4 -2 -9l1 1q0 -2 -5 -10
q-4 -4 -4 -20t13.5 -26t32.5 -11q22 4 32.5 17.5t11.5 46.5q0 3 -2 25q0 53 -32 63q-2 0 -6.5 1t-6.5 2q-29 7 -32 10l314 91v-514q0 -75 -41 -119q-36 -37 -87 -53q-33 -11 -73 -11q-47 0 -90 11q-53 14 -92 47q-43 40 -43 103q0 107 90 154q25 12 76 12q-21 -31 -28.5 -69
t-7.5 -105z" />
    <glyph glyph-name="uni10E0" unicode="&#x10e0;" horiz-adv-x="719" 
d="M192 177q0 -97 29 -184l18 -48h-1q10 -21 10 -25q-37 0 -48 4q-64 24 -99 91q-42 78 -42 162q0 111 68 171q56 46 146 89h-1q35 16 37 17h-1q9 4 11 5q66 31 120.5 81.5t107.5 148.5q15 -76 15 -95q0 -74 -60 -123q-48 -39 -119 -65q-46 -16 -109 -31q-3 -1 -14 -3.5
t-16 -4.5h2q-6 -3 -15 -9q95 -13 143 -75q17 19 63 49q43 27 79 27q45 0 78 -16q38 -18 64 -58.5t28 -103.5q2 -22 2 -30q0 -96 -49 -166q-48 -65 -134 -65q13 13 24 46q31 72 37 152q3 16 3 45v11l1 -1q-2 5 -2 11q0 91 -13 113q-14 27 -45 28q-2 0 -4.5 -1.5t-6.5 -3.5
t-7 -3q-25 -12 -43 -38t-20 -59q0 -41 6.5 -60.5t26.5 -34.5h-172q4 4 16 26q13 19 13 47l-2 22q-7 92 -66 105q-33 -2 -48 -40q-11 -38 -11 -108z" />
    <glyph glyph-name="uni10E1" unicode="&#x10e1;" horiz-adv-x="557" 
d="M476 366q0 -3 -10 -3q1 1 4.5 2t5.5 1zM366 347q0 24 55 55q26 11 44 11q25 0 29 -5h-5q19 -19 19 -22q0 -10 -43 -23h1q-16 -7 -16 -16q0 -17 4 -21q11 -15 18 -22q4 -4 9.5 -10l8.5 -9.5t4 -3.5q53 -61 53 -129q0 -165 -199 -165q-40 0 -65 5q-58 9 -96 40
q-46 37 -46 114v470q-15 -8 -39 -14h3q-7 -3 -46 -3q28 53 82 76h-1q25 12 59 12q64 0 64 -56v-485q0 -141 85 -141q48 0 70.5 34t22.5 107q0 96 -31 127q-2 1 -3 2l-3 3l-5 5q-33 30 -33 64z" />
    <glyph glyph-name="uni10E2" unicode="&#x10e2;" horiz-adv-x="700" 
d="M554 70q0 108 -36 169q-41 70 -79 99q-42 30 -68 30h-8l-8 -7q-21 -14 -31 -82q0 -70 48 -70h11q2 0 5.5 0.5t5.5 0.5q18 3 55 19q5 1 5 2l13 6l19 -4q-3 -2 -14 -10q-4 -2 -9.5 -6t-7.5 -5h2q-30 -24 -96 -24q-52 6 -84 31t-32 56q0 7 2 12h-1v4q2 29 26 57.5t55 43.5
q-7 2 -8 3h1l-29 13q-67 39 -67 89q0 36 31 59t78 32h13q1 0 4 0.5t5 0.5q10 0 36 -2q44 -7 74 -29.5t30 -60.5q0 -50 -62 -88q-16 -10 -33 -18q60 -15 111 -48q65 -43 114 -106q54 -73 57 -167q0 -169 -97 -262q-91 -90 -222 -90q-132 0 -216 93q-88 95 -88 259
q0 155 89 242q29 29 95 42l-7.5 -18l-7.5 -18t-6.5 -18.5t-8.5 -21.5q-32 -92 -32 -208q0 -144 49 -235q48 -98 133 -98q180 0 191 333zM308 504q0 -89 50 -95h11l2 1h4h-4q40 10 40 87q0 66 -56 66h-8q-1 0 -4.5 -0.5t-5.5 -0.5q-29 -8 -29 -58z" />
    <glyph glyph-name="uni10E3" unicode="&#x10e3;" horiz-adv-x="653" 
d="M188 394l15 -13l2 -6q0 -6 -11 -17q-8 -8 -19 -17q-1 -1 -3 -2.5t-4 -3.5q-25 -23 -25 -56q0 -6 2 -14l1 -1l-2 1q11 -30 26 -36q4 2 8.5 8t13.5 21t13 20l-3 -1l2 2q2 2 3 5h-1l1 2q32 71 97 71q48 0 82 -36q34 36 89 36h6q1 0 3 0.5t4 0.5h11q57 1 94 -27
q45 -35 45 -118v-381q0 -81 -71 -126q-62 -41 -166 -41q-84 0 -140 28h1q-71 35 -75 124v16q0 55 25.5 93.5t62.5 56.5q19 8 39 8q21 3 36 -6q-11 -24 -20 -39h1q-22 -45 -23 -121q7 -74 29 -107t64 -33q60 0 87.5 31.5t27.5 108.5v410q0 73 -11 84q-15 18 -30 18
q-28 0 -39 -102q1 -59 16 -80h-1l12 -12h-161q12 12 20 27q7 12 7 65v28q-2 74 -25 74q-2 0 -22 -33l-14 -23q0 -1 -1 -2q-15 -23 -24.5 -35t-29 -25t-43.5 -16q-100 0 -111 91v9q0 1 0.5 4.5t0.5 5.5q7 36 30.5 63.5t55.5 27.5q29 0 42 -10z" />
    <glyph glyph-name="uni10E4" unicode="&#x10e4;" horiz-adv-x="728" 
d="M360 306v-1q1 0 2 1h-2zM331 -189v-1q4 -94 32 -115q36 -27 67 -29h20q62 0 97 35q30 29 30 155q-5 91 -20 115q-20 35 -46 47h1q-3 2 -10.5 5t-11.5 5t-14.5 6.5t-14.5 6.5q58 13 92 46q24 24 24 116q0 66 -19.5 99.5t-48.5 36.5h-5q-29 0 -67 -45h1q-1 -1 -3.5 -4
l-7 -8.5l-8.5 -10.5l4 2q3 -12 6 -13q0 -2 4 -6q13 -20 13 -51q0 -52 -48 -97q-41 -38 -100 -54q-22 -6 -50 -6q-15 0 -22 1q-69 5 -108 36q-53 39 -59 120q0 76 51 115q42 31 104 39q22 2 34 2q69 0 109 -30l19 -12q51 42 120 42q81 0 139 -26q66 -31 66 -130v-13
q0 -64 -63 -119q-1 -1 -9.5 -5.5t-21 -10.5t-20.5 -11v-3q30 -8 45 -17q77 -52 77 -168q-6 -116 -81 -166q-68 -44 -170 -44q-116 0 -181.5 42t-70.5 123q0 69 30 110.5t76 54.5h-3q11 5 36 5q11 0 27 -4q-41 -61 -41 -166zM191 203q0 -66 13.5 -94t51.5 -28q33 0 49.5 29.5
t16.5 100.5q-6 91 -26 106q-25 22 -48 22q-28 0 -44 -28q-13 -22 -13 -108z" />
    <glyph glyph-name="uni10E5" unicode="&#x10e5;" horiz-adv-x="471" 
d="M466 722v-846q0 -86 -108 -141h1q-39 -17 -78 -17q-96 0 -155 40q-67 46 -67 127q0 55 29 94.5t72 59.5q25 11 71 11q-9 -9 -27 -39q-23 -38 -23 -126q0 -112 57 -138q24 -10 43 -10q3 0 18 12q44 31 44 113v373l11 -2q-8 4 -12 6.5t-5 2.5l-1 1l-1 1q-2 1 -10 6.5
t-13 9.5q-32 19 -37 21q-14 6 -18 6q-29 -5 -31 -23q0 -10 7 -24h1q0 -8 3 -11q0 -1 1 -2q0 -1 0.5 -1t0.5 -1l-1 1q0 -1 1 -3t1 -3q1 -1 1 -3q0 -14 -35 -29q-13 -5 -25 -5q-25 0 -40 16t-15 43q0 56 66 74q11 3 36 3q10 0 24 -2q34 -5 76 -24h1l14 -7v333q-7 -3 -82 -29
v31z" />
    <glyph glyph-name="uni10E6" unicode="&#x10e6;" horiz-adv-x="715" 
d="M182 161v-5q0 -28 6 -69q7 -43 39 -79q52 -60 162 -100h-1q5 -2 35.5 -13.5t44.5 -17.5q76 -39 109 -77q52 -55 52 -132v-68q-90 137 -211 216q-74 41 -180 88h2l-17 5q-16 0 -30 -50q-3 -5 -5 -18q-9 -30 -34 -43q-15 -5 -30 -5q-28 0 -48 11.5t-20 31.5q0 4 2 9v1
q1 1 1 3q9 16 63 45q1 0 2 1t3 1v1q1 1 3 1q4 0 5 1l2 2t2 1q31 17 45 35l3 -2q-5 4 -16 12t-16 12q-96 92 -96 187q0 86 33 134q29 43 76 64h-1q33 16 78 16q64 0 124 -39q1 -1 16 -10l9 9q46 40 117 40q17 0 24 -1q66 -5 105 -34q52 -39 56 -142q0 -63 -33 -107
q-24 -28 -69 -47l-16 -4q-6 -2 -33 -2q44 94 44 160q0 157 -78 157q-44 0 -67 -76q-5 -18 -5 -35q0 -44 9 -67.5t34 -40.5h-178q23 23 31 55q4 13 4 53l1 -1q-3 6 -3 10l1 -1q-2 10 -2 11q-13 47 -25 63q-20 29 -66 29q-15 0 -41 -39q-22 -34 -22 -140z" />
    <glyph glyph-name="uni10E7" unicode="&#x10e7;" horiz-adv-x="471" 
d="M343 356h123v-548q0 -78 -66 -113h1q-54 -30 -129 -31h-6q-44 0 -80 16q-54 24 -86 56q-41 44 -41 88q0 69 38 120q33 38 88 50q14 2 40 2q-8 -18 -22 -40h1q-13 -27 -18 -44q-5 -27 -5 -88q0 -69 24.5 -104.5t60.5 -35.5q33 0 55 29.5t22 88.5v347q-47 -37 -115 -37
q-91 0 -130 31t-39 91q0 31 26.5 62.5t62.5 50.5h-1q28 16 78 16q-14 -32 -21 -43q-2 -2 -6 -9t-4 -8q-13 -23 -13 -69q0 -88 46 -103h1q28 0 57.5 18t48.5 44h-1q10 14 10 33v130z" />
    <glyph glyph-name="uni10E8" unicode="&#x10e8;" horiz-adv-x="628" 
d="M416 485h2q0 -2 -2 0zM59 570q5 53 47 80q28 20 81 25q7 1 25 1q85 0 130 -55q41 55 119 55q22 0 33 -1q46 -4 79 -23h-1q43 -25 43 -82v-457q-11 -126 -197 -126q-107 0 -155.5 44.5t-48.5 147.5q0 97 62 141q51 36 128 38h6q60 0 84 -9v242q0 34 -6 46t-27 12
q-60 0 -60 -101q0 -45 11 -59l-7 1q8 -5 11 -5h-2l6 -5h-145l10 9h-1q11 11 11 59q0 52 -22.5 76.5t-60.5 24.5q-25 0 -38 -26.5t-13 -66.5v-14q7 -69 24 -92q-47 0 -70 18q-56 42 -56 102zM334 171q0 -105 20 -131q26 -32 41 -35q5 -1 15 -1q32 0 60 30q24 26 24 145
q0 108 -23 128q-28 25 -61 25q-27 0 -55 -25q-21 -19 -21 -136z" />
    <glyph glyph-name="uni10E9" unicode="&#x10e9;" horiz-adv-x="448" 
d="M271 -12h1h-1zM338 208q-4 23 -6 48q-9 52 -19.5 75t-27.5 23q-19 0 -50 -12q-56 -22 -56 -61v-295h-121v532q0 78 58 121q52 37 124 37q24 0 47 -6q91 -33 91 -108q0 -67 -116 -111q-36 -14 -88 -21q-2 0 -5 -1t-4 -1l14 2v-81q46 24 106 24q65 0 109 -23
q50 -29 50 -142q0 -86 -46 -161q-42 -68 -133 -68l1 1q1 1 3.5 3t5.5 5h-3q2 1 4 3.5t4 3.5l7 10l6 7h-2q11 15 32 67q15 39 15 129zM179 562v-114q23 6 44 15q71 30 71 99q0 51 -13.5 69t-40.5 18q-17 0 -32 -17t-24 -41q-5 -11 -5 -29z" />
    <glyph glyph-name="uni10EA" unicode="&#x10ea;" horiz-adv-x="699" 
d="M338 -255q25 -9 64 -11q7 1 21 1q48 7 91 41q40 30 45 131q0 21 -1 30q-1 56 -22 105q-20 47 -67 47q-26 0 -92 -21v65q60 -17 80 -17q30 -2 62 24q25 19 25 89q0 55 -15 66q-29 21 -45 27q-38 15 -54 27q-31 22 -31 71l38 1q5 -21 23 -37.5t33.5 -23.5t47.5 -19l2 -1
q53 -20 81 -37h-1q46 -26 50 -66q0 -64 -101 -112h1q-26 -13 -74 -25q65 -20 70 -22q48 -23 76 -56q36 -43 36 -115q0 -68 -75 -125q-61 -46 -155 -63q-21 -4 -54 -4q-49 0 -108 18q-94 37 -157 112q-73 88 -73 218q0 106 37 185q30 60 80 110q30 26 68.5 40.5t65.5 14.5
q-11 -21 -29 -45q-10 -13 -31 -50q-68 -115 -68 -255q0 -153 49 -223q53 -75 107 -95z" />
    <glyph glyph-name="uni10EB" unicode="&#x10eb;" horiz-adv-x="457" 
d="M453 492v-331q0 -71 -56 -125q-50 -49 -138 -49q-83 0 -139 50q-61 51 -61 130q0 75 36 118q32 38 79 54q36 12 78 12q52 0 81 -12v176q0 83 -41 122q-20 20 -29 24q-1 1 -6.5 2t-6.5 1l8 4q6 0 8 1h10q27 0 54 -11q55 -26 84 -64q39 -46 39 -102zM179 167
q0 -105 21 -132q25 -31 59 -31q43 0 58.5 35.5t15.5 127.5q0 107 -24 134q-28 31 -57 31q-28 0 -53 -34q-20 -28 -20 -131z" />
    <glyph glyph-name="uni10EC" unicode="&#x10ec;" horiz-adv-x="590" 
d="M463 572q0 53 -7 70.5t-26 17.5q-7 0 -10 -1l-2 -1h-5h3q-48 -14 -48 -86q0 -64 13 -77h-117q-1 -1 -1 2q11 11 13 75q-6 43 -23 65.5t-39 22.5q-6 0 -15 -5q-18 -8 -18 -76q0 -63 11 -107l5 -19.5t8 -29l8 -27.5l9.5 -34t9.5 -35h214q29 0 37.5 -1.5t8.5 -7.5t-5 -17v1
l-167 -660l-261 887v43q0 73 87 105q30 10 68 10q65 0 110 -55q36 55 106 55q148 0 148 -115q0 -88 -84 -125q-28 -12 -80 -12q10 10 19 18l-2 -1q17 17 24.5 41t7.5 79zM241 308l99 -359l81 332q3 12 3 21v6h-183z" />
    <glyph glyph-name="uni10ED" unicode="&#x10ed;" horiz-adv-x="551" 
d="M362 -253h-1q68 31 68 101q0 75 -25 101q-30 33 -64 49q-47 19 -55 22v-1l-23 11v135q-28 -16 -74 -16q-34 0 -57 8h1q-73 23 -73 89q0 48 77 78h-1q23 10 53 10q43 0 74 -14v245q0 30 -9 36q-8 5 -60 5q-66 4 -81 19q-19 19 -24 44q10 0 11 1h18q25 0 47 -14l7 -5h-1
q27 -19 61 -19q81 0 102 -18q26 -23 26 -56v-306l-11 2l12 -6q7 0 27 45q8 19 24 67l29 76l36 -1q0 -107 -52 -178q-9 -16 -24 -25h-4q80 -43 80 -183l-35 -1q-2 3 -9 16t-9 20l-13 40q-29 86 -51 86q-5 0 -12 -3l12 2v-182l-16 2q59 -12 92 -29q106 -58 106 -146
q0 -51 -59 -91q-41 -30 -119 -43h1q-24 -5 -60 -5q-38 0 -69 4q-69 9 -117 35q-59 35 -59 94q0 20 10.5 38t21.5 27.5t32 25.5q6 2 12 7l2 2q48 32 89 134q13 -72 13 -80q0 -22 -18 -42q-1 -1 -6.5 -8t-9.5 -11q-26 -34 -26 -93q0 -76 31 -91q41 -22 86 -24h15q18 0 51 14z
M195 174q28 0 47.5 22t19.5 50q0 25 -20.5 40.5t-46.5 15.5q-8 0 -14 -2q-20 -4 -33.5 -20t-13.5 -42q0 -2 2 -16l-1 1q16 -49 60 -49z" />
    <glyph glyph-name="uni10EE" unicode="&#x10ee;" horiz-adv-x="565" 
d="M138 662h-4l5 1zM148 185v483h-1l-1 -1l-6 -3q-5 -2 -7 -2h1q-2 0 -5.5 -1.5t-5.5 -2.5h2q-22 -9 -40 -9q-23 0 -34 12q0 -3 51 32q25 13 38 18h-1q32 15 60 15q35 0 53.5 -18.5t18.5 -66.5v-290q4 4 5 6h-1q2 2 5.5 6t4.5 6l11 14q52 58 154 58h23l7 -4q-27 -10 -48 -25
q-7 -5 -18 -11t-30 -15.5t-31 -16.5q-7 -2 -20 -10h53q34 0 65 -12q104 -50 104 -140q0 -107 -59 -148q-53 -32 -141 -32q-18 0 -25 1q-68 2 -121 31q-61 37 -61 126zM353 45h2q32 0 64 23h-1q23 20 23 123q0 100 -22 122q-25 27 -64 27q-32 0 -61 -26q-23 -20 -23 -129
q0 -90 25 -112q28 -26 57 -28z" />
    <glyph glyph-name="uni10EF" unicode="&#x10ef;" horiz-adv-x="785" 
d="M203 338q-1 0 -4 -0.5t-4 -0.5h-4q-38 -14 -39 -89q12 -59 17 -62h-1q18 -8 22 -15l-10 1l14 -7h-2q9 -11 9 -12q0 -10 -13.5 -16.5t-35.5 -6.5q-26 0 -57 19l-2 1l-4 4q-30 28 -30 94q0 44 32 71.5t78 35.5h-1q11 3 35 3q44 0 94 -34q57 -41 148 -224q154 90 201 136
q40 39 40 66l1 -1q-6 17 -11.5 26.5t-14 13.5t-14.5 4.5t-20 0.5q-20 0 -43 -33h1q-7 -10 -7 -27q0 -14 -12.5 -22t-30.5 -8t-20 2l10 -1q-41 10 -41 29q0 26 49 56q39 24 94 24q34 0 68 -8q45 -11 45 -56q0 -22 -61 -83q-47 -44 -226 -159l7 3q92 -193 139 -267
q42 -59 46 -62q17 0 29 20t12 64q0 32 -6 44t-19 19h4q-2 1 -5 2l-4.5 1.5t-2.5 0.5l-2 1l4 -1q-41 21 -56 91q52 -44 64 -51h-1q1 -1 6.5 -4t6.5 -3v-1q3 -2 14 -6q60 -33 66 -77q0 -9 1 -11v-7q0 -76 -69 -96q-15 -4 -44 -4q-35 0 -82 38q-52 43 -182 256
q-96 -60 -157 -92h1q-33 -19 -36 -22h2l27 -3q61 -8 104 -27q56 -29 56 -97v-14q0 -65 -90 -92q-70 -22 -172 -25h-35v4l9 2l18 3q5 2 15.5 3t15.5 2q7 1 23 3q36 7 85 32q30 17 30 76q0 89 -33 100h1q-51 14 -102 14h-32l2 4q15 22 71 60q39 25 188 108l-7 -3
q-80 147 -108 208q-35 68 -46 78q-7 6 -6 6z" />
    <glyph glyph-name="uni10F0" unicode="&#x10f0;" horiz-adv-x="616" 
d="M206 480q-24 27 -28 39h1q-10 24 -10 40q-1 23 16.5 48t45.5 43q38 24 110 24q12 0 28 -2q2 0 7 -0.5t7 -0.5q101 -17 140 -82q22 -39 24 -63q0 -23 -21 -35.5t-52 -12.5q-28 1 -48 13t-20 33q0 2 2 16q0 2 0.5 4t1.5 4v1q5 17 5 28v5q-4 32 -27.5 49t-55.5 18
q-28 0 -66 -20q-29 -17 -29 -58q0 -18 7 -33q11 -34 47 -55h-1q30 -19 51 -25l30 -10q7 -3 34 -13q63 -24 103 -52q53 -36 53 -93q0 -68 -48 -113q-28 -25 -92 -53q62 -16 103 -54q49 -46 49 -140q-6 -108 -87 -161q-73 -46 -168 -49h-15q-113 0 -176.5 40.5t-68.5 118.5
q0 64 28.5 104t71.5 56q17 5 36 5h18q1 -1 11 -1q-43 -68 -43 -164q4 -83 30 -105q32 -28 59 -31q22 -2 35 -2q56 0 103 35q37 28 37 141v13q-3 96 -29 131q-30 42 -55 47q-14 2 -15 2h-1q-1 0 -2.5 -0.5t-4 -1t-4.5 -0.5h1q-3 -3 -56 -37v105l40 -26l8 -6h-2q12 -6 21 -6h6
q19 3 47 30q22 22 37 63q7 18 7 37q0 14 -3 21q-18 52 -45 70q-36 24 -76 47h3q-2 2 -9 4q-78 41 -106 70z" />
    <glyph glyph-name="uni10F1" unicode="&#x10f1;" horiz-adv-x="537" 
d="M401 99q0 70 -10 83q-15 20 -25 21q-3 1 -7 1h-4l-6 -4q-6 -5 -21 -16l-30 -22v105l54 -40h-2q14 -2 21 -2t8 1q44 13 44 65q0 47 -32 69q-17 11 -20 11q-4 0 -11 -4h2l-47 -47v123l43 -43q11 -8 13 -8q28 0 46.5 21t19.5 56q0 7 -2 17q-8 35 -19 51l-7 12q-4 4 -8 11
q-2 3 -2 2q-38 53 -42 112l37 1q18 -52 58 -92l12 -12q4 -4 6 -5h-1q33 -33 38 -40q21 -28 21 -45q0 -78 -94 -103q44 -14 62.5 -30.5t18.5 -56.5q0 -32 -18.5 -49t-57.5 -32q49 -17 62.5 -40t13.5 -71q0 -50 -53 -82q-42 -25 -100 -35q-38 -5 -68 -5q-126 0 -176 80
q-51 91 -58 179q-2 34 -2 52q0 86 4 129q6 96 36 176q32 81 129 81q67 0 101.5 -32.5t34.5 -84.5v-5q0 -19 -2 -24q-9 -36 -49 -72.5t-89 -59.5q-33 -17 -74 -25l15 2q0 -62 5 -107q11 -103 40 -181q35 -81 85 -81q42 0 81 15h-1q27 11 27 80zM139 398l25 -2v10
q-18 -6 -25 -8zM164 421v-15q90 36 111 122q4 16 4 42q0 76 -52 76q-26 0 -42 -43q-16 -39 -20 -93q-2 -61 -1 -89z" />
    <glyph glyph-name="uni10F2" unicode="&#x10f2;" horiz-adv-x="495" 
d="M149 13h5q47 0 77 14q-70 33 -118 87q-54 66 -54 134q0 64 45 106q40 34 92 47q43 8 76 8q58 0 96 -12q53 -18 81 -46q40 -39 40 -103q0 -70 -58 -134q-43 -49 -118 -87q43 -9 58 -11q2 0 7 -0.5t7 -0.5h15q33 0 85 18v-54q-117 10 -119 10q-59 8 -94 22q-37 -14 -94 -22
q-58 -8 -119 -8v55q53 -23 90 -23zM259 38h1q1 0 2 1q-1 -1 -3 -1zM272 40h6h4q-1 0 -5 1.5t-5 2.5q-7 -3 -9 -5q1 1 9 1zM202 107q25 -40 70 -63q41 23 70 61q27 33 27 143q0 67 -25.5 105.5t-71.5 38.5q-92 0 -92 -144q0 -107 22 -141z" />
    <glyph glyph-name="uni10F3" unicode="&#x10f3;" horiz-adv-x="498" 
d="M485 409l-143 -271l-9 3q159 -85 159 -195q0 -92 -50 -160q-46 -63 -166 -63q-96 0 -140 40q-44 41 -64 87q-12 31 -12 63q0 68 82 123q30 17 58 17h24q0 -1 1 -1q-33 -40 -33 -133v-8q1 -64 25 -114q24 -52 59 -52q54 0 71 60q18 57 19 141v10q0 138 -102 172l93 180
q-36 -14 -98 -19h-34q-86 7 -139 40q-21 17 -25 33q-3 7 -3 14q0 6 6 19h-1q10 32 64 32q59 0 65 -33q0 -2 2 -8q1 -1 1 -4q0 -2 -2 -8l1 1q-2 -18 -29 -28q31 -30 73 -30q16 0 25 1h-1q109 20 156 91h67z" />
    <glyph glyph-name="uni10F4" unicode="&#x10f4;" horiz-adv-x="417" 
d="M282 103q0 67 -7 90t-26 23q-11 0 -15 1h-5q-6 0 -55 -49l2 122l24 -24q4 -3 11 -10q15 -12 38 -12q1 0 2.5 0.5t4.5 1t6 0.5q6 0 9 1h-3q38 14 38 64q0 51 -40 69q-10 7 -17 7q-23 0 -36 -6l6 1l-10 -5l5 1l-40 -39v113q50 -36 55 -37h-2q22 -2 30 -2q2 0 33 21
q39 27 39 63q0 21 -15 34t-46 26q-2 1 -8.5 4t-11.5 5q-23 8 -31 12q-54 20 -89 48q-47 36 -47 87l34 1q42 -75 122 -106h-1q7 -2 19 -6l18 -6q26 -7 30 -8h-1q58 -17 85.5 -36t27.5 -55q0 -42 -40 -66h1q-21 -15 -61 -28q43 -12 64 -32t21 -60q0 -32 -20 -51t-57 -34
q18 -9 21 -9v1h1q41 -21 46 -35q9 -21 9 -80q0 -53 -57 -84q-44 -23 -109 -30q-30 -2 -47 -2q-75 0 -136 23q-70 27 -70 100q0 55 58 76h-1q12 6 31 6q21 5 32 -3h-3q1 -1 5 -1q21 -9 21 -10q0 -4 -5 -12q0 -1 -1 -2q-1 -3 -4 -8q-7 -13 -7 -46q4 -76 23 -88q36 -17 57 -17
q44 0 74 15q21 10 21 83z" />
    <glyph glyph-name="uni10F5" unicode="&#x10f5;" horiz-adv-x="551" 
d="M541 380l-84 1v-91h84v-27h-84v-129q0 -67 -49.5 -100.5t-138.5 -33.5q-82 0 -142 36q-69 40 -69 110q0 82 73 115q70 29 145 33q54 2 57 2v84q-17 0 -57 2q-86 5 -145 32q-73 33 -73 115q0 68 62 110q56 36 138 36q93 0 143 -30t56 -104v-131h84v-30zM332 97l1 166
q-104 -2 -129 -31q-23 -26 -21 -79v-17q1 -46 18 -75q16 -31 68 -33q27 0 45 18t18 51zM333 409v171q0 57 -53 65q-14 2 -22 2q-38 -1 -57 -28.5t-19 -90.5t34.5 -90t116.5 -29z" />
    <glyph glyph-name="uni10F6" unicode="&#x10f6;" horiz-adv-x="664" 
d="M353 283v-86q0 -53 15 -89t42 -36q25 0 38 35q18 44 18 145q0 68 -13.5 116t-41.5 48q-23 0 -43 -45q-15 -45 -15 -88zM173 237q0 -165 51 -165q31 0 46 47q14 40 14 78v86q0 53 -16.5 93t-42.5 40q-22 0 -34 -33q-10 -30 -17 -132q0 -3 -0.5 -7t-0.5 -7zM216 23
q-75 0 -117 63t-42 152q0 60 19 114q45 116 141 116q36 0 68 -20v25q-7 174 -28 174q-20 0 -22 -11q-4 -11 -4 -18q0 -14 -4 -26q-17 -35 -52 -35q-68 0 -46 64q28 68 118 75h5q92 0 101 -248q31 20 65 20q51 0 88.5 -34.5t55 -85.5t17.5 -109q0 -57 -16 -102
q-42 -114 -146 -114q-38 0 -58 10q4 -54 4 -117l5 -98q19 0 23 12l-1 -1q3 7 3 17q0 14 4 27v-1q12 35 52 35q70 0 46 -64q-25 -67 -118 -75h-4q-21 0 -36 14.5t-24 35.5t-14.5 57t-7.5 66.5t-4 77.5q-1 7 -1 22q-27 -18 -70 -18z" />
    <glyph glyph-name="Wgrave" unicode="&#x1e80;" horiz-adv-x="1037" 
d="M-12 698v14h307v-14h-73l180 -527h2l105 298l-78 229h-54v14h299v-14h-93l181 -528h2l185 528h-86v14h184v-14h-81l-257 -726h-29l-164 474h-2l-168 -474h-29l-248 726h-83zM509 938l88 -176h-13l-141 150q-9 10 -9 27q0 13 11.5 21.5t21.5 8.5q27 0 42 -31z" />
    <glyph glyph-name="wgrave" unicode="&#x1e81;" horiz-adv-x="741" 
d="M228 -28l-174 443h-60v14h255v-14h-65l103 -260l79 213l-20 47h-51v14h250v-14h-67l103 -260l96 260h-70v14h135v-14h-49l-164 -443h-7l-148 375l-139 -375h-7zM375 705l88 -176h-13l-141 150q-9 10 -9 27q0 14 11.5 22t21.5 8q27 0 42 -31z" />
    <glyph glyph-name="Wacute" unicode="&#x1e82;" horiz-adv-x="1037" 
d="M-12 698v14h307v-14h-73l180 -527h2l105 298l-78 229h-54v14h299v-14h-93l181 -528h2l185 528h-86v14h184v-14h-81l-257 -726h-29l-164 474h-2l-168 -474h-29l-248 726h-83zM474 762l88 176q16 31 42 31q10 0 21.5 -8.5t11.5 -21.5q0 -17 -9 -27l-141 -150h-13z" />
    <glyph glyph-name="wacute" unicode="&#x1e83;" horiz-adv-x="741" 
d="M228 -28l-174 443h-60v14h255v-14h-65l103 -260l79 213l-20 47h-51v14h250v-14h-67l103 -260l96 260h-70v14h135v-14h-49l-164 -443h-7l-148 375l-139 -375h-7zM352 529l88 176q16 31 42 31q10 0 21.5 -8t11.5 -22q0 -17 -9 -27l-141 -150h-13z" />
    <glyph glyph-name="Wdieresis" unicode="&#x1e84;" horiz-adv-x="1037" 
d="M-12 698v14h307v-14h-73l180 -527h2l105 298l-78 229h-54v14h299v-14h-93l181 -528h2l185 528h-86v14h184v-14h-81l-257 -726h-29l-164 474h-2l-168 -474h-29l-248 726h-83zM551 877q0 26 19 45t45 19t45 -19t19 -45t-19 -45t-45 -19t-45 19t-19 45zM377 877q0 26 19 45
t45 19t45 -19t19 -45t-19 -45t-45 -19t-45 19t-19 45z" />
    <glyph glyph-name="wdieresis" unicode="&#x1e85;" horiz-adv-x="741" 
d="M228 -28l-174 443h-60v14h255v-14h-65l103 -260l79 213l-20 47h-51v14h250v-14h-67l103 -260l96 260h-70v14h135v-14h-49l-164 -443h-7l-148 375l-139 -375h-7zM437 644q0 26 19 45t45 19t45 -19t19 -45t-19 -45t-45 -19t-45 19t-19 45zM263 644q0 26 19 45t45 19t45 -19
t19 -45t-19 -45t-45 -19t-45 19t-19 45z" />
    <glyph glyph-name="Ygrave" unicode="&#x1ef2;" horiz-adv-x="704" 
d="M-16 698v14h323v-14h-79l204 -349l184 349h-87v14h191v-14h-87l-193 -367v-317h93v-14h-330v14h92v279l-232 405h-79zM367 938l88 -176h-13l-141 150q-9 10 -9 27q0 13 11.5 21.5t21.5 8.5q27 0 42 -31z" />
    <glyph glyph-name="ygrave" unicode="&#x1ef3;" horiz-adv-x="481" 
d="M177 415l122 -289l127 289h-83v14h145v-14h-46q-85 -183 -164 -380.5t-96 -234.5q-21 -45 -47 -66t-65 -21q-45 0 -74 22t-29 59q0 27 18 41t46 14q21 0 37 -11t16 -31q0 -13 -6.5 -29.5t-6.5 -25.5q0 -22 20 -22q23 0 44.5 24.5t31.5 46t24 56.5l43 107l-188 451h-54v14
h255v-14h-70zM233 705l88 -176h-13l-141 150q-9 10 -9 27q0 14 11.5 22t21.5 8q27 0 42 -31z" />
    <glyph glyph-name="endash" unicode="&#x2013;" horiz-adv-x="500" 
d="M0 211v14h500v-14h-500z" />
    <glyph glyph-name="emdash" unicode="&#x2014;" horiz-adv-x="1000" 
d="M130 211v14h740v-14h-740z" />
    <glyph glyph-name="quoteleft" unicode="&#x2018;" 
d="M197 728l7 -13q-56 -39 -81.5 -66.5t-25.5 -60.5q0 -28 15 -41q15 10 42 10q25 0 47 -18t22 -53t-23 -53t-53 -18q-40 0 -66 32t-26 87q0 30 10 57t22.5 45.5t35.5 38t36.5 29t37.5 24.5z" />
    <glyph glyph-name="quoteright" unicode="&#x2019;" 
d="M81 415l-7 13q56 39 81.5 66.5t25.5 60.5q0 28 -15 41q-15 -10 -42 -10q-25 0 -47 18t-22 53t23 53t53 18q40 0 66 -32t26 -87q0 -30 -10 -57t-22.5 -45.5t-35.5 -38t-36.5 -29t-37.5 -24.5z" />
    <glyph glyph-name="quotesinglbase" unicode="&#x201a;" 
d="M81 -181l-7 13q56 39 81.5 66.5t25.5 60.5q0 28 -15 41q-15 -10 -42 -10q-25 0 -47 18t-22 53t23 53t53 18q40 0 66 -32t26 -87q0 -30 -10 -57t-22.5 -45.5t-35.5 -38t-36.5 -29t-37.5 -24.5z" />
    <glyph glyph-name="quotedblleft" unicode="&#x201c;" horiz-adv-x="463" 
d="M393 728l7 -13q-56 -39 -81.5 -66.5t-25.5 -60.5q0 -28 15 -41q15 10 42 10q25 0 47 -18t22 -53t-23 -53t-53 -18q-40 0 -66 32t-26 87q0 30 10 57t22.5 45.5t35.5 38t36.5 29t37.5 24.5zM186 728l7 -13q-56 -39 -81.5 -66.5t-25.5 -60.5q0 -28 15 -41q15 10 42 10
q25 0 47 -18t22 -53t-23 -53t-53 -18q-40 0 -66 32t-26 87q0 30 10 57t22.5 45.5t35.5 38t36.5 29t37.5 24.5z" />
    </font>
</defs>
</svg>
