<?xml version="1.0" standalone="no"?>
<!DOCTYPE svg PUBLIC "-//W3C//DTD SVG 1.1//EN" "http://www.w3.org/Graphics/SVG/1.1/DTD/svg11.dtd" >
<svg>
<metadata>
Created by FontForge 20090622 at Sat Apr 22 14:07:01 2017
 By deploy user
2005 Mike Abbink, Paul van der Laan published by FSI Fonts und Software GmbH
</metadata>
<defs>
<font id="KievitPro-Bold" horiz-adv-x="556" >
  <font-face 
    font-family="KievitPro-Bold"
    font-weight="700"
    font-stretch="normal"
    units-per-em="1000"
    panose-1="2 0 5 3 5 0 0 2 0 4"
    ascent="760"
    descent="-240"
    x-height="487"
    cap-height="666"
    bbox="-190 -250 1257 933"
    underline-thickness="20"
    underline-position="-113"
    unicode-range="U+000D-U+FB04"
  />
<missing-glyph horiz-adv-x="557" 
d="M65 0v666h427v-666h-427zM168 103h221v460h-221v-460z" />
    <glyph glyph-name="IJ" unicode="IJ" horiz-adv-x="655" 
d="M89 0v666h141v-666h-141zM381 -204q-56 0 -98 16l22 115q20 -9 47 -9q42 0 60 23t18 76v649h142v-668q0 -98 -50.5 -150t-140.5 -52z" />
    <glyph glyph-name="ij" unicode="ij" 
d="M140 550q-35 0 -58 23.5t-23 56.5q0 32 23 55t58 23t58.5 -23t23.5 -55q0 -33 -23.5 -56.5t-58.5 -23.5zM73 0v487h134v-487h-134zM317 -233q-58 0 -87 12l23 103q18 -6 38 -6q34 0 47 23.5t13 80.5v507h134v-521q0 -199 -168 -199zM417 550q-35 0 -58 23.5t-23 56.5
q0 32 23 55t58 23t58.5 -23t23.5 -55q0 -33 -23.5 -56.5t-58.5 -23.5z" />
    <glyph glyph-name="uniFB00" unicode="ff" horiz-adv-x="658" 
d="M92 0v388h-75v99h75v46q0 88 54 140.5t151 52.5q89 0 148 -37q48 43 130 43q79 0 118 -23l-31 -100q-28 14 -67 14q-79 0 -79 -96v-40h117v-99h-117v-388h-132v388h-159v-388h-133zM225 487h159v50q0 31 6 56q-30 23 -77 23q-88 0 -88 -100v-29z" />
    <glyph glyph-name="fi" unicode="fi" horiz-adv-x="588" 
d="M90 0v388h-73v99h73v49q0 90 58 143t159 53q104 0 179 -43l-47 -98q-54 32 -116 32q-100 0 -100 -98v-38h298v-487h-133v388h-165v-388h-133z" />
    <glyph glyph-name="fl" unicode="fl" horiz-adv-x="599" 
d="M90 0v388h-73v99h73v50q0 93 59.5 144t172.5 51q121 0 205 -30v-702h-133v612q-26 11 -81 11q-90 0 -90 -98v-38h102v-99h-102v-388h-133z" />
    <glyph glyph-name="uniFB03" unicode="ffi" horiz-adv-x="878" 
d="M92 0v388h-75v99h75v46q0 88 54 140.5t151 52.5q87 0 154 -39q57 45 149 45q104 0 179 -43l-47 -98q-54 32 -116 32q-100 0 -100 -98v-38h295v-487h-133v388h-162v-388h-132v388h-159v-388h-133zM225 487h159v49q0 32 8 56q-34 24 -79 24q-88 0 -88 -100v-29z" />
    <glyph glyph-name="uniFB04" unicode="ffl" horiz-adv-x="892" 
d="M92 0v388h-75v99h75v46q0 88 54 140.5t151 52.5q91 0 152 -40q60 46 166 46q121 0 205 -30v-702h-133v612q-26 11 -81 11q-90 0 -90 -98v-38h106v-99h-106v-388h-132v388h-159v-388h-133zM225 487h159v50q0 32 7 56q-30 23 -78 23q-88 0 -88 -100v-29z" />
    <glyph glyph-name=".notdef" horiz-adv-x="557" 
d="M65 0v666h427v-666h-427zM168 103h221v460h-221v-460z" />
    <glyph glyph-name=".null" horiz-adv-x="0" 
 />
    <glyph glyph-name=".null" horiz-adv-x="0" 
 />
    <glyph glyph-name="nonmarkingreturn" horiz-adv-x="333" 
 />
    <glyph glyph-name="CR" unicode="&#xd;" horiz-adv-x="194" 
 />
    <glyph glyph-name="space" unicode=" " horiz-adv-x="194" 
 />
    <glyph glyph-name="exclam" unicode="!" horiz-adv-x="304" 
d="M152 -10q-36 0 -60.5 24.5t-24.5 58.5q0 33 24.5 57t60.5 24t60 -24t24 -57q0 -34 -24 -58.5t-60 -24.5zM98 225l-24 441h156l-25 -441h-107z" />
    <glyph glyph-name="quotedbl" unicode="&#x22;" horiz-adv-x="385" 
d="M64 422l-28 244h132l-14 -244h-90zM232 422l-15 244h132l-28 -244h-89z" />
    <glyph glyph-name="numbersign" unicode="#" horiz-adv-x="526" 
d="M94 88l19 125h-89l16 96h88l12 84h-88l15 96h87l19 121h92l-19 -121h80l19 121h92l-19 -121h83l-16 -96h-81l-12 -84h82l-16 -96h-81l-18 -125h-92l18 125h-80l-19 -125h-92zM217 306h85l13 89h-85z" />
    <glyph glyph-name="dollar" unicode="$" horiz-adv-x="425" 
d="M160 -123v113q-82 9 -134 45l45 94q62 -42 128 -42q84 0 84 44q0 18 -17 29t-58.5 25.5t-61.5 23.5q-54 26 -81.5 58t-27.5 83q0 55 32.5 92t90.5 50v107h111v-102q72 -8 116 -38l-47 -91q-46 32 -111 32q-72 0 -72 -43q0 -10 5.5 -17.5t18.5 -14.5t23.5 -11.5
t31.5 -11.5t32 -12q65 -26 100.5 -58.5t35.5 -87.5q0 -61 -34.5 -99.5t-98.5 -50.5v-117h-111z" />
    <glyph glyph-name="percent" unicode="%" horiz-adv-x="869" 
d="M194 187q-81 0 -125.5 45t-44.5 110q0 64 45.5 110.5t126.5 46.5q82 0 126 -44t44 -109t-45.5 -112t-126.5 -47zM196 268q57 0 57 74q0 33 -14 54.5t-44 21.5q-58 0 -58 -72q0 -33 14.5 -55.5t44.5 -22.5zM674 -12q-81 0 -125.5 44.5t-44.5 110.5q0 64 45.5 110.5
t126.5 46.5t125 -44t44 -110q0 -65 -45.5 -111.5t-125.5 -46.5zM676 69q56 0 56 74q0 33 -14 54.5t-44 21.5q-58 0 -58 -73q0 -32 15 -54.5t45 -22.5zM234 0l293 488h110l-292 -488h-111z" />
    <glyph glyph-name="ampersand" unicode="&#x26;" horiz-adv-x="665" 
d="M267 -12q-112 0 -173.5 51.5t-61.5 133.5q0 65 33 109t104 83q-69 81 -69 152q0 73 55.5 117t142.5 44q86 0 136.5 -41.5t50.5 -106.5q0 -53 -34.5 -94t-107.5 -84l122 -134q30 56 42 120l114 -20q-18 -105 -81 -188l116 -130h-162l-43 48q-84 -60 -184 -60zM283 419
q79 49 79 104q0 26 -17.5 43.5t-46.5 17.5q-30 0 -48.5 -17.5t-18.5 -46.5q0 -43 52 -101zM277 92q59 0 105 35l-146 161q-66 -45 -66 -105q0 -41 29 -66t78 -25z" />
    <glyph glyph-name="quotesingle" unicode="'" horiz-adv-x="211" 
d="M60 422l-22 244h135l-22 -244h-91z" />
    <glyph glyph-name="parenleft" unicode="(" horiz-adv-x="347" 
d="M220 -168q-179 194 -179 450q0 139 53 253t126 185h126q-64 -71 -113 -181.5t-49 -253.5q0 -262 162 -453h-126z" />
    <glyph glyph-name="parenright" unicode=")" horiz-adv-x="348" 
d="M1 -168q163 187 163 442q0 258 -163 446h127q75 -77 127 -189.5t52 -252.5q0 -143 -53 -257t-126 -189h-127z" />
    <glyph glyph-name="asterisk" unicode="*" horiz-adv-x="493" 
d="M173 285l-87 61l87 103l-130 37l35 95l120 -47l-6 132h110l-7 -132l120 47l36 -95l-131 -37l88 -103l-88 -61l-73 114z" />
    <glyph glyph-name="plus" unicode="+" horiz-adv-x="560" 
d="M224 26v186h-183v102h183v180h114v-180h181v-102h-181v-186h-114z" />
    <glyph glyph-name="comma" unicode="," horiz-adv-x="284" 
d="M72 -145q41 64 41 107q0 26 -29.5 57.5t-29.5 65.5q0 33 23.5 54.5t57.5 21.5q40 0 68 -30t28 -80q0 -98 -74 -196h-85z" />
    <glyph glyph-name="hyphen" unicode="-" horiz-adv-x="330" 
d="M51 228v108h228v-108h-228z" />
    <glyph glyph-name="period" unicode="." horiz-adv-x="284" 
d="M142 -10q-37 0 -63 25t-26 61t26 60.5t63 24.5t62.5 -24.5t25.5 -60.5t-25.5 -61t-62.5 -25z" />
    <glyph glyph-name="slash" unicode="/" horiz-adv-x="450" 
d="M27 -90l284 786h129l-284 -786h-129z" />
    <glyph glyph-name="zero" unicode="0" horiz-adv-x="585" 
d="M293 -12q-127 0 -194 76t-67 178t68 179.5t195 77.5t193.5 -75t66.5 -178q0 -102 -68 -180t-194 -78zM295 94q57 0 87.5 39t30.5 109q0 71 -31 111t-89 40t-88.5 -38.5t-30.5 -108.5q0 -71 31.5 -111.5t89.5 -40.5z" />
    <glyph glyph-name="one" unicode="1" horiz-adv-x="368" 
d="M163 0v372l-116 -35l-27 105l173 45h102v-487h-132z" />
    <glyph glyph-name="two" unicode="2" horiz-adv-x="509" 
d="M21 0v60q145 104 197 152q77 73 77 119q0 63 -79 63q-65 0 -117 -52l-65 83q79 75 202 75q93 0 147 -35.5t54 -107.5q0 -37 -18 -73.5t-53 -71t-64 -57.5t-72 -53q24 4 64 4h184v-106h-457z" />
    <glyph glyph-name="three" unicode="3" horiz-adv-x="458" 
d="M140 -188q-67 0 -104 7l20 107q22 -9 76 -9q69 0 112.5 28.5t43.5 80.5q0 100 -170 100v96q56 1 104 31.5t48 75.5q0 64 -80 64q-57 0 -106 -44l-62 84q78 66 195 66q90 0 140.5 -41.5t50.5 -107.5q0 -59 -41 -100.5t-92 -55.5v-1q62 -7 108.5 -51t46.5 -114
q0 -99 -80.5 -157.5t-209.5 -58.5z" />
    <glyph glyph-name="four" unicode="4" horiz-adv-x="603" 
d="M334 -177v177h-311v84l326 403h117v-385h104v-102h-104v-177h-132zM166 102h168v213h-2z" />
    <glyph glyph-name="five" unicode="5" horiz-adv-x="455" 
d="M126 -188q-49 0 -96 10l25 106q33 -10 72 -10q66 0 109.5 32t43.5 91q0 118 -152 118q-44 0 -70 -6l21 334h329v-102h-209l-8 -123q109 -2 170 -60t61 -154q0 -107 -79.5 -171.5t-216.5 -64.5z" />
    <glyph glyph-name="six" unicode="6" horiz-adv-x="545" 
d="M278 -12q-64 0 -112 24t-76 65.5t-42 92.5t-14 110q0 178 113 288t306 110l29 -106q-66 0 -127 -17t-99 -50q-60 -53 -75 -137q53 39 129 39q91 0 147.5 -53.5t56.5 -148.5q0 -97 -66.5 -157t-169.5 -60zM282 90q42 0 67 30t25 76q0 110 -96 110q-61 0 -104 -36v-12
q-2 -73 25.5 -120.5t82.5 -47.5z" />
    <glyph glyph-name="seven" unicode="7" horiz-adv-x="479" 
d="M150 -201l-111 54l246 526h-265v109h419v-72z" />
    <glyph glyph-name="eight" unicode="8" horiz-adv-x="536" 
d="M268 -12q-108 0 -169.5 49.5t-61.5 128.5q0 106 128 176q-109 63 -109 159q0 78 61 127.5t150 49.5q100 0 158 -45t58 -124q0 -86 -119 -154q68 -36 101 -79.5t33 -103.5q0 -86 -63.5 -135t-166.5 -49zM268 87q44 0 68.5 24t24.5 61q0 60 -105 116q-85 -53 -85 -117
q0 -37 26 -60.5t71 -23.5zM273 406q75 49 75 98q0 33 -20.5 54.5t-56.5 21.5q-37 0 -58 -20.5t-21 -52.5q0 -54 81 -101z" />
    <glyph glyph-name="nine" unicode="9" horiz-adv-x="548" 
d="M83 -184l-28 105q65 0 129.5 18t105.5 50q64 51 77 132q-56 -39 -130 -39q-91 0 -148.5 54t-57.5 148q0 96 69 155.5t171 59.5q65 0 113 -24t75.5 -66t40.5 -92.5t13 -109.5q0 -180 -113 -285.5t-317 -105.5zM269 183q63 0 104 35l1 11q2 74 -25 121.5t-82 47.5
q-41 0 -67.5 -29.5t-26.5 -78.5q0 -52 25 -79.5t71 -27.5z" />
    <glyph glyph-name="colon" unicode=":" horiz-adv-x="286" 
d="M143 -10q-37 0 -63 25t-26 62q0 36 26 60.5t63 24.5t62.5 -24.5t25.5 -60.5q0 -37 -25.5 -62t-62.5 -25zM143 322q-37 0 -63 25t-26 62q0 36 26 60.5t63 24.5t62.5 -24.5t25.5 -60.5q0 -37 -25.5 -62t-62.5 -25z" />
    <glyph glyph-name="semicolon" unicode=";" horiz-adv-x="286" 
d="M75 -145q41 62 41 107q0 26 -29.5 57.5t-29.5 65.5q0 33 23.5 54.5t57.5 21.5q40 0 68 -30t28 -80q0 -95 -74 -196h-85zM143 322q-37 0 -63 25t-26 62q0 36 26 60.5t63 24.5t62.5 -24.5t25.5 -60.5q0 -37 -25.5 -62t-62.5 -25z" />
    <glyph glyph-name="less" unicode="&#x3c;" horiz-adv-x="391" 
d="M284 20l-258 228l256 232l71 -72l-173 -157l175 -154z" />
    <glyph glyph-name="equal" unicode="=" horiz-adv-x="478" 
d="M39 119v102h400v-102h-400zM39 306v102h400v-102h-400z" />
    <glyph glyph-name="greater" unicode="&#x3e;" horiz-adv-x="391" 
d="M109 20l-70 73l173 156l-176 155l72 76l257 -227z" />
    <glyph glyph-name="question" unicode="?" horiz-adv-x="413" 
d="M99 223v53q0 44 16 70t53 50q36 24 52.5 44.5t16.5 53.5q0 75 -89 75q-38 0 -86 -24l-46 98q64 35 156 35q102 0 155.5 -47.5t53.5 -124.5q0 -93 -94 -157q-4 -3 -12.5 -8.5t-12 -7.5t-10 -7t-9.5 -7.5t-8 -7.5t-7 -8l-5.5 -8t-4.5 -9.5t-2 -10.5t-1 -12v-40h-116z
M158 -10q-36 0 -60.5 24.5t-24.5 58.5q0 33 24.5 57t60.5 24t60 -23.5t24 -57.5t-24 -58.5t-60 -24.5z" />
    <glyph glyph-name="at" unicode="@" horiz-adv-x="812" 
d="M398 -98q-161 0 -256.5 94.5t-95.5 244.5q0 99 48 188t136.5 146t196.5 57q166 0 259 -91.5t93 -221.5q0 -106 -56 -172.5t-147 -66.5q-100 0 -108 86h-3q-45 -84 -132 -84q-47 0 -74.5 34t-27.5 85q0 112 58.5 189.5t155.5 77.5q71 0 148 -27l-29 -167q-8 -56 -8 -65
q0 -20 10 -32t26 -12q41 0 69.5 40.5t28.5 106.5q0 113 -71 175t-193 62q-115 0 -197.5 -87.5t-82.5 -217.5q0 -122 67.5 -190t195.5 -68q79 0 145 29l32 -79q-84 -34 -188 -34zM374 172q72 0 108 181l6 28q-20 8 -47 8q-45 0 -72.5 -49.5t-27.5 -118.5q0 -49 33 -49z" />
    <glyph glyph-name="A" unicode="A" horiz-adv-x="680" 
d="M240 238h187l-57 159q-12 33 -23 72t-13 43h-2q-1 -4 -6.5 -23l-13 -43.5l-15.5 -48.5zM15 0l254 666h136l261 -666h-154l-45 125h-266l-44 -125h-142z" />
    <glyph glyph-name="B" unicode="B" horiz-adv-x="602" 
d="M83 0v666h222q103 0 166.5 -39t63.5 -127q0 -122 -118 -153v-2q63 -10 104.5 -51t41.5 -109q0 -185 -261 -185h-219zM222 108h74q62 0 93 21t31 68q0 94 -118 94h-80v-183zM222 392h65q57 0 83 21t26 65q0 80 -106 80h-68v-166z" />
    <glyph glyph-name="C" unicode="C" horiz-adv-x="618" 
d="M385 -12q-162 0 -252 100.5t-90 245.5q0 144 91.5 244t252.5 100q119 0 200 -53l-63 -103q-60 39 -139 39q-90 0 -141 -63.5t-51 -159.5q0 -101 50.5 -166.5t143.5 -65.5q82 0 151 51l58 -99q-30 -27 -87 -48.5t-124 -21.5z" />
    <glyph glyph-name="D" unicode="D" horiz-adv-x="706" 
d="M83 0v666h201q190 0 285.5 -87t95.5 -237q0 -152 -98 -247t-288 -95h-196zM224 113h66q226 0 226 225q0 111 -56 163t-175 52h-61v-440z" />
    <glyph glyph-name="E" unicode="E" horiz-adv-x="530" 
d="M83 0v666h384v-116h-245v-150h216v-110h-216v-174h252v-116h-391z" />
    <glyph glyph-name="F" unicode="F" horiz-adv-x="510" 
d="M83 0v666h382v-116h-241v-163h212v-110h-212v-277h-141z" />
    <glyph glyph-name="G" unicode="G" horiz-adv-x="710" 
d="M395 -12q-164 0 -258 101.5t-94 244.5t98.5 243.5t264.5 100.5q137 0 219 -60l-63 -105q-66 48 -159 48q-103 0 -156.5 -61.5t-53.5 -161.5q0 -103 50.5 -169t150.5 -66q78 0 118 26v132h-123v109h258v-318q-94 -64 -252 -64z" />
    <glyph glyph-name="H" unicode="H" horiz-adv-x="745" 
d="M83 0v666h141v-262h298v262h141v-666h-141v288h-298v-288h-141z" />
    <glyph glyph-name="I" unicode="I" horiz-adv-x="324" 
d="M89 0v666h141v-666h-141z" />
    <glyph glyph-name="J" unicode="J" horiz-adv-x="331" 
d="M57 -204q-56 0 -98 16l22 115q20 -9 47 -9q42 0 60 23t18 76v649h142v-668q0 -98 -50.5 -150t-140.5 -52z" />
    <glyph glyph-name="K" unicode="K" horiz-adv-x="630" 
d="M83 0v666h140v-290l227 290h156l-245 -309l256 -357h-167l-227 319v-319h-140z" />
    <glyph glyph-name="L" unicode="L" horiz-adv-x="514" 
d="M85 0v666h142v-552h248v-114h-390z" />
    <glyph glyph-name="M" unicode="M" horiz-adv-x="882" 
d="M41 0l92 666h137l134 -411q9 -28 21 -70t13 -45h2q17 60 35 115l138 411h136l92 -666h-144l-43 344q-10 78 -11 97h-2q-5 -27 -27 -95l-113 -346h-139l-113 345q-6 19 -11.5 39l-10 36.5t-5.5 20.5h-2q-3 -45 -9 -98l-43 -343h-127z" />
    <glyph glyph-name="N" unicode="N" horiz-adv-x="742" 
d="M82 0v666h142l240 -345q40 -57 70 -112h2q-4 36 -4 105v352h128v-666h-129l-259 370q-17 24 -64 100h-2q4 -36 4 -89v-381h-128z" />
    <glyph glyph-name="O" unicode="O" horiz-adv-x="773" 
d="M390 -12q-160 0 -253.5 100.5t-93.5 243.5q0 144 92 245t252 101t251.5 -100t91.5 -242q0 -145 -90.5 -246.5t-249.5 -101.5zM387 102q95 0 144.5 65t49.5 165t-48.5 166t-142.5 66q-96 0 -146.5 -64.5t-50.5 -163.5q0 -100 49.5 -167t144.5 -67z" />
    <glyph glyph-name="P" unicode="P" horiz-adv-x="591" 
d="M81 0v666h219q114 0 184.5 -53.5t70.5 -156.5q0 -107 -72 -163t-199 -56h-61v-237h-142zM223 344h63q66 0 96.5 27t30.5 83q0 104 -124 104h-66v-214z" />
    <glyph glyph-name="Q" unicode="Q" horiz-adv-x="773" 
d="M608 -175q-82 0 -148 37.5t-139 133.5q-129 20 -203.5 115t-74.5 221q0 144 92 245t252 101t251.5 -100t91.5 -242q0 -120 -64.5 -214.5t-181.5 -122.5q29 -38 58 -53.5t72 -15.5q46 0 80 27l45 -93q-49 -39 -131 -39zM387 102q95 0 144.5 65t49.5 165t-48.5 166
t-142.5 66q-96 0 -146.5 -64.5t-50.5 -163.5q0 -100 49.5 -167t144.5 -67z" />
    <glyph glyph-name="R" unicode="R" horiz-adv-x="620" 
d="M83 0v666h222q118 0 182 -49.5t64 -142.5q0 -77 -44 -122t-111 -57v-2q32 -23 78 -95l130 -198h-155l-122 190q-38 56 -54 70t-40 14h-9v-274h-141zM224 374h77q110 0 110 92t-116 92h-71v-184z" />
    <glyph glyph-name="S" unicode="S" horiz-adv-x="516" 
d="M237 -12q-126 0 -206 66l60 98q68 -50 143 -50q49 0 77.5 22t28.5 55q0 17 -7 30.5t-24 25t-31 18.5t-42.5 20t-44.5 21q-70 34 -106.5 79t-36.5 120q0 83 61.5 134t153.5 51q120 0 195 -56l-57 -99q-63 41 -130 41q-41 0 -65 -18t-24 -51q0 -10 3 -18.5t6 -14.5
t11.5 -13.5t14 -11.5t19 -11t20.5 -10t24 -11t25 -11q40 -18 65 -33t52.5 -39t40.5 -58t13 -78q0 -91 -64 -144.5t-175 -53.5z" />
    <glyph glyph-name="T" unicode="T" horiz-adv-x="537" 
d="M198 0v550h-184v116h509v-116h-183v-550h-142z" />
    <glyph glyph-name="U" unicode="U" horiz-adv-x="715" 
d="M363 -12q-284 0 -284 270v408h141v-396q0 -87 34 -126.5t112 -39.5q140 0 140 157v405h130v-395q0 -138 -69 -210.5t-204 -72.5z" />
    <glyph glyph-name="V" unicode="V" horiz-adv-x="665" 
d="M270 0l-257 666h152l140 -399q21 -61 34 -111h2q1 4 13 43l21 68l135 399h142l-248 -666h-134z" />
    <glyph glyph-name="W" unicode="W" horiz-adv-x="914" 
d="M196 0l-179 666h150l84 -348q24 -98 24 -122h2q0 1 4.5 20.5t11 51t12.5 54.5l91 344h139l89 -342q6 -24 12.5 -55.5l10.5 -51t4 -20.5h2l3 19q3 19 9 49.5t12 54.5l86 346h135l-182 -666h-130l-96 369q-27 104 -27 124h-2q0 -1 -4.5 -19.5l-11.5 -49.5t-14 -55
l-105 -369h-130z" />
    <glyph glyph-name="X" unicode="X" horiz-adv-x="616" 
d="M19 0l211 342l-201 324h160l126 -208l118 208h142l-192 -322l214 -344h-160l-140 230l-135 -230h-143z" />
    <glyph glyph-name="Y" unicode="Y" horiz-adv-x="598" 
d="M232 0v251l-221 415h157l141 -283h1l140 283h137l-214 -415v-251h-141z" />
    <glyph glyph-name="Z" unicode="Z" horiz-adv-x="571" 
d="M46 0v92l305 459h-292v115h463v-90l-308 -461h317v-115h-485z" />
    <glyph glyph-name="bracketleft" unicode="[" horiz-adv-x="341" 
d="M65 -161v881h250v-99h-123v-683h123v-99h-250z" />
    <glyph glyph-name="backslash" unicode="\" horiz-adv-x="450" 
d="M319 -161l-318 881h129l318 -881h-129z" />
    <glyph glyph-name="bracketright" unicode="]" horiz-adv-x="341" 
d="M26 -161v99h123v683h-123v99h250v-881h-250z" />
    <glyph glyph-name="asciicircum" unicode="^" horiz-adv-x="584" 
d="M44 288l201 378h93l201 -378h-122l-125 241l-125 -241h-123z" />
    <glyph glyph-name="underscore" unicode="_" horiz-adv-x="433" 
d="M-1 -184v103h435v-103h-435z" />
    <glyph glyph-name="grave" unicode="`" horiz-adv-x="500" 
d="M267 541l-140 135h171l83 -135h-114z" />
    <glyph glyph-name="a" unicode="a" horiz-adv-x="502" 
d="M180 -12q-64 0 -105.5 36.5t-41.5 100.5q0 88 75.5 130.5t184.5 42.5h17v28q0 36 -18 52t-61 16q-66 0 -124 -46l-58 81q76 70 197 70q101 0 148.5 -42.5t47.5 -137.5v-175q0 -82 14 -144h-131q-6 17 -8 52q-52 -64 -137 -64zM220 85q52 0 90 43v88h-17q-132 0 -132 -80
q0 -25 17 -38t42 -13z" />
    <glyph glyph-name="b" unicode="b" horiz-adv-x="553" 
d="M263 -12q-124 0 -200 39v693h133v-271q50 50 119 50q95 0 151 -64.5t56 -187.5q0 -121 -72.5 -190t-186.5 -69zM263 92q56 0 87 40.5t31 114.5q0 147 -103 147q-47 0 -82 -37v-254q26 -11 67 -11z" />
    <glyph glyph-name="c" unicode="c" horiz-adv-x="458" 
d="M282 -12q-116 0 -184 70.5t-68 184.5q0 120 71.5 188t184.5 68q89 0 149 -39l-43 -91q-46 29 -102 29q-57 0 -88 -41t-31 -110q0 -71 31 -113.5t91 -42.5q55 0 105 30l41 -89q-67 -44 -157 -44z" />
    <glyph glyph-name="d" unicode="d" horiz-adv-x="557" 
d="M231 -13q-93 0 -146.5 67t-53.5 188q0 115 61.5 186t156.5 71q72 0 113 -34v255h133v-581q0 -75 14 -139h-131q-8 24 -10 53q-54 -66 -137 -66zM271 94q54 0 91 49v220q-35 32 -85 32q-51 0 -78 -40t-27 -113q0 -148 99 -148z" />
    <glyph glyph-name="e" unicode="e" horiz-adv-x="519" 
d="M285 -12q-120 0 -187.5 70t-67.5 188q0 113 69 183t172 70t157.5 -62.5t54.5 -177.5q0 -14 -2 -46h-308q5 -57 35.5 -91.5t88.5 -34.5q59 0 127 34l43 -86q-84 -47 -182 -47zM171 303h182q-2 100 -84 100t-98 -100z" />
    <glyph glyph-name="f" unicode="f" horiz-adv-x="365" 
d="M90 0v388h-73v99h73v50q0 89 50.5 142t141.5 53q79 0 118 -23l-31 -100q-28 14 -67 14q-79 0 -79 -96v-40h116v-99h-116v-388h-133z" />
    <glyph glyph-name="g" unicode="g" horiz-adv-x="537" 
d="M243 -239q-103 0 -158.5 32.5t-55.5 97.5q0 75 82 119q-43 25 -43 74q0 58 54 92q-86 47 -86 146q0 80 58 128.5t158 48.5q50 0 87 -12h177v-87h-67q20 -35 20 -78q0 -80 -55 -128t-155 -48q-34 0 -58 4q-18 -10 -18 -28q0 -19 21 -25.5t77 -9.5q106 -5 146 -20
q83 -32 83 -130q0 -78 -74 -127t-193 -49zM251 -150q59 0 93 20t34 52t-22.5 41.5t-76.5 12.5q-12 1 -18 1q-56 5 -67 7q-38 -27 -38 -68q0 -66 95 -66zM253 232q41 0 64.5 24t23.5 66q0 43 -23.5 66.5t-64.5 23.5t-64.5 -23.5t-23.5 -66.5q0 -42 23.5 -66t64.5 -24z" />
    <glyph glyph-name="h" unicode="h" 
d="M63 0v720h133v-292q66 71 152 71q76 0 111 -42.5t35 -115.5v-341h-133v314q0 38 -15 56t-49 18q-54 0 -101 -61v-327h-133z" />
    <glyph glyph-name="i" unicode="i" horiz-adv-x="280" 
d="M140 550q-35 0 -58 23.5t-23 56.5q0 32 23 55t58 23t58.5 -23t23.5 -55q0 -33 -23.5 -56.5t-58.5 -23.5zM73 0v487h134v-487h-134z" />
    <glyph glyph-name="j" unicode="j" horiz-adv-x="275" 
d="M37 -233q-58 0 -87 12l23 103q18 -6 38 -6q34 0 47 23.5t13 80.5v507h134v-521q0 -199 -168 -199zM137 550q-35 0 -58 23.5t-23 56.5q0 32 23 55t58 23t58.5 -23t23.5 -55q0 -33 -23.5 -56.5t-58.5 -23.5z" />
    <glyph glyph-name="k" unicode="k" horiz-adv-x="517" 
d="M63 0v720h133v-430l161 197h145l-180 -217l184 -270h-154l-156 238v-238h-133z" />
    <glyph glyph-name="l" unicode="l" horiz-adv-x="275" 
d="M71 0v720h133v-720h-133z" />
    <glyph glyph-name="m" unicode="m" horiz-adv-x="823" 
d="M65 0v487h130v-60q64 72 146 72q95 0 125 -77q69 77 156 77q139 0 139 -158v-341h-133v314q0 38 -13 56t-45 18q-46 0 -91 -55v-333h-133v314q0 74 -57 74q-45 0 -91 -60v-328h-133z" />
    <glyph glyph-name="n" unicode="n" horiz-adv-x="557" 
d="M65 0v487h130v-61q62 73 155 73q76 0 111 -43t35 -115v-341h-133v314q0 38 -15 56t-50 18q-55 0 -100 -61v-327h-133z" />
    <glyph glyph-name="o" unicode="o" horiz-adv-x="550" 
d="M274 -12q-119 0 -181.5 75t-62.5 179t62 180.5t181 76.5q81 0 138.5 -38t83 -93.5t25.5 -121.5q0 -103 -63.5 -180.5t-182.5 -77.5zM276 89q103 0 103 153q0 72 -26.5 115t-81.5 43q-100 0 -100 -154q0 -72 25.5 -114.5t79.5 -42.5z" />
    <glyph glyph-name="p" unicode="p" horiz-adv-x="559" 
d="M65 -219v706h130v-51q52 63 135 63q93 0 145.5 -67t52.5 -188q0 -115 -61 -185.5t-157 -70.5q-72 0 -112 35v-242h-133zM282 91q51 0 78 40t27 113q0 70 -24.5 109.5t-72.5 39.5q-56 0 -92 -50v-219q37 -33 84 -33z" />
    <glyph glyph-name="q" unicode="q" horiz-adv-x="554" 
d="M359 -218v257q-49 -51 -119 -51q-94 0 -150.5 65.5t-56.5 186.5t73 190t186 69q117 0 200 -36v-681h-133zM277 93q49 0 82 37v254q-33 11 -66 11q-57 0 -88.5 -40.5t-31.5 -114.5q0 -147 104 -147z" />
    <glyph glyph-name="r" unicode="r" horiz-adv-x="390" 
d="M65 0v487h133v-66q46 78 123 78q42 0 66 -13l-32 -116q-18 11 -51 11q-66 0 -106 -74v-307h-133z" />
    <glyph glyph-name="s" unicode="s" horiz-adv-x="420" 
d="M199 -12q-104 0 -173 46l45 93q58 -40 120 -40q80 0 80 44q0 10 -5.5 17.5t-18.5 14t-25.5 12l-34.5 14.5t-39 17q-55 26 -82 58.5t-27 85.5q0 68 49.5 108.5t132.5 40.5q90 0 156 -39l-47 -91q-49 31 -104 31q-67 0 -67 -43q0 -10 4 -17t16 -14t20 -10.5t29.5 -11
t30.5 -11.5q66 -28 99.5 -60t33.5 -89q0 -76 -51 -116t-142 -40z" />
    <glyph glyph-name="t" unicode="t" horiz-adv-x="387" 
d="M251 -12q-83 0 -118.5 39t-35.5 113v248h-78v99h78v141h132v-141h114v-99h-114v-222q0 -37 11 -53t38 -16q34 0 64 18l31 -99q-51 -28 -122 -28z" />
    <glyph glyph-name="u" unicode="u" horiz-adv-x="557" 
d="M207 -12q-76 0 -111 43t-35 115v341h133v-314q0 -38 15 -56t50 -18q49 0 100 61v327h133v-347q0 -77 13 -140h-131q-8 26 -10 65q-61 -77 -157 -77z" />
    <glyph glyph-name="v" unicode="v" horiz-adv-x="507" 
d="M191 0l-181 487h144l101 -322h2l104 322h135l-180 -487h-125z" />
    <glyph glyph-name="w" unicode="w" horiz-adv-x="743" 
d="M149 0l-138 487h143l74 -310h2l83 310h123l83 -312h2l76 312h133l-139 -487h-120l-100 326h-2l-100 -326h-120z" />
    <glyph glyph-name="x" unicode="x" horiz-adv-x="511" 
d="M16 0l166 252l-160 235h150q85 -129 88 -133l78 133h137l-151 -229l172 -258h-150l-101 156l-92 -156h-137z" />
    <glyph glyph-name="y" unicode="y" horiz-adv-x="517" 
d="M78 -234q-45 0 -75 9l19 105q17 -5 47 -5q48 0 71.5 21t39.5 64l18 50l-183 477h142l110 -321h3l99 321h137l-201 -539q-35 -94 -84 -138t-143 -44z" />
    <glyph glyph-name="z" unicode="z" horiz-adv-x="458" 
d="M39 0v72l212 315h-202v100h364v-77l-211 -310h213v-100h-376z" />
    <glyph glyph-name="braceleft" unicode="{" horiz-adv-x="406" 
d="M259 -161q-48 0 -83.5 32.5t-35.5 91.5v171q0 98 -114 101v100q114 3 114 101v161q0 60 35 91.5t85 31.5h119v-99h-62q-29 0 -39.5 -17t-10.5 -51v-146q0 -93 -91 -119v-2q91 -29 91 -126v-155q0 -38 9.5 -52.5t40.5 -14.5h62v-99h-120z" />
    <glyph glyph-name="bar" unicode="|" horiz-adv-x="286" 
d="M85 -250v1000h117v-1000h-117z" />
    <glyph glyph-name="braceright" unicode="}" horiz-adv-x="406" 
d="M26 -161v99h62q30 0 40.5 17t10.5 51v157q0 93 91 119v2q-91 29 -91 126v144q0 38 -9.5 52.5t-40.5 14.5h-63v99h121q48 0 83.5 -32.5t35.5 -91.5v-160q0 -98 114 -101v-100q-114 -3 -114 -101v-172q0 -60 -35.5 -91.5t-84.5 -31.5h-120z" />
    <glyph glyph-name="asciitilde" unicode="~" horiz-adv-x="585" 
d="M390 165q-52 0 -109 29t-94 29q-45 0 -89 -41l-60 79q68 71 155 71q46 0 102.5 -29t100.5 -29q48 0 91 41l60 -78q-67 -72 -157 -72z" />
    <glyph glyph-name="uni00A0" unicode="&#xa0;" horiz-adv-x="194" 
 />
    <glyph glyph-name="exclamdown" unicode="&#xa1;" horiz-adv-x="298" 
d="M152 336q-36 0 -60 23.5t-24 57.5t24 58t60 24t60 -24t24 -58t-24 -57.5t-60 -23.5zM74 -176l25 440h106l25 -440h-156z" />
    <glyph glyph-name="cent" unicode="&#xa2;" horiz-adv-x="458" 
d="M205 -123v120q-82 21 -128.5 87t-46.5 159q0 97 47.5 161t127.5 85v110h111v-101q69 -6 119 -38l-43 -91q-46 29 -102 29q-57 0 -88 -41t-31 -110q0 -71 31 -113.5t91 -42.5q55 0 105 30l41 -89q-55 -36 -123 -42v-113h-111z" />
    <glyph glyph-name="sterling" unicode="&#xa3;" horiz-adv-x="513" 
d="M62 269v97h84q-12 70 -12 117q0 89 57 142t160 53q82 0 143 -37l-53 -93q-41 23 -86 23q-82 0 -82 -99q0 -44 11 -106h145v-97h-132v-14q0 -50 -19 -89.5t-44 -59.5h234v-106h-404v85q48 24 72.5 69.5t24.5 96.5q0 12 -1 18h-98z" />
    <glyph glyph-name="currency" unicode="&#xa4;" horiz-adv-x="622" 
d="M159 -5l-97 74l79 99q-36 51 -36 119q0 70 40 122l-80 101l96 74l78 -105q36 13 76 13q38 0 68 -11l77 103l97 -74l-76 -95q45 -51 45 -128q0 -73 -42 -127l72 -91l-97 -74l-71 97q-35 -11 -73 -11q-47 0 -81 15zM315 195q40 0 63.5 26t23.5 66t-24 66t-63 26t-63 -26
t-24 -66t23.5 -66t63.5 -26z" />
    <glyph glyph-name="yen" unicode="&#xa5;" horiz-adv-x="583" 
d="M225 0v85h-162v93h162v58h-162v92h121l-180 338h157l140 -286h2l140 286h137l-175 -338h124v-92h-163v-58h163v-93h-163v-85h-141z" />
    <glyph glyph-name="brokenbar" unicode="&#xa6;" horiz-adv-x="241" 
d="M60 -250v378h117v-378h-117zM60 382v368h117v-368h-117z" />
    <glyph glyph-name="section" unicode="&#xa7;" horiz-adv-x="465" 
d="M192 -152q-86 0 -136 34l41 96q37 -25 80 -25q35 0 55 17.5t20 47.5q0 22 -22 48.5t-53 53.5l-62.5 57t-53.5 70.5t-22 84.5q0 86 77 134q-34 50 -34 101q0 75 52 120t128 45q86 0 140 -38l-49 -87q-35 24 -76 24q-30 0 -46 -16.5t-16 -42.5q0 -24 21.5 -51.5t52.5 -55
t62 -58.5t52.5 -72.5t21.5 -86.5q0 -75 -73 -133q34 -48 34 -96q0 -84 -55.5 -127.5t-138.5 -43.5zM276 191q22 22 22 52q0 9 -3.5 19.5t-12 22.5l-15.5 22t-20.5 23.5l-21 21l-22.5 22l-20 19.5q-18 -17 -18 -52q0 -9 3.5 -19.5t12 -23l14.5 -21.5t20.5 -24t19.5 -21
t22 -22.5z" />
    <glyph glyph-name="dieresis" unicode="&#xa8;" horiz-adv-x="500" 
d="M145 542q-32 0 -53 21t-21 51q0 29 21 50t53 21t53 -21t21 -50q0 -30 -21 -51t-53 -21zM355 542q-32 0 -53 21t-21 51q0 29 21 50t53 21t53 -21t21 -50q0 -30 -21 -51t-53 -21z" />
    <glyph glyph-name="copyright" unicode="&#xa9;" horiz-adv-x="836" 
d="M424 135q-94 0 -157 64t-63 160t64 160t158 64q85 0 148 -54l-53 -75q-44 34 -92 34q-52 0 -83.5 -37t-31.5 -90q0 -58 33.5 -96t84.5 -38q49 0 101 44l50 -72q-69 -64 -159 -64zM417 -14q-154 0 -263 109.5t-109 263.5t109 263.5t263 109.5q155 0 264 -109t109 -264
t-109 -264t-264 -109zM417 63q127 0 209 82t82 214t-82 214t-209 82q-126 0 -208 -82t-82 -214t81.5 -214t208.5 -82z" />
    <glyph glyph-name="ordfeminine" unicode="&#xaa;" horiz-adv-x="377" 
d="M135 312q-49 0 -80.5 26.5t-31.5 73.5q0 54 46 88q49 34 152 34v17q0 24 -11.5 35.5t-41.5 11.5q-45 0 -89 -33l-45 63q58 50 145 50q75 0 110.5 -31t35.5 -99v-123q0 -61 12 -104h-103q-5 13 -7 33q-40 -42 -92 -42zM162 386q35 0 59 27v59q-66 0 -87 -21
q-12 -12 -12 -31q0 -34 40 -34z" />
    <glyph glyph-name="guillemotleft" unicode="&#xab;" horiz-adv-x="539" 
d="M152 53l-120 192l120 193h136l-119 -193l119 -192h-136zM374 53l-120 192l120 193h136l-119 -193l119 -192h-136z" />
    <glyph glyph-name="logicalnot" unicode="&#xac;" horiz-adv-x="624" 
d="M470 30v185h-430v103h537v-288h-107z" />
    <glyph glyph-name="uni00AD" unicode="&#xad;" horiz-adv-x="330" 
d="M51 228v108h228v-108h-228z" />
    <glyph glyph-name="registered" unicode="&#xae;" horiz-adv-x="836" 
d="M275 156v417h148q72 0 110.5 -32.5t38.5 -89.5q0 -91 -96 -111q22 -17 50 -62l75 -122h-103l-79 132q-15 24 -24.5 31.5t-26.5 7.5v-171h-93zM417 -14q-154 0 -263 109.5t-109 263.5t109 263.5t263 109.5q155 0 264 -109t109 -264t-109 -264t-264 -109zM417 63
q127 0 209 82t82 214t-82 214t-209 82q-126 0 -208 -82t-82 -214t81.5 -214t208.5 -82zM368 391h38q72 0 72 55q0 56 -65 56h-45v-111z" />
    <glyph glyph-name="macron" unicode="&#xaf;" horiz-adv-x="500" 
d="M108 562v95h283v-95h-283z" />
    <glyph glyph-name="degree" unicode="&#xb0;" horiz-adv-x="346" 
d="M173 397q-59 0 -101 41t-42 99q0 59 42 100t101 41t101 -41t42 -100q0 -58 -42 -99t-101 -41zM173 472q27 0 44 18.5t17 46.5q0 29 -17 47.5t-44 18.5t-44 -18.5t-17 -47.5q0 -28 17 -46.5t44 -18.5z" />
    <glyph glyph-name="plusminus" unicode="&#xb1;" horiz-adv-x="574" 
d="M225 26v186h-184v102h184v180h114v-180h181v-102h-181v-186h-114zM55 -152v103h453v-103h-453z" />
    <glyph glyph-name="twosuperior" unicode="&#xb2;" horiz-adv-x="343" 
d="M25 331v54q97 76 123 105q32 37 32 66q0 37 -40 37q-39 0 -75 -32l-49 65q58 47 138 47q66 0 101 -29t35 -76q0 -42 -30.5 -78.5t-87.5 -81.5q9 3 48 3h85v-80h-280z" />
    <glyph glyph-name="threesuperior" unicode="&#xb3;" horiz-adv-x="322" 
d="M106 325q-56 0 -86 12l20 75q26 -10 62 -10q69 0 69 32q0 35 -92 37v60q39 1 61 12t22 28q0 25 -38 25q-35 0 -65 -21l-37 64q51 34 126 34q56 0 88 -21t32 -58q0 -31 -21 -50t-51 -27v-1q33 -4 59 -24t26 -57q0 -52 -46.5 -81t-128.5 -29z" />
    <glyph glyph-name="acute" unicode="&#xb4;" horiz-adv-x="500" 
d="M145 541l83 135h172l-140 -135h-115z" />
    <glyph glyph-name="uni00B5" unicode="&#xb5;" horiz-adv-x="565" 
d="M62 -209v696h133v-317q0 -35 13 -53t46 -18q56 0 106 61v327h133v-349q0 -82 12 -138h-131q-8 24 -10 65q-60 -68 -127 -73q-27 -2 -46 6h-3q4 -26 4 -100v-107h-130z" />
    <glyph glyph-name="paragraph" unicode="&#xb6;" horiz-adv-x="662" 
d="M243 -177v429q-87 0 -146 57t-59 149t59 150t146 58h385v-104h-75v-739h-115v739h-78v-739h-117z" />
    <glyph glyph-name="periodcentered" unicode="&#xb7;" horiz-adv-x="258" 
d="M129 204q-37 0 -62.5 25t-25.5 61t25.5 61t62.5 25t62.5 -25t25.5 -61t-25.5 -61t-62.5 -25z" />
    <glyph glyph-name="cedilla" unicode="&#xb8;" horiz-adv-x="494" 
d="M229 -230q-49 0 -82 15l17 60q22 -11 51 -11q48 0 48 34q0 42 -71 38l36 97h76l-21 -58q32 -7 51.5 -28.5t19.5 -53.5q0 -41 -35 -67t-90 -26z" />
    <glyph glyph-name="onesuperior" unicode="&#xb9;" horiz-adv-x="286" 
d="M107 331v248l-73 -18l-22 79l121 26h77v-335h-103z" />
    <glyph glyph-name="ordmasculine" unicode="&#xba;" horiz-adv-x="410" 
d="M205 312q-87 0 -133 53t-46 129q0 77 46 130.5t132 53.5t133 -53t47 -128q0 -76 -46.5 -130.5t-132.5 -54.5zM206 389q67 0 67 105q0 108 -71 108q-36 0 -50.5 -26.5t-14.5 -78.5q0 -108 69 -108z" />
    <glyph glyph-name="guillemotright" unicode="&#xbb;" horiz-adv-x="539" 
d="M28 53l120 193l-120 192h136l120 -192l-120 -193h-136zM251 53l119 193l-119 192h135l121 -192l-121 -193h-135z" />
    <glyph glyph-name="onequarter" unicode="&#xbc;" horiz-adv-x="745" 
d="M107 331v248l-73 -18l-22 79l121 26h77v-335h-103zM96 0l408 666h106l-409 -666h-105zM570 0v62h-170v62l175 211h98v-199h52v-74h-52v-62h-103zM497 134q18 2 43 2h33v91h-1z" />
    <glyph glyph-name="onehalf" unicode="&#xbd;" horiz-adv-x="766" 
d="M107 331v248l-73 -18l-22 79l121 26h77v-335h-103zM96 0l408 666h106l-409 -666h-105zM447 0v54q97 75 123 104q33 37 33 67q0 36 -41 36q-39 0 -75 -31l-49 64q56 47 138 47q66 0 101.5 -29t35.5 -76q0 -42 -31 -78.5t-88 -80.5q14 2 48 2h85v-79h-280z" />
    <glyph glyph-name="threequarters" unicode="&#xbe;" horiz-adv-x="782" 
d="M106 325q-56 0 -86 12l20 75q26 -10 62 -10q69 0 69 32q0 35 -92 37v60q39 1 61 12t22 28q0 25 -38 25q-35 0 -65 -21l-37 64q51 34 126 34q56 0 88 -21t32 -58q0 -31 -21 -50t-51 -27v-1q33 -4 59 -24t26 -57q0 -52 -46.5 -81t-128.5 -29zM132 0l409 666h106l-409 -666
h-106zM607 0v62h-170v62l175 211h97v-199h53v-74h-53v-62h-102zM534 134q18 2 42 2h34v91h-1z" />
    <glyph glyph-name="questiondown" unicode="&#xbf;" horiz-adv-x="411" 
d="M240 -188q-102 0 -155 48t-53 124q0 92 94 156q5 3 19.5 13.5l18.5 13.5t13 11.5t12 14t6 15t3 19.5v40h116v-54q0 -44 -16 -70t-53 -49q-37 -24 -53 -45t-16 -54q0 -74 88 -74q40 0 86 23l46 -98q-66 -34 -156 -34zM255 336q-36 0 -60 23.5t-24 57.5t24 58t60 24t60 -24
t24 -58t-24 -57.5t-60 -23.5z" />
    <glyph glyph-name="Agrave" unicode="&#xc0;" horiz-adv-x="680" 
d="M240 238h187l-57 159q-12 33 -23 72t-13 43h-2q-1 -4 -6.5 -23l-13 -43.5l-15.5 -48.5zM15 0l254 666h136l261 -666h-154l-45 125h-266l-44 -125h-142zM286 717l-140 135h171l83 -135h-114z" />
    <glyph glyph-name="Aacute" unicode="&#xc1;" horiz-adv-x="680" 
d="M240 238h187l-57 159q-12 33 -23 72t-13 43h-2q-1 -4 -6.5 -23l-13 -43.5l-15.5 -48.5zM15 0l254 666h136l261 -666h-154l-45 125h-266l-44 -125h-142zM267 717l83 135h172l-140 -135h-115z" />
    <glyph glyph-name="Acircumflex" unicode="&#xc2;" horiz-adv-x="680" 
d="M240 238h187l-57 159q-12 33 -23 72t-13 43h-2q-1 -4 -6.5 -23l-13 -43.5l-15.5 -48.5zM15 0l254 666h136l261 -666h-154l-45 125h-266l-44 -125h-142zM156 718l127 159h102l125 -159h-113l-64 66l-64 -66h-113z" />
    <glyph glyph-name="Atilde" unicode="&#xc3;" horiz-adv-x="680" 
d="M240 238h187l-57 159q-12 33 -23 72t-13 43h-2q-1 -4 -6.5 -23l-13 -43.5l-15.5 -48.5zM15 0l254 666h136l261 -666h-154l-45 125h-266l-44 -125h-142zM392 722q-32 0 -66 17.5t-52 17.5q-24 0 -54 -30l-61 53q17 30 46.5 52.5t66.5 22.5q33 0 66.5 -17.5t51.5 -17.5
q31 0 56 31l61 -53q-45 -76 -115 -76z" />
    <glyph glyph-name="Adieresis" unicode="&#xc4;" horiz-adv-x="680" 
d="M240 238h187l-57 159q-12 33 -23 72t-13 43h-2q-1 -4 -6.5 -23l-13 -43.5l-15.5 -48.5zM15 0l254 666h136l261 -666h-154l-45 125h-266l-44 -125h-142zM228 718q-32 0 -53 21t-21 51q0 29 21 50t53 21t53 -21t21 -50q0 -30 -21 -51t-53 -21zM438 718q-32 0 -53 21t-21 51
q0 29 21 50t53 21t53 -21t21 -50q0 -30 -21 -51t-53 -21z" />
    <glyph glyph-name="Aring" unicode="&#xc5;" horiz-adv-x="680" 
d="M240 238h187l-57 159q-12 33 -23 72t-13 43h-2q-1 -4 -6.5 -23l-13 -43.5l-15.5 -48.5zM15 0l254 666h136l261 -666h-154l-45 125h-266l-44 -125h-142zM333 705q-44 0 -77 31t-33 76q0 44 33 75t77 31t77 -31t33 -75q0 -45 -33 -76t-77 -31zM333 761q21 0 33.5 15
t12.5 36t-12.5 35.5t-33.5 14.5t-33.5 -14.5t-12.5 -35.5t12.5 -36t33.5 -15z" />
    <glyph glyph-name="AE" unicode="&#xc6;" horiz-adv-x="859" 
d="M-23 0l378 666h440v-116h-245v-150h216v-110h-216v-174h252v-116h-391v141h-205l-77 -141h-152zM264 251h147v269z" />
    <glyph glyph-name="Ccedilla" unicode="&#xc7;" horiz-adv-x="618" 
d="M315 -230q-49 0 -82 15l17 60q22 -11 51 -11q48 0 48 34q0 42 -71 38l33 89q-128 22 -198 117.5t-70 221.5q0 144 91.5 244t252.5 100q119 0 200 -53l-63 -103q-60 39 -139 39q-90 0 -141 -63.5t-51 -159.5q0 -101 50.5 -166.5t143.5 -65.5q82 0 151 51l58 -99
q-30 -27 -87 -48.5t-124 -21.5h-1l-15 -43q32 -7 51.5 -28.5t19.5 -53.5q0 -41 -35 -67t-90 -26z" />
    <glyph glyph-name="Egrave" unicode="&#xc8;" horiz-adv-x="530" 
d="M83 0v666h384v-116h-245v-150h216v-110h-216v-174h252v-116h-391zM229 717l-140 135h171l83 -135h-114z" />
    <glyph glyph-name="Eacute" unicode="&#xc9;" horiz-adv-x="530" 
d="M208 717l83 135h172l-140 -135h-115zM83 0v666h384v-116h-245v-150h216v-110h-216v-174h252v-116h-391z" />
    <glyph glyph-name="Ecircumflex" unicode="&#xca;" horiz-adv-x="530" 
d="M97 718l127 159h102l125 -159h-113l-64 66l-64 -66h-113zM83 0v666h384v-116h-245v-150h216v-110h-216v-174h252v-116h-391z" />
    <glyph glyph-name="Edieresis" unicode="&#xcb;" horiz-adv-x="530" 
d="M169 718q-32 0 -53 21t-21 51q0 29 21 50t53 21t53 -21t21 -50q0 -30 -21 -51t-53 -21zM379 718q-32 0 -53 21t-21 51q0 29 21 50t53 21t53 -21t21 -50q0 -30 -21 -51t-53 -21zM83 0v666h384v-116h-245v-150h216v-110h-216v-174h252v-116h-391z" />
    <glyph glyph-name="Igrave" unicode="&#xcc;" horiz-adv-x="324" 
d="M89 0v666h141v-666h-141zM113 717l-140 135h171l83 -135h-114z" />
    <glyph glyph-name="Iacute" unicode="&#xcd;" horiz-adv-x="324" 
d="M89 0v666h141v-666h-141zM94 717l83 135h172l-140 -135h-115z" />
    <glyph glyph-name="Icircumflex" unicode="&#xce;" horiz-adv-x="324" 
d="M89 0v666h141v-666h-141zM-17 718l127 159h102l125 -159h-113l-64 66l-64 -66h-113z" />
    <glyph glyph-name="Idieresis" unicode="&#xcf;" horiz-adv-x="324" 
d="M89 0v666h141v-666h-141zM55 718q-32 0 -53 21t-21 51q0 29 21 50t53 21t53 -21t21 -50q0 -30 -21 -51t-53 -21zM265 718q-32 0 -53 21t-21 51q0 29 21 50t53 21t53 -21t21 -50q0 -30 -21 -51t-53 -21z" />
    <glyph glyph-name="Eth" unicode="&#xd0;" horiz-adv-x="701" 
d="M83 0v289h-65v99h65v278h201q190 0 285.5 -87t95.5 -237q0 -152 -98 -247t-288 -95h-196zM224 113h66q226 0 226 225q0 111 -56 163t-175 52h-61v-165h105v-99h-105v-176z" />
    <glyph glyph-name="Ntilde" unicode="&#xd1;" horiz-adv-x="742" 
d="M82 0v666h142l240 -345q40 -57 70 -112h2q-4 36 -4 105v352h128v-666h-129l-259 370q-17 24 -64 100h-2q4 -36 4 -89v-381h-128zM429 722q-32 0 -66 17.5t-52 17.5q-24 0 -54 -30l-61 53q17 30 46.5 52.5t66.5 22.5q33 0 66.5 -17.5t51.5 -17.5q31 0 56 31l61 -53
q-45 -76 -115 -76z" />
    <glyph glyph-name="Ograve" unicode="&#xd2;" horiz-adv-x="773" 
d="M390 -12q-160 0 -253.5 100.5t-93.5 243.5q0 144 92 245t252 101t251.5 -100t91.5 -242q0 -145 -90.5 -246.5t-249.5 -101.5zM387 102q95 0 144.5 65t49.5 165t-48.5 166t-142.5 66q-96 0 -146.5 -64.5t-50.5 -163.5q0 -100 49.5 -167t144.5 -67zM340 717l-140 135h171
l83 -135h-114z" />
    <glyph glyph-name="Oacute" unicode="&#xd3;" horiz-adv-x="773" 
d="M320 717l83 135h172l-140 -135h-115zM390 -12q-160 0 -253.5 100.5t-93.5 243.5q0 144 92 245t252 101t251.5 -100t91.5 -242q0 -145 -90.5 -246.5t-249.5 -101.5zM387 102q95 0 144.5 65t49.5 165t-48.5 166t-142.5 66q-96 0 -146.5 -64.5t-50.5 -163.5
q0 -100 49.5 -167t144.5 -67z" />
    <glyph glyph-name="Ocircumflex" unicode="&#xd4;" horiz-adv-x="773" 
d="M209 718l127 159h102l125 -159h-113l-64 66l-64 -66h-113zM390 -12q-160 0 -253.5 100.5t-93.5 243.5q0 144 92 245t252 101t251.5 -100t91.5 -242q0 -145 -90.5 -246.5t-249.5 -101.5zM387 102q95 0 144.5 65t49.5 165t-48.5 166t-142.5 66q-96 0 -146.5 -64.5
t-50.5 -163.5q0 -100 49.5 -167t144.5 -67z" />
    <glyph glyph-name="Otilde" unicode="&#xd5;" horiz-adv-x="773" 
d="M390 -12q-160 0 -253.5 100.5t-93.5 243.5q0 144 92 245t252 101t251.5 -100t91.5 -242q0 -145 -90.5 -246.5t-249.5 -101.5zM387 102q95 0 144.5 65t49.5 165t-48.5 166t-142.5 66q-96 0 -146.5 -64.5t-50.5 -163.5q0 -100 49.5 -167t144.5 -67zM445 722q-32 0 -66 17.5
t-52 17.5q-24 0 -54 -30l-61 53q17 30 46.5 52.5t66.5 22.5q33 0 66.5 -17.5t51.5 -17.5q31 0 56 31l61 -53q-45 -76 -115 -76z" />
    <glyph glyph-name="Odieresis" unicode="&#xd6;" horiz-adv-x="773" 
d="M281 718q-32 0 -53 21t-21 51q0 29 21 50t53 21t53 -21t21 -50q0 -30 -21 -51t-53 -21zM491 718q-32 0 -53 21t-21 51q0 29 21 50t53 21t53 -21t21 -50q0 -30 -21 -51t-53 -21zM390 -12q-160 0 -253.5 100.5t-93.5 243.5q0 144 92 245t252 101t251.5 -100t91.5 -242
q0 -145 -90.5 -246.5t-249.5 -101.5zM387 102q95 0 144.5 65t49.5 165t-48.5 166t-142.5 66q-96 0 -146.5 -64.5t-50.5 -163.5q0 -100 49.5 -167t144.5 -67z" />
    <glyph glyph-name="multiply" unicode="&#xd7;" horiz-adv-x="511" 
d="M379 64l-125 124l-120 -119l-76 76l120 120l-121 121l78 78l121 -120l119 119l77 -77l-119 -119l125 -125z" />
    <glyph glyph-name="Oslash" unicode="&#xd8;" horiz-adv-x="773" 
d="M165 -74l-83 59l66 92q-105 99 -105 255q0 144 92 245t252 101q89 0 162 -35l64 90l84 -60l-64 -90q97 -99 97 -247q0 -145 -90.5 -246.5t-249.5 -101.5q-85 0 -157 32zM193 336q0 -91 38 -151l251 357q-41 22 -92 22q-96 0 -146.5 -64.5t-50.5 -163.5zM387 102
q95 0 144.5 65t49.5 165q0 84 -32 141l-250 -351q38 -20 88 -20z" />
    <glyph glyph-name="Ugrave" unicode="&#xd9;" horiz-adv-x="715" 
d="M363 -12q-284 0 -284 270v408h141v-396q0 -87 34 -126.5t112 -39.5q140 0 140 157v405h130v-395q0 -138 -69 -210.5t-204 -72.5zM310 717l-140 135h171l83 -135h-114z" />
    <glyph glyph-name="Uacute" unicode="&#xda;" horiz-adv-x="715" 
d="M291 717l83 135h172l-140 -135h-115zM363 -12q-284 0 -284 270v408h141v-396q0 -87 34 -126.5t112 -39.5q140 0 140 157v405h130v-395q0 -138 -69 -210.5t-204 -72.5z" />
    <glyph glyph-name="Ucircumflex" unicode="&#xdb;" horiz-adv-x="715" 
d="M180 718l127 159h102l125 -159h-113l-64 66l-64 -66h-113zM363 -12q-284 0 -284 270v408h141v-396q0 -87 34 -126.5t112 -39.5q140 0 140 157v405h130v-395q0 -138 -69 -210.5t-204 -72.5z" />
    <glyph glyph-name="Udieresis" unicode="&#xdc;" horiz-adv-x="715" 
d="M252 718q-32 0 -53 21t-21 51q0 29 21 50t53 21t53 -21t21 -50q0 -30 -21 -51t-53 -21zM462 718q-32 0 -53 21t-21 51q0 29 21 50t53 21t53 -21t21 -50q0 -30 -21 -51t-53 -21zM363 -12q-284 0 -284 270v408h141v-396q0 -87 34 -126.5t112 -39.5q140 0 140 157v405h130
v-395q0 -138 -69 -210.5t-204 -72.5z" />
    <glyph glyph-name="Yacute" unicode="&#xdd;" horiz-adv-x="598" 
d="M232 0v251l-221 415h157l141 -283h1l140 283h137l-214 -415v-251h-141zM236 717l83 135h172l-140 -135h-115z" />
    <glyph glyph-name="Thorn" unicode="&#xde;" horiz-adv-x="598" 
d="M81 0v666h142v-108h77q114 0 184.5 -53.5t70.5 -156.5q0 -107 -72 -163.5t-199 -56.5h-61v-128h-142zM223 236h63q66 0 96.5 27t30.5 82q0 105 -124 105h-66v-214z" />
    <glyph glyph-name="germandbls" unicode="&#xdf;" horiz-adv-x="579" 
d="M378 -12q-83 0 -140 32l38 95q43 -28 86 -28q68 0 68 49q0 11 -4 20t-15 18t-18.5 14.5t-26.5 17l-27 16.5q-81 51 -81 119q0 16 3.5 30.5t7.5 23.5t14 21t14.5 16.5t17 16t15.5 14.5q41 39 41 84q0 81 -79 81q-93 0 -93 -133v-495h-133v497q0 118 64.5 176.5t164.5 58.5
q99 0 154 -51t55 -128q0 -65 -60 -117q-9 -9 -23 -21l-22 -19t-14 -17.5t-6 -22.5q0 -5 1 -9t3.5 -8.5t4.5 -7.5t7.5 -7.5l8.5 -7t11 -7.5l12 -7.5l14 -8.5l15 -9q22 -14 36 -24.5t30.5 -28t24.5 -41t8 -53.5q0 -69 -47 -109t-130 -40z" />
    <glyph glyph-name="agrave" unicode="&#xe0;" horiz-adv-x="502" 
d="M180 -12q-64 0 -105.5 36.5t-41.5 100.5q0 88 75.5 130.5t184.5 42.5h17v28q0 36 -18 52t-61 16q-66 0 -124 -46l-58 81q76 70 197 70q101 0 148.5 -42.5t47.5 -137.5v-175q0 -82 14 -144h-131q-6 17 -8 52q-52 -64 -137 -64zM220 85q52 0 90 43v88h-17q-132 0 -132 -80
q0 -25 17 -38t42 -13zM202 541l-140 135h171l83 -135h-114z" />
    <glyph glyph-name="aacute" unicode="&#xe1;" horiz-adv-x="502" 
d="M180 -12q-64 0 -105.5 36.5t-41.5 100.5q0 88 75.5 130.5t184.5 42.5h17v28q0 36 -18 52t-61 16q-66 0 -124 -46l-58 81q76 70 197 70q101 0 148.5 -42.5t47.5 -137.5v-175q0 -82 14 -144h-131q-6 17 -8 52q-52 -64 -137 -64zM220 85q52 0 90 43v88h-17q-132 0 -132 -80
q0 -25 17 -38t42 -13zM182 541l83 135h172l-140 -135h-115z" />
    <glyph glyph-name="acircumflex" unicode="&#xe2;" horiz-adv-x="502" 
d="M180 -12q-64 0 -105.5 36.5t-41.5 100.5q0 88 75.5 130.5t184.5 42.5h17v28q0 36 -18 52t-61 16q-66 0 -124 -46l-58 81q76 70 197 70q101 0 148.5 -42.5t47.5 -137.5v-175q0 -82 14 -144h-131q-6 17 -8 52q-52 -64 -137 -64zM220 85q52 0 90 43v88h-17q-132 0 -132 -80
q0 -25 17 -38t42 -13zM72 542l127 159h102l125 -159h-113l-64 66l-64 -66h-113z" />
    <glyph glyph-name="atilde" unicode="&#xe3;" horiz-adv-x="502" 
d="M180 -12q-64 0 -105.5 36.5t-41.5 100.5q0 88 75.5 130.5t184.5 42.5h17v28q0 36 -18 52t-61 16q-66 0 -124 -46l-58 81q76 70 197 70q101 0 148.5 -42.5t47.5 -137.5v-175q0 -82 14 -144h-131q-6 17 -8 52q-52 -64 -137 -64zM220 85q52 0 90 43v88h-17q-132 0 -132 -80
q0 -25 17 -38t42 -13zM308 546q-32 0 -66 17.5t-52 17.5q-24 0 -54 -30l-61 53q17 30 46.5 52.5t66.5 22.5q33 0 66.5 -17.5t51.5 -17.5q31 0 56 31l61 -53q-45 -76 -115 -76z" />
    <glyph glyph-name="adieresis" unicode="&#xe4;" horiz-adv-x="502" 
d="M180 -12q-64 0 -105.5 36.5t-41.5 100.5q0 88 75.5 130.5t184.5 42.5h17v28q0 36 -18 52t-61 16q-66 0 -124 -46l-58 81q76 70 197 70q101 0 148.5 -42.5t47.5 -137.5v-175q0 -82 14 -144h-131q-6 17 -8 52q-52 -64 -137 -64zM220 85q52 0 90 43v88h-17q-132 0 -132 -80
q0 -25 17 -38t42 -13zM144 542q-32 0 -53 21t-21 51q0 29 21 50t53 21t53 -21t21 -50q0 -30 -21 -51t-53 -21zM354 542q-32 0 -53 21t-21 51q0 29 21 50t53 21t53 -21t21 -50q0 -30 -21 -51t-53 -21z" />
    <glyph glyph-name="aring" unicode="&#xe5;" horiz-adv-x="502" 
d="M180 -12q-64 0 -105.5 36.5t-41.5 100.5q0 88 75.5 130.5t184.5 42.5h17v28q0 36 -18 52t-61 16q-66 0 -124 -46l-58 81q76 70 197 70q101 0 148.5 -42.5t47.5 -137.5v-175q0 -82 14 -144h-131q-6 17 -8 52q-52 -64 -137 -64zM220 85q52 0 90 43v88h-17q-132 0 -132 -80
q0 -25 17 -38t42 -13zM249 539q-44 0 -77 31t-33 76q0 44 33 75t77 31t77 -31t33 -75q0 -45 -33 -76t-77 -31zM249 595q21 0 33.5 15t12.5 36t-12.5 35.5t-33.5 14.5t-33.5 -14.5t-12.5 -35.5t12.5 -36t33.5 -15z" />
    <glyph glyph-name="ae" unicode="&#xe6;" horiz-adv-x="795" 
d="M180 -12q-64 0 -105.5 36.5t-41.5 100.5q0 88 75.5 130.5t184.5 42.5h19v28q0 34 -18.5 51t-62.5 17q-60 0 -124 -46l-58 81q78 70 197 70q107 0 151 -57q63 57 150 57q103 0 157.5 -63.5t54.5 -178.5q0 -14 -2 -44h-309q6 -58 36.5 -92t88.5 -34q61 0 126 34l43 -86
q-84 -47 -181 -47q-128 0 -197 85q-77 -85 -184 -85zM220 85q66 0 105 57q-13 33 -16 74h-16q-132 0 -132 -80q0 -25 17 -38t42 -13zM446 303h183q-4 100 -84 100q-83 0 -99 -100z" />
    <glyph glyph-name="ccedilla" unicode="&#xe7;" horiz-adv-x="458" 
d="M211 -230q-49 0 -82 15l17 60q22 -11 51 -11q48 0 48 34q0 42 -71 38l33 91q-83 20 -130 86t-47 160q0 120 71.5 188t184.5 68q89 0 149 -39l-43 -91q-46 29 -102 29q-57 0 -88 -41t-31 -110q0 -71 31 -113.5t91 -42.5q55 0 105 30l41 -89q-67 -44 -157 -44h-2l-15 -43
q32 -7 51.5 -28.5t19.5 -53.5q0 -41 -35 -67t-90 -26z" />
    <glyph glyph-name="egrave" unicode="&#xe8;" horiz-adv-x="519" 
d="M285 -12q-120 0 -187.5 70t-67.5 188q0 113 69 183t172 70t157.5 -62.5t54.5 -177.5q0 -14 -2 -46h-308q5 -57 35.5 -91.5t88.5 -34.5q59 0 127 34l43 -86q-84 -47 -182 -47zM171 303h182q-2 100 -84 100t-98 -100zM225 541l-140 135h171l83 -135h-114z" />
    <glyph glyph-name="eacute" unicode="&#xe9;" horiz-adv-x="519" 
d="M204 541l83 135h172l-140 -135h-115zM285 -12q-120 0 -187.5 70t-67.5 188q0 113 69 183t172 70t157.5 -62.5t54.5 -177.5q0 -14 -2 -46h-308q5 -57 35.5 -91.5t88.5 -34.5q59 0 127 34l43 -86q-84 -47 -182 -47zM171 303h182q-2 100 -84 100t-98 -100z" />
    <glyph glyph-name="ecircumflex" unicode="&#xea;" horiz-adv-x="519" 
d="M93 542l127 159h102l125 -159h-113l-64 66l-64 -66h-113zM285 -12q-120 0 -187.5 70t-67.5 188q0 113 69 183t172 70t157.5 -62.5t54.5 -177.5q0 -14 -2 -46h-308q5 -57 35.5 -91.5t88.5 -34.5q59 0 127 34l43 -86q-84 -47 -182 -47zM171 303h182q-2 100 -84 100
t-98 -100z" />
    <glyph glyph-name="edieresis" unicode="&#xeb;" horiz-adv-x="519" 
d="M165 542q-32 0 -53 21t-21 51q0 29 21 50t53 21t53 -21t21 -50q0 -30 -21 -51t-53 -21zM375 542q-32 0 -53 21t-21 51q0 29 21 50t53 21t53 -21t21 -50q0 -30 -21 -51t-53 -21zM285 -12q-120 0 -187.5 70t-67.5 188q0 113 69 183t172 70t157.5 -62.5t54.5 -177.5
q0 -14 -2 -46h-308q5 -57 35.5 -91.5t88.5 -34.5q59 0 127 34l43 -86q-84 -47 -182 -47zM171 303h182q-2 100 -84 100t-98 -100z" />
    <glyph glyph-name="igrave" unicode="&#xec;" horiz-adv-x="280" 
d="M73 0v487h134v-487h-134zM94 541l-140 135h171l83 -135h-114z" />
    <glyph glyph-name="iacute" unicode="&#xed;" horiz-adv-x="280" 
d="M75 541l83 135h172l-140 -135h-115zM73 0v487h134v-487h-134z" />
    <glyph glyph-name="icircumflex" unicode="&#xee;" horiz-adv-x="280" 
d="M-36 542l127 159h102l125 -159h-113l-64 66l-64 -66h-113zM73 0v487h134v-487h-134z" />
    <glyph glyph-name="idieresis" unicode="&#xef;" horiz-adv-x="280" 
d="M36 542q-32 0 -53 21t-21 51q0 29 21 50t53 21t53 -21t21 -50q0 -30 -21 -51t-53 -21zM246 542q-32 0 -53 21t-21 51q0 29 21 50t53 21t53 -21t21 -50q0 -30 -21 -51t-53 -21zM73 0v487h134v-487h-134z" />
    <glyph glyph-name="eth" unicode="&#xf0;" horiz-adv-x="559" 
d="M275 -12q-106 0 -175 67t-69 184q0 115 64.5 182t159.5 67q68 0 107 -37q-24 82 -85 127l-67 -60l-52 54l43 39q-54 18 -125 18l27 103q108 0 193 -34l68 62l53 -55l-50 -45q159 -109 159 -360q0 -140 -64.5 -226t-186.5 -86zM277 89q109 0 109 210q0 5 -0.5 17t-0.5 16
q-37 56 -112 56q-49 0 -75 -39.5t-26 -107.5q0 -71 27.5 -111.5t77.5 -40.5z" />
    <glyph glyph-name="ntilde" unicode="&#xf1;" horiz-adv-x="557" 
d="M65 0v487h130v-61q62 73 155 73q76 0 111 -43t35 -115v-341h-133v314q0 38 -15 56t-50 18q-55 0 -100 -61v-327h-133zM334 546q-32 0 -66 17.5t-52 17.5q-24 0 -54 -30l-61 53q17 30 46.5 52.5t66.5 22.5q33 0 66.5 -17.5t51.5 -17.5q31 0 56 31l61 -53q-45 -76 -115 -76
z" />
    <glyph glyph-name="ograve" unicode="&#xf2;" horiz-adv-x="550" 
d="M274 -12q-119 0 -181.5 75t-62.5 179t62 180.5t181 76.5q81 0 138.5 -38t83 -93.5t25.5 -121.5q0 -103 -63.5 -180.5t-182.5 -77.5zM276 89q103 0 103 153q0 72 -26.5 115t-81.5 43q-100 0 -100 -154q0 -72 25.5 -114.5t79.5 -42.5zM229 541l-140 135h171l83 -135h-114z
" />
    <glyph glyph-name="oacute" unicode="&#xf3;" horiz-adv-x="550" 
d="M209 541l83 135h172l-140 -135h-115zM274 -12q-119 0 -181.5 75t-62.5 179t62 180.5t181 76.5q81 0 138.5 -38t83 -93.5t25.5 -121.5q0 -103 -63.5 -180.5t-182.5 -77.5zM276 89q103 0 103 153q0 72 -26.5 115t-81.5 43q-100 0 -100 -154q0 -72 25.5 -114.5t79.5 -42.5z
" />
    <glyph glyph-name="ocircumflex" unicode="&#xf4;" horiz-adv-x="550" 
d="M98 542l127 159h102l125 -159h-113l-64 66l-64 -66h-113zM274 -12q-119 0 -181.5 75t-62.5 179t62 180.5t181 76.5q81 0 138.5 -38t83 -93.5t25.5 -121.5q0 -103 -63.5 -180.5t-182.5 -77.5zM276 89q103 0 103 153q0 72 -26.5 115t-81.5 43q-100 0 -100 -154
q0 -72 25.5 -114.5t79.5 -42.5z" />
    <glyph glyph-name="otilde" unicode="&#xf5;" horiz-adv-x="550" 
d="M274 -12q-119 0 -181.5 75t-62.5 179t62 180.5t181 76.5q81 0 138.5 -38t83 -93.5t25.5 -121.5q0 -103 -63.5 -180.5t-182.5 -77.5zM276 89q103 0 103 153q0 72 -26.5 115t-81.5 43q-100 0 -100 -154q0 -72 25.5 -114.5t79.5 -42.5zM334 546q-32 0 -66 17.5t-52 17.5
q-24 0 -54 -30l-61 53q17 30 46.5 52.5t66.5 22.5q33 0 66.5 -17.5t51.5 -17.5q31 0 56 31l61 -53q-45 -76 -115 -76z" />
    <glyph glyph-name="odieresis" unicode="&#xf6;" horiz-adv-x="550" 
d="M170 542q-32 0 -53 21t-21 51q0 29 21 50t53 21t53 -21t21 -50q0 -30 -21 -51t-53 -21zM380 542q-32 0 -53 21t-21 51q0 29 21 50t53 21t53 -21t21 -50q0 -30 -21 -51t-53 -21zM274 -12q-119 0 -181.5 75t-62.5 179t62 180.5t181 76.5q81 0 138.5 -38t83 -93.5
t25.5 -121.5q0 -103 -63.5 -180.5t-182.5 -77.5zM276 89q103 0 103 153q0 72 -26.5 115t-81.5 43q-100 0 -100 -154q0 -72 25.5 -114.5t79.5 -42.5z" />
    <glyph glyph-name="divide" unicode="&#xf7;" horiz-adv-x="572" 
d="M283 -3q-30 0 -51.5 21t-21.5 51t21.5 51t51.5 21q31 0 52 -21t21 -51t-21 -51t-52 -21zM283 346q-30 0 -51.5 21t-21.5 51t21.5 51t51.5 21q31 0 52 -21t21 -51t-21 -51t-52 -21zM40 194v100h491v-100h-491z" />
    <glyph glyph-name="oslash" unicode="&#xf8;" horiz-adv-x="550" 
d="M109 -67l-73 48l56 83q-62 71 -62 178q0 104 62 180.5t181 76.5q56 0 103 -19l58 87l75 -49l-60 -87q71 -72 71 -185q0 -103 -63.5 -180.5t-182.5 -77.5q-62 0 -111 22zM276 86q55 0 81 42t26 114q0 44 -13 83l-151 -223q26 -16 57 -16zM166 246q0 -42 9 -73l145 217
q-21 12 -49 12q-105 0 -105 -156z" />
    <glyph glyph-name="ugrave" unicode="&#xf9;" horiz-adv-x="557" 
d="M207 -12q-76 0 -111 43t-35 115v341h133v-314q0 -38 15 -56t50 -18q49 0 100 61v327h133v-347q0 -77 13 -140h-131q-8 26 -10 65q-61 -77 -157 -77zM232 541l-140 135h171l83 -135h-114z" />
    <glyph glyph-name="uacute" unicode="&#xfa;" horiz-adv-x="557" 
d="M212 541l83 135h172l-140 -135h-115zM207 -12q-76 0 -111 43t-35 115v341h133v-314q0 -38 15 -56t50 -18q49 0 100 61v327h133v-347q0 -77 13 -140h-131q-8 26 -10 65q-61 -77 -157 -77z" />
    <glyph glyph-name="ucircumflex" unicode="&#xfb;" horiz-adv-x="557" 
d="M101 542l127 159h102l125 -159h-113l-64 66l-64 -66h-113zM207 -12q-76 0 -111 43t-35 115v341h133v-314q0 -38 15 -56t50 -18q49 0 100 61v327h133v-347q0 -77 13 -140h-131q-8 26 -10 65q-61 -77 -157 -77z" />
    <glyph glyph-name="udieresis" unicode="&#xfc;" horiz-adv-x="557" 
d="M173 542q-32 0 -53 21t-21 51q0 29 21 50t53 21t53 -21t21 -50q0 -30 -21 -51t-53 -21zM383 542q-32 0 -53 21t-21 51q0 29 21 50t53 21t53 -21t21 -50q0 -30 -21 -51t-53 -21zM207 -12q-76 0 -111 43t-35 115v341h133v-314q0 -38 15 -56t50 -18q49 0 100 61v327h133
v-347q0 -77 13 -140h-131q-8 26 -10 65q-61 -77 -157 -77z" />
    <glyph glyph-name="yacute" unicode="&#xfd;" horiz-adv-x="517" 
d="M78 -234q-45 0 -75 9l19 105q17 -5 47 -5q48 0 71.5 21t39.5 64l18 50l-183 477h142l110 -321h3l99 321h137l-201 -539q-35 -94 -84 -138t-143 -44zM197 541l83 135h172l-140 -135h-115z" />
    <glyph glyph-name="thorn" unicode="&#xfe;" horiz-adv-x="569" 
d="M65 -219v938h133v-280q51 60 132 60q93 0 145.5 -67t52.5 -188q0 -115 -61 -185.5t-157 -70.5q-73 0 -112 35v-242h-133zM282 91q51 0 78 40t27 113q0 70 -24.5 109.5t-72.5 39.5q-56 0 -92 -50v-219q37 -33 84 -33z" />
    <glyph glyph-name="ydieresis" unicode="&#xff;" horiz-adv-x="517" 
d="M78 -234q-45 0 -75 9l19 105q17 -5 47 -5q48 0 71.5 21t39.5 64l18 50l-183 477h142l110 -321h3l99 321h137l-201 -539q-35 -94 -84 -138t-143 -44zM158 542q-32 0 -53 21t-21 51q0 29 21 50t53 21t53 -21t21 -50q0 -30 -21 -51t-53 -21zM368 542q-32 0 -53 21t-21 51
q0 29 21 50t53 21t53 -21t21 -50q0 -30 -21 -51t-53 -21z" />
    <glyph glyph-name="Amacron" unicode="&#x100;" horiz-adv-x="680" 
d="M240 238h187l-57 159q-12 33 -23 72t-13 43h-2q-1 -4 -6.5 -23l-13 -43.5l-15.5 -48.5zM15 0l254 666h136l261 -666h-154l-45 125h-266l-44 -125h-142zM192 738v95h283v-95h-283z" />
    <glyph glyph-name="amacron" unicode="&#x101;" horiz-adv-x="502" 
d="M180 -12q-64 0 -105.5 36.5t-41.5 100.5q0 88 75.5 130.5t184.5 42.5h17v28q0 36 -18 52t-61 16q-66 0 -124 -46l-58 81q76 70 197 70q101 0 148.5 -42.5t47.5 -137.5v-175q0 -82 14 -144h-131q-6 17 -8 52q-52 -64 -137 -64zM220 85q52 0 90 43v88h-17q-132 0 -132 -80
q0 -25 17 -38t42 -13zM108 562v95h283v-95h-283z" />
    <glyph glyph-name="Abreve" unicode="&#x102;" horiz-adv-x="680" 
d="M240 238h187l-57 159q-12 33 -23 72t-13 43h-2q-1 -4 -6.5 -23l-13 -43.5l-15.5 -48.5zM15 0l254 666h136l261 -666h-154l-45 125h-266l-44 -125h-142zM333 706q-66 0 -114 38t-55 113h109q5 -65 60 -65q53 0 60 65h108q-6 -74 -54 -112.5t-114 -38.5z" />
    <glyph glyph-name="abreve" unicode="&#x103;" horiz-adv-x="502" 
d="M180 -12q-64 0 -105.5 36.5t-41.5 100.5q0 88 75.5 130.5t184.5 42.5h17v28q0 36 -18 52t-61 16q-66 0 -124 -46l-58 81q76 70 197 70q101 0 148.5 -42.5t47.5 -137.5v-175q0 -82 14 -144h-131q-6 17 -8 52q-52 -64 -137 -64zM220 85q52 0 90 43v88h-17q-132 0 -132 -80
q0 -25 17 -38t42 -13zM249 530q-66 0 -114 38t-55 113h109q5 -65 60 -65q53 0 60 65h108q-6 -74 -54 -112.5t-114 -38.5z" />
    <glyph glyph-name="Aogonek" unicode="&#x104;" horiz-adv-x="680" 
d="M561 -230q-55 0 -87.5 26.5t-32.5 72.5q0 69 71 131l-45 125h-266l-44 -125h-142l254 666h136l261 -666l-21 -1q-47 -3 -79 -37.5t-32 -75.5q0 -45 48 -45q19 0 41 9l17 -62q-34 -18 -79 -18zM240 238h187l-57 159q-12 33 -23 72t-13 43h-2q-1 -4 -6.5 -23l-13 -43.5
l-15.5 -48.5z" />
    <glyph glyph-name="aogonek" unicode="&#x105;" horiz-adv-x="502" 
d="M374 -230q-54 0 -86.5 26.5t-32.5 72.5q0 68 70 131q-6 17 -8 52q-52 -64 -137 -64q-64 0 -105.5 36.5t-41.5 100.5q0 88 75.5 130.5t184.5 42.5h17v28q0 36 -18 52t-61 16q-66 0 -124 -46l-58 81q76 70 197 70q101 0 148.5 -42.5t47.5 -137.5v-175q0 -81 14 -145l-5 -1
q-43 -4 -73.5 -38t-30.5 -74q0 -45 49 -45q20 0 40 9l17 -62q-34 -18 -79 -18zM220 85q52 0 90 43v88h-17q-132 0 -132 -80q0 -25 17 -38t42 -13z" />
    <glyph glyph-name="Cacute" unicode="&#x106;" horiz-adv-x="618" 
d="M310 717l83 135h172l-140 -135h-115zM385 -12q-162 0 -252 100.5t-90 245.5q0 144 91.5 244t252.5 100q119 0 200 -53l-63 -103q-60 39 -139 39q-90 0 -141 -63.5t-51 -159.5q0 -101 50.5 -166.5t143.5 -65.5q82 0 151 51l58 -99q-30 -27 -87 -48.5t-124 -21.5z" />
    <glyph glyph-name="cacute" unicode="&#x107;" horiz-adv-x="458" 
d="M209 541l83 135h172l-140 -135h-115zM282 -12q-116 0 -184 70.5t-68 184.5q0 120 71.5 188t184.5 68q89 0 149 -39l-43 -91q-46 29 -102 29q-57 0 -88 -41t-31 -110q0 -71 31 -113.5t91 -42.5q55 0 105 30l41 -89q-67 -44 -157 -44z" />
    <glyph glyph-name="Ccircumflex" unicode="&#x108;" horiz-adv-x="618" 
d="M199 718l127 159h102l125 -159h-113l-64 66l-64 -66h-113zM385 -12q-162 0 -252 100.5t-90 245.5q0 144 91.5 244t252.5 100q119 0 200 -53l-63 -103q-60 39 -139 39q-90 0 -141 -63.5t-51 -159.5q0 -101 50.5 -166.5t143.5 -65.5q82 0 151 51l58 -99q-30 -27 -87 -48.5
t-124 -21.5z" />
    <glyph glyph-name="ccircumflex" unicode="&#x109;" horiz-adv-x="458" 
d="M98 542l127 159h102l125 -159h-113l-64 66l-64 -66h-113zM282 -12q-116 0 -184 70.5t-68 184.5q0 120 71.5 188t184.5 68q89 0 149 -39l-43 -91q-46 29 -102 29q-57 0 -88 -41t-31 -110q0 -71 31 -113.5t91 -42.5q55 0 105 30l41 -89q-67 -44 -157 -44z" />
    <glyph glyph-name="Cdotaccent" unicode="&#x10a;" horiz-adv-x="618" 
d="M385 -12q-162 0 -252 100.5t-90 245.5q0 144 91.5 244t252.5 100q119 0 200 -53l-63 -103q-60 39 -139 39q-90 0 -141 -63.5t-51 -159.5q0 -101 50.5 -166.5t143.5 -65.5q82 0 151 51l58 -99q-30 -27 -87 -48.5t-124 -21.5zM376 732q-32 0 -53 21t-21 51t21 50.5t53 20.5
t53 -20.5t21 -50.5t-21 -51t-53 -21z" />
    <glyph glyph-name="cdotaccent" unicode="&#x10b;" horiz-adv-x="458" 
d="M282 -12q-116 0 -184 70.5t-68 184.5q0 120 71.5 188t184.5 68q89 0 149 -39l-43 -91q-46 29 -102 29q-57 0 -88 -41t-31 -110q0 -71 31 -113.5t91 -42.5q55 0 105 30l41 -89q-67 -44 -157 -44zM275 556q-32 0 -53 21t-21 51t21 50.5t53 20.5t53 -20.5t21 -50.5t-21 -51
t-53 -21z" />
    <glyph glyph-name="Ccaron" unicode="&#x10c;" horiz-adv-x="618" 
d="M324 717l-125 159h113l64 -66l64 66h113l-127 -159h-102zM385 -12q-162 0 -252 100.5t-90 245.5q0 144 91.5 244t252.5 100q119 0 200 -53l-63 -103q-60 39 -139 39q-90 0 -141 -63.5t-51 -159.5q0 -101 50.5 -166.5t143.5 -65.5q82 0 151 51l58 -99q-30 -27 -87 -48.5
t-124 -21.5z" />
    <glyph glyph-name="ccaron" unicode="&#x10d;" horiz-adv-x="458" 
d="M223 541l-125 159h113l64 -66l64 66h113l-127 -159h-102zM282 -12q-116 0 -184 70.5t-68 184.5q0 120 71.5 188t184.5 68q89 0 149 -39l-43 -91q-46 29 -102 29q-57 0 -88 -41t-31 -110q0 -71 31 -113.5t91 -42.5q55 0 105 30l41 -89q-67 -44 -157 -44z" />
    <glyph glyph-name="Dcaron" unicode="&#x10e;" horiz-adv-x="706" 
d="M281 717l-125 159h113l64 -66l64 66h113l-127 -159h-102zM83 0v666h201q190 0 285.5 -87t95.5 -237q0 -152 -98 -247t-288 -95h-196zM224 113h66q226 0 226 225q0 111 -56 163t-175 52h-61v-440z" />
    <glyph glyph-name="dcaron" unicode="&#x10f;" horiz-adv-x="612" 
d="M544 535l36 185h137l-81 -185h-92zM231 -13q-93 0 -146.5 67t-53.5 188q0 115 61.5 186t156.5 71q72 0 113 -34v255h133v-581q0 -75 14 -139h-131q-8 24 -10 53q-54 -66 -137 -66zM271 94q54 0 91 49v220q-35 32 -85 32q-51 0 -78 -40t-27 -113q0 -148 99 -148z" />
    <glyph glyph-name="Dcroat" unicode="&#x110;" horiz-adv-x="701" 
d="M83 0v289h-65v99h65v278h201q190 0 285.5 -87t95.5 -237q0 -152 -98 -247t-288 -95h-196zM224 113h66q226 0 226 225q0 111 -56 163t-175 52h-61v-165h105v-99h-105v-176z" />
    <glyph glyph-name="dcroat" unicode="&#x111;" horiz-adv-x="557" 
d="M227 563v99h135v58h133v-58h42v-99h-42v-424q0 -75 14 -139h-131q-8 24 -10 53q-54 -66 -137 -66q-93 0 -146.5 67t-53.5 188q0 115 61.5 186t156.5 71q72 0 113 -34v98h-135zM271 94q54 0 91 49v220q-35 32 -85 32q-51 0 -78 -40t-27 -113q0 -148 99 -148z" />
    <glyph glyph-name="Emacron" unicode="&#x112;" horiz-adv-x="530" 
d="M83 0v666h384v-116h-245v-150h216v-110h-216v-174h252v-116h-391zM133 738v95h283v-95h-283z" />
    <glyph glyph-name="emacron" unicode="&#x113;" horiz-adv-x="519" 
d="M285 -12q-120 0 -187.5 70t-67.5 188q0 113 69 183t172 70t157.5 -62.5t54.5 -177.5q0 -14 -2 -46h-308q5 -57 35.5 -91.5t88.5 -34.5q59 0 127 34l43 -86q-84 -47 -182 -47zM171 303h182q-2 100 -84 100t-98 -100zM129 562v95h283v-95h-283z" />
    <glyph glyph-name="Ebreve" unicode="&#x114;" horiz-adv-x="530" 
d="M83 0v666h384v-116h-245v-150h216v-110h-216v-174h252v-116h-391zM275 706q-66 0 -114 38t-55 113h109q5 -65 60 -65q53 0 60 65h108q-6 -74 -54 -112.5t-114 -38.5z" />
    <glyph glyph-name="ebreve" unicode="&#x115;" horiz-adv-x="519" 
d="M285 -12q-120 0 -187.5 70t-67.5 188q0 113 69 183t172 70t157.5 -62.5t54.5 -177.5q0 -14 -2 -46h-308q5 -57 35.5 -91.5t88.5 -34.5q59 0 127 34l43 -86q-84 -47 -182 -47zM171 303h182q-2 100 -84 100t-98 -100zM271 530q-66 0 -114 38t-55 113h109q5 -65 60 -65
q53 0 60 65h108q-6 -74 -54 -112.5t-114 -38.5z" />
    <glyph glyph-name="Edotaccent" unicode="&#x116;" horiz-adv-x="530" 
d="M83 0v666h384v-116h-245v-150h216v-110h-216v-174h252v-116h-391zM274 732q-32 0 -53 21t-21 51t21 50.5t53 20.5t53 -20.5t21 -50.5t-21 -51t-53 -21z" />
    <glyph glyph-name="edotaccent" unicode="&#x117;" horiz-adv-x="519" 
d="M285 -12q-120 0 -187.5 70t-67.5 188q0 113 69 183t172 70t157.5 -62.5t54.5 -177.5q0 -14 -2 -46h-308q5 -57 35.5 -91.5t88.5 -34.5q59 0 127 34l43 -86q-84 -47 -182 -47zM171 303h182q-2 100 -84 100t-98 -100zM270 556q-32 0 -53 21t-21 51t21 50.5t53 20.5
t53 -20.5t21 -50.5t-21 -51t-53 -21z" />
    <glyph glyph-name="Eogonek" unicode="&#x118;" horiz-adv-x="530" 
d="M388 -230q-54 0 -86.5 26.5t-32.5 72.5q0 41 25 79t59 52h-270v666h384v-116h-245v-150h216v-110h-216v-174h252v-116h-1q-48 0 -80 -34.5t-32 -79.5t49 -45q20 0 40 9l17 -62q-34 -18 -79 -18z" />
    <glyph glyph-name="eogonek" unicode="&#x119;" horiz-adv-x="519" 
d="M375 -230q-55 0 -87.5 26.5t-32.5 72.5q0 35 19.5 69t45.5 54q-13 -4 -35 -4q-120 0 -187.5 70t-67.5 188q0 113 69 183t172 70q113 0 167.5 -75t42.5 -211h-308q5 -57 35.5 -91.5t88.5 -34.5q59 0 127 34l43 -86l-23 -12q-96 -58 -96 -137q0 -45 48 -45q19 0 41 9
l16 -62q-34 -18 -78 -18zM171 303h182q-2 100 -84 100t-98 -100z" />
    <glyph glyph-name="Ecaron" unicode="&#x11a;" horiz-adv-x="530" 
d="M222 717l-125 159h113l64 -66l64 66h113l-127 -159h-102zM83 0v666h384v-116h-245v-150h216v-110h-216v-174h252v-116h-391z" />
    <glyph glyph-name="ecaron" unicode="&#x11b;" horiz-adv-x="519" 
d="M218 541l-125 159h113l64 -66l64 66h113l-127 -159h-102zM285 -12q-120 0 -187.5 70t-67.5 188q0 113 69 183t172 70t157.5 -62.5t54.5 -177.5q0 -14 -2 -46h-308q5 -57 35.5 -91.5t88.5 -34.5q59 0 127 34l43 -86q-84 -47 -182 -47zM171 303h182q-2 100 -84 100
t-98 -100z" />
    <glyph glyph-name="Gcircumflex" unicode="&#x11c;" horiz-adv-x="710" 
d="M208 718l127 159h102l125 -159h-113l-64 66l-64 -66h-113zM395 -12q-164 0 -258 101.5t-94 244.5t98.5 243.5t264.5 100.5q137 0 219 -60l-63 -105q-66 48 -159 48q-103 0 -156.5 -61.5t-53.5 -161.5q0 -103 50.5 -169t150.5 -66q78 0 118 26v132h-123v109h258v-318
q-94 -64 -252 -64z" />
    <glyph glyph-name="gcircumflex" unicode="&#x11d;" horiz-adv-x="537" 
d="M90 542l127 159h102l125 -159h-113l-64 66l-64 -66h-113zM243 -239q-103 0 -158.5 32.5t-55.5 97.5q0 75 82 119q-43 25 -43 74q0 58 54 92q-86 47 -86 146q0 80 58 128.5t158 48.5q50 0 87 -12h177v-87h-67q20 -35 20 -78q0 -80 -55 -128t-155 -48q-34 0 -58 4
q-18 -10 -18 -28q0 -19 21 -25.5t77 -9.5q106 -5 146 -20q83 -32 83 -130q0 -78 -74 -127t-193 -49zM251 -150q59 0 93 20t34 52t-22.5 41.5t-76.5 12.5q-12 1 -18 1q-56 5 -67 7q-38 -27 -38 -68q0 -66 95 -66zM253 232q41 0 64.5 24t23.5 66q0 43 -23.5 66.5t-64.5 23.5
t-64.5 -23.5t-23.5 -66.5q0 -42 23.5 -66t64.5 -24z" />
    <glyph glyph-name="Gbreve" unicode="&#x11e;" horiz-adv-x="710" 
d="M395 -12q-164 0 -258 101.5t-94 244.5t98.5 243.5t264.5 100.5q137 0 219 -60l-63 -105q-66 48 -159 48q-103 0 -156.5 -61.5t-53.5 -161.5q0 -103 50.5 -169t150.5 -66q78 0 118 26v132h-123v109h258v-318q-94 -64 -252 -64zM385 706q-66 0 -114 38t-55 113h109
q5 -65 60 -65q53 0 60 65h108q-6 -74 -54 -112.5t-114 -38.5z" />
    <glyph glyph-name="gbreve" unicode="&#x11f;" horiz-adv-x="537" 
d="M243 -239q-103 0 -158.5 32.5t-55.5 97.5q0 75 82 119q-43 25 -43 74q0 58 54 92q-86 47 -86 146q0 80 58 128.5t158 48.5q50 0 87 -12h177v-87h-67q20 -35 20 -78q0 -80 -55 -128t-155 -48q-34 0 -58 4q-18 -10 -18 -28q0 -19 21 -25.5t77 -9.5q106 -5 146 -20
q83 -32 83 -130q0 -78 -74 -127t-193 -49zM251 -150q59 0 93 20t34 52t-22.5 41.5t-76.5 12.5q-12 1 -18 1q-56 5 -67 7q-38 -27 -38 -68q0 -66 95 -66zM253 232q41 0 64.5 24t23.5 66q0 43 -23.5 66.5t-64.5 23.5t-64.5 -23.5t-23.5 -66.5q0 -42 23.5 -66t64.5 -24z
M267 534q-66 0 -114 38t-55 113h109q5 -65 60 -65q53 0 60 65h108q-6 -74 -54 -112.5t-114 -38.5z" />
    <glyph glyph-name="Gdotaccent" unicode="&#x120;" horiz-adv-x="710" 
d="M395 -12q-164 0 -258 101.5t-94 244.5t98.5 243.5t264.5 100.5q137 0 219 -60l-63 -105q-66 48 -159 48q-103 0 -156.5 -61.5t-53.5 -161.5q0 -103 50.5 -169t150.5 -66q78 0 118 26v132h-123v109h258v-318q-94 -64 -252 -64zM385 732q-32 0 -53 21t-21 51t21 50.5
t53 20.5t53 -20.5t21 -50.5t-21 -51t-53 -21z" />
    <glyph glyph-name="gdotaccent" unicode="&#x121;" horiz-adv-x="537" 
d="M243 -239q-103 0 -158.5 32.5t-55.5 97.5q0 75 82 119q-43 25 -43 74q0 58 54 92q-86 47 -86 146q0 80 58 128.5t158 48.5q50 0 87 -12h177v-87h-67q20 -35 20 -78q0 -80 -55 -128t-155 -48q-34 0 -58 4q-18 -10 -18 -28q0 -19 21 -25.5t77 -9.5q106 -5 146 -20
q83 -32 83 -130q0 -78 -74 -127t-193 -49zM251 -150q59 0 93 20t34 52t-22.5 41.5t-76.5 12.5q-12 1 -18 1q-56 5 -67 7q-38 -27 -38 -68q0 -66 95 -66zM253 232q41 0 64.5 24t23.5 66q0 43 -23.5 66.5t-64.5 23.5t-64.5 -23.5t-23.5 -66.5q0 -42 23.5 -66t64.5 -24z
M267 556q-32 0 -53 21t-21 51t21 50.5t53 20.5t53 -20.5t21 -50.5t-21 -51t-53 -21z" />
    <glyph glyph-name="Gcommaaccent" unicode="&#x122;" horiz-adv-x="710" 
d="M340 -227q28 26 28 52q0 17 -20 37.5t-20 42.5q0 23 18 38t45 15q30 0 51.5 -19t21.5 -50q0 -64 -58 -116h-66zM395 -12q-164 0 -258 101.5t-94 244.5t98.5 243.5t264.5 100.5q137 0 219 -60l-63 -105q-66 48 -159 48q-103 0 -156.5 -61.5t-53.5 -161.5q0 -103 50.5 -169
t150.5 -66q78 0 118 26v132h-123v109h258v-318q-94 -64 -252 -64z" />
    <glyph glyph-name="gcommaaccent" unicode="&#x123;" horiz-adv-x="537" 
d="M314 726q-28 -26 -28 -52q0 -17 20 -37.5t20 -42.5q0 -23 -18 -38t-45 -15q-30 0 -51.5 19t-21.5 50q0 64 58 116h66zM243 -239q-103 0 -158.5 32.5t-55.5 97.5q0 75 82 119q-43 25 -43 74q0 58 54 92q-86 47 -86 146q0 80 58 128.5t158 48.5q50 0 87 -12h177v-87h-67
q20 -35 20 -78q0 -80 -55 -128t-155 -48q-34 0 -58 4q-18 -10 -18 -28q0 -19 21 -25.5t77 -9.5q106 -5 146 -20q83 -32 83 -130q0 -78 -74 -127t-193 -49zM251 -150q59 0 93 20t34 52t-22.5 41.5t-76.5 12.5q-12 1 -18 1q-56 5 -67 7q-38 -27 -38 -68q0 -66 95 -66zM253 232
q41 0 64.5 24t23.5 66q0 43 -23.5 66.5t-64.5 23.5t-64.5 -23.5t-23.5 -66.5q0 -42 23.5 -66t64.5 -24z" />
    <glyph glyph-name="Hcircumflex" unicode="&#x124;" horiz-adv-x="745" 
d="M195 718l127 159h102l125 -159h-113l-64 66l-64 -66h-113zM83 0v666h141v-262h298v262h141v-666h-141v288h-298v-288h-141z" />
    <glyph glyph-name="hcircumflex" unicode="&#x125;" 
d="M101 774l127 159h102l125 -159h-113l-64 66l-64 -66h-113zM63 0v720h133v-292q66 71 152 71q76 0 111 -42.5t35 -115.5v-341h-133v314q0 38 -15 56t-49 18q-54 0 -101 -61v-327h-133z" />
    <glyph glyph-name="Hbar" unicode="&#x126;" horiz-adv-x="762" 
d="M735 562v-99h-64v-463h-140v268h-298v-268h-142v463h-64v99h64v104h142v-104h298v104h140v-104h64zM233 383h298v80h-298v-80z" />
    <glyph glyph-name="hbar" unicode="&#x127;" horiz-adv-x="562" 
d="M69 0v563h-43v99h43v58h133v-58h153v-99h-153v-144q63 71 152 71q76 0 111 -42.5t35 -115.5v-332h-133v305q0 38 -15 56t-50 18q-53 0 -100 -61v-318h-133z" />
    <glyph glyph-name="Itilde" unicode="&#x128;" horiz-adv-x="324" 
d="M89 0v666h141v-666h-141zM219 722q-32 0 -66 17.5t-52 17.5q-24 0 -54 -30l-61 53q17 30 46.5 52.5t66.5 22.5q33 0 66.5 -17.5t51.5 -17.5q31 0 56 31l61 -53q-45 -76 -115 -76z" />
    <glyph glyph-name="itilde" unicode="&#x129;" horiz-adv-x="280" 
d="M73 0v487h134v-487h-134zM200 546q-32 0 -66 17.5t-52 17.5q-24 0 -54 -30l-61 53q17 30 46.5 52.5t66.5 22.5q33 0 66.5 -17.5t51.5 -17.5q31 0 56 31l61 -53q-45 -76 -115 -76z" />
    <glyph glyph-name="Imacron" unicode="&#x12a;" horiz-adv-x="324" 
d="M89 0v666h141v-666h-141zM19 738v95h283v-95h-283z" />
    <glyph glyph-name="imacron" unicode="&#x12b;" horiz-adv-x="280" 
d="M73 0v487h134v-487h-134zM0 562v95h283v-95h-283z" />
    <glyph glyph-name="Ibreve" unicode="&#x12c;" horiz-adv-x="324" 
d="M89 0v666h141v-666h-141zM160 706q-66 0 -114 38t-55 113h109q5 -65 60 -65q54 0 60 65h108q-6 -74 -54 -112.5t-114 -38.5z" />
    <glyph glyph-name="ibreve" unicode="&#x12d;" horiz-adv-x="280" 
d="M73 0v487h134v-487h-134zM141 530q-66 0 -114 38t-55 113h109q5 -65 60 -65q53 0 60 65h108q-6 -74 -54 -112.5t-114 -38.5z" />
    <glyph glyph-name="Iogonek" unicode="&#x12e;" horiz-adv-x="324" 
d="M160 -230q-55 0 -87.5 26.5t-32.5 72.5q0 40 24.5 77t55.5 54h-31v666h141v-666l-3 -1q-38 -4 -66 -38.5t-28 -74.5q0 -45 48 -45q19 0 41 9l17 -62q-34 -18 -79 -18z" />
    <glyph glyph-name="iogonek" unicode="&#x12f;" horiz-adv-x="280" 
d="M139 -230q-55 0 -87.5 26.5t-32.5 72.5q0 40 24.5 77t55.5 54h-26v487h134v-487l-2 -1q-37 -4 -65 -38t-28 -75q0 -45 48 -45q19 0 41 9l16 -62q-34 -18 -78 -18zM140 550q-35 0 -58 23.5t-23 56.5q0 32 23 55t58 23t58.5 -23t23.5 -55q0 -33 -23.5 -56.5t-58.5 -23.5z
" />
    <glyph glyph-name="Idotaccent" unicode="&#x130;" horiz-adv-x="324" 
d="M89 0v666h141v-666h-141zM160 732q-32 0 -53 21t-21 51t21 50.5t53 20.5t53 -20.5t21 -50.5t-21 -51t-53 -21z" />
    <glyph glyph-name="dotlessi" unicode="&#x131;" horiz-adv-x="280" 
d="M73 0v487h134v-487h-134z" />
    <glyph glyph-name="Jcircumflex" unicode="&#x134;" horiz-adv-x="331" 
d="M1 718l127 159h102l125 -159h-113l-64 66l-64 -66h-113zM57 -204q-56 0 -98 16l22 115q20 -9 47 -9q42 0 60 23t18 76v649h142v-668q0 -98 -50.5 -150t-140.5 -52z" />
    <glyph glyph-name="jcircumflex" unicode="&#x135;" horiz-adv-x="275" 
d="M37 -233q-58 0 -87 12l23 103q18 -6 38 -6q34 0 47 23.5t13 80.5v507h134v-521q0 -199 -168 -199zM-38 542l127 159h102l125 -159h-113l-64 66l-64 -66h-113z" />
    <glyph glyph-name="Kcommaaccent" unicode="&#x136;" horiz-adv-x="630" 
d="M284 -227q28 26 28 52q0 17 -20 37.5t-20 42.5q0 23 18 38t45 15q30 0 51.5 -19t21.5 -50q0 -64 -58 -116h-66zM83 0v666h140v-290l227 290h156l-245 -309l256 -357h-167l-227 319v-319h-140z" />
    <glyph glyph-name="kcommaaccent" unicode="&#x137;" horiz-adv-x="517" 
d="M219 -227q28 26 28 52q0 17 -20 37.5t-20 42.5q0 23 18 38t45 15q30 0 51.5 -19t21.5 -50q0 -64 -58 -116h-66zM63 0v720h133v-430l161 197h145l-180 -217l184 -270h-154l-156 238v-238h-133z" />
    <glyph glyph-name="Lacute" unicode="&#x139;" horiz-adv-x="514" 
d="M91 717l83 135h172l-140 -135h-115zM85 0v666h142v-552h248v-114h-390z" />
    <glyph glyph-name="lacute" unicode="&#x13a;" horiz-adv-x="275" 
d="M72 773l83 135h172l-140 -135h-115zM71 0v720h133v-720h-133z" />
    <glyph glyph-name="Lcommaaccent" unicode="&#x13b;" horiz-adv-x="514" 
d="M223 -227q28 26 28 52q0 17 -20 37.5t-20 42.5q0 23 18 38t45 15q30 0 51.5 -19t21.5 -50q0 -64 -58 -116h-66zM85 0v666h142v-552h248v-114h-390z" />
    <glyph glyph-name="lcommaaccent" unicode="&#x13c;" horiz-adv-x="275" 
d="M81 -227q28 26 28 52q0 17 -20 37.5t-20 42.5q0 23 18 38t45 15q30 0 51.5 -19t21.5 -50q0 -64 -58 -116h-66zM71 0v720h133v-720h-133z" />
    <glyph glyph-name="Lcaron" unicode="&#x13d;" horiz-adv-x="514" 
d="M281 511l37 185h137l-81 -185h-93zM85 0v666h142v-552h248v-114h-390z" />
    <glyph glyph-name="lcaron" unicode="&#x13e;" horiz-adv-x="321" 
d="M253 535l37 185h136l-80 -185h-93zM71 0v720h133v-720h-133z" />
    <glyph glyph-name="Ldot" unicode="&#x13f;" horiz-adv-x="514" 
d="M85 0v666h142v-552h248v-114h-390zM364 344q-32 0 -53 21t-21 51t21 50.5t53 20.5t53 -20.5t21 -50.5t-21 -51t-53 -21z" />
    <glyph glyph-name="ldot" unicode="&#x140;" horiz-adv-x="386" 
d="M71 0v720h133v-720h-133zM330 207q-32 0 -53 21t-21 51t21 50.5t53 20.5t53 -20.5t21 -50.5t-21 -51t-53 -21z" />
    <glyph glyph-name="Lslash" unicode="&#x141;" horiz-adv-x="530" 
d="M93 0v234l-57 -42l-51 71l108 79v324h142v-224l97 72l51 -72l-148 -108v-220h248v-114h-390z" />
    <glyph glyph-name="lslash" unicode="&#x142;" horiz-adv-x="339" 
d="M92 0v247l-66 -45v101l66 45v372h133v-286l80 55v-102l-80 -55v-332h-133z" />
    <glyph glyph-name="Nacute" unicode="&#x143;" horiz-adv-x="742" 
d="M304 717l83 135h172l-140 -135h-115zM82 0v666h142l240 -345q40 -57 70 -112h2q-4 36 -4 105v352h128v-666h-129l-259 370q-17 24 -64 100h-2q4 -36 4 -89v-381h-128z" />
    <glyph glyph-name="nacute" unicode="&#x144;" horiz-adv-x="557" 
d="M209 541l83 135h172l-140 -135h-115zM65 0v487h130v-61q62 73 155 73q76 0 111 -43t35 -115v-341h-133v314q0 38 -15 56t-50 18q-55 0 -100 -61v-327h-133z" />
    <glyph glyph-name="Ncommaaccent" unicode="&#x145;" horiz-adv-x="742" 
d="M314 -227q28 26 28 52q0 17 -20 37.5t-20 42.5q0 23 18 38t45 15q30 0 51.5 -19t21.5 -50q0 -64 -58 -116h-66zM82 0v666h142l240 -345q40 -57 70 -112h2q-4 36 -4 105v352h128v-666h-129l-259 370q-17 24 -64 100h-2q4 -36 4 -89v-381h-128z" />
    <glyph glyph-name="ncommaaccent" unicode="&#x146;" horiz-adv-x="557" 
d="M223 -227q28 26 28 52q0 17 -20 37.5t-20 42.5q0 23 18 38t45 15q30 0 51.5 -19t21.5 -50q0 -64 -58 -116h-66zM65 0v487h130v-61q62 73 155 73q76 0 111 -43t35 -115v-341h-133v314q0 38 -15 56t-50 18q-55 0 -100 -61v-327h-133z" />
    <glyph glyph-name="Ncaron" unicode="&#x147;" horiz-adv-x="742" 
d="M318 717l-125 159h113l64 -66l64 66h113l-127 -159h-102zM82 0v666h142l240 -345q40 -57 70 -112h2q-4 36 -4 105v352h128v-666h-129l-259 370q-17 24 -64 100h-2q4 -36 4 -89v-381h-128z" />
    <glyph glyph-name="ncaron" unicode="&#x148;" horiz-adv-x="557" 
d="M223 541l-125 159h113l64 -66l64 66h113l-127 -159h-102zM65 0v487h130v-61q62 73 155 73q76 0 111 -43t35 -115v-341h-133v314q0 38 -15 56t-50 18q-55 0 -100 -61v-327h-133z" />
    <glyph glyph-name="Omacron" unicode="&#x14c;" horiz-adv-x="773" 
d="M245 738v95h283v-95h-283zM390 -12q-160 0 -253.5 100.5t-93.5 243.5q0 144 92 245t252 101t251.5 -100t91.5 -242q0 -145 -90.5 -246.5t-249.5 -101.5zM387 102q95 0 144.5 65t49.5 165t-48.5 166t-142.5 66q-96 0 -146.5 -64.5t-50.5 -163.5q0 -100 49.5 -167
t144.5 -67z" />
    <glyph glyph-name="omacron" unicode="&#x14d;" horiz-adv-x="550" 
d="M134 562v95h283v-95h-283zM274 -12q-119 0 -181.5 75t-62.5 179t62 180.5t181 76.5q81 0 138.5 -38t83 -93.5t25.5 -121.5q0 -103 -63.5 -180.5t-182.5 -77.5zM276 89q103 0 103 153q0 72 -26.5 115t-81.5 43q-100 0 -100 -154q0 -72 25.5 -114.5t79.5 -42.5z" />
    <glyph glyph-name="Obreve" unicode="&#x14e;" horiz-adv-x="773" 
d="M390 -12q-160 0 -253.5 100.5t-93.5 243.5q0 144 92 245t252 101t251.5 -100t91.5 -242q0 -145 -90.5 -246.5t-249.5 -101.5zM387 102q95 0 144.5 65t49.5 165t-48.5 166t-142.5 66q-96 0 -146.5 -64.5t-50.5 -163.5q0 -100 49.5 -167t144.5 -67zM387 706q-66 0 -114 38
t-55 113h109q5 -65 60 -65q53 0 60 65h108q-6 -74 -54 -112.5t-114 -38.5z" />
    <glyph glyph-name="obreve" unicode="&#x14f;" horiz-adv-x="550" 
d="M274 -12q-119 0 -181.5 75t-62.5 179t62 180.5t181 76.5q81 0 138.5 -38t83 -93.5t25.5 -121.5q0 -103 -63.5 -180.5t-182.5 -77.5zM276 89q103 0 103 153q0 72 -26.5 115t-81.5 43q-100 0 -100 -154q0 -72 25.5 -114.5t79.5 -42.5zM275 530q-66 0 -114 38t-55 113h109
q5 -65 60 -65q53 0 60 65h108q-6 -74 -54 -112.5t-114 -38.5z" />
    <glyph glyph-name="Ohungarumlaut" unicode="&#x150;" horiz-adv-x="773" 
d="M222 717l92 135h154l-140 -135h-106zM424 717l92 135h154l-140 -135h-106zM390 -12q-160 0 -253.5 100.5t-93.5 243.5q0 144 92 245t252 101t251.5 -100t91.5 -242q0 -145 -90.5 -246.5t-249.5 -101.5zM387 102q95 0 144.5 65t49.5 165t-48.5 166t-142.5 66
q-96 0 -146.5 -64.5t-50.5 -163.5q0 -100 49.5 -167t144.5 -67z" />
    <glyph glyph-name="ohungarumlaut" unicode="&#x151;" horiz-adv-x="550" 
d="M110 541l92 135h154l-140 -135h-106zM312 541l92 135h154l-140 -135h-106zM274 -12q-119 0 -181.5 75t-62.5 179t62 180.5t181 76.5q81 0 138.5 -38t83 -93.5t25.5 -121.5q0 -103 -63.5 -180.5t-182.5 -77.5zM276 89q103 0 103 153q0 72 -26.5 115t-81.5 43
q-100 0 -100 -154q0 -72 25.5 -114.5t79.5 -42.5z" />
    <glyph glyph-name="OE" unicode="&#x152;" horiz-adv-x="921" 
d="M383 -12q-160 0 -253 100.5t-93 243.5q0 93 38 170t118 126.5t187 49.5q48 0 101 -12h377v-116h-245v-150h215v-110h-215v-174h252v-116h-377q-51 -12 -105 -12zM380 102q56 0 95 17v427q-38 18 -92 18q-96 0 -146.5 -64.5t-50.5 -163.5q0 -100 49.5 -167t144.5 -67z" />
    <glyph glyph-name="oe" unicode="&#x153;" horiz-adv-x="867" 
d="M274 -12q-119 0 -181.5 75t-62.5 179t62 180.5t181 76.5q112 0 175 -76q65 76 169 76q103 0 157.5 -63.5t54.5 -178.5q0 -14 -2 -44h-309q5 -58 35.5 -92t88.5 -34q62 0 127 34l43 -86q-84 -47 -181 -47q-117 0 -184 77q-65 -77 -173 -77zM276 89q103 0 103 153
q0 72 -26.5 115t-81.5 43q-100 0 -100 -154q0 -72 25.5 -114.5t79.5 -42.5zM517 303h182q-4 100 -84 100q-82 0 -98 -100z" />
    <glyph glyph-name="Racute" unicode="&#x154;" horiz-adv-x="620" 
d="M237 717l83 135h172l-140 -135h-115zM83 0v666h222q118 0 182 -49.5t64 -142.5q0 -77 -44 -122t-111 -57v-2q32 -23 78 -95l130 -198h-155l-122 190q-38 56 -54 70t-40 14h-9v-274h-141zM224 374h77q110 0 110 92t-116 92h-71v-184z" />
    <glyph glyph-name="racute" unicode="&#x155;" horiz-adv-x="390" 
d="M149 541l83 135h172l-140 -135h-115zM65 0v487h133v-66q46 78 123 78q42 0 66 -13l-32 -116q-18 11 -51 11q-66 0 -106 -74v-307h-133z" />
    <glyph glyph-name="Rcommaaccent" unicode="&#x156;" horiz-adv-x="620" 
d="M278 -227q28 26 28 52q0 17 -20 37.5t-20 42.5q0 23 18 38t45 15q30 0 51.5 -19t21.5 -50q0 -64 -58 -116h-66zM83 0v666h222q118 0 182 -49.5t64 -142.5q0 -77 -44 -122t-111 -57v-2q32 -23 78 -95l130 -198h-155l-122 190q-38 56 -54 70t-40 14h-9v-274h-141zM224 374
h77q110 0 110 92t-116 92h-71v-184z" />
    <glyph glyph-name="rcommaaccent" unicode="&#x157;" horiz-adv-x="390" 
d="M78 -227q28 26 28 52q0 17 -20 37.5t-20 42.5q0 23 18 38t45 15q30 0 51.5 -19t21.5 -50q0 -64 -58 -116h-66zM65 0v487h133v-66q46 78 123 78q42 0 66 -13l-32 -116q-18 11 -51 11q-66 0 -106 -74v-307h-133z" />
    <glyph glyph-name="Rcaron" unicode="&#x158;" horiz-adv-x="620" 
d="M251 717l-125 159h113l64 -66l64 66h113l-127 -159h-102zM83 0v666h222q118 0 182 -49.5t64 -142.5q0 -77 -44 -122t-111 -57v-2q32 -23 78 -95l130 -198h-155l-122 190q-38 56 -54 70t-40 14h-9v-274h-141zM224 374h77q110 0 110 92t-116 92h-71v-184z" />
    <glyph glyph-name="rcaron" unicode="&#x159;" horiz-adv-x="390" 
d="M164 541l-125 159h113l64 -66l64 66h113l-127 -159h-102zM65 0v487h133v-66q46 78 123 78q42 0 66 -13l-32 -116q-18 11 -51 11q-66 0 -106 -74v-307h-133z" />
    <glyph glyph-name="Sacute" unicode="&#x15a;" horiz-adv-x="516" 
d="M191 717l83 135h172l-140 -135h-115zM237 -12q-126 0 -206 66l60 98q68 -50 143 -50q49 0 77.5 22t28.5 55q0 17 -7 30.5t-24 25t-31 18.5t-42.5 20t-44.5 21q-70 34 -106.5 79t-36.5 120q0 83 61.5 134t153.5 51q120 0 195 -56l-57 -99q-63 41 -130 41q-41 0 -65 -18
t-24 -51q0 -10 3 -18.5t6 -14.5t11.5 -13.5t14 -11.5t19 -11t20.5 -10t24 -11t25 -11q40 -18 65 -33t52.5 -39t40.5 -58t13 -78q0 -91 -64 -144.5t-175 -53.5z" />
    <glyph glyph-name="sacute" unicode="&#x15b;" horiz-adv-x="420" 
d="M143 541l83 135h172l-140 -135h-115zM199 -12q-104 0 -173 46l45 93q58 -40 120 -40q80 0 80 44q0 10 -5.5 17.5t-18.5 14t-25.5 12l-34.5 14.5t-39 17q-55 26 -82 58.5t-27 85.5q0 68 49.5 108.5t132.5 40.5q90 0 156 -39l-47 -91q-49 31 -104 31q-67 0 -67 -43
q0 -10 4 -17t16 -14t20 -10.5t29.5 -11t30.5 -11.5q66 -28 99.5 -60t33.5 -89q0 -76 -51 -116t-142 -40z" />
    <glyph glyph-name="Scircumflex" unicode="&#x15c;" horiz-adv-x="516" 
d="M80 718l127 159h102l125 -159h-113l-64 66l-64 -66h-113zM237 -12q-126 0 -206 66l60 98q68 -50 143 -50q49 0 77.5 22t28.5 55q0 17 -7 30.5t-24 25t-31 18.5t-42.5 20t-44.5 21q-70 34 -106.5 79t-36.5 120q0 83 61.5 134t153.5 51q120 0 195 -56l-57 -99
q-63 41 -130 41q-41 0 -65 -18t-24 -51q0 -10 3 -18.5t6 -14.5t11.5 -13.5t14 -11.5t19 -11t20.5 -10t24 -11t25 -11q40 -18 65 -33t52.5 -39t40.5 -58t13 -78q0 -91 -64 -144.5t-175 -53.5z" />
    <glyph glyph-name="scircumflex" unicode="&#x15d;" horiz-adv-x="420" 
d="M32 542l127 159h102l125 -159h-113l-64 66l-64 -66h-113zM199 -12q-104 0 -173 46l45 93q58 -40 120 -40q80 0 80 44q0 10 -5.5 17.5t-18.5 14t-25.5 12l-34.5 14.5t-39 17q-55 26 -82 58.5t-27 85.5q0 68 49.5 108.5t132.5 40.5q90 0 156 -39l-47 -91q-49 31 -104 31
q-67 0 -67 -43q0 -10 4 -17t16 -14t20 -10.5t29.5 -11t30.5 -11.5q66 -28 99.5 -60t33.5 -89q0 -76 -51 -116t-142 -40z" />
    <glyph glyph-name="Scedilla" unicode="&#x15e;" horiz-adv-x="516" 
d="M219 -230q-49 0 -82 15l17 60q22 -11 51 -11q48 0 48 34q0 42 -71 38l30 83q-111 6 -181 65l60 98q68 -50 143 -50q49 0 77.5 22t28.5 55q0 17 -7 30.5t-24 25t-31 18.5t-42.5 20t-44.5 21q-70 34 -106.5 79t-36.5 120q0 83 61.5 134t153.5 51q120 0 195 -56l-57 -99
q-63 41 -130 41q-41 0 -65 -18t-24 -51q0 -10 3 -18.5t6 -14.5t11.5 -13.5t14 -11.5t19 -11t20.5 -10t24 -11t25 -11q40 -18 65 -33t52.5 -39t40.5 -58t13 -78q0 -79 -49.5 -130.5t-136.5 -63.5l-17 -47q32 -7 51.5 -28.5t19.5 -53.5q0 -41 -35 -67t-90 -26z" />
    <glyph glyph-name="scedilla" unicode="&#x15f;" horiz-adv-x="420" 
d="M179 -230q-49 0 -82 15l17 60q22 -11 51 -11q48 0 48 34q0 42 -71 38l30 83q-86 5 -146 45l45 93q58 -40 120 -40q80 0 80 44q0 10 -5.5 17.5t-18.5 14t-25.5 12l-34.5 14.5t-39 17q-55 26 -82 58.5t-27 85.5q0 68 49.5 108.5t132.5 40.5q90 0 156 -39l-47 -91
q-49 31 -104 31q-67 0 -67 -43q0 -10 4 -17t16 -14t20 -10.5t29.5 -11t30.5 -11.5q66 -28 99.5 -60t33.5 -89q0 -64 -37 -103t-105 -49l-17 -47q32 -7 51.5 -28.5t19.5 -53.5q0 -41 -35 -67t-90 -26z" />
    <glyph glyph-name="Scaron" unicode="&#x160;" horiz-adv-x="516" 
d="M205 717l-125 159h113l64 -66l64 66h113l-127 -159h-102zM237 -12q-126 0 -206 66l60 98q68 -50 143 -50q49 0 77.5 22t28.5 55q0 17 -7 30.5t-24 25t-31 18.5t-42.5 20t-44.5 21q-70 34 -106.5 79t-36.5 120q0 83 61.5 134t153.5 51q120 0 195 -56l-57 -99
q-63 41 -130 41q-41 0 -65 -18t-24 -51q0 -10 3 -18.5t6 -14.5t11.5 -13.5t14 -11.5t19 -11t20.5 -10t24 -11t25 -11q40 -18 65 -33t52.5 -39t40.5 -58t13 -78q0 -91 -64 -144.5t-175 -53.5z" />
    <glyph glyph-name="scaron" unicode="&#x161;" horiz-adv-x="420" 
d="M157 541l-125 159h113l64 -66l64 66h113l-127 -159h-102zM199 -12q-104 0 -173 46l45 93q58 -40 120 -40q80 0 80 44q0 10 -5.5 17.5t-18.5 14t-25.5 12l-34.5 14.5t-39 17q-55 26 -82 58.5t-27 85.5q0 68 49.5 108.5t132.5 40.5q90 0 156 -39l-47 -91q-49 31 -104 31
q-67 0 -67 -43q0 -10 4 -17t16 -14t20 -10.5t29.5 -11t30.5 -11.5q66 -28 99.5 -60t33.5 -89q0 -76 -51 -116t-142 -40z" />
    <glyph glyph-name="Tcommaaccent" unicode="&#x162;" horiz-adv-x="537" 
d="M211 -227q28 26 28 52q0 17 -20 37.5t-20 42.5q0 23 18 38t45 15q30 0 51.5 -19t21.5 -50q0 -64 -58 -116h-66zM198 0v550h-184v116h509v-116h-183v-550h-142z" />
    <glyph glyph-name="tcommaaccent" unicode="&#x163;" horiz-adv-x="387" 
d="M177 -227q28 26 28 52q0 17 -20 37.5t-20 42.5q0 23 18 38t45 15q30 0 51.5 -19t21.5 -50q0 -64 -58 -116h-66zM251 -12q-83 0 -118.5 39t-35.5 113v248h-78v99h78v141h132v-141h114v-99h-114v-222q0 -37 11 -53t38 -16q34 0 64 18l31 -99q-51 -28 -122 -28z" />
    <glyph glyph-name="Tcaron" unicode="&#x164;" horiz-adv-x="537" 
d="M216 717l-125 159h113l64 -66l64 66h113l-127 -159h-102zM198 0v550h-184v116h509v-116h-183v-550h-142z" />
    <glyph glyph-name="tcaron" unicode="&#x165;" horiz-adv-x="394" 
d="M279 545l36 175h137l-81 -175h-92zM251 -12q-83 0 -118.5 39t-35.5 113v248h-78v99h78v141h132v-141h114v-99h-114v-222q0 -37 11 -53t38 -16q34 0 64 18l31 -99q-51 -28 -122 -28z" />
    <glyph glyph-name="Tbar" unicode="&#x166;" horiz-adv-x="537" 
d="M39 295v99h159v156h-184v116h509v-116h-183v-156h158v-99h-158v-295h-142v295h-159z" />
    <glyph glyph-name="tbar" unicode="&#x167;" horiz-adv-x="387" 
d="M39 215v95h58v83h-78v94h78v141h132v-141h114v-94h-114v-83h94v-95h-94v-49q0 -37 11 -53t38 -16q34 0 64 18l31 -99q-51 -28 -122 -28q-83 0 -118.5 39t-35.5 113v75h-58z" />
    <glyph glyph-name="Utilde" unicode="&#x168;" horiz-adv-x="715" 
d="M363 -12q-284 0 -284 270v408h141v-396q0 -87 34 -126.5t112 -39.5q140 0 140 157v405h130v-395q0 -138 -69 -210.5t-204 -72.5zM416 722q-32 0 -66 17.5t-52 17.5q-24 0 -54 -30l-61 53q17 30 46.5 52.5t66.5 22.5q33 0 66.5 -17.5t51.5 -17.5q31 0 56 31l61 -53
q-45 -76 -115 -76z" />
    <glyph glyph-name="utilde" unicode="&#x169;" horiz-adv-x="557" 
d="M207 -12q-76 0 -111 43t-35 115v341h133v-314q0 -38 15 -56t50 -18q49 0 100 61v327h133v-347q0 -77 13 -140h-131q-8 26 -10 65q-61 -77 -157 -77zM337 546q-32 0 -66 17.5t-52 17.5q-24 0 -54 -30l-61 53q17 30 46.5 52.5t66.5 22.5q33 0 66.5 -17.5t51.5 -17.5
q31 0 56 31l61 -53q-45 -76 -115 -76z" />
    <glyph glyph-name="Umacron" unicode="&#x16a;" horiz-adv-x="715" 
d="M363 -12q-284 0 -284 270v408h141v-396q0 -87 34 -126.5t112 -39.5q140 0 140 157v405h130v-395q0 -138 -69 -210.5t-204 -72.5zM216 738v95h283v-95h-283z" />
    <glyph glyph-name="umacron" unicode="&#x16b;" horiz-adv-x="557" 
d="M207 -12q-76 0 -111 43t-35 115v341h133v-314q0 -38 15 -56t50 -18q49 0 100 61v327h133v-347q0 -77 13 -140h-131q-8 26 -10 65q-61 -77 -157 -77zM137 562v95h283v-95h-283z" />
    <glyph glyph-name="Ubreve" unicode="&#x16c;" horiz-adv-x="715" 
d="M363 -12q-284 0 -284 270v408h141v-396q0 -87 34 -126.5t112 -39.5q140 0 140 157v405h130v-395q0 -138 -69 -210.5t-204 -72.5zM357 706q-66 0 -114 38t-55 113h109q5 -65 60 -65q53 0 60 65h108q-6 -74 -54 -112.5t-114 -38.5z" />
    <glyph glyph-name="ubreve" unicode="&#x16d;" horiz-adv-x="557" 
d="M207 -12q-76 0 -111 43t-35 115v341h133v-314q0 -38 15 -56t50 -18q49 0 100 61v327h133v-347q0 -77 13 -140h-131q-8 26 -10 65q-61 -77 -157 -77zM278 530q-66 0 -114 38t-55 113h109q5 -65 60 -65q54 0 60 65h108q-6 -74 -54 -112.5t-114 -38.5z" />
    <glyph glyph-name="Uring" unicode="&#x16e;" horiz-adv-x="715" 
d="M357 715q-44 0 -77 31t-33 76q0 44 33 75t77 31t77 -31t33 -75q0 -45 -33 -76t-77 -31zM357 771q21 0 33.5 15t12.5 36t-12.5 35.5t-33.5 14.5t-33.5 -14.5t-12.5 -35.5t12.5 -36t33.5 -15zM363 -12q-284 0 -284 270v408h141v-396q0 -87 34 -126.5t112 -39.5
q140 0 140 157v405h130v-395q0 -138 -69 -210.5t-204 -72.5z" />
    <glyph glyph-name="uring" unicode="&#x16f;" horiz-adv-x="557" 
d="M278 539q-44 0 -77 31t-33 76q0 44 33 75t77 31t77 -31t33 -75q0 -45 -33 -76t-77 -31zM278 595q21 0 33.5 15t12.5 36t-12.5 35.5t-33.5 14.5t-33.5 -14.5t-12.5 -35.5t12.5 -36t33.5 -15zM207 -12q-76 0 -111 43t-35 115v341h133v-314q0 -38 15 -56t50 -18q49 0 100 61
v327h133v-347q0 -77 13 -140h-131q-8 26 -10 65q-61 -77 -157 -77z" />
    <glyph glyph-name="Uhungarumlaut" unicode="&#x170;" horiz-adv-x="715" 
d="M363 -12q-284 0 -284 270v408h141v-396q0 -87 34 -126.5t112 -39.5q140 0 140 157v405h130v-395q0 -138 -69 -210.5t-204 -72.5zM192 717l92 135h154l-140 -135h-106zM394 717l92 135h154l-140 -135h-106z" />
    <glyph glyph-name="uhungarumlaut" unicode="&#x171;" horiz-adv-x="557" 
d="M207 -12q-76 0 -111 43t-35 115v341h133v-314q0 -38 15 -56t50 -18q49 0 100 61v327h133v-347q0 -77 13 -140h-131q-8 26 -10 65q-61 -77 -157 -77zM114 541l92 135h154l-140 -135h-106zM316 541l92 135h154l-140 -135h-106z" />
    <glyph glyph-name="Uogonek" unicode="&#x172;" horiz-adv-x="715" 
d="M488 -230q-55 0 -87.5 26.5t-32.5 72.5q0 38 22 73.5t50 56.5q-30 -11 -77 -11q-284 0 -284 270v408h141v-396q0 -87 34 -126.5t112 -39.5q140 0 140 157v405h130v-395q0 -85 -26 -140t-94 -131q-55 -66 -55 -114q0 -45 48 -45q19 0 41 9l17 -62q-34 -18 -79 -18z" />
    <glyph glyph-name="uogonek" unicode="&#x173;" horiz-adv-x="557" 
d="M423 -230q-55 0 -87.5 26.5t-32.5 72.5q0 69 71 131q-8 26 -10 65q-61 -77 -157 -77q-76 0 -111 43t-35 115v341h133v-314q0 -38 15 -56t50 -18q49 0 100 61v327h133v-347q0 -78 13 -141l-5 -1q-44 -5 -74 -38.5t-30 -73.5q0 -45 48 -45q19 0 41 9l16 -62
q-34 -18 -78 -18z" />
    <glyph glyph-name="Wcircumflex" unicode="&#x174;" horiz-adv-x="914" 
d="M280 718l127 159h102l125 -159h-113l-64 66l-64 -66h-113zM196 0l-179 666h150l84 -348q24 -98 24 -122h2q0 1 4.5 20.5t11 51t12.5 54.5l91 344h139l89 -342q6 -24 12.5 -55.5l10.5 -51t4 -20.5h2l3 19q3 19 9 49.5t12 54.5l86 346h135l-182 -666h-130l-96 369
q-27 104 -27 124h-2q0 -1 -4.5 -19.5l-11.5 -49.5t-14 -55l-105 -369h-130z" />
    <glyph glyph-name="wcircumflex" unicode="&#x175;" horiz-adv-x="743" 
d="M192 542l127 159h102l125 -159h-113l-64 66l-64 -66h-113zM149 0l-138 487h143l74 -310h2l83 310h123l83 -312h2l76 312h133l-139 -487h-120l-100 326h-2l-100 -326h-120z" />
    <glyph glyph-name="Ycircumflex" unicode="&#x176;" horiz-adv-x="598" 
d="M232 0v251l-221 415h157l141 -283h1l140 283h137l-214 -415v-251h-141zM125 718l127 159h102l125 -159h-113l-64 66l-64 -66h-113z" />
    <glyph glyph-name="ycircumflex" unicode="&#x177;" horiz-adv-x="517" 
d="M78 -234q-45 0 -75 9l19 105q17 -5 47 -5q48 0 71.5 21t39.5 64l18 50l-183 477h142l110 -321h3l99 321h137l-201 -539q-35 -94 -84 -138t-143 -44zM86 542l127 159h102l125 -159h-113l-64 66l-64 -66h-113z" />
    <glyph glyph-name="Ydieresis" unicode="&#x178;" horiz-adv-x="598" 
d="M232 0v251l-221 415h157l141 -283h1l140 283h137l-214 -415v-251h-141zM197 718q-32 0 -53 21t-21 51q0 29 21 50t53 21t53 -21t21 -50q0 -30 -21 -51t-53 -21zM407 718q-32 0 -53 21t-21 51q0 29 21 50t53 21t53 -21t21 -50q0 -30 -21 -51t-53 -21z" />
    <glyph glyph-name="Zacute" unicode="&#x179;" horiz-adv-x="571" 
d="M226 717l83 135h172l-140 -135h-115zM46 0v92l305 459h-292v115h463v-90l-308 -461h317v-115h-485z" />
    <glyph glyph-name="zacute" unicode="&#x17a;" horiz-adv-x="458" 
d="M164 541l83 135h172l-140 -135h-115zM39 0v72l212 315h-202v100h364v-77l-211 -310h213v-100h-376z" />
    <glyph glyph-name="Zdotaccent" unicode="&#x17b;" horiz-adv-x="571" 
d="M46 0v92l305 459h-292v115h463v-90l-308 -461h317v-115h-485zM292 732q-32 0 -53 21t-21 51t21 50.5t53 20.5t53 -20.5t21 -50.5t-21 -51t-53 -21z" />
    <glyph glyph-name="zdotaccent" unicode="&#x17c;" horiz-adv-x="458" 
d="M39 0v72l212 315h-202v100h364v-77l-211 -310h213v-100h-376zM231 556q-32 0 -53 21t-21 51t21 50.5t53 20.5t53 -20.5t21 -50.5t-21 -51t-53 -21z" />
    <glyph glyph-name="Zcaron" unicode="&#x17d;" horiz-adv-x="571" 
d="M240 717l-125 159h113l64 -66l64 66h113l-127 -159h-102zM46 0v92l305 459h-292v115h463v-90l-308 -461h317v-115h-485z" />
    <glyph glyph-name="zcaron" unicode="&#x17e;" horiz-adv-x="458" 
d="M179 541l-125 159h113l64 -66l64 66h113l-127 -159h-102zM39 0v72l212 315h-202v100h364v-77l-211 -310h213v-100h-376z" />
    <glyph glyph-name="florin" unicode="&#x192;" horiz-adv-x="474" 
d="M58 -188q-65 0 -107 21l34 96q25 -14 58 -14q80 0 91 98l35 321h-103l13 99h102l11 107q22 192 215 192q78 0 129 -32l-43 -90q-31 20 -81 20q-44 0 -65.5 -25t-26.5 -76l-11 -96h116l-16 -99h-111l-36 -325q-21 -197 -204 -197z" />
    <glyph glyph-name="Scommaaccent" unicode="&#x218;" horiz-adv-x="516" 
d="M196 -227q28 26 28 52q0 17 -20 37.5t-20 42.5q0 23 18 38t45 15q30 0 51.5 -19t21.5 -50q0 -64 -58 -116h-66zM237 -12q-126 0 -206 66l60 98q68 -50 143 -50q49 0 77.5 22t28.5 55q0 17 -7 30.5t-24 25t-31 18.5t-42.5 20t-44.5 21q-70 34 -106.5 79t-36.5 120
q0 83 61.5 134t153.5 51q120 0 195 -56l-57 -99q-63 41 -130 41q-41 0 -65 -18t-24 -51q0 -10 3 -18.5t6 -14.5t11.5 -13.5t14 -11.5t19 -11t20.5 -10t24 -11t25 -11q40 -18 65 -33t52.5 -39t40.5 -58t13 -78q0 -91 -64 -144.5t-175 -53.5z" />
    <glyph glyph-name="scommaaccent" unicode="&#x219;" horiz-adv-x="420" 
d="M153 -227q28 26 28 52q0 17 -20 37.5t-20 42.5q0 23 18 38t45 15q30 0 51.5 -19t21.5 -50q0 -64 -58 -116h-66zM199 -12q-104 0 -173 46l45 93q58 -40 120 -40q80 0 80 44q0 10 -5.5 17.5t-18.5 14t-25.5 12l-34.5 14.5t-39 17q-55 26 -82 58.5t-27 85.5q0 68 49.5 108.5
t132.5 40.5q90 0 156 -39l-47 -91q-49 31 -104 31q-67 0 -67 -43q0 -10 4 -17t16 -14t20 -10.5t29.5 -11t30.5 -11.5q66 -28 99.5 -60t33.5 -89q0 -76 -51 -116t-142 -40z" />
    <glyph glyph-name="uni021A" unicode="&#x21a;" horiz-adv-x="537" 
d="M211 -227q28 26 28 52q0 17 -20 37.5t-20 42.5q0 23 18 38t45 15q30 0 51.5 -19t21.5 -50q0 -64 -58 -116h-66zM198 0v550h-184v116h509v-116h-183v-550h-142z" />
    <glyph glyph-name="uni021B" unicode="&#x21b;" horiz-adv-x="387" 
d="M177 -227q28 26 28 52q0 17 -20 37.5t-20 42.5q0 23 18 38t45 15q30 0 51.5 -19t21.5 -50q0 -64 -58 -116h-66zM251 -12q-83 0 -118.5 39t-35.5 113v248h-78v99h78v141h132v-141h114v-99h-114v-222q0 -37 11 -53t38 -16q34 0 64 18l31 -99q-51 -28 -122 -28z" />
    <glyph glyph-name="dotlessj" unicode="&#x237;" horiz-adv-x="275" 
d="M37 -233q-58 0 -87 12l23 103q18 -6 38 -6q34 0 47 23.5t13 80.5v507h134v-521q0 -199 -168 -199z" />
    <glyph glyph-name="circumflex" unicode="&#x2c6;" horiz-adv-x="500" 
d="M73 542l127 159h102l125 -159h-113l-64 66l-64 -66h-113z" />
    <glyph glyph-name="caron" unicode="&#x2c7;" horiz-adv-x="500" 
d="M198 541l-125 159h113l64 -66l64 66h113l-127 -159h-102z" />
    <glyph glyph-name="breve" unicode="&#x2d8;" horiz-adv-x="500" 
d="M250 530q-66 0 -114 38t-55 113h109q5 -65 60 -65q54 0 60 65h108q-6 -74 -54 -112.5t-114 -38.5z" />
    <glyph glyph-name="dotaccent" unicode="&#x2d9;" horiz-adv-x="500" 
d="M250 556q-32 0 -53 21t-21 51t21 50.5t53 20.5t53 -20.5t21 -50.5t-21 -51t-53 -21z" />
    <glyph glyph-name="ring" unicode="&#x2da;" horiz-adv-x="500" 
d="M250 539q-44 0 -77 31t-33 76q0 44 33 75t77 31t77 -31t33 -75q0 -45 -33 -76t-77 -31zM250 595q21 0 33.5 15t12.5 36t-12.5 35.5t-33.5 14.5t-33.5 -14.5t-12.5 -35.5t12.5 -36t33.5 -15z" />
    <glyph glyph-name="ogonek" unicode="&#x2db;" horiz-adv-x="500" 
d="M256 -230q-55 0 -87.5 26.5t-32.5 72.5q0 69 71 131h76q-54 -67 -54 -114q0 -45 48 -45q19 0 41 9l16 -62q-34 -18 -78 -18z" />
    <glyph glyph-name="tilde" unicode="&#x2dc;" horiz-adv-x="500" 
d="M309 546q-32 0 -66 17.5t-52 17.5q-24 0 -54 -30l-61 53q17 30 46.5 52.5t66.5 22.5q33 0 66.5 -17.5t51.5 -17.5q31 0 56 31l61 -53q-45 -76 -115 -76z" />
    <glyph glyph-name="hungarumlaut" unicode="&#x2dd;" horiz-adv-x="500" 
d="M31 541l92 135h154l-140 -135h-106zM233 541l92 135h154l-140 -135h-106z" />
    <glyph glyph-name="tonos" unicode="&#x384;" horiz-adv-x="500" 
d="M158 541l25 135h150l-65 -135h-110z" />
    <glyph glyph-name="dieresistonos" unicode="&#x385;" horiz-adv-x="500" 
d="M67 542q-32 0 -53 21t-21 51q0 29 21 50t53 21t53 -21t21 -50q0 -30 -21 -51t-53 -21zM433 542q-32 0 -53 21t-21 51q0 29 21 50t53 21t53 -21t21 -50q0 -30 -21 -51t-53 -21zM175 541l24 157h145l-65 -157h-104z" />
    <glyph glyph-name="Alphatonos" unicode="&#x386;" horiz-adv-x="696" 
d="M50 531l25 135h150l-65 -135h-110zM256 238h187l-57 159q-12 33 -23 72t-13 43h-2q-1 -4 -6.5 -23l-13 -43.5l-15.5 -48.5zM31 0l254 666h136l261 -666h-154l-45 125h-266l-44 -125h-142z" />
    <glyph glyph-name="anoteleia" unicode="&#x387;" horiz-adv-x="258" 
d="M129 204q-37 0 -62.5 25t-25.5 61t25.5 61t62.5 25t62.5 -25t25.5 -61t-25.5 -61t-62.5 -25z" />
    <glyph glyph-name="Epsilontonos" unicode="&#x388;" horiz-adv-x="684" 
d="M23 531l25 135h150l-65 -135h-110zM236 0v666h384v-116h-245v-150h216v-110h-216v-174h252v-116h-391z" />
    <glyph glyph-name="Etatonos" unicode="&#x389;" horiz-adv-x="899" 
d="M23 531l25 135h150l-65 -135h-110zM236 0v666h141v-262h298v262h141v-666h-141v288h-298v-288h-141z" />
    <glyph glyph-name="Iotatonos" unicode="&#x38a;" horiz-adv-x="472" 
d="M23 531l25 135h150l-65 -135h-110zM236 0v666h141v-666h-141z" />
    <glyph glyph-name="Omicrontonos" unicode="&#x38c;" horiz-adv-x="868" 
d="M23 531l25 135h150l-65 -135h-110zM484 -12q-160 0 -253.5 100.5t-93.5 243.5q0 144 92 245t252 101t251.5 -100t91.5 -242q0 -145 -90.5 -246.5t-249.5 -101.5zM481 102q95 0 144.5 65t49.5 165t-48.5 166t-142.5 66q-96 0 -146.5 -64.5t-50.5 -163.5q0 -100 49.5 -167
t144.5 -67z" />
    <glyph glyph-name="Upsilontonos" unicode="&#x38e;" horiz-adv-x="819" 
d="M23 531l25 135h150l-65 -135h-110zM452 0v251l-221 415h157l141 -283h1l140 283h137l-214 -415v-251h-141z" />
    <glyph glyph-name="Omegatonos" unicode="&#x38f;" horiz-adv-x="863" 
d="M23 531l25 135h150l-65 -135h-110zM144 0v109h126q-49 35 -82 102.5t-33 150.5q0 139 95.5 227.5t231.5 88.5t232 -88.5t96 -227.5q0 -83 -33.5 -150.5t-82.5 -102.5h127v-109h-282v103q68 45 99.5 105.5t31.5 148.5q0 84 -53.5 145.5t-134.5 61.5t-134.5 -61.5
t-53.5 -145.5q0 -87 31.5 -148t100.5 -106v-103h-282z" />
    <glyph glyph-name="iotadieresistonos" unicode="&#x390;" horiz-adv-x="316" 
d="M-39 542q-32 0 -53 21t-21 51q0 29 21 50t53 21t53 -21t21 -50q0 -30 -21 -51t-53 -21zM327 542q-32 0 -53 21t-21 51q0 29 21 50t53 21t53 -21t21 -50q0 -30 -21 -51t-53 -21zM69 541l24 157h145l-65 -157h-104zM207 -12q-140 0 -140 142v357h133v-331q0 -32 7.5 -45.5
t26.5 -13.5q21 0 38 12l30 -98q-37 -23 -95 -23z" />
    <glyph glyph-name="Alpha" unicode="&#x391;" horiz-adv-x="680" 
d="M240 238h187l-57 159q-12 33 -23 72t-13 43h-2q-1 -4 -6.5 -23l-13 -43.5l-15.5 -48.5zM15 0l254 666h136l261 -666h-154l-45 125h-266l-44 -125h-142z" />
    <glyph glyph-name="Beta" unicode="&#x392;" horiz-adv-x="602" 
d="M83 0v666h222q103 0 166.5 -39t63.5 -127q0 -122 -118 -153v-2q63 -10 104.5 -51t41.5 -109q0 -185 -261 -185h-219zM222 108h74q62 0 93 21t31 68q0 94 -118 94h-80v-183zM222 392h65q57 0 83 21t26 65q0 80 -106 80h-68v-166z" />
    <glyph glyph-name="Gamma" unicode="&#x393;" horiz-adv-x="491" 
d="M83 0v666h393v-114h-252v-552h-141z" />
    <glyph glyph-name="Delta" unicode="&#x394;" horiz-adv-x="658" 
d="M26 0v72l233 594h134l240 -594v-72h-607zM180 116h287l-107 283l-16.5 47.5t-14 45.5t-6.5 22h-2q-1 -2 -6.5 -22t-14 -45.5l-16.5 -47.5z" />
    <glyph glyph-name="Epsilon" unicode="&#x395;" horiz-adv-x="530" 
d="M83 0v666h384v-116h-245v-150h216v-110h-216v-174h252v-116h-391z" />
    <glyph glyph-name="Zeta" unicode="&#x396;" horiz-adv-x="571" 
d="M46 0v92l305 459h-292v115h463v-90l-308 -461h317v-115h-485z" />
    <glyph glyph-name="Eta" unicode="&#x397;" horiz-adv-x="745" 
d="M83 0v666h141v-262h298v262h141v-666h-141v288h-298v-288h-141z" />
    <glyph glyph-name="Theta" unicode="&#x398;" horiz-adv-x="773" 
d="M390 -12q-160 0 -253.5 100.5t-93.5 243.5q0 144 92 245t252 101t251.5 -100t91.5 -242q0 -145 -90.5 -246.5t-249.5 -101.5zM387 102q95 0 144.5 65t49.5 165t-48.5 166t-142.5 66q-96 0 -146.5 -64.5t-50.5 -163.5q0 -100 49.5 -167t144.5 -67zM257 281v110h254v-110
h-254z" />
    <glyph glyph-name="Iota" unicode="&#x399;" horiz-adv-x="324" 
d="M89 0v666h141v-666h-141z" />
    <glyph glyph-name="Kappa" unicode="&#x39a;" horiz-adv-x="630" 
d="M83 0v666h140v-290l227 290h156l-245 -309l256 -357h-167l-227 319v-319h-140z" />
    <glyph glyph-name="Lambda" unicode="&#x39b;" horiz-adv-x="668" 
d="M15 0l248 666h134l257 -666h-153l-140 399q-8 22 -15.5 47l-12.5 43t-6 21h-2q-13 -53 -33 -111l-135 -399h-142z" />
    <glyph glyph-name="Mu" unicode="&#x39c;" horiz-adv-x="882" 
d="M41 0l92 666h137l134 -411q9 -28 21 -70t13 -45h2q17 60 35 115l138 411h136l92 -666h-144l-43 344q-10 78 -11 97h-2q-5 -27 -27 -95l-113 -346h-139l-113 345q-6 19 -11.5 39l-10 36.5t-5.5 20.5h-2q-3 -45 -9 -98l-43 -343h-127z" />
    <glyph glyph-name="Nu" unicode="&#x39d;" horiz-adv-x="742" 
d="M82 0v666h142l240 -345q40 -57 70 -112h2q-4 36 -4 105v352h128v-666h-129l-259 370q-17 24 -64 100h-2q4 -36 4 -89v-381h-128z" />
    <glyph glyph-name="Xi" unicode="&#x39e;" horiz-adv-x="612" 
d="M59 0v127h494v-127h-494zM95 282v127h422v-127h-422zM66 539v127h480v-127h-480z" />
    <glyph glyph-name="Omicron" unicode="&#x39f;" horiz-adv-x="773" 
d="M390 -12q-160 0 -253.5 100.5t-93.5 243.5q0 144 92 245t252 101t251.5 -100t91.5 -242q0 -145 -90.5 -246.5t-249.5 -101.5zM387 102q95 0 144.5 65t49.5 165t-48.5 166t-142.5 66q-96 0 -146.5 -64.5t-50.5 -163.5q0 -100 49.5 -167t144.5 -67z" />
    <glyph glyph-name="Pi" unicode="&#x3a0;" horiz-adv-x="724" 
d="M83 0v666h559v-666h-141v550h-277v-550h-141z" />
    <glyph glyph-name="Rho" unicode="&#x3a1;" horiz-adv-x="591" 
d="M81 0v666h219q114 0 184.5 -53.5t70.5 -156.5q0 -107 -72 -163t-199 -56h-61v-237h-142zM223 344h63q66 0 96.5 27t30.5 83q0 104 -124 104h-66v-214z" />
    <glyph glyph-name="Sigma" unicode="&#x3a3;" horiz-adv-x="535" 
d="M39 0v87l181 259l-164 232v88h424v-115h-261l147 -204l-162 -232h290v-115h-455z" />
    <glyph glyph-name="Tau" unicode="&#x3a4;" horiz-adv-x="537" 
d="M198 0v550h-184v116h509v-116h-183v-550h-142z" />
    <glyph glyph-name="Upsilon" unicode="&#x3a5;" horiz-adv-x="598" 
d="M232 0v251l-221 415h157l141 -283h1l140 283h137l-214 -415v-251h-141z" />
    <glyph glyph-name="Phi" unicode="&#x3a6;" horiz-adv-x="797" 
d="M328 0v70q-135 3 -217.5 79t-82.5 191q0 112 83 189.5t217 81.5v55h141v-55q136 -4 217.5 -79t81.5 -190q0 -116 -81 -192.5t-218 -79.5v-70h-141zM460 172q77 1 122.5 48t45.5 120q0 74 -46 121t-122 48v-337zM337 172v337q-75 -1 -121 -47.5t-46 -119.5t46.5 -121
t120.5 -49z" />
    <glyph glyph-name="Chi" unicode="&#x3a7;" horiz-adv-x="616" 
d="M19 0l211 342l-201 324h160l126 -208l118 208h142l-192 -322l214 -344h-160l-140 230l-135 -230h-143z" />
    <glyph glyph-name="Psi" unicode="&#x3a8;" horiz-adv-x="780" 
d="M325 0v176q-123 14 -196 86.5t-73 199.5v204h141v-200q0 -164 138 -173v373h121v-373q60 5 99 46.5t39 120.5v206h130v-202q0 -129 -69.5 -199.5t-187.5 -86.5v-178h-142z" />
    <glyph glyph-name="Omega" unicode="&#x3a9;" horiz-adv-x="764" 
d="M44 0v109h126q-49 35 -82 102.5t-33 150.5q0 139 95.5 227.5t231.5 88.5t232 -88.5t96 -227.5q0 -83 -33.5 -150.5t-82.5 -102.5h127v-109h-282v103q68 45 99.5 105.5t31.5 148.5q0 84 -53.5 145.5t-134.5 61.5t-134.5 -61.5t-53.5 -145.5q0 -87 31.5 -148t100.5 -106
v-103h-282z" />
    <glyph glyph-name="Iotadieresis" unicode="&#x3aa;" horiz-adv-x="324" 
d="M55 718q-32 0 -53 21t-21 51q0 29 21 50t53 21t53 -21t21 -50q0 -30 -21 -51t-53 -21zM265 718q-32 0 -53 21t-21 51q0 29 21 50t53 21t53 -21t21 -50q0 -30 -21 -51t-53 -21zM89 0v666h141v-666h-141z" />
    <glyph glyph-name="Upsilondieresis" unicode="&#x3ab;" horiz-adv-x="598" 
d="M197 718q-32 0 -53 21t-21 51q0 29 21 50t53 21t53 -21t21 -50q0 -30 -21 -51t-53 -21zM407 718q-32 0 -53 21t-21 51q0 29 21 50t53 21t53 -21t21 -50q0 -30 -21 -51t-53 -21zM232 0v251l-221 415h157l141 -283h1l140 283h137l-214 -415v-251h-141z" />
    <glyph glyph-name="alphatonos" unicode="&#x3ac;" horiz-adv-x="592" 
d="M223 541l25 135h150l-65 -135h-110zM252 -12q-109 0 -166 75t-57 179t57 180.5t165 76.5q57 0 96 -26t57 -63h1q8 50 25 77h136q-28 -43 -55 -144l-26 -96l30 -103q27 -92 63 -144h-138q-8 10 -18.5 35t-14.5 43h-1q-19 -37 -58.5 -63.5t-95.5 -26.5zM261 89
q79 0 104 147q-9 70 -36.5 117t-69.5 47q-90 0 -90 -154q0 -71 22.5 -114t69.5 -43z" />
    <glyph glyph-name="epsilontonos" unicode="&#x3ad;" horiz-adv-x="462" 
d="M190 541l25 135h150l-65 -135h-110zM255 -12q-103 0 -166.5 37.5t-63.5 108.5q0 45 30 78t75 39v1q-39 10 -62 39.5t-23 71.5q0 61 62.5 98.5t159.5 37.5q106 0 174 -43l-43 -98q-62 37 -134 37q-37 0 -58 -13.5t-21 -37.5q0 -50 93 -50h57l1 -92h-60q-108 0 -108 -54
t90 -54q78 0 144 39l47 -99q-83 -46 -194 -46z" />
    <glyph glyph-name="etatonos" unicode="&#x3ae;" horiz-adv-x="557" 
d="M220 541l25 135h150l-65 -135h-110zM363 -218v532q0 38 -15 56t-50 18q-55 0 -100 -61v-327h-133v348q0 81 -15 139h133q9 -28 11 -61q62 73 156 73q76 0 111 -43t35 -115v-559h-133z" />
    <glyph glyph-name="iotatonos" unicode="&#x3af;" horiz-adv-x="316" 
d="M79 541l25 135h150l-65 -135h-110zM207 -12q-140 0 -140 142v357h133v-331q0 -32 7.5 -45.5t26.5 -13.5q21 0 38 12l30 -98q-37 -23 -95 -23z" />
    <glyph glyph-name="upsilondieresistonos" unicode="&#x3b0;" horiz-adv-x="545" 
d="M98 542q-32 0 -53 21t-21 51q0 29 21 50t53 21t53 -21t21 -50q0 -30 -21 -51t-53 -21zM464 542q-32 0 -53 21t-21 51q0 29 21 50t53 21t53 -21t21 -50q0 -30 -21 -51t-53 -21zM206 541l24 157h145l-65 -157h-104zM273 -12q-103 0 -159 55t-56 159v285h133v-277
q0 -121 82 -121q92 0 92 211q0 103 -30 187h136q30 -82 30 -187q0 -158 -52.5 -235t-175.5 -77z" />
    <glyph glyph-name="alpha" unicode="&#x3b1;" horiz-adv-x="592" 
d="M252 -12q-109 0 -166 75t-57 179t57 180.5t165 76.5q57 0 96 -26t57 -63h1q8 50 25 77h136q-28 -43 -55 -144l-26 -96l30 -103q27 -92 63 -144h-138q-8 10 -18.5 35t-14.5 43h-1q-19 -37 -58.5 -63.5t-95.5 -26.5zM261 89q79 0 104 147q-9 70 -36.5 117t-69.5 47
q-90 0 -90 -154q0 -71 22.5 -114t69.5 -43z" />
    <glyph glyph-name="beta" unicode="&#x3b2;" horiz-adv-x="569" 
d="M65 -218v715q0 117 66.5 176t167.5 59q92 0 150 -45t58 -114q0 -61 -39.5 -110.5t-87.5 -61.5v-2q60 -6 108 -58t48 -123q0 -105 -61 -166t-175 -61q-66 0 -102 30v-239h-133zM275 93q57 0 87.5 33.5t30.5 88.5q0 56 -39.5 88t-107.5 32v91q51 1 87.5 39t36.5 87
q0 32 -19.5 54t-54.5 22q-98 0 -98 -133v-375q31 -26 77 -27z" />
    <glyph glyph-name="gamma" unicode="&#x3b3;" horiz-adv-x="508" 
d="M184 -218v232l-174 473h144l99 -322h3q78 160 100 322h135q-25 -192 -176 -474v-231h-131z" />
    <glyph glyph-name="delta" unicode="&#x3b4;" horiz-adv-x="559" 
d="M278 -12q-118 0 -184 69t-66 169q0 83 50.5 149.5t117.5 100.5q-52 62 -52 120q0 60 50 98t127 38q87 0 143 -38l-49 -87q-35 24 -79 24q-23 0 -37 -11.5t-14 -31.5q0 -19 16 -41.5t32 -37t62 -53.5q43 -37 67.5 -64t46.5 -74.5t22 -102.5q0 -95 -66.5 -161t-186.5 -66z
M278 393l-6 6q-43 -22 -73 -68.5t-30 -100.5q0 -66 30 -103.5t81 -37.5q50 0 79.5 32.5t29.5 88.5q0 38 -17 72t-35.5 53.5t-58.5 57.5z" />
    <glyph glyph-name="epsilon" unicode="&#x3b5;" horiz-adv-x="474" 
d="M261 -12q-103 0 -166.5 37.5t-63.5 108.5q0 45 30 78t75 39v1q-39 10 -62 39.5t-23 71.5q0 61 62.5 98.5t159.5 37.5q106 0 174 -43l-43 -98q-62 37 -134 37q-37 0 -58 -13.5t-21 -37.5q0 -50 93 -50h57l1 -92h-60q-108 0 -108 -54t90 -54q78 0 144 39l47 -99
q-83 -46 -194 -46z" />
    <glyph glyph-name="zeta" unicode="&#x3b6;" horiz-adv-x="397" 
d="M297 -185l-78 66q43 26 43 60q0 28 -40 48l-40 20q-149 76 -149 205q0 114 145 303l73 103h-201v100h373v-77l-155 -202q-97 -126 -97 -203q0 -47 23.5 -76t74.5 -55l40 -21q82 -41 82 -111q0 -47 -27.5 -91t-66.5 -69z" />
    <glyph glyph-name="eta" unicode="&#x3b7;" horiz-adv-x="557" 
d="M363 -218v532q0 38 -15 56t-50 18q-55 0 -100 -61v-327h-133v348q0 81 -15 139h133q9 -28 11 -61q62 73 156 73q76 0 111 -43t35 -115v-559h-133z" />
    <glyph glyph-name="theta" unicode="&#x3b8;" horiz-adv-x="555" 
d="M278 -12q-67 0 -115.5 32.5t-74.5 88t-37.5 117t-11.5 132.5q0 70 11.5 132t37 119t74 90t115.5 33t115.5 -32.5t74.5 -88t37.5 -117t11.5 -132.5q0 -70 -11.5 -132t-37 -119t-74 -90t-115.5 -33zM280 88q93 0 101 230h-207q4 -100 30 -165t76 -65zM275 632
q-90 0 -101 -215h206q-7 94 -33 154.5t-72 60.5z" />
    <glyph glyph-name="iota" unicode="&#x3b9;" horiz-adv-x="316" 
d="M207 -12q-140 0 -140 142v357h133v-331q0 -32 7.5 -45.5t26.5 -13.5q21 0 38 12l30 -98q-37 -23 -95 -23z" />
    <glyph glyph-name="kappa" unicode="&#x3ba;" horiz-adv-x="565" 
d="M73 0v487h130v-181q0 -64 -12 -122h1q24 72 81.5 155t123.5 148h154q-101 -88 -186 -192l187 -295h-149l-117 193q-72 -97 -92 -193h-121z" />
    <glyph glyph-name="lambda" unicode="&#x3bb;" horiz-adv-x="534" 
d="M15 0l195 493l-23 64q-12 31 -24 45t-29 14q-26 0 -45 -12l-25 98q42 23 91 23q57 0 93 -30t64 -107l209 -588h-137l-86 257q-19 61 -27 107h-1q-10 -57 -27 -107l-88 -257h-140z" />
    <glyph glyph-name="mu" unicode="&#x3bc;" horiz-adv-x="565" 
d="M62 -218v705h133v-317q0 -35 13 -53t46 -18q56 0 106 61v327h133v-349q0 -82 12 -138h-131q-8 24 -10 65q-60 -68 -127 -73q-27 -2 -46 6h-3q4 -26 4 -100v-116h-130z" />
    <glyph glyph-name="nu" unicode="&#x3bd;" horiz-adv-x="508" 
d="M189 0l-178 487h143l99 -322h3q78 160 100 322h135q-25 -193 -184 -487h-118z" />
    <glyph glyph-name="xi" unicode="&#x3be;" horiz-adv-x="417" 
d="M306 -185l-79 66q17 10 30.5 27t13.5 34q0 32 -40 49l-47 21q-37 16 -58.5 28.5t-46 34t-35.5 52t-11 71.5q0 68 37.5 118t96.5 60v2q-47 13 -74.5 49t-27.5 83q0 42 20 75t52 45v1q-28 -7 -64 -7h-66v96h401v-100h-93q-55 0 -84.5 -31.5t-29.5 -79.5q0 -42 29.5 -68.5
t80.5 -26.5h49v-99h-67q-60 0 -91 -28.5t-31 -73.5q0 -37 25.5 -60t81.5 -48l39 -16q82 -35 82 -114q0 -47 -27 -91t-66 -69z" />
    <glyph glyph-name="omicron" unicode="&#x3bf;" horiz-adv-x="550" 
d="M274 -12q-119 0 -181.5 75t-62.5 179t62 180.5t181 76.5q81 0 138.5 -38t83 -93.5t25.5 -121.5q0 -103 -63.5 -180.5t-182.5 -77.5zM276 89q103 0 103 153q0 72 -26.5 115t-81.5 43q-100 0 -100 -154q0 -72 25.5 -114.5t79.5 -42.5z" />
    <glyph glyph-name="pi" unicode="&#x3c0;" horiz-adv-x="650" 
d="M509 -12q-75 0 -107 37t-32 105v257h-123q0 -203 -27 -387h-134q31 193 31 387h-93v100h593v-100h-115v-231q0 -32 7.5 -45.5t26.5 -13.5q21 0 38 12l31 -98q-39 -23 -96 -23z" />
    <glyph glyph-name="rho" unicode="&#x3c1;" horiz-adv-x="551" 
d="M52 -218v475q0 113 57 177.5t173 64.5q109 0 173.5 -65.5t64.5 -185.5q0 -118 -62.5 -189t-167.5 -71q-64 0 -105 30v-236h-133zM265 91q52 0 83 41t31 116q0 71 -25 111.5t-73 40.5q-96 0 -96 -146v-134q33 -29 80 -29z" />
    <glyph glyph-name="sigma1" unicode="&#x3c2;" horiz-adv-x="454" 
d="M310 -185l-79 66q18 10 31 26.5t13 33.5q0 26 -40 48l-51 26q-50 25 -80 49t-52 70t-22 111q0 120 71 187t185 67q89 0 149 -39l-43 -91q-46 29 -102 29q-57 0 -88 -40t-31 -109q0 -85 87 -129l64 -34q81 -43 81 -111q0 -47 -27 -91t-66 -69z" />
    <glyph glyph-name="sigma" unicode="&#x3c3;" horiz-adv-x="572" 
d="M274 -12q-81 0 -138 38t-81.5 92.5t-24.5 117.5q0 46 15 89.5t44.5 80.5t80 59t114.5 22h271v-99h-100v-1q29 -21 47 -60.5t18 -86.5q0 -46 -15 -89t-43.5 -80.5t-77.5 -60t-110 -22.5zM276 89q103 0 103 147q0 69 -27 110.5t-81 41.5q-100 0 -100 -148q0 -68 26 -109.5
t79 -41.5z" />
    <glyph glyph-name="tau" unicode="&#x3c4;" horiz-adv-x="440" 
d="M270 -12q-76 0 -108 37t-32 105v257h-120v100h414v-100h-162v-231q0 -32 7.5 -45.5t26.5 -13.5q23 0 38 12l31 -98q-39 -23 -95 -23z" />
    <glyph glyph-name="upsilon" unicode="&#x3c5;" horiz-adv-x="545" 
d="M273 -12q-103 0 -159 55t-56 159v285h133v-277q0 -121 82 -121q92 0 92 211q0 103 -30 187h136q30 -82 30 -187q0 -158 -52.5 -235t-175.5 -77z" />
    <glyph glyph-name="phi" unicode="&#x3c6;" horiz-adv-x="713" 
d="M295 -219v207q-124 2 -194.5 76.5t-70.5 177.5t70.5 178.5t194.5 78.5v221h120v-221q124 -3 196 -78t72 -176q0 -102 -72 -178.5t-196 -79.5v-206h-120zM415 85q60 2 95 43t35 113q0 71 -35 114.5t-95 44.5v-315zM295 87v315q-60 -2 -93 -43t-33 -113q0 -73 33 -115.5
t93 -43.5z" />
    <glyph glyph-name="chi" unicode="&#x3c7;" horiz-adv-x="491" 
d="M-6 -218l183 363l-170 342h141l104 -218h1l99 218h132l-170 -337l183 -368h-140l-119 245h-1l-110 -245h-133z" />
    <glyph glyph-name="psi" unicode="&#x3c8;" horiz-adv-x="723" 
d="M299 -219v207q-106 6 -173.5 62t-67.5 160v277h133v-266q0 -64 31 -97t82 -35v551h117v-551q52 2 87.5 57.5t35.5 153.5q0 103 -30 187h135q31 -80 31 -187q0 -151 -65.5 -228.5t-189.5 -82.5v-208h-126z" />
    <glyph glyph-name="omega" unicode="&#x3c9;" horiz-adv-x="777" 
d="M231 -12q-93 0 -142 60t-49 168q0 165 73 271h141q-78 -118 -78 -260q0 -133 67 -133q77 0 86 242h120q9 -242 86 -242q66 0 66 133q0 142 -78 260h142q73 -106 73 -271q0 -108 -49 -168t-142 -60q-116 0 -158 113h-1q-41 -113 -157 -113z" />
    <glyph glyph-name="iotadieresis" unicode="&#x3ca;" horiz-adv-x="316" 
d="M29 542q-32 0 -53 21t-21 51q0 29 21 50t53 21t53 -21t21 -50q0 -30 -21 -51t-53 -21zM239 542q-32 0 -53 21t-21 51q0 29 21 50t53 21t53 -21t21 -50q0 -30 -21 -51t-53 -21zM207 -12q-140 0 -140 142v357h133v-331q0 -32 7.5 -45.5t26.5 -13.5q21 0 38 12l30 -98
q-37 -23 -95 -23z" />
    <glyph glyph-name="upsilondieresis" unicode="&#x3cb;" horiz-adv-x="545" 
d="M167 542q-32 0 -53 21t-21 51q0 29 21 50t53 21t53 -21t21 -50q0 -30 -21 -51t-53 -21zM377 542q-32 0 -53 21t-21 51q0 29 21 50t53 21t53 -21t21 -50q0 -30 -21 -51t-53 -21zM273 -12q-103 0 -159 55t-56 159v285h133v-277q0 -121 82 -121q92 0 92 211q0 103 -30 187
h136q30 -82 30 -187q0 -158 -52.5 -235t-175.5 -77z" />
    <glyph glyph-name="omicrontonos" unicode="&#x3cc;" horiz-adv-x="550" 
d="M220 541l25 135h150l-65 -135h-110zM274 -12q-119 0 -181.5 75t-62.5 179t62 180.5t181 76.5q81 0 138.5 -38t83 -93.5t25.5 -121.5q0 -103 -63.5 -180.5t-182.5 -77.5zM276 89q103 0 103 153q0 72 -26.5 115t-81.5 43q-100 0 -100 -154q0 -72 25.5 -114.5t79.5 -42.5z
" />
    <glyph glyph-name="upsilontonos" unicode="&#x3cd;" horiz-adv-x="545" 
d="M217 541l25 135h150l-65 -135h-110zM273 -12q-103 0 -159 55t-56 159v285h133v-277q0 -121 82 -121q92 0 92 211q0 103 -30 187h136q30 -82 30 -187q0 -158 -52.5 -235t-175.5 -77z" />
    <glyph glyph-name="omegatonos" unicode="&#x3ce;" horiz-adv-x="772" 
d="M330 541l25 135h150l-65 -135h-110zM229 -12q-93 0 -142 60t-49 168q0 165 73 271h141q-78 -118 -78 -260q0 -133 67 -133q77 0 86 242h120q9 -242 86 -242q66 0 66 133q0 142 -78 260h142q73 -106 73 -271q0 -108 -49 -168t-142 -60q-116 0 -158 113h-1
q-41 -113 -157 -113z" />
    <glyph glyph-name="afii10023" unicode="&#x401;" horiz-adv-x="530" 
d="M169 718q-32 0 -53 21t-21 51q0 29 21 50t53 21t53 -21t21 -50q0 -30 -21 -51t-53 -21zM379 718q-32 0 -53 21t-21 51q0 29 21 50t53 21t53 -21t21 -50q0 -30 -21 -51t-53 -21zM83 0v666h384v-116h-245v-150h216v-110h-216v-174h252v-116h-391z" />
    <glyph glyph-name="afii10051" unicode="&#x402;" horiz-adv-x="725" 
d="M170 0v550h-156v116h509v-116h-213v-193q25 33 75.5 60t111.5 27q94 0 142 -74.5t48 -192.5q0 -166 -79.5 -273.5t-191.5 -107.5q-49 0 -77 15l28 112q16 -7 44 -7q56 0 94.5 71t38.5 178q0 167 -99 167q-40 0 -77 -22.5t-58 -47.5v-262h-140z" />
    <glyph glyph-name="afii10052" unicode="&#x403;" horiz-adv-x="491" 
d="M190 717l83 135h172l-140 -135h-115zM83 0v666h393v-114h-252v-552h-141z" />
    <glyph glyph-name="afii10053" unicode="&#x404;" horiz-adv-x="618" 
d="M385 -12q-109 0 -188.5 49t-116.5 126t-37 171t38 170.5t118 125t188 48.5q119 0 200 -53l-63 -103q-60 39 -139 39t-128.5 -49t-58.5 -124h272v-110h-271q11 -76 60 -124t128 -48q82 0 151 51l58 -99q-30 -27 -87 -48.5t-124 -21.5z" />
    <glyph glyph-name="afii10054" unicode="&#x405;" horiz-adv-x="516" 
d="M237 -12q-126 0 -206 66l60 98q68 -50 143 -50q49 0 77.5 22t28.5 55q0 17 -7 30.5t-24 25t-31 18.5t-42.5 20t-44.5 21q-70 34 -106.5 79t-36.5 120q0 83 61.5 134t153.5 51q120 0 195 -56l-57 -99q-63 41 -130 41q-41 0 -65 -18t-24 -51q0 -10 3 -18.5t6 -14.5
t11.5 -13.5t14 -11.5t19 -11t20.5 -10t24 -11t25 -11q40 -18 65 -33t52.5 -39t40.5 -58t13 -78q0 -91 -64 -144.5t-175 -53.5z" />
    <glyph glyph-name="afii10055" unicode="&#x406;" horiz-adv-x="318" 
d="M83 0v666h141v-666h-141z" />
    <glyph glyph-name="afii10056" unicode="&#x407;" horiz-adv-x="324" 
d="M89 0v666h141v-666h-141zM55 718q-32 0 -53 21t-21 51q0 29 21 50t53 21t53 -21t21 -50q0 -30 -21 -51t-53 -21zM265 718q-32 0 -53 21t-21 51q0 29 21 50t53 21t53 -21t21 -50q0 -30 -21 -51t-53 -21z" />
    <glyph glyph-name="afii10057" unicode="&#x408;" horiz-adv-x="331" 
d="M57 -204q-56 0 -98 16l22 115q20 -9 47 -9q42 0 60 23t18 76v649h142v-668q0 -98 -50.5 -150t-140.5 -52z" />
    <glyph glyph-name="afii10058" unicode="&#x409;" horiz-adv-x="985" 
d="M37 -10l-15 109q53 6 77 62t34 173l27 332h452v-237h87q113 0 183.5 -53.5t70.5 -155.5q0 -107 -72 -163.5t-198 -56.5h-212v550h-187l-18 -252q-12 -163 -67 -235.5t-162 -72.5zM612 107h72q128 0 128 110q0 104 -124 104h-76v-214z" />
    <glyph glyph-name="afii10059" unicode="&#x40a;" horiz-adv-x="1002" 
d="M83 0v666h141v-252h264v252h141v-252h87q114 0 184.5 -51.5t70.5 -150.5q0 -104 -72 -158t-198 -54h-213v298h-264v-298h-141zM629 107h73q127 0 127 102q0 97 -124 97h-76v-199z" />
    <glyph glyph-name="afii10060" unicode="&#x40b;" horiz-adv-x="739" 
d="M170 0v550h-156v116h509v-116h-213v-193q25 33 76.5 60t112.5 27q87 0 137 -51.5t50 -137.5v-255h-140v227q0 52 -27 78.5t-71 26.5q-41 0 -79 -22.5t-59 -47.5v-262h-140z" />
    <glyph glyph-name="afii10061" unicode="&#x40c;" horiz-adv-x="638" 
d="M258 717l83 135h172l-140 -135h-115zM83 0v666h140v-275h47l195 275h151l-231 -309q28 -26 77 -103q57 -95 75 -114q24 -25 54 -25h10l-1 -115h-58q-57 0 -92.5 29.5t-85.5 112.5q-9 14 -21 35t-18.5 31.5l-15.5 24.5t-15 21t-14 14t-15.5 9.5t-16.5 2.5h-25v-280h-140z
" />
    <glyph glyph-name="afii10062" unicode="&#x40e;" horiz-adv-x="592" 
d="M135 -3q-42 0 -67 9l19 105q13 -5 39 -5q36 0 59 21.5t43 64.5l10 25l-202 449h136l135 -309l135 309h136l-225 -500q-41 -92 -89 -130.5t-129 -38.5zM308 706q-66 0 -114 38t-55 113h109q5 -65 60 -65q54 0 60 65h108q-6 -74 -54 -112.5t-114 -38.5z" />
    <glyph glyph-name="afii10145" unicode="&#x40f;" horiz-adv-x="716" 
d="M314 -146l-8 146h-223v666h140v-550h269v550h142v-666h-224l-7 -146h-89z" />
    <glyph glyph-name="afii10017" unicode="&#x410;" horiz-adv-x="680" 
d="M240 238h187l-57 159q-12 33 -23 72t-13 43h-2q-1 -4 -6.5 -23l-13 -43.5l-15.5 -48.5zM15 0l254 666h136l261 -666h-154l-45 125h-266l-44 -125h-142z" />
    <glyph glyph-name="afii10018" unicode="&#x411;" horiz-adv-x="608" 
d="M83 0v666h417v-116h-276v-136h87q114 0 184 -51.5t70 -150.5q0 -104 -72 -158t-198 -54h-212zM224 107h72q128 0 128 102q0 97 -124 97h-76v-199z" />
    <glyph glyph-name="afii10019" unicode="&#x412;" horiz-adv-x="602" 
d="M83 0v666h222q103 0 166.5 -39t63.5 -127q0 -122 -118 -153v-2q63 -10 104.5 -51t41.5 -109q0 -185 -261 -185h-219zM222 108h74q62 0 93 21t31 68q0 94 -118 94h-80v-183zM222 392h65q57 0 83 21t26 65q0 80 -106 80h-68v-166z" />
    <glyph glyph-name="afii10020" unicode="&#x413;" horiz-adv-x="491" 
d="M83 0v666h393v-114h-252v-552h-141z" />
    <glyph glyph-name="afii10021" unicode="&#x414;" horiz-adv-x="729" 
d="M43 -146l-21 262h55q26 29 40.5 77.5t26.5 140.5l49 332h425v-550h68l-19 -262h-89l-11 146h-424l-11 -146h-89zM214 116h263v434h-165l-34 -241q-19 -143 -64 -193z" />
    <glyph glyph-name="afii10022" unicode="&#x415;" horiz-adv-x="530" 
d="M83 0v666h384v-116h-245v-150h216v-110h-216v-174h252v-116h-391z" />
    <glyph glyph-name="afii10024" unicode="&#x416;" horiz-adv-x="970" 
d="M37 0l1 115h9q37 0 69 43q13 17 60 96q47 76 76 103l-231 309h152l195 -275h46v275h141v-275h47l195 275h151l-231 -309q28 -26 77 -103q57 -96 76 -116q24 -23 53 -23h10l-1 -115h-58q-57 0 -92.5 29.5t-85.5 112.5l-21.5 35l-18.5 31.5t-15.5 24.5t-15.5 20.5t-14 14
t-15.5 10t-15.5 2.5h-25v-280h-141v280h-26q-8 0 -15.5 -3t-15.5 -10.5t-13.5 -13.5t-15 -20.5t-15.5 -24.5l-18.5 -31l-20.5 -35q-50 -83 -85.5 -112.5t-92.5 -29.5h-59z" />
    <glyph glyph-name="afii10025" unicode="&#x417;" horiz-adv-x="534" 
d="M230 -12q-127 0 -209 58l63 102q59 -45 149 -45q119 0 119 92q0 46 -33 71t-92 25h-75v101h59q56 0 87 22.5t31 65.5q0 39 -26 60.5t-74 21.5q-82 0 -141 -46l-56 98q74 64 199 64q106 0 171.5 -45.5t65.5 -129.5q0 -126 -116 -156v-2q62 -9 102.5 -52t40.5 -111
q0 -96 -73.5 -145t-191.5 -49z" />
    <glyph glyph-name="afii10026" unicode="&#x418;" horiz-adv-x="744" 
d="M83 0v666h131v-356q0 -72 -4 -104h2q23 42 70 112l237 348h142v-666h-131v385q0 25 2 57l1 31h-2q-21 -39 -64 -100l-255 -373h-129z" />
    <glyph glyph-name="afii10027" unicode="&#x419;" horiz-adv-x="744" 
d="M83 0v666h131v-356q0 -72 -4 -104h2q23 42 70 112l237 348h142v-666h-131v385q0 25 2 57l1 31h-2q-21 -39 -64 -100l-255 -373h-129zM373 706q-66 0 -114 38t-55 113h109q5 -65 60 -65q53 0 60 65h108q-6 -74 -54 -112.5t-114 -38.5z" />
    <glyph glyph-name="afii10028" unicode="&#x41a;" horiz-adv-x="638" 
d="M83 0v666h140v-275h47l195 275h151l-231 -309q28 -26 77 -103q57 -95 75 -114q24 -25 54 -25h10l-1 -115h-58q-57 0 -92.5 29.5t-85.5 112.5q-9 14 -21 35t-18.5 31.5l-15.5 24.5t-15 21t-14 14t-15.5 9.5t-16.5 2.5h-25v-280h-140z" />
    <glyph glyph-name="afii10029" unicode="&#x41b;" horiz-adv-x="694" 
d="M37 -10l-15 109q53 6 77 62t34 173l27 332h452v-666h-141v550h-187l-18 -252q-12 -163 -67 -235.5t-162 -72.5z" />
    <glyph glyph-name="afii10030" unicode="&#x41c;" horiz-adv-x="882" 
d="M41 0l92 666h137l134 -411q9 -28 21 -70t13 -45h2q17 60 35 115l138 411h136l92 -666h-144l-43 344q-10 78 -11 97h-2q-5 -27 -27 -95l-113 -346h-139l-113 345q-6 19 -11.5 39l-10 36.5t-5.5 20.5h-2q-3 -45 -9 -98l-43 -343h-127z" />
    <glyph glyph-name="afii10031" unicode="&#x41d;" horiz-adv-x="745" 
d="M83 0v666h141v-262h298v262h141v-666h-141v288h-298v-288h-141z" />
    <glyph glyph-name="afii10032" unicode="&#x41e;" horiz-adv-x="773" 
d="M390 -12q-160 0 -253.5 100.5t-93.5 243.5q0 144 92 245t252 101t251.5 -100t91.5 -242q0 -145 -90.5 -246.5t-249.5 -101.5zM387 102q95 0 144.5 65t49.5 165t-48.5 166t-142.5 66q-96 0 -146.5 -64.5t-50.5 -163.5q0 -100 49.5 -167t144.5 -67z" />
    <glyph glyph-name="afii10033" unicode="&#x41f;" horiz-adv-x="724" 
d="M83 0v666h559v-666h-141v550h-277v-550h-141z" />
    <glyph glyph-name="afii10034" unicode="&#x420;" horiz-adv-x="592" 
d="M83 0v666h218q114 0 184.5 -53.5t70.5 -156.5q0 -107 -72 -163t-198 -56h-62v-237h-141zM224 344h63q66 0 96.5 27t30.5 83q0 104 -124 104h-66v-214z" />
    <glyph glyph-name="afii10035" unicode="&#x421;" horiz-adv-x="618" 
d="M385 -12q-162 0 -252 100.5t-90 245.5q0 144 91.5 244t252.5 100q119 0 200 -53l-63 -103q-60 39 -139 39q-90 0 -141 -63.5t-51 -159.5q0 -101 50.5 -166.5t143.5 -65.5q82 0 151 51l58 -99q-30 -27 -87 -48.5t-124 -21.5z" />
    <glyph glyph-name="afii10036" unicode="&#x422;" horiz-adv-x="537" 
d="M198 0v550h-184v116h509v-116h-183v-550h-142z" />
    <glyph glyph-name="afii10037" unicode="&#x423;" horiz-adv-x="592" 
d="M135 -3q-42 0 -67 9l19 105q13 -5 39 -5q36 0 59 21.5t43 64.5l10 25l-202 449h136l135 -309l135 309h136l-225 -500q-41 -92 -89 -130.5t-129 -38.5z" />
    <glyph glyph-name="afii10038" unicode="&#x424;" horiz-adv-x="797" 
d="M328 0v70q-135 3 -217.5 79t-82.5 191q0 112 83 189.5t217 81.5v55h141v-55q136 -4 217.5 -79t81.5 -190q0 -116 -81 -192.5t-218 -79.5v-70h-141zM460 172q77 1 122.5 48t45.5 120q0 74 -46 121t-122 48v-337zM337 172v337q-75 -1 -121 -47.5t-46 -119.5t46.5 -121
t120.5 -49z" />
    <glyph glyph-name="afii10039" unicode="&#x425;" horiz-adv-x="616" 
d="M19 0l211 342l-201 324h160l126 -208l118 208h142l-192 -322l214 -344h-160l-140 230l-135 -230h-143z" />
    <glyph glyph-name="afii10040" unicode="&#x426;" horiz-adv-x="745" 
d="M594 -146l-11 146h-500v666h140v-550h269v550h142v-550h68l-19 -262h-89z" />
    <glyph glyph-name="afii10041" unicode="&#x427;" horiz-adv-x="657" 
d="M435 0v260q-25 -33 -78 -60t-117 -27q-89 0 -140.5 52.5t-51.5 138.5v302h140v-274q0 -52 28 -79.5t75 -27.5q43 0 82.5 22t61.5 48v311h140v-666h-140z" />
    <glyph glyph-name="afii10042" unicode="&#x428;" horiz-adv-x="1046" 
d="M83 0v666h140v-550h226v550h141v-550h225v550h141v-666h-873z" />
    <glyph glyph-name="afii10043" unicode="&#x429;" horiz-adv-x="1068" 
d="M917 -146l-11 146h-823v666h140v-550h226v550h141v-550h225v550h141v-550h69l-19 -262h-89z" />
    <glyph glyph-name="afii10044" unicode="&#x42a;" horiz-adv-x="673" 
d="M159 0v550h-145v116h286v-237h87q114 0 184.5 -53.5t70.5 -155.5q0 -107 -72 -163.5t-198 -56.5h-213zM300 107h73q66 0 96.5 27t30.5 83q0 104 -124 104h-76v-214z" />
    <glyph glyph-name="afii10045" unicode="&#x42b;" horiz-adv-x="894" 
d="M670 0v666h141v-666h-141zM83 0v666h141v-237h87q113 0 183.5 -53.5t70.5 -155.5q0 -107 -72 -163.5t-198 -56.5h-212zM224 107h72q128 0 128 110q0 104 -124 104h-76v-214z" />
    <glyph glyph-name="afii10046" unicode="&#x42c;" horiz-adv-x="597" 
d="M83 0v666h141v-237h87q113 0 183.5 -53.5t70.5 -155.5q0 -107 -72 -163.5t-198 -56.5h-212zM224 107h72q128 0 128 110q0 104 -124 104h-76v-214z" />
    <glyph glyph-name="afii10047" unicode="&#x42d;" horiz-adv-x="618" 
d="M229 -12q-129 0 -208 57l64 103q59 -43 146 -43q78 0 128.5 48.5t60.5 124.5h-270v110h269q-10 75 -58.5 123.5t-128.5 48.5q-81 0 -143 -47l-58 99q32 26 85.5 46t118.5 20q163 0 251 -99t88 -246q0 -144 -92 -244.5t-253 -100.5z" />
    <glyph glyph-name="afii10048" unicode="&#x42e;" horiz-adv-x="1101" 
d="M718 -12q-147 0 -238 86t-106 214h-150v-288h-141v666h141v-262h154q22 119 110 196.5t226 77.5q108 0 187.5 -48.5t118 -125t38.5 -168.5q0 -145 -90.5 -246.5t-249.5 -101.5zM714 102q96 0 145.5 65t49.5 165t-48.5 166t-142.5 66q-97 0 -147.5 -64.5t-50.5 -163.5
q0 -100 50 -167t144 -67z" />
    <glyph glyph-name="afii10049" unicode="&#x42f;" horiz-adv-x="624" 
d="M40 0v115h10q21 0 40 14.5t32.5 34t42.5 66.5q38 55 62 67v2q-66 8 -110 54.5t-44 120.5q0 93 64 142.5t182 49.5h223v-666h-142v278h-13q-8 -1 -15 -4.5t-14.5 -11.5l-13 -14t-14.5 -20l-15 -23.5t-18 -30t-20 -32.5q-51 -84 -86 -113t-92 -29h-59zM323 374h77v184h-71
q-116 0 -116 -91q0 -93 110 -93z" />
    <glyph glyph-name="afii10065" unicode="&#x430;" horiz-adv-x="502" 
d="M180 -12q-64 0 -105.5 36.5t-41.5 100.5q0 88 75.5 130.5t184.5 42.5h17v28q0 36 -18 52t-61 16q-66 0 -124 -46l-58 81q76 70 197 70q101 0 148.5 -42.5t47.5 -137.5v-175q0 -82 14 -144h-131q-6 17 -8 52q-52 -64 -137 -64zM220 85q52 0 90 43v88h-17q-132 0 -132 -80
q0 -25 17 -38t42 -13z" />
    <glyph glyph-name="afii10066" unicode="&#x431;" horiz-adv-x="552" 
d="M283 -12q-125 0 -183 91t-58 242q0 163 61 258t206 122l161 30l18 -111l-160 -27q-144 -26 -151 -157q52 52 129 52q93 0 154 -66t61 -181t-68 -184t-170 -69zM285 89q46 0 71 39.5t25 110.5q0 70 -24 111.5t-72 41.5q-62 0 -103 -56q-1 -11 -1 -37q0 -210 104 -210z" />
    <glyph glyph-name="afii10067" unicode="&#x432;" horiz-adv-x="520" 
d="M71 0v487h213q183 0 183 -124q0 -89 -90 -111v-1q48 -6 79 -36t31 -80q0 -135 -205 -135h-211zM202 95h76q42 0 61 12.5t19 41.5q0 57 -75 57h-81v-111zM202 290h67q71 0 71 54q0 50 -69 50h-69v-104z" />
    <glyph glyph-name="afii10068" unicode="&#x433;" horiz-adv-x="406" 
d="M71 0v487h320v-104h-187v-383h-133z" />
    <glyph glyph-name="afii10069" unicode="&#x434;" horiz-adv-x="595" 
d="M37 -146l-21 250h38q38 29 51 141l31 242h364v-383h55l-19 -250h-84l-12 146h-307l-11 -146h-85zM182 104h189v279h-130l-18 -157q-10 -85 -41 -122z" />
    <glyph glyph-name="afii10070" unicode="&#x435;" horiz-adv-x="519" 
d="M285 -12q-120 0 -187.5 70t-67.5 188q0 113 69 183t172 70q113 0 167.5 -75t42.5 -211h-308q5 -57 35.5 -91.5t88.5 -34.5q59 0 127 34l43 -86q-84 -47 -182 -47zM171 303h182q-2 100 -84 100t-98 -100z" />
    <glyph glyph-name="afii10072" unicode="&#x436;" horiz-adv-x="795" 
d="M30 0v97h7q18 0 34.5 18.5t48.5 73.5q34 57 62 79l-167 219h143l142 -197h31v197h133v-197h30l142 197h144l-167 -219q29 -24 62 -79q32 -55 48.5 -73.5t33.5 -18.5h8l-1 -97h-56q-45 0 -71 21.5t-63 83.5q-33 56 -51 75.5t-40 20.5h-19v-201h-133v201h-20
q-21 -1 -39 -21t-51 -75q-38 -62 -64 -83.5t-71 -21.5h-56z" />
    <glyph glyph-name="afii10073" unicode="&#x437;" horiz-adv-x="431" 
d="M23 36l46 85q47 -31 121 -31q80 0 80 59q0 28 -29 43t-69 15h-38v82h35q37 0 60.5 14.5t23.5 40.5q0 25 -18.5 40t-51.5 15q-64 0 -110 -29l-43 84q69 44 156 44q82 0 137.5 -33.5t55.5 -101.5q0 -89 -90 -111v-1q48 -6 79 -36t31 -80q0 -72 -57.5 -108.5t-150.5 -36.5
q-106 0 -168 46z" />
    <glyph glyph-name="afii10074" unicode="&#x438;" horiz-adv-x="601" 
d="M71 0v487h119v-226q0 -11 -0.5 -23t-1 -22t-1 -18.5t-1.5 -13.5v-6h2l7 12l21 32.5l28 43.5l154 221h132v-487h-119v248l3 72h-2l-6 -9l-20 -29.5l-28 -41.5l-168 -240h-119z" />
    <glyph glyph-name="afii10075" unicode="&#x439;" horiz-adv-x="601" 
d="M71 0v487h119v-226q0 -11 -0.5 -23t-1 -22t-1 -18.5t-1.5 -13.5v-6h2l7 12l21 32.5l28 43.5l154 221h132v-487h-119v248l3 72h-2l-6 -9l-20 -29.5l-28 -41.5l-168 -240h-119zM296 530q-66 0 -114 38t-55 113h109q5 -65 60 -65q54 0 60 65h108q-6 -74 -54 -112.5
t-114 -38.5z" />
    <glyph glyph-name="afii10076" unicode="&#x43a;" horiz-adv-x="535" 
d="M71 0v487h133v-197h31l142 197h143l-166 -219q27 -23 61 -79q32 -55 48.5 -73.5t34.5 -18.5h8l-1 -97h-56q-45 0 -71 21.5t-64 83.5q-33 56 -50.5 75.5t-39.5 20.5h-19l-1 -201h-133z" />
    <glyph glyph-name="afii10077" unicode="&#x43b;" horiz-adv-x="570" 
d="M36 -7l-18 97q36 5 56 41t27 114l24 242h374v-487h-133v383h-131l-13 -164q-10 -118 -56.5 -172t-129.5 -54z" />
    <glyph glyph-name="afii10078" unicode="&#x43c;" horiz-adv-x="699" 
d="M34 0l71 487h129l90 -281q22 -62 22 -80h2q0 15 23 80l95 281h129l69 -487h-135l-27 216l-7 73h-2q-9 -34 -20 -71l-68 -218h-127l-68 218l-19 71h-2q-2 -39 -6 -73l-30 -216h-119z" />
    <glyph glyph-name="afii10079" unicode="&#x43d;" horiz-adv-x="595" 
d="M71 0v487h133v-183h187v183h133v-487h-133v197h-187v-197h-133z" />
    <glyph glyph-name="afii10080" unicode="&#x43e;" horiz-adv-x="550" 
d="M274 -12q-119 0 -181.5 75t-62.5 179t62 180.5t181 76.5q81 0 138.5 -38t83 -93.5t25.5 -121.5q0 -103 -63.5 -180.5t-182.5 -77.5zM276 89q103 0 103 153q0 72 -26.5 115t-81.5 43q-100 0 -100 -154q0 -72 25.5 -114.5t79.5 -42.5z" />
    <glyph glyph-name="afii10081" unicode="&#x43f;" horiz-adv-x="585" 
d="M71 0v487h443v-487h-133v381h-177v-381h-133z" />
    <glyph glyph-name="afii10082" unicode="&#x440;" horiz-adv-x="566" 
d="M71 -219v706h131v-51q50 63 135 63q92 0 145 -67t53 -188q0 -115 -61 -185.5t-157 -70.5q-73 0 -113 35v-242h-133zM288 91q51 0 78.5 40t27.5 113q0 70 -25 109.5t-73 39.5q-53 0 -92 -50v-219q37 -33 84 -33z" />
    <glyph glyph-name="afii10083" unicode="&#x441;" horiz-adv-x="458" 
d="M282 -12q-116 0 -184 70.5t-68 184.5q0 120 71.5 188t184.5 68q89 0 149 -39l-43 -91q-46 29 -102 29q-57 0 -88 -41t-31 -110q0 -71 31 -113.5t91 -42.5q55 0 105 30l41 -89q-67 -44 -157 -44z" />
    <glyph glyph-name="afii10084" unicode="&#x442;" horiz-adv-x="451" 
d="M158 0v382h-144v105h423v-105h-145v-382h-134z" />
    <glyph glyph-name="afii10085" unicode="&#x443;" horiz-adv-x="512" 
d="M73 -234q-45 0 -75 9l19 105q17 -5 47 -5q48 0 71.5 21t39.5 64l18 50l-183 477h142l110 -321h3l99 321h137l-201 -539q-35 -94 -84 -138t-143 -44z" />
    <glyph glyph-name="afii10086" unicode="&#x444;" horiz-adv-x="787" 
d="M460 -219h-132v235q-39 -28 -94 -28q-92 0 -147.5 70.5t-55.5 184.5q0 115 55.5 186t147.5 71q54 0 94 -29v249h132v-249q38 29 93 29q92 0 147.5 -70.5t55.5 -184.5q0 -115 -55.5 -186t-147.5 -71q-56 0 -93 28v-235zM171 245q0 -71 23.5 -112.5t67.5 -41.5q41 0 73 32
v242q-32 32 -73 32q-45 0 -68 -41t-23 -111zM616 243q0 71 -23.5 112.5t-67.5 41.5q-41 0 -73 -32v-242q32 -32 73 -32q44 0 67.5 41t23.5 111z" />
    <glyph glyph-name="afii10087" unicode="&#x445;" horiz-adv-x="511" 
d="M16 0l166 252l-160 235h150q85 -129 88 -133l78 133h137l-151 -229l172 -258h-150l-101 156l-92 -156h-137z" />
    <glyph glyph-name="afii10088" unicode="&#x446;" horiz-adv-x="609" 
d="M466 -146l-12 146h-383v487h133v-381h176v381h133v-383h56l-19 -250h-84z" />
    <glyph glyph-name="afii10089" unicode="&#x447;" horiz-adv-x="561" 
d="M356 0v192q-61 -75 -155 -75q-77 0 -112.5 43t-35.5 115v212h133v-184q0 -75 66 -75q56 0 104 62v197h134v-487h-134z" />
    <glyph glyph-name="afii10090" unicode="&#x448;" horiz-adv-x="861" 
d="M71 0v487h133v-381h160v381h133v-381h159v381h134v-487h-719z" />
    <glyph glyph-name="afii10091" unicode="&#x449;" horiz-adv-x="886" 
d="M743 -146l-12 146h-660v487h133v-381h160v381h133v-381h159v381h134v-383h56l-19 -250h-84z" />
    <glyph glyph-name="afii10092" unicode="&#x44a;" horiz-adv-x="561" 
d="M129 0v383h-115v104h247v-158h76q91 0 146.5 -41t55.5 -122q0 -82 -57 -124t-159 -42h-194zM261 95h61q86 0 86 70q0 67 -82 67h-65v-137z" />
    <glyph glyph-name="afii10093" unicode="&#x44b;" horiz-adv-x="773" 
d="M567 0v487h134v-487h-134zM71 0v487h133v-158h75q91 0 147 -41t56 -122q0 -82 -57.5 -124t-159.5 -42h-194zM204 95h61q86 0 86 70q0 67 -82 67h-65v-137z" />
    <glyph glyph-name="afii10094" unicode="&#x44c;" horiz-adv-x="503" 
d="M71 0v487h133v-158h75q91 0 147 -41t56 -122q0 -82 -57.5 -124t-159.5 -42h-194zM204 95h61q86 0 86 70q0 67 -82 67h-65v-137z" />
    <glyph glyph-name="afii10095" unicode="&#x44d;" horiz-adv-x="481" 
d="M179 -8q-100 0 -160 45l55 94q44 -32 105 -32q52 0 87 28t40 72h-199v89h199q-6 46 -39.5 74t-85.5 28q-57 0 -105 -32l-50 93q65 46 160 46q128 0 196 -72t68 -179q0 -109 -71 -181.5t-200 -72.5z" />
    <glyph glyph-name="afii10096" unicode="&#x44e;" horiz-adv-x="832" 
d="M556 -12q-105 0 -166 60t-74 149h-112v-197h-133v487h133v-183h115q17 84 76.5 139.5t159.5 55.5q119 0 183 -75t64 -178q0 -65 -25 -122t-82.5 -96.5t-138.5 -39.5zM558 89q102 0 102 153q0 72 -26.5 115t-80.5 43q-100 0 -100 -154q0 -157 105 -157z" />
    <glyph glyph-name="afii10097" unicode="&#x44f;" horiz-adv-x="534" 
d="M29 0v97h7q16 0 31.5 14.5t39.5 52.5q26 43 54 54v1q-40 8 -71 40t-31 81q0 72 52.5 109.5t149.5 37.5h202v-487h-133v186h-24q-22 0 -39 -17.5t-47 -67.5q-36 -60 -62 -80.5t-72 -20.5h-57zM263 275h67v115h-61q-77 0 -77 -58q0 -57 71 -57z" />
    <glyph glyph-name="afii10071" unicode="&#x451;" horiz-adv-x="519" 
d="M159 542q-32 0 -53 21t-21 51q0 29 21 50t53 21t53 -21t21 -50q0 -30 -21 -51t-53 -21zM369 542q-32 0 -53 21t-21 51q0 29 21 50t53 21t53 -21t21 -50q0 -30 -21 -51t-53 -21zM285 -12q-120 0 -187.5 70t-67.5 188q0 113 69 183t172 70t157.5 -62.5t54.5 -177.5
q0 -14 -2 -46h-308q5 -57 35.5 -91.5t88.5 -34.5q59 0 127 34l43 -86q-84 -47 -182 -47zM171 303h182q-2 100 -84 100t-98 -100z" />
    <glyph glyph-name="afii10099" unicode="&#x452;" horiz-adv-x="561" 
d="M345 -147l-56 79q96 75 96 298q0 147 -100 147q-48 0 -81 -37v-340h-133v563h-43v99h43v58h133v-58h153v-99h-153v-131q48 50 118 50q91 0 145.5 -64t54.5 -188q0 -128 -47 -229.5t-130 -147.5z" />
    <glyph glyph-name="afii10100" unicode="&#x453;" horiz-adv-x="406" 
d="M168 541l83 135h172l-140 -135h-115zM71 0v487h320v-104h-187v-383h-133z" />
    <glyph glyph-name="afii10101" unicode="&#x454;" horiz-adv-x="480" 
d="M296 -8q-128 0 -197 71.5t-69 179.5t71 180.5t200 72.5q95 0 156 -42l-55 -93q-44 29 -100 29q-52 0 -87 -27.5t-40 -72.5h195v-90h-196q7 -46 40.5 -74t85.5 -28q59 0 110 36l51 -94q-65 -48 -165 -48z" />
    <glyph glyph-name="afii10102" unicode="&#x455;" horiz-adv-x="420" 
d="M199 -12q-104 0 -173 46l45 93q58 -40 120 -40q80 0 80 44q0 10 -5.5 17.5t-18.5 14t-25.5 12l-34.5 14.5t-39 17q-55 26 -82 58.5t-27 85.5q0 68 49.5 108.5t132.5 40.5q90 0 156 -39l-47 -91q-49 31 -104 31q-67 0 -67 -43q0 -10 4 -17t16 -14t20 -10.5t29.5 -11
t30.5 -11.5q66 -28 99.5 -60t33.5 -89q0 -76 -51 -116t-142 -40z" />
    <glyph glyph-name="afii10103" unicode="&#x456;" horiz-adv-x="280" 
d="M140 550q-35 0 -58 23.5t-23 56.5q0 32 23 55t58 23t58.5 -23t23.5 -55q0 -33 -23.5 -56.5t-58.5 -23.5zM73 0v487h134v-487h-134z" />
    <glyph glyph-name="afii10104" unicode="&#x457;" horiz-adv-x="280" 
d="M36 542q-32 0 -53 21t-21 51q0 29 21 50t53 21t53 -21t21 -50q0 -30 -21 -51t-53 -21zM246 542q-32 0 -53 21t-21 51q0 29 21 50t53 21t53 -21t21 -50q0 -30 -21 -51t-53 -21zM73 0v487h134v-487h-134z" />
    <glyph glyph-name="afii10105" unicode="&#x458;" horiz-adv-x="275" 
d="M37 -233q-58 0 -87 12l23 103q18 -6 38 -6q34 0 47 23.5t13 80.5v507h134v-521q0 -199 -168 -199zM137 550q-35 0 -58 23.5t-23 56.5q0 32 23 55t58 23t58.5 -23t23.5 -55q0 -33 -23.5 -56.5t-58.5 -23.5z" />
    <glyph glyph-name="afii10106" unicode="&#x459;" horiz-adv-x="805" 
d="M36 -7l-18 97q36 5 56 41t27 114l24 242h380v-158h76q91 0 146.5 -41t55.5 -122q0 -82 -57.5 -124t-159.5 -42h-194v383h-138l-13 -164q-10 -119 -56 -172.5t-129 -53.5zM505 95h61q86 0 86 70q0 67 -82 67h-65v-137z" />
    <glyph glyph-name="afii10107" unicode="&#x45a;" horiz-adv-x="835" 
d="M71 0v487h133v-167h197v167h133v-167h77q93 0 148 -39t55 -119q0 -82 -57 -122t-160 -40h-196v216h-197v-216h-133zM534 95h63q86 0 86 66q0 62 -82 62h-67v-128z" />
    <glyph glyph-name="afii10108" unicode="&#x45b;" horiz-adv-x="562" 
d="M69 0v563h-43v99h43v58h133v-58h153v-99h-153v-144q63 71 152 71q76 0 111 -42.5t35 -115.5v-332h-133v305q0 38 -15 56t-50 18q-53 0 -100 -61v-318h-133z" />
    <glyph glyph-name="afii10109" unicode="&#x45c;" horiz-adv-x="535" 
d="M196 541l83 135h172l-140 -135h-115zM71 0v487h133v-197h31l142 197h143l-166 -219q27 -23 61 -79q32 -55 48.5 -73.5t34.5 -18.5h8l-1 -97h-56q-45 0 -71 21.5t-64 83.5q-33 56 -50.5 75.5t-39.5 20.5h-19l-1 -201h-133z" />
    <glyph glyph-name="afii10110" unicode="&#x45e;" horiz-adv-x="512" 
d="M73 -234q-45 0 -75 9l19 105q17 -5 47 -5q48 0 71.5 21t39.5 64l18 50l-183 477h142l110 -321h3l99 321h137l-201 -539q-35 -94 -84 -138t-143 -44zM263 530q-66 0 -114 38t-55 113h109q5 -65 60 -65q53 0 60 65h108q-6 -74 -54 -112.5t-114 -38.5z" />
    <glyph glyph-name="afii10193" unicode="&#x45f;" horiz-adv-x="587" 
d="M251 -146l-8 146h-172v487h133v-381h179v381h133v-487h-173l-7 -146h-85z" />
    <glyph glyph-name="afii10050" unicode="&#x490;" horiz-adv-x="491" 
d="M83 0v666h281l11 148h89l19 -262h-259v-552h-141z" />
    <glyph glyph-name="afii10098" unicode="&#x491;" horiz-adv-x="406" 
d="M71 0v487h216l10 146h85l23 -250h-201v-383h-133z" />
    <glyph glyph-name="Wgrave" unicode="&#x1e80;" horiz-adv-x="914" 
d="M196 0l-179 666h150l84 -348q24 -98 24 -122h2q0 1 4.5 20.5t11 51t12.5 54.5l91 344h139l89 -342q6 -24 12.5 -55.5l10.5 -51t4 -20.5h2l3 19q3 19 9 49.5t12 54.5l86 346h135l-182 -666h-130l-96 369q-27 104 -27 124h-2q0 -1 -4.5 -19.5l-11.5 -49.5t-14 -55
l-105 -369h-130zM410 717l-140 135h171l83 -135h-114z" />
    <glyph glyph-name="wgrave" unicode="&#x1e81;" horiz-adv-x="743" 
d="M149 0l-138 487h143l74 -310h2l83 310h123l83 -312h2l76 312h133l-139 -487h-120l-100 326h-2l-100 -326h-120zM323 541l-140 135h171l83 -135h-114z" />
    <glyph glyph-name="Wacute" unicode="&#x1e82;" horiz-adv-x="914" 
d="M391 717l83 135h172l-140 -135h-115zM196 0l-179 666h150l84 -348q24 -98 24 -122h2q0 1 4.5 20.5t11 51t12.5 54.5l91 344h139l89 -342q6 -24 12.5 -55.5l10.5 -51t4 -20.5h2l3 19q3 19 9 49.5t12 54.5l86 346h135l-182 -666h-130l-96 369q-27 104 -27 124h-2
q0 -1 -4.5 -19.5l-11.5 -49.5t-14 -55l-105 -369h-130z" />
    <glyph glyph-name="wacute" unicode="&#x1e83;" horiz-adv-x="743" 
d="M303 541l83 135h172l-140 -135h-115zM149 0l-138 487h143l74 -310h2l83 310h123l83 -312h2l76 312h133l-139 -487h-120l-100 326h-2l-100 -326h-120z" />
    <glyph glyph-name="Wdieresis" unicode="&#x1e84;" horiz-adv-x="914" 
d="M352 718q-32 0 -53 21t-21 51q0 29 21 50t53 21t53 -21t21 -50q0 -30 -21 -51t-53 -21zM562 718q-32 0 -53 21t-21 51q0 29 21 50t53 21t53 -21t21 -50q0 -30 -21 -51t-53 -21zM196 0l-179 666h150l84 -348q24 -98 24 -122h2q0 1 4.5 20.5t11 51t12.5 54.5l91 344h139
l89 -342q6 -24 12.5 -55.5l10.5 -51t4 -20.5h2l3 19q3 19 9 49.5t12 54.5l86 346h135l-182 -666h-130l-96 369q-27 104 -27 124h-2q0 -1 -4.5 -19.5l-11.5 -49.5t-14 -55l-105 -369h-130z" />
    <glyph glyph-name="wdieresis" unicode="&#x1e85;" horiz-adv-x="743" 
d="M264 542q-32 0 -53 21t-21 51q0 29 21 50t53 21t53 -21t21 -50q0 -30 -21 -51t-53 -21zM474 542q-32 0 -53 21t-21 51q0 29 21 50t53 21t53 -21t21 -50q0 -30 -21 -51t-53 -21zM149 0l-138 487h143l74 -310h2l83 310h123l83 -312h2l76 312h133l-139 -487h-120l-100 326
h-2l-100 -326h-120z" />
    <glyph glyph-name="Ygrave" unicode="&#x1ef2;" horiz-adv-x="598" 
d="M232 0v251l-221 415h157l141 -283h1l140 283h137l-214 -415v-251h-141zM256 717l-140 135h171l83 -135h-114z" />
    <glyph glyph-name="ygrave" unicode="&#x1ef3;" horiz-adv-x="517" 
d="M78 -234q-45 0 -75 9l19 105q17 -5 47 -5q48 0 71.5 21t39.5 64l18 50l-183 477h142l110 -321h3l99 321h137l-201 -539q-35 -94 -84 -138t-143 -44zM218 541l-140 135h171l83 -135h-114z" />
    <glyph glyph-name="endash" unicode="&#x2013;" horiz-adv-x="550" 
d="M48 217v103h454v-103h-454z" />
    <glyph glyph-name="emdash" unicode="&#x2014;" horiz-adv-x="870" 
d="M48 217v103h774v-103h-774z" />
    <glyph glyph-name="afii00208" unicode="&#x2015;" horiz-adv-x="870" 
d="M48 217v103h774v-103h-774z" />
    <glyph glyph-name="quoteleft" unicode="&#x2018;" horiz-adv-x="225" 
d="M121 389q-38 0 -64.5 27t-26.5 71q0 46 22 95t49 84h83q-37 -50 -37 -94q0 -24 25.5 -52.5t25.5 -58.5q0 -31 -22 -51.5t-55 -20.5z" />
    <glyph glyph-name="quoteright" unicode="&#x2019;" horiz-adv-x="225" 
d="M42 401q37 53 37 95q0 24 -26 52t-26 59t22.5 51t55.5 20q38 0 64.5 -27t26.5 -71q0 -46 -22 -95t-50 -84h-82z" />
    <glyph glyph-name="quotesinglbase" unicode="&#x201a;" horiz-adv-x="253" 
d="M56 -125q37 53 37 94q0 24 -26 52.5t-26 58.5q0 31 22.5 51t55.5 20q38 0 64.5 -26.5t26.5 -70.5q0 -46 -22.5 -95.5t-49.5 -83.5h-82z" />
    <glyph glyph-name="quotedblleft" unicode="&#x201c;" horiz-adv-x="435" 
d="M116 389q-38 0 -64.5 27t-26.5 71q0 46 22 95t50 84h82q-37 -53 -37 -94q0 -24 26 -52.5t26 -58.5q0 -31 -22.5 -51.5t-55.5 -20.5zM331 389q-38 0 -65 27t-27 71q0 46 22 95t50 84h82q-37 -53 -37 -94q0 -24 26 -52.5t26 -58.5q0 -31 -22 -51.5t-55 -20.5z" />
    <glyph glyph-name="quotedblright" unicode="&#x201d;" horiz-adv-x="435" 
d="M42 401q37 53 37 95q0 24 -26 52t-26 59t22.5 51t55.5 20q38 0 64.5 -27t26.5 -71q0 -46 -22 -95t-50 -84h-82zM256 401q37 53 37 95q0 24 -26 52t-26 59t22.5 51t55.5 20q38 0 64.5 -27t26.5 -71q0 -86 -71 -179h-83z" />
    <glyph glyph-name="quotedblbase" unicode="&#x201e;" horiz-adv-x="440" 
d="M42 -125q37 53 37 94q0 24 -26 52.5t-26 58.5q0 31 22.5 51t55.5 20q38 0 64.5 -26.5t26.5 -70.5q0 -46 -22.5 -95.5t-49.5 -83.5h-82zM256 -125q37 53 37 94q0 24 -26 52.5t-26 58.5q0 31 22.5 51t55.5 20q38 0 64.5 -26.5t26.5 -70.5q0 -46 -22 -95.5t-49 -83.5h-83z
" />
    <glyph glyph-name="dagger" unicode="&#x2020;" horiz-adv-x="558" 
d="M236 -170l-34 424l20 126l-72 -9h-110v116h110l72 -9l-15 105v137h144v-137l-14 -105l71 9h110v-116h-110l-71 9l18 -126l-33 -424h-86z" />
    <glyph glyph-name="daggerdbl" unicode="&#x2021;" horiz-adv-x="569" 
d="M207 -169v118l15 105l-72 -9h-110v117h110l72 -10l-19 114l19 114l-72 -9h-110v116h110l72 -9l-15 105v137h144v-137l-14 -105l71 9h110v-116h-110l-71 9l17 -114l-17 -114l71 10h110v-117h-110l-71 9l14 -105v-118h-144z" />
    <glyph glyph-name="bullet" unicode="&#x2022;" horiz-adv-x="438" 
d="M219 111q-73 0 -125 51.5t-52 124.5t52 125t125 52t125 -52t52 -125t-52 -124.5t-125 -51.5z" />
    <glyph glyph-name="ellipsis" unicode="&#x2026;" horiz-adv-x="759" 
d="M142 -10q-37 0 -62.5 25t-25.5 61q0 35 25.5 59.5t62.5 24.5t62.5 -24.5t25.5 -59.5q0 -36 -25.5 -61t-62.5 -25zM379 -10q-36 0 -61.5 25t-25.5 61q0 35 25.5 59.5t61.5 24.5q37 0 62.5 -24.5t25.5 -59.5q0 -36 -25.5 -61t-62.5 -25zM617 -10q-36 0 -62 25t-26 61
q0 35 26 59.5t62 24.5q37 0 62.5 -24.5t25.5 -59.5q0 -36 -25.5 -61t-62.5 -25z" />
    <glyph glyph-name="perthousand" unicode="&#x2030;" horiz-adv-x="1245" 
d="M194 187q-81 0 -125.5 45t-44.5 110q0 64 45.5 110.5t126.5 46.5q82 0 126 -44t44 -109t-45.5 -112t-126.5 -47zM196 268q57 0 57 74q0 33 -14 54.5t-44 21.5q-58 0 -58 -72q0 -33 14.5 -55.5t44.5 -22.5zM674 -12q-81 0 -125.5 44.5t-44.5 110.5q0 64 45.5 110.5
t126.5 46.5t125 -44t44 -110q0 -65 -45.5 -111.5t-125.5 -46.5zM676 69q56 0 56 74q0 33 -14 54.5t-44 21.5q-58 0 -58 -73q0 -32 15 -54.5t45 -22.5zM1049 -12q-81 0 -125.5 44.5t-44.5 110.5q0 64 45.5 110.5t126.5 46.5t125.5 -44t44.5 -110q0 -64 -46 -111t-126 -47z
M1051 69q57 0 57 74q0 33 -14 54.5t-44 21.5q-59 0 -59 -73q0 -32 15 -54.5t45 -22.5zM234 0l293 488h110l-292 -488h-111z" />
    <glyph glyph-name="guilsinglleft" unicode="&#x2039;" horiz-adv-x="320" 
d="M152 53l-120 192l120 193h140l-119 -193l119 -192h-140z" />
    <glyph glyph-name="guilsinglright" unicode="&#x203a;" horiz-adv-x="320" 
d="M28 53l120 193l-120 192h140l120 -192l-120 -193h-140z" />
    <glyph glyph-name="fraction" unicode="&#x2044;" horiz-adv-x="137" 
d="M-190 0l409 666h105l-408 -666h-106z" />
    <glyph glyph-name="uni2070" unicode="&#x2070;" horiz-adv-x="394" 
d="M196 325q-81 0 -123 49.5t-42 124.5t41.5 124.5t123.5 49.5t124.5 -50t42.5 -124q0 -75 -42.5 -124.5t-124.5 -49.5zM196 405q56 0 56 94t-56 94q-25 0 -40 -23.5t-15 -70.5t15 -70.5t40 -23.5z" />
    <glyph glyph-name="uni2074" unicode="&#x2074;" horiz-adv-x="362" 
d="M187 331v62h-170v62l176 212h97v-199h53v-75h-53v-62h-103zM114 465q14 3 43 3h34v90h-1z" />
    <glyph glyph-name="uni2075" unicode="&#x2075;" horiz-adv-x="314" 
d="M104 325q-45 0 -77 10l15 78q28 -10 60 -10q69 0 69 39t-78 39q-21 0 -48 -3l11 189h212v-78h-121l-3 -42q59 -2 97 -27t38 -73q0 -59 -48 -90.5t-127 -31.5z" />
    <glyph glyph-name="uni2076" unicode="&#x2076;" horiz-adv-x="352" 
d="M180 325q-72 0 -109 42.5t-37 111.5q0 87 64 140.5t173 53.5l23 -71q-132 -4 -160 -80q31 19 74 19q49 0 81 -26t32 -75q0 -54 -40.5 -84.5t-100.5 -30.5zM180 397q19 0 30.5 10.5t11.5 26.5q0 19 -12.5 29.5t-32.5 10.5q-31 0 -46 -12v-7q0 -28 14 -43t35 -15z" />
    <glyph glyph-name="uni2077" unicode="&#x2077;" horiz-adv-x="321" 
d="M150 317l-93 32l109 234h-146v84h267v-49z" />
    <glyph glyph-name="uni2078" unicode="&#x2078;" horiz-adv-x="344" 
d="M172 325q-62 0 -102 24.5t-40 66.5q0 47 69 83q-59 35 -59 80q0 43 39.5 68.5t93.5 25.5q57 0 95 -24.5t38 -65.5q0 -39 -63 -74q72 -37 72 -87q0 -46 -41.5 -71.5t-101.5 -25.5zM171 390q20 0 33 8.5t13 21.5q0 18 -52 43q-42 -23 -42 -43q0 -13 13.5 -21.5t34.5 -8.5z
M176 542q36 22 36 39q0 11 -10.5 19t-26.5 8t-27.5 -8t-11.5 -19q0 -8 7 -16t12.5 -11.5t20.5 -11.5z" />
    <glyph glyph-name="uni2079" unicode="&#x2079;" horiz-adv-x="353" 
d="M79 324l-23 70q56 2 100 23t58 59q-33 -19 -75 -19q-48 0 -80.5 26t-32.5 75q0 53 40.5 84t100.5 31q73 0 110.5 -42.5t37.5 -112.5q0 -87 -63 -140.5t-173 -53.5zM171 524q30 0 46 11v8q0 27 -14 42.5t-35 15.5q-19 0 -30.5 -10.5t-11.5 -26.5q0 -19 12.5 -29.5
t32.5 -10.5z" />
    <glyph glyph-name="uni207A" unicode="&#x207a;" horiz-adv-x="332" 
d="M124 384v76h-87v76h87v76h84v-76h87v-76h-87v-76h-84z" />
    <glyph glyph-name="uni207B" unicode="&#x207b;" horiz-adv-x="307" 
d="M50 460v74h207v-74h-207z" />
    <glyph glyph-name="uni207D" unicode="&#x207d;" horiz-adv-x="239" 
d="M140 276q-101 86 -101 222q0 72 29.5 128t71.5 89h99q-38 -30 -66 -88.5t-28 -128.5q0 -71 27 -128.5t67 -93.5h-99z" />
    <glyph glyph-name="uni207E" unicode="&#x207e;" horiz-adv-x="239" 
d="M0 276q39 33 66.5 90.5t27.5 129.5q0 70 -27.5 128.5t-66.5 90.5h99q43 -33 71.5 -89t28.5 -129q0 -138 -100 -221h-99z" />
    <glyph glyph-name="uni2080" unicode="&#x2080;" horiz-adv-x="394" 
d="M196 -206q-81 0 -123 49.5t-42 124.5t41.5 124t123.5 49t124.5 -49.5t42.5 -123.5q0 -75 -42.5 -124.5t-124.5 -49.5zM196 -127q56 0 56 95q0 93 -56 93q-25 0 -40 -23t-15 -70t15 -71t40 -24z" />
    <glyph glyph-name="uni2081" unicode="&#x2081;" horiz-adv-x="286" 
d="M107 -200v248l-73 -19l-22 79l121 27h77v-335h-103z" />
    <glyph glyph-name="uni2082" unicode="&#x2082;" horiz-adv-x="343" 
d="M25 -200v54q95 74 120 102q35 38 35 69q0 36 -40 36q-41 0 -75 -31l-49 64q56 47 138 47q66 0 101 -29t35 -76q0 -42 -31 -78.5t-87 -80.5q12 2 48 2h85v-79h-280z" />
    <glyph glyph-name="uni2083" unicode="&#x2083;" horiz-adv-x="322" 
d="M106 -206q-58 0 -86 11l20 76q29 -11 62 -11q69 0 69 33q0 35 -92 37v60q39 1 61 12t22 27q0 25 -38 25q-32 0 -65 -20l-37 64q49 33 126 33q56 0 88 -20.5t32 -57.5q0 -31 -21 -50t-51 -27v-1q34 -5 59.5 -25t25.5 -57q0 -51 -46.5 -80t-128.5 -29z" />
    <glyph glyph-name="uni2084" unicode="&#x2084;" horiz-adv-x="362" 
d="M187 -200v62h-170v62l176 211h97v-199h53v-74h-53v-62h-103zM114 -66q18 2 43 2h34v91h-1z" />
    <glyph glyph-name="uni2085" unicode="&#x2085;" horiz-adv-x="314" 
d="M104 -206q-45 0 -77 10l15 77q32 -9 60 -9q69 0 69 39t-78 39q-30 0 -48 -4l11 189h212v-77h-121l-3 -43q59 -2 97 -26.5t38 -73.5q0 -58 -48 -89.5t-127 -31.5z" />
    <glyph glyph-name="uni2086" unicode="&#x2086;" horiz-adv-x="352" 
d="M180 -206q-72 0 -109 42.5t-37 111.5q0 87 64 140t173 53l23 -70q-132 -4 -160 -80q31 19 74 19q49 0 81 -26.5t32 -75.5q0 -53 -40.5 -83.5t-100.5 -30.5zM180 -134q19 0 30.5 10t11.5 27q0 19 -12.5 29.5t-32.5 10.5q-29 0 -46 -12v-7q0 -29 14 -43.5t35 -14.5z" />
    <glyph glyph-name="uni2087" unicode="&#x2087;" horiz-adv-x="321" 
d="M150 -215l-93 32l109 234h-146v84h267v-48z" />
    <glyph glyph-name="uni2088" unicode="&#x2088;" horiz-adv-x="344" 
d="M172 -206q-62 0 -102 24.5t-40 66.5q0 47 69 82q-59 36 -59 81q0 42 39 67.5t94 25.5q57 0 95 -24t38 -65t-63 -74q72 -37 72 -88q0 -46 -41.5 -71t-101.5 -25zM171 -141q20 0 33 8.5t13 21.5q0 6 -3 11t-13 11.5t-15 9.5t-21 11q-42 -26 -42 -43q0 -30 48 -30zM176 10
q36 24 36 39q0 12 -10.5 19.5t-26.5 7.5q-17 0 -28 -7.5t-11 -19.5q0 -3 0.5 -5.5t2 -5t3 -4.5t4.5 -4.5t5 -4t6 -4t6 -3.5t6.5 -4t6.5 -4z" />
    <glyph glyph-name="uni2089" unicode="&#x2089;" horiz-adv-x="353" 
d="M79 -207l-23 70q56 1 100 22t58 59q-34 -18 -75 -18q-48 0 -80.5 26t-32.5 75q0 53 40.5 83.5t100.5 30.5q73 0 110.5 -42t37.5 -112q0 -87 -63 -140.5t-173 -53.5zM171 -8q29 0 46 12v7q0 28 -14 43.5t-35 15.5q-19 0 -30.5 -11t-11.5 -27q0 -19 12.5 -29.5t32.5 -10.5z
" />
    <glyph glyph-name="Euro" unicode="&#x20ac;" horiz-adv-x="587" 
d="M34 358v92h71q25 106 98.5 167t187.5 61q111 0 176 -43l-56 -104q-57 32 -117 32q-106 0 -143 -113h159v-92h-174v-20q0 -25 1 -37h173v-92h-156q37 -105 140 -105q69 0 125 41l55 -100q-79 -57 -185 -57q-104 0 -180 55t-103 166h-72v92h59q-1 10 -1 33v24h-58z" />
    <glyph glyph-name="afii61352" unicode="&#x2116;" horiz-adv-x="1155" 
d="M83 0v666h142l240 -345q40 -57 70 -112h2q-4 36 -4 105v352h128v-666h-129l-259 370q-17 24 -64 100h-2q4 -36 4 -89v-381h-128zM930 326q-90 0 -139 49.5t-49 122.5q0 71 50.5 122.5t139.5 51.5t138.5 -49.5t49.5 -121.5q0 -71 -51 -123t-139 -52zM932 416q64 0 64 82
q0 36 -16.5 60t-49.5 24q-65 0 -65 -81q0 -35 17 -60t50 -25z" />
    <glyph glyph-name="uni2117" unicode="&#x2117;" horiz-adv-x="836" 
d="M417 -14q-154 0 -263 109.5t-109 263.5t109 263.5t263 109.5q155 0 264 -109t109 -264t-109 -264t-264 -109zM417 63q127 0 209 82t82 214t-82 214t-209 82q-126 0 -208 -82t-82 -214t81.5 -214t208.5 -82zM285 152v417h151q75 0 115 -38.5t40 -96.5q0 -60 -42 -98
t-128 -38h-43v-146h-93zM378 367h43q76 0 76 64q0 66 -71 66h-48v-130z" />
    <glyph glyph-name="trademark" unicode="&#x2122;" horiz-adv-x="739" 
d="M311 370l40 296h83l53 -145q17 -48 17 -60h2l2 7q2 6 4 13.5t5.5 18.5t7.5 21l52 145h85l39 -296h-85l-13 129q-3 36 -3 52h-2q0 -14 -16 -61l-44 -120h-73l-40 119q-4 12 -8.5 27t-7 24.5t-2.5 10.5h-2q0 -14 -4 -53l-14 -128h-76zM120 370v228h-87v68h256v-68h-86v-228
h-83z" />
    <glyph glyph-name="uni2126" unicode="&#x2126;" horiz-adv-x="733" 
d="M42 0v107h117q-49 35 -83.5 103.5t-34.5 151.5q0 140 96 228t229 88t229 -88t96 -228q0 -83 -34.5 -151.5t-83.5 -103.5h117v-107h-267v103q68 45 99.5 105.5t31.5 148.5q0 84 -53.5 145.5t-134.5 61.5t-134.5 -61.5t-53.5 -145.5q0 -87 31.5 -148t100.5 -106v-103h-268z
" />
    <glyph glyph-name="partialdiff" unicode="&#x2202;" horiz-adv-x="630" 
d="M268 -11q-96 0 -162 63t-66 150q0 105 68 169t168 64q95 0 163 -34q-9 57 -35 96.5t-67 60t-85 28.5t-101 8l33 122q10 1 32 1q177 0 275.5 -94t98.5 -264q0 -161 -88.5 -265.5t-233.5 -104.5zM282 105q58 0 100.5 48.5t55.5 128.5q-21 17 -63 30t-81 13
q-50 0 -78.5 -34.5t-28.5 -87.5q0 -42 28 -70t67 -28z" />
    <glyph glyph-name="uni2206" unicode="&#x2206;" horiz-adv-x="833" 
d="M50 0l297 701h128l297 -701h-722zM238 125h346l-173 405z" />
    <glyph glyph-name="product" unicode="&#x220f;" horiz-adv-x="899" 
d="M170 -224v805h-109v119h756v-119h-109v-805h-133v805h-272v-805h-133z" />
    <glyph glyph-name="summation" unicode="&#x2211;" horiz-adv-x="658" 
d="M53 -146v87l273 400l-257 350v88h531v-116h-376l238 -318l-256 -376h409v-115h-562z" />
    <glyph glyph-name="minus" unicode="&#x2212;" horiz-adv-x="550" 
d="M86 227v101h369v-101h-369z" />
    <glyph glyph-name="uni2219" unicode="&#x2219;" horiz-adv-x="258" 
d="M129 204q-37 0 -62.5 25t-25.5 61t25.5 61t62.5 25t62.5 -25t25.5 -61t-25.5 -61t-62.5 -25z" />
    <glyph glyph-name="radical" unicode="&#x221a;" horiz-adv-x="582" 
d="M210 0l-187 487h141l108 -310h2l168 543h135l-243 -720h-124z" />
    <glyph glyph-name="infinity" unicode="&#x221e;" horiz-adv-x="947" 
d="M243 79q-85 0 -142.5 49t-57.5 126t60 129.5t143 52.5q93 0 228 -105q135 105 227 105q84 0 140.5 -49t56.5 -126q0 -78 -60 -130t-144 -52q-92 0 -225 105q-136 -105 -226 -105zM247 191q43 0 130 65q-88 67 -133 67q-31 0 -56 -18t-25 -46q0 -30 25 -49t59 -19z
M700 191q30 0 54.5 19t24.5 47q0 30 -25 48t-59 18q-43 0 -129 -64q89 -68 134 -68z" />
    <glyph glyph-name="uni2224" unicode="&#x2224;" horiz-adv-x="258" 
d="M129 204q-37 0 -62.5 25t-25.5 61t25.5 61t62.5 25t62.5 -25t25.5 -61t-25.5 -61t-62.5 -25z" />
    <glyph glyph-name="logicaland" unicode="&#x2227;" horiz-adv-x="258" 
d="M129 204q-37 0 -62.5 25t-25.5 61t25.5 61t62.5 25t62.5 -25t25.5 -61t-25.5 -61t-62.5 -25z" />
    <glyph glyph-name="integral" unicode="&#x222b;" horiz-adv-x="359" 
d="M34 -234q-59 0 -115 38l46 109q45 -21 80 -21q71 0 71 116v575q0 93 57 155t157 62q61 0 115 -39l-48 -108q-45 21 -78 21q-36 0 -54 -31.5t-18 -84.5v-575q0 -93 -56 -155t-157 -62z" />
    <glyph glyph-name="approxequal" unicode="&#x2248;" horiz-adv-x="635" 
d="M117 93l-54 93q64 78 160 78q50 0 108.5 -29t88.5 -29q59 0 109 58l50 -96q-28 -35 -72.5 -55t-93.5 -20t-108 29t-88 29q-53 0 -100 -58zM107 301l-54 93q28 35 70 56.5t90 21.5q50 0 108.5 -29t88.5 -29q26 0 56 15.5t53 41.5l50 -95q-28 -35 -72.5 -55.5t-93.5 -20.5
t-108.5 29t-87.5 29q-53 0 -100 -57z" />
    <glyph glyph-name="notequal" unicode="&#x2260;" horiz-adv-x="665" 
d="M220 -36l-87 48l68 113h-140v98h200l40 66h-240v98h300l84 138l88 -49l-57 -89h128v-98h-188l-40 -66h228v-98h-288z" />
    <glyph glyph-name="lessequal" unicode="&#x2264;" horiz-adv-x="549" 
d="M516 4l-452 202v92l452 201v-122l-315 -125l315 -125v-123zM64 -153v103h452v-103h-452z" />
    <glyph glyph-name="greaterequal" unicode="&#x2265;" horiz-adv-x="580" 
d="M64 4v123l315 125l-315 125v122l452 -201v-92zM64 -153v103h452v-103h-452z" />
    <glyph glyph-name="dotmath" unicode="&#x22c5;" horiz-adv-x="258" 
d="M129 204q-37 0 -62.5 25t-25.5 61t25.5 61t62.5 25t62.5 -25t25.5 -61t-25.5 -61t-62.5 -25z" />
    <glyph glyph-name="lozenge" unicode="&#x25ca;" horiz-adv-x="706" 
d="M303 -2l-254 327l252 350h113l256 -330l-251 -347h-116zM363 126l150 214l-156 202l-151 -214z" />
    <glyph glyph-name="numbersign.case" horiz-adv-x="567" 
d="M96 0l28 186h-109l17 99h106l16 103h-107l16 98h106l28 180h90l-27 -180h98l28 180h91l-27 -180h101l-17 -98h-99l-16 -103h101l-16 -99h-100l-28 -186h-90l28 186h-100l-28 -186h-90zM227 282h103l16 109h-103z" />
    <glyph glyph-name="dollar.case" horiz-adv-x="516" 
d="M313 -118h-106v107q-109 8 -176 65l59 97q58 -46 132 -50v179q-18 7 -31 15q-70 34 -106.5 78.5t-36.5 119.5q0 70 44 117.5t115 61.5v112h106v-109q82 -9 145 -53l-56 -98q-54 32 -105 39v-167l8 -4q41 -19 65 -33t52 -38t41 -57.5t13 -77.5q0 -74 -43 -123.5
t-120 -66.5v-114zM342 179q0 38 -45 65v-131q45 23 45 66zM180 495q0 -39 42 -63v124q-42 -18 -42 -61z" />
    <glyph glyph-name="percent.case" horiz-adv-x="868" 
d="M207 331q-88 0 -136 50t-48 122q0 71 48.5 122.5t135.5 51.5q88 0 136.5 -49.5t48.5 -120.5q0 -73 -49 -124.5t-136 -51.5zM208 414q36 0 53.5 25t17.5 64t-18.5 65t-53.5 26t-53 -24t-18 -63t18.5 -66t53.5 -27zM661 -10q-88 0 -136.5 50.5t-48.5 122.5q0 71 49 122.5
t136 51.5q88 0 136 -49.5t48 -121.5t-48.5 -124t-135.5 -52zM662 73q35 0 52.5 25.5t17.5 64.5q0 38 -18.5 64t-52.5 26q-36 0 -54 -24t-18 -63t19 -66t54 -27zM176 0l405 666h110l-405 -666h-110z" />
    <glyph glyph-name="parenleft.case" horiz-adv-x="347" 
d="M220 -114q-179 192 -179 450q0 139 53 252.5t126 185.5h126q-64 -71 -113 -181.5t-49 -253.5q0 -262 162 -453h-126z" />
    <glyph glyph-name="parenright.case" horiz-adv-x="348" 
d="M1 -114q163 187 163 442q0 258 -163 446h127q75 -77 127 -190t52 -253q0 -143 -53 -256.5t-126 -188.5h-127z" />
    <glyph glyph-name="hyphen.case" horiz-adv-x="330" 
d="M51 293v107h228v-107h-228z" />
    <glyph glyph-name="slash.case" horiz-adv-x="450" 
d="M1 -161l318 881h129l-318 -881h-129z" />
    <glyph glyph-name="less.case" horiz-adv-x="425" 
d="M300 -3l-259 247l258 251l73 -75l-179 -174l181 -171z" />
    <glyph glyph-name="equal.case" horiz-adv-x="526" 
d="M54 113v101h418v-101h-418zM54 300v102h418v-102h-418z" />
    <glyph glyph-name="greater.case" horiz-adv-x="425" 
d="M126 -3l-73 75l178 173l-181 172l74 78l260 -247z" />
    <glyph glyph-name="bracketleft.case" horiz-adv-x="341" 
d="M65 -110v881h250v-99h-123v-683h123v-99h-250z" />
    <glyph glyph-name="bracketright.case" horiz-adv-x="341" 
d="M26 -110v99h123v683h-123v99h250v-881h-250z" />
    <glyph glyph-name="braceleft.case" horiz-adv-x="406" 
d="M259 -110q-48 0 -83.5 33t-35.5 92v170q0 98 -114 101v101q114 1 114 100v161q0 61 35 92t85 31h119v-99h-62q-29 0 -39.5 -17t-10.5 -51v-145q0 -94 -91 -120v-2q91 -29 91 -126v-155q0 -37 9.5 -52t40.5 -15h62v-99h-120z" />
    <glyph glyph-name="braceright.case" horiz-adv-x="406" 
d="M26 -110v99h62q30 0 40.5 17t10.5 52v156q0 93 91 119v2q-91 29 -91 127v144q0 37 -9.5 51.5t-40.5 14.5h-63v99h121q48 0 83.5 -32.5t35.5 -91.5v-160q0 -99 114 -100v-101q-114 -3 -114 -101v-171q0 -61 -35.5 -92.5t-84.5 -31.5h-120z" />
    <glyph glyph-name="exclamdown.case" horiz-adv-x="298" 
d="M152 512q-36 0 -60 23.5t-24 57.5t24 58.5t60 24.5t60 -24.5t24 -58.5t-24 -57.5t-60 -23.5zM74 0l25 441h106l25 -441h-156z" />
    <glyph glyph-name="guillemotleft.case" horiz-adv-x="539" 
d="M152 152l-120 192l120 193h136l-119 -193l119 -192h-136zM374 152l-120 192l120 193h136l-119 -193l119 -192h-136z" />
    <glyph glyph-name="uni00AD.case" horiz-adv-x="330" 
d="M51 293v107h228v-107h-228z" />
    <glyph glyph-name="guillemotright.case" horiz-adv-x="539" 
d="M28 152l120 192l-120 193h136l120 -193l-120 -192h-136zM251 152l119 192l-119 193h135l121 -193l-121 -192h-135z" />
    <glyph glyph-name="questiondown.case" horiz-adv-x="411" 
d="M240 -12q-102 0 -155 48t-53 124q0 93 94 157q4 2 17 11t16 11.5l12.5 10t12 11.5l7 11.5t6 14.5t1.5 16v40h116v-53q0 -44 -16 -70t-53 -50q-37 -23 -53 -44t-16 -54q0 -75 88 -75q38 0 86 24l46 -98q-63 -35 -156 -35zM255 512q-36 0 -60 23.5t-24 57.5t24 58.5
t60 24.5t60 -24.5t24 -58.5t-24 -57.5t-60 -23.5z" />
    <glyph glyph-name="endash.case" horiz-adv-x="550" 
d="M48 294v102h454v-102h-454z" />
    <glyph glyph-name="emdash.case" horiz-adv-x="870" 
d="M48 294v102h774v-102h-774z" />
    <glyph glyph-name="perthousand.case" horiz-adv-x="1280" 
d="M207 331q-88 0 -136 50t-48 122q0 71 48.5 122.5t135.5 51.5q88 0 136.5 -49.5t48.5 -120.5q0 -73 -49 -124.5t-136 -51.5zM208 414q36 0 53.5 25t17.5 64t-18.5 65t-53.5 26t-53 -24t-18 -63t18.5 -66t53.5 -27zM661 -10q-88 0 -136.5 50.5t-48.5 122.5q0 71 49 122.5
t136 51.5q88 0 136 -49.5t48 -121.5t-48.5 -124t-135.5 -52zM662 73q35 0 52.5 25.5t17.5 64.5q0 38 -18.5 64t-52.5 26q-36 0 -54 -24t-18 -63t19 -66t54 -27zM1072 -10q-88 0 -136 50.5t-48 122.5q0 71 49 122.5t135 51.5q88 0 136.5 -49.5t48.5 -121.5q0 -73 -49 -124.5
t-136 -51.5zM1073 73q36 0 53.5 25.5t17.5 64.5q0 38 -18.5 64t-53.5 26t-53 -24t-18 -63t18.5 -66t53.5 -27zM176 0l405 666h110l-405 -666h-110z" />
    <glyph glyph-name="guilsinglleft.case" horiz-adv-x="320" 
d="M152 152l-120 192l120 193h140l-119 -193l119 -192h-140z" />
    <glyph glyph-name="guilsinglright.case" horiz-adv-x="320" 
d="M28 152l120 192l-120 193h140l120 -193l-120 -192h-140z" />
    <glyph glyph-name="zero.dnom" horiz-adv-x="394" 
d="M196 -6q-81 0 -123 49.5t-42 124.5t41.5 124t123.5 49t124.5 -49.5t42.5 -123.5q0 -75 -42.5 -124.5t-124.5 -49.5zM196 73q56 0 56 95q0 93 -56 93q-25 0 -40 -23t-15 -70t15 -71t40 -24z" />
    <glyph glyph-name="one.dnom" horiz-adv-x="286" 
d="M107 0v248l-73 -19l-22 79l121 27h77v-335h-103z" />
    <glyph glyph-name="two.dnom" horiz-adv-x="343" 
d="M25 0v54q95 74 120 102q35 38 35 69q0 36 -40 36q-41 0 -75 -31l-49 64q56 47 138 47q66 0 101 -29t35 -76q0 -42 -31 -78.5t-87 -80.5q12 2 48 2h85v-79h-280z" />
    <glyph glyph-name="three.dnom" horiz-adv-x="322" 
d="M106 -6q-58 0 -86 11l20 76q29 -11 62 -11q69 0 69 33q0 35 -92 37v60q39 1 61 12t22 27q0 25 -38 25q-32 0 -65 -20l-37 64q49 33 126 33q56 0 88 -20.5t32 -57.5q0 -31 -21 -50t-51 -27v-1q34 -5 59.5 -25t25.5 -57q0 -51 -46.5 -80t-128.5 -29z" />
    <glyph glyph-name="four.dnom" horiz-adv-x="362" 
d="M187 0v62h-170v62l176 211h97v-199h53v-74h-53v-62h-103zM114 134q18 2 43 2h34v91h-1z" />
    <glyph glyph-name="five.dnom" horiz-adv-x="314" 
d="M104 -6q-45 0 -77 10l15 77q32 -9 60 -9q69 0 69 39t-78 39q-30 0 -48 -4l11 189h212v-77h-121l-3 -43q59 -2 97 -26.5t38 -73.5q0 -58 -48 -89.5t-127 -31.5z" />
    <glyph glyph-name="six.dnom" horiz-adv-x="352" 
d="M180 -6q-72 0 -109 42.5t-37 111.5q0 87 64 140t173 53l23 -70q-132 -4 -160 -80q31 19 74 19q49 0 81 -26.5t32 -75.5q0 -53 -40.5 -83.5t-100.5 -30.5zM180 66q19 0 30.5 10t11.5 27q0 19 -12.5 29.5t-32.5 10.5q-29 0 -46 -12v-7q0 -29 14 -43.5t35 -14.5z" />
    <glyph glyph-name="seven.dnom" horiz-adv-x="321" 
d="M150 -15l-93 32l109 234h-146v84h267v-48z" />
    <glyph glyph-name="eight.dnom" horiz-adv-x="344" 
d="M172 -6q-62 0 -102 24.5t-40 66.5q0 47 69 82q-59 36 -59 81q0 42 39 67.5t94 25.5q57 0 95 -24t38 -65t-63 -74q72 -37 72 -88q0 -46 -41.5 -71t-101.5 -25zM171 59q20 0 33 8.5t13 21.5q0 6 -3 11t-13 11.5t-15 9.5t-21 11q-42 -26 -42 -43q0 -30 48 -30zM176 210
q36 24 36 39q0 12 -10.5 19.5t-26.5 7.5q-17 0 -28 -7.5t-11 -19.5q0 -3 0.5 -5.5t2 -5t3 -4.5t4.5 -4.5t5 -4t6 -4t6 -3.5t6.5 -4t6.5 -4z" />
    <glyph glyph-name="nine.dnom" horiz-adv-x="353" 
d="M79 -7l-23 70q56 1 100 22t58 59q-34 -18 -75 -18q-48 0 -80.5 26t-32.5 75q0 53 40.5 83.5t100.5 30.5q73 0 110.5 -42t37.5 -112q0 -87 -63 -140.5t-173 -53.5zM171 192q29 0 46 12v7q0 28 -14 43.5t-35 15.5q-19 0 -30.5 -11t-11.5 -27q0 -19 12.5 -29.5t32.5 -10.5z
" />
    <glyph glyph-name="zero.lf" horiz-adv-x="614" 
d="M307 -12q-57 0 -103 19.5t-76.5 52t-51.5 77.5t-30 93.5t-9 102.5q0 68 14.5 127.5t45 109.5t84.5 79t125 29q70 0 123.5 -29t85 -79t47 -110t15.5 -127q0 -53 -9.5 -102t-30.5 -94t-51.5 -77.5t-76.5 -52t-102 -19.5zM306 94q128 0 128 239t-127 239q-128 0 -128 -239
t127 -239z" />
    <glyph glyph-name="one.lf" horiz-adv-x="385" 
d="M166 0v549l-128 -38l-28 105l186 50h103v-666h-133z" />
    <glyph glyph-name="two.lf" horiz-adv-x="516" 
d="M24 0v72l80.5 74.5t75.5 76t71 85t44.5 81t19.5 83.5q0 49 -25.5 73.5t-67.5 24.5q-75 0 -138 -63l-64 84q93 87 220 87q105 0 162 -52.5t57 -137.5q0 -51 -19.5 -102t-58.5 -101t-77 -90t-93 -91q43 3 73 3h190v-107h-450z" />
    <glyph glyph-name="three.lf" horiz-adv-x="488" 
d="M144 -12q-72 0 -114 13l21 106q36 -12 89 -12q74 0 115 27t41 78q0 55 -46 78.5t-138 24.5v92q75 2 120.5 30.5t45.5 74.5q0 70 -87 70q-63 0 -116 -41l-56 86q81 63 198 63q96 0 148 -42t52 -111q0 -60 -40 -100t-98 -56v-2q65 -7 112.5 -51t47.5 -115
q0 -100 -80 -156.5t-215 -56.5z" />
    <glyph glyph-name="four.lf" horiz-adv-x="589" 
d="M331 0v138h-308v90l315 438h125v-424h97v-104h-97v-138h-132zM156 239q23 3 76 3h100v249h-2z" />
    <glyph glyph-name="five.lf" horiz-adv-x="470" 
d="M121 -12q-60 0 -96 11l20 107q37 -11 76 -11q74 0 119.5 30t45.5 89q0 112 -164 112q-43 0 -67 -4l20 344h333v-107h-212l-8 -130q113 -3 176.5 -56.5t63.5 -150.5q0 -111 -83 -172.5t-224 -61.5z" />
    <glyph glyph-name="six.lf" horiz-adv-x="558" 
d="M288 -12q-124 0 -187 84.5t-63 208.5q0 181 112.5 289t305.5 108l28 -108q-144 0 -219 -60q-63 -51 -80 -138q52 42 130 42q92 0 151.5 -56t59.5 -151q0 -99 -67 -159t-171 -60zM291 90q45 0 69.5 31t24.5 79q0 56 -26 84.5t-73 28.5q-66 0 -109 -40v-7q0 -86 30.5 -131
t83.5 -45z" />
    <glyph glyph-name="seven.lf" horiz-adv-x="479" 
d="M189 -26l-120 41l220 540h-270v111h421v-73z" />
    <glyph glyph-name="eight.lf" horiz-adv-x="528" 
d="M264 -12q-110 0 -171 48.5t-61 129.5q0 105 129 176q-53 31 -81 68t-28 92q0 78 61.5 127t152.5 49q98 0 155.5 -44t57.5 -124q0 -49 -32 -85.5t-87 -69.5q135 -69 135 -183q0 -85 -63.5 -134.5t-167.5 -49.5zM263 88q44 0 68.5 23.5t24.5 60.5q0 36 -27 62.5t-77 54.5
q-83 -54 -83 -118q0 -38 24 -60.5t70 -22.5zM268 406q76 49 76 99q0 33 -20 53.5t-56 20.5q-37 0 -58.5 -20t-21.5 -51q0 -55 80 -102z" />
    <glyph glyph-name="nine.lf" horiz-adv-x="557" 
d="M106 -18l-28 108q146 0 222 70q56 52 71 135q-49 -43 -130 -43q-92 0 -151.5 56t-59.5 151q0 99 67.5 159t169.5 60q85 0 143.5 -42t83 -106t24.5 -145q0 -185 -107.5 -294t-304.5 -109zM271 353q65 0 108 40v7q0 84 -30.5 130t-81.5 46q-45 0 -70 -31t-25 -79
q0 -56 26 -84.5t73 -28.5z" />
    <glyph glyph-name="exclam.sc" horiz-adv-x="267" 
d="M134 -9q-34 0 -56.5 22.5t-22.5 53.5t22.5 52.5t56.5 21.5q33 0 55.5 -22t22.5 -52q0 -31 -22.5 -53.5t-55.5 -22.5zM83 189l-22 334h146l-21 -334h-103z" />
    <glyph glyph-name="ampersand.sc" horiz-adv-x="569" 
d="M225 -9q-94 0 -145 40t-51 107q0 52 28.5 87t85.5 64q-53 61 -53 115q0 58 47 93.5t121 35.5t117 -34t43 -85q0 -41 -28.5 -73.5t-85.5 -64.5l86 -92q23 40 32 87l104 -18q-15 -80 -68 -146l97 -107h-148l-32 35q-72 -44 -150 -44zM249 334q58 34 58 72q0 20 -13.5 32
t-35.5 12t-35.5 -12t-13.5 -33q0 -28 40 -71zM237 83q41 0 74 22l-107 115q-46 -31 -46 -73q0 -30 21.5 -47t57.5 -17z" />
    <glyph glyph-name="question.sc" horiz-adv-x="358" 
d="M90 189v30q0 35 13.5 57t41.5 40q26 17 38 31.5t12 34.5q0 49 -66 49q-40 0 -70 -18l-43 89q58 31 141 31q85 0 130 -38t45 -98q0 -65 -70 -116l-19.5 -13t-18.5 -13.5l-13 -12t-10.5 -16.5t-2.5 -20v-17h-108zM145 -9q-34 0 -56.5 22.5t-22.5 53.5t22.5 52.5t56.5 21.5
q33 0 55 -21.5t22 -52.5t-22 -53.5t-55 -22.5z" />
    <glyph glyph-name="a.sc" horiz-adv-x="584" 
d="M213 188h145l-41 112q-31 86 -31 94h-2q0 -8 -30 -94zM15 0l210 523h128l216 -523h-142l-34 91h-214l-32 -91h-132z" />
    <glyph glyph-name="b.sc" horiz-adv-x="516" 
d="M69 0v523h195q194 0 194 -133q0 -95 -97 -118v-2q51 -6 85 -38.5t34 -86.5q0 -145 -218 -145h-193zM200 96h58q48 0 70 14t22 49q0 65 -87 65h-63v-128zM200 310h48q44 0 63.5 15t19.5 47q0 56 -80 56h-51v-118z" />
    <glyph glyph-name="c.sc" horiz-adv-x="521" 
d="M321 -9q-136 0 -209.5 77.5t-73.5 192.5t76 193.5t212 78.5q102 0 164 -44l-57 -97q-48 32 -108 32q-68 0 -106.5 -43.5t-38.5 -114.5q0 -76 37.5 -121t108.5 -45q67 0 119 38l51 -95q-70 -52 -175 -52z" />
    <glyph glyph-name="d.sc" horiz-adv-x="599" 
d="M69 0v523h179q156 0 234.5 -68t78.5 -186q0 -121 -80.5 -195t-237.5 -74h-174zM203 105h51q167 0 167 159q0 81 -41.5 117.5t-130.5 36.5h-46v-313z" />
    <glyph glyph-name="e.sc" horiz-adv-x="470" 
d="M69 0v523h344v-104h-213v-103h190v-96h-190v-116h218v-104h-349z" />
    <glyph glyph-name="f.sc" horiz-adv-x="447" 
d="M69 0v523h336v-105h-202v-116h180v-100h-180v-202h-134z" />
    <glyph glyph-name="g.sc" horiz-adv-x="595" 
d="M333 -9q-139 0 -217 78.5t-78 191.5q0 114 82.5 193t223.5 79q112 0 181 -46l-56 -98q-54 34 -127 34q-80 0 -121.5 -42t-41.5 -117q0 -77 39 -122.5t117 -45.5q46 0 81 16v89h-93v94h220v-254q-82 -50 -210 -50z" />
    <glyph glyph-name="h.sc" horiz-adv-x="629" 
d="M69 0v523h134v-199h224v199h132v-523h-132v216h-224v-216h-134z" />
    <glyph glyph-name="i.sc" horiz-adv-x="282" 
d="M74 0v523h134v-523h-134z" />
    <glyph glyph-name="j.sc" horiz-adv-x="295" 
d="M58 -171q-50 0 -91 15l20 104q21 -8 41 -8q34 0 48.5 16t14.5 55v512h135v-527q0 -81 -45 -124t-123 -43z" />
    <glyph glyph-name="k.sc" horiz-adv-x="544" 
d="M69 0v523h133v-230l180 230h144l-191 -242l196 -281h-148l-181 258v-258h-133z" />
    <glyph glyph-name="l.sc" horiz-adv-x="448" 
d="M72 0v523h133v-418h210v-105h-343z" />
    <glyph glyph-name="m.sc" horiz-adv-x="747" 
d="M39 0l76 523h129l101 -310l25 -87h2q14 52 26 87l106 310h129l74 -523h-135l-31 246q-8 67 -8 78h-2q0 -8 -21 -76l-81 -248h-127l-81 248q-21 67 -21 76h-2q0 -28 -7 -78l-34 -246h-118z" />
    <glyph glyph-name="n.sc" horiz-adv-x="623" 
d="M69 0v523h133l175 -242q16 -22 30.5 -45l22.5 -36l7 -12h2l-1 6q0 5 -0.5 14t-1 19.5t-1 23.5t-0.5 24v248h119v-523h-121l-190 262q-42 58 -56 85h-2l1 -5v-11.5t0.5 -16.5t1 -21t0.5 -23v-270h-119z" />
    <glyph glyph-name="o.sc" horiz-adv-x="650" 
d="M327 -9q-135 0 -212 78t-77 192q0 112 76.5 192t210.5 80q135 0 211 -77.5t76 -191.5q0 -115 -74.5 -194t-210.5 -79zM325 97q73 0 109.5 46.5t36.5 117.5q0 72 -36 119t-108 47t-109.5 -46.5t-37.5 -116.5q0 -72 37 -119.5t108 -47.5z" />
    <glyph glyph-name="p.sc" horiz-adv-x="510" 
d="M68 0v523h196q97 0 156 -43.5t59 -128.5q0 -87 -60.5 -131.5t-168.5 -44.5h-49v-175h-133zM201 272h48q99 0 99 78q0 39 -23 57t-72 18h-52v-153z" />
    <glyph glyph-name="q.sc" horiz-adv-x="650" 
d="M502 -145q-71 0 -127 31t-117 113q-103 18 -161.5 91.5t-58.5 170.5q0 112 76.5 192t210.5 80q135 0 211 -77.5t76 -191.5q0 -95 -52 -167.5t-148 -95.5q22 -27 43 -38.5t52 -11.5q39 0 65 21l42 -86q-44 -31 -112 -31zM325 95q74 0 110.5 46.5t36.5 119.5
q0 72 -36.5 119t-108.5 47q-73 0 -110.5 -46.5t-37.5 -116.5q0 -74 37.5 -121.5t108.5 -47.5z" />
    <glyph glyph-name="r.sc" horiz-adv-x="532" 
d="M69 0v523h194q102 0 157 -39.5t55 -115.5q0 -62 -34.5 -96t-87.5 -45v-1q33 -24 69 -81l95 -145h-143l-95 149q-24 35 -37.5 45t-31.5 10h-7v-204h-134zM203 294h58q81 0 81 65q0 66 -87 66h-52v-131z" />
    <glyph glyph-name="s.sc" horiz-adv-x="440" 
d="M202 -9q-109 0 -173 48l52 93q55 -38 114 -38q38 0 59.5 12.5t21.5 35.5q0 12 -5 21t-17.5 16.5t-24.5 13t-35 15l-39 16.5q-57 25 -86 61t-29 94q0 72 53 113t132 41q92 0 163 -42l-50 -93q-46 31 -105 31q-67 0 -67 -44q0 -8 2 -14t7.5 -12t10.5 -9.5t16 -9t18 -8.5
t23 -9t25 -10q64 -28 100 -64t36 -96q0 -77 -53 -119.5t-149 -42.5z" />
    <glyph glyph-name="t.sc" horiz-adv-x="475" 
d="M170 0v416h-154v107h443v-107h-155v-416h-134z" />
    <glyph glyph-name="u.sc" horiz-adv-x="602" 
d="M306 -9q-241 0 -241 226v306h134v-296q0 -70 25 -99.5t85 -29.5q56 0 80.5 30t24.5 94v301h123v-292q0 -116 -59 -178t-172 -62z" />
    <glyph glyph-name="v.sc" horiz-adv-x="570" 
d="M225 0l-211 523h144l108 -297q27 -77 27 -86h2q0 12 26 86l103 297h131l-203 -523h-127z" />
    <glyph glyph-name="w.sc" horiz-adv-x="771" 
d="M164 0l-148 523h140l64 -246q21 -81 21 -98h2q0 14 24 103l63 241h127l62 -240l22 -103h2q11 56 23 99l64 244h125l-149 -523h-123l-70 269l-23 98h-2q-11 -55 -24 -98l-78 -269h-122z" />
    <glyph glyph-name="x.sc" horiz-adv-x="531" 
d="M19 0l174 269l-165 254h150l95 -155l89 155h132l-159 -254l175 -269h-146l-109 173l-103 -173h-133z" />
    <glyph glyph-name="y.sc" horiz-adv-x="511" 
d="M191 0v197l-181 326h147l106 -210h2l105 210h130l-174 -326v-197h-135z" />
    <glyph glyph-name="z.sc" horiz-adv-x="486" 
d="M41 0v85l239 332h-230v106h391v-84l-240 -334h248v-105h-408z" />
    <glyph glyph-name="exclamdown.sc" horiz-adv-x="267" 
d="M133 381q-33 0 -55.5 22t-22.5 53t22.5 53t55.5 22q34 0 57 -22t23 -53t-23 -53t-57 -22zM61 0l21 334h102l22 -334h-145z" />
    <glyph glyph-name="mu.sc" horiz-adv-x="747" 
d="M39 0l76 523h129l101 -310l25 -87h2q14 52 26 87l106 310h129l74 -523h-135l-31 246q-8 67 -8 78h-2q0 -8 -21 -76l-81 -248h-127l-81 248q-21 67 -21 76h-2q0 -28 -7 -78l-34 -246h-118z" />
    <glyph glyph-name="questiondown.sc" horiz-adv-x="358" 
d="M201 -10q-85 0 -130 38t-45 98q0 65 70 116q4 3 22.5 15.5t23.5 17.5t11.5 16.5t6.5 25.5v17h107v-30q0 -62 -54 -97q-26 -17 -38 -31.5t-12 -34.5q0 -49 65 -49q39 0 71 18l42 -89q-58 -31 -140 -31zM213 382q-34 0 -56 21.5t-22 52.5t22 53.5t56 22.5t56.5 -22.5
t22.5 -53.5t-22.5 -52.5t-56.5 -21.5z" />
    <glyph glyph-name="germandbls.sc" horiz-adv-x="878" 
d="M202 -9q-109 0 -173 48l52 93q55 -38 114 -38q38 0 59.5 12.5t21.5 35.5q0 12 -5 21t-17.5 16.5t-24.5 13t-35 15l-39 16.5q-57 26 -86 61.5t-29 93.5q0 72 53 113t132 41q92 0 163 -42l-50 -93q-46 31 -105 31q-67 0 -67 -44q0 -8 2 -14t7.5 -12t10.5 -9.5t16 -9
t18 -8.5t23 -9t25 -10q64 -28 100 -64t36 -96q0 -77 -53 -119.5t-149 -42.5zM640 -9q-109 0 -173 48l52 93q55 -38 114 -38q38 0 59.5 12.5t21.5 35.5q0 12 -5 21t-17.5 16.5t-24.5 13t-35 15l-39 16.5q-57 26 -86 61.5t-29 93.5q0 72 52.5 113t131.5 41q93 0 164 -42
l-50 -93q-46 31 -105 31q-67 0 -67 -44q0 -8 2 -14t7.5 -12t10.5 -9.5t16 -9t18 -8.5t23 -9t25 -10q64 -28 100 -64t36 -96q0 -77 -53 -119.5t-149 -42.5z" />
    <glyph glyph-name="agrave.sc" horiz-adv-x="584" 
d="M213 188h145l-41 112q-31 86 -31 94h-2q0 -8 -30 -94zM15 0l210 523h128l216 -523h-142l-34 91h-214l-32 -91h-132zM245 569l-140 135h171l83 -135h-114z" />
    <glyph glyph-name="aacute.sc" horiz-adv-x="584" 
d="M225 569l83 135h172l-140 -135h-115zM213 188h145l-41 112q-31 86 -31 94h-2q0 -8 -30 -94zM15 0l210 523h128l216 -523h-142l-34 91h-214l-32 -91h-132z" />
    <glyph glyph-name="acircumflex.sc" horiz-adv-x="584" 
d="M114 570l127 159h102l125 -159h-113l-64 66l-64 -66h-113zM213 188h145l-41 112q-31 86 -31 94h-2q0 -8 -30 -94zM15 0l210 523h128l216 -523h-142l-34 91h-214l-32 -91h-132z" />
    <glyph glyph-name="atilde.sc" horiz-adv-x="584" 
d="M213 188h145l-41 112q-31 86 -31 94h-2q0 -8 -30 -94zM15 0l210 523h128l216 -523h-142l-34 91h-214l-32 -91h-132zM350 574q-32 0 -66 17.5t-52 17.5q-24 0 -54 -30l-61 53q17 30 46.5 52.5t66.5 22.5q33 0 66.5 -17.5t51.5 -17.5q31 0 56 31l61 -53q-45 -76 -115 -76z
" />
    <glyph glyph-name="adieresis.sc" horiz-adv-x="584" 
d="M186 570q-32 0 -53 21t-21 51q0 29 21 50t53 21t53 -21t21 -50q0 -30 -21 -51t-53 -21zM396 570q-32 0 -53 21t-21 51q0 29 21 50t53 21t53 -21t21 -50q0 -30 -21 -51t-53 -21zM213 188h145l-41 112q-31 86 -31 94h-2q0 -8 -30 -94zM15 0l210 523h128l216 -523h-142
l-34 91h-214l-32 -91h-132z" />
    <glyph glyph-name="aring.sc" horiz-adv-x="584" 
d="M291 567q-44 0 -77 31t-33 76q0 44 33 75t77 31t77 -31t33 -75q0 -45 -33 -76t-77 -31zM291 623q21 0 33.5 15t12.5 36t-12.5 35.5t-33.5 14.5t-33.5 -14.5t-12.5 -35.5t12.5 -36t33.5 -15zM213 188h145l-41 112q-31 86 -31 94h-2q0 -8 -30 -94zM15 0l210 523h128
l216 -523h-142l-34 91h-214l-32 -91h-132z" />
    <glyph glyph-name="ae.sc" horiz-adv-x="728" 
d="M-17 0l311 523h383v-105h-203v-102h179v-96h-179v-115h208v-105h-338v95h-163l-54 -95h-144zM234 193h110v194z" />
    <glyph glyph-name="ccedilla.sc" horiz-adv-x="521" 
d="M267 -230q-49 0 -82 15l17 60q22 -11 51 -11q48 0 48 34q0 42 -71 38l33 89q-109 17 -167 90.5t-58 175.5q0 115 76 193.5t212 78.5q102 0 164 -44l-57 -97q-48 32 -108 32q-68 0 -106.5 -43.5t-38.5 -114.5q0 -76 37.5 -121t108.5 -45q67 0 119 38l51 -95
q-62 -47 -158 -51l-17 -47q32 -7 51.5 -28.5t19.5 -53.5q0 -41 -35 -67t-90 -26z" />
    <glyph glyph-name="egrave.sc" horiz-adv-x="470" 
d="M195 569l-140 135h171l83 -135h-114zM69 0v523h344v-104h-213v-103h190v-96h-190v-116h218v-104h-349z" />
    <glyph glyph-name="eacute.sc" horiz-adv-x="470" 
d="M174 569l83 135h172l-140 -135h-115zM69 0v523h344v-104h-213v-103h190v-96h-190v-116h218v-104h-349z" />
    <glyph glyph-name="ecircumflex.sc" horiz-adv-x="470" 
d="M64 570l127 159h102l125 -159h-113l-64 66l-64 -66h-113zM69 0v523h344v-104h-213v-103h190v-96h-190v-116h218v-104h-349z" />
    <glyph glyph-name="edieresis.sc" horiz-adv-x="470" 
d="M136 570q-32 0 -53 21t-21 51q0 29 21 50t53 21t53 -21t21 -50q0 -30 -21 -51t-53 -21zM346 570q-32 0 -53 21t-21 51q0 29 21 50t53 21t53 -21t21 -50q0 -30 -21 -51t-53 -21zM69 0v523h344v-104h-213v-103h190v-96h-190v-116h218v-104h-349z" />
    <glyph glyph-name="igrave.sc" horiz-adv-x="282" 
d="M74 0v523h134v-523h-134zM94 569l-140 135h171l83 -135h-114z" />
    <glyph glyph-name="iacute.sc" horiz-adv-x="282" 
d="M75 569l83 135h172l-140 -135h-115zM74 0v523h134v-523h-134z" />
    <glyph glyph-name="icircumflex.sc" horiz-adv-x="282" 
d="M-36 570l127 159h102l125 -159h-113l-64 66l-64 -66h-113zM74 0v523h134v-523h-134z" />
    <glyph glyph-name="idieresis.sc" horiz-adv-x="282" 
d="M36 570q-32 0 -53 21t-21 51q0 29 21 50t53 21t53 -21t21 -50q0 -30 -21 -51t-53 -21zM246 570q-32 0 -53 21t-21 51q0 29 21 50t53 21t53 -21t21 -50q0 -30 -21 -51t-53 -21zM74 0v523h134v-523h-134z" />
    <glyph glyph-name="eth.sc" horiz-adv-x="599" 
d="M69 0v211h-51v95h51v217h179q156 0 234.5 -68t78.5 -186q0 -121 -80.5 -195t-237.5 -74h-174zM203 105h51q167 0 167 159q0 81 -41.5 117.5t-130.5 36.5h-46v-112h101v-95h-101v-106z" />
    <glyph glyph-name="ntilde.sc" horiz-adv-x="623" 
d="M69 0v523h133l175 -242q16 -22 30.5 -45l22.5 -36l7 -12h2l-1 6q0 5 -0.5 14t-1 19.5t-1 23.5t-0.5 24v248h119v-523h-121l-190 262q-42 58 -56 85h-2l1 -5v-11.5t0.5 -16.5t1 -21t0.5 -23v-270h-119zM369 574q-32 0 -66 17.5t-52 17.5q-24 0 -54 -30l-61 53
q17 30 46.5 52.5t66.5 22.5q33 0 66.5 -17.5t51.5 -17.5q31 0 56 31l61 -53q-45 -76 -115 -76z" />
    <glyph glyph-name="ograve.sc" horiz-adv-x="650" 
d="M327 -9q-135 0 -212 78t-77 192q0 112 76.5 192t210.5 80q135 0 211 -77.5t76 -191.5q0 -115 -74.5 -194t-210.5 -79zM325 97q73 0 109.5 46.5t36.5 117.5q0 72 -36 119t-108 47t-109.5 -46.5t-37.5 -116.5q0 -72 37 -119.5t108 -47.5zM278 569l-140 135h171l83 -135
h-114z" />
    <glyph glyph-name="oacute.sc" horiz-adv-x="650" 
d="M259 569l83 135h172l-140 -135h-115zM327 -9q-135 0 -212 78t-77 192q0 112 76.5 192t210.5 80q135 0 211 -77.5t76 -191.5q0 -115 -74.5 -194t-210.5 -79zM325 97q73 0 109.5 46.5t36.5 117.5q0 72 -36 119t-108 47t-109.5 -46.5t-37.5 -116.5q0 -72 37 -119.5
t108 -47.5z" />
    <glyph glyph-name="ocircumflex.sc" horiz-adv-x="650" 
d="M148 570l127 159h102l125 -159h-113l-64 66l-64 -66h-113zM327 -9q-135 0 -212 78t-77 192q0 112 76.5 192t210.5 80q135 0 211 -77.5t76 -191.5q0 -115 -74.5 -194t-210.5 -79zM325 97q73 0 109.5 46.5t36.5 117.5q0 72 -36 119t-108 47t-109.5 -46.5t-37.5 -116.5
q0 -72 37 -119.5t108 -47.5z" />
    <glyph glyph-name="otilde.sc" horiz-adv-x="650" 
d="M327 -9q-135 0 -212 78t-77 192q0 112 76.5 192t210.5 80q135 0 211 -77.5t76 -191.5q0 -115 -74.5 -194t-210.5 -79zM325 97q73 0 109.5 46.5t36.5 117.5q0 72 -36 119t-108 47t-109.5 -46.5t-37.5 -116.5q0 -72 37 -119.5t108 -47.5zM384 574q-32 0 -66 17.5t-52 17.5
q-24 0 -54 -30l-61 53q17 30 46.5 52.5t66.5 22.5q33 0 66.5 -17.5t51.5 -17.5q31 0 56 31l61 -53q-45 -76 -115 -76z" />
    <glyph glyph-name="odieresis.sc" horiz-adv-x="650" 
d="M220 570q-32 0 -53 21t-21 51q0 29 21 50t53 21t53 -21t21 -50q0 -30 -21 -51t-53 -21zM430 570q-32 0 -53 21t-21 51q0 29 21 50t53 21t53 -21t21 -50q0 -30 -21 -51t-53 -21zM327 -9q-135 0 -212 78t-77 192q0 112 76.5 192t210.5 80q135 0 211 -77.5t76 -191.5
q0 -115 -74.5 -194t-210.5 -79zM325 97q73 0 109.5 46.5t36.5 117.5q0 72 -36 119t-108 47t-109.5 -46.5t-37.5 -116.5q0 -72 37 -119.5t108 -47.5z" />
    <glyph glyph-name="oslash.sc" horiz-adv-x="650" 
d="M146 -61l-81 55l54 71q-81 76 -81 196q0 112 76.5 192t210.5 80q72 0 131 -25l53 71l80 -56l-52 -69q75 -77 75 -190q0 -115 -74.5 -194t-210.5 -79q-72 0 -127 23zM180 264q0 -56 21 -96l187 247q-25 12 -61 12q-72 0 -109.5 -46.5t-37.5 -116.5zM325 97
q73 0 109.5 46.5t36.5 117.5q0 51 -18 91l-186 -245q27 -10 58 -10z" />
    <glyph glyph-name="ugrave.sc" horiz-adv-x="602" 
d="M255 569l-140 135h171l83 -135h-114zM306 -9q-241 0 -241 226v306h134v-296q0 -70 25 -99.5t85 -29.5q56 0 80.5 30t24.5 94v301h123v-292q0 -116 -59 -178t-172 -62z" />
    <glyph glyph-name="uacute.sc" horiz-adv-x="602" 
d="M235 569l83 135h172l-140 -135h-115zM306 -9q-241 0 -241 226v306h134v-296q0 -70 25 -99.5t85 -29.5q56 0 80.5 30t24.5 94v301h123v-292q0 -116 -59 -178t-172 -62z" />
    <glyph glyph-name="ucircumflex.sc" horiz-adv-x="602" 
d="M124 570l127 159h102l125 -159h-113l-64 66l-64 -66h-113zM306 -9q-241 0 -241 226v306h134v-296q0 -70 25 -99.5t85 -29.5q56 0 80.5 30t24.5 94v301h123v-292q0 -116 -59 -178t-172 -62z" />
    <glyph glyph-name="udieresis.sc" horiz-adv-x="602" 
d="M196 570q-32 0 -53 21t-21 51q0 29 21 50t53 21t53 -21t21 -50q0 -30 -21 -51t-53 -21zM406 570q-32 0 -53 21t-21 51q0 29 21 50t53 21t53 -21t21 -50q0 -30 -21 -51t-53 -21zM306 -9q-241 0 -241 226v306h134v-296q0 -70 25 -99.5t85 -29.5q56 0 80.5 30t24.5 94v301
h123v-292q0 -116 -59 -178t-172 -62z" />
    <glyph glyph-name="yacute.sc" horiz-adv-x="511" 
d="M192 569l83 135h172l-140 -135h-115zM191 0v197l-181 326h147l106 -210h2l105 210h130l-174 -326v-197h-135z" />
    <glyph glyph-name="thorn.sc" horiz-adv-x="512" 
d="M68 0v523h133v-78h66q97 0 156 -43t59 -128q0 -88 -60.5 -132.5t-168.5 -44.5h-52v-97h-133zM201 194h51q99 0 99 78q0 39 -23 57t-72 18h-55v-153z" />
    <glyph glyph-name="ydieresis.sc" horiz-adv-x="511" 
d="M153 570q-32 0 -53 21t-21 51q0 29 21 50t53 21t53 -21t21 -50q0 -30 -21 -51t-53 -21zM363 570q-32 0 -53 21t-21 51q0 29 21 50t53 21t53 -21t21 -50q0 -30 -21 -51t-53 -21zM191 0v197l-181 326h147l106 -210h2l105 210h130l-174 -326v-197h-135z" />
    <glyph glyph-name="amacron.sc" horiz-adv-x="584" 
d="M213 188h145l-41 112q-31 86 -31 94h-2q0 -8 -30 -94zM15 0l210 523h128l216 -523h-142l-34 91h-214l-32 -91h-132zM150 590v95h283v-95h-283z" />
    <glyph glyph-name="abreve.sc" horiz-adv-x="584" 
d="M213 188h145l-41 112q-31 86 -31 94h-2q0 -8 -30 -94zM15 0l210 523h128l216 -523h-142l-34 91h-214l-32 -91h-132zM292 558q-66 0 -114 38t-55 113h109q5 -65 60 -65q54 0 60 65h108q-6 -74 -54 -112.5t-114 -38.5z" />
    <glyph glyph-name="aogonek.sc" horiz-adv-x="584" 
d="M476 -230q-55 0 -87.5 26.5t-32.5 72.5q0 69 71 131l-34 91h-214l-32 -91h-132l210 523h128l216 -523h-11q-46 -2 -77.5 -37t-31.5 -77q0 -45 48 -45q19 0 41 9l17 -62q-34 -18 -79 -18zM213 188h145l-41 112q-31 86 -31 94h-2q0 -8 -30 -94z" />
    <glyph glyph-name="cacute.sc" horiz-adv-x="521" 
d="M240 569l83 135h172l-140 -135h-115zM321 -9q-136 0 -209.5 77.5t-73.5 192.5t76 193.5t212 78.5q102 0 164 -44l-57 -97q-48 32 -108 32q-68 0 -106.5 -43.5t-38.5 -114.5q0 -76 37.5 -121t108.5 -45q67 0 119 38l51 -95q-70 -52 -175 -52z" />
    <glyph glyph-name="ccircumflex.sc" horiz-adv-x="521" 
d="M129 570l127 159h102l125 -159h-113l-64 66l-64 -66h-113zM321 -9q-136 0 -209.5 77.5t-73.5 192.5t76 193.5t212 78.5q102 0 164 -44l-57 -97q-48 32 -108 32q-68 0 -106.5 -43.5t-38.5 -114.5q0 -76 37.5 -121t108.5 -45q67 0 119 38l51 -95q-70 -52 -175 -52z" />
    <glyph glyph-name="cdotaccent.sc" horiz-adv-x="521" 
d="M321 -9q-136 0 -209.5 77.5t-73.5 192.5t76 193.5t212 78.5q102 0 164 -44l-57 -97q-48 32 -108 32q-68 0 -106.5 -43.5t-38.5 -114.5q0 -76 37.5 -121t108.5 -45q67 0 119 38l51 -95q-70 -52 -175 -52zM306 584q-32 0 -53 21t-21 51t21 50.5t53 20.5t53 -20.5t21 -50.5
t-21 -51t-53 -21z" />
    <glyph glyph-name="ccaron.sc" horiz-adv-x="521" 
d="M254 569l-125 159h113l64 -66l64 66h113l-127 -159h-102zM321 -9q-136 0 -209.5 77.5t-73.5 192.5t76 193.5t212 78.5q102 0 164 -44l-57 -97q-48 32 -108 32q-68 0 -106.5 -43.5t-38.5 -114.5q0 -76 37.5 -121t108.5 -45q67 0 119 38l51 -95q-70 -52 -175 -52z" />
    <glyph glyph-name="dcaron.sc" horiz-adv-x="599" 
d="M235 569l-125 159h113l64 -66l64 66h113l-127 -159h-102zM69 0v523h179q156 0 234.5 -68t78.5 -186q0 -121 -80.5 -195t-237.5 -74h-174zM203 105h51q167 0 167 159q0 81 -41.5 117.5t-130.5 36.5h-46v-313z" />
    <glyph glyph-name="dcroat.sc" horiz-adv-x="599" 
d="M69 0v211h-51v95h51v217h179q156 0 234.5 -68t78.5 -186q0 -121 -80.5 -195t-237.5 -74h-174zM203 105h51q167 0 167 159q0 81 -41.5 117.5t-130.5 36.5h-46v-112h101v-95h-101v-106z" />
    <glyph glyph-name="emacron.sc" horiz-adv-x="470" 
d="M100 590v95h283v-95h-283zM69 0v523h344v-104h-213v-103h190v-96h-190v-116h218v-104h-349z" />
    <glyph glyph-name="ebreve.sc" horiz-adv-x="470" 
d="M242 558q-66 0 -114 38t-55 113h109q5 -65 60 -65q54 0 60 65h108q-6 -74 -54 -112.5t-114 -38.5zM69 0v523h344v-104h-213v-103h190v-96h-190v-116h218v-104h-349z" />
    <glyph glyph-name="edotaccent.sc" horiz-adv-x="470" 
d="M241 584q-32 0 -53 21t-21 51t21 50.5t53 20.5t53 -20.5t21 -50.5t-21 -51t-53 -21zM69 0v523h344v-104h-213v-103h190v-96h-190v-116h218v-104h-349z" />
    <glyph glyph-name="eogonek.sc" horiz-adv-x="470" 
d="M333 -230q-55 0 -87.5 26.5t-32.5 72.5q0 41 25.5 79t59.5 52h-229v523h344v-104h-213v-103h190v-96h-190v-116h218v-104h-1q-48 0 -79.5 -34.5t-31.5 -79.5t48 -45q19 0 41 9l16 -62q-34 -18 -78 -18z" />
    <glyph glyph-name="ecaron.sc" horiz-adv-x="470" 
d="M189 569l-125 159h113l64 -66l64 66h113l-127 -159h-102zM69 0v523h344v-104h-213v-103h190v-96h-190v-116h218v-104h-349z" />
    <glyph glyph-name="gcircumflex.sc" horiz-adv-x="595" 
d="M146 570l127 159h102l125 -159h-113l-64 66l-64 -66h-113zM333 -9q-139 0 -217 78.5t-78 191.5q0 114 82.5 193t223.5 79q112 0 181 -46l-56 -98q-54 34 -127 34q-80 0 -121.5 -42t-41.5 -117q0 -77 39 -122.5t117 -45.5q46 0 81 16v89h-93v94h220v-254q-82 -50 -210 -50
z" />
    <glyph glyph-name="gbreve.sc" horiz-adv-x="595" 
d="M333 -9q-139 0 -217 78.5t-78 191.5q0 114 82.5 193t223.5 79q112 0 181 -46l-56 -98q-54 34 -127 34q-80 0 -121.5 -42t-41.5 -117q0 -77 39 -122.5t117 -45.5q46 0 81 16v89h-93v94h220v-254q-82 -50 -210 -50zM323 558q-66 0 -114 38t-55 113h109q5 -65 60 -65
q53 0 60 65h108q-6 -74 -54 -112.5t-114 -38.5z" />
    <glyph glyph-name="gdotaccent.sc" horiz-adv-x="595" 
d="M333 -9q-139 0 -217 78.5t-78 191.5q0 114 82.5 193t223.5 79q112 0 181 -46l-56 -98q-54 34 -127 34q-80 0 -121.5 -42t-41.5 -117q0 -77 39 -122.5t117 -45.5q46 0 81 16v89h-93v94h220v-254q-82 -50 -210 -50zM323 584q-32 0 -53 21t-21 51t21 50.5t53 20.5t53 -20.5
t21 -50.5t-21 -51t-53 -21z" />
    <glyph glyph-name="gcommaaccent.sc" horiz-adv-x="595" 
d="M262 -227q28 26 28 52q0 17 -20 37.5t-20 42.5q0 23 18 38t45 15q30 0 51.5 -19t21.5 -50q0 -64 -58 -116h-66zM333 -9q-139 0 -217 78.5t-78 191.5q0 114 82.5 193t223.5 79q112 0 181 -46l-56 -98q-54 34 -127 34q-80 0 -121.5 -42t-41.5 -117q0 -77 39 -122.5
t117 -45.5q46 0 81 16v89h-93v94h220v-254q-82 -50 -210 -50z" />
    <glyph glyph-name="hcircumflex.sc" horiz-adv-x="629" 
d="M137 570l127 159h102l125 -159h-113l-64 66l-64 -66h-113zM69 0v523h134v-199h224v199h132v-523h-132v216h-224v-216h-134z" />
    <glyph glyph-name="hbar.sc" horiz-adv-x="643" 
d="M25 355v95h52v73h133v-73h224v73h133v-73h51v-95h-51v-355h-133v188h-224v-188h-133v355h-52zM210 296h224v59h-224v-59z" />
    <glyph glyph-name="itilde.sc" horiz-adv-x="282" 
d="M74 0v523h134v-523h-134zM200 574q-32 0 -66 17.5t-52 17.5q-24 0 -54 -30l-61 53q17 30 46.5 52.5t66.5 22.5q33 0 66.5 -17.5t51.5 -17.5q31 0 56 31l61 -53q-45 -76 -115 -76z" />
    <glyph glyph-name="imacron.sc" horiz-adv-x="282" 
d="M74 0v523h134v-523h-134zM0 590v95h283v-95h-283z" />
    <glyph glyph-name="ibreve.sc" horiz-adv-x="282" 
d="M74 0v523h134v-523h-134zM141 558q-66 0 -114 38t-55 113h109q5 -65 60 -65q53 0 60 65h108q-6 -74 -54 -112.5t-114 -38.5z" />
    <glyph glyph-name="iogonek.sc" horiz-adv-x="282" 
d="M139 -230q-55 0 -87.5 26.5t-32.5 72.5q0 40 24.5 77t55.5 54h-25v523h134v-523h-3q-36 0 -64.5 -36.5t-28.5 -77.5q0 -45 48 -45q19 0 41 9l16 -62q-34 -18 -78 -18z" />
    <glyph glyph-name="dotlessi.sc" horiz-adv-x="282" 
d="M74 0v523h134v-523h-134z" />
    <glyph glyph-name="ij.sc" horiz-adv-x="577" 
d="M74 0v523h134v-523h-134zM339 -171q-50 0 -91 15l20 104q21 -8 41 -8q34 0 48.5 16t14.5 55v512h135v-527q0 -81 -45 -124t-123 -43z" />
    <glyph glyph-name="jcircumflex.sc" horiz-adv-x="295" 
d="M-19 570l127 159h102l125 -159h-113l-64 66l-64 -66h-113zM58 -171q-50 0 -91 15l20 104q21 -8 41 -8q34 0 48.5 16t14.5 55v512h135v-527q0 -81 -45 -124t-123 -43z" />
    <glyph glyph-name="kcommaaccent.sc" horiz-adv-x="544" 
d="M223 -227q28 26 28 52q0 17 -20 37.5t-20 42.5q0 23 18 38t45 15q30 0 51.5 -19t21.5 -50q0 -64 -58 -116h-66zM69 0v523h133v-230l180 230h144l-191 -242l196 -281h-148l-181 258v-258h-133z" />
    <glyph glyph-name="lacute.sc" horiz-adv-x="448" 
d="M72 0v523h133v-418h210v-105h-343zM73 569l83 135h172l-140 -135h-115z" />
    <glyph glyph-name="lcommaaccent.sc" horiz-adv-x="448" 
d="M176 -227q28 26 28 52q0 17 -20 37.5t-20 42.5q0 23 18 38t45 15q30 0 51.5 -19t21.5 -50q0 -64 -58 -116h-66zM72 0v523h133v-418h210v-105h-343z" />
    <glyph glyph-name="lcaron.sc" horiz-adv-x="457" 
d="M259 368l37 185h137l-81 -185h-93zM72 0v523h133v-418h210v-105h-343z" />
    <glyph glyph-name="ldot.sc" horiz-adv-x="448" 
d="M72 0v523h133v-418h210v-105h-343zM330 257q-32 0 -53 21t-21 51t21 50.5t53 20.5t53 -20.5t21 -50.5t-21 -51t-53 -21z" />
    <glyph glyph-name="lslash.sc" horiz-adv-x="456" 
d="M80 0v167l-43 -29l-46 71l89 62v252h134v-164l80 56l47 -72l-127 -87v-151h210v-105h-344z" />
    <glyph glyph-name="nacute.sc" horiz-adv-x="623" 
d="M244 569l83 135h172l-140 -135h-115zM69 0v523h133l175 -242q16 -22 30.5 -45l22.5 -36l7 -12h2l-1 6q0 5 -0.5 14t-1 19.5t-1 23.5t-0.5 24v248h119v-523h-121l-190 262q-42 58 -56 85h-2l1 -5v-11.5t0.5 -16.5t1 -21t0.5 -23v-270h-119z" />
    <glyph glyph-name="ncommaaccent.sc" horiz-adv-x="623" 
d="M254 -227q28 26 28 52q0 17 -20 37.5t-20 42.5q0 23 18 38t45 15q30 0 51.5 -19t21.5 -50q0 -64 -58 -116h-66zM69 0v523h133l175 -242q16 -22 30.5 -45l22.5 -36l7 -12h2l-1 6q0 5 -0.5 14t-1 19.5t-1 23.5t-0.5 24v248h119v-523h-121l-190 262q-42 58 -56 85h-2l1 -5
v-11.5t0.5 -16.5t1 -21t0.5 -23v-270h-119z" />
    <glyph glyph-name="ncaron.sc" horiz-adv-x="623" 
d="M258 569l-125 159h113l64 -66l64 66h113l-127 -159h-102zM69 0v523h133l175 -242q16 -22 30.5 -45l22.5 -36l7 -12h2l-1 6q0 5 -0.5 14t-1 19.5t-1 23.5t-0.5 24v248h119v-523h-121l-190 262q-42 58 -56 85h-2l1 -5v-11.5t0.5 -16.5t1 -21t0.5 -23v-270h-119z" />
    <glyph glyph-name="omacron.sc" horiz-adv-x="650" 
d="M327 -9q-135 0 -212 78t-77 192q0 112 76.5 192t210.5 80q135 0 211 -77.5t76 -191.5q0 -115 -74.5 -194t-210.5 -79zM325 97q73 0 109.5 46.5t36.5 117.5q0 72 -36 119t-108 47t-109.5 -46.5t-37.5 -116.5q0 -72 37 -119.5t108 -47.5zM184 590v95h283v-95h-283z" />
    <glyph glyph-name="obreve.sc" horiz-adv-x="650" 
d="M327 -9q-135 0 -212 78t-77 192q0 112 76.5 192t210.5 80q135 0 211 -77.5t76 -191.5q0 -115 -74.5 -194t-210.5 -79zM325 97q73 0 109.5 46.5t36.5 117.5q0 72 -36 119t-108 47t-109.5 -46.5t-37.5 -116.5q0 -72 37 -119.5t108 -47.5zM325 558q-66 0 -114 38t-55 113
h109q5 -65 60 -65q53 0 60 65h108q-6 -74 -54 -112.5t-114 -38.5z" />
    <glyph glyph-name="ohungarumlaut.sc" horiz-adv-x="650" 
d="M327 -9q-135 0 -212 78t-77 192q0 112 76.5 192t210.5 80q135 0 211 -77.5t76 -191.5q0 -115 -74.5 -194t-210.5 -79zM325 97q73 0 109.5 46.5t36.5 117.5q0 72 -36 119t-108 47t-109.5 -46.5t-37.5 -116.5q0 -72 37 -119.5t108 -47.5zM154 569l92 135h154l-140 -135
h-106zM356 569l92 135h154l-140 -135h-106z" />
    <glyph glyph-name="oe.sc" horiz-adv-x="789" 
d="M328 -9q-136 0 -213 78t-77 192q0 112 76.5 192t209.5 80q47 0 89 -10h320v-105h-202v-102h179v-96h-179v-115h208v-105h-328q-41 -9 -83 -9zM325 97q47 0 77 15v297q-31 18 -75 18q-73 0 -110.5 -46.5t-37.5 -116.5q0 -72 37.5 -119.5t108.5 -47.5z" />
    <glyph glyph-name="racute.sc" horiz-adv-x="532" 
d="M197 569l83 135h172l-140 -135h-115zM69 0v523h194q102 0 157 -39.5t55 -115.5q0 -62 -34.5 -96t-87.5 -45v-1q33 -24 69 -81l95 -145h-143l-95 149q-24 35 -37.5 45t-31.5 10h-7v-204h-134zM203 294h58q81 0 81 65q0 66 -87 66h-52v-131z" />
    <glyph glyph-name="rcommaaccent.sc" horiz-adv-x="532" 
d="M221 -227q28 26 28 52q0 17 -20 37.5t-20 42.5q0 23 18 38t45 15q30 0 51.5 -19t21.5 -50q0 -64 -58 -116h-66zM69 0v523h194q102 0 157 -39.5t55 -115.5q0 -62 -34.5 -96t-87.5 -45v-1q33 -24 69 -81l95 -145h-143l-95 149q-24 35 -37.5 45t-31.5 10h-7v-204h-134z
M203 294h58q81 0 81 65q0 66 -87 66h-52v-131z" />
    <glyph glyph-name="rcaron.sc" horiz-adv-x="532" 
d="M211 569l-125 159h113l64 -66l64 66h113l-127 -159h-102zM69 0v523h194q102 0 157 -39.5t55 -115.5q0 -62 -34.5 -96t-87.5 -45v-1q33 -24 69 -81l95 -145h-143l-95 149q-24 35 -37.5 45t-31.5 10h-7v-204h-134zM203 294h58q81 0 81 65q0 66 -87 66h-52v-131z" />
    <glyph glyph-name="sacute.sc" horiz-adv-x="440" 
d="M157 569l83 135h172l-140 -135h-115zM202 -9q-109 0 -173 48l52 93q55 -38 114 -38q38 0 59.5 12.5t21.5 35.5q0 12 -5 21t-17.5 16.5t-24.5 13t-35 15l-39 16.5q-57 25 -86 61t-29 94q0 72 53 113t132 41q92 0 163 -42l-50 -93q-46 31 -105 31q-67 0 -67 -44q0 -8 2 -14
t7.5 -12t10.5 -9.5t16 -9t18 -8.5t23 -9t25 -10q64 -28 100 -64t36 -96q0 -77 -53 -119.5t-149 -42.5z" />
    <glyph glyph-name="scircumflex.sc" horiz-adv-x="440" 
d="M46 570l127 159h102l125 -159h-113l-64 66l-64 -66h-113zM202 -9q-109 0 -173 48l52 93q55 -38 114 -38q38 0 59.5 12.5t21.5 35.5q0 12 -5 21t-17.5 16.5t-24.5 13t-35 15l-39 16.5q-57 25 -86 61t-29 94q0 72 53 113t132 41q92 0 163 -42l-50 -93q-46 31 -105 31
q-67 0 -67 -44q0 -8 2 -14t7.5 -12t10.5 -9.5t16 -9t18 -8.5t23 -9t25 -10q64 -28 100 -64t36 -96q0 -77 -53 -119.5t-149 -42.5z" />
    <glyph glyph-name="scedilla.sc" horiz-adv-x="440" 
d="M186 -230q-50 0 -82 15l17 60q22 -11 51 -11q48 0 48 34q0 42 -71 38l32 86q-97 5 -152 47l52 93q55 -38 114 -38q38 0 59.5 12.5t21.5 35.5q0 12 -5 21t-17.5 16.5t-24.5 13t-35 15l-39 16.5q-57 25 -86 61t-29 94q0 72 53 113t132 41q92 0 163 -42l-50 -93
q-46 31 -105 31q-67 0 -67 -44q0 -8 2 -14t7.5 -12t10.5 -9.5t16 -9t18 -8.5t23 -9t25 -10q64 -28 100 -64t36 -96q0 -65 -38 -105.5t-108 -51.5l-18 -51q32 -7 51.5 -28.5t19.5 -53.5q0 -41 -35 -67t-90 -26z" />
    <glyph glyph-name="scaron.sc" horiz-adv-x="440" 
d="M171 569l-125 159h113l64 -66l64 66h113l-127 -159h-102zM202 -9q-109 0 -173 48l52 93q55 -38 114 -38q38 0 59.5 12.5t21.5 35.5q0 12 -5 21t-17.5 16.5t-24.5 13t-35 15l-39 16.5q-57 25 -86 61t-29 94q0 72 53 113t132 41q92 0 163 -42l-50 -93q-46 31 -105 31
q-67 0 -67 -44q0 -8 2 -14t7.5 -12t10.5 -9.5t16 -9t18 -8.5t23 -9t25 -10q64 -28 100 -64t36 -96q0 -77 -53 -119.5t-149 -42.5z" />
    <glyph glyph-name="tcommaaccent.sc" horiz-adv-x="475" 
d="M182 -227q28 26 28 52q0 17 -20 37.5t-20 42.5q0 23 18 38t45 15q30 0 51.5 -19t21.5 -50q0 -64 -58 -116h-66zM170 0v416h-154v107h443v-107h-155v-416h-134z" />
    <glyph glyph-name="tcaron.sc" horiz-adv-x="475" 
d="M185 570l-125 159h113l64 -66l64 66h113l-127 -159h-102zM170 0v416h-154v107h443v-107h-155v-416h-134z" />
    <glyph glyph-name="tbar.sc" horiz-adv-x="475" 
d="M40 207v95h130v114h-154v107h443v-107h-155v-114h130v-95h-130v-207h-134v207h-130z" />
    <glyph glyph-name="utilde.sc" horiz-adv-x="602" 
d="M360 574q-32 0 -66 17.5t-52 17.5q-24 0 -54 -30l-61 53q17 30 46.5 52.5t66.5 22.5q33 0 66.5 -17.5t51.5 -17.5q31 0 56 31l61 -53q-45 -76 -115 -76zM306 -9q-241 0 -241 226v306h134v-296q0 -70 25 -99.5t85 -29.5q56 0 80.5 30t24.5 94v301h123v-292
q0 -116 -59 -178t-172 -62z" />
    <glyph glyph-name="umacron.sc" horiz-adv-x="602" 
d="M160 590v95h283v-95h-283zM306 -9q-241 0 -241 226v306h134v-296q0 -70 25 -99.5t85 -29.5q56 0 80.5 30t24.5 94v301h123v-292q0 -116 -59 -178t-172 -62z" />
    <glyph glyph-name="ubreve.sc" horiz-adv-x="602" 
d="M302 558q-66 0 -114 38t-55 113h109q5 -65 60 -65q54 0 60 65h108q-6 -74 -54 -112.5t-114 -38.5zM306 -9q-241 0 -241 226v306h134v-296q0 -70 25 -99.5t85 -29.5q56 0 80.5 30t24.5 94v301h123v-292q0 -116 -59 -178t-172 -62z" />
    <glyph glyph-name="uring.sc" horiz-adv-x="602" 
d="M301 567q-44 0 -77 31t-33 76q0 44 33 75t77 31t77 -31t33 -75q0 -45 -33 -76t-77 -31zM301 623q21 0 33.5 15t12.5 36t-12.5 35.5t-33.5 14.5t-33.5 -14.5t-12.5 -35.5t12.5 -36t33.5 -15zM306 -9q-241 0 -241 226v306h134v-296q0 -70 25 -99.5t85 -29.5q56 0 80.5 30
t24.5 94v301h123v-292q0 -116 -59 -178t-172 -62z" />
    <glyph glyph-name="uhungarumlaut.sc" horiz-adv-x="602" 
d="M131 569l92 135h154l-140 -135h-106zM333 569l92 135h154l-140 -135h-106zM306 -9q-241 0 -241 226v306h134v-296q0 -70 25 -99.5t85 -29.5q56 0 80.5 30t24.5 94v301h123v-292q0 -116 -59 -178t-172 -62z" />
    <glyph glyph-name="uogonek.sc" horiz-adv-x="602" 
d="M407 -230q-55 0 -87.5 26.5t-32.5 72.5q0 37 21 72t49 57q-21 -7 -51 -7q-241 0 -241 226v306h134v-296q0 -70 25 -99.5t85 -29.5q56 0 80.5 30t24.5 94v301h123v-292q0 -53 -14.5 -95t-31.5 -66t-56 -70q-55 -66 -55 -114q0 -45 48 -45q19 0 41 9l17 -62
q-34 -18 -79 -18z" />
    <glyph glyph-name="wcircumflex.sc" horiz-adv-x="771" 
d="M208 570l127 159h102l125 -159h-113l-64 66l-64 -66h-113zM164 0l-148 523h140l64 -246q21 -81 21 -98h2q0 14 24 103l63 241h127l62 -240l22 -103h2q11 56 23 99l64 244h125l-149 -523h-123l-70 269l-23 98h-2q-11 -55 -24 -98l-78 -269h-122z" />
    <glyph glyph-name="ycircumflex.sc" horiz-adv-x="511" 
d="M81 570l127 159h102l125 -159h-113l-64 66l-64 -66h-113zM191 0v197l-181 326h147l106 -210h2l105 210h130l-174 -326v-197h-135z" />
    <glyph glyph-name="zacute.sc" horiz-adv-x="486" 
d="M178 569l83 135h172l-140 -135h-115zM41 0v85l239 332h-230v106h391v-84l-240 -334h248v-105h-408z" />
    <glyph glyph-name="zdotaccent.sc" horiz-adv-x="486" 
d="M245 584q-32 0 -53 21t-21 51t21 50.5t53 20.5t53 -20.5t21 -50.5t-21 -51t-53 -21zM41 0v85l239 332h-230v106h391v-84l-240 -334h248v-105h-408z" />
    <glyph glyph-name="zcaron.sc" horiz-adv-x="486" 
d="M193 569l-125 159h113l64 -66l64 66h113l-127 -159h-102zM41 0v85l239 332h-230v106h391v-84l-240 -334h248v-105h-408z" />
    <glyph glyph-name="scommaaccent.sc" horiz-adv-x="440" 
d="M151 -227q28 26 28 52q0 17 -20 37.5t-20 42.5q0 23 18 38t45 15q30 0 51.5 -19t21.5 -50q0 -64 -58 -116h-66zM202 -9q-109 0 -173 48l52 93q55 -38 114 -38q38 0 59.5 12.5t21.5 35.5q0 12 -5 21t-17.5 16.5t-24.5 13t-35 15l-39 16.5q-57 25 -86 61t-29 94
q0 72 53 113t132 41q92 0 163 -42l-50 -93q-46 31 -105 31q-67 0 -67 -44q0 -8 2 -14t7.5 -12t10.5 -9.5t16 -9t18 -8.5t23 -9t25 -10q64 -28 100 -64t36 -96q0 -77 -53 -119.5t-149 -42.5z" />
    <glyph glyph-name="uni021B.sc" horiz-adv-x="475" 
d="M182 -227q28 26 28 52q0 17 -20 37.5t-20 42.5q0 23 18 38t45 15q30 0 51.5 -19t21.5 -50q0 -64 -58 -116h-66zM170 0v416h-154v107h443v-107h-155v-416h-134z" />
    <glyph glyph-name="Alphatonos.sc" horiz-adv-x="680" 
d="M240 238h187l-57 159q-12 33 -23 72t-13 43h-2q-1 -4 -6.5 -23l-13 -43.5l-15.5 -48.5zM15 0l254 666h136l261 -666h-154l-45 125h-266l-44 -125h-142z" />
    <glyph glyph-name="Epsilontonos.sc" horiz-adv-x="530" 
d="M83 0v666h384v-116h-245v-150h216v-110h-216v-174h252v-116h-391z" />
    <glyph glyph-name="Etatonos.sc" horiz-adv-x="745" 
d="M83 0v666h141v-262h298v262h141v-666h-141v288h-298v-288h-141z" />
    <glyph glyph-name="Iotatonos.sc" horiz-adv-x="324" 
d="M89 0v666h141v-666h-141z" />
    <glyph glyph-name="Omicrontonos.sc" horiz-adv-x="773" 
d="M390 -12q-160 0 -253.5 100.5t-93.5 243.5q0 144 92 245t252 101t251.5 -100t91.5 -242q0 -145 -90.5 -246.5t-249.5 -101.5zM387 102q95 0 144.5 65t49.5 165t-48.5 166t-142.5 66q-96 0 -146.5 -64.5t-50.5 -163.5q0 -100 49.5 -167t144.5 -67z" />
    <glyph glyph-name="Upsilontonos.sc" horiz-adv-x="598" 
d="M232 0v251l-221 415h157l141 -283h1l140 283h137l-214 -415v-251h-141z" />
    <glyph glyph-name="Omegatonos.sc" horiz-adv-x="764" 
d="M44 0v109h126q-49 35 -82 102.5t-33 150.5q0 139 95.5 227.5t231.5 88.5t232 -88.5t96 -227.5q0 -83 -33.5 -150.5t-82.5 -102.5h127v-109h-282v103q68 45 99.5 105.5t31.5 148.5q0 84 -53.5 145.5t-134.5 61.5t-134.5 -61.5t-53.5 -145.5q0 -87 31.5 -148t100.5 -106
v-103h-282z" />
    <glyph glyph-name="iotadieresistonos.sc" horiz-adv-x="282" 
d="M74 0v523h134v-523h-134zM38 570q-32 0 -53 21t-21 51q0 29 21 50t53 21t53 -21t21 -50q0 -30 -21 -51t-53 -21zM248 570q-32 0 -53 21t-21 51q0 29 21 50t53 21t53 -21t21 -50q0 -30 -21 -51t-53 -21z" />
    <glyph glyph-name="alphatonos.sc" horiz-adv-x="584" 
d="M213 188h145l-41 112q-31 86 -31 94h-2q0 -8 -30 -94zM15 0l210 523h128l216 -523h-142l-34 91h-214l-32 -91h-132z" />
    <glyph glyph-name="epsilontonos.sc" horiz-adv-x="470" 
d="M69 0v523h344v-104h-213v-103h190v-96h-190v-116h218v-104h-349z" />
    <glyph glyph-name="etatonos.sc" horiz-adv-x="629" 
d="M69 0v523h134v-199h224v199h132v-523h-132v216h-224v-216h-134z" />
    <glyph glyph-name="iotatonos.sc" horiz-adv-x="282" 
d="M74 0v523h134v-523h-134z" />
    <glyph glyph-name="upsilondieresistonos.sc" horiz-adv-x="511" 
d="M191 0v197l-181 326h147l106 -210h2l105 210h130l-174 -326v-197h-135zM163 570q-32 0 -53 21t-21 51q0 29 21 50t53 21t53 -21t21 -50q0 -30 -21 -51t-53 -21zM373 570q-32 0 -53 21t-21 51q0 29 21 50t53 21t53 -21t21 -50q0 -30 -21 -51t-53 -21z" />
    <glyph glyph-name="alpha.sc" horiz-adv-x="584" 
d="M213 188h145l-41 112q-31 86 -31 94h-2q0 -8 -30 -94zM15 0l210 523h128l216 -523h-142l-34 91h-214l-32 -91h-132z" />
    <glyph glyph-name="beta.sc" horiz-adv-x="516" 
d="M69 0v523h195q194 0 194 -133q0 -95 -97 -118v-2q51 -6 85 -38.5t34 -86.5q0 -145 -218 -145h-193zM200 96h58q48 0 70 14t22 49q0 65 -87 65h-63v-128zM200 310h48q44 0 63.5 15t19.5 47q0 56 -80 56h-51v-118z" />
    <glyph glyph-name="gamma.sc" horiz-adv-x="421" 
d="M69 0v523h336v-107h-202v-416h-134z" />
    <glyph glyph-name="delta.sc" horiz-adv-x="563" 
d="M168 104h216l-78 196q-8 20 -15.5 43t-11 36.5t-3.5 14.5h-2q0 -16 -30 -94zM33 0v81l182 442h127l187 -442v-81h-496z" />
    <glyph glyph-name="epsilon.sc" horiz-adv-x="470" 
d="M69 0v523h344v-104h-213v-103h190v-96h-190v-116h218v-104h-349z" />
    <glyph glyph-name="zeta.sc" horiz-adv-x="486" 
d="M41 0v85l239 332h-230v106h391v-84l-240 -334h248v-105h-408z" />
    <glyph glyph-name="eta.sc" horiz-adv-x="629" 
d="M69 0v523h134v-199h224v199h132v-523h-132v216h-224v-216h-134z" />
    <glyph glyph-name="theta.sc" horiz-adv-x="650" 
d="M327 -9q-135 0 -212 78t-77 192q0 112 76.5 192t210.5 80q135 0 211 -77.5t76 -191.5q0 -115 -74.5 -194t-210.5 -79zM325 97q73 0 109.5 46.5t36.5 117.5q0 72 -36 119t-108 47t-109.5 -46.5t-37.5 -116.5q0 -72 37 -119.5t108 -47.5zM238 215v96h175v-96h-175z" />
    <glyph glyph-name="iota.sc" horiz-adv-x="282" 
d="M74 0v523h134v-523h-134z" />
    <glyph glyph-name="kappa.sc" horiz-adv-x="544" 
d="M69 0v523h133v-230l180 230h144l-191 -242l196 -281h-148l-181 258v-258h-133z" />
    <glyph glyph-name="lambda.sc" horiz-adv-x="584" 
d="M16 0l209 523h128l216 -523h-142l-110 300q-31 80 -31 94h-2q0 -12 -30 -94l-107 -300h-131z" />
    <glyph glyph-name="nu.sc" horiz-adv-x="623" 
d="M69 0v523h133l175 -242q16 -22 30.5 -45l22.5 -36l7 -12h2l-1 6q0 5 -0.5 14t-1 19.5t-1 23.5t-0.5 24v248h119v-523h-121l-190 262q-42 58 -56 85h-2l1 -5v-11.5t0.5 -16.5t1 -21t0.5 -23v-270h-119z" />
    <glyph glyph-name="xi.sc" horiz-adv-x="500" 
d="M47 0v109h406v-109h-406zM75 216v104h350v-104h-350zM52 414v109h396v-109h-396z" />
    <glyph glyph-name="omicron.sc" horiz-adv-x="650" 
d="M327 -9q-135 0 -212 78t-77 192q0 112 76.5 192t210.5 80q135 0 211 -77.5t76 -191.5q0 -115 -74.5 -194t-210.5 -79zM325 97q73 0 109.5 46.5t36.5 117.5q0 72 -36 119t-108 47t-109.5 -46.5t-37.5 -116.5q0 -72 37 -119.5t108 -47.5z" />
    <glyph glyph-name="pi.sc" horiz-adv-x="620" 
d="M69 0v523h482v-523h-133v415h-215v-415h-134z" />
    <glyph glyph-name="rho.sc" horiz-adv-x="510" 
d="M68 0v523h196q97 0 156 -43.5t59 -128.5q0 -87 -60.5 -131.5t-168.5 -44.5h-49v-175h-133zM201 272h48q99 0 99 78q0 39 -23 57t-72 18h-52v-153z" />
    <glyph glyph-name="sigma1.sc" horiz-adv-x="468" 
d="M39 0v87l135 185l-122 163v88h360v-106h-216l113 -145l-123 -167h244v-105h-391z" />
    <glyph glyph-name="sigma.sc" horiz-adv-x="468" 
d="M39 0v87l135 185l-122 163v88h360v-106h-216l113 -145l-123 -167h244v-105h-391z" />
    <glyph glyph-name="tau.sc" horiz-adv-x="475" 
d="M170 0v416h-154v107h443v-107h-155v-416h-134z" />
    <glyph glyph-name="upsilon.sc" horiz-adv-x="511" 
d="M191 0v197l-181 326h147l106 -210h2l105 210h130l-174 -326v-197h-135z" />
    <glyph glyph-name="phi.sc" horiz-adv-x="708" 
d="M288 0v40q-117 4 -185.5 66t-68.5 155q0 92 69 156t185 67v39h133v-39q116 -3 184.5 -65.5t68.5 -155.5q0 -91 -69 -155t-184 -68v-40h-133zM413 134q60 1 94 36t34 91q0 57 -34.5 92.5t-93.5 36.5v-256zM296 133v256q-60 -1 -94.5 -35.5t-34.5 -89.5q0 -57 35 -93
t94 -38z" />
    <glyph glyph-name="chi.sc" horiz-adv-x="531" 
d="M19 0l174 269l-165 254h150l95 -155l89 155h132l-159 -254l175 -269h-146l-109 173l-103 -173h-133z" />
    <glyph glyph-name="psi.sc" horiz-adv-x="687" 
d="M282 0v120q-108 15 -172.5 82t-64.5 175v146h133v-136q0 -69 30.5 -110.5t82.5 -51.5v298h116v-300q51 10 81.5 52.5t30.5 106.5v141h124v-133q0 -111 -62.5 -182t-165.5 -87v-121h-133z" />
    <glyph glyph-name="omega.sc" horiz-adv-x="679" 
d="M40 0v105h108q-36 23 -64 73.5t-28 109.5q0 106 83.5 175.5t200.5 69.5t200.5 -69.5t83.5 -175.5q0 -59 -28 -109.5t-65 -73.5h108v-105h-254v98q96 63 96 182q0 62 -41 104.5t-100 42.5t-100.5 -42.5t-41.5 -104.5q0 -118 96 -182v-98h-254z" />
    <glyph glyph-name="iotadieresis.sc" horiz-adv-x="282" 
d="M36 570q-32 0 -53 21t-21 51q0 29 21 50t53 21t53 -21t21 -50q0 -30 -21 -51t-53 -21zM246 570q-32 0 -53 21t-21 51q0 29 21 50t53 21t53 -21t21 -50q0 -30 -21 -51t-53 -21zM74 0v523h134v-523h-134z" />
    <glyph glyph-name="upsilondieresis.sc" horiz-adv-x="511" 
d="M153 570q-32 0 -53 21t-21 51q0 29 21 50t53 21t53 -21t21 -50q0 -30 -21 -51t-53 -21zM363 570q-32 0 -53 21t-21 51q0 29 21 50t53 21t53 -21t21 -50q0 -30 -21 -51t-53 -21zM191 0v197l-181 326h147l106 -210h2l105 210h130l-174 -326v-197h-135z" />
    <glyph glyph-name="omicrontonos.sc" horiz-adv-x="650" 
d="M327 -9q-135 0 -212 78t-77 192q0 112 76.5 192t210.5 80q135 0 211 -77.5t76 -191.5q0 -115 -74.5 -194t-210.5 -79zM325 97q73 0 109.5 46.5t36.5 117.5q0 72 -36 119t-108 47t-109.5 -46.5t-37.5 -116.5q0 -72 37 -119.5t108 -47.5z" />
    <glyph glyph-name="upsilontonos.sc" horiz-adv-x="511" 
d="M191 0v197l-181 326h147l106 -210h2l105 210h130l-174 -326v-197h-135z" />
    <glyph glyph-name="omegatonos.sc" horiz-adv-x="679" 
d="M40 0v105h108q-36 23 -64 73.5t-28 109.5q0 106 83.5 175.5t200.5 69.5t200.5 -69.5t83.5 -175.5q0 -59 -28 -109.5t-65 -73.5h108v-105h-254v98q96 63 96 182q0 62 -41 104.5t-100 42.5t-100.5 -42.5t-41.5 -104.5q0 -118 96 -182v-98h-254z" />
    <glyph glyph-name="afii10065.sc" horiz-adv-x="584" 
d="M213 188h145l-41 112q-31 86 -31 94h-2q0 -8 -30 -94zM15 0l210 523h128l216 -523h-142l-34 91h-214l-32 -91h-132z" />
    <glyph glyph-name="afii10066.sc" horiz-adv-x="514" 
d="M69 0v523h370v-105h-236v-87h62q98 0 156.5 -40.5t58.5 -122.5q0 -85 -60.5 -126.5t-168.5 -41.5h-182zM203 97h47q51 0 75 16.5t24 53.5q0 35 -23 50.5t-72 15.5h-51v-136z" />
    <glyph glyph-name="afii10067.sc" horiz-adv-x="516" 
d="M69 0v523h195q194 0 194 -133q0 -95 -97 -118v-2q51 -6 85 -38.5t34 -86.5q0 -145 -218 -145h-193zM200 96h58q48 0 70 14t22 49q0 65 -87 65h-63v-128zM200 310h48q44 0 63.5 15t19.5 47q0 56 -80 56h-51v-118z" />
    <glyph glyph-name="afii10068.sc" horiz-adv-x="421" 
d="M69 0v523h336v-107h-202v-416h-134z" />
    <glyph glyph-name="afii10069.sc" horiz-adv-x="598" 
d="M35 -146l-22 250h40q35 33 50 140l38 279h370v-419h54l-19 -250h-84l-12 146h-320l-11 -146h-84zM181 104h200v313h-134l-26 -192q-13 -86 -40 -121z" />
    <glyph glyph-name="afii10070.sc" horiz-adv-x="470" 
d="M69 0v523h344v-104h-213v-103h190v-96h-190v-116h218v-104h-349z" />
    <glyph glyph-name="afii10072.sc" horiz-adv-x="816" 
d="M23 0l1 98h7q21 0 41 21t52 76q41 68 72 93l-180 235h144l161 -213h21v213h132v-213h21l161 213h144l-180 -235q31 -25 72 -93q32 -55 52 -76t41 -21h8l-1 -98h-72q-43 0 -68.5 25t-67.5 94q-32 54 -53.5 76t-43.5 23h-13v-218h-132v218h-13q-22 -1 -43.5 -23t-53.5 -76
l-33.5 -53t-28 -34.5t-34.5 -25t-40 -6.5h-73z" />
    <glyph glyph-name="afii10073.sc" horiz-adv-x="462" 
d="M196 -9q-110 0 -173 50l50 92q54 -40 127 -40q95 0 95 64q0 32 -24.5 49.5t-66.5 17.5h-65v86h46q91 0 91 63q0 27 -19.5 44t-52.5 17q-60 0 -115 -37l-51 88q73 48 169 48q82 0 139.5 -36t57.5 -105q0 -95 -97 -120v-2q51 -7 85 -40t34 -87q0 -75 -66 -113.5t-164 -38.5
z" />
    <glyph glyph-name="afii10074.sc" horiz-adv-x="623" 
d="M69 0v523h119v-256q0 -11 -0.5 -24t-1 -23.5t-1 -19.5t-1.5 -14v-6h2l8 12q7 12 21.5 35t30.5 46l175 250h133v-523h-119v278q0 11 0.5 23t0.5 21t0.5 16.5t1.5 11.5v5h-2q-9 -17 -56 -85l-191 -270h-120z" />
    </font>
</defs>
</svg>
