<?xml version="1.0" standalone="no"?>
<!DOCTYPE svg PUBLIC "-//W3C//DTD SVG 1.1//EN" "http://www.w3.org/Graphics/SVG/1.1/DTD/svg11.dtd" >
<svg>
<metadata>
Created by FontForge 20090622 at Wed Oct  5 10:01:40 2016
 By deploy user
Copyright (c) 1990-2001 ParaType, Inc. All Rights Reserved. Copyright 1994 by URW Software. All Rights Reserved. ITC Bodoni is a trade mark of International Typeface Corporation. Trademark This software is a property of ParaType, Inc. ITC Bodoni is a trade mark of International Typeface Corporation.
</metadata>
<defs>
<font id="Bodoni72OSC" horiz-adv-x="533" >
  <font-face 
    font-family="Bodoni72OSC"
    font-weight="400"
    font-stretch="normal"
    units-per-em="1000"
    panose-1="0 0 5 0 0 0 0 0 0 0"
    ascent="738"
    descent="-262"
    x-height="436"
    cap-height="695"
    bbox="-164 -262 960 919"
    underline-thickness="50"
    underline-position="-50"
    unicode-range="U+0020-U+F6D4"
  />
<missing-glyph horiz-adv-x="233" 
 />
    <glyph glyph-name=".notdef" horiz-adv-x="233" 
 />
    <glyph glyph-name=".null" horiz-adv-x="0" 
 />
    <glyph glyph-name="nonmarkingreturn" horiz-adv-x="333" 
 />
    <glyph glyph-name="space" unicode=" " horiz-adv-x="233" 
 />
    <glyph glyph-name="space" unicode="&#xa0;" horiz-adv-x="233" 
 />
    <glyph glyph-name="exclam" unicode="!" horiz-adv-x="356" 
d="M121 637q14 31 26 47.5t17.5 19.5t12.5 3q13 0 25 -13.5t32 -56.5q-45 -251 -43 -446v-2q0 -20 -13 -20t-13 20q0 206 -44 448zM178 102q22 0 37.5 -15.5t15.5 -38.5q0 -13 -6 -25q-15 -29 -48 -29q-13 0 -25 6q-29 15 -29 48q0 13 6 25q15 29 49 29z" />
    <glyph glyph-name="quotedbl" unicode="&#x22;" 
d="M220 705q21 0 32 -12.5t11 -29.5q0 -25 -40 -76q-33 -42 -51 -70.5t-54 -99.5q-7 -14 -15 -14q-15 0 -15 13q0 3 15 37q18 41 29 80q9 29 19 68l12 44q18 60 57 60zM401 705q21 0 32 -12.5t11 -29.5q0 -25 -40 -76q-33 -42 -51 -70.5t-54 -99.5q-7 -14 -15 -14
q-15 0 -15 13q0 3 15 37q18 41 29 80q9 29 19 68l12 44q18 60 57 60z" />
    <glyph glyph-name="numbersign" unicode="#" 
d="M121 77h-40l52 179h-87v58h103l35 120h-103v58h120l51 179h40l-51 -179h118l52 179h40l-52 -179h80v-58h-97l-35 -121h96v-57h-112l-52 -179h-40l52 179h-119zM189 314h119l34 120h-118z" />
    <glyph glyph-name="dollar" unicode="$" 
d="M282 643v-249q101 -48 133 -85q44 -50 44 -117q0 -69 -47 -126.5t-130 -68.5v-83q0 -18 -5 -21q-3 -1 -8 -1q-6 0 -9 3t-3.5 5.5t-0.5 9.5v4v81q-48 0 -79 11q-9 3 -33 16q-69 40 -69 106q0 36 18.5 55.5t45.5 19.5q22 0 38.5 -14.5t16.5 -38.5q0 -31 -24 -45
q-11 -7 -28 -7q-6 0 -11 1t-11 1q-7 0 -7 -7q0 -34 48 -56t95 -23v289q-44 21 -80 46q-21 14 -28 21q-58 47 -58 122q0 65 45 114.5t121 55.5v69q0 18 13 18t13 -17v-3v-66q60 2 102 -33q21 -17 35.5 -43.5t14.5 -51.5q0 -27 -15 -44.5t-39 -17.5q-22 0 -36.5 13t-14.5 35
q0 30 24 43q11 6 30 8q8 0 8 8q0 10 -14 25.5t-25 21.5q-30 18 -70 16zM256 406v234q-86 -15 -86 -107q0 -93 86 -127zM282 289v-272q33 6 54.5 23t29.5 40.5t10.5 37.5t2.5 28q0 18 -3 38q-13 70 -94 105z" />
    <glyph glyph-name="percent" unicode="%" horiz-adv-x="715" 
d="M526 705h47l-384 -705h-47l360 663q-21 -13 -36 -18q-34 -12 -76 -12q-40 0 -86 16q12 -16 22 -39q16 -40 16 -79q0 -72 -47 -120q-43 -44 -104 -44q-75 0 -121 49t-46 121q0 68 44 118t121 50q23 0 68 -15q90 -32 137 -32q67 0 132 47zM185 690q-48 0 -66 -53
q-12 -34 -12 -97q0 -156 80 -156q40 0 56 45q15 48 15 114q0 74 -20 114q-6 14 -13 20q-14 13 -40 13zM534 329q65 0 106 -41q51 -52 51 -133q0 -78 -56 -128q-41 -36 -98 -36q-95 0 -141 78q-24 42 -24 93q0 73 45.5 120t116.5 47zM533 314q-22 0 -40 -13q-38 -29 -38 -135
q0 -158 81 -158q22 0 38 14q11 11 18 34q15 50 15 117q0 70 -20 108q-18 33 -54 33z" />
    <glyph glyph-name="ampersand" unicode="&#x26;" horiz-adv-x="729" 
d="M496 426h162q3 0 13 0.5t16.5 0t14.5 -1t12.5 -2.5t4.5 -6q0 -3 -3 -5.5t-9.5 -3l-12.5 -1t-14.5 -0.5h-12.5q-33 -1 -40.5 -7.5t-13.5 -33.5q-24 -127 -87 -222q13 -20 29 -50q24 -47 47 -60q8 -5 20 -8t20.5 -3.5l25 -1.5t24.5 -2q21 -2 21 -11q0 -8 -14 -8
q-18 0 -27 1q-34 3 -104 3q-31 0 -64 -4l-39 72q-80 -85 -210 -85q-93 0 -157.5 51.5t-64.5 141.5q0 92 73 157q15 14 49 36q28 18 54 29l-47 51q-28 30 -35 48t-7 43q0 99 76 140q40 22 91 22q100 0 142 -69q16 -28 16 -63q0 -57 -49 -100q-40 -34 -90 -51l109 -128
q39 -46 96 -128q71 115 71 215q0 14 -4 19.5t-20 5.5l-49 1q-30 0 -30 10q0 8 17 8zM296 436q72 37 72 126q0 62 -25.5 95t-62.5 33q-34 0 -63 -24.5t-29 -67.5q0 -41 32.5 -85.5t75.5 -76.5zM326 267l-106 123q-58 -40 -80 -99q-10 -30 -10 -66q0 -68 26 -114.5t62 -68.5
q36 -21 79 -21q57 0 106 30q27 17 50 41q-57 94 -127 175z" />
    <glyph glyph-name="quotesingle" unicode="'" horiz-adv-x="356" 
d="M222 705q23 0 33 -13.5t10 -28.5q0 -25 -40 -76q-34 -44 -51.5 -72t-53.5 -98q-7 -14 -15 -14q-15 0 -15 12q0 4 13 33q18 41 31 85q9 29 19 68l12 44q18 60 57 60z" />
    <glyph glyph-name="parenleft" unicode="(" horiz-adv-x="305" 
d="M241 712q8 0 8 -8q0 -5 -7 -18q-30 -53 -52 -126q-35 -122 -35 -288q0 -176 41 -305q13 -40 44 -103q8 -16 8 -18q0 -9 -6 -9q-9 0 -33 32q-65 88 -104 196t-39 206q0 89 33.5 194.5t99.5 198.5q35 48 42 48z" />
    <glyph glyph-name="parenright" unicode=")" horiz-adv-x="305" 
d="M64 712q5 0 17 -15l25 -33q66 -93 99.5 -198.5t33.5 -194.5q0 -98 -39 -206t-104 -196q-24 -32 -33 -32q-6 0 -6 9q0 2 8 18q31 63 44 103q41 129 41 305q0 263 -87 414q-7 13 -7 18q0 8 8 8z" />
    <glyph glyph-name="asterisk" unicode="*" 
d="M203 648q6 0 9 1q8 2 12 2q12 0 17 -20q1 -3 1 -4q9 -42 30 -66q10 26 10 52q0 15 -2 21.5t-2 12.5q0 12 14 14q15 3 22 8q4 3 15 16q13 14 17 14q7 0 8 -8q1 -4 -2 -14.5t-3 -17.5q0 -13 7 -27q3 -6 3 -8q0 -12 -19 -20q-38 -19 -54 -50h2q3 0 9 -0.5t9 -0.5q22 0 58 18
q8 4 12 4q6 0 17 -14q12 -18 35 -26q15 -6 15 -10q0 -7 -21 -9q-22 -1 -34 -11q-16 -14 -21 -14t-15 10t-27 22q-18 12 -41 16q8 -33 32 -59q19 -21 19 -24q0 -2 -2.5 -5.5t-6.5 -8t-6 -8.5q-7 -11 -8 -33q0 -18 -12 -18q-5 0 -14 22q-7 15 -20 23q-18 12 -18 19q0 2 5 14
q1 2 4 10q9 24 10 33q1 5 1 14q0 2 -0.5 8t-0.5 10q-32 -19 -53 -63q-6 -11 -12 -11q-1 0 -3 1t-6 2.5t-8 3.5q-12 4 -17 4q-4 0 -21 -5q-8 -2 -14 -2q-9 0 -9 7q0 5 10 13q15 12 19 19q2 3 6 23q0 2 2 6t4 5q5 3 11 3l14 -2q12 -2 21 -2q25 0 51 11q-25 23 -65 31
q-19 4 -23 6t-4 7q2 22 0.5 29t-12.5 23q-7 9 -7 16q0 6 7 6q5 0 24 -11q12 -8 21 -8z" />
    <glyph glyph-name="plus" unicode="+" 
d="M285 354h189v-36h-189v-186h-36v186h-190v36h190v185h36v-185z" />
    <glyph glyph-name="comma" unicode="," horiz-adv-x="259" 
d="M158 31q0 -16 -9 -27q-10 -10 -28 -10q-19 0 -32 13q-14 14 -14 35q0 23 16 40.5t45 17.5q34 0 55 -23q25 -28 25 -71q0 -47 -24 -78q-17 -23 -53 -39q-32 -13 -43 -13q-10 0 -10 6q0 3 10 8q40 13 52 22q32 23 32 64q0 32 -22 55z" />
    <glyph glyph-name="hyphen" unicode="-" horiz-adv-x="305" 
d="M290 250v-52h-275v52h275z" />
    <glyph glyph-name="hyphen" unicode="&#xad;" horiz-adv-x="305" 
d="M290 250v-52h-275v52h275z" />
    <glyph glyph-name="period" unicode="." horiz-adv-x="259" 
d="M129 101q22 0 37.5 -15.5t15.5 -38.5q0 -22 -15.5 -37.5t-38.5 -15.5q-22 0 -37.5 15.5t-15.5 38.5q0 22 15.5 37.5t38.5 15.5z" />
    <glyph glyph-name="slash" unicode="/" horiz-adv-x="489" 
d="M475 726l-413 -756h-49l413 756h49z" />
    <glyph glyph-name="zero" unicode="0" horiz-adv-x="557" 
d="M293 448q45 0 92 -19.5t77 -49.5q64 -66 64 -169q0 -104 -95 -171q-72 -51 -157 -51q-100 0 -171.5 66t-71.5 158q0 60 32.5 113.5t87.5 84.5q67 38 142 38zM281 427q-69 0 -112 -60.5t-43 -157.5q0 -101 57 -158q41 -41 92 -41q81 0 131 72q36 52 36 138q0 93 -44.5 150
t-116.5 57z" />
    <glyph glyph-name="one" unicode="1" horiz-adv-x="318" 
d="M202 381v-325q0 -28 8.5 -33.5t54.5 -5.5l22 1q14 0 14 -10q0 -9 -14 -9l-26 1l-46 -1q-19 0 -41 1h-31q-15 0 -65 -1h-44h-5q-13 0 -13 8q0 7 8.5 8t60.5 2q21 0 28 8t7 32v322q0 30 -11.5 36t-70.5 5q-19 0 -19 10q0 7 13 7q4 0 68 -1q29 -1 52 -1l137 3q14 0 14 -9
q0 -10 -17 -10h-32q-37 0 -44.5 -5.5t-7.5 -32.5z" />
    <glyph glyph-name="two" unicode="2" horiz-adv-x="470" 
d="M30 -1h-7q-13 0 -13 9t127 73q75 37 121 97.5t46 120.5q0 34 -15.5 63t-41.5 44q-23 14 -62 14q-49 0 -81 -27q-30 -25 -30 -49q0 -10 5 -12.5t35 -9.5q33 -8 33 -34q0 -18 -12.5 -30.5t-30.5 -12.5q-25 0 -43 21.5t-18 51.5q0 55 50 92.5t122 37.5q80 0 131 -46
q49 -47 49 -105q0 -80 -100 -148q-20 -13 -70.5 -40.5t-66.5 -33.5q-9 -2 -9 -4q0 -3 18 -3q25 -1 160 -1q58 3 71 15.5t22 71.5q3 20 5.5 24.5t9.5 4.5q10 0 10 -12q0 -6 -1 -10q-17 -85 -17 -162q-37 0 -134 4q-54 2 -72 2q-131 0 -191 -6z" />
    <glyph glyph-name="three" unicode="3" horiz-adv-x="449" 
d="M216 155l-1 -3q78 -1 123 -29q79 -49 79 -138q0 -88 -70.5 -150t-171.5 -62q-64 0 -109 30.5t-45 73.5q0 22 15.5 36.5t39.5 14.5q23 0 36 -12t13 -32q0 -14 -5 -22t-25 -27q-6 -5 -6 -10q0 -10 28 -21t54 -11q61 0 100 44q51 58 51 154q0 66 -37 109q-19 22 -39.5 30.5
t-57.5 9.5q-34 0 -34 10q0 8 26 11q26 2 56 17.5t43 34.5q26 34 26 92q0 59 -41 94q-30 23 -76 23q-49 0 -76 -21q-21 -17 -21 -31q0 -9 25 -15q17 -4 27.5 -15t10.5 -26q0 -18 -12.5 -30t-31.5 -12q-24 0 -40.5 17.5t-16.5 42.5q0 51 45.5 83.5t117.5 32.5
q82 0 131.5 -38.5t49.5 -100.5t-49.5 -104t-131.5 -50z" />
    <glyph glyph-name="four" unicode="4" horiz-adv-x="470" 
d="M274 285h83v-262l38 1q34 2 37 2q13 0 13 -15q0 -11 -16 -11h-72v-220h-83v220h-247q-20 0 -20 14q0 9 24 40l299 390q13 17 17 20.5t9 3.5q3 0 6 -3t3 -6q0 -6 -7.5 -16.5t-54.5 -67.5l-120 -157l-109 -147q-20 -27 -26 -34l-8 -11q54 -3 112 -3h109h13v262z" />
    <glyph glyph-name="five" unicode="5" horiz-adv-x="458" 
d="M117 340l-3 -40q-1 -40 -3 -137q62 33 124 33q88 0 144.5 -56t56.5 -142q0 -107 -94 -174q-73 -51 -159 -51q-58 0 -99.5 28t-41.5 67q0 23 16 38.5t40 15.5q21 0 34.5 -12.5t13.5 -32.5q0 -16 -6.5 -24t-31.5 -24q-6 -3 -6 -8q0 -10 24 -19t52 -9q73 0 117.5 53.5
t44.5 140.5q0 77 -42 129t-104 52q-45 0 -109 -44l2 29q1 45 5 186q1 73 11 86t63 13q60 0 104 -3l53 -1q19 0 25.5 6t9.5 28q3 14 12 14t9 -13q0 -12 -1 -20l-1 -31q-1 -38 -14 -53.5t-45 -15.5q-52 0 -89 3q-46 2 -49 2q-25 0 -63 -2v-12z" />
    <glyph glyph-name="six" unicode="6" horiz-adv-x="489" 
d="M141 350q46 51 126 51q81 0 134.5 -58t53.5 -146q0 -90 -59.5 -149.5t-150.5 -59.5q-81 0 -139 61q-69 75 -69 205q0 174 81 291t202 117q54 0 89 -23.5t35 -59.5q0 -22 -14.5 -37t-34.5 -15q-19 0 -31.5 11.5t-12.5 28.5q0 14 6.5 22.5t27.5 23.5q3 1 3 5q0 10 -20 18.5
t-42 8.5q-57 0 -92 -38q-77 -84 -93 -257zM241 375q-54 0 -83.5 -43.5t-29.5 -123.5q0 -95 34.5 -149.5t95.5 -54.5q49 0 78.5 50t29.5 134q0 85 -34 136t-91 51z" />
    <glyph glyph-name="seven" unicode="7" horiz-adv-x="421" 
d="M369 357h-190q-80 0 -93 -4q-22 -6 -33 -64q-5 -24 -9 -31.5t-11 -7.5q-11 0 -11 10q0 9 5 27q3 20 8 47.5t7.5 45t4.5 29.5q3 15 13 30q59 -3 154 -3q160 0 167 1l44 1q12 0 12 -9q0 -4 -5 -14l-30 -51l-54 -89q-90 -147 -145 -261t-55 -152q0 -14 6 -14q4 0 20 15
q11 10 28 10q23 0 37 -12t14 -32q0 -22 -17 -36t-43 -14q-32 0 -51 20t-19 55q0 57 71 195q30 59 137 243z" />
    <glyph glyph-name="eight" unicode="8" horiz-adv-x="473" 
d="M269 346l-1 -3q77 -17 117 -48q64 -50 64 -125q0 -77 -59 -129.5t-145 -52.5q-94 0 -157.5 50.5t-63.5 124.5q0 84 73 138q41 29 111 43l-1 4q-78 11 -118.5 49.5t-40.5 100.5q0 72 52.5 119t133.5 47t133 -47t52 -120q0 -112 -150 -151zM236 647q-45 0 -70.5 -40
t-25.5 -110q0 -68 25.5 -105t72.5 -37q89 0 89 145q0 147 -91 147zM236 335q-52 0 -87 -49t-35 -122q0 -70 36 -113.5t94 -43.5q54 0 84 44t30 123q0 75 -32.5 118t-89.5 43z" />
    <glyph glyph-name="nine" unicode="9" horiz-adv-x="489" 
d="M347 87q-45 -50 -121 -50q-80 0 -132.5 55t-52.5 140q0 96 58 156t151 60q87 0 144 -66q60 -71 60 -204q0 -93 -25 -176t-70 -138q-35 -41 -89 -66t-111 -25q-47 0 -79.5 22.5t-32.5 55.5q0 22 15 37.5t35 15.5q19 0 31.5 -11.5t12.5 -28.5q0 -14 -6.5 -23t-27.5 -25
q-4 -4 -4 -8q0 -7 16 -12.5t37 -5.5q103 0 153 113q27 60 38 184zM249 431q-53 0 -85.5 -48t-32.5 -126q0 -91 33 -143t91 -52q50 0 79 42t29 116q0 211 -114 211z" />
    <glyph glyph-name="colon" unicode=":" horiz-adv-x="259" 
d="M129 444q22 0 37.5 -15.5t15.5 -38.5q0 -22 -15 -37.5t-38 -15.5t-38.5 15.5t-15.5 38.5q0 22 15.5 37.5t38.5 15.5zM129 101q22 0 37.5 -15.5t15.5 -38.5q0 -22 -16 -37.5t-37 -15.5q-23 0 -38.5 15.5t-15.5 38.5q0 22 15.5 37.5t38.5 15.5z" />
    <glyph glyph-name="semicolon" unicode=";" horiz-adv-x="259" 
d="M163 31v-4q0 -17 -11.5 -26t-27.5 -9q-18 0 -33.5 13.5t-15.5 36.5q0 24 17 42.5t46 18.5q34 0 57.5 -26t23.5 -74q0 -69 -56 -103q-41 -24 -65 -24q-9 0 -9 6t10 8q35 11 48 20q36 24 36 68q0 33 -20 53zM132 444q22 0 37.5 -16t15.5 -37q0 -23 -15.5 -38.5t-37.5 -15.5
q-23 0 -38.5 15.5t-15.5 38.5q0 22 15.5 37.5t38.5 15.5z" />
    <glyph glyph-name="less" unicode="&#x3c;" horiz-adv-x="542" 
d="M486 635v-46l-366 -233l366 -244v-46l-429 287v7z" />
    <glyph glyph-name="equal" unicode="=" 
d="M474 403v-36h-415v36h415zM474 305v-36h-415v36h415z" />
    <glyph glyph-name="greater" unicode="&#x3e;" horiz-adv-x="542" 
d="M57 635l429 -275v-7l-429 -287v46l366 244l-366 233v46z" />
    <glyph glyph-name="question" unicode="?" horiz-adv-x="413" 
d="M178 683q-50 0 -81 -37q-27 -33 -27 -78q0 -10 3 -10q1 0 2.5 3t4.5 8t6 8q10 10 28 10q24 0 35.5 -13.5t11.5 -32.5q0 -27 -23 -41q-13 -7 -29 -7q-40 0 -58 34q-9 19 -9 41q0 80 72 119q39 20 88 20q77 0 125 -42.5t48 -112.5q0 -53 -27 -98q-9 -15 -24 -32
t-25.5 -26.5l-29.5 -25.5t-22 -19q-73 -64 -73 -112q0 -10 2 -19t5.5 -18t4.5 -15q4 -18 -7 -18q-12 0 -22 32.5t-10 56.5q0 42 18.5 78t57.5 88q2 3 10 14t10 13.5t9 12.5t8.5 13.5t6.5 12.5t7 14l5 13t4 15t2 15.5t1 17.5q0 53 -29.5 85.5t-78.5 32.5zM180 102
q22 0 37.5 -15.5t15.5 -38.5q0 -22 -15.5 -38t-38.5 -16q-13 0 -25 6q-29 15 -29 48q0 13 6 25q15 29 49 29z" />
    <glyph glyph-name="at" unicode="@" horiz-adv-x="990" 
d="M679 467l20 46q6 14 16 14q7 0 10 -1q21 -3 22 -3q12 0 23 5t16 5q8 0 8 -11q0 -3 -1.5 -6t-5 -9t-6.5 -13l-121 -267q-29 -62 -29 -89q0 -24 31 -24q32 0 77 21.5t73 51.5q37 38 56 93.5t19 110.5q0 61 -23 118.5t-65 96.5q-55 51 -142 71q-49 11 -94 11
q-154 0 -264 -96q-71 -63 -109 -152.5t-38 -192.5q0 -81 28 -162q24 -66 58 -106q43 -51 108 -80t141 -29q109 0 203 47q75 36 125.5 87.5t73.5 95.5q4 12 17 12q5 0 9 -3t4 -7q0 -22 -52.5 -79t-109.5 -94q-132 -86 -285 -86q-96 0 -185 40q-62 29 -110 75
q-113 111 -113 277q0 64 17.5 123.5t46.5 104.5t56.5 75.5t57.5 55.5q139 115 314 115q97 0 176 -30.5t126 -77.5q78 -78 78 -201q0 -78 -33.5 -142t-85.5 -105q-42 -33 -94 -49.5t-97 -16.5q-41 0 -59.5 17.5t-18.5 39.5q0 13 3 21q-55 -80 -138 -80q-57 0 -89.5 36.5
t-32.5 89.5q0 55 31.5 112.5t77.5 104.5q102 104 194 104q34 0 57 -17.5t28 -47.5zM582 259l68 144q14 31 14 43q0 25 -22 45q-16 16 -44 16q-57 0 -121 -95q-87 -129 -87 -233q0 -66 50 -66q72 0 142 146z" />
    <glyph glyph-name="A" unicode="A" horiz-adv-x="602" 
d="M381 223h-214l-44 -122q-16 -45 -16 -62q0 -9 6 -14l6 -3q5 -1 50 -4q2 0 7 -0.5t8 -0.5t7 -1t5.5 -3t1.5 -5t-2 -5q-3 -5 -24 -5h-10q-8 0 -77 3q-34 2 -48 2q-16 1 -25 -1t-22 -2q-14 0 -14 9q0 3 2 5t5.5 3t7 1.5t8.5 0.5h7q31 2 45.5 9t23.5 33l210 592l13 44
q2 11 8 11q5 0 5 -6l238 -650q6 -19 17 -26q15 -9 55 -9q26 0 26 -10q0 -9 -15 -9q-3 0 -9 0.5t-9 0.5h-2l-125 2q-9 0 -28.5 -0.5t-29.5 -0.5h-8l-58 -1h-2q-2 0 -7.5 -0.5t-8.5 -0.5q-20 0 -20 10q0 8 27 11q9 1 30.5 1.5t33.5 2.5q18 4 21 8q3 5 1 14zM173 246h202
l-101 286z" />
    <glyph glyph-name="B" unicode="B" horiz-adv-x="571" 
d="M306 371v-6q59 -2 108 -21q21 -9 34 -17q76 -47 76 -145q0 -101 -93 -151q-7 -4 -21 -10q-40 -17 -153 -20q-30 -1 -91 -1h-122q-17 0 -17 9t20 9q15 0 25 0.5t17 3t11 3.5t5.5 7.5t2 9t0 13.5t-0.5 16v541q0 32 -1 41q0 1 -0.5 3l-1 4t-1.5 3q-8 13 -51 13q-27 0 -27 11
q0 8 25 8h11q3 0 10 -0.5t11 -0.5l195 -2q58 -1 94.5 -8t66.5 -28q62 -40 62 -119q0 -65 -46 -107q-53 -48 -148 -59zM206 669v-290h9l55 2q59 2 89.5 41t30.5 108q0 94 -44 125q-23 17 -87 17q-25 0 -53 -3zM206 358v-298q0 -22 1 -26.5t5 -6.5q16 -8 59 -7q68 2 106 43
q42 45 42 127q0 129 -102 159q-13 4 -28 6q-32 4 -83 3z" />
    <glyph glyph-name="C" unicode="C" horiz-adv-x="654" 
d="M607 12v-6q0 -13 -8 -13t-14 15q-17 37 -28 43q-72 -63 -173 -63q-149 0 -246 105q-94 101 -94 256q0 110 45 193q19 36 43 62q64 74 156 93q38 8 73 8q38 0 68 -6.5t45.5 -13.5t43.5 -23q10 -6 15 -8q10 -5 18 -5q4 0 6 1q6 2 11 15q12 25 16 27q1 1 5 1q8 0 8 -7
q0 -1 -0.5 -3t-1 -5t-0.5 -6q-10 -64 -11 -165q0 -33 -3 -37q-2 -3 -8 -3q-7 0 -9 3.5t-4 15.5q-15 82 -37 119q-49 80 -154 80q-80 0 -128 -54q-25 -28 -43 -66q-42 -85 -42 -218q0 -141 51 -230q12 -20 19 -29q29 -37 72.5 -58.5t89.5 -21.5q76 0 127 49q19 18 34 46
q24 45 37 111q6 24 13 24q10 0 10 -15q0 -1 -2 -27q-4 -84 -4 -111q0 -26 2 -32t2 -41z" />
    <glyph glyph-name="D" unicode="D" horiz-adv-x="716" 
d="M107 72v539q0 51 -7 57q-7 7 -33 7t-34 3t-8 9q0 5 6 7q3 1 9 1q12 0 32.5 -1t36.5 -1h107q183 0 255 -25q57 -20 97 -58q50 -46 78 -115.5t28 -150.5q0 -174 -123 -272q-55 -44 -113.5 -58t-138.5 -14q-12 0 -35.5 0.5t-35.5 0.5q-33 1 -99 1q-42 0 -45.5 -1t-43.5 -1
q-14 0 -18 5q-2 2 -2 5q0 9 18 9h14q41 0 51 15q4 6 4 38zM207 609v-540v-8.5v-9t1 -7t3 -7t6 -4.5q2 -1 8 -3q35 -9 84 -9q115 0 183 76q22 25 36 57q34 74 34 194q0 136 -41 210q-20 35 -47 58.5t-60 35t-62.5 15.5t-66.5 4q-60 0 -72 -14q-6 -7 -6 -48z" />
    <glyph glyph-name="E" unicode="E" horiz-adv-x="582" 
d="M206 378h24q47 0 65.5 0.5t42.5 5.5t35 16q6 6 10.5 13.5t7.5 20.5t4 18t3 23t2 19q0 2 1 6.5t1 6t1.5 4t3.5 3.5t5 1q10 0 10.5 -18.5t-2.5 -34.5q-5 -68 0 -180q1 -15 1.5 -25t1 -13.5t0.5 -6.5v-8q0 -15 -11 -15q-7 0 -9.5 9t-6.5 37q-1 12 -2 18q-6 47 -26 62
q-24 17 -117 17h-45v-336h97q91 0 132 4q8 1 29 5q42 11 60 52q5 12 7.5 23.5t4.5 29.5t3 23q4 22 9 24q1 1 4 1q9 0 10 -14t-1 -34q-3 -63 -3 -108v-33q-95 5 -388 5h-74q-6 0 -20 -0.5t-20 -0.5h-11q-13 0 -17 4q-2 2 -2 5q0 8 29 9q8 1 13 1q27 2 33 10.5t6 47.5v562v16
q0 9 -4 15q-7 9 -44 9h-15q-16 0 -16 10q0 3 4 5q4 3 18 3l68 -1q51 -2 103 0q10 0 30 0.5t30 0.5h193q17 0 26 1q1 0 11.5 1t17.5 2q1 -16 8 -106l6 -67q1 -12 -10 -12q-10 0 -15 26q-18 87 -62 113q-30 18 -168 18h-82v-293z" />
    <glyph glyph-name="F" unicode="F" horiz-adv-x="543" 
d="M206 669v-292h64q78 0 101 21q5 4 9 9.5t7 13.5t5 12.5t3.5 15.5t2 13.5t1.5 15.5t1 14q2 23 12 23t10 -16q0 -8 -2 -49.5t-2 -72.5q0 -49 1 -83t2.5 -50t1.5 -19q0 -12 -10 -12q-4 0 -7 3.5t-5 10.5t-2.5 12l-1.5 14.5t-1 11.5t-1.5 11.5t-1.5 11.5t-1.5 10t-2.5 11
t-3.5 9t-5 9t-6.5 7t-9 7q-23 15 -104 15q-23 0 -55 -2v-298q0 -23 11 -31q10 -7 29.5 -7.5t33 -1.5t13.5 -9t-20 -8q-24 0 -71 0.5t-70 0.5q-14 0 -43 -0.5t-44 -0.5q-8 0 -12 1q-5 3 -6 4t-1 3q0 10 35 10q33 1 39.5 9.5t6.5 39.5v7v543q0 40 -3 44q-3 6 -10.5 9t-14 4
t-19 1.5t-16.5 0.5q-16 1 -16 11t22 10q24 0 88.5 -1t74.5 -1h107q87 0 171 4q29 3 36 4q1 -4 1 -11t1 -10q1 -7 3 -37q11 -112 11 -116q0 -14 -10 -14q-3 0 -5.5 1.5t-3.5 4l-2 5t-1.5 7.5t-1.5 7q-15 76 -49 105q-29 25 -103 27q-10 0 -30 0.5t-30 0.5q-43 0 -101 -3z" />
    <glyph glyph-name="G" unicode="G" horiz-adv-x="665" 
d="M599 125v-57q-37 -31 -70 -49q-59 -31 -138 -31q-63 0 -116 15.5t-86 36.5t-59.5 50.5t-38 50t-20.5 42.5q-28 69 -28 154q0 166 92 268q91 100 247 100q32 0 53 -5q18 -4 81 -31q25 -11 37 -11q18 0 26 24q4 14 12 14t8 -10q0 -2 -0.5 -4.5t-1 -6.5t-0.5 -8
q-3 -32 -4 -49q-1 -15 -1 -46q0 -58 -1 -89q0 -18 -11 -18q-8 0 -10 16q-6 69 -30 114q-52 92 -159 92q-92 0 -153 -75q-36 -46 -55 -117q-18 -69 -18 -152q0 -159 62 -248t169 -89q78 0 107 46q10 17 13 40q2 16 2 47v7q0 17 -0.5 24.5t-4 16.5t-12 12t-22.5 3h-45
q-13 0 -13 8q0 11 29 11q9 0 54 -1t62 -1q37 0 69 1t40 1q9 0 13 -1q9 -2 9 -9q0 -9 -12 -9q-3 0 -10 0.5t-10 0.5q-13 0 -19 -1q-29 -2 -33 -15q-4 -16 -4 -62z" />
    <glyph glyph-name="H" unicode="H" horiz-adv-x="712" 
d="M506 365h-301v-283q0 -47 7 -54q8 -8 47 -10q2 0 6 -0.5t6 -0.5h4.5t4 -1t3 -1.5t2 -2t0.5 -3.5q0 -9 -30 -9q-25 0 -46.5 1t-34.5 1q-7 0 -21.5 -0.5t-21.5 -0.5q-28 -1 -83 -1q-20 0 -20 8q0 10 24 10q15 0 23 1q22 2 28 11q3 5 3 35v569q0 28 -6 35t-31 7
q-3 0 -9.5 0.5t-9.5 0.5q-11 1 -14.5 1.5t-5.5 2t-2 6.5q0 8 15 8q5 0 14.5 -0.5t43.5 -1.5t99 -1q34 0 37 1t28 1q7 0 10 -1q8 -3 8 -9q0 -3 -2 -5q-3 -4 -22 -4h-23q-10 0 -15 -2q-7 -2 -10 -6q-6 -9 -6 -36v-241h301v215q0 43 -2 50q-5 21 -32 21h-30q-15 0 -15 10
q0 4 3 5q4 3 14 3q8 0 24 -0.5t24 -0.5h6h73q40 0 60 1q5 0 15 0.5t15 0.5q22 0 22 -9t-16 -9l-28 -1q-24 0 -30 -9q-3 -5 -3 -17q-1 -11 -1 -34v-543q0 -39 5 -45q8 -11 38 -11h20q16 0 16 -8q0 -9 -27 -9q-11 0 -35 0.5t-35 0.5q-23 0 -69 -1t-68 -1q-19 0 -22 3
q-2 2 -2 5q0 8 47 11q24 3 28 7q5 5 5 31v309z" />
    <glyph glyph-name="I" unicode="I" horiz-adv-x="314" 
d="M107 85v526q0 48 -5 55q-9 12 -63 12q-11 0 -11 9q0 3 1 4q3 4 13 4q22 0 64 -1t63 -1q12 0 52 1t49 1q17 0 17 -10q0 -6 -24 -8q-43 -2 -49 -8q-7 -7 -7 -44v-556q0 -34 4 -39q8 -12 65 -14q12 0 12 -8t-17 -8q-10 0 -52.5 1.5t-87.5 1.5q-25 0 -45 -2q-14 -1 -41 -1
q-14 0 -17 4q-1 1 -1 4q0 9 11 9q6 1 17 1.5t17 0.5q18 2 25 6.5t9 19.5q1 11 1 40z" />
    <glyph glyph-name="J" unicode="J" horiz-adv-x="328" 
d="M132 30v604q0 26 -9 34q-9 9 -43 9h-29q-13 0 -13 8q0 10 18 10q6 0 22.5 -1t43.5 -1q25 0 89.5 1t76.5 1q23 0 23 -10q0 -8 -12 -8q-56 -2 -57 -2q-3 0 -5 -2q-6 -5 -6 -33v-432q0 -163 -9 -202q-13 -52 -58.5 -89t-100.5 -37q-40 0 -63 22t-23 53q0 25 15.5 40.5
t41.5 15.5q24 0 38.5 -15t14.5 -34q0 -17 -13 -35q-9 -11 -9 -14v-3q0 -9 15 -9q18 0 30.5 13.5t17.5 34.5q4 18 4 81z" />
    <glyph glyph-name="K" unicode="K" horiz-adv-x="666" 
d="M207 358v-289v-16.5t2 -12.5t5.5 -11.5t11 -6t19.5 -4.5q35 -2 38 -3q5 -1 5 -8q0 -9 -14 -9q-12 0 -55 1.5t-74 1.5q-34 0 -64.5 -1.5t-38.5 -1.5q-15 0 -15 9q0 4 2.5 6t7 3t8.5 1.5t10 0.5h9q37 2 41 18q0 1 0.5 2.5t0.5 2.5q1 5 1 34v548q0 39 -8 45q-9 6 -34 6h-13
q-10 0 -15 2q-9 3 -9 9q0 3 2 5q3 4 12 4q2 0 7 -0.5t7 -0.5q25 -2 91 -2q51 0 76 1q28 2 42 2q22 0 22 -11q0 -10 -40 -10q-14 0 -21 -1q-10 -2 -14.5 -9t-4.5 -11v-18v-258l258 258q20 20 20 28q0 12 -41 12h-20q-16 0 -16 10q0 4 4 6t11 2.5t13 1t15.5 0t12.5 -0.5h134
q26 0 26 -11t-22 -11h-30q-26 0 -36.5 -5t-27.5 -23l-228 -234l291 -333l14 -16.5l13 -15t10 -10t12 -8.5q7 -4 24 -6q4 0 11 -1t10 -1q6 -1 12.5 -1t10 -0.5t4.5 -2.5q2 -2 2 -6q0 -9 -16 -9q-21 0 -61 0.5t-60 0.5q-42 0 -80.5 -1t-54.5 -1q-8 0 -12 1q-7 1 -7 7
q0 8 25 10q3 0 11.5 1t14.5 1.5t12.5 2t10 4.5t3.5 8q0 6 -10 18z" />
    <glyph glyph-name="L" unicode="L" horiz-adv-x="564" 
d="M206 624v-601q99 -3 163 1q19 1 52 5q66 9 88 45q11 19 22 92q2 11 5 13q4 2 7 2q12 0 12 -22v-80q0 -10 -3 -86q-26 0 -126.5 4t-284.5 4q-15 0 -45 -0.5t-45 -0.5q-24 0 -24 9q0 8 16 8q2 0 5.5 0.5t5.5 0.5q5 0 13 0.5t11.5 1t8.5 1.5t8 2.5t5 3.5q7 7 7 37v562
q0 34 -5 40q-3 4 -9 6q-8 3 -26 3h-21q-19 0 -19 11q0 9 17 9q14 0 62.5 -1.5t59.5 -1.5q27 0 55 1.5t47 1.5q18 0 18 -10q0 -7 -8 -8.5t-19 1t-24.5 0.5t-21.5 -10q-7 -7 -7 -44z" />
    <glyph glyph-name="M" unicode="M" horiz-adv-x="755" 
d="M69 694h47q64 0 83 1l188 -507l161 507l150 1q43 0 43 -11q0 -8 -4.5 -9.5t-17.5 -1.5q-28 0 -40 -3q-21 -5 -26 -14q-4 -7 -4 -16q-1 -7 -1 -42v-525q0 -41 8 -47q0 -1 2 -1t2 -1q19 -7 64 -7q23 0 23 -10t-21 -10q-27 0 -48.5 1t-70.5 1h-35h-35l-61 -1q-21 0 -21 10
q0 9 18 9h11q28 0 44 3q12 2 18 8q5 4 5 45v540l-184 -591q-3 -14 -10 -14q-6 0 -15 24l-204 561l1 -26v-507q0 -24 3 -29q6 -13 51 -13q30 0 30 -9q0 -10 -21 -10q-16 0 -25 1q-7 1 -21 1l-118 -3q-18 0 -18 9q0 6 9 8q14 3 48 3q21 0 26.5 6t5.5 34v567q0 26 -9 35
q-12 10 -66 14q-16 0 -16 9q0 8 12 10q5 1 15 1q3 0 10 -0.5t11 -0.5h3z" />
    <glyph glyph-name="N" unicode="N" horiz-adv-x="656" 
d="M528 180v460q0 22 -3 26q-2 3 -5 5q-8 5 -32 5h-31q-22 0 -22 9q0 6 8 8t23 2q13 0 38.5 -0.5t38.5 -0.5q11 0 34 0.5t34 0.5q31 0 31 -9q0 -10 -21 -10q-7 0 -19.5 0.5t-18.5 0.5q-18 0 -24 -4q-4 -4 -4 -35v-598v-9.5t0.5 -10t0.5 -9t-0.5 -8t-1.5 -6.5t-3 -4.5
t-4 -1.5q-5 0 -13 11l-398 594v-514q0 -48 4 -53q6 -10 47 -11h10.5h13t10.5 -0.5t8.5 -3t2.5 -5.5q0 -10 -26 -10q-10 0 -32 2q-26 2 -58 2q-14 0 -28.5 -2t-53.5 -2q-23 0 -23 9t20 9q47 0 59 4q6 2 9.5 4.5t5.5 4.5t3 7.5t1 7.5v10.5v11.5v493q0 26 -1.5 41.5t-9.5 34
t-23 28.5t-37 9.5t-38 2.5q-8 2 -8 8q0 9 18 9q26 0 49.5 -1t31.5 -1q7 0 19.5 0.5t18.5 0.5q18 1 54 1z" />
    <glyph glyph-name="O" unicode="O" horiz-adv-x="720" 
d="M365 705q123 0 212 -92q58 -60 84 -148q17 -61 17 -122q0 -158 -98 -262q-29 -31 -68 -54q-68 -39 -143 -39q-82 0 -152 40q-46 25 -78 62q-55 60 -81 148q-15 54 -15 112q0 106 46 192q20 38 53 73q88 90 223 90zM360 687q-78 0 -124 -49q-9 -10 -18.5 -25t-26 -49
t-26.5 -91.5t-10 -127.5q0 -127 37 -213q57 -126 182 -126q90 0 139 84q53 92 53 248q0 182 -75 285q-23 32 -52 48t-79 16z" />
    <glyph glyph-name="P" unicode="P" horiz-adv-x="504" 
d="M206 350v-284q0 -28 4.5 -36t19.5 -10q26 -4 51 -4q16 0 16 -7q0 -10 -15 -10q-2 0 -5 0.5t-6 0.5h-10q-34 -1 -102 -1h-106q-30 0 -30 10q0 4 5 6q3 1 10 1q50 0 62 10q7 7 7 20v589q0 19 -4 27q-5 12 -26 14q-5 1 -16 1h-15q-1 0 -3 -0.5t-3 -0.5h-2q-15 0 -15 9
q0 10 28 10h220q113 0 167 -40q60 -45 60 -125q0 -32 -10 -61q-21 -58 -73 -92t-132 -34q-36 0 -77 7zM206 631v-266q77 -7 130 28q57 39 57 133q0 73 -29 110q-30 40 -99 40q-37 0 -53 -14q-6 -6 -6 -31z" />
    <glyph glyph-name="Q" unicode="Q" horiz-adv-x="721" 
d="M411 -9v-36q0 -93 51 -119q28 -14 80 -14q20 0 32.5 1.5t21.5 1.5q21 0 21 -11q0 -12 -48 -18t-85 -6q-83 0 -128 35q-56 44 -47 169q-46 8 -92 35t-78 61q-96 106 -96 260q0 107 46 192q20 38 53 73q89 90 226 90q121 0 209 -92q101 -105 101 -275q0 -154 -98 -257
q-69 -75 -169 -90zM360 687q-78 0 -124 -49q-23 -25 -40 -63q-41 -91 -41 -230q0 -130 37 -214q56 -125 182 -125q60 0 100 35q19 17 39 49q53 90 53 248q0 130 -36 216q-15 36 -39 69q-23 32 -52 48t-79 16z" />
    <glyph glyph-name="R" unicode="R" horiz-adv-x="588" 
d="M206 358v-315q0 -18 24 -23q22 -4 54 -4q13 0 13 -8q0 -6 -8 -8q-5 -1 -15 -1q-18 0 -54 0.5t-54 0.5q-20 0 -60 -0.5t-59 -0.5q-11 0 -16 1q-8 2 -8 8q0 8 16 8q54 0 64 12q4 5 4 29v562q0 40 -8 48q-3 3 -7.5 4.5t-11.5 2.5t-12.5 1.5t-16 0.5h-15.5q-14 0 -14 9
q0 10 18 10q4 0 11 -0.5t11 -0.5q12 0 34 -1t34 -1q6 0 19 -0.5t19 -0.5q17 0 49.5 1.5t62.5 1.5q102 0 156 -39q24 -18 38 -40q20 -34 20 -73q0 -94 -93 -141q-55 -28 -115 -30q-10 0 -10 -4q0 -1 10 -3q96 -18 136 -62q16 -18 26.5 -38.5t17.5 -56.5t9 -49t8 -64
q8 -60 24 -74q13 -12 32 -12q15 0 15 8q0 1 -3 5.5t-3 12.5q0 21 22 21q9 0 16.5 -6t7.5 -19q0 -42 -68 -42q-78 0 -124 65q-23 31 -29 76q-2 14 -5.5 50t-6.5 60q-8 54 -29 78q-37 41 -126 41zM206 633v-254q75 -3 119 22q62 35 62 130q0 52 -15 83q-8 16 -22 31
q-30 29 -90 29q-32 0 -45 -11q-9 -9 -9 -30z" />
    <glyph glyph-name="S" unicode="S" horiz-adv-x="498" 
d="M422 551q1 -5 1 -15q0 -12 -9 -12q-5 0 -8 3t-5 12q-10 49 -33 82q-45 64 -113 64q-45 0 -77 -29.5t-32 -90.5q0 -25 5 -41q10 -35 38 -61q12 -11 49 -33q9 -5 27.5 -14.5t27.5 -14.5q133 -70 162 -137q14 -29 14 -69q0 -78 -55 -136q-68 -71 -176 -71q-22 0 -45 5
q-16 3 -76 28q-21 9 -30 9q-6 0 -9 -3q-5 -4 -5 -16q-2 -25 -14 -25q-10 0 -10 14q0 3 4.5 43.5t4.5 78.5q0 21 -1.5 35t-1.5 37q0 16 12 16q9 0 12 -15q13 -73 35 -111q45 -76 136 -76q28 0 54 9q26 10 42 27q32 36 32 95q0 36 -12 64.5t-37.5 50t-43 32.5t-50.5 28
l-57.5 31t-44 30t-39.5 40q-16 24 -24 53q-5 23 -5 43q0 87 54 141q55 53 139 53q30 0 90 -23q24 -8 32 -8q13 0 17 13q1 2 1.5 6.5t1 6.5t2 4.5t4 3.5t5.5 1q7 0 9 -6q1 -2 1 -6q0 -3 -0.5 -5.5t-1 -7.5t-0.5 -10q-2 -17 -2 -50t5 -73z" />
    <glyph glyph-name="T" unicode="T" horiz-adv-x="585" 
d="M339 671v-603q0 -25 6 -35q2 -3 5 -5.5t5.5 -4t7.5 -2.5t8 -1.5t9 -1t9 -0.5t10.5 -0.5t9.5 -0.5q7 0 10 -1q7 -1 7 -8q0 -9 -16 -9q-6 0 -18 1q-26 2 -88 2q-38 0 -57 -1q-9 0 -28 -0.5t-28 -0.5h-18q-21 0 -21 8q0 3 1 4q4 6 42 6q31 0 39 12q6 8 6 42v599
q-94 0 -123 -10q-41 -14 -58 -54q-10 -23 -16 -68q-4 -31 -14 -31q-4 0 -8 4t-4 17q0 7 1.5 23.5t1.5 21.5q1 8 2 27.5t2.5 43.5t4.5 50h58q32 0 95.5 -1.5t95.5 -1.5h66q100 0 212 4q1 -11 4 -51t4 -50l3.5 -44l2 -25t0.5 -10q0 -12 -11 -12t-16 24q-1 5 -2.5 19t-2.5 19
q-6 34 -23 61q-22 34 -69 42q-30 5 -107 2z" />
    <glyph glyph-name="U" unicode="U" horiz-adv-x="666" 
d="M200 640v-397q0 -47 1.5 -72t11 -55t28.5 -52q40 -49 125 -49q130 0 165 128q11 39 11 171v316q0 32 -6 38t-55 8q-13 0 -18 6q-2 2 -2 5q0 6 7 8q2 1 7 1q12 0 24 -1t52 -1q14 0 41 0.5t40 0.5q25 0 25 -10q0 -9 -19 -9q-3 0 -8.5 0.5t-8.5 0.5t-8 0.5t-8 0.5
q-19 0 -26 -7q-6 -7 -6 -29v-375q0 -120 -34 -182q-53 -97 -193 -97q-147 0 -207 82q-39 54 -39 181v362q0 34 -2 41q-2 10 -7 14q-4 4 -9.5 5t-20.5 1t-23 1q-17 0 -17 10q0 7 6 8q4 1 11 1q18 0 53 -0.5t52 -0.5q48 0 72 1q7 0 21.5 0.5t22.5 0.5q18 0 18 -11q0 -9 -15 -9
l-31 -1q-25 0 -29 -10q-2 -3 -2 -24z" />
    <glyph glyph-name="V" unicode="V" horiz-adv-x="633" 
d="M194 652l166 -487l154 445q11 26 11 46q0 8 -7 14q-10 8 -42 8q-4 0 -13 -0.5t-13 -0.5q-17 0 -17 8q0 3 3 6q6 4 21 4q17 0 48.5 -0.5t46.5 -0.5q14 0 41 0.5t41 0.5q20 0 20 -8q0 -9 -19 -9q-43 0 -60 -13q-15 -12 -28 -50l-207 -608q-7 -20 -11 -20q-3 0 -6 3
t-5.5 8.5t-4 10l-3.5 10.5t-3 8l-210 605q-7 25 -21 35q-14 11 -41 11h-21q-20 0 -24 6q-1 1 -1 4q0 9 22 9q17 0 51 -1.5t62 -1.5q20 0 87 1.5t77 1.5q22 0 22 -10q0 -4 -5 -7q-7 -4 -17 -4q-2 0 -7 -0.5t-7 -0.5l-61 -2q-26 -1 -19 -21z" />
    <glyph glyph-name="W" unicode="W" horiz-adv-x="912" 
d="M707 678h-17q-47 0 -68 -12q-10 -6 -19 -28l-76 -184l123 -310l158 459q14 40 14 53q0 17 -18 19q-6 1 -22 1t-27 1q-17 1 -17 10q0 10 20 10q16 0 44.5 -1.5t40.5 -1.5q11 0 34 0.5t34 0.5q14 0 21.5 -2t8 -3t0.5 -3q0 -3 -3 -6q-5 -4 -31 -4q-38 -1 -50 -23
q-9 -17 -26 -65l-201 -584q-6 -18 -11 -18q-2 0 -4 2q-3 3 -11 22l-133 341l-138 -350q-6 -15 -11 -15q-6 0 -12 17l-237 631q-4 11 -13 29q-5 7 -25 10q-5 0 -15.5 1t-15.5 1q-12 2 -20 4t-8 9q0 9 16 9q3 0 14.5 -1t35 -2t53.5 -1q16 0 62 1.5t89 1.5q18 0 18 -9
q0 -11 -24 -12q-27 0 -52 -4q-17 -3 -17 -13q0 -1 7 -22l177 -498l100 249l-99 256q-5 16 -16 25q-12 9 -42 9h-11q-16 0 -16 8q0 5 3 8q4 4 18 4q10 0 19.5 -0.5t20.5 -1.5t18 -1q58 -2 245 -2q45 0 71.5 2t33.5 2q24 0 24 -10q0 -9 -17 -9zM512 488l65 159q6 11 -2 18
q-10 10 -64 10q-49 0 -55 -6q-3 -3 -3 -7q0 -3 4 -14z" />
    <glyph glyph-name="X" unicode="X" horiz-adv-x="625" 
d="M326 19l45 -1q28 0 36 4q8 5 8 13q0 15 -15 47l-117 237l-142 -240q-17 -29 -17 -39t6 -14q12 -7 56 -7h18q16 0 16 -10q0 -9 -15 -9q-11 -2 -63 -0.5t-63 1.5q-39 0 -59 -1q-29 -2 -29 9t23 11q45 1 64 18q9 7 26 33l165 278l-151 283q-19 34 -37 41q-12 4 -53 4h-13
q-12 0 -12 8q0 11 19 11q42 0 88 -2q7 0 18.5 -0.5t16.5 -0.5l105 1h6q6 0 16 0.5t16 0.5h14q19 0 19 -8q0 -11 -36 -11h-19q-37 0 -44 -7q-2 -2 -3 -4t-1 -5q0 -4 4 -16l110 -218l126 204q13 20 13 31q0 8 -9 11q-10 4 -42 4h-13q-18 0 -18 9q0 10 22 10q5 0 14 -0.5
t13 -0.5q13 -1 39 -1q18 0 58.5 1.5t48.5 1.5q21 0 21 -9q0 -10 -31 -10h-14q-29 0 -43 -10q-11 -8 -46 -66l-125 -202l164 -319q24 -45 49 -56q15 -6 60 -6q25 0 25 -10q0 -8 -23 -8h-19q-8 0 -26 0.5t-26 0.5q-23 1 -70 1q-42 0 -78 -1.5t-62 -1.5h-8q-29 0 -29 11
q0 9 23 9z" />
    <glyph glyph-name="Y" unicode="Y" horiz-adv-x="607" 
d="M18 678h-14q-21 0 -21 9q0 10 18 10q14 0 82 -1.5t84 -1.5q46 0 69 1t32 1q17 0 17 -11q0 -8 -34 -8q-62 0 -62 -22q0 -1 0.5 -4t0.5 -4l1 -5q1 -5 2 -7l150 -291l143 287q4 10 5 15q1 3 1 10q0 16 -17 18q-24 4 -47 4q-22 0 -22 10q0 8 19 8q9 0 29 -0.5t29 -0.5
q8 0 23.5 0.5t23.5 0.5q38 0 56 -1q32 0 32 -9q0 -8 -17 -8q-48 2 -68 -19q-11 -13 -20 -33l-128 -263q-22 -45 -23 -51q-3 -13 -3 -43v-203q0 -15 1 -23q2 -11 6 -15q7 -7 53 -10h8t10 -0.5t8 -1.5t6.5 -3t2.5 -5q0 -8 -18 -8q-45 0 -103 1.5t-77 1.5q-42 0 -63 -2
q-3 0 -8 -0.5t-8 -0.5q-14 0 -14 9q0 8 26 10q57 3 65 13q7 9 7 45v211l-177 352q-14 26 -17 28q-13 10 -49 10z" />
    <glyph glyph-name="Z" unicode="Z" horiz-adv-x="562" 
d="M495 672l-339 -649q20 -2 31 -2q24 -1 71 -1h21.5h23t20.5 0.5t22 1t19.5 2t20 3.5l17.5 5.5t18 7.5t15 9.5t14 12.5q19 20 37 66.5t21 81.5q3 17 13 17q12 0 12 -12q-1 -12 -15 -111q-9 -64 -12 -98q-1 -5 -1.5 -6.5t-3 -3t-8.5 -1.5q-5 0 -68 3q-32 2 -154 2
q-114 0 -146 -2q-10 -1 -24 -2t-24.5 -2t-20.5 -1q-17 0 -17 8q0 1 17 34l333 633q-36 5 -82 5q-140 0 -173 -50q-15 -22 -37 -123q-4 -21 -15 -21q-10 0 -10 11q0 22 24 156q5 30 11 53q46 -6 204 -6q65 0 116.5 2t65.5 2q11 0 11 -7q0 -2 -8 -18z" />
    <glyph glyph-name="bracketleft" unicode="[" horiz-adv-x="305" 
d="M89 -146v841h156q17 0 21 -3t4 -11q0 -5 -3.5 -6.5t-20.5 -1.5h-34q-26 0 -35 -3q-2 0 -4 -2q-9 -5 -9 -30v-709q0 -18 1 -27q2 -15 6 -19q7 -7 50 -7h39q6 0 9 -1q8 -2 8 -10t-5.5 -9.5t-18.5 -1.5h-164z" />
    <glyph glyph-name="backslash" unicode="\" horiz-adv-x="489" 
d="M13 726h49l413 -756h-49z" />
    <glyph glyph-name="bracketright" unicode="]" horiz-adv-x="217" 
d="M217 -146h-164q-22 4 -24 11q0 11 17 11h39q43 0 50 7t7 46v709q0 25 -9 30q-7 5 -39 5h-34q-17 0 -20.5 1.5t-3.5 6.5q0 7 3 10q4 4 22 4h156v-841z" />
    <glyph glyph-name="asciicircum" unicode="^" 
d="M469 325h-99q-82 109 -140 258q-40 -106 -89 -180q-56 -84 -71 -84q-11 0 -11 11q0 9 12 23q80 94 147 280q23 63 30 69q5 5 12 5q11 0 17 -11t29 -65q70 -165 163 -306z" />
    <glyph glyph-name="underscore" unicode="_" horiz-adv-x="520" 
d="M23 -91h474v-46h-474v46z" />
    <glyph glyph-name="grave" unicode="`" horiz-adv-x="501" 
d="M219 663l65 -147q2 -4 2 -5q0 -6 -6 -6q-5 0 -17 11q-37 35 -53 52l-91 95h100z" />
    <glyph glyph-name="a" unicode="a" horiz-adv-x="396" 
d="M332 297v-187q0 -51 4 -65q6 -25 25 -25q15 0 33 9q10 6 19 16q6 6 9 6q6 0 6 -6q0 -10 -12 -20q-13 -11 -38 -22q-28 -12 -54 -12q-37 0 -54 21q-7 8 -12 20q-6 14 -6 30q-25 -49 -75 -67q-18 -7 -42 -7q-65 0 -90 48q-10 19 -10 43q0 50 43 92q20 20 56 38q25 12 59 20
q31 8 59 12v55q0 51 -5 72q-2 8 -4 14q-18 51 -71 51q-42 0 -66 -25q-17 -18 -17 -42q0 -5 1 -6q2 -2 11 -2q14 -1 23.5 -12.5t9.5 -26.5q0 -18 -11 -31t-33 -13q-23 0 -38 16t-15 41q0 14 5 29q10 29 32 50q41 37 114 37q34 0 56 -5q48 -11 68 -37q9 -11 14 -27
q6 -20 6 -82zM252 137v87q-58 -13 -93 -34q-47 -29 -47 -84q0 -34 19 -53.5t46 -19.5q23 0 42 14.5t27 33.5q2 4 4 12q2 16 2 44z" />
    <glyph glyph-name="b" unicode="b" horiz-adv-x="481" 
d="M150 705v-314q15 24 40 39q14 8 31 13q16 5 41 5q86 0 136 -57q52 -57 52 -151q0 -59 -20 -108q-15 -36 -39 -66q-64 -78 -154 -78q-33 0 -67 13q-32 13 -45 13q-11 0 -25 -9q-7 -5 -16 -9q-2 -1 -6 -1q-8 0 -8 33v520q0 50 -2 75q0 27 -11 34q-6 3 -23 3h-16
q-17 0 -21 3q-3 1 -3 5q0 7 11 7h14q53 0 106 23q16 7 25 7zM151 262v-111q0 -85 7 -105q13 -42 71 -42q59 0 89 45q13 20 21 44q20 59 20 139q0 89 -24 137q-29 60 -87 60q-30 0 -55 -18t-33 -43q-9 -28 -9 -106z" />
    <glyph glyph-name="c" unicode="c" horiz-adv-x="409" 
d="M245 448q65 0 111 -36q39 -29 39 -67q0 -21 -12.5 -33.5t-32.5 -12.5q-18 0 -31 11.5t-13 30.5q0 12 6 24q7 14 7 23q0 17 -18 31.5t-53 14.5q-72 0 -105 -73q-22 -47 -22 -122q0 -112 36 -170q13 -21 29 -33q27 -21 65 -21q15 0 28 3q18 5 41 19q10 6 14 10
q10 8 18.5 21.5t12.5 18.5q5 5 9 5q8 0 10 -8v-2q-2 -14 -35 -47q-45 -47 -113 -47q-87 0 -144 60q-61 62 -61 162q0 110 67 177q60 61 147 61z" />
    <glyph glyph-name="d" unicode="d" horiz-adv-x="476" 
d="M330 399v156q0 79 -7 94q-6 14 -20 14q-4 0 -10.5 -1.5t-20.5 -1.5q-15 0 -15 9t11 9l36 -1q12 -1 42.5 9t49.5 19q6 3 11 1q6 -3 6 -19q0 -9 -0.5 -25.5t-0.5 -24.5v-20v-328q0 -153 2 -205q1 -50 4 -53t24 -3h22q14 0 14 -8q0 -2 -1 -3q-4 -4 -18 -4q-4 0 -12.5 0.5
t-12.5 0.5q-49 0 -84 -20q-2 -1 -4.5 -2.5t-4 -2.5t-3.5 -2t-4 -1q-6 0 -8 6q-1 2 -1 6l1 31q-15 -15 -33 -24q-32 -17 -67 -17q-80 0 -133 56q-62 65 -62 174t60 172q54 58 140 58q66 0 99 -49zM330 218v67q0 54 -6 78q-5 18 -15 31q-18 23 -41 30q-14 4 -23 4
q-55 0 -89 -54q-34 -56 -34 -152q0 -94 28 -154q8 -16 18 -29q28 -33 69 -33q25 0 48.5 15.5t33.5 37.5q11 26 11 159z" />
    <glyph glyph-name="e" unicode="e" horiz-adv-x="430" 
d="M182 296l-55 -2q-5 -32 -5 -65q0 -95 34 -148q38 -60 116 -60q31 0 55 14q17 10 33 32q12 18 17 27l3.5 7t4.5 7q5 8 11 8q8 0 8 -7q0 -8 -10 -26q-17 -30 -38 -51q-44 -44 -113 -44q-85 0 -144 59q-68 68 -68 167q0 70 29 125q58 109 172 109q51 0 89 -21
q75 -41 81 -127q-30 -4 -66 -4l-78 1zM130 313h187q0 43 -13 73q-20 47 -73 47q-48 0 -75 -42q-12 -21 -21 -54q-4 -16 -5 -24z" />
    <glyph glyph-name="f" unicode="f" horiz-adv-x="264" 
d="M171 436h66q20 0 20 -9t-26 -9h-60v-391q0 -7 5 -10q7 -4 23 -4h29q19 0 19 -8q0 -2 -1 -3q0 -1 -5 -3q-3 -1 -10 -1t-21.5 0.5t-21.5 0.5q-15 1 -45 1q-17 0 -49.5 -1t-53.5 -1q-24 0 -24 8q0 7 14 7q53 1 56 7q2 6 2 18v380h-29q-10 0 -15 2t-5 7q0 9 18 9h32
q2 122 34 183q30 56 80 76q26 10 58 10q48 0 74 -22t26 -54q0 -23 -13 -35.5t-32 -12.5q-17 0 -31 10.5t-14 31.5q0 14 7 25q9 18 9 19q0 23 -33 23q-13 0 -23 -3q-18 -5 -32 -25t-20.5 -57t-7 -56.5t-0.5 -63.5v-49z" />
    <glyph glyph-name="g" unicode="g" horiz-adv-x="467" 
d="M356 393q28 47 78 47q35 0 50 -22q8 -11 8 -29q0 -22 -11.5 -34t-28.5 -12q-16 0 -27 9.5t-11 23.5q0 6 3 14t3 10q0 8 -6 11q-4 2 -8 2q-13 0 -23.5 -12.5t-10.5 -29.5q0 -4 1 -8.5t2 -11t2 -10.5q5 -25 5 -45q0 -70 -42 -112q-22 -22 -55 -36t-66 -14q-17 0 -43 8
q-4 1 -11 3.5t-11 3.5q-12 4 -19 4q-18 0 -36.5 -15t-18.5 -40q0 -51 64 -51q17 0 52 5q4 1 12 2.5t12 1.5l45 6q9 1 28 1q69 0 100.5 -34t31.5 -87q0 -94 -84 -152q-70 -48 -176 -48q-57 0 -98 17q-79 33 -79 107q0 20 6 38q10 30 38 50q16 10 25 13q23 7 45 12
q-14 6 -20 9q-15 8 -26 18q-25 22 -25 59q0 45 32 71q11 8 28 17q14 7 32 12q-34 24 -48 58q-12 25 -12 62q0 77 46 119q47 44 125 44q37 0 62 -11q28 -12 60 -44zM229 435q-50 0 -68 -48q-13 -33 -13 -87q0 -60 14 -98q21 -54 68 -54q21 0 39 13q17 14 25 39q12 40 12 90
q0 68 -15 102q-20 42 -62 43zM121 -28q-51 -26 -51 -92q0 -56 38 -86t95 -30q53 0 95 21q85 43 85 122q0 30 -12 49q-22 34 -86 34q-36 0 -88 -9q-49 -8 -76 -9z" />
    <glyph glyph-name="h" unicode="h" horiz-adv-x="477" 
d="M156 629v-245q16 24 36 39q32 25 81 25q27 0 54 -6q42 -10 63 -38q11 -14 16.5 -35t6 -36.5t0.5 -46.5v-11v-252q0 -10 39 -10h11q11 0 11 -7q0 -8 -15 -8q-7 0 -22 1t-59 1q-69 0 -103 -2h-5q-8 1 -8 8t13 7h25h7h7t6 1t5.5 3.5t3 6.5t1.5 11v21v241q0 51 -8 75
q-16 46 -73 46q-51 0 -80 -43q-3 -4 -4.5 -7.5t-2.5 -7.5t-2 -6t-1 -8v-8.5v-11v-13.5v-255q0 -19 1 -31t22 -13q3 0 16.5 0.5t19 -1.5t5.5 -8q0 -7 -8 -7q-1 0 -4 0.5t-4 0.5h-6l-77 1q-52 0 -78 -2h-14h-10q-11 0 -11 7q0 8 11 8h15q24 0 31.5 2.5t7.5 12.5l-1 560
q-1 55 -4 62q-2 5 -8.5 7.5t-12 3t-15 0.5h-11.5q-26 0 -26 7q0 5 5 7t18.5 2h15.5q38 1 68 11q13 4 22 9t13 7t5 2q4 0 7 -5.5t3.5 -16t1 -18.5t0 -21t-0.5 -16z" />
    <glyph glyph-name="i" unicode="i" horiz-adv-x="251" 
d="M44 398l-10 -1q-11 0 -11 8t10 8q7 1 20 1q36 2 68 14q14 5 22.5 10.5t11.5 8.5t7 3q3 0 5 -4q6 -10 6 -44q0 -8 -0.5 -23t-0.5 -22v-10v-273v-12.5v-10.5v-8.5v-7t0.5 -5.5t1.5 -4.5t2 -3.5t3 -2.5t4 -1.5q6 -2 19 -3q9 -1 26 -1q14 0 14 -8q0 -9 -18 -9q-1 0 -21 2
q-32 2 -55 2q-10 0 -28 -0.5t-28 -0.5h-20q-12 -1 -21.5 -1.5t-14.5 -0.5t-7 1q-5 3 -5 7q0 9 20 9q39 2 42 6q3 6 3 41v272q0 38 -2 54q-2 11 -14 11zM77 629q0 19 13 32t32 13q18 0 31.5 -13t13.5 -32t-13 -32t-32 -13t-32 13t-13 32z" />
    <glyph glyph-name="j" unicode="j" horiz-adv-x="237" 
d="M92 -55v371q0 75 -3 78q-5 5 -14 5q-3 0 -10.5 -0.5t-11.5 -0.5h-34q-11 0 -11 8q0 7 14 7h20q58 0 96 24q18 11 23 11q9 0 11 -14t2 -61v-12v-387q0 -156 -72 -210q-30 -22 -66 -22q-32 0 -52 16.5t-20 41.5q0 19 13.5 32t37.5 13q20 0 31 -10.5t11 -24.5q0 -2 -3 -20
q-4 -12 -4 -20q0 -9 6 -9t10 3q11 8 17 26q9 30 9 155zM79 630q0 18 13 31t32 13t32 -13t13 -32q0 -17 -12.5 -31t-32.5 -14q-19 0 -32 13.5t-13 32.5z" />
    <glyph glyph-name="k" unicode="k" horiz-adv-x="469" 
d="M159 625v-369q101 88 142 134q20 21 20 26q0 6 -33 6q-4 0 -12.5 -0.5t-12.5 -0.5h-12q-9 0 -13 2t-4.5 3t-0.5 3q0 8 19 8h179q21 0 21 -8q0 -6 -8 -6q-10 -2 -30 -2t-30 -1q-7 0 -12.5 -1.5t-10.5 -4.5t-7 -4.5t-8 -6.5l-5 -5l-125 -121l211 -239q11 -14 21 -18h2
q2 -1 5.5 -2t8.5 -1.5t13.5 -1t18.5 -0.5q13 0 13 -7q0 -8 -21 -8h-44q-7 0 -21 1t-27 1h-55q-13 0 -34.5 -1.5t-34.5 -1.5q-12 0 -12 7q0 6 13 8q2 0 11 0.5t15 1t13 2t11 4.5t4 8q0 8 -6 14l-162 188v-190q0 -22 10 -26q5 -2 18 -2l28 1q13 0 13 -8q0 -9 -23 -9
q-8 0 -24 0.5t-24 0.5q-7 0 -22 0.5t-23 0.5h-78h-5h-5h-4.5t-4 0.5t-3 1.5t-2 2.5t-0.5 3.5q0 3 2.5 4.5t6.5 2l8 1t9.5 0.5h8.5q2 0 6 0.5t5.5 0.5t4.5 0.5t4.5 1t3.5 1.5t3 3l2 4q2 10 2 52v527q0 42 -2 46q-3 5 -28 5q-12 0 -16.5 -0.5t-6.5 -0.5q-14 0 -14 7q0 3 1 4.5
t3.5 2.5t5 1.5t7 0.5h6.5q53 2 87 22q26 14 29 14q4 0 6 -4t3.5 -22.5t1.5 -56.5z" />
    <glyph glyph-name="l" unicode="l" horiz-adv-x="235" 
d="M76 103v509q0 36 -5 40t-13 4h-11q-4 0 -12 -0.5t-13 -0.5q-14 0 -14 8t27 10q33 2 55 9q22 8 32 13q7 3 13 6.5t9 5t4 1.5q10 0 10 -88v-561q0 -28 1.5 -34.5t6.5 -8.5q7 -2 35 -2h12q5 0 8 -1t4 -3.5t1 -3v-3.5q0 -5 -13 -5h-9q-2 0 -40 1.5t-46 1.5q-33 0 -53.5 -0.5
t-28.5 -1.5t-11 -1q-15 0 -15 8q0 7 11 7h26q24 0 27 7q2 5 2 83z" />
    <glyph glyph-name="m" unicode="m" horiz-adv-x="703" 
d="M57 390h-11h-2q-4 0 -10 -0.5t-10 -0.5q-13 0 -13 8t19 8q43 0 92 19q14 5 24 14q10 10 16 10t6 -20q1 -31 1 -44q19 29 45 45q33 19 78 19q43 0 75 -20q13 -8 23 -24q8 -13 10 -23q20 33 48 49q31 18 77 18q73 0 100 -52q14 -27 14 -94v-260q0 -20 3 -24q5 -6 29 -6
l21 1q11 0 11 -7q0 -8 -18 -8q-6 0 -16.5 0.5t-15.5 0.5q-15 1 -47 1q-29 0 -53 -1t-43 -1q-17 0 -17 7q0 8 19 8l25 1h4.5h4t3.5 1t3 2t2 3.5t1.5 5.5t1 8t0.5 12v265q0 43 -8 67q-14 40 -58 40q-29 0 -52 -15.5t-30 -41.5q-4 -13 -4 -97v-216q0 -27 5 -32q3 -3 14 -3h29
q13 0 13 -8q0 -7 -15 -7l-35 2h-59q-10 1 -39.5 -0.5t-35.5 -1.5h-11q-12 0 -12 8q0 7 16 7h30q10 0 15 5q3 3 3 19v279q0 68 -21 88q-10 8 -20 11q-12 3 -24 3q-32 0 -56 -18q-31 -24 -31 -63v-284q0 -31 5 -36t17 -5l31 1q11 0 11 -7q0 -8 -13 -8l-28 1q-16 1 -49 1
q-40 0 -65.5 -1t-36.5 -1q-18 0 -18 8q0 7 13 7h6q31 0 39 4q6 4 6 12v260q0 81 -3 89q-4 12 -29 12z" />
    <glyph glyph-name="n" unicode="n" horiz-adv-x="489" 
d="M169 429v-48q24 30 47 44q36 23 86 23q26 0 47 -7q40 -13 58 -46q18 -31 18 -114v-228q0 -32 3 -35q6 -6 27 -6q5 0 11 0.5t9 0.5q10 -1 10 -7q0 -3 -1 -4q-3 -4 -14 -4l-63 2q-57 0 -86 -1q-5 0 -14 -0.5t-14 -0.5h-7q-13 0 -13 7q0 3 2.5 5t8 3t10 1t12 -0.5t11.5 -0.5
q16 0 21 5q4 4 4 16v17v246q0 56 -8 76q-7 17 -16 26q-18 19 -52 19q-47 0 -78 -37q-12 -15 -14 -20q-2 -6 -2 -23v-276q0 -37 2 -41q3 -8 20 -8l30 -1q10 0 10 -7t-12 -7l-36 1q-17 1 -52 1q-43 0 -64 -1q-4 0 -10.5 -0.5t-9.5 -0.5h-13q-12 0 -12 6q0 9 14 9l33 1
q5 0 7.5 0.5t6 5.5t3.5 16v218q0 63 -1 94q-1 30 -2 32q-3 12 -24 12q-2 0 -7 -0.5t-8 -0.5t-7 -0.5t-7 -0.5q-20 0 -20 7t37 10q27 2 57 12q31 11 41 21q5 8 13 8q3 0 4 -1q4 -2 4 -18z" />
    <glyph glyph-name="o" unicode="o" horiz-adv-x="480" 
d="M239 448q25 0 51 -6q53 -14 92 -53q68 -67 68 -173q0 -100 -59 -163q-59 -65 -147 -65q-25 0 -49 6q-56 13 -95 51q-22 21 -38 49q-31 55 -31 122q0 104 64 171q58 61 144 61zM241 433q-68 0 -99 -82q-20 -55 -20 -135q0 -81 22 -134q32 -80 106 -80q44 0 67 35
q26 39 37 106q5 30 5 74q0 75 -17 130q-7 25 -17 41q-26 45 -84 45z" />
    <glyph glyph-name="p" unicode="p" horiz-adv-x="489" 
d="M76 -200v570q0 26 -27 26l-42 2q-9 0 -9 8t18 8h4q57 0 100 26q16 8 21 8q7 0 10 -10q3 -13 3 -43q13 20 30 31q30 22 73 22q53 0 97 -24q44 -25 74 -76.5t30 -124.5q0 -97 -55 -166t-142 -69q-70 0 -103 48v-246q0 -9 2 -13t4 -5t6 -2q18 -3 48 -3h10q12 0 12 -9
q0 -3 -2 -5t-11 -2h-19l-27 1h-47l-50 -1h-66q-16 0 -16 7q0 9 12 9h36q19 0 23 7q3 4 3 26zM158 346v-138q0 -45 2 -99q1 -42 16 -63q10 -14 22 -24q22 -17 54 -17q48 0 77 44q11 16 20 43q19 57 19 129q0 127 -53 181q-8 8 -17 14q-23 14 -52 14q-34 0 -61 -25t-27 -59z
" />
    <glyph glyph-name="q" unicode="q" horiz-adv-x="463" 
d="M328 -184v219q-42 -47 -102 -47q-75 0 -126 50q-26 26 -42 57q-28 55 -28 120q0 107 68 173q60 60 150 60q15 0 22 -1q24 -3 47 -11q27 -9 42 -9q12 0 24 6q5 1 8 5q2 2 4 4.5t3.5 3.5t4.5 1q8 0 8 -9v-8v-645q0 -10 5.5 -13t18.5 -4q39 -4 40 -6q1 -1 1 -4q0 -6 -23 -6
l-120 2q-9 0 -29.5 -1t-31.5 -1q-15 0 -15 7q0 6 18 8q43 4 49 8q4 4 4 41zM329 160v95q0 116 -5 131q-2 6 -8 16q-12 19 -35 25q-18 5 -35 5q-64 0 -95 -57q-30 -56 -30 -163q0 -76 19 -127q30 -77 97 -77q27 0 51 16t34 40q7 19 7 96z" />
    <glyph glyph-name="r" unicode="r" horiz-adv-x="338" 
d="M173 398v-20q14 29 35 49q24 21 54 21q32 0 53.5 -19t21.5 -49q0 -25 -15 -39t-35 -14q-19 0 -30.5 10.5t-11.5 26.5q0 11 9 24q1 2 3.5 4.5t4 5t1.5 4.5q0 3 -2 7q-6 8 -20 8q-26 0 -48 -35q-8 -15 -12 -24.5t-7.5 -35.5t-3.5 -66v-224q0 -11 9 -15q3 -1 47 -4
q5 0 11 -2q4 -2 4 -9l-2 -2q-3 -2 -11 -2q-30 0 -55 1t-44 1q-26 0 -43.5 -1t-51.5 -1q-16 0 -16 7q0 3 6 6q2 1 7 1h14q12 0 18 1q20 2 22 7q2 4 2 21v291v10.5v10.5t-0.5 9.5t-1.5 10.5t-2.5 8.5t-4.5 8t-7 5.5q-17 10 -53 10q-12 0 -12 7t10 7h7q7 0 21.5 -1.5t23.5 -1.5
q33 0 80 21q5 2 8.5 4.5t5.5 3.5t3 1q8 0 8 -48z" />
    <glyph glyph-name="s" unicode="s" horiz-adv-x="362" 
d="M49 119v11q0 11 7 11q9 0 9 -11q1 -7 3 -19q6 -30 23 -53q40 -52 104 -52q37 0 61 22q22 20 22 56q0 29 -13 47q-3 5 -12 14t-18.5 14.5t-17 8.5t-25.5 9.5t-32 12.5q-76 30 -98 71q-13 23 -13 55q0 53 34 90q39 42 98 42q8 0 22 -2q10 -2 17 -4q30 -9 39 -9q20 0 26 20
q3 10 9 10q7 0 7 -14q0 -11 -1 -20t-1 -28q0 -27 3 -53q2 -12 2 -18q0 -10 -8 -10q-6 0 -15 30q-12 36 -36 56q-29 24 -65 24q-35 0 -57 -21t-22 -55q0 -22 12.5 -38.5t23.5 -22t31 -13.5q43 -17 59.5 -24t37.5 -19t35 -25q36 -36 36 -86q0 -56 -43 -98q-19 -17 -40 -27
q-27 -13 -62 -13q-22 0 -46 8q-9 3 -25 11q-22 12 -35 12t-19 -16q-1 -2 -1 -3q-4 -12 -11 -12t-7 9q0 2 1 8t2 23t1 45q0 20 -1 30q0 2 -0.5 7.5t-0.5 8.5z" />
    <glyph glyph-name="t" unicode="t" horiz-adv-x="284" 
d="M160 418v-185q0 -142 7 -176q8 -35 46 -35q37 0 74 37q5 5 9 5q7 0 7 -6q0 -11 -25 -32q-43 -38 -105 -38q-18 0 -33 4q-33 9 -47 24q-4 4 -7 9t-4.5 11.5t-2.5 11.5t-1.5 14.5t-0.5 14v16.5v17v298q0 5 -3 8t-8 3h-38q-22 0 -22 7t11 8q59 8 87 34q2 2 35 42q6 9 15 9
q7 0 7 -8q0 -6 -0.5 -17t-0.5 -16q0 -29 4 -41q1 0 2.5 -0.5t2.5 -0.5q6 -1 17 -1h25q23 0 34 1q4 0 14 2q12 3 15 3q8 0 8 -9q0 -12 -32 -14q-11 -1 -33 -1q-9 0 -26.5 0.5t-26.5 0.5h-4z" />
    <glyph glyph-name="u" unicode="u" horiz-adv-x="490" 
d="M413 436v-279q0 -79 5 -98q3 -12 14 -15q12 -3 24 -3h32q12 0 12 -7q0 -8 -12 -8h-10q-41 0 -83 -12q-17 -5 -28 -10q-32 -14 -33 -14q-6 0 -6 9t0.5 22.5t0.5 20.5v4v8q-18 -27 -49 -45q-38 -21 -83 -21q-68 0 -103 43q-14 17 -17 47q-1 15 -1 67v229q0 34 -4 40
q-6 8 -25 8q-4 0 -10.5 -0.5t-9.5 -0.5q-22 0 -22 7q0 2 2 4q4 4 20 4q20 0 39 -1.5t28 -1.5q37 0 65 3v-279q0 -56 5 -83q2 -13 5 -19q17 -39 67 -39q48 0 76 44q18 29 18 102v158q0 89 -8 97q-4 4 -28 4q-38 0 -38 9q0 6 17 6q18 0 31 -0.5t14 -0.5h50q23 0 45 1z" />
    <glyph glyph-name="v" unicode="v" horiz-adv-x="384" 
d="M168 58l-121 329q-6 16 -14 26q-8 8 -28 8q-3 0 -9.5 -0.5t-9.5 -0.5q-14 0 -14 8t14 8q18 0 53.5 -1t52.5 -1q29 0 50 1t30 1q6 0 9 -1q6 -1 6 -6q0 -8 -20 -8h-24q-18 0 -18 -11q0 -3 9 -30l95 -262l85 260q2 4 4 12l3 12q2 6 2 10q0 10 -15 10q-1 0 -8.5 -1t-13.5 0
q-13 0 -13 8q0 7 17 7q9 0 26.5 -0.5t26.5 -0.5q7 0 21 0.5t21 0.5h17q13 0 13 -7q0 -8 -16 -8q-5 0 -14 0.5t-13 0.5q-12 0 -18 -6q-9 -9 -21 -50l-105 -323q-2 -6 -5 -16t-5 -15.5t-4.5 -11.5t-5.5 -9t-6 -3t-5 2q-6 5 -29 68z" />
    <glyph glyph-name="w" unicode="w" horiz-adv-x="599" 
d="M452 112l88 290q2 6 2 10q0 10 -11 10q-5 0 -14.5 -0.5t-13.5 -0.5q-13 0 -13 8t13 8q10 0 28 -1t27 -1q10 0 29 1t29 1q12 0 14 -4q1 -1 1 -4q0 -8 -18 -8q-3 0 -11 0.5t-12 0.5q-17 0 -20 -10q-7 -15 -7 -17l-119 -387q-7 -21 -13 -21q-7 0 -15 20l-112 304l-98 -301
q0 -1 -1.5 -5.5t-2.5 -6.5l-2.5 -5t-4 -4.5t-5.5 -1.5q-6 0 -14 19l-123 359q-15 44 -25 51q-8 5 -24 5h-18q-15 0 -15 8t15 8q17 0 31 -0.5t17 -0.5h63h8q9 0 28 0.5t30 0.5q14 0 14 -8q0 -9 -12 -9q-4 0 -12.5 0.5t-12.5 0.5q-22 0 -22 -11q0 -2 9 -32l88 -266l94 289
q1 3 3 9.5t3.5 10.5t3.5 8.5t5 7t6 2.5q4 0 8 -4t13 -31z" />
    <glyph glyph-name="x" unicode="x" horiz-adv-x="421" 
d="M239 248l113 -198q12 -21 25 -28t41 -7t28 -8t-18 -8q-8 0 -15 0.5t-11 0.5l-99 1q-36 0 -60 -1l-22 -1h-7h-5t-3.5 0.5t-2.5 0.5h-1q-6 1 -6 7q0 5 6 7q5 1 43 1q24 0 27 4q1 2 1 6q0 5 -6 16q-1 1 -2 3.5t-2 3.5l-80 139l-95 -146q-8 -11 -8 -18q0 -6 12 -7q7 -1 20 -1
t24 -1q10 0 10 -7q0 -9 -24 -9l-33 1q-60 2 -75 1q-12 -2 -21 -1t-9 8q0 5 6 7q2 1 16 2q33 3 44 14q6 6 16 20l104 156l-86 161q-21 39 -30 46q-12 8 -51 8q-7 0 -10 1q-5 1 -5 6t7 7q2 1 7 1l113 -2q9 0 36.5 1t55.5 1q27 0 27 -8q0 -9 -35 -9h-8.5h-8.5h-8t-8 -1
t-5.5 -2.5t-4 -4t-1.5 -5.5q0 -4 4 -12l67 -126l82 128l6 11q3 5 3 7q0 6 -24 6h-21q-7 0 -7 8q0 10 34 7l13 -1q17 -2 40.5 0t33.5 2h6q2 0 7.5 0.5t8.5 0.5q11 0 11 -6q0 -9 -11 -9q-8 -1 -22 -1t-20 -1q-12 -2 -17 -7q-8 -7 -20 -25z" />
    <glyph glyph-name="y" unicode="y" horiz-adv-x="401" 
d="M351 382l-50 -162l-78 -244l-15 -43.5l-23 -65l-15 -41.5q-7 -18 -13 -30.5t-16.5 -26.5t-25 -21t-33.5 -7q-25 0 -40 14.5t-15 35.5q0 24 21 37q10 6 24 6q25 0 39 -22q9 -17 15 -17t10 6q5 8 9 19l9 24q29 78 44 131l-113 303l-34 94q-2 5 -5.5 17t-5 14t-6 7.5
t-10 6.5t-15.5 2q-23 0 -27 1q-9 2 -9 9q0 8 13 8q6 0 26 -1.5t43 -1.5q14 0 37 1t36 1l54 1q11 0 11 -8q0 -7 -9 -7l-28 -1q-29 -4 -31 -10q0 -5 5 -19l13 -39q9 -27 49 -137l46 -123q10 29 40 127l52 173q4 12 4 18q0 11 -30 11h-7.5h-8.5t-7 0.5t-5.5 2.5t-1.5 5
q0 7 12 7q2 0 5 -0.5t4 -0.5q5 -1 14 -1q33 -1 43 -1h36l12 1.5t11 0.5q13 0 13 -7q0 -8 -23 -8q-13 0 -23 -2t-15 -8t-12 -29z" />
    <glyph glyph-name="z" unicode="z" horiz-adv-x="395" 
d="M348 -1l-219 1q-13 0 -26.5 -1.5t-61.5 -1.5q-20 0 -20 8q0 2 2 4q0 2 1 3l240 408q-45 3 -63 3q-64 0 -90 -23q-7 -6 -12.5 -14t-10.5 -21l-7 -18t-7 -23l-4 -17q-4 -13 -11 -13t-9 4t0 14l6 33q11 63 20 96q96 -3 189 -3h76q14 0 14 -7t-18 -38l-224 -377
q108 -5 150.5 5.5t60.5 37.5q10 15 32 82q4 11 12 11q11 0 3 -31q-18 -67 -23 -122z" />
    <glyph glyph-name="braceleft" unicode="{" horiz-adv-x="305" 
d="M242 -129l24 1q5 0 7 -1q11 -3 11 -9q0 -9 -16 -9q-50 0 -75 9q-51 18 -72 62t-20 81l4 96q5 107 -22 133q-18 19 -51 26q-20 4 -21 8q-1 2 -1 6t0.5 6t2.5 3t4 1.5t6.5 1t8.5 1.5q43 10 60 38q18 29 14 127l-5 91q-2 44 25 87.5t70 57.5q21 7 71 7q19 0 19 -9
q0 -3 -1 -4q-2 -5 -17 -5h-14q-39 0 -54 -22q-10 -15 -14 -43q-2 -20 -2 -31l4 -119q4 -99 -62 -155q-19 -14 -24 -17q-11 -6 -21.5 -8.5t-15 -3t-5.5 -3.5v-1q1 -5 5.5 -5t19 -4t34.5 -19q66 -49 69 -145v-20l-4 -90q0 -19 1 -28q2 -42 8 -57q14 -37 49 -35z" />
    <glyph glyph-name="bar" unicode="|" horiz-adv-x="520" 
d="M231 693h57v-866h-57v866z" />
    <glyph glyph-name="braceright" unicode="}" horiz-adv-x="304" 
d="M37 -128l24 -1q35 -2 49 35q12 30 9 85l-4 90q-2 42 9 80q16 53 60 85q20 15 34.5 19t19 4t5.5 5v1l-1 1q-1 1 -10.5 2.5t-24.5 8.5t-30 20q-66 56 -62 155l4 119q2 47 -16 74q-15 22 -54 22h-14q-18 0 -18 9t19 9q50 0 71 -7q43 -14 70 -57.5t25 -87.5l-5 -91
q-2 -48 1 -78q4 -35 13 -49q17 -28 60 -38q4 -1 8.5 -1.5t6.5 -1t4 -1.5t2.5 -3t0.5 -6q0 -7 -3 -9t-12 -4q-4 0 -7 -1q-12 -2 -16 -4q-20 -7 -35 -22q-26 -26 -22 -133l4 -96q1 -31 -13 -66q-23 -58 -79 -77q-20 -7 -38 -8q-12 -1 -37 -1q-16 0 -16 9q0 10 18 10z" />
    <glyph glyph-name="asciitilde" unicode="~" horiz-adv-x="679" 
d="M551 762q5 0 5 -6q0 -9 -13 -26q-18 -25 -37 -41q-43 -36 -91 -36q-21 0 -96 25q-57 19 -89 19q-33 0 -54 -14q-13 -9 -27 -26q-17 -20 -21 -20t-5 3q-1 1 -1 4q0 7 19 29q30 35 35 39q41 36 91 36q26 0 93 -23q53 -19 82 -19q41 0 64 12q9 5 18 14t12 15l3 5
q3 5 5.5 7.5t6.5 2.5z" />
    <glyph glyph-name="sterling" unicode="&#xa3;" horiz-adv-x="516" 
d="M224 298h164h3q21 0 21 -12q0 -13 -25 -13h-159v-12q0 -30 -9 -57q-11 -32 -35 -67q-16 -23 -32 -39t-23.5 -22t-7.5 -9t5 -3q2 0 10 6q48 35 105 35q35 0 71 -14l23 -9q62 -26 81 -26q33 0 49 44q2 5 5 44q3 20 13 20q13 0 13 -22q0 -69 -21 -105q-12 -21 -37.5 -37.5
t-55.5 -16.5q-38 0 -126 37q-66 29 -110 29q-46 0 -73 -30q-1 -1 -7 -8.5t-10 -11.5q-11 -11 -16 -11q-7 0 -17 12.5t-10 20.5q0 6 11 10q123 40 123 171q0 16 -5 43q-5 21 -7 28h-93q-19 0 -19 12q0 13 21 13h82q-23 80 -27 134q-1 9 -1 26q0 79 37 134q53 78 158 78
q54 0 91 -20q37 -19 56.5 -52.5t19.5 -69.5q0 -33 -18 -55t-49 -22q-27 0 -41.5 15.5t-14.5 36.5q0 27 22 42q14 10 48 12q6 0 9 2q5 3 5 10q0 18 -21 41q-30 31 -80 31q-44 0 -73 -20.5t-39.5 -53t-13.5 -51t-3 -36.5q0 -74 33 -182z" />
    <glyph glyph-name="currency" unicode="&#xa4;" horiz-adv-x="650" 
d="M64 573l32 32l83 -84q66 49 150 49q76 0 141 -52l86 87l32 -32l-84 -85q57 -66 57 -151q0 -82 -52 -150l85 -85l-32 -32l-84 85q-69 -58 -157 -58q-82 0 -149 55l-83 -83l-32 32l84 82q-53 71 -53 154q0 82 59 152zM326 134q87 0 141.5 62t54.5 141q0 75 -55.5 136
t-140.5 61q-82 0 -140.5 -57t-58.5 -139q0 -94 61 -149t138 -55z" />
    <glyph glyph-name="section" unicode="&#xa7;" 
d="M373 139q41 -49 41 -110q0 -73 -42 -121q-22 -25 -48 -38q-35 -19 -80 -19q-39 0 -70.5 16t-48.5 43q-15 24 -15 55q0 35 19.5 53.5t46.5 18.5q23 0 39 -15t16 -35q0 -21 -18 -32q-12 -7 -51 -11q-3 0 -7.5 -0.5t-6 -1t-4 -1.5t-3.5 -3.5t-1 -5.5q0 -22 33 -43t72 -21
q32 0 54 14q43 28 43 100q0 18 -3 34q-5 25 -14 40q-20 36 -82 83q-7 6 -30 23l-32.5 24.5t-23.5 20.5t-22 24q-30 40 -30 93q0 73 58 137q-34 40 -34 94q0 68 43.5 110t114.5 42q60 0 95.5 -31.5t35.5 -78.5q0 -27 -14 -44t-41 -17q-23 0 -37.5 12t-14.5 33t11 30
q6 5 14 7.5t22 3.5t17 2q9 2 9 9q0 17 -21 33q-8 6 -26 14q-23 9 -47 9q-53 0 -79 -41q-13 -22 -13 -52q0 -24 7 -43t25 -38.5t31.5 -31t44.5 -34.5q67 -51 91 -85q32 -47 32 -93q0 -30 -14.5 -66t-41.5 -66zM210 417l-34 30q-28 -33 -28 -71q0 -51 53 -94l106 -86l11.5 -9
l13.5 -11t11 -10q2 -2 5.5 -5t4.5 -4l6 -5q12 12 30 49q3 9 3 18q0 35 -35 75q-21 24 -76.5 67t-70.5 56z" />
    <glyph glyph-name="dieresis" unicode="&#xa8;" horiz-adv-x="501" 
d="M164 609q20 0 34 -15t14 -35q0 -19 -14.5 -33t-34.5 -14t-34 14t-14 34t14.5 34.5t34.5 14.5zM338 609q20 0 33 -15t13 -36t-14.5 -33t-32.5 -12q-20 0 -34.5 13.5t-14.5 33.5q0 21 15 35t35 14z" />
    <glyph glyph-name="copyright" unicode="&#xa9;" horiz-adv-x="802" 
d="M407 705q145 0 249 -105.5t104 -252.5q0 -148 -105.5 -253.5t-253.5 -105.5q-149 0 -254 105.5t-105 255.5q0 147 106.5 251.5t258.5 104.5zM396 675q-130 0 -223.5 -97t-93.5 -231q0 -135 94.5 -232t227.5 -97t227.5 97t94.5 234q0 135 -95.5 230.5t-231.5 95.5z
M567 148q0 -4 -1 -6q-2 -5 -7 -5q-2 0 -5 3q-4 4 -10 14l-12 24q-38 -45 -107 -45q-97 0 -160 62t-63 154q0 86 53.5 150t155.5 64q30 0 49.5 -6t50.5 -24q15 -9 18 -9q6 0 9 10q8 22 15 22q8 0 8 -10q0 -5 -2 -14t-3 -16q-3 -23 -3 -57v-8.5v-8.5v-7.5t-0.5 -7.5t-1.5 -5.5
t-3 -4t-5 -1.5q-8 0 -11 13q0 1 -2 10t-2.5 11t-3 10l-3.5 11l-3.5 10t-4.5 10.5t-5 9.5t-6.5 9.5l-7.5 7.5t-9 8q-15 10 -33 15q-16 4 -36 4q-79 0 -111 -87q-17 -47 -17 -110q0 -95 39 -146t101 -51q96 0 121 118q7 17 11 18q9 0 9 -13q0 -4 -1 -15t-1 -19q-2 -34 -2 -49
q0 -13 1 -26.5t1 -16.5z" />
    <glyph glyph-name="guillemotleft" unicode="&#xab;" horiz-adv-x="417" 
d="M49 212v16q0 15 7 23q2 2 10.5 9.5t15.5 14.5l33 33l21 22l35 37.5t22 25.5q8 12 15 12q9 0 9 -8q0 -5 -7 -18q-25 -47 -94 -153q31 -44 90 -139q13 -20 13 -26q0 -7 -7 -7q-4 0 -10 6q-46 48 -93 91q-46 42 -52 47q-8 6 -8 14zM211 212v16q0 15 7 23q2 2 10.5 9.5
t15.5 14.5l33 33l21 22l35 37.5t22 25.5q8 12 15 12q9 0 9 -8q0 -5 -7 -18q-25 -47 -94 -153q31 -44 90 -139q13 -20 13 -26q0 -7 -7 -7q-4 0 -10 6q-46 48 -93 91q-46 42 -52 47q-8 6 -8 14z" />
    <glyph glyph-name="logicalnot" unicode="&#xac;" 
d="M474 221v-221h-64v185h-351v36h415z" />
    <glyph glyph-name="registered" unicode="&#xae;" horiz-adv-x="802" 
d="M407 705q145 0 249 -105.5t104 -252.5q0 -148 -105.5 -253.5t-253.5 -105.5q-149 0 -254 105.5t-105 255.5q0 147 106.5 251.5t258.5 104.5zM398 675q-132 0 -225.5 -97t-93.5 -231q0 -135 94.5 -232t227.5 -97q132 0 227 97t95 234q0 134 -96 230t-229 96zM348 355v-162
q0 -22 1.5 -26t7.5 -5q18 -3 33 -3t15 -8t-17 -8q-10 0 -29 0.5t-29 0.5t-32 -0.5t-32 -0.5h-24q-19 0 -19 8q0 3 1 4q2 4 18 4h11q8 0 12 1q8 1 9.5 6t1.5 20v326q0 21 -4 26t-20 5q-3 0 -8.5 -0.5t-7.5 -0.5q-5 0 -7 1q-6 2 -6 8q0 9 18 9q5 0 15 -0.5t15 -0.5q14 0 21 -1
h25h47q5 0 19 0.5t23 0t22.5 -1.5t26 -5t24.5 -10q50 -26 50 -77q0 -50 -51 -79q-33 -18 -79 -19q-8 0 -8 -4q0 -3 13 -3q49 -4 78 -33q8 -8 14 -19t9.5 -19.5t7 -24.5t4.5 -21.5t3.5 -23t2.5 -18.5q6 -42 23 -47q2 -1 7 -1t5 3l-2 2q-1 2 -1 6q0 18 17 18q10 0 14.5 -6
t4.5 -12q0 -7 -5 -14q-11 -14 -43 -14q-14 0 -31 5q-48 16 -63 58q-4 10 -13 87q-4 40 -27 55q-20 14 -61 14zM348 520v-147q45 0 67 13q36 21 36 75q0 80 -71 80q-20 0 -26 -3t-6 -18z" />
    <glyph glyph-name="degree" unicode="&#xb0;" horiz-adv-x="534" 
d="M267 705q51 0 87 -35t36 -87q0 -51 -37.5 -85.5t-88.5 -34.5q-50 0 -85 35t-35 85q0 52 36 87t87 35zM266 667q-32 0 -53.5 -24.5t-21.5 -59.5t22.5 -58.5t55.5 -23.5q34 0 55 24.5t21 59.5q0 34 -22.5 58t-56.5 24z" />
    <glyph glyph-name="plusminus" unicode="&#xb1;" 
d="M285 354h189v-36h-189v-186h-36v186h-190v36h190v185h36v-185zM474 48v-36h-415v36h415z" />
    <glyph glyph-name="acute" unicode="&#xb4;" horiz-adv-x="501" 
d="M280 664h101l-136 -140q-19 -19 -26 -19q-6 0 -6 7q0 2 2 6z" />
    <glyph glyph-name="mu" unicode="&#xb5;" horiz-adv-x="490" 
d="M329 46v8q-43 -66 -130 -66q-55 0 -81 38q5 -62 13 -116q10 -67 10 -76q0 -33 -23 -63q-14 -18 -25 -18q-5 0 -10 3q-14 8 -26 30.5t-12 47.5q0 12 3 31l8.5 56t10.5 78q9 88 9 146v229v22q0 15 -5.5 20.5t-26.5 5.5q-4 0 -11 -0.5t-11 -0.5q-17 0 -17 8q0 4 8 6
q5 1 12 1q6 0 18.5 -0.5t20.5 -0.5q22 -2 30 -2q35 0 65 3v-279q0 -55 5 -83q2 -13 5 -19q17 -39 66 -39q52 0 77 44q18 30 18 102v155q0 51 -3 86q-1 14 -12 17q-4 1 -8.5 1h-14t-21.5 1q-15 1 -15 8q0 6 20 6q7 0 21.5 -0.5t22.5 -0.5h8h44l41 1v-279q0 -85 6 -101
q3 -9 13 -12q12 -3 33 -3h23q12 0 12 -7q0 -8 -12 -8q-55 -2 -93 -12q-20 -5 -37.5 -14.5t-23.5 -9.5t-6 8z" />
    <glyph glyph-name="mu" unicode="&#x3bc;" horiz-adv-x="490" 
d="M329 46v8q-43 -66 -130 -66q-55 0 -81 38q5 -62 13 -116q10 -67 10 -76q0 -33 -23 -63q-14 -18 -25 -18q-5 0 -10 3q-14 8 -26 30.5t-12 47.5q0 12 3 31l8.5 56t10.5 78q9 88 9 146v229v22q0 15 -5.5 20.5t-26.5 5.5q-4 0 -11 -0.5t-11 -0.5q-17 0 -17 8q0 4 8 6
q5 1 12 1q6 0 18.5 -0.5t20.5 -0.5q22 -2 30 -2q35 0 65 3v-279q0 -55 5 -83q2 -13 5 -19q17 -39 66 -39q52 0 77 44q18 30 18 102v155q0 51 -3 86q-1 14 -12 17q-4 1 -8.5 1h-14t-21.5 1q-15 1 -15 8q0 6 20 6q7 0 21.5 -0.5t22.5 -0.5h8h44l41 1v-279q0 -85 6 -101
q3 -9 13 -12q12 -3 33 -3h23q12 0 12 -7q0 -8 -12 -8q-55 -2 -93 -12q-20 -5 -37.5 -14.5t-23.5 -9.5t-6 8z" />
    <glyph glyph-name="paragraph" unicode="&#xb6;" 
d="M299 61v309q-100 -2 -161 36q-78 48 -78 134q0 102 87 137q45 18 139 18h206q17 0 20 -3t3 -7q0 -3 -1.5 -5t-4.5 -2.5t-5.5 -0.5h-8h-7.5q-49 0 -60 -7q-9 -7 -9 -37v-419q0 -102 -5 -155q-7 -78 -45 -124q-69 -89 -174 -89q-60 0 -94.5 27t-34.5 63q0 24 16 42.5
t46 18.5q26 0 39.5 -13.5t13.5 -31.5q0 -32 -46 -48q-16 -5 -16 -11q0 -10 20 -18t38 -10q5 -1 16 -1q59 0 85 47q21 39 21 150zM281 -111l5 -6q68 46 90 117q15 47 15 237v438h-65v-509q0 -115 -5 -176q-4 -37 -10 -55q-7 -20 -15 -30q-5 -8 -15 -16z" />
    <glyph glyph-name="guillemotright" unicode="&#xbb;" horiz-adv-x="417" 
d="M369 247v-16q0 -15 -7 -23q-2 -2 -10.5 -9.5t-15.5 -14.5l-33 -33l-21 -22l-35 -37.5t-22 -25.5q-8 -12 -15 -12q-9 0 -9 8q0 5 7 18q25 47 94 153q-31 44 -90 139q-13 20 -13 26q0 7 7 7q4 0 10 -6q46 -48 93 -91q46 -42 52 -47q8 -6 8 -14zM207 247v-16q0 -15 -7 -23
q-2 -2 -10.5 -9.5t-15.5 -14.5l-33 -33l-21 -22l-35 -37.5t-22 -25.5q-8 -12 -15 -12q-9 0 -9 8q0 5 7 18q25 47 94 153q-31 44 -90 139q-13 20 -13 26q0 7 7 7q4 0 10 -6q46 -48 93 -91q46 -42 52 -47q8 -6 8 -14z" />
    <glyph glyph-name="divide" unicode="&#xf7;" 
d="M474 354v-36h-415v36h415zM266 507q20 0 34 -14t14 -34q0 -21 -13.5 -35t-34.5 -14t-35 14t-14 35t14 34.5t35 13.5zM266 263q20 0 34 -14t14 -34q0 -21 -13.5 -35t-34.5 -14t-35 14t-14 35q0 23 15.5 35.5t33.5 12.5z" />
    <glyph glyph-name="dotlessi" unicode="&#x131;" horiz-adv-x="251" 
d="M155 445l10 6q1 -1 1 -2.5t1 -2.5q3 -9 4.5 -21t1.5 -20.5t-0.5 -27.5t-0.5 -30v-299q0 -18 4 -26q2 -2 8 -4q16 -4 44 -4q10 0 13 -4q1 -1 1 -4q0 -6 -8 -8q-3 -1 -10 -1t-13.5 1t-9.5 1l-50 2l-104 -2h-18q-5 1 -5 7q0 9 20 9q23 0 35 2q4 1 7 4q3 4 3 27v286l-1 31
q2 17 -0.5 25t-5.5 9t-9 0q-5 -1 -14.5 -1h-14.5q-2 0 -5 -0.5t-5 -0.5q-11 0 -11 9q0 7 10 7h7q30 0 60 8q27 7 55 24z" />
    <glyph glyph-name="florin" unicode="&#x192;" horiz-adv-x="669" 
d="M367 501l-43 -129h10q8 0 25 -0.5t25 -0.5q14 0 29 1t19 1q14 0 17 -6q2 -4 2 -7q0 -8 -6 -11q-4 -2 -13 -2q-17 0 -27.5 1.5t-47.5 1.5q-5 0 -15.5 -0.5t-15.5 -0.5h-9q-73 -214 -122 -322q-25 -58 -58 -113q-75 -127 -145 -161q-30 -15 -65 -15q-56 0 -81 32
q-10 13 -10 28q0 18 12.5 29.5t30.5 11.5q14 0 26 -7t12 -22q0 -7 -4 -11q-11 -11 -11 -19q0 -21 29 -21q63 0 109 90q16 31 58 150l125 348h-74h-5.5h-6.5h-5.5t-5 1t-3.5 2t-3 3t-1 5q0 15 29 15h83l42 108q33 87 78 141q63 77 156 77q43 0 68.5 -19.5t25.5 -46.5
q0 -17 -10 -28.5t-28 -11.5t-27.5 9t-9.5 22q0 12 9 19q8 5 8 11q0 10 -4 15q-10 13 -34 13q-17 0 -29 -4q-16 -5 -34 -23q-36 -35 -75 -154z" />
    <glyph glyph-name="dotaccent" unicode="&#x2d9;" horiz-adv-x="501" 
d="M251 611q22 0 35 -16t13 -37t-14 -34.5t-35 -13.5q-22 0 -37 14.5t-15 35.5t15.5 36t37.5 15z" />
    <glyph glyph-name="Delta" unicode="&#x394;" horiz-adv-x="586" 
d="M556 0h-516l245 697q4 11 8 11q1 0 3 -2l2 -4zM104 78h312l-155 459z" />
    <glyph glyph-name="Delta" unicode="&#x2206;" horiz-adv-x="586" 
d="M556 0h-516l245 697q4 11 8 11q1 0 3 -2l2 -4zM104 78h312l-155 459z" />
    <glyph glyph-name="afii10023" unicode="&#x401;" horiz-adv-x="582" 
d="M206 378h24q47 0 65.5 0.5t42.5 5.5t35 16q6 6 10.5 13.5t7.5 20.5t4 18t3 23t2 19q0 2 1 6.5t1 6t1.5 4t3.5 3.5t5 1q10 0 10.5 -18.5t-2.5 -34.5q-5 -68 0 -180q1 -15 1.5 -25t1 -13.5t0.5 -6.5v-8q0 -15 -11 -15q-7 0 -9.5 9t-6.5 37q-1 12 -2 18q-6 47 -26 62
q-24 17 -117 17h-45v-336h97q49 0 73 1q67 2 88 8q42 11 60 52q5 12 7.5 23.5t4.5 29.5t3 23q4 22 9 24q1 1 4 1q9 0 10 -14t-1 -34q-3 -63 -3 -108v-33q-83 4 -149 4q-80 1 -239 1h-74q-11 0 -26.5 -0.5t-24.5 -0.5q-7 0 -11 1l-6 3q-2 2 -2 5q0 8 29 9q8 1 13 1
q27 2 33 10.5t6 47.5v562q0 25 -4 31q-7 9 -44 9h-15q-16 0 -16 10q0 8 22 8q19 0 56.5 -0.5t56.5 -0.5t59 0.5t59 0.5h193q17 0 26 1q1 0 11.5 1t17.5 2q1 -16 8 -106l6 -67q1 -12 -10 -12q-10 0 -15 26q-18 87 -62 113q-30 18 -168 18h-82v-293zM224 863q21 -2 35 -15.5
t14 -34.5q0 -23 -15.5 -35t-33.5 -12q-20 0 -34 14t-14 34q0 21 13.5 35t34.5 14zM399 862q15 -2 21 -6q25 -14 25 -45q0 -11 -5 -21q-12 -24 -42 -24q-20 0 -34.5 13t-14.5 34t14.5 35t35.5 14z" />
    <glyph glyph-name="afii10051" unicode="&#x402;" horiz-adv-x="717" 
d="M339 670v-272q62 8 116 8q110 0 177 -57q69 -59 69 -149q0 -85 -54 -145q-60 -68 -146 -68q-53 0 -83 30q-28 28 -28 59q0 23 13 37t32 14q20 0 30.5 -12.5t10.5 -29.5q0 -15 -11 -24q-1 -1 -5 -3.5t-6.5 -4.5t-5 -6.5t-2.5 -9.5q0 -12 13 -23t33 -11q45 0 75 47
q32 52 32 141q0 114 -69 160q-45 30 -129 30q-30 0 -62 -4v-297q0 -46 6 -80q-68 0 -120 -1t-56 -1q-16 0 -16 8t10 9l36 2q27 0 36 12q5 7 5 33v608h-57q-72 0 -104 -32q-28 -27 -38 -112q-4 -18 -12 -18q-5 0 -8 4t-4 11t-0.5 13t1.5 15.5t1 12.5l10 131q101 0 140 -1.5
t75 -1.5h139q20 0 192 4q1 -14 4.5 -58t4.5 -60q1 -18 3 -36t2 -23q0 -15 -10 -15q-15 0 -17 23q-9 70 -25 96q-28 47 -108 47h-90z" />
    <glyph glyph-name="afii10052" unicode="&#x403;" horiz-adv-x="516" 
d="M107 75v558q0 24 -5 31q-8 9 -32 9h-26q-16 0 -16 10t23 10h13q8 0 26 -0.5t26 -0.5h193q94 0 136 1q34 1 55 4q3 -61 9 -118l7 -67q1 -12 -10 -12q-9 0 -15 25q-23 99 -66 124q-20 12 -55 15t-111 3h-53v-592q0 -37 10 -47q9 -9 35 -11q34 -2 37 -3q5 -2 5 -6
q0 -10 -22 -10q-10 0 -30.5 0.5t-31.5 0.5q-9 0 -25 0.5t-25 0.5q-8 0 -24.5 -0.5t-24.5 -0.5q-21 -1 -62 -1q-22 0 -22 10q0 5 9 7q7 1 19 1q2 0 7 0.5t7 0.5q28 3 33 11q6 7 6 47zM287 919h101l-136 -140q-19 -19 -26 -19q-6 0 -6 7q0 2 2 6z" />
    <glyph glyph-name="afii10053" unicode="&#x404;" horiz-adv-x="654" 
d="M373 312l-73 31q-56 24 -87 24q-20 0 -55 -13q-5 -76 13.5 -148t54.5 -118q32 -41 76 -60.5t86 -19.5q52 0 95 25t66 69q26 48 37 112q5 24 13 24q10 0 10 -15q0 -1 -2 -27q-4 -84 -4 -111q0 -20 2 -42.5t2 -32.5q0 -17 -8 -17t-14 15q-17 37 -28 43q-72 -63 -169 -63
q-155 0 -250 105q-94 103 -94 255q0 156 88 256q89 101 240 101q48 0 75 -9t71 -34q22 -13 33 -13q9 0 17 16q5 11 7.5 15l5 8t4 4.5t4.5 0.5q8 0 8 -7q0 -1 -0.5 -3t-1 -5t-0.5 -6q-10 -64 -11 -165v-7q0 -22 -1.5 -27.5t-9.5 -5.5q-7 0 -9 3.5t-4 15.5q-15 82 -37 119
q-19 30 -43 47q-44 33 -115 33q-76 0 -124 -54q-36 -40 -56 -97q-24 -71 -26 -158q79 39 126 39q31 0 83 -20l82 -35q33 -14 64 -14q24 0 38 10q15 11 20 11q11 0 11 -12q0 -11 -30 -21l-52 -18q-43 -15 -74 -15q-27 0 -54 11z" />
    <glyph glyph-name="afii10054" unicode="&#x405;" horiz-adv-x="498" 
d="M421 696q0 -7 -2 -23.5t-2 -49.5q0 -37 3 -61q3 -18 3 -27q0 -11 -9 -11q-8 0 -13 14l-4.5 18.5t-6.5 22.5q-7 20 -22 42q-46 64 -116 64q-48 0 -77 -33q-29 -32 -29 -87q0 -24 5 -40q11 -38 38 -62q2 -2 20 -15q26 -18 84 -47q27 -13 54 -30q36 -21 62 -46
q60 -56 60 -130q0 -81 -60 -141q-66 -66 -171 -66q-39 0 -88 19q-11 4 -33 14q-12 5 -24 8q-2 1 -7 1q-11 0 -13 -17t-3 -20q-4 -7 -11 -7q-10 0 -10 13q0 3 0.5 7t2 14.5t2.5 25.5q4 40 4 78q0 17 -2 51q0 3 -0.5 10t-0.5 10q0 15 12 15q3 0 4 -1q5 -3 7 -10
q7 -20 7.5 -32.5t8.5 -37.5q15 -51 49 -81q44 -40 107 -40q78 0 111 57q17 30 17 71q0 71 -48 116q-24 23 -96 62l-67 37q-49 31 -72 62q-30 42 -30 100q0 89 59 143q52 49 130 49q35 0 94 -23q19 -8 31 -8q11 0 14 4t7 21q2 10 11 10q10 0 10 -13z" />
    <glyph glyph-name="afii10055" unicode="&#x406;" horiz-adv-x="314" 
d="M107 70v564q0 26 -5 32q-6 7 -19 9q-18 3 -40 3q-15 0 -15 8q0 9 14 9t59 -1t65 -1q33 0 58.5 1t45.5 1q17 0 17 -9q0 -5 -4 -6q-9 -4 -40 -4q-22 0 -29 -7t-7 -44v-568q0 -23 4 -27q9 -11 66 -14q11 0 11 -8t-16 -8q-8 0 -12.5 0.5t-13 1t-22.5 0.5q-53 1 -84 1
q-20 0 -55.5 -1.5t-42.5 -1.5q-15 0 -15 9q0 6 10 8q6 1 16 1q33 0 43 6q11 7 11 46z" />
    <glyph glyph-name="afii10056" unicode="&#x407;" horiz-adv-x="314" 
d="M107 70v564q0 26 -5 32q-6 7 -19 9q-18 3 -40 3q-15 0 -15 8q0 9 14 9t59 -1t65 -1q33 0 58.5 1t45.5 1q17 0 17 -9q0 -5 -4 -6q-9 -4 -40 -4q-22 0 -29 -7t-7 -44v-568q0 -23 4 -27q9 -11 66 -14q11 0 11 -8t-16 -8q-8 0 -12.5 0.5t-13 1t-22.5 0.5q-53 1 -84 1
q-20 0 -55.5 -1.5t-42.5 -1.5q-15 0 -15 9q0 6 10 8q6 1 16 1q33 0 43 6q11 7 11 46zM71 864q20 0 34 -15t14 -35q0 -19 -14.5 -33t-34.5 -14t-34 14t-14 34t14.5 34.5t34.5 14.5zM245 864q20 0 33 -15t13 -36t-14.5 -33t-32.5 -12q-20 0 -34.5 13.5t-14.5 33.5q0 21 15 35
t35 14z" />
    <glyph glyph-name="afii10057" unicode="&#x408;" horiz-adv-x="328" 
d="M132 33v601q0 26 -9 34q-10 10 -71 9q-14 0 -14 8q0 10 18 10q3 0 28.5 -1t55.5 -1q13 0 39 0.5t38 0.5t37.5 0.5t40.5 0.5q16 0 16 -10q0 -8 -13 -8q-58 0 -63 -6q-4 -5 -4 -44v-359q0 -226 -8 -261q-11 -48 -51 -83q-50 -44 -108 -44q-19 0 -37 6q-14 5 -25 14
q-25 20 -25 54q0 26 15.5 41.5t40.5 15.5t39.5 -15t14.5 -35q0 -16 -13 -34q-9 -13 -9 -15v-1q0 -10 14 -10q33 0 46 39q7 21 7 93z" />
    <glyph glyph-name="afii10058" unicode="&#x409;" horiz-adv-x="854" 
d="M381 667h-15l-59 -209q-46 -167 -84 -270q-46 -121 -91 -162q-41 -37 -92 -37q-30 0 -50 14q-28 20 -28 58q0 31 20 53q21 21 47 21q24 0 39.5 -17t15.5 -37q0 -15 -10 -29q-3 -3 -6.5 -6t-5.5 -5t-4 -4.5t-2 -4.5q0 -9 11 -9q29 0 63 41q49 58 112 264q59 190 81 296
q4 21 4 29q0 22 -34 22q-5 0 -14 -0.5t-13 -0.5q-12 -1 -38 -1q-18 0 -18 11q0 12 18 12q40 0 93 -3q23 -1 38 -1h55q8 0 16 1q10 1 18 3t13 2q21 0 21 -19q0 -3 -1 -11.5t-1 -15.5v-20v-225q35 3 64 3q136 0 206 -51q76 -56 76 -155q0 -103 -88 -159q-70 -44 -172 -44
q-57 0 -64.5 1.5t-48.5 1.5t-83 -2.5t-59 -2.5q-14 0 -14 8q0 5 11 8q14 2 22 2q19 0 29 2q13 2 17.5 9t4.5 27v612zM480 383v-339q0 -23 51 -23q117 0 163 73q27 42 27 115q0 94 -59 141q-45 36 -130 36q-25 0 -52 -3z" />
    <glyph glyph-name="afii10059" unicode="&#x40a;" horiz-adv-x="979" 
d="M506 375h-301v-293q0 -47 7 -54q8 -8 47 -10q2 0 6 -0.5t6 -0.5h4.5t4 -1t3 -1.5t2 -2t0.5 -3.5q0 -9 -30 -9q-25 0 -46.5 1t-34.5 1q-7 0 -21.5 -0.5t-21.5 -0.5q-28 -1 -83 -1q-20 0 -20 8q0 10 24 10q15 0 23 1q22 2 28 11q3 5 3 35v569q0 28 -6 35t-31 7
q-3 0 -9.5 0.5t-9.5 0.5q-11 1 -14.5 1.5t-5.5 2t-2 6.5q0 8 15 8q5 0 14.5 -0.5t43.5 -1.5t99 -1q34 0 37 1t28 1q7 0 10 -1q8 -3 8 -9q0 -3 -2 -5q-3 -4 -22 -4h-23q-10 0 -15 -2q-7 -2 -10 -6q-6 -9 -6 -36v-231h301v205q0 43 -2 50q-5 21 -32 21h-30q-15 0 -15 10
q0 4 3 5q4 3 14 3q8 0 24 -0.5t24 -0.5h6h73q40 0 60 1q5 0 15 0.5t15 0.5q22 0 22 -9t-16 -9l-28 -1q-24 0 -30 -9q-3 -5 -3 -17q-1 -11 -1 -34v-216q35 3 71 3q131 0 199 -51q76 -56 76 -156q0 -96 -88 -151q-71 -44 -184 -44q-29 0 -44 1q-52 2 -77 2q-22 0 -33 -1
q-8 0 -34.5 -2t-40.5 -2q-16 0 -22 3q-2 2 -2 5q0 8 47 11q24 3 28 7q5 5 5 31v319zM605 376v-332q0 -12 10.5 -17.5t41.5 -5.5q116 0 162 73q27 42 27 108q0 95 -59 141q-45 36 -122 36q-18 0 -60 -3z" />
    <glyph glyph-name="afii10060" unicode="&#x40b;" horiz-adv-x="793" 
d="M339 670v-272q62 8 116 8q113 0 177 -57q29 -25 47.5 -59t18.5 -64v-153q0 -39 5 -45q8 -11 38 -11h20q16 0 16 -8q0 -9 -27 -9q-12 0 -35 0.5t-35 0.5q-23 0 -69 -1t-68 -1q-24 0 -24 8t47 11q24 3 28 7q5 5 5 31v129q0 120 -69 166q-45 30 -129 30q-30 0 -62 -4v-295
q0 -47 7 -54q8 -8 47 -10q2 0 6 -0.5t6 -0.5h4.5t4 -1t3 -1.5t2 -2t0.5 -3.5q0 -9 -30 -9q-43 1 -52.5 1.5t-28.5 0.5q-18 0 -57.5 -2t-81.5 -2q-16 0 -16 8t10 9l36 2q27 0 36 12q5 7 5 33v608h-57q-72 0 -104 -32q-28 -27 -38 -112q-4 -18 -12 -18q-5 0 -8 4t-4 11
t-0.5 13t1.5 15.5t1 12.5l10 131q101 0 140 -1.5t75 -1.5h139q20 0 192 4q1 -14 4.5 -58t4.5 -60q1 -18 3 -36t2 -23q0 -15 -10 -15q-15 0 -17 23q-9 70 -25 96q-28 47 -108 47h-90z" />
    <glyph glyph-name="afii10061" unicode="&#x40c;" horiz-adv-x="612" 
d="M206 356v-319q0 -23 69 -22q13 0 13 -8q0 -9 -22 -9q-6 0 -38.5 2t-81.5 2q-42 0 -66 -2t-35 -2q-18 0 -18 10q0 8 13 8q49 1 56 6q11 6 11 24v603q0 14 -8 20q-11 8 -57 8q-14 0 -14 8q0 9 13 9q42 0 74 -1t42 -1q7 0 54.5 1t61.5 1t14 -9q0 -8 -13 -8q-47 -2 -53 -5
q-15 -6 -15 -23v-269h57q33 0 66 26q18 14 31 36t17.5 34t13.5 40q19 61 31 104q9 34 22 52q24 32 65 32q38 0 61 -23t23 -54q0 -24 -14.5 -40t-36.5 -16q-18 0 -32.5 10.5t-14.5 31.5q0 27 31 32q13 2 13 11q0 8 -8 14.5t-22 6.5q-18 0 -31.5 -11t-18 -21t-9.5 -26
q-35 -121 -37 -127q-17 -51 -48 -85q-27 -30 -60 -37v-1q54 -13 96 -44q40 -30 64 -73q19 -34 45.5 -114t29.5 -88q9 -21 18 -27q12 -8 51 -7q18 0 18 -8q0 -10 -16 -10q-40 0 -76 1t-44 1q-21 0 -47 -2l-6 35t-5 32q-19 109 -39 168q-18 59 -48 89q-35 34 -84 34h-56z
M335 919h101l-136 -140q-19 -19 -26 -19q-6 0 -6 7q0 2 2 6z" />
    <glyph glyph-name="afii10062" unicode="&#x40e;" horiz-adv-x="634" 
d="M346 38l-250 573q-28 65 -60 66l-29 1q-3 0 -9.5 -0.5t-9.5 -0.5q-13 0 -13 9q0 11 23 11q11 0 44 -1.5t60 -1.5h58q18 0 54 2q19 1 59 1q24 0 24 -12q0 -9 -20 -9l-74 -2q-11 0 -16 -6.5t-5 -13.5q0 -8 3 -14l208 -487q38 109 74 244q27 105 38 154q9 40 9 65
q0 28 -19 43q-17 15 -42 16l-25 1q-14 0 -14 9q0 12 18 12q19 0 54.5 -1t52.5 -1q16 0 49 1t53 1q13 0 13 -11q0 -10 -21 -10q-42 0 -61 -20q-16 -17 -32 -75l-23 -92.5t-34 -130.5q-58 -211 -120 -343q-32 -70 -70 -103q-43 -38 -94 -38t-84 33q-28 28 -28 69
q0 37 20.5 57.5t50.5 20.5q29 0 47.5 -18t18.5 -44q0 -22 -12 -34.5t-28 -12.5q-3 0 -11 2q-6 2 -10 2q-14 0 -14 -15q0 -14 14 -24t37 -10q31 0 62 21q29 19 50 50q19 27 34 67zM337 733q-68 0 -104 27q-33 24 -33 60q0 25 16.5 41t40.5 16q21 0 33.5 -13.5t12.5 -31.5
t-17 -26q-4 -2 -7.5 -3t-7.5 -1.5t-8 -1.5q-12 -3 -12 -14q0 -18 28 -29q22 -8 58 -8t58 8q28 11 28 29q0 9 -10 13q-2 1 -5.5 2t-5.5 1q-10 2 -14 4q-17 8 -17 26t12.5 31.5t33.5 13.5q24 0 40.5 -16t16.5 -41q0 -37 -34 -61q-36 -26 -103 -26z" />
    <glyph glyph-name="afii10145" unicode="&#x40f;" horiz-adv-x="708" 
d="M601 621v-562q0 -28 6 -35q4 -5 31 -7l19 -1q15 -1 18.5 -2.5t3.5 -7.5q0 -9 -14 -9q-4 0 -13.5 1t-19.5 1l-16 1h-35.5h-27.5h-129q-19 0 -29 -2t-19 -13.5t-9 -34.5q0 -28 9 -57q20 -71 20 -86q0 -22 -13 -40t-29 -18t-29 18t-13 40q0 15 20 86q9 29 9 57
q0 32 -14.5 41t-42.5 9h-129q-12 0 -44.5 -0.5t-36.5 -0.5q-11 0 -17.5 -1t-13.5 -1q-14 0 -14 10q0 5 3.5 6.5t18.5 2.5l19 1q27 2 31 7q6 7 6 35v562q0 39 -5 45q-9 11 -43 11h-15q-16 0 -16 8q0 9 19 9l138 -1h24q9 0 28 1t29 1q20 0 20 -8t-48 -11q-23 -2 -27 -7
q-5 -7 -5 -31v-613h296v613q0 24 -5 31q-5 5 -26 7q-49 3 -49 11t20 8q10 0 30 -1t30 -1h21l138 1q19 0 19 -9q0 -8 -16 -8h-12q-37 0 -46 -11q-5 -6 -5 -45z" />
    <glyph glyph-name="afii10017" unicode="&#x410;" horiz-adv-x="602" 
d="M381 223h-214l-44 -122q-16 -45 -16 -62q0 -9 6 -14l6 -3q5 -1 50 -4q2 0 7 -0.5t8 -0.5t7 -1t5.5 -3t1.5 -5t-2 -5q-3 -5 -24 -5h-10q-8 0 -77 3q-34 2 -48 2q-16 1 -25 -1t-22 -2q-14 0 -14 9q0 3 2 5t5.5 3t7 1.5t8.5 0.5h7q31 2 45.5 9t23.5 33l210 592l13 44
q2 11 8 11q5 0 5 -6l238 -650q6 -19 17 -26q15 -9 55 -9q26 0 26 -10q0 -9 -15 -9q-3 0 -9 0.5t-9 0.5h-2l-125 2q-9 0 -28.5 -0.5t-29.5 -0.5h-8l-58 -1h-2q-2 0 -7.5 -0.5t-8.5 -0.5q-20 0 -20 10q0 8 27 11q9 1 30.5 1.5t33.5 2.5q18 4 21 8q3 5 1 14zM173 246h202
l-101 286z" />
    <glyph glyph-name="afii10018" unicode="&#x411;" horiz-adv-x="586" 
d="M208 655v-253q38 2 65 2q116 0 184 -51q82 -62 82 -157q0 -93 -73 -146q-52 -39 -135 -46q-28 -4 -159 -4q-31 0 -74 -1q-17 -1 -51 -1q-19 0 -19 9q0 5 5 7t37 3q27 3 33 11t6 47v562q0 26 -4 31t-21 8q-11 1 -21 1h-17q-16 1 -16 9q0 9 22 9q15 1 51 0t73 -1h264
q28 0 55 5q3 -56 7 -96l6 -67q1 -12 -10 -12q-10 0 -15 26q-16 73 -53 99q-31 21 -108 21h-99q-15 0 -15 -15zM208 382v-344q0 -19 40 -19q86 0 137 48q49 47 49 128q0 105 -61 154q-55 44 -165 33z" />
    <glyph glyph-name="afii10019" unicode="&#x412;" horiz-adv-x="571" 
d="M306 371v-6q59 -2 108 -21q21 -9 34 -17q76 -47 76 -145q0 -101 -93 -151q-7 -4 -21 -10q-40 -17 -153 -20q-30 -1 -91 -1h-122q-17 0 -17 9t20 9q15 0 25 0.5t17 3t11 3.5t5.5 7.5t2 9t0 13.5t-0.5 16v541q0 32 -1 41q0 1 -0.5 3l-1 4t-1.5 3q-8 13 -51 13q-27 0 -27 11
q0 8 25 8h11q3 0 10 -0.5t11 -0.5l195 -2q58 -1 94.5 -8t66.5 -28q62 -40 62 -119q0 -65 -46 -107q-53 -48 -148 -59zM206 669v-290h9l55 2q32 1 56 14t35.5 29.5t18.5 39t8.5 36t1.5 27.5q0 97 -44 128q-23 17 -87 17q-25 0 -53 -3zM206 358v-298q0 -22 1 -26.5t5 -6.5
q16 -8 59 -7q68 2 106 43q42 45 42 130q0 65 -28.5 103.5t-73.5 52.5q-13 4 -28 6q-23 3 -83 3z" />
    <glyph glyph-name="afii10020" unicode="&#x413;" horiz-adv-x="516" 
d="M107 75v558q0 24 -5 31q-8 9 -32 9h-26q-16 0 -16 10t23 10h13q8 0 26 -0.5t26 -0.5h193q94 0 136 1q34 1 55 4q3 -61 9 -118l7 -67q1 -12 -10 -12q-9 0 -15 25q-23 99 -66 124q-20 12 -55 15t-111 3h-53v-592q0 -37 10 -47q9 -9 35 -11q34 -2 37 -3q5 -2 5 -6
q0 -10 -22 -10q-10 0 -30.5 0.5t-31.5 0.5q-9 0 -25 0.5t-25 0.5q-8 0 -24.5 -0.5t-24.5 -0.5q-21 -1 -62 -1q-22 0 -22 10q0 5 9 7q7 1 19 1q2 0 7 0.5t7 0.5q28 3 33 11q6 7 6 47z" />
    <glyph glyph-name="afii10021" unicode="&#x414;" horiz-adv-x="630" 
d="M90 41l278 604q3 6 3 14q0 16 -41 16q-25 0 -32.5 -1t-21.5 -1q-23 0 -23 12q0 11 22 11q39 0 92 -3q16 -1 29 -1h80q9 0 17 1q5 1 12 3t11 2q18 0 18 -17q0 -3 -0.5 -8.5t-1.5 -12.5v-15v-602q0 -7 2 -10.5t10 -5.5t25 -2h46q-31 -82 -52 -147q-19 -59 -28 -59
q-17 0 -17 73q-3 96 -8 101q-7 7 -95 7h-264q-56 0 -62 -6q-5 -5 -7 -106v-12.5t-0.5 -14t-1 -13.5t-1.5 -13t-2.5 -9.5t-4 -7t-6.5 -2.5t-8 5t-7.5 14l-6.5 16.5t-6 18t-4 13.5q-17 48 -53 142h62q40 0 47 16zM433 667h-25l-295 -642h320v642z" />
    <glyph glyph-name="afii10022" unicode="&#x415;" horiz-adv-x="582" 
d="M206 378h24q47 0 65.5 0.5t42.5 5.5t35 16q6 6 10.5 13.5t7.5 20.5t4 18t3 23t2 19q0 2 1 6.5t1 6t1.5 4t3.5 3.5t5 1q10 0 10.5 -18.5t-2.5 -34.5q-5 -68 0 -180q1 -15 1.5 -25t1 -13.5t0.5 -6.5v-8q0 -15 -11 -15q-7 0 -9.5 9t-6.5 37q-1 12 -2 18q-6 47 -26 62
q-24 17 -117 17h-45v-336h97q91 0 132 4q8 1 29 5q42 11 60 52q5 12 7.5 23.5t4.5 29.5t3 23q4 22 9 24q1 1 4 1q9 0 10 -14t-1 -34q-3 -63 -3 -108v-33q-95 5 -388 5h-74q-6 0 -20 -0.5t-20 -0.5h-11q-13 0 -17 4q-2 2 -2 5q0 8 29 9q8 1 13 1q27 2 33 10.5t6 47.5v562v16
q0 9 -4 15q-7 9 -44 9h-15q-16 0 -16 10q0 3 4 5q4 3 18 3l68 -1q51 -2 103 0q10 0 30 0.5t30 0.5h193q17 0 26 1q1 0 11.5 1t17.5 2q1 -16 8 -106l6 -67q1 -12 -10 -12q-10 0 -15 26q-18 87 -62 113q-30 18 -168 18h-82v-293z" />
    <glyph glyph-name="afii10024" unicode="&#x416;" horiz-adv-x="868" 
d="M483 380h27q37 0 67 26q37 32 62 113l30 102q10 34 22 50q24 33 65 33q38 0 61 -23t23 -53q0 -25 -14.5 -41t-36.5 -16q-18 0 -32.5 10.5t-14.5 31.5q0 27 31 32q13 2 13 11q0 8 -8 14.5t-22 6.5q-42 0 -59 -57q-34 -119 -37 -128q-17 -52 -48 -85q-26 -27 -60 -37v-1
q54 -13 96 -44q40 -30 64 -73q19 -34 45.5 -114t29.5 -88q9 -21 18 -27q12 -8 51 -7q18 0 18 -8q0 -10 -16 -10q-40 0 -76 1t-44 1q-21 0 -47 -2l-6 35t-5 32q-19 109 -39 168q-18 59 -48 89q-35 34 -84 34h-26v-319q0 -23 69 -22q13 0 13 -8q0 -9 -22 -9q-6 0 -38.5 2
t-81.5 2q-42 0 -66 -2t-35 -2q-18 0 -18 10q0 8 13 8q49 1 56 6q11 6 11 24v310h-26q-49 0 -84 -34q-30 -30 -48 -89q-20 -59 -39 -168q-1 -9 -5 -32l-6 -35q-26 2 -47 2q-8 0 -44 -1t-76 -1q-16 0 -16 10q0 8 18 8q39 -1 51 7q9 6 18 27q3 8 29.5 88t45.5 114q24 43 64 73
q42 31 96 44v1q-34 10 -60 37q-31 33 -48 85q-3 9 -37 128q-17 57 -59 57q-14 0 -22 -6.5t-8 -14.5q0 -9 13 -11q31 -5 31 -32q0 -21 -14.5 -31.5t-32.5 -10.5q-22 0 -36.5 16t-14.5 41q0 30 23 53t61 23q41 0 65 -33q12 -16 22 -50l30 -102q25 -81 62 -113q30 -26 67 -26
h27v269q0 14 -8 20q-11 8 -57 8q-14 0 -14 8q0 9 13 9q42 0 74 -1t42 -1q7 0 54.5 1t61.5 1t14 -9q0 -8 -13 -8q-47 -2 -53 -5q-15 -6 -15 -23v-269z" />
    <glyph glyph-name="afii10025" unicode="&#x417;" horiz-adv-x="547" 
d="M341 372v-1q75 -18 117 -62q47 -49 47 -124q0 -97 -75 -156q-65 -51 -166 -51q-50 0 -75.5 5t-51.5 19q-22 12 -42 30q-29 27 -45 27q-22 0 -33 -25q-1 -1 -3 -7t-3.5 -8.5t-4.5 -5.5t-7 -3q-11 0 -11 11q0 14 37 59q34 38 70 38q25 0 48 -16q21 -14 42 -44
q13 -17 21 -26t27 -19t41 -10q48 0 79 44q38 56 38 150q0 57 -17 95q-19 43 -55 67q-49 -36 -100 -36q-31 0 -47 14t-16 33t17.5 33t53.5 14q49 0 92 -35q35 24 47 67q10 33 10 85q0 60 -21 96q-30 52 -89 52q-41 0 -79 -26q-66 -45 -82 -127q-7 -36 -18 -36q-13 0 -13 28
q0 88 -4 125q-1 13 -3 22.5t-2 12.5q0 13 10 13t16 -20q7 -19 24 -19q11 0 47 19q62 31 117 31q75 0 133 -36q74 -46 74 -125q0 -68 -51 -115q-36 -35 -94 -57zM226 395q-17 0 -24.5 -8t-7.5 -18q0 -24 36 -24q31 0 67 26q-37 24 -71 24z" />
    <glyph glyph-name="afii10026" unicode="&#x418;" horiz-adv-x="725" 
d="M519 56v500l3 24l-12 -22l-305 -476v-29q0 -18 7 -25t47 -10q2 0 6 -0.5t6 -0.5h4.5t4 -1t3 -1.5t2 -2t0.5 -3.5q0 -9 -30 -9q-25 0 -46.5 1t-34.5 1q-7 0 -21.5 -0.5t-21.5 -0.5q-28 -1 -83 -1q-20 0 -20 8q0 10 24 10q42 0 51 12q3 5 3 35v569q0 28 -6 35q-4 5 -31 7
q-37 2 -39 5q-2 2 -2 6q0 8 13 8q2 0 10.5 -0.5t34 -1.5t68.5 -1h22q59 0 71 1q3 0 9 0.5t9 0.5q18 0 18 -9q0 -10 -24 -10h-23q-19 0 -25 -8q-6 -9 -6 -36v-493l-2 -14l6 13l310 485v18q0 19 -7 27.5t-27 8.5h-30q-15 0 -15 10q0 8 17 8h17q15 0 45.5 -0.5t45.5 -0.5h42
q19 0 36.5 1t31.5 1q21 0 21 -9t-16 -9l-28 -1q-24 0 -30 -9q-4 -7 -4 -51v-543q0 -39 5 -45q8 -11 58 -11q16 0 16 -8q0 -9 -19 -9l-138 1h-29q-9 0 -27 -1t-27 -1q-18 0 -18 8t47 11q24 3 28 7q5 5 5 31z" />
    <glyph glyph-name="afii10027" unicode="&#x419;" horiz-adv-x="725" 
d="M361 733q-68 0 -104 27q-33 24 -33 60q0 25 16.5 41t40.5 16q21 0 33.5 -13.5t12.5 -31.5t-17 -26q-4 -2 -7.5 -3t-7.5 -1.5t-8 -1.5q-12 -3 -12 -14q0 -18 28 -29q22 -8 58 -8t58 8q28 11 28 29q0 9 -10 13q-2 1 -5.5 2t-5.5 1q-10 2 -14 4q-17 8 -17 26t12.5 31.5
t33.5 13.5q24 0 40.5 -16t16.5 -41q0 -37 -34 -61q-36 -26 -103 -26zM519 56v500l3 24l-12 -22l-305 -476v-29q0 -18 7 -25t47 -10q2 0 6 -0.5t6 -0.5h4.5t4 -1t3 -1.5t2 -2t0.5 -3.5q0 -9 -30 -9q-25 0 -46.5 1t-34.5 1q-7 0 -21.5 -0.5t-21.5 -0.5q-28 -1 -83 -1
q-20 0 -20 8q0 10 24 10q42 0 51 12q3 5 3 35v569q0 28 -6 35q-4 5 -31 7q-37 2 -39 5q-2 2 -2 6q0 8 13 8q2 0 10.5 -0.5t34 -1.5t68.5 -1h22q59 0 71 1q3 0 9 0.5t9 0.5q18 0 18 -9q0 -10 -24 -10h-23q-19 0 -25 -8q-6 -9 -6 -36v-493l-2 -14l6 13l310 485v18
q0 19 -7 27.5t-27 8.5h-30q-15 0 -15 10q0 8 17 8h17q15 0 45.5 -0.5t45.5 -0.5h42q19 0 36.5 1t31.5 1q21 0 21 -9t-16 -9l-28 -1q-24 0 -30 -9q-4 -7 -4 -51v-543q0 -39 5 -45q8 -11 58 -11q16 0 16 -8q0 -9 -19 -9l-138 1h-29q-9 0 -27 -1t-27 -1q-18 0 -18 8t47 11
q24 3 28 7q5 5 5 31z" />
    <glyph glyph-name="afii10028" unicode="&#x41a;" horiz-adv-x="612" 
d="M206 356v-319q0 -23 69 -22q13 0 13 -8q0 -9 -22 -9q-6 0 -38.5 2t-81.5 2q-42 0 -66 -2t-35 -2q-18 0 -18 10q0 8 13 8q49 1 56 6q11 6 11 24v603q0 14 -8 20q-11 8 -57 8q-14 0 -14 8q0 9 13 9q42 0 74 -1t42 -1q7 0 54.5 1t61.5 1t14 -9q0 -8 -13 -8q-47 -2 -53 -5
q-15 -6 -15 -23v-269h57q33 0 66 26q18 14 31 36t17.5 34t13.5 40q19 61 31 104q9 34 22 52q24 32 65 32q38 0 61 -23t23 -54q0 -24 -14.5 -40t-36.5 -16q-18 0 -32.5 10.5t-14.5 31.5q0 27 31 32q13 2 13 11q0 8 -8 14.5t-22 6.5q-18 0 -31.5 -11t-18 -21t-9.5 -26
q-35 -121 -37 -127q-17 -51 -48 -85q-27 -30 -60 -37v-1q54 -13 96 -44q40 -30 64 -73q19 -34 45.5 -114t29.5 -88q9 -21 18 -27q12 -8 51 -7q18 0 18 -8q0 -10 -16 -10q-40 0 -76 1t-44 1q-21 0 -47 -2l-6 35t-5 32q-19 109 -39 168q-18 59 -48 89q-35 34 -84 34h-56z" />
    <glyph glyph-name="afii10029" unicode="&#x41b;" horiz-adv-x="620" 
d="M401 667h-37q-29 -158 -42 -212q-37 -166 -83 -267q-53 -119 -105 -162q-44 -37 -98 -37q-27 0 -46 14q-28 20 -28 58q0 31 19 53q19 21 48 21q27 0 41 -18t14 -36q0 -15 -10 -29q-3 -3 -6.5 -6t-5.5 -5t-4 -4.5t-2 -4.5q0 -9 11 -9q28 0 67 41q70 75 127 264
q48 160 65 288q2 13 2 30q0 18 -8.5 23.5t-26.5 5.5q-5 0 -14 -0.5t-13 -0.5q-12 -1 -38 -1q-18 0 -18 11q0 12 18 12q45 0 93 -3q28 -1 48 -1h65q8 0 16 1q10 1 18 3t13 2q21 0 21 -19q0 -3 -1 -11.5t-1 -15.5v-20v-578q0 -25 12 -31q14 -7 68 -6q12 0 12 -8q0 -10 -18 -10
q-23 0 -72 1t-91 1q-33 0 -49 -1q-5 0 -15 -0.5t-16 -0.5q-14 0 -14 8q0 5 11 8q14 2 22 2q19 0 29 2q13 2 17.5 9t4.5 27v612z" />
    <glyph glyph-name="afii10030" unicode="&#x41c;" horiz-adv-x="755" 
d="M69 694h47q64 0 83 1l188 -507l161 507l150 1q43 0 43 -11q0 -8 -4.5 -9.5t-17.5 -1.5q-28 0 -40 -3q-21 -5 -26 -14q-4 -7 -4 -16q-1 -7 -1 -42v-525q0 -41 8 -47q0 -1 2 -1t2 -1q19 -7 64 -7q23 0 23 -10t-21 -10q-27 0 -48.5 1t-70.5 1h-35h-35l-61 -1q-21 0 -21 10
q0 9 18 9h11q28 0 44 3q12 2 18 8q5 4 5 45v540l-184 -591q-3 -14 -10 -14q-6 0 -15 24l-204 561l1 -26v-507q0 -24 3 -29q6 -13 51 -13q30 0 30 -9q0 -10 -21 -10q-16 0 -25 1q-7 1 -21 1l-118 -3q-18 0 -18 9q0 6 9 8q14 3 48 3q21 0 26.5 6t5.5 34v567q0 26 -9 35
q-12 10 -66 14q-16 0 -16 9q0 8 12 10q5 1 15 1q3 0 10 -0.5t11 -0.5h3z" />
    <glyph glyph-name="afii10031" unicode="&#x41d;" horiz-adv-x="712" 
d="M506 365h-301v-283q0 -47 7 -54q8 -8 47 -10q2 0 6 -0.5t6 -0.5h4.5t4 -1t3 -1.5t2 -2t0.5 -3.5q0 -9 -30 -9q-25 0 -46.5 1t-34.5 1q-7 0 -21.5 -0.5t-21.5 -0.5q-28 -1 -83 -1q-20 0 -20 8q0 10 24 10q15 0 23 1q22 2 28 11q3 5 3 35v569q0 28 -6 35t-31 7
q-3 0 -9.5 0.5t-9.5 0.5q-11 1 -14.5 1.5t-5.5 2t-2 6.5q0 8 15 8q5 0 14.5 -0.5t43.5 -1.5t99 -1q34 0 37 1t28 1q7 0 10 -1q8 -3 8 -9q0 -3 -2 -5q-3 -4 -22 -4h-23q-10 0 -15 -2q-7 -2 -10 -6q-6 -9 -6 -36v-241h301v215q0 43 -2 50q-5 21 -32 21h-30q-15 0 -15 10
q0 4 3 5q4 3 14 3q8 0 24 -0.5t24 -0.5h6h73q40 0 60 1q5 0 15 0.5t15 0.5q22 0 22 -9t-16 -9l-28 -1q-24 0 -30 -9q-3 -5 -3 -17q-1 -11 -1 -34v-543q0 -39 5 -45q8 -11 38 -11h20q16 0 16 -8q0 -9 -27 -9q-11 0 -35 0.5t-35 0.5q-23 0 -69 -1t-68 -1q-19 0 -22 3
q-2 2 -2 5q0 8 47 11q24 3 28 7q5 5 5 31v309z" />
    <glyph glyph-name="afii10032" unicode="&#x41e;" horiz-adv-x="720" 
d="M365 705q123 0 212 -92q58 -60 84 -148q17 -61 17 -122q0 -158 -98 -262q-29 -31 -68 -54q-68 -39 -143 -39q-82 0 -152 40q-46 25 -78 62q-55 60 -81 148q-15 54 -15 112q0 106 46 192q20 38 53 73q88 90 223 90zM360 687q-78 0 -124 -49q-9 -10 -18.5 -25t-26 -49
t-26.5 -91.5t-10 -127.5q0 -127 37 -213q57 -126 182 -126q90 0 139 84q53 92 53 248q0 182 -75 285q-23 32 -52 48t-79 16z" />
    <glyph glyph-name="afii10033" unicode="&#x41f;" horiz-adv-x="707" 
d="M155 692h397q44 0 69 1t33 1.5t11 0.5q13 0 13 -9q0 -7 -6 -8.5t-35 -2.5q-25 0 -31 -7t-6 -35v-560q0 -39 5 -45q8 -11 58 -11q16 0 16 -8q0 -9 -19 -9l-138 1h-29q-9 0 -27 -1t-27 -1q-18 0 -18 8t47 11q24 3 28 7q5 5 5 31v611h-295v-611q0 -26 5 -31q4 -4 28 -7
q47 -3 47 -11t-18 -8q-9 0 -27 1t-27 1h-29l-138 -1q-19 0 -19 9q0 8 16 8q50 0 58 11q5 6 5 45v560q0 28 -6 35t-31 7q-39 1 -40 6q-1 2 -1 5q0 9 13 9q3 0 11 -0.5t33 -1.5t69 -1z" />
    <glyph glyph-name="afii10034" unicode="&#x420;" horiz-adv-x="504" 
d="M206 350v-284q0 -28 4.5 -36t19.5 -10q26 -4 51 -4q16 0 16 -7q0 -10 -15 -10q-2 0 -5 0.5t-6 0.5h-10q-34 -1 -102 -1h-106q-30 0 -30 10q0 4 5 6q3 1 10 1q50 0 62 10q7 7 7 20v589q0 23 -6.5 31t-23.5 10q-5 1 -16 1h-15q-1 0 -3 -0.5t-3 -0.5h-2q-15 0 -15 9
q0 10 28 10h220q113 0 167 -40q60 -44 60 -125q0 -32 -10 -61q-21 -58 -73 -92t-132 -34q-36 0 -77 7zM206 631v-266q77 -7 130 28q57 39 57 133q0 73 -29 110q-32 40 -97 40q-39 0 -55 -14q-6 -6 -6 -31z" />
    <glyph glyph-name="afii10035" unicode="&#x421;" horiz-adv-x="654" 
d="M607 12v-6q0 -13 -8 -13t-14 15q-17 37 -28 43q-72 -63 -173 -63q-149 0 -246 105q-94 101 -94 256q0 110 45 193q19 36 43 62q64 74 156 93q38 8 73 8q38 0 68 -6.5t45.5 -13.5t43.5 -23q10 -6 15 -8q10 -5 18 -5q4 0 6 1q6 2 11 15q12 25 16 27q1 1 5 1q8 0 8 -7
q0 -1 -0.5 -3t-1 -5t-0.5 -6q-10 -64 -11 -165q0 -33 -3 -37q-2 -3 -8 -3q-7 0 -9 3.5t-4 15.5q-15 82 -37 119q-49 80 -154 80q-80 0 -128 -54q-25 -28 -43 -66q-42 -85 -42 -218q0 -141 51 -230q12 -20 19 -29q29 -37 72.5 -58.5t89.5 -21.5q76 0 127 49q19 18 34 46
q24 45 37 111q6 24 13 24q10 0 10 -15q0 -1 -2 -27q-4 -84 -4 -111q0 -26 2 -32t2 -41z" />
    <glyph glyph-name="afii10036" unicode="&#x422;" horiz-adv-x="585" 
d="M339 671v-603q0 -25 6 -35q2 -3 5 -5.5t5.5 -4t7.5 -2.5t8 -1.5t9 -1t9 -0.5t10.5 -0.5t9.5 -0.5q7 0 10 -1q7 -1 7 -8q0 -9 -16 -9q-6 0 -18 1q-26 2 -88 2q-38 0 -57 -1q-9 0 -28 -0.5t-28 -0.5h-18q-21 0 -21 8q0 3 1 4q4 6 42 6q31 0 39 12q6 8 6 42v599
q-94 0 -123 -10q-41 -14 -58 -54q-10 -23 -16 -68q-4 -31 -14 -31q-4 0 -8 4t-4 17q0 7 1.5 23.5t1.5 21.5q1 8 2 27.5t2.5 43.5t4.5 50h58q32 0 95.5 -1.5t95.5 -1.5h66q100 0 212 4q1 -11 4 -51t4 -50l3.5 -44l2 -25t0.5 -10q0 -12 -11 -12t-16 24q-1 5 -2.5 19t-2.5 19
q-6 34 -23 61q-22 34 -69 42q-30 5 -107 2z" />
    <glyph glyph-name="afii10037" unicode="&#x423;" horiz-adv-x="634" 
d="M346 38l-250 573q-28 65 -60 66l-29 1q-3 0 -9.5 -0.5t-9.5 -0.5q-13 0 -13 9q0 11 23 11q11 0 44 -1.5t60 -1.5h58q18 0 54 2q19 1 59 1q24 0 24 -12q0 -9 -20 -9l-74 -2q-11 0 -16 -6.5t-5 -13.5q0 -8 3 -14l208 -487q38 109 74 244q27 105 38 154q9 40 9 65
q0 28 -19 43q-17 15 -42 16l-25 1q-14 0 -14 9q0 12 18 12q19 0 54.5 -1t52.5 -1q16 0 49 1t53 1q13 0 13 -11q0 -10 -21 -10q-42 0 -61 -20q-16 -17 -32 -75l-23 -92.5t-34 -130.5q-58 -211 -120 -343q-32 -70 -70 -103q-43 -38 -94 -38t-84 33q-28 28 -28 69
q0 37 20.5 57.5t50.5 20.5q29 0 47.5 -18t18.5 -44q0 -22 -12 -34.5t-28 -12.5q-3 0 -11 2q-6 2 -10 2q-14 0 -14 -15q0 -14 14 -24t37 -10q31 0 62 21q29 19 50 50q19 27 34 67z" />
    <glyph glyph-name="afii10038" unicode="&#x424;" horiz-adv-x="757" 
d="M333 118q-119 0 -195 54q-95 67 -95 196q0 157 134 214q65 28 156 30v38q0 15 -1 22q-3 13 -14 17q-15 5 -44 5h-9q-11 0 -11 8q0 9 15 9q17 0 50 -1t49 -1q45 0 78 1t43 1q17 0 17 -9t-34 -10h-10q-22 0 -29 -7q-8 -9 -8 -35v-38q91 -2 156 -30q134 -57 134 -214
q0 -129 -95 -196q-76 -54 -195 -54v-70q0 -13 4 -18q8 -11 65 -14q12 0 12 -8t-15 -8t-50 1.5t-89 1.5q-24 0 -50 -1.5t-37 -1.5q-13 0 -13 9t26 9q45 0 51 16q4 11 4 51v33zM333 137v456q-58 2 -101 -23q-89 -53 -89 -212q0 -139 76 -190q46 -31 114 -31zM425 137
q68 0 114 31q76 51 76 190q0 159 -89 212q-43 25 -101 23v-456z" />
    <glyph glyph-name="afii10039" unicode="&#x425;" horiz-adv-x="625" 
d="M326 19l45 -1q28 0 36 4q8 5 8 13q0 15 -15 47l-117 237l-142 -240q-17 -29 -17 -39t6 -14q12 -7 56 -7h18q16 0 16 -10q0 -9 -15 -9q-11 -2 -63 -0.5t-63 1.5q-39 0 -59 -1q-29 -2 -29 9t23 11q45 1 64 18q9 7 26 33l165 278l-151 283q-19 34 -37 41q-12 4 -53 4h-13
q-12 0 -12 8q0 11 19 11q42 0 88 -2q7 0 18.5 -0.5t16.5 -0.5l105 1h6q6 0 16 0.5t16 0.5h14q19 0 19 -8q0 -11 -36 -11h-19q-37 0 -44 -7q-2 -2 -3 -4t-1 -5q0 -4 4 -16l110 -218l126 204q13 20 13 31q0 8 -9 11q-10 4 -42 4h-13q-18 0 -18 9q0 10 22 10q5 0 14 -0.5
t13 -0.5q13 -1 39 -1q18 0 58.5 1.5t48.5 1.5q21 0 21 -9q0 -10 -31 -10h-14q-29 0 -43 -10q-11 -8 -46 -66l-125 -202l164 -319q24 -45 49 -56q15 -6 60 -6q25 0 25 -10q0 -8 -23 -8h-19q-8 0 -26 0.5t-26 0.5q-23 1 -70 1q-42 0 -78 -1.5t-62 -1.5h-8q-29 0 -29 11
q0 9 23 9z" />
    <glyph glyph-name="afii10040" unicode="&#x426;" horiz-adv-x="690" 
d="M498 24v607q0 27 -6 36q-6 8 -25 8h-23q-24 0 -24 9q0 10 19 10q9 0 22 -1t41 -1q12 0 65 0.5t63 0.5q11 1 19.5 1.5t12.5 0.5q13 0 13 -9q0 -5 -7 -7t-34 -3q-25 0 -31 -7t-6 -35v-588q0 -14 4 -18q5 -5 23 -9q23 -4 35 -11q31 -17 31 -54q0 -47 -38 -85
q-25 -24 -61.5 -38t-69.5 -14q-31 0 -54 10l-109 46q-45 18 -61 18q-28 0 -46 -16.5t-18 -35.5q0 -5 3 -10.5t5 -5.5q4 0 9.5 9.5t22.5 9.5q9 0 15 -7t6 -16q0 -10 -7.5 -19t-21.5 -9q-20 0 -36 13.5t-16 34.5q0 43 55 72q40 20 82 20q38 0 65 -10l91 -32q54 -19 83 -19
q37 0 61 29q20 24 20 55q0 27 -22 39q-14 7 -77 7h-438h-69q-4 0 -10 -0.5t-10 -0.5q-18 0 -18 10q0 9 24 9h23q17 0 25 8t8 36v572q0 28 -6 35t-31 7q-28 1 -34.5 2.5t-6.5 8.5q0 8 14 8q4 0 7.5 -0.5t10 -1t12.5 -0.5q12 0 66.5 -0.5t62.5 -0.5q30 0 45 1q3 0 9.5 0.5
t9.5 0.5q18 0 18 -10q0 -9 -24 -9h-23q-19 0 -25 -8q-6 -9 -6 -36v-607h293z" />
    <glyph glyph-name="afii10041" unicode="&#x427;" horiz-adv-x="626" 
d="M420 56v289q-72 -21 -142 -21q-107 0 -157 52q-42 42 -42 108v150q0 28 -6 35t-31 7q-28 1 -34.5 2.5t-6.5 8.5q0 8 14 8q4 0 7.5 -0.5t10 -1t12.5 -0.5q12 0 66.5 -0.5t62.5 -0.5q30 0 45 1q3 0 9.5 0.5t9.5 0.5q18 0 18 -10q0 -9 -24 -9h-23q-19 0 -25 -8q-6 -9 -6 -36
v-167q0 -59 32 -87q31 -28 99 -28q61 0 111 18v264q0 27 -6 36q-6 8 -25 8h-23q-24 0 -24 9q0 10 18 10q3 0 9.5 -0.5t9.5 -0.5q15 -1 45 -1q8 0 62.5 0.5t66.5 0.5q6 0 12.5 0.5t10 1t7.5 0.5q14 0 14 -8q0 -7 -6.5 -8.5t-34.5 -2.5q-25 0 -31 -7t-6 -35v-561q0 -39 5 -45
q8 -11 58 -11q16 0 16 -8q0 -9 -19 -9l-138 1h-29q-9 0 -27 -1t-27 -1q-18 0 -18 8t47 11q24 3 28 7q5 5 5 31z" />
    <glyph glyph-name="afii10042" unicode="&#x428;" horiz-adv-x="972" 
d="M534 634v-609h234v606q0 27 -6 36q-6 8 -25 8h-23q-24 0 -24 9q0 10 20 10q12 0 26 -1t46 -1q15 0 58 0.5t54 0.5q32 2 34 2q15 0 15 -8t-4.5 -8.5t-36.5 -2.5q-27 -2 -31 -7q-6 -7 -6 -35v-561q0 -39 5 -45q8 -11 38 -11h20q16 0 16 -8q0 -10 -25 -10q-22 0 -67 1t-68 1
q-12 0 -37 -0.5t-37 -0.5h-449q-12 0 -36.5 0.5t-36.5 0.5q-22 0 -68 -1t-68 -1q-25 0 -25 10q0 8 16 8h20q30 0 38 11q5 6 5 45v561q0 28 -6 35q-4 5 -31 7q-37 2 -39 5q-2 2 -2 6q0 8 15 8q8 0 14.5 -1t17.5 -1q10 0 57.5 -0.5t65.5 -0.5q32 0 41 1t24 1q18 0 18 -10
q0 -9 -24 -9h-23q-19 0 -25 -8q-6 -9 -6 -36v-606h234v606q0 27 -6 36q-6 8 -25 8h-23q-24 0 -24 9q0 10 18 10q4 0 11.5 -0.5t11.5 -0.5q16 -1 48 -1q9 0 58 0.5t60 0.5q8 0 18 1t14 1q14 0 14 -8t-10 -9q-4 0 -31 -2t-31 -7q-6 -7 -6 -35z" />
    <glyph glyph-name="afii10043" unicode="&#x429;" horiz-adv-x="960" 
d="M535 634v-609h234v606q0 27 -6 36q-6 8 -25 8h-23q-24 0 -24 9q0 10 20 10q12 0 26 -1t46 -1q15 0 58 0.5t54 0.5q32 2 34 2q15 0 15 -8t-4.5 -8.5t-36.5 -2.5q-27 -2 -31 -7q-6 -7 -6 -35v-588q0 -14 5 -20q4 -4 22 -7q27 -4 41 -14q26 -17 26 -52q0 -47 -39 -82
q-60 -55 -150 -55q-39 0 -63 9l-149 51q-36 12 -55 12q-24 0 -41 -11q-19 -13 -19 -36q0 -18 8 -18q2 0 3.5 2.5l3.5 6t4 5.5q6 6 20 6q11 0 18 -7t7 -16q0 -12 -11 -21t-27 -9q-19 0 -33 13.5t-14 35.5q0 24 17.5 44t40.5 32q38 19 87 19q35 0 71 -11l115 -34
q63 -18 91 -18q42 0 68 24q27 25 27 59q0 28 -24 39q-16 7 -81 7h-573q-12 0 -36.5 0.5t-36.5 0.5q-23 0 -68 -1t-68 -1q-10 0 -16 1q-9 2 -9 9q0 8 16 8h20q19 0 31 6q3 1 7 5q5 6 5 45v561q0 28 -6 35q-4 5 -31 7q-37 2 -39 5q-2 2 -2 6q0 8 15 8q3 0 8.5 -0.5t8.5 -0.5
q38 -2 138 -2q32 0 41 1t24 1q18 0 18 -10q0 -9 -24 -9h-23q-10 0 -15 -2q-7 -2 -10 -6q-6 -9 -6 -36v-606h234v606q0 27 -6 36q-3 4 -10 6q-5 2 -15 2h-23q-24 0 -24 9q0 2 2 6q4 4 16 4q4 0 11.5 -0.5t11.5 -0.5q16 -1 48 -1q9 0 58 0.5t60 0.5q8 0 18 1t14 1q14 0 14 -8
q0 -4 -1 -6q-2 -3 -8 -3q-4 0 -8 -0.5t-11 -1t-13 -0.5q-2 0 -7 -0.5t-7 -0.5q-13 -2 -17 -6q-6 -7 -6 -35z" />
    <glyph glyph-name="afii10044" unicode="&#x42a;" horiz-adv-x="742" 
d="M267 70v601q-125 2 -160 -10q-41 -14 -58 -54q-10 -23 -16 -68q-4 -31 -14 -31q-12 0 -12 21q0 7 1.5 23.5t1.5 21.5q1 8 2 27.5t2.5 43.5t4.5 50h58q32 0 95.5 -1.5t95.5 -1.5h75q10 0 50 2q11 1 40 1q13 0 13 -9t-26 -9q-33 0 -43 -6q-11 -7 -11 -46v-218
q89 6 154 -2.5t116 -45.5q76 -53 76 -156t-88 -158q-70 -44 -191 -44q-20 0 -59.5 1t-59.5 1q-24 0 -74 -2q-4 0 -13 -0.5t-13 -0.5h-14q-13 0 -13 9t26 9q33 0 43 6q11 7 11 46zM366 383v-339q0 -23 51 -23q118 0 163 73q27 43 27 112q0 96 -58 144q-33 27 -82.5 33.5
t-100.5 -0.5z" />
    <glyph glyph-name="afii10045" unicode="&#x42b;" horiz-adv-x="859" 
d="M750 625v-561q0 -29 4 -34q8 -11 65 -14q12 0 12 -8t-12 -8q-5 0 -85 2q-67 2 -93 0q-3 0 -9 -0.5t-9 -0.5l-40 -1q-5 0 -7 1q-6 3 -6 8q0 9 26 9q35 1 43 6q4 3 6.5 7.5t3.5 12.5t1 12.5v15.5v13v543q0 18 -1 28q-2 12 -14 17q-15 5 -45 5h-8q-11 0 -11 8q0 9 12 9
l135 -2q6 0 41 1t53 1q14 0 17 -5q1 -1 1 -4q0 -9 -44 -10q-22 0 -29 -7t-7 -44zM207 625v-218q94 6 158 -3.5t112 -44.5q76 -56 76 -156q0 -103 -88 -158q-70 -44 -167 -44q-19 0 -57.5 2t-57.5 2q-18 0 -56 -2q-30 -2 -46 -2l-40 -1q-5 0 -7 1q-6 3 -6 8q0 8 26 9
q36 1 43 6q4 3 6.5 7.5t3.5 12.5t1 12.5v15.5v13v543q0 18 -1 28q-2 12 -14 17q-17 5 -45 5h-8q-11 0 -11 8q0 9 12 9l138 -2q22 0 41.5 0.5t32.5 1t17 0.5q14 0 17 -5q1 -1 1 -4q0 -9 -44 -10q-22 0 -29 -7q-8 -8 -8 -44zM207 383v-339q0 -23 51 -23q117 0 163 73
q27 42 27 115q0 94 -59 141q-34 27 -82.5 33.5t-99.5 -0.5z" />
    <glyph glyph-name="afii10046" unicode="&#x42c;" horiz-adv-x="581" 
d="M207 625v-218q94 6 158 -3.5t112 -44.5q76 -56 76 -156q0 -103 -88 -158q-70 -44 -167 -44q-19 0 -57.5 2t-57.5 2q-18 0 -56 -2q-30 -2 -46 -2l-40 -1q-5 0 -7 1q-6 3 -6 8q0 8 26 9q36 1 43 6q4 3 6.5 7.5t3.5 12.5t1 12.5v15.5v13v543q0 18 -1 28q-2 12 -14 17
q-17 5 -45 5h-8q-11 0 -11 8q0 9 12 9l138 -2q22 0 41.5 0.5t32.5 1t17 0.5q14 0 17 -5q1 -1 1 -4q0 -9 -44 -10q-22 0 -29 -7q-8 -8 -8 -44zM207 383v-339q0 -23 51 -23q117 0 163 73q27 42 27 115q0 94 -59 141q-34 27 -82.5 33.5t-99.5 -0.5z" />
    <glyph glyph-name="afii10047" unicode="&#x42d;" horiz-adv-x="633" 
d="M200 353l74 61q40 33 87 33q39 0 111 -33q-8 126 -59 196q-54 75 -144 75q-116 0 -166 -86q-25 -45 -32 -102q-3 -20 -13 -20t-10 15q0 13 0.5 37t0.5 36q0 55 -3 73q-1 7 -4 22t-3 21q0 11 9 11q2 0 6 -2q3 -2 10 -22q4 -12 10 -16q4 -3 11 -3q8 0 35 15q69 41 141 41
q79 0 141 -26q36 -15 65 -39q55 -45 88 -122t33 -166q0 -129 -61 -222q-38 -60 -108 -101t-175 -41q-92 0 -145 31q-69 40 -69 112q0 49 39 67q14 7 31 7q27 0 44 -17t17 -43q0 -27 -15 -42.5t-33 -15.5q-4 0 -12 2q-6 2 -8 2q-12 0 -12 -12q0 -20 37 -41q51 -29 121 -29
q49 0 90 16q91 36 125 149q13 43 18 89q7 70 1 129q-2 2 -7 4.5t-8 3.5q-24 12 -38 12q-28 0 -75 -38l-66 -53q-35 -28 -75 -28q-6 0 -20 2q-9 1 -20 6l-57 22q-12 4 -17 7q-10 6 -10 13q0 10 10 10q4 0 12 -4q2 -1 4 -3t4 -3q26 -17 37 -17q21 0 53 27z" />
    <glyph glyph-name="afii10048" unicode="&#x42e;" horiz-adv-x="993" 
d="M223 376h116q1 71 27.5 135t65.5 105q39 42 94.5 65.5t115.5 23.5q59 0 115 -24t97 -66q97 -101 97 -265q0 -159 -90 -260q-42 -47 -102 -74.5t-115 -27.5q-51 0 -112 24.5t-107 76.5q-45 51 -66.5 121.5t-20.5 140.5h-115v-287q0 -28 4 -34q8 -12 65 -14q5 0 7 -1
q5 -1 5 -7q0 -8 -17 -8q-12 0 -58 2q-55 1 -88 1q-21 0 -32 -1q-2 0 -6 -0.5t-6 -0.5l-41 -1q-13 0 -13 9q0 8 26 9q36 1 43 6q4 3 6.5 7.5t3.5 12.5t1 12.5v15.5v13v543q0 18 -1 28q0 8 -8 14q-1 0 -2.5 1t-2.5 2q-7 3 -29 4q-3 0 -8.5 0.5t-8.5 0.5h-3q-16 0 -16 8
q0 2 2 6q3 3 10 3l133 -2l61 1q4 0 11.5 0.5t11.5 0.5h6h8q16 0 16 -9q0 -7 -27 -9q-2 0 -8 -0.5t-8 -0.5q-23 0 -30 -7t-7 -44v-249zM642 6q26 0 53.5 10t58.5 39.5t51 76.5q36 86 36 213q0 90 -20 171t-58 122q-44 49 -121 49q-76 0 -123 -49q-39 -41 -59.5 -122
t-20.5 -173q0 -65 9 -114q10 -53 28 -97q34 -83 107 -113q31 -13 59 -13z" />
    <glyph glyph-name="afii10049" unicode="&#x42f;" horiz-adv-x="615" 
d="M498 622v-562q0 -26 3 -31q9 -13 67 -13q14 0 14 -8q0 -9 -20 -9q-22 0 -55.5 0.5t-40.5 0.5h-67q-40 0 -51 -0.5t-23 -0.5q-17 0 -17 8t14 9q71 3 76 18q1 4 1 24v286h-39q-49 0 -85 -34q-31 -29 -50 -84q-11 -31 -19.5 -60t-16.5 -62t-11 -43q-11 -41 -15 -63
q-26 2 -43 2q-8 0 -44.5 -1t-75.5 -1q-16 0 -16 10q0 9 18 8q37 -2 51 7q10 6 20 27q0 1 31.5 81t51.5 114q27 42 62 68q30 22 59 32q18 5 18 7q0 4 -10 4q-38 -2 -83.5 8t-72.5 33q-49 44 -49 125q0 98 76 142q52 30 154 30q47 0 71 -1.5t64 -1.5q17 0 59 2t60 2
q19 0 19 -10q0 -9 -12 -9h-17q-42 0 -50 -11q-6 -8 -6 -43zM399 366v274q0 34 -61 34q-76 0 -109 -29q-42 -39 -42 -129q0 -84 41 -118q18 -15 56 -23.5t68 -8.5h47z" />
    <glyph glyph-name="afii10065" unicode="&#x430;" horiz-adv-x="396" 
d="M332 297v-187q0 -51 4 -65q6 -25 25 -25q15 0 33 9q10 6 19 16q6 6 9 6q6 0 6 -6q0 -10 -12 -20q-13 -11 -38 -22q-28 -12 -54 -12q-37 0 -54 21q-7 8 -12 20q-6 14 -6 30q-25 -49 -75 -67q-18 -7 -42 -7q-65 0 -90 48q-10 19 -10 43q0 50 43 92q20 20 56 38q25 12 59 20
q31 8 59 12v55q0 51 -5 72q-2 8 -4 14q-18 51 -71 51q-42 0 -66 -25q-17 -18 -17 -43q0 -4 1 -5q2 -2 11 -2q14 -1 23.5 -12.5t9.5 -26.5q0 -18 -11 -31t-33 -13q-23 0 -38 16t-15 42q0 13 5 28q10 29 32 50q41 37 114 37q34 0 56 -5q48 -11 68 -37q9 -11 14 -27
q6 -20 6 -82zM252 137v87q-58 -13 -93 -34q-47 -29 -47 -84q0 -34 19 -53.5t46 -19.5q23 0 42 14.5t27 33.5q2 4 4 12q2 16 2 44z" />
    <glyph glyph-name="afii10066" unicode="&#x431;" horiz-adv-x="452" 
d="M299 599l-74 34q-16 7 -31 7q-17 0 -29 -13q-26 -29 -39 -114q-8 -49 -8 -140q22 41 57 58t67 17q36 0 78.5 -19t74.5 -60q49 -65 49 -151q0 -88 -47 -151q-30 -41 -72.5 -60t-81.5 -19q-45 0 -88 21.5t-73 62.5q-51 70 -51 191q0 162 55 280q38 82 84.5 115t84.5 33
q13 0 28 -6l52 -23q28 -12 46 -12q31 0 53 46q6 11 12 11q7 0 7 -9t-16 -33t-29 -39q-35 -39 -68 -39q-15 0 -41 12zM116 234q0 -93 19 -144q32 -88 109 -88q63 0 89 78q20 60 20 143q0 117 -39 173q-27 37 -69 37q-27 0 -55.5 -14.5t-46.5 -44.5q-27 -46 -27 -140z" />
    <glyph glyph-name="afii10067" unicode="&#x432;" horiz-adv-x="427" 
d="M79 48v346q0 11 -4 16q-8 10 -38 10h-14q-10 0 -10 8q0 9 16 9q5 0 27 -2t61 -2q46 0 69 1q8 0 23 0.5t22 0.5q79 0 113 -21q46 -28 46 -84q0 -51 -33 -77q-31 -26 -93 -28v-1q64 -6 96 -26q49 -29 49 -86q0 -40 -29 -71q-40 -42 -132 -42q-20 0 -59 1t-58 1
q-7 0 -42 -0.5t-41 -0.5q-8 0 -14 -1t-10 -1q-11 0 -11 8q0 9 18 9l30 1q18 0 18 32zM161 216v-164q0 -23 4 -29q5 -7 44 -7q69 0 94 30q20 24 20 70q0 44 -23 67q-37 41 -139 33zM161 384v-148q24 -3 41 -3q58 0 81 20q25 20 25 66q0 52 -28 78q-22 20 -61 20q-38 0 -48 -4
q-10 -5 -10 -29z" />
    <glyph glyph-name="afii10068" unicode="&#x433;" horiz-adv-x="344" 
d="M158 416v-371q0 -18 4 -23q5 -8 51 -8q15 0 15 -8q0 -9 -18 -9q-1 0 -40 3q-11 1 -32 1q-10 0 -50.5 -0.5t-45.5 -0.5t-9.5 -0.5t-7 -1t-4.5 -0.5q-11 0 -11 8q0 9 17 9l26 1q15 1 19 5.5t4 25.5v344q0 15 -6 20t-23 6l-29 1q-12 0 -12 8q0 9 20 9q18 0 24 -1t29 -1h42
h228q0 -47 1 -79q1 -24 2.5 -32t1.5 -19t-7 -11t-10 12q-19 63 -49 86q-33 26 -88 26h-42z" />
    <glyph glyph-name="afii10069" unicode="&#x434;" horiz-adv-x="467" 
d="M266 434h74h14q3 0 11 2.5t12 2.5q16 0 16 -23q0 -2 -2 -28v-17v-336q0 -11 7 -14q5 -2 21 -2h48q-11 -33 -22 -73q-18 -67 -21 -82q-5 -25 -13 -25q-5 0 -8 10q-8 29 -11 87q-3 50 -7 55q-7 9 -46 9h-191q-48 0 -67 -4q-8 -1 -10 -4t-3 -12l-2 -43.5l-1.5 -33
t-1.5 -20.5q-3 -44 -13 -44q-7 0 -13 22q-10 41 -23 82l-26 76h54q31 0 38 14l161 338q6 12 6 25q0 4 -0.5 6.5t-1.5 5t-3 4t-3.5 2.5t-4.5 2t-5 1.5t-6.5 0.5t-7 0.5t-7.5 0.5h-8l-31 1q-12 0 -12 8q0 9 17 9q10 0 28 -2q7 -1 22 -1h42zM309 19v398h-19l-188 -398h207z" />
    <glyph glyph-name="afii10070" unicode="&#x435;" horiz-adv-x="430" 
d="M183 296q-9 0 -28 -1t-28 -1q-5 -32 -5 -65q0 -95 34 -148q38 -60 116 -60q31 0 55 14q17 10 33 32q6 8 11.5 17t9 15.5t4.5 8.5q5 8 11 8q8 0 8 -8q0 -7 -10 -25q-17 -30 -38 -51q-44 -44 -111 -44q-87 0 -146 59q-68 68 -68 167q0 70 29 125q57 109 176 109
q46 0 85 -21q75 -41 81 -127q-28 -4 -76 -4q-14 0 -40 0.5t-40 0.5q-42 0 -63 -1zM130 313h187q0 43 -13 73q-20 47 -72 47q-48 0 -76 -41q-11 -15 -18 -43q-6 -24 -8 -36z" />
    <glyph glyph-name="afii10072" unicode="&#x436;" horiz-adv-x="634" 
d="M356 217v-172q0 -16 3 -21t11 -7q12 -3 34 -3q12 0 12 -7q0 -9 -16 -9q-3 0 -8 0.5t-7 0.5q-19 2 -59 2q-42 0 -57 -1t-40 -1q-15 0 -15 8q0 7 9 7q26 0 40 3q9 2 12 7t3 21v172h-20q-34 0 -60 -19q-28 -20 -43 -70q-9 -27 -27 -106q-1 -3 -2 -10.5t-3 -13.5q-26 2 -48 2
q-29 0 -43 -1q-5 0 -16.5 -0.5t-18.5 -0.5q-17 0 -17 9q0 6 11 6q3 0 9.5 -0.5t9.5 -0.5q21 0 32 22q7 14 24.5 58.5t33.5 66.5q22 31 51 46q32 17 71 23q-29 4 -50 29q-17 21 -32 67l-13 41q-8 26 -18 38q-13 13 -30 13q-11 0 -19 -6t-8 -11q0 -3 2 -5t4.5 -2.5t6.5 -1
t5 -0.5q21 -1 21 -24q0 -13 -10 -22.5t-24 -9.5q-16 0 -29 13t-13 36q0 21 13 35q19 20 47 20q22 0 43 -17q15 -13 25 -42l18 -59q15 -49 41 -67q24 -16 51 -16h25v156q0 16 -6 21q-3 3 -43 4q-16 0 -16 9q0 8 14 8q8 0 35 -1.5t54 -1.5q8 0 23.5 0.5t23.5 0.5h17
q9 0 16.5 1t12.5 1q12 0 12 -8q0 -9 -16 -9q-36 0 -42 -3q-7 -3 -7 -16v-162h25q27 0 51 16q26 18 41 67l18 59q10 29 25 42q21 17 43 17q28 0 47 -20q13 -14 13 -35q0 -23 -13 -36t-29 -13q-14 0 -24 9.5t-10 22.5q0 23 21 24q1 0 5 0.5t6.5 1t4.5 2.5t2 5q0 5 -8 11t-19 6
q-17 0 -30 -13q-10 -12 -18 -38l-13 -41q-15 -46 -32 -67q-21 -25 -50 -29q39 -6 71 -23q29 -15 51 -46q16 -22 33.5 -66.5t24.5 -58.5q11 -22 32 -22q3 0 9.5 0.5t9.5 0.5q11 0 11 -6q0 -9 -17 -9q-7 0 -18.5 0.5t-16.5 0.5q-14 1 -43 1q-22 0 -48 -2q-2 6 -3 13.5t-2 10.5
q-18 79 -27 106q-15 50 -43 70q-26 19 -60 19h-20z" />
    <glyph glyph-name="afii10073" unicode="&#x437;" horiz-adv-x="409" 
d="M262 226v-1q47 -11 82 -35q45 -33 45 -84q0 -49 -44 -82q-59 -42 -147 -42q-46 0 -84 11q-27 8 -49 29l-8.5 8.5t-10 9.5t-9 6t-9.5 3q-13 0 -21 -16q-7 -17 -12 -17q-7 0 -7 9q0 11 18 33q22 30 55 30q26 0 48 -20q8 -8 17.5 -21t18.5 -23q24 -24 57 -24q32 0 59 25
q34 34 34 96q0 36 -16 64q-11 19 -29 32q-37 -33 -80 -33q-26 0 -40.5 11t-14.5 27q0 14 12 26t41 12q41 0 80 -24q31 36 31 89q0 54 -26 82q-18 20 -48 20q-41 0 -78 -32q-28 -26 -49 -76q-4 -12 -10 -12t-6 8q0 4 0.5 10l1.5 17.5t2 25.5q3 59 3 71q0 9 6 9q5 0 7 -11
q4 -14 22 -14q11 0 34 7q40 14 71 14q72 0 114 -30q44 -31 44 -79t-37 -79q-27 -22 -68 -30zM176 242q-28 0 -28 -20t26 -20q28 0 62 23q-34 17 -60 17z" />
    <glyph glyph-name="afii10074" unicode="&#x438;" horiz-adv-x="512" 
d="M472 14h14q12 0 12 -9q0 -8 -16 -8q-9 0 -26.5 1.5t-24.5 1.5q-21 0 -61 -1.5t-63 -0.5h-3q-2 0 -6 -0.5t-6 -0.5q-11 0 -11 8q0 9 19 9l26 1q14 0 17 5q3 4 3 27v298l-181 -281v-31q0 -12 4.5 -15.5t18.5 -4.5l29 -1q10 0 10 -6q0 -8 -14 -8q-17 0 -55.5 1l-58.5 1.5
t-45 -1.5q-10 -2 -23 -2q-18 0 -18 9q0 8 14 8q28 0 44 4q7 2 9.5 7t2.5 23v339q0 23 -3 27q-3 5 -17 5l-25 1q-20 0 -20 10q0 7 11 7q2 0 6 -0.5t6 -0.5h3q19 0 62 -1.5t62 0.5q28 2 29 2h14q14 0 14 -8q0 -7 -12 -7l-19 -1q-22 0 -27 -7q-2 -3 -2 -22v-289l181 280v9
q0 18 -3 22q-3 5 -17 5l-25 1q-20 0 -20 10q0 7 11 7q2 0 6 -0.5t6 -0.5h3q16 0 55.5 -1.5t68.5 0.5q10 1 19 1.5t12 0.5h12q14 0 14 -7q0 -8 -12 -8h-14q-16 0 -25 -3q-2 -1 -4 -1.5t-3 -2t-1.5 -2.5t-0.5 -3.5v-4v-6v-7.5v-349q0 -17 4 -21q6 -8 40 -8z" />
    <glyph glyph-name="afii10075" unicode="&#x439;" horiz-adv-x="502" 
d="M472 14h14q12 0 12 -9q0 -8 -16 -8q-9 0 -26.5 1.5t-24.5 1.5q-21 0 -61 -1.5t-63 -0.5h-3q-2 0 -6 -0.5t-6 -0.5q-11 0 -11 8q0 9 19 9l26 1q14 0 17 5q3 4 3 27v298l-181 -281v-31q0 -12 4.5 -15.5t18.5 -4.5l29 -1q10 0 10 -6q0 -8 -14 -8q-17 0 -55.5 1l-58.5 1.5
t-45 -1.5q-10 -2 -23 -2q-18 0 -18 9q0 8 14 8q28 0 44 4q7 2 9.5 7t2.5 23v339q0 23 -3 27q-3 5 -17 5l-25 1q-20 0 -20 10q0 7 11 7q2 0 6 -0.5t6 -0.5h3q19 0 62 -1.5t62 0.5q28 2 29 2h14q14 0 14 -8q0 -7 -12 -7l-19 -1q-22 0 -27 -7q-2 -3 -2 -22v-289l181 280v9
q0 18 -3 22q-3 5 -17 5l-25 1q-20 0 -20 10q0 7 11 7q2 0 6 -0.5t6 -0.5h3q16 0 55.5 -1.5t68.5 0.5q10 1 19 1.5t12 0.5h12q14 0 14 -7q0 -8 -12 -8h-14q-16 0 -25 -3q-2 -1 -4 -1.5t-3 -2t-1.5 -2.5t-0.5 -3.5v-4v-6v-7.5v-349q0 -17 4 -21q6 -8 40 -8zM259 524
q-61 0 -100 31q-33 26 -33 60q0 23 15 37.5t41 14.5q22 0 33.5 -12t11.5 -28q0 -21 -18 -28q-2 -1 -21 -5q-13 -4 -13 -13q0 -18 27 -30t57 -12t57 12t27 30q0 9 -11 12q-4 1 -11.5 2.5t-11.5 3.5q-18 8 -18 28q0 15 11.5 27.5t33.5 12.5t39 -13.5t17 -38.5q0 -33 -33 -60
q-40 -31 -100 -31z" />
    <glyph glyph-name="afii10076" unicode="&#x43a;" horiz-adv-x="458" 
d="M160 217v-172q0 -16 3 -21t11 -7q12 -3 34 -3q12 0 12 -7q0 -9 -16 -9q-3 0 -8 0.5t-7 0.5q-19 2 -59 2q-44 0 -59.5 -1t-41.5 -1q-15 0 -15 8q0 7 9 7q26 0 40 3q9 2 12 7t3 21v348q0 16 -6 21q-3 3 -43 4q-16 0 -16 9q0 8 14 8q7 0 38 -1.5t55 -1.5q8 0 23.5 0.5
t23.5 0.5h17q9 0 16.5 1t12.5 1q12 0 12 -8q0 -9 -16 -9q-36 0 -42 -3q-7 -3 -7 -16v-162h35q28 0 51 16q28 19 45 67l20 57q12 33 25 44q19 17 45 17q28 0 45 -20q13 -16 13 -34q0 -25 -13 -37.5t-29 -12.5q-13 0 -23.5 8.5t-10.5 22.5q0 23 21 25q1 0 5 0.5t6.5 1t4.5 2.5
t2 5q0 5 -8 11t-19 6q-17 0 -30 -13q-7 -8 -18 -38l-15 -41q-16 -46 -35 -68q-21 -23 -51 -28q39 -6 71 -23q29 -15 51 -46q16 -22 33.5 -66.5t24.5 -58.5q11 -22 32 -22q3 0 9.5 0.5t9.5 0.5q11 0 11 -6q0 -9 -17 -9q-7 0 -18.5 0.5t-16.5 0.5q-14 1 -43 1q-22 0 -48 -2
q-2 6 -3 13.5t-2 10.5q-6 33 -27 105q-17 51 -43 71q-25 19 -60 19h-30z" />
    <glyph glyph-name="afii10077" unicode="&#x43b;" horiz-adv-x="425" 
d="M269 417h-20q-9 0 -12 -4t-5 -15q0 -4 -2 -11.5t-2 -11.5l-9 -51q-23 -126 -44 -188q-29 -86 -74 -120q-28 -22 -59 -22q-28 0 -47 17t-19 43q0 19 12 31q15 16 34 16q15 0 26.5 -10t11.5 -28q0 -20 -17 -27q-12 -3 -12 -10q0 -10 16 -10q19 0 40 15q58 41 92 198
q14 68 22 127q3 27 3 29q0 27 -36 32q-27 3 -49 3q-14 0 -14 8q0 9 16 9q18 0 56 -2q18 -1 36 -1h63h18q14 1 24 2.5t17 1.5q6 0 9.5 -1t6 -5.5t2.5 -13.5q0 -12 -1 -15.5t-1 -19.5v-335q0 -20 5 -27q7 -7 53 -7q12 0 12 -7q0 -9 -14 -9q-10 0 -42.5 1.5t-68.5 1.5
q-28 0 -42 -1q-26 -2 -39 -2q-12 0 -12 8q0 6 8 8q4 1 9.5 1t14 0.5t14.5 0.5q12 1 16 6t4 25v370z" />
    <glyph glyph-name="afii10078" unicode="&#x43c;" horiz-adv-x="567" 
d="M408 379l-147 -363l-5 -9q-3 0 -6 9l-146 360h-1l-7 -328q0 -26 13 -30q11 -4 44 -4q14 0 14 -8q0 -9 -18 -9q-3 0 -9 0.5t-9 0.5q-31 3 -62 3q-13 0 -37 -2q-2 0 -6 -0.5t-6 -0.5q-12 0 -12 8q0 9 20 9q28 0 35 3q3 1 6 4q5 6 5 26l8 323q0 34 -5 40q-8 9 -51 9
q-14 0 -14 8q0 9 18 9q4 0 10.5 -0.5t8.5 -0.5q12 -3 43 -3q30 0 66 3l125 -309l126 309q17 -3 51 -3q32 0 60 2q10 2 20 2q19 0 19 -9q0 -8 -14 -8q-28 0 -44 -4q-7 -2 -9.5 -7t-2.5 -23l1 -338q0 -20 5 -26q3 -3 6 -4q8 -3 35 -3q20 0 20 -9q0 -8 -13 -8q-39 0 -54 1.5
t-44 1.5q-20 0 -44.5 -2t-38.5 -2q-22 0 -22 9q0 8 14 8q28 0 44 4q8 2 10 7t2 23l-1 331h-1z" />
    <glyph glyph-name="afii10079" unicode="&#x43d;" horiz-adv-x="502" 
d="M345 49v180h-178v-180q0 -23 3 -27q3 -3 7 -4q12 -2 35 -2q20 0 20 -9q0 -8 -11 -8q-2 0 -5.5 0.5t-5.5 0.5h-3l-101 2l-50 -2q-3 0 -9.5 -1t-13.5 -1q-18 0 -18 9q0 8 14 8q28 0 44 4q5 2 7 3.5t3.5 7.5t1.5 19v337q0 18 -2.5 23t-9.5 7q-16 4 -44 4q-14 0 -14 8
q0 9 18 9q7 0 13.5 -1t9.5 -1l50 -2l101 2h2q2 0 6 0.5t6 0.5q11 0 11 -8q0 -9 -20 -9q-23 0 -35 -2q-4 -1 -7 -4q-3 -4 -3 -27v-140h178v140q0 23 -3 27q-3 3 -7 4q-12 2 -35 2q-20 0 -20 9q0 8 11 8q2 0 6 -0.5t6 -0.5h2l101 -2l50 2q3 0 9.5 1t13.5 1q18 0 18 -9
q0 -8 -14 -8q-28 0 -44 -4q-7 -2 -9.5 -7t-2.5 -23v-337q0 -13 1.5 -19t3.5 -7.5t7 -3.5q16 -4 44 -4q14 0 14 -8q0 -9 -18 -9q-7 0 -13.5 1t-9.5 1l-50 2l-101 -2h-3q-2 0 -5.5 -0.5t-5.5 -0.5q-11 0 -11 8q0 9 20 9q23 0 35 2q4 1 7 4q3 4 3 27z" />
    <glyph glyph-name="afii10080" unicode="&#x43e;" horiz-adv-x="480" 
d="M239 448q25 0 51 -6q53 -14 92 -53q68 -67 68 -173q0 -100 -59 -163q-59 -65 -147 -65q-25 0 -49 6q-56 13 -95 51q-22 21 -38 49q-31 55 -31 122q0 104 64 171q58 61 144 61zM241 433q-68 0 -99 -82q-20 -55 -20 -135q0 -81 22 -134q32 -80 106 -80q44 0 67 35
q26 39 37 106q5 30 5 74q0 75 -17 130q-7 25 -17 41q-26 45 -84 45z" />
    <glyph glyph-name="afii10081" unicode="&#x43f;" horiz-adv-x="490" 
d="M83 49v337q0 18 -2 23t-10 7q-16 4 -44 4q-14 0 -14 8q0 9 18 9q7 0 13.5 -1t9.5 -1l50 -2h290l50 2q3 0 9.5 1t13.5 1q18 0 18 -9q0 -8 -14 -8q-28 0 -44 -4q-7 -2 -9.5 -7t-2.5 -23v-337q0 -13 1.5 -19t3.5 -7.5t7 -3.5q16 -4 44 -4q14 0 14 -8q0 -9 -18 -9
q-7 0 -13.5 1t-9.5 1l-50 2l-103 -2q-2 0 -5.5 -0.5t-6 -0.5t-5.5 0.5t-4.5 2.5t-1.5 5q0 9 20 9q23 0 35 2q4 1 7 4q3 4 3 27v364h-168v-364q0 -23 3 -27q3 -3 7 -4q12 -2 35 -2q20 0 20 -9q0 -3 -1.5 -5t-4.5 -2.5t-5.5 -0.5t-6 0.5t-5.5 0.5l-103 2l-50 -2q-3 0 -9.5 -1
t-13.5 -1q-18 0 -18 9q0 8 14 8q28 0 44 4q5 2 7 3.5t3.5 7.5t1.5 19z" />
    <glyph glyph-name="afii10082" unicode="&#x440;" horiz-adv-x="489" 
d="M76 -200v570q0 26 -27 26l-42 2q-9 0 -9 8t18 8h4q57 0 100 26q16 8 21 8q7 0 10 -10q3 -13 3 -43q13 20 30 31q30 22 73 22q53 0 97 -24q44 -25 74 -76.5t30 -124.5q0 -97 -55 -166t-142 -69q-70 0 -103 48v-246q0 -9 2 -13t4 -5t6 -2q18 -3 48 -3h10q12 0 12 -9
q0 -3 -2 -5t-11 -2h-19l-27 1h-47l-50 -1h-66q-16 0 -16 7q0 9 12 9h36q19 0 23 7q3 4 3 26zM158 346v-138q0 -45 2 -99q1 -42 16 -63q10 -14 22 -24q22 -17 54 -17q48 0 77 44q11 16 20 43q19 57 19 129q0 127 -53 181q-8 8 -17 14q-23 14 -52 14q-34 0 -61 -25t-27 -59z
" />
    <glyph glyph-name="afii10083" unicode="&#x441;" horiz-adv-x="409" 
d="M245 448q65 0 111 -36q39 -29 39 -67q0 -21 -12.5 -33.5t-32.5 -12.5q-18 0 -31 11.5t-13 30.5q0 12 6 24q7 14 7 23q0 17 -18 31.5t-53 14.5q-72 0 -105 -73q-22 -47 -22 -122q0 -112 36 -170q13 -21 29 -33q27 -21 65 -21q15 0 28 3q18 5 41 19q10 6 14 10
q10 8 18.5 21.5t12.5 18.5q5 5 9 5q8 0 10 -8v-2q-2 -14 -35 -47q-45 -47 -113 -47q-87 0 -144 60q-61 62 -61 162q0 110 67 177q60 61 147 61z" />
    <glyph glyph-name="afii10084" unicode="&#x442;" horiz-adv-x="396" 
d="M158 48v367h-10q-56 0 -86 -22q-34 -25 -40 -76q0 -13 -8 -13q-7 0 -7 11q0 4 1.5 17.5t2.5 29.5v26q0 8 0.5 23.5t0.5 23.5q33 0 63 -0.5t45.5 -1t26.5 -0.5h104q44 0 135 2q0 -8 0.5 -23.5t0.5 -23.5v-26q1 -16 2.5 -29.5t1.5 -17.5q0 -11 -7 -11q-8 0 -8 13
q-7 51 -40 76q-28 22 -86 22h-10v-367q0 -18 2 -23t10 -7q16 -4 44 -4q14 0 14 -8q0 -9 -18 -9q-7 0 -13.5 1t-9.5 1l-50 2l-90 -2q-6 0 -10.5 -1t-12.5 -1q-18 0 -18 9q0 8 14 8q28 0 44 4q8 2 10 7t2 23z" />
    <glyph glyph-name="afii10085" unicode="&#x443;" horiz-adv-x="401" 
d="M223 -24l-53 -150q-13 -38 -29 -56q-9 -12 -23 -20q-16 -9 -35 -9q-23 0 -39.5 13.5t-16.5 36.5q0 21 14 32t32 11q25 0 38 -22q9 -17 15 -17t10 6q5 8 9 19l53 155l-147 397q-2 5 -5.5 17t-5 14t-6 7.5t-10 6.5t-15.5 2q-23 0 -27 1q-9 2 -9 9q0 3 1 4q3 4 12 4
q6 0 26 -1.5t43 -1.5q14 0 37 1t36 1l54 1q11 0 11 -8q0 -7 -9 -7l-28 -1q-28 -1 -30 -6q-1 -2 -1 -4q0 -9 5 -19l108 -299l92 300q0 1 1 3.5t1 3.5q2 8 2 11q0 5 -5 8q-8 3 -25 3h-18q-12 0 -12 8q0 7 12 7q3 0 8 -1t15 -1q5 0 15 -0.5t15 -0.5h13q36 0 49 1q1 0 5 0.5
t5 0.5q13 0 13 -8q0 -7 -23 -7q-11 0 -23 -2q-11 -2 -15 -8q-5 -8 -12 -29q-97 -319 -128 -406z" />
    <glyph glyph-name="afii10086" unicode="&#x444;" horiz-adv-x="658" 
d="M290 -200v236q-40 -48 -100 -48q-62 0 -106 53q-53 63 -53 180q0 97 39 156q47 71 126 71q61 0 94 -50v208q0 20 -8 42q-5 14 -21 14q-5 0 -13 -1t-15 -1q-16 0 -16 9t12 9l28 -1q31 -1 66 13q10 4 18 8.5l11.5 6.5t6.5 2q10 0 10 -25v-18q0 -5 -0.5 -15.5t-0.5 -15.5
v-235q33 50 94 50q79 0 126 -71q39 -58 39 -156q0 -117 -53 -180q-44 -53 -106 -53q-60 0 -100 48v-246q0 -9 2 -13t4 -5t6 -2q19 -3 33 -3h19q12 0 12 -9q0 -7 -13 -7h-22q-13 0 -40 0.5t-40 0.5t-38 -0.5t-37 -0.5h-24q-16 0 -16 7q0 9 12 9h36q20 0 25 7q3 4 3 26z
M210 428q-24 0 -47 -19t-35 -56q-15 -43 -15 -138q0 -85 13 -130q22 -79 80 -79q20 0 41 14t31 33q15 27 15 153v27.5v25v21.5t-0.5 20.5t-1 17.5t-1 16.5t-1.5 13.5t-2.5 13t-3.5 10.5t-5 10.5q-11 21 -30.5 33.5t-37.5 12.5zM448 428q-18 0 -37.5 -12.5t-30.5 -33.5
q-3 -5 -5 -10.5t-3.5 -10.5t-2.5 -13t-1.5 -13.5t-1 -16.5t-1 -17.5t-0.5 -20.5v-21.5v-25v-27.5q0 -126 15 -153q10 -19 31 -33t41 -14q58 0 80 79q13 45 13 130q0 95 -15 138q-12 37 -35 56t-47 19z" />
    <glyph glyph-name="afii10087" unicode="&#x445;" horiz-adv-x="421" 
d="M239 248l113 -198q12 -21 25 -28t41 -7t28 -8t-18 -8q-8 0 -15 0.5t-11 0.5l-99 1q-36 0 -60 -1l-22 -1h-7h-5t-3.5 0.5t-2.5 0.5h-1q-6 1 -6 7q0 5 6 7q5 1 43 1q24 0 27 4q1 2 1 6q0 5 -6 16q-1 1 -2 3.5t-2 3.5l-80 139l-95 -146q-8 -11 -8 -18q0 -6 12 -7q7 -1 20 -1
t24 -1q10 0 10 -7q0 -9 -24 -9l-33 1q-60 2 -75 1q-12 -2 -21 -1t-9 8q0 5 6 7q2 1 16 2q33 3 44 14q6 6 16 20l104 156l-86 161q-21 39 -30 46q-12 8 -51 8q-7 0 -10 1q-5 1 -5 6t7 7q2 1 7 1l113 -2q9 0 36.5 1t55.5 1q27 0 27 -8q0 -9 -35 -9h-8.5h-8.5h-8t-8 -1
t-5.5 -2.5t-4 -4t-1.5 -5.5q0 -4 4 -12l67 -126l82 128l6 11q3 5 3 7q0 6 -24 6h-21q-7 0 -7 8q0 10 34 7l13 -1q17 -2 40.5 0t33.5 2h6q2 0 7.5 0.5t8.5 0.5q11 0 11 -6q0 -9 -11 -9q-8 -1 -22 -1t-20 -1q-12 -2 -17 -7q-8 -7 -20 -25z" />
    <glyph glyph-name="afii10088" unicode="&#x446;" horiz-adv-x="489" 
d="M165 18h168v368q0 23 -3 27q-3 3 -7 4q-12 2 -35 2q-20 0 -20 9q0 8 13 8q10 0 38 -1.5t52 -1.5q37 0 66 2t31 2q17 0 17 -9q0 -8 -14 -8q-28 0 -44 -4q-7 -2 -9.5 -7t-2.5 -23v-363q0 -6 22 -11q21 -5 30 -15q10 -10 10 -28q0 -46 -41 -81q-34 -30 -73 -30q-19 0 -34 6
l-75 27q-32 12 -49 12q-18 0 -32 -12q-11 -11 -11 -26q0 -14 6 -14l6 8q6 8 18 8q8 0 14.5 -6t6.5 -16q0 -9 -7.5 -16t-19.5 -7q-15 0 -28 11.5t-13 30.5q0 31 30 53q31 24 70 24q16 0 36 -6l76 -24q19 -6 36 -6q34 0 52 22q15 18 15 41q0 19 -19 27q-12 5 -54 5h-243
q-22 0 -32 0.5t-25 -0.5q-31 0 -46 -2q-2 0 -5.5 -0.5t-5.5 -0.5q-12 0 -12 8q0 9 20 9q23 0 35 2q4 1 7 4q3 4 3 27v339q0 18 -2 23t-10 7q-16 4 -44 4q-14 0 -14 8q0 9 17 9q3 0 6.5 -0.5t9.5 -1t12 -0.5q59 -2 85 -2q23 0 47 1.5t27 1.5q13 0 13 -8q0 -9 -20 -9
q-23 0 -35 -2q-7 -2 -8 -7q-2 -8 -2 -24v-368z" />
    <glyph glyph-name="afii10089" unicode="&#x447;" horiz-adv-x="462" 
d="M301 223v163q0 23 -3 27t-8 4q-12 2 -24 2q-20 0 -20 9q0 8 14 8q11 0 31.5 -1.5t36.5 -1.5q32 0 66 2t35 2q19 0 19 -9q0 -8 -14 -8q-23 0 -39 -4q-7 -2 -9.5 -7t-2.5 -23v-338q0 -23 3 -27q1 -3 7 -4q12 -2 35 -2q20 0 20 -9q0 -8 -14 -8q-17 0 -44 1.5t-46 1.5
q-41 0 -69 -2q-22 -2 -26 -2q-18 0 -18 9q0 8 14 8q28 0 44 4q8 2 10 7t2 23v156q-47 -21 -100 -21q-61 0 -93 22q-39 27 -39 82v99q0 26 -12 30q-7 2 -39 4q-14 0 -14 8q0 9 19 9q7 0 35.5 -2t56.5 -2q23 0 45 1.5t33 1.5q13 0 13 -8q0 -9 -20 -9q-13 0 -25 -2q-4 0 -7 -3
q-3 -4 -3 -28v-111q0 -25 11 -41q20 -30 68 -30q36 0 71 19z" />
    <glyph glyph-name="afii10090" unicode="&#x448;" horiz-adv-x="687" 
d="M541 17v369q0 23 -3 27q-1 3 -7 4q-10 2 -28 2q-20 0 -20 9q0 8 11 8q2 0 4.5 -0.5t7 -1t8.5 -0.5q5 0 34.5 -0.5t41.5 -0.5q31 0 51 2t29 2q17 0 17 -9q0 -8 -14 -8q-28 0 -44 -4q-7 -2 -9.5 -7t-2.5 -23v-339q0 -23 3 -27q3 -5 17 -5l25 -1q20 0 20 -9q0 -8 -11 -8
q-4 0 -24 2q-25 1 -91 1h-414q-18 0 -50 -0.5t-38 -0.5q-5 0 -13.5 -1t-12.5 -1q-12 0 -12 8q0 9 20 9l25 1q14 0 17 5q3 4 3 27v339q0 18 -2.5 23t-9.5 7q-16 4 -44 4q-14 0 -14 8q0 9 18 9q4 0 12.5 -1t17.5 -1q50 -2 61 -2q8 0 40 1.5t42 1.5q13 0 13 -8q0 -9 -20 -9
q-18 0 -28 -2q-6 -1 -7 -4q-3 -4 -3 -27v-369h154v370q0 23 -3 27q-2 5 -17 5l-20 1q-20 2 -20 9q0 8 12 8q4 0 9 -0.5t11.5 -1t24 -1t43.5 -0.5t43.5 0.5t23.5 1t10.5 1t7.5 0.5q11 0 11 -8q0 -7 -20 -9l-20 -1q-14 0 -17 -5q-3 -4 -3 -27v-370h154z" />
    <glyph glyph-name="afii10091" unicode="&#x449;" horiz-adv-x="687" 
d="M617 386v-363q0 -7 21 -11q18 -3 29 -13q13 -13 13 -33q0 -50 -51 -84q-35 -24 -82 -24q-27 0 -49 6l-85 25q-49 14 -65 14q-25 0 -35.5 -12.5t-10.5 -26.5q0 -13 6 -13q1 0 2 2t2.5 4.5t3.5 4.5q5 5 16 5t16 -7t5 -14q0 -10 -8 -17t-20 -7q-15 0 -27.5 11.5t-12.5 30.5
q0 31 31 54q30 23 77 23q30 0 64 -8l83 -20q37 -8 53 -8q34 0 54 22q16 18 16 39q0 20 -19 28q-18 6 -66 6h-436q-18 0 -50 -0.5t-38 -0.5q-5 0 -13.5 -1t-12.5 -1q-12 0 -12 8q0 9 20 9l25 1q14 0 17 5q3 4 3 27v339q0 18 -2.5 23t-9.5 7q-16 4 -44 4q-14 0 -14 8q0 9 18 9
q4 0 12.5 -1t17.5 -1q50 -2 61 -2q8 0 40 1.5t42 1.5q13 0 13 -8q0 -9 -20 -9q-18 0 -28 -2q-6 -1 -7 -4q-3 -4 -3 -27v-369h154v370q0 23 -3 27q-2 5 -17 5l-20 1q-20 2 -20 9q0 8 12 8q4 0 9 -0.5t11.5 -1t24 -1t43.5 -0.5t43.5 0.5t23.5 1t10.5 1t7.5 0.5q11 0 11 -8
q0 -7 -20 -9l-20 -1q-14 0 -17 -5q-3 -4 -3 -27v-370h154v369q0 23 -3 27q-1 3 -7 4q-10 2 -28 2q-20 0 -20 9q0 8 11 8q2 0 4.5 -0.5t7 -1t8.5 -0.5q5 0 34.5 -0.5t41.5 -0.5q31 0 51 2t29 2q17 0 17 -9q0 -8 -14 -8q-28 0 -44 -4q-7 -2 -9.5 -7t-2.5 -23z" />
    <glyph glyph-name="afii10092" unicode="&#x44a;" horiz-adv-x="512" 
d="M246 384v-131q20 4 53 4q83 0 134 -34q53 -36 53 -96q0 -63 -46 -100q-37 -30 -108 -30q-29 0 -53 2t-103 2q-15 0 -38 -2t-26 -2q-18 0 -18 9q0 8 14 8q28 0 44 4q8 2 10 7t2 23v366h-15q-58 0 -88 -23q-33 -25 -40 -76q0 -13 -8 -13q-7 0 -7 11q0 3 1.5 18t3 42.5
t0.5 63.5q70 -6 144 -6h70l50 2q3 0 9.5 1t13.5 1q18 0 18 -9q0 -8 -14 -8q-28 0 -44 -4q-7 -2 -9.5 -7t-2.5 -23zM246 237v-216q20 -6 39 -6q62 0 91 39q23 30 23 80q0 53 -31 82q-27 25 -73 25q-5 0 -49 -4z" />
    <glyph glyph-name="afii10093" unicode="&#x44b;" horiz-adv-x="641" 
d="M165 386v-133q24 4 47 4q91 0 140 -34q52 -36 52 -96q0 -64 -46 -100q-37 -30 -107 -30q-13 0 -62 1.5t-80 2t-66 -1.5q-23 -3 -23 7q0 9 20 9q23 0 35 2q4 1 7 4q3 4 3 27v338q0 18 -2.5 23t-9.5 7q-16 4 -44 4q-14 0 -14 8q0 9 19 9q4 0 7.5 -0.5t9.5 -1t11 -0.5
q66 -2 68 -2q24 0 50.5 1.5t36.5 1.5q13 0 13 -8q0 -9 -20 -9q-23 0 -35 -2q-6 -1 -7 -4q-3 -4 -3 -27zM165 237v-216q22 -6 40 -6q60 0 91 40q24 31 24 79q0 52 -34 82q-29 25 -72 25q-27 0 -49 -4zM566 386v-338q0 -18 2 -23t10 -7q16 -4 44 -4q6 0 9 -1q5 -1 5 -7
q0 -3 -2 -5q-4 -4 -16 -4q-2 0 -7 0.5t-8 0.5q-24 3 -64 3q-6 0 -38.5 -0.5t-40.5 -0.5t-16 -1t-12 -1q-5 0 -7 1q-5 1 -5 7q0 3 2 5q3 4 18 4q23 0 35 2q6 1 7 4q1 1 1 3q3 15 3 24v338q0 18 -2 23t-10 7q-16 4 -44 4q-14 0 -14 8q0 6 8 8q3 1 10 1q5 0 25 -2q42 -2 69 -2
q12 0 36.5 0.5t26.5 0.5q24 2 28 2q12 0 12 -8q0 -9 -20 -9q-23 0 -35 -2q-4 -1 -7 -4q-3 -4 -3 -27z" />
    <glyph glyph-name="afii10094" unicode="&#x44c;" horiz-adv-x="422" 
d="M167 382v-129q23 4 48 4q89 0 139 -34q53 -36 53 -96q0 -30 -13.5 -57.5t-34.5 -43.5q-37 -29 -104 -29q-19 0 -59 2q-39 1 -117 1q-24 0 -36 -1q-2 0 -6 -0.5t-6 -0.5q-11 0 -11 8q0 9 20 9q23 0 35 2q6 1 7 4q3 4 3 27v334q0 18 -2.5 23t-9.5 7q-16 4 -44 4
q-14 0 -14 8q0 9 18 9q3 0 6 -0.5t8 -1t10 -0.5q2 0 14 -0.5t29.5 -1t32.5 -0.5q27 0 54 1.5t32 1.5q13 0 13 -8q0 -9 -20 -9q-23 0 -35 -2q-4 -1 -7 -4q-3 -4 -3 -27zM167 237v-216q19 -6 42 -6q57 0 87 40q24 32 24 79q0 52 -33 82q-28 25 -73 25q-3 0 -47 -4z" />
    <glyph glyph-name="afii10095" unicode="&#x44d;" horiz-adv-x="410" 
d="M259 271l33 -15q-2 81 -33 129q-28 43 -75 43q-36 0 -69 -25q-36 -27 -50 -85q-3 -11 -9 -11t-6 10q0 11 2 22t3 37q2 39 2 61q0 11 7 11q4 0 6 -9q0 -3 1.5 -6.5t6.5 -7.5t14 -4q6 0 13 2.5l19.5 7t23.5 7.5q26 7 49 7q79 0 134 -72q49 -63 49 -163q0 -121 -84 -186
q-50 -38 -121 -38q-74 0 -116 37q-28 26 -28 60q0 19 15 32q15 12 32 12q19 0 30 -11q12 -10 12 -31t-15 -30q-1 -1 -3.5 -2t-4 -2t-3.5 -2.5t-3 -3t-2 -3.5t-1 -5q0 -10 20 -21q20 -10 44 -10q94 0 124 97q19 63 17 137q-12 10 -23 10q-15 0 -34 -16l-54 -43
q-18 -15 -40 -15q-15 0 -37 12l-32 18q-17 10 -17 19q0 8 7 8q4 0 10 -8t10 -10q10 -6 20 -6q11 0 43 26l39 31q17 14 38 14q16 0 36 -9z" />
    <glyph glyph-name="afii10096" unicode="&#x44e;" horiz-adv-x="689" 
d="M84 48v334q0 23 -3 27q-3 3 -7 4q-12 2 -35 2q-20 0 -20 9q0 8 11 8q2 0 6 -0.5t6 -0.5h2l101 -2l50 2q3 0 9.5 1t13.5 1q18 0 18 -9q0 -8 -14 -8q-28 0 -44 -4q-8 -2 -10 -7t-2 -23v-149h89q2 42 19 86t45 72q59 57 138 57q83 0 140 -61q62 -66 62 -170q0 -107 -67 -172
q-58 -57 -138 -57q-85 0 -144 66q-60 68 -55 162h-89v-168q0 -23 4 -27q1 -2 7 -4q3 -1 10 -1q4 0 12.5 -0.5t12.5 -0.5q20 0 20 -9q0 -6 -5 -7q-2 -1 -6 -1q-2 0 -6 0.5t-6 0.5h-2l-102 2l-50 -2q-1 0 -4 -0.5t-4 -0.5q-5 -1 -15 -1q-18 0 -18 9q0 8 14 8q28 0 44 4
q8 2 10 7t2 23zM453 433q-50 0 -79 -46q-35 -57 -35 -170q0 -121 41 -179q25 -36 65 -36q75 0 105 79q21 55 21 141q0 76 -19 132q-11 32 -31.5 51t-36.5 23.5t-31 4.5z" />
    <glyph glyph-name="afii10097" unicode="&#x44f;" horiz-adv-x="482" 
d="M393 434q36 0 43 1q10 2 23 2q18 0 18 -9q0 -8 -14 -8q-28 0 -44 -4q-7 -2 -9.5 -7t-2.5 -23v-338q0 -21 4 -27q1 -3 7 -4q12 -2 35 -2q20 0 20 -9q0 -8 -11 -8q-3 0 -19 2q-20 1 -70 1q-44 0 -76 -2q-20 -2 -23 -2q-18 0 -18 9q0 8 14 8q29 0 44 4q11 3 11 13v176h-28
q-36 0 -60 -17q-28 -19 -45 -68q-19 -57 -31 -100q-3 -15 -7 -24q-15 2 -47 2q-20 0 -40 -1t-35 -1q-17 0 -17 9q0 6 11 6q4 0 10 -0.5t10 -0.5q19 0 31 21q6 10 26 53.5t36 65.5q22 31 51 45q20 10 50 16q-81 4 -109 23q-41 29 -41 84q0 62 46 92q38 25 121 25q15 0 47 -2
q34 -2 50 -2q6 0 19 0.5t20 0.5zM325 225v188q-16 5 -42 5q-51 0 -70 -10q-41 -20 -41 -84q0 -59 31 -82q23 -17 88 -17h34z" />
    <glyph glyph-name="afii10071" unicode="&#x451;" horiz-adv-x="430" 
d="M182 296l-55 -2q-5 -32 -5 -65q0 -95 34 -148q38 -60 116 -60q31 0 55 14q17 10 33 32q12 18 17 27l3.5 7t4.5 7q6 8 11 8q8 0 8 -7q0 -8 -10 -26q-17 -30 -38 -51q-44 -44 -113 -44q-85 0 -144 59q-68 68 -68 167q0 70 29 125q58 109 172 109q51 0 89 -21
q75 -41 81 -127q-30 -4 -66 -4l-78 1zM130 313h187q0 43 -13 73q-20 47 -73 47q-48 0 -75 -42q-12 -21 -21 -54q-4 -16 -5 -24zM132 609q21 0 34.5 -14.5t13.5 -35.5q0 -23 -15.5 -35t-33.5 -12q-20 0 -34 14t-14 34q0 21 14 35t35 14zM306 609q22 -1 34 -17t12 -34
q0 -20 -14 -32.5t-33 -12.5q-20 0 -34.5 13t-14.5 34q0 18 13.5 33.5t36.5 15.5z" />
    <glyph glyph-name="afii10099" unicode="&#x452;" horiz-adv-x="462" 
d="M411 302v-288q0 -105 -28 -168q-44 -98 -143 -98q-36 0 -63 15q-38 21 -38 59q0 20 12 35t36 15q18 0 29.5 -13t11.5 -29q0 -17 -17 -30q-9 -7 -9 -12q0 -9 11.5 -17t32.5 -8q52 0 70 60q13 42 13 124v342q0 31 -0.5 45t-7.5 35.5t-20 32.5q-19 16 -54 16q-31 0 -54 -17
q-35 -27 -35 -58v-297q0 -23 3 -26q5 -7 49 -7q12 0 12 -9q0 -6 -13 -6q-11 0 -40.5 1t-50.5 1q-22 0 -51.5 -1t-41.5 -1q-15 0 -15 7q0 8 11 8h15q34 0 38 10q1 2 1 26v498h-73q-18 0 -18 8q0 9 17 9h74v32q0 48 -5 55q-3 4 -9 6.5t-11 3t-14.5 0.5h-12.5h-5t-5 0.5
t-4.5 0.5t-4.5 0.5t-3.5 1t-2 2t-0.5 3.5q0 8 36 8q48 2 81 15q7 3 12.5 6t8 4.5t4.5 2.5t4 1q4 0 7 -3.5t3.5 -10t1 -11.5t0 -14t-0.5 -11v-90h124h7.5h8t5.5 -0.5t4 -3t1 -5.5q0 -10 -25 -10h-125v-163q27 38 59 53q25 11 62 11q84 0 117 -49q18 -27 18 -97z" />
    <glyph glyph-name="afii10100" unicode="&#x453;" horiz-adv-x="344" 
d="M158 416v-371q0 -18 4 -23q5 -8 51 -8q15 0 15 -8q0 -9 -18 -9q-1 0 -40 3q-11 1 -32 1q-10 0 -50.5 -0.5t-45.5 -0.5t-9.5 -0.5t-7 -1t-4.5 -0.5q-11 0 -11 8q0 9 17 9l26 1q15 1 19 5.5t4 25.5v344q0 15 -6 20t-23 6l-29 1q-12 0 -12 8q0 9 20 9q18 0 24 -1t29 -1h42
h228q0 -47 1 -79q1 -24 2.5 -32t1.5 -19t-7 -11t-10 12q-19 63 -49 86q-33 26 -88 26h-42zM202 664h101l-136 -140q-19 -19 -26 -19q-6 0 -6 7q0 2 2 6z" />
    <glyph glyph-name="afii10101" unicode="&#x454;" horiz-adv-x="414" 
d="M119 239l32 16q23 13 47 13q16 0 34 -9l43 -19q41 -18 53 -18q11 0 20 6q4 3 11 11.5t11 8.5q8 0 8 -9q0 -10 -19 -21l-34 -19q-34 -17 -53 -17q-15 0 -31 8l-60 30q-26 12 -32 12q-13 0 -31 -10q2 -88 30 -141q36 -66 105 -66q34 0 63 19q22 14 38 37q15 21 20 21
q10 0 10 -10q0 -5 -19 -29q-23 -28 -44 -41q-38 -24 -86 -24q-96 0 -155 72q-49 61 -49 155t49 158q56 72 142 72q26 0 49 -6q10 -2 30 -10t28 -8q16 0 22 18q2 9 6 9q7 0 7 -11q0 -31 2 -61l2.5 -31t1.5 -24q0 -10 -6 -10q-5 0 -9 11q-10 51 -48 81q-32 25 -75 25
q-52 0 -80 -43q-37 -57 -33 -146z" />
    <glyph glyph-name="afii10102" unicode="&#x455;" horiz-adv-x="362" 
d="M300 439q-1 -11 -1 -34q0 -30 2 -45q0 -3 1.5 -14t1.5 -16q0 -10 -8 -10q-6 0 -11 17q-11 37 -29 59q-30 34 -77 34q-34 0 -56 -21t-22 -54q0 -25 15 -43q14 -17 51 -32q77 -32 94 -41q41 -22 59 -52q16 -27 16 -59q0 -60 -43 -100q-42 -40 -102 -40q-31 0 -63 15
q-14 8 -22 11q-10 5 -19 5q-4 0 -6.5 -0.5t-4.5 -2t-3.5 -2.5t-3 -3.5t-2 -3t-1.5 -3.5l-1 -4q-5 -12 -11 -12q-7 0 -7 9q0 1 2 21q2 16 2 50q0 22 -1 41t-1 21q0 11 7 11q6 0 9 -11q8 -50 26 -72q42 -52 107 -52q36 0 58 21.5t22 56.5q0 39 -25 62q-16 15 -71 36
q-31 11 -49 20q-30 15 -45 28q-39 32 -39 87t38 93t95 38q16 0 38 -6q30 -9 39 -9q21 0 26 20q3 10 9 10q7 0 7 -10q0 -3 -0.5 -7t-0.5 -7z" />
    <glyph glyph-name="afii10103" unicode="&#x456;" horiz-adv-x="252" 
d="M173 361v-301q0 -35 6 -40q5 -4 50 -6q14 0 14 -8q0 -9 -18 -9q-1 0 -21 2q-22 2 -65 2q-36 0 -57 -1.5t-44 -1.5q-9 0 -12 4q-1 1 -1 3q0 10 17 10q40 1 43 4q6 6 6 43v244q0 82 -3 87q-3 6 -16 6q-6 0 -17.5 -0.5t-17.5 -0.5q-14 0 -14 8q0 7 9 7q34 0 74 10
q17 4 36 14q4 2 7.5 4t5.5 3.5t3.5 2.5t2.5 1q10 0 11 -19t1 -68zM122 674q26 0 39 -20q7 -11 7 -26q0 -20 -12 -32t-31 -12q-20 0 -33.5 12.5t-13.5 32.5q0 28 24 40q10 5 20 5z" />
    <glyph glyph-name="afii10104" unicode="&#x457;" horiz-adv-x="260" 
d="M181 361v-301q0 -35 6 -40q5 -4 50 -6q14 0 14 -8q0 -9 -18 -9q-1 0 -21 2q-22 2 -65 2q-36 0 -57 -1.5t-44 -1.5q-9 0 -12 4q-1 1 -1 3q0 10 17 10q40 1 43 4q6 6 6 43v244q0 82 -3 87q-3 6 -16 6q-6 0 -17.5 -0.5t-17.5 -0.5q-14 0 -14 8q0 7 9 7q34 0 74 10
q18 4 36 14q4 2 7.5 4t5.5 3.5t3.5 2.5t2.5 1q10 0 11 -19t1 -68zM66 673q24 0 38 -20q7 -10 7 -25q0 -19 -12 -31t-30 -12q-19 0 -32.5 12.5t-13.5 31.5q0 27 24 39q10 5 19 5zM184 673q18 0 31 -12.5t13 -32.5q0 -16 -10.5 -29.5t-31.5 -13.5t-33 13.5t-12 30.5
q0 19 12.5 31.5t30.5 12.5z" />
    <glyph glyph-name="afii10105" unicode="&#x458;" horiz-adv-x="237" 
d="M92 -55v361q0 82 -3 87q-3 6 -16 6q-5 0 -13 -0.5t-12 -0.5h-4h-20q-16 0 -16 8q0 7 9 7q49 0 88 10q18 5 33 14q18 11 23 11q11 0 11 -19q2 -24 2 -68v-387q0 -35 -4 -63q-13 -95 -57 -137q-14 -14 -34 -23q-19 -9 -43 -9q-32 0 -52 17t-20 41q0 21 14 33t37 12
q21 0 31.5 -11t10.5 -25q0 -5 -3 -19q-4 -18 -4 -21q0 -8 6 -8t10 3q11 8 17 26q9 28 9 155zM123 674q19 0 32.5 -12.5t13.5 -33.5q0 -20 -12 -32t-31 -12q-20 0 -33.5 12.5t-13.5 32.5q0 9 5 21q13 24 39 24z" />
    <glyph glyph-name="afii10106" unicode="&#x459;" horiz-adv-x="598" 
d="M262 415h-10l-29 -90q-22 -74 -59 -171q-37 -98 -72 -134q-29 -29 -65 -29q-26 0 -45 17q-18 16 -18 42q0 25 17 40t37 15q17 0 28 -12t11 -27q0 -20 -16 -31q-11 -7 -11 -12q0 -7 9 -7q17 0 40 23q39 41 95 205q32 94 39 132q3 14 3 22q0 12 -5 15t-19 4q-51 3 -60 3
q-14 0 -14 8q0 9 15 9q9 0 27 -2q35 -3 68 -3h44q8 0 15 1q11 1 22 3t19 2q10 0 14 -4t4 -15q0 -1 -2 -19v-17v-130q20 4 53 4q84 0 134 -34q53 -36 53 -96q0 -34 -17 -64t-42 -45q-34 -21 -98 -21q-18 0 -54 2q-52 2 -77 2q-33 0 -49 -1q-26 -2 -39 -2q-12 0 -12 8q0 6 8 8
q4 1 9.5 1t14 0.5t14.5 0.5q12 1 16 6t4 25v368zM344 237v-216q20 -6 42 -6q57 0 87 40q24 32 24 79q0 52 -33 83q-28 24 -73 24q-19 0 -47 -4z" />
    <glyph glyph-name="afii10107" unicode="&#x45a;" horiz-adv-x="682" 
d="M345 49v180h-178v-180q0 -23 3 -27q3 -3 7 -4q12 -2 35 -2q20 0 20 -9q0 -8 -12 -8q-20 0 -36 1.5t-52 1.5q-34 0 -65 -2t-34 -2q-18 0 -18 9q0 8 14 8q28 0 44 4q5 2 7 3.5t3.5 7.5t1.5 19v337q0 18 -2.5 23t-9.5 7q-16 4 -44 4q-14 0 -14 8q0 9 17 9l29 -2q29 -2 73 -2
q25 0 44 0.5t28.5 1.5t12.5 1q13 0 13 -8q0 -9 -20 -9q-23 0 -35 -2q-4 -1 -7 -4q-3 -4 -3 -27v-140h178v140q0 23 -3 27q-3 3 -7 4q-12 2 -35 2q-20 0 -20 9q0 8 13 8q10 0 34 -1.5t53 -1.5q36 0 65 2t34 2q18 0 18 -9q0 -8 -14 -8q-28 0 -44 -4q-7 -2 -9.5 -7t-2.5 -23
v-133q23 4 48 4q89 0 139 -34q53 -36 53 -96q0 -30 -13.5 -57.5t-34.5 -43.5q-37 -29 -104 -29q-19 0 -59 2q-42 2 -125 2q-19 0 -29 -1q-2 0 -5.5 -0.5t-5.5 -0.5q-11 0 -11 8q0 9 20 9q23 0 35 2q4 1 7 4q3 4 3 27zM427 237v-216q19 -6 42 -6q57 0 87 40q24 32 24 79
q0 52 -33 82q-28 25 -73 25q-3 0 -47 -4z" />
    <glyph glyph-name="afii10108" unicode="&#x45b;" horiz-adv-x="476" 
d="M157 629v-63h130q19 0 19 -8t-5.5 -9.5t-19.5 -1.5h-124v-163q35 64 117 64q80 0 115 -44q12 -15 17 -38.5t5.5 -37t0.5 -53.5v-252q0 -4 4 -6q6 -4 43 -4q14 0 14 -7q0 -2 -2 -4q-4 -4 -17 -4q-4 0 -13 0.5t-13 0.5q-17 1 -51 1q-29 0 -58 -1t-44 -1q-14 0 -14 8
q0 7 20 7h20q21 0 24.5 5t3.5 38v203q0 95 -10 118q-18 41 -72 41q-50 0 -79 -43q-6 -9 -8.5 -17.5t-2.5 -14.5v-30v-255q0 -34 6 -40t47 -5q11 0 12 -5v-3q0 -7 -9 -7q-16 0 -32.5 1t-49.5 1q-34 0 -65 -1t-42 -1q-14 0 -14 7q0 5 5 7q2 1 6 1h15q17 0 24 1q4 0 9 3
q6 4 6 11v519h-72q-18 0 -18 8q0 9 19 9h71q-1 60 -2 69q-1 20 -11 24q-3 1 -37 4h-8t-7.5 0.5t-6 1.5t-5 2.5t-1.5 4.5q0 6 41 7q44 1 78 15q7 3 12 5.5t7.5 4t4.5 2.5t4 1q5 0 8 -5.5t4 -16t1.5 -18.5t0 -21t-0.5 -15z" />
    <glyph glyph-name="afii10109" unicode="&#x45c;" horiz-adv-x="458" 
d="M160 217v-172q0 -16 3 -21t11 -7q12 -3 34 -3q12 0 12 -7q0 -9 -16 -9q-3 0 -8 0.5t-7 0.5q-19 2 -59 2q-44 0 -59.5 -1t-41.5 -1q-15 0 -15 8q0 7 9 7q26 0 40 3q9 2 12 7t3 21v348q0 16 -6 21q-3 3 -43 4q-16 0 -16 9q0 8 14 8q7 0 38 -1.5t55 -1.5q8 0 23.5 0.5
t23.5 0.5h17q9 0 16.5 1t12.5 1q12 0 12 -8q0 -9 -16 -9q-36 0 -42 -3q-7 -3 -7 -16v-162h35q28 0 51 16q28 19 45 67l20 57q12 33 25 44q19 17 45 17q28 0 45 -20q13 -16 13 -34q0 -25 -13 -37.5t-29 -12.5q-13 0 -23.5 8.5t-10.5 22.5q0 23 21 25q1 0 5 0.5t6.5 1t4.5 2.5
t2 5q0 5 -8 11t-19 6q-17 0 -30 -13q-7 -8 -18 -38l-15 -41q-16 -46 -35 -68q-21 -23 -51 -28q39 -6 71 -23q29 -15 51 -46q16 -22 33.5 -66.5t24.5 -58.5q11 -22 32 -22q3 0 9.5 0.5t9.5 0.5q11 0 11 -6q0 -9 -17 -9q-7 0 -18.5 0.5t-16.5 0.5q-14 1 -43 1q-22 0 -48 -2
q-2 6 -3 13.5t-2 10.5q-6 33 -27 105q-17 51 -43 71q-25 19 -60 19h-30zM259 664h101l-136 -140q-19 -19 -26 -19q-6 0 -6 7q0 2 2 6z" />
    <glyph glyph-name="afii10110" unicode="&#x45e;" horiz-adv-x="401" 
d="M223 -24l-53 -150q-13 -38 -29 -56q-9 -12 -23 -20q-16 -9 -35 -9q-23 0 -39.5 13.5t-16.5 36.5q0 21 14 32t32 11q25 0 38 -22q9 -17 15 -17t10 6q5 8 9 19l53 155l-147 397q-2 5 -5.5 17t-5 14t-6 7.5t-10 6.5t-15.5 2q-23 0 -27 1q-9 2 -9 9q0 3 1 4q3 4 12 4
q6 0 26 -1.5t43 -1.5q14 0 37 1t36 1l54 1q11 0 11 -8q0 -7 -9 -7l-28 -1q-28 -1 -30 -6q-1 -2 -1 -4q0 -9 5 -19l108 -299l92 300q0 1 1 3.5t1 3.5q2 8 2 11q0 5 -5 8q-8 3 -25 3h-18q-12 0 -12 8q0 7 12 7q3 0 8 -1t15 -1q5 0 15 -0.5t15 -0.5h13q36 0 49 1q1 0 5 0.5
t5 0.5q13 0 13 -8q0 -7 -23 -7q-11 0 -23 -2q-11 -2 -15 -8q-5 -8 -12 -29q-97 -319 -128 -406zM205 524q-61 0 -100 31q-33 26 -33 60q0 23 15 37.5t41 14.5q22 0 33.5 -12t11.5 -28q0 -21 -18 -28q-2 -1 -21 -5q-13 -4 -13 -13q0 -18 27 -30t57 -12t57 12t27 30
q0 9 -11 12q-4 1 -11.5 2.5t-11.5 3.5q-18 8 -18 28q0 15 11.5 27.5t33.5 12.5t39 -13.5t17 -38.5q0 -33 -33 -60q-40 -31 -100 -31z" />
    <glyph glyph-name="afii10193" unicode="&#x45f;" horiz-adv-x="500" 
d="M404 0h-61q-48 0 -63.5 -9t-15.5 -29q0 -17 14 -61q12 -34 12 -54q0 -21 -11.5 -35t-24.5 -14t-24.5 14t-11.5 35q0 20 12 54q14 44 14 61q0 20 -15.5 29t-63.5 9h-61l-50 -2q-3 0 -9.5 -1t-13.5 -1q-18 0 -18 9q0 8 14 8q28 0 44 4q5 2 7 3.5t3.5 7.5t1.5 19v339
q0 18 -2 23t-10 7q-16 4 -44 4q-14 0 -14 8q0 9 18 9q7 0 13.5 -1t9.5 -1l50 -2l102 2h2q2 0 5.5 0.5t5.5 0.5q11 0 11 -8q0 -9 -20 -9q-23 0 -35 -2q-4 -1 -7 -4q-3 -4 -3 -27v-366h178v366q0 23 -3 27q-3 3 -7 4q-12 2 -35 2q-20 0 -20 9q0 8 11 8q2 0 5.5 -0.5t5.5 -0.5
h2l102 -2l50 2q3 0 9.5 1t13.5 1q18 0 18 -9q0 -8 -14 -8q-28 0 -44 -4q-7 -2 -9.5 -7t-2.5 -23v-339q0 -13 1.5 -19t3.5 -7.5t7 -3.5q16 -4 44 -4q14 0 14 -8q0 -9 -18 -9q-7 0 -13.5 1t-9.5 1z" />
    <glyph glyph-name="afii10050" unicode="&#x490;" horiz-adv-x="504" 
d="M107 75v562q0 25 -4 31q-6 9 -33 9h-26q-16 0 -16 9t22 9q7 0 29.5 -0.5t36.5 -0.5h133q138 0 168 18q44 26 62 113q5 26 15 26q11 0 10 -12l-6 -67q-4 -38 -6 -74q-1 -34 -2 -37q-3 -11 -12 -11q-5 0 -9.5 3.5t-20.5 6.5q-32 7 -73 9q-29 2 -63 2h-106v-596
q0 -37 10 -47q9 -9 35 -11q34 -2 37 -3q5 -2 5 -6q0 -10 -19 -10q-11 0 -23 0.5t-28 0.5h-19q-8 0 -23 0.5t-22 0.5q-8 0 -23.5 -0.5t-23.5 -0.5h-16q-16 0 -28 -0.5t-23 -0.5q-19 0 -19 10q0 5 9 7q7 1 19 1q2 0 7 0.5t7 0.5q28 3 33 11q6 8 6 47z" />
    <glyph glyph-name="afii10098" unicode="&#x491;" horiz-adv-x="344" 
d="M99 433h105q61 0 93 28q31 27 42 78q3 12 8 12q7 0 7 -11q0 -5 -1.5 -18t-2.5 -28q-2 -4 -1 -37.5t1 -35.5q0 -26 -9 -26q-3 0 -5.5 2t-10 6.5t-19.5 7.5q-19 5 -54 5h-94v-371q0 -18 4 -23q5 -8 51 -8q15 0 15 -8q0 -9 -18 -9q-1 0 -40 3q-11 1 -32 1q-10 0 -50.5 -0.5
t-45.5 -0.5t-9.5 -0.5t-7 -1t-4.5 -0.5q-11 0 -11 8q0 9 17 9l26 1q15 1 19 5.5t4 25.5v344q0 15 -6 20t-23 6l-29 1q-12 0 -12 8q0 9 21 9q11 0 23.5 -1t48.5 -1z" />
    <glyph glyph-name="endash" unicode="&#x2013;" horiz-adv-x="495" 
d="M470 250v-52h-446v52h446z" />
    <glyph glyph-name="emdash" unicode="&#x2014;" horiz-adv-x="607" 
d="M585 250v-52h-564v52h564z" />
    <glyph glyph-name="quoteleft" unicode="&#x2018;" horiz-adv-x="262" 
d="M110 564q2 34 43 34q22 0 36.5 -14.5t14.5 -35.5q0 -25 -18.5 -42.5t-44.5 -17.5q-34 0 -59 23q-27 25 -27 70q0 25 7 45q13 40 51 61q11 7 34.5 15t32.5 8q11 0 11 -8q0 -7 -12 -10q-49 -14 -66 -33q-16 -18 -16 -50q0 -27 13 -45z" />
    <glyph glyph-name="quoteright" unicode="&#x2019;" horiz-adv-x="262" 
d="M152 629q-2 -34 -43 -34q-22 0 -36.5 14.5t-14.5 35.5q0 25 18.5 42.5t44.5 17.5q34 0 59 -23q27 -25 27 -70q0 -25 -7 -45q-13 -40 -51 -61q-11 -7 -34.5 -15t-32.5 -8q-11 0 -11 8q0 7 12 10q49 14 66 33q16 18 16 50q0 27 -13 45z" />
    <glyph glyph-name="quotedblleft" unicode="&#x201c;" horiz-adv-x="446" 
d="M297 564q2 34 43 34q22 0 36.5 -14.5t14.5 -35.5q0 -25 -18.5 -42.5t-44.5 -17.5q-34 0 -59 23q-27 25 -27 70q0 25 7 45q13 40 51 61q11 7 34.5 15t32.5 8q11 0 11 -8q0 -7 -12 -10q-49 -14 -66 -33q-16 -18 -16 -50q0 -27 13 -45zM114 564q3 34 42 34q23 0 37.5 -14.5
t14.5 -36.5q0 -24 -17.5 -41.5t-46.5 -17.5q-34 0 -59 23q-27 25 -27 72q0 72 58 104q9 6 33 14.5t34 8.5q12 0 12 -8q0 -7 -12 -10q-50 -12 -68 -35q-15 -17 -15 -47q0 -18 5 -31q3 -7 9 -15z" />
    <glyph glyph-name="quotedblright" unicode="&#x201d;" horiz-adv-x="446" 
d="M149 629q-2 -34 -43 -34q-22 0 -36.5 14.5t-14.5 35.5q0 25 18.5 42.5t44.5 17.5q34 0 59 -23q27 -25 27 -70q0 -25 -7 -45q-13 -40 -51 -61q-11 -7 -34.5 -15t-32.5 -8q-11 0 -11 8q0 7 12 10q49 14 66 33q16 18 16 50q0 27 -13 45zM332 629q-3 -34 -42 -34
q-23 0 -37.5 14.5t-14.5 36.5q0 24 17.5 41.5t46.5 17.5q34 0 59 -23q27 -25 27 -72q0 -72 -58 -104q-9 -6 -33 -14.5t-34 -8.5q-12 0 -12 8q0 7 12 10q50 12 68 35q15 17 15 47q0 19 -5 31q-3 8 -9 15z" />
    <glyph glyph-name="quotedblbase" unicode="&#x201e;" horiz-adv-x="446" 
d="M149 24q-2 -34 -43 -34q-29 0 -45 26q-6 11 -6 24q0 25 18.5 42.5t44.5 17.5q34 0 59 -23q27 -25 27 -70q0 -25 -7 -45q-13 -40 -51 -61q-11 -7 -34.5 -15t-32.5 -8q-11 0 -11 8q0 7 12 10q49 14 66 33q16 18 16 50q0 27 -13 45zM332 24q-3 -34 -42 -34q-23 0 -37.5 14.5
t-14.5 36.5q0 24 17.5 41.5t46.5 17.5q34 0 59 -23q27 -25 27 -72q0 -72 -58 -104q-9 -6 -33 -14.5t-34 -8.5q-12 0 -12 8q0 7 12 10q50 12 68 35q15 17 15 47q0 19 -5 31q-3 7 -9 15z" />
    <glyph glyph-name="dagger" unicode="&#x2020;" 
d="M281 -138h-28v100q0 168 -19 280q-11 63 -30 110q53 55 50 125q-62 -1 -101 -30q-13 -10 -23 -10q-9 0 -17 10q-8 9 -14.5 14t-9 6.5t-10 3.5l-11.5 3q-14 4 -14 12q0 3 1.5 5t5 4t6 3t7.5 2.5t7 2.5q14 5 28 21q14 14 22 14q9 0 28 -13q43 -28 97 -27q-3 71 -31 106
q-14 19 -14 24q0 9 15 21q18 16 23 32q1 4 3 11t3 10t3.5 5.5t7.5 2.5t8.5 -3.5t4.5 -7l3 -10.5t2 -8q5 -14 19 -26q20 -17 20 -27q0 -4 -14 -24q-28 -40 -30 -106q58 -2 104 31q13 9 21 9q9 0 19 -13q15 -17 28 -22q2 -1 11.5 -3t13.5 -5t4 -9q0 -3 -1.5 -5.5t-5 -4t-6 -2
t-7 -1.5t-6.5 -2q-15 -5 -33 -24q-10 -10 -17 -10q-10 0 -29 15q-35 25 -95 25q-3 -67 50 -125q-20 -47 -30 -107q-19 -120 -19 -282v-101z" />
    <glyph glyph-name="bullet" unicode="&#x2022;" horiz-adv-x="693" 
d="M349 496q59 0 101 -42.5t42 -101.5t-42.5 -101.5t-101.5 -42.5q-60 0 -102 42.5t-42 101.5q0 60 42.5 102t102.5 42z" />
    <glyph glyph-name="ellipsis" unicode="&#x2026;" horiz-adv-x="776" 
d="M129 101q22 0 37.5 -15.5t15.5 -38.5q0 -22 -16 -37.5t-37 -15.5q-23 0 -38.5 15.5t-15.5 38.5q0 22 15.5 37.5t38.5 15.5zM389 102q22 0 37.5 -15.5t15.5 -38.5q0 -22 -16 -38t-38 -16t-38 16t-16 38t16 38t39 16zM648 101q22 0 37 -15.5t15 -38.5t-15 -38t-38 -15
t-38.5 15.5t-15.5 38.5q0 22 16 37.5t39 15.5z" />
    <glyph glyph-name="Euro" unicode="&#x20ac;" horiz-adv-x="599" 
d="M552 12v-6q0 -13 -6 -13q-4 0 -12 15q-2 4 -5 13t-7 17q-3 9 -10 13q-55 -63 -138 -63q-137 0 -205 105q-52 82 -63 185h-42q-20 0 -20 12q0 3 0.5 4.5t1.5 3t3 2.5t3.5 1.5t4.5 0.5h4.5h5h5.5h32q-5 55 1 109h-41q-20 0 -20 12q0 9 6 10.5t21 1.5h37q19 107 62 169
q70 101 191 101q34 0 58 -8q25 -8 62 -35q18 -13 26 -13q7 0 14 16q1 2 2.5 6.5t2.5 6.5q6 15 12 15t6 -7l-2 -14q-1 -4 -3 -22t-2 -20q-1 -12 -1.5 -41.5t-1.5 -51.5v-25q0 -20 -4 -24q-1 -1 -4 -1t-7 4q0 1 -0.5 2.5t-1 5t-1.5 8.5q-15 66 -31 97q-43 81 -125 81
q-67 0 -97 -52q-14 -23 -26 -66q-19 -64 -24 -132h267q18 0 18 -13q0 -11 -26 -11h-261q-2 -51 0 -109h225q18 0 18 -13q0 -7 -10 -9t-16 -2h-216q6 -92 25 -161q6 -20 10 -29q34 -80 130 -80q61 0 101 49q14 17 28 46q15 31 29 91q5 24 11 24q8 0 8 -15q0 -3 -1 -7.5
t-1 -9.5q-3 -30 -3 -101q0 -11 0.5 -20t0.5 -14q0 -16 1 -24q0 -3 0.5 -8t0.5 -7z" />
    <glyph glyph-name="afii61352" unicode="&#x2116;" horiz-adv-x="958" 
d="M528 180v445q0 26 -1 36q0 3 -2 7q-5 7 -15 7q-11 1 -33 1h-24h-7q-11 0 -11 9q0 6 8 8t24 2q13 0 38 -0.5t37 -0.5t34 0.5t34 0.5q16 0 24 -2q8 -4 8 -7t-3 -6q-6 -4 -20 -4q-7 0 -19.5 0.5t-18.5 0.5q-18 0 -22 -4t-4 -35v-576v-11.5v-13v-10.5q2 -14 2 -22
q0 -14 -9 -14q-7 0 -14 11l-398 594v-514v-13.5v-12v-9.5t0.5 -8l1.5 -6t3 -5.5l4.5 -3.5t5.5 -3q7 -3 66 -4q15 0 15 -7q0 -11 -27 -11q-11 0 -31 2q-8 1 -25 1q-6 0 -18 0.5t-18 0.5q-12 0 -38 -2q-28 -2 -43 -2q-21 0 -21 9t20 9q7 0 19 0.5t19 0.5q27 0 34 9q6 6 6 40
v493q0 39 -4.5 60t-19.5 36q-13 13 -30 16q-11 2 -33 2q-7 0 -21 2q-9 2 -9 8q0 9 16 9q8 0 33 -1t50 -1q62 0 92 2zM785 700q56 0 95 -37q21 -21 31 -44q12 -27 12 -58q0 -58 -39 -98q-17 -17 -33 -25q-29 -15 -63 -15q-54 0 -94 35q-45 41 -45 102q0 30 12 59q8 21 26 40
q39 41 98 41zM786 685q-39 0 -58 -46q-12 -30 -12 -75q0 -49 13 -81q20 -46 60 -46q39 0 56 45q4 11 8 35q3 24 3 48q0 47 -11 76q-17 44 -59 44zM923 369v-28h-274v28h274z" />
    <glyph glyph-name="trademark" unicode="&#x2122;" horiz-adv-x="732" 
d="M196 680v-295q0 -14 4 -17q5 -5 26 -5q15 0 15 -7t-17 -7q-6 0 -15.5 0.5t-22.5 0.5h-41q-6 0 -18.5 -0.5t-18.5 -0.5q-18 0 -18 7q0 2 1 3q3 4 14 4h11q14 0 16 2q4 4 4 23v292h-5q-52 0 -65 -8q-20 -10 -28 -56q-2 -17 -10 -17q-9 0 -9 13q0 2 0.5 5.5t0.5 5.5
q1 6 1 18q1 8 2.5 27t2.5 28q11 2 62 0.5t85 -1.5q77 0 137 3q3 -44 7 -86v-7q-1 -8 -7 -8q-10 0 -12 14q-3 28 -13 47q-17 24 -58 23l-29 -1h-2zM429 696l95 -240l82 240q22 0 49 0.5t38 0.5q22 0 22 -9q0 -3 -1 -4.5t-3 -2t-5 -0.5h-6h-7q-20 -1 -23.5 -5.5t-3.5 -26.5
v-267q0 -12 4 -15t22 -3h12q14 0 14 -8q0 -7 -17 -7q-8 0 -15.5 0.5t-16.5 0.5h-78h-4q-3 0 -8 -0.5t-7 -0.5q-16 0 -16 7q0 8 16 8l23 1q9 1 10.5 4t1.5 19v242l-84 -251q-1 -2 -2 -6.5t-2 -6.5q-5 -12 -10 -12t-15 25l-96 243v-240q0 -9 2.5 -13.5t4.5 -4.5h9h16
q13 0 13 -7t-20 -7q-4 0 -12.5 0.5t-13.5 0.5q-17 0 -26 -1q-8 -1 -25 -1q-19 0 -19 7q0 8 21 8h10q10 0 13 2q3 3 3 25v249v12.5t-0.5 9.5t-1 6.5t-1.5 4.5l-1.5 3t-3 1.5t-3 1t-4 0.5h-4.5q-29 0 -29 9q0 8 29 8h74z" />
    <glyph glyph-name="radical" unicode="&#x221a;" horiz-adv-x="658" 
d="M252 472l115 -404l109 714h132q11 0 11 -10q0 -8 -11 -8h-108l-139 -897q-4 -31 -13 -31q-6 0 -14 29l-177 589h-109q-6 0 -8 5q-1 1 -1 5t5 7q1 1 4 1h204z" />
    <glyph glyph-name="infinity" unicode="&#x221e;" horiz-adv-x="679" 
d="M306 312q-20 -24 -48 -47q-42 -34 -86 -34q-48 0 -81 32.5t-33 81.5q0 52 38.5 84.5t101.5 32.5q62 0 101 -21q35 -19 69 -61q26 34 61 58q37 24 75 24q51 0 83.5 -31t32.5 -79q0 -47 -32 -84t-109 -37q-68 0 -111 24q-32 18 -62 57zM293 330q-32 46 -50 66
q-35 41 -72 41q-36 0 -62.5 -25.5t-26.5 -64.5q0 -38 25.5 -66t67.5 -28q39 0 76 32q23 20 42 45zM382 364q20 -29 53 -65q39 -43 76 -43q31 0 58 25t27 70q0 39 -24 64t-68 25q-36 0 -70 -25q-28 -21 -52 -51z" />
    <glyph glyph-name="approxequal" unicode="&#x2248;" horiz-adv-x="552" 
d="M488 465q5 0 5 -6q0 -9 -13 -26q-22 -29 -37 -41q-43 -36 -92 -36q-16 0 -95 25q-58 19 -87 19q-37 0 -56 -14q-8 -6 -27 -26q-18 -20 -20 -20q-4 0 -6 3q-1 1 -1 4q0 7 19 29q30 35 35 39q41 36 90 36q26 0 93 -23q54 -19 83 -19q41 0 64 12q9 5 18 14t12 15l3 5
q3 5 5.5 7.5t6.5 2.5zM488 327q5 0 5 -6q0 -9 -13 -26q-22 -29 -37 -41q-43 -36 -92 -36q-16 0 -95 25q-57 19 -88 19q-35 0 -55 -14q-8 -6 -27 -26q-18 -20 -20 -20q-7 0 -7 7t19 29q30 35 35 39q41 36 91 36q26 0 92 -23q52 -19 83 -19q41 0 64 12q17 8 30 29l3 5
q3 5 5.5 7.5t6.5 2.5z" />
    <glyph glyph-name="notequal" unicode="&#x2260;" horiz-adv-x="532" 
d="M347 403h126v-36h-159l-56 -62h215v-36h-248l-67 -73l-22 20l48 53h-126v36h159l56 62h-215v36h248l67 74l23 -21z" />
    <glyph glyph-name="lessequal" unicode="&#x2264;" horiz-adv-x="542" 
d="M486 685v-46l-366 -233l366 -244v-46l-429 287v7zM486 55v-46l-429 287v45z" />
    <glyph glyph-name="greaterequal" unicode="&#x2265;" horiz-adv-x="542" 
d="M57 685l429 -275v-7l-429 -287v46l366 244l-366 233v46zM57 55l429 286v-45l-429 -287v46z" />
    <glyph glyph-name="Acute" unicode="&#xf6c9;" horiz-adv-x="501" 
d="M280 919h101l-136 -140q-19 -19 -26 -19q-6 0 -6 7q0 2 2 6z" />
    <glyph glyph-name="Dieresis" unicode="&#xf6cb;" horiz-adv-x="501" 
d="M164 864q20 0 34 -15t14 -35q0 -19 -14.5 -33t-34.5 -14t-34 14t-14 34t14.5 34.5t34.5 14.5zM338 864q20 0 33 -15t13 -36t-14.5 -33t-32.5 -12q-20 0 -34.5 13.5t-14.5 33.5q0 21 15 35t35 14z" />
    <glyph glyph-name="cyrBreve" unicode="&#xf6d1;" horiz-adv-x="330" 
d="M165 733q-68 0 -104 27q-33 24 -33 60q0 25 16.5 41t40.5 16q21 0 33.5 -13.5t12.5 -31.5t-17 -26q-4 -2 -7.5 -3t-7.5 -1.5t-8 -1.5q-12 -3 -12 -14q0 -18 28 -29q22 -8 58 -8t58 8q28 11 28 29q0 9 -10 13q-2 1 -5.5 2t-5.5 1q-10 2 -14 4q-17 8 -17 26t12.5 31.5
t33.5 13.5q24 0 40.5 -16t16.5 -41q0 -37 -34 -61q-36 -26 -103 -26z" />
    <glyph glyph-name="cyrbreve" unicode="&#xf6d4;" horiz-adv-x="283" 
d="M146 524q-61 0 -100 31q-33 26 -33 60q0 23 15 37.5t41 14.5q22 0 33.5 -12t11.5 -28q0 -21 -18 -28q-2 -1 -21 -5q-13 -4 -13 -13q0 -18 27 -30t57 -12t57 12t27 30q0 9 -11 12q-4 1 -11.5 2.5t-11.5 3.5q-18 8 -18 28q0 15 11.5 27.5t33.5 12.5t39 -13.5t17 -38.5
q0 -33 -33 -60q-40 -31 -100 -31z" />
    <glyph glyph-name="nbspace" horiz-adv-x="233" 
 />
    </font>
</defs>
</svg>
